G04 #@! TF.GenerationSoftware,KiCad,Pcbnew,(5.1.5)-3*
G04 #@! TF.CreationDate,2020-04-11T01:13:50-04:00*
G04 #@! TF.ProjectId,CPU,4350552e-6b69-4636-9164-5f7063625858,rev?*
G04 #@! TF.SameCoordinates,Original*
G04 #@! TF.FileFunction,Legend,Bot*
G04 #@! TF.FilePolarity,Positive*
%FSLAX46Y46*%
G04 Gerber Fmt 4.6, Leading zero omitted, Abs format (unit mm)*
G04 Created by KiCad (PCBNEW (5.1.5)-3) date 2020-04-11 01:13:50*
%MOMM*%
%LPD*%
G04 APERTURE LIST*
%ADD10C,0.150000*%
%ADD11C,0.120000*%
%ADD12C,0.152400*%
%ADD13C,0.203200*%
G04 APERTURE END LIST*
D10*
X170788095Y-117100000D02*
X170692857Y-117147619D01*
X170550000Y-117147619D01*
X170407142Y-117100000D01*
X170311904Y-117004761D01*
X170264285Y-116909523D01*
X170216666Y-116719047D01*
X170216666Y-116576190D01*
X170264285Y-116385714D01*
X170311904Y-116290476D01*
X170407142Y-116195238D01*
X170550000Y-116147619D01*
X170645238Y-116147619D01*
X170788095Y-116195238D01*
X170835714Y-116242857D01*
X170835714Y-116576190D01*
X170645238Y-116576190D01*
X171264285Y-116147619D02*
X171264285Y-117147619D01*
X171835714Y-116147619D01*
X171835714Y-117147619D01*
X172311904Y-116147619D02*
X172311904Y-117147619D01*
X172550000Y-117147619D01*
X172692857Y-117100000D01*
X172788095Y-117004761D01*
X172835714Y-116909523D01*
X172883333Y-116719047D01*
X172883333Y-116576190D01*
X172835714Y-116385714D01*
X172788095Y-116290476D01*
X172692857Y-116195238D01*
X172550000Y-116147619D01*
X172311904Y-116147619D01*
X172747619Y-114171428D02*
X173747619Y-114171428D01*
X173033333Y-113838095D01*
X173747619Y-113504761D01*
X172747619Y-113504761D01*
X173747619Y-112838095D02*
X173747619Y-112647619D01*
X173700000Y-112552380D01*
X173604761Y-112457142D01*
X173414285Y-112409523D01*
X173080952Y-112409523D01*
X172890476Y-112457142D01*
X172795238Y-112552380D01*
X172747619Y-112647619D01*
X172747619Y-112838095D01*
X172795238Y-112933333D01*
X172890476Y-113028571D01*
X173080952Y-113076190D01*
X173414285Y-113076190D01*
X173604761Y-113028571D01*
X173700000Y-112933333D01*
X173747619Y-112838095D01*
X172795238Y-112028571D02*
X172747619Y-111885714D01*
X172747619Y-111647619D01*
X172795238Y-111552380D01*
X172842857Y-111504761D01*
X172938095Y-111457142D01*
X173033333Y-111457142D01*
X173128571Y-111504761D01*
X173176190Y-111552380D01*
X173223809Y-111647619D01*
X173271428Y-111838095D01*
X173319047Y-111933333D01*
X173366666Y-111980952D01*
X173461904Y-112028571D01*
X173557142Y-112028571D01*
X173652380Y-111980952D01*
X173700000Y-111933333D01*
X173747619Y-111838095D01*
X173747619Y-111600000D01*
X173700000Y-111457142D01*
X172747619Y-111028571D02*
X173747619Y-111028571D01*
X166702380Y-115502380D02*
X167035714Y-115026190D01*
X167273809Y-115502380D02*
X167273809Y-114502380D01*
X166892857Y-114502380D01*
X166797619Y-114550000D01*
X166750000Y-114597619D01*
X166702380Y-114692857D01*
X166702380Y-114835714D01*
X166750000Y-114930952D01*
X166797619Y-114978571D01*
X166892857Y-115026190D01*
X167273809Y-115026190D01*
X166273809Y-114978571D02*
X165940476Y-114978571D01*
X165797619Y-115502380D02*
X166273809Y-115502380D01*
X166273809Y-114502380D01*
X165797619Y-114502380D01*
X165416666Y-115454761D02*
X165273809Y-115502380D01*
X165035714Y-115502380D01*
X164940476Y-115454761D01*
X164892857Y-115407142D01*
X164845238Y-115311904D01*
X164845238Y-115216666D01*
X164892857Y-115121428D01*
X164940476Y-115073809D01*
X165035714Y-115026190D01*
X165226190Y-114978571D01*
X165321428Y-114930952D01*
X165369047Y-114883333D01*
X165416666Y-114788095D01*
X165416666Y-114692857D01*
X165369047Y-114597619D01*
X165321428Y-114550000D01*
X165226190Y-114502380D01*
X164988095Y-114502380D01*
X164845238Y-114550000D01*
X164416666Y-114978571D02*
X164083333Y-114978571D01*
X163940476Y-115502380D02*
X164416666Y-115502380D01*
X164416666Y-114502380D01*
X163940476Y-114502380D01*
X163654761Y-114502380D02*
X163083333Y-114502380D01*
X163369047Y-115502380D02*
X163369047Y-114502380D01*
X166595238Y-112857142D02*
X166642857Y-112904761D01*
X166785714Y-112952380D01*
X166880952Y-112952380D01*
X167023809Y-112904761D01*
X167119047Y-112809523D01*
X167166666Y-112714285D01*
X167214285Y-112523809D01*
X167214285Y-112380952D01*
X167166666Y-112190476D01*
X167119047Y-112095238D01*
X167023809Y-112000000D01*
X166880952Y-111952380D01*
X166785714Y-111952380D01*
X166642857Y-112000000D01*
X166595238Y-112047619D01*
X165690476Y-112952380D02*
X166166666Y-112952380D01*
X166166666Y-111952380D01*
X165357142Y-112952380D02*
X165357142Y-111952380D01*
X164785714Y-112952380D02*
X165214285Y-112380952D01*
X164785714Y-111952380D02*
X165357142Y-112523809D01*
X173690476Y-109202380D02*
X174166666Y-109202380D01*
X174214285Y-109678571D01*
X174166666Y-109630952D01*
X174071428Y-109583333D01*
X173833333Y-109583333D01*
X173738095Y-109630952D01*
X173690476Y-109678571D01*
X173642857Y-109773809D01*
X173642857Y-110011904D01*
X173690476Y-110107142D01*
X173738095Y-110154761D01*
X173833333Y-110202380D01*
X174071428Y-110202380D01*
X174166666Y-110154761D01*
X174214285Y-110107142D01*
X173357142Y-109202380D02*
X173023809Y-110202380D01*
X172690476Y-109202380D01*
X167221428Y-110352380D02*
X167221428Y-109352380D01*
X166888095Y-110066666D01*
X166554761Y-109352380D01*
X166554761Y-110352380D01*
X166078571Y-110352380D02*
X166078571Y-109352380D01*
X165650000Y-110304761D02*
X165507142Y-110352380D01*
X165269047Y-110352380D01*
X165173809Y-110304761D01*
X165126190Y-110257142D01*
X165078571Y-110161904D01*
X165078571Y-110066666D01*
X165126190Y-109971428D01*
X165173809Y-109923809D01*
X165269047Y-109876190D01*
X165459523Y-109828571D01*
X165554761Y-109780952D01*
X165602380Y-109733333D01*
X165650000Y-109638095D01*
X165650000Y-109542857D01*
X165602380Y-109447619D01*
X165554761Y-109400000D01*
X165459523Y-109352380D01*
X165221428Y-109352380D01*
X165078571Y-109400000D01*
X164459523Y-109352380D02*
X164269047Y-109352380D01*
X164173809Y-109400000D01*
X164078571Y-109495238D01*
X164030952Y-109685714D01*
X164030952Y-110019047D01*
X164078571Y-110209523D01*
X164173809Y-110304761D01*
X164269047Y-110352380D01*
X164459523Y-110352380D01*
X164554761Y-110304761D01*
X164650000Y-110209523D01*
X164697619Y-110019047D01*
X164697619Y-109685714D01*
X164650000Y-109495238D01*
X164554761Y-109400000D01*
X164459523Y-109352380D01*
D11*
X171450000Y-69050000D02*
X171450000Y-70200000D01*
X167250000Y-69050000D02*
X171450000Y-69050000D01*
X169400000Y-69900000D02*
X169400000Y-70250000D01*
X164700000Y-69900000D02*
X169400000Y-69900000D01*
D12*
X172337200Y-73260000D02*
G75*
G03X172337200Y-73260000I-76200J0D01*
G01*
X178677000Y-73902000D02*
X174523000Y-73902000D01*
X174523000Y-64998000D02*
X178677000Y-64998000D01*
D11*
X182011252Y-76610000D02*
X181488748Y-76610000D01*
X182011252Y-75190000D02*
X181488748Y-75190000D01*
X179510000Y-78488748D02*
X179510000Y-79011252D01*
X178090000Y-78488748D02*
X178090000Y-79011252D01*
X177510000Y-78488748D02*
X177510000Y-79011252D01*
X176090000Y-78488748D02*
X176090000Y-79011252D01*
X175510000Y-78488748D02*
X175510000Y-79011252D01*
X174090000Y-78488748D02*
X174090000Y-79011252D01*
X167860000Y-71988748D02*
X167860000Y-72511252D01*
X166440000Y-71988748D02*
X166440000Y-72511252D01*
X170010000Y-71938748D02*
X170010000Y-72461252D01*
X168590000Y-71938748D02*
X168590000Y-72461252D01*
X170790000Y-72461252D02*
X170790000Y-71938748D01*
X172210000Y-72461252D02*
X172210000Y-71938748D01*
X181740000Y-113111252D02*
X181740000Y-112588748D01*
X183160000Y-113111252D02*
X183160000Y-112588748D01*
D13*
X175810000Y-98027000D02*
G75*
G03X175810000Y-98027000I-152400J0D01*
G01*
X175150000Y-98205000D02*
X175505000Y-98560000D01*
X175150000Y-98205000D02*
X168495000Y-98205000D01*
X175505000Y-105215000D02*
X175505000Y-98560000D01*
X168495000Y-105215000D02*
X175505000Y-105215000D01*
X168495000Y-98205000D02*
X168495000Y-105215000D01*
D11*
X51680000Y-50487520D02*
X51680000Y-54607520D01*
X71800000Y-50487520D02*
X71800000Y-54607520D01*
X51980000Y-49232520D02*
X51980000Y-50487520D01*
X51680000Y-50487520D02*
X51980000Y-50487520D01*
X51680000Y-54607520D02*
X51980000Y-54607520D01*
X71500000Y-50487520D02*
X71800000Y-50487520D01*
X71500000Y-54607520D02*
X71800000Y-54607520D01*
X53500000Y-50487520D02*
X53980000Y-50487520D01*
X53500000Y-54607520D02*
X53980000Y-54607520D01*
X55500000Y-50487520D02*
X55980000Y-50487520D01*
X55500000Y-54607520D02*
X55980000Y-54607520D01*
X57500000Y-50487520D02*
X57980000Y-50487520D01*
X57500000Y-54607520D02*
X57980000Y-54607520D01*
X59500000Y-50487520D02*
X59980000Y-50487520D01*
X59500000Y-54607520D02*
X59980000Y-54607520D01*
X61500000Y-50487520D02*
X61980000Y-50487520D01*
X61500000Y-54607520D02*
X61980000Y-54607520D01*
X63500000Y-50487520D02*
X63980000Y-50487520D01*
X63500000Y-54607520D02*
X63980000Y-54607520D01*
X65500000Y-50487520D02*
X65980000Y-50487520D01*
X65500000Y-54607520D02*
X65980000Y-54607520D01*
X67500000Y-50487520D02*
X67980000Y-50487520D01*
X67500000Y-54607520D02*
X67980000Y-54607520D01*
X69500000Y-50487520D02*
X69980000Y-50487520D01*
X69500000Y-54607520D02*
X69980000Y-54607520D01*
X181550000Y-108150000D02*
X181550000Y-103650000D01*
X178650000Y-108150000D02*
X178650000Y-103650000D01*
X178650000Y-108150000D02*
G75*
G03X181550000Y-108150000I1450000J0D01*
G01*
X178650000Y-103650000D02*
G75*
G02X181550000Y-103650000I1450000J0D01*
G01*
X36890000Y-52813748D02*
X36890000Y-53336252D01*
X38310000Y-52813748D02*
X38310000Y-53336252D01*
X38160000Y-67838748D02*
X38160000Y-68361252D01*
X36740000Y-67838748D02*
X36740000Y-68361252D01*
X36840000Y-93838748D02*
X36840000Y-94361252D01*
X38260000Y-93838748D02*
X38260000Y-94361252D01*
X69638748Y-124340000D02*
X70161252Y-124340000D01*
X69638748Y-125760000D02*
X70161252Y-125760000D01*
X93688748Y-125610000D02*
X94211252Y-125610000D01*
X93688748Y-124190000D02*
X94211252Y-124190000D01*
X118611252Y-127960000D02*
X118088748Y-127960000D01*
X118611252Y-126540000D02*
X118088748Y-126540000D01*
X142540000Y-52938748D02*
X142540000Y-53461252D01*
X143960000Y-52938748D02*
X143960000Y-53461252D01*
X166610000Y-52738748D02*
X166610000Y-53261252D01*
X165190000Y-52738748D02*
X165190000Y-53261252D01*
X180090000Y-52638748D02*
X180090000Y-53161252D01*
X181510000Y-52638748D02*
X181510000Y-53161252D01*
X162411252Y-92060000D02*
X161888748Y-92060000D01*
X162411252Y-90640000D02*
X161888748Y-90640000D01*
X146588748Y-127710000D02*
X147111252Y-127710000D01*
X146588748Y-126290000D02*
X147111252Y-126290000D01*
X176838748Y-127810000D02*
X177361252Y-127810000D01*
X176838748Y-126390000D02*
X177361252Y-126390000D01*
X161888748Y-126440000D02*
X162411252Y-126440000D01*
X161888748Y-127860000D02*
X162411252Y-127860000D01*
X43361252Y-47240000D02*
X42838748Y-47240000D01*
X43361252Y-48660000D02*
X42838748Y-48660000D01*
D13*
X134610000Y-125920000D02*
X134610000Y-122110000D01*
X134610000Y-122110000D02*
X134610000Y-118300000D01*
X134610000Y-118300000D02*
X99050000Y-118300000D01*
X99050000Y-125920000D02*
X132070000Y-125920000D01*
X132070000Y-125920000D02*
X134610000Y-125920000D01*
X99050000Y-118300000D02*
X99050000Y-125920000D01*
X134610000Y-122110000D02*
X132070000Y-122110000D01*
X132070000Y-122110000D02*
X132070000Y-125920000D01*
D11*
X79661252Y-49210000D02*
X79138748Y-49210000D01*
X79661252Y-47790000D02*
X79138748Y-47790000D01*
X171290000Y-51938748D02*
X171290000Y-52461252D01*
X172710000Y-51938748D02*
X172710000Y-52461252D01*
X157510000Y-52448748D02*
X157510000Y-52971252D01*
X156090000Y-52448748D02*
X156090000Y-52971252D01*
X168590000Y-51888748D02*
X168590000Y-52411252D01*
X170010000Y-51888748D02*
X170010000Y-52411252D01*
D10*
X178264285Y-63652380D02*
X178264285Y-64461904D01*
X178216666Y-64557142D01*
X178169047Y-64604761D01*
X178073809Y-64652380D01*
X177883333Y-64652380D01*
X177788095Y-64604761D01*
X177740476Y-64557142D01*
X177692857Y-64461904D01*
X177692857Y-63652380D01*
X177264285Y-63747619D02*
X177216666Y-63700000D01*
X177121428Y-63652380D01*
X176883333Y-63652380D01*
X176788095Y-63700000D01*
X176740476Y-63747619D01*
X176692857Y-63842857D01*
X176692857Y-63938095D01*
X176740476Y-64080952D01*
X177311904Y-64652380D01*
X176692857Y-64652380D01*
X176073809Y-63652380D02*
X175978571Y-63652380D01*
X175883333Y-63700000D01*
X175835714Y-63747619D01*
X175788095Y-63842857D01*
X175740476Y-64033333D01*
X175740476Y-64271428D01*
X175788095Y-64461904D01*
X175835714Y-64557142D01*
X175883333Y-64604761D01*
X175978571Y-64652380D01*
X176073809Y-64652380D01*
X176169047Y-64604761D01*
X176216666Y-64557142D01*
X176264285Y-64461904D01*
X176311904Y-64271428D01*
X176311904Y-64033333D01*
X176264285Y-63842857D01*
X176216666Y-63747619D01*
X176169047Y-63700000D01*
X176073809Y-63652380D01*
X175359523Y-63747619D02*
X175311904Y-63700000D01*
X175216666Y-63652380D01*
X174978571Y-63652380D01*
X174883333Y-63700000D01*
X174835714Y-63747619D01*
X174788095Y-63842857D01*
X174788095Y-63938095D01*
X174835714Y-64080952D01*
X175407142Y-64652380D01*
X174788095Y-64652380D01*
X174850000Y-74252380D02*
X174850000Y-74490476D01*
X175088095Y-74395238D02*
X174850000Y-74490476D01*
X174611904Y-74395238D01*
X174992857Y-74680952D02*
X174850000Y-74490476D01*
X174707142Y-74680952D01*
X172700000Y-72352380D02*
X172700000Y-72590476D01*
X172938095Y-72495238D02*
X172700000Y-72590476D01*
X172461904Y-72495238D01*
X172842857Y-72780952D02*
X172700000Y-72590476D01*
X172557142Y-72780952D01*
X184447619Y-77019047D02*
X184923809Y-77352380D01*
X184447619Y-77590476D02*
X185447619Y-77590476D01*
X185447619Y-77209523D01*
X185400000Y-77114285D01*
X185352380Y-77066666D01*
X185257142Y-77019047D01*
X185114285Y-77019047D01*
X185019047Y-77066666D01*
X184971428Y-77114285D01*
X184923809Y-77209523D01*
X184923809Y-77590476D01*
X185352380Y-76638095D02*
X185400000Y-76590476D01*
X185447619Y-76495238D01*
X185447619Y-76257142D01*
X185400000Y-76161904D01*
X185352380Y-76114285D01*
X185257142Y-76066666D01*
X185161904Y-76066666D01*
X185019047Y-76114285D01*
X184447619Y-76685714D01*
X184447619Y-76066666D01*
X185447619Y-75447619D02*
X185447619Y-75352380D01*
X185400000Y-75257142D01*
X185352380Y-75209523D01*
X185257142Y-75161904D01*
X185066666Y-75114285D01*
X184828571Y-75114285D01*
X184638095Y-75161904D01*
X184542857Y-75209523D01*
X184495238Y-75257142D01*
X184447619Y-75352380D01*
X184447619Y-75447619D01*
X184495238Y-75542857D01*
X184542857Y-75590476D01*
X184638095Y-75638095D01*
X184828571Y-75685714D01*
X185066666Y-75685714D01*
X185257142Y-75638095D01*
X185352380Y-75590476D01*
X185400000Y-75542857D01*
X185447619Y-75447619D01*
X185447619Y-74257142D02*
X185447619Y-74447619D01*
X185400000Y-74542857D01*
X185352380Y-74590476D01*
X185209523Y-74685714D01*
X185019047Y-74733333D01*
X184638095Y-74733333D01*
X184542857Y-74685714D01*
X184495238Y-74638095D01*
X184447619Y-74542857D01*
X184447619Y-74352380D01*
X184495238Y-74257142D01*
X184542857Y-74209523D01*
X184638095Y-74161904D01*
X184876190Y-74161904D01*
X184971428Y-74209523D01*
X185019047Y-74257142D01*
X185066666Y-74352380D01*
X185066666Y-74542857D01*
X185019047Y-74638095D01*
X184971428Y-74685714D01*
X184876190Y-74733333D01*
X180047619Y-80019047D02*
X180523809Y-80352380D01*
X180047619Y-80590476D02*
X181047619Y-80590476D01*
X181047619Y-80209523D01*
X181000000Y-80114285D01*
X180952380Y-80066666D01*
X180857142Y-80019047D01*
X180714285Y-80019047D01*
X180619047Y-80066666D01*
X180571428Y-80114285D01*
X180523809Y-80209523D01*
X180523809Y-80590476D01*
X180952380Y-79638095D02*
X181000000Y-79590476D01*
X181047619Y-79495238D01*
X181047619Y-79257142D01*
X181000000Y-79161904D01*
X180952380Y-79114285D01*
X180857142Y-79066666D01*
X180761904Y-79066666D01*
X180619047Y-79114285D01*
X180047619Y-79685714D01*
X180047619Y-79066666D01*
X181047619Y-78447619D02*
X181047619Y-78352380D01*
X181000000Y-78257142D01*
X180952380Y-78209523D01*
X180857142Y-78161904D01*
X180666666Y-78114285D01*
X180428571Y-78114285D01*
X180238095Y-78161904D01*
X180142857Y-78209523D01*
X180095238Y-78257142D01*
X180047619Y-78352380D01*
X180047619Y-78447619D01*
X180095238Y-78542857D01*
X180142857Y-78590476D01*
X180238095Y-78638095D01*
X180428571Y-78685714D01*
X180666666Y-78685714D01*
X180857142Y-78638095D01*
X180952380Y-78590476D01*
X181000000Y-78542857D01*
X181047619Y-78447619D01*
X181047619Y-77209523D02*
X181047619Y-77685714D01*
X180571428Y-77733333D01*
X180619047Y-77685714D01*
X180666666Y-77590476D01*
X180666666Y-77352380D01*
X180619047Y-77257142D01*
X180571428Y-77209523D01*
X180476190Y-77161904D01*
X180238095Y-77161904D01*
X180142857Y-77209523D01*
X180095238Y-77257142D01*
X180047619Y-77352380D01*
X180047619Y-77590476D01*
X180095238Y-77685714D01*
X180142857Y-77733333D01*
X177302380Y-81430952D02*
X176826190Y-81097619D01*
X177302380Y-80859523D02*
X176302380Y-80859523D01*
X176302380Y-81240476D01*
X176350000Y-81335714D01*
X176397619Y-81383333D01*
X176492857Y-81430952D01*
X176635714Y-81430952D01*
X176730952Y-81383333D01*
X176778571Y-81335714D01*
X176826190Y-81240476D01*
X176826190Y-80859523D01*
X176397619Y-81811904D02*
X176350000Y-81859523D01*
X176302380Y-81954761D01*
X176302380Y-82192857D01*
X176350000Y-82288095D01*
X176397619Y-82335714D01*
X176492857Y-82383333D01*
X176588095Y-82383333D01*
X176730952Y-82335714D01*
X177302380Y-81764285D01*
X177302380Y-82383333D01*
X176302380Y-83002380D02*
X176302380Y-83097619D01*
X176350000Y-83192857D01*
X176397619Y-83240476D01*
X176492857Y-83288095D01*
X176683333Y-83335714D01*
X176921428Y-83335714D01*
X177111904Y-83288095D01*
X177207142Y-83240476D01*
X177254761Y-83192857D01*
X177302380Y-83097619D01*
X177302380Y-83002380D01*
X177254761Y-82907142D01*
X177207142Y-82859523D01*
X177111904Y-82811904D01*
X176921428Y-82764285D01*
X176683333Y-82764285D01*
X176492857Y-82811904D01*
X176397619Y-82859523D01*
X176350000Y-82907142D01*
X176302380Y-83002380D01*
X176635714Y-84192857D02*
X177302380Y-84192857D01*
X176254761Y-83954761D02*
X176969047Y-83716666D01*
X176969047Y-84335714D01*
X175302380Y-81480952D02*
X174826190Y-81147619D01*
X175302380Y-80909523D02*
X174302380Y-80909523D01*
X174302380Y-81290476D01*
X174350000Y-81385714D01*
X174397619Y-81433333D01*
X174492857Y-81480952D01*
X174635714Y-81480952D01*
X174730952Y-81433333D01*
X174778571Y-81385714D01*
X174826190Y-81290476D01*
X174826190Y-80909523D01*
X174397619Y-81861904D02*
X174350000Y-81909523D01*
X174302380Y-82004761D01*
X174302380Y-82242857D01*
X174350000Y-82338095D01*
X174397619Y-82385714D01*
X174492857Y-82433333D01*
X174588095Y-82433333D01*
X174730952Y-82385714D01*
X175302380Y-81814285D01*
X175302380Y-82433333D01*
X174302380Y-83052380D02*
X174302380Y-83147619D01*
X174350000Y-83242857D01*
X174397619Y-83290476D01*
X174492857Y-83338095D01*
X174683333Y-83385714D01*
X174921428Y-83385714D01*
X175111904Y-83338095D01*
X175207142Y-83290476D01*
X175254761Y-83242857D01*
X175302380Y-83147619D01*
X175302380Y-83052380D01*
X175254761Y-82957142D01*
X175207142Y-82909523D01*
X175111904Y-82861904D01*
X174921428Y-82814285D01*
X174683333Y-82814285D01*
X174492857Y-82861904D01*
X174397619Y-82909523D01*
X174350000Y-82957142D01*
X174302380Y-83052380D01*
X174302380Y-83719047D02*
X174302380Y-84338095D01*
X174683333Y-84004761D01*
X174683333Y-84147619D01*
X174730952Y-84242857D01*
X174778571Y-84290476D01*
X174873809Y-84338095D01*
X175111904Y-84338095D01*
X175207142Y-84290476D01*
X175254761Y-84242857D01*
X175302380Y-84147619D01*
X175302380Y-83861904D01*
X175254761Y-83766666D01*
X175207142Y-83719047D01*
X165952380Y-71130952D02*
X165476190Y-70797619D01*
X165952380Y-70559523D02*
X164952380Y-70559523D01*
X164952380Y-70940476D01*
X165000000Y-71035714D01*
X165047619Y-71083333D01*
X165142857Y-71130952D01*
X165285714Y-71130952D01*
X165380952Y-71083333D01*
X165428571Y-71035714D01*
X165476190Y-70940476D01*
X165476190Y-70559523D01*
X165047619Y-71511904D02*
X165000000Y-71559523D01*
X164952380Y-71654761D01*
X164952380Y-71892857D01*
X165000000Y-71988095D01*
X165047619Y-72035714D01*
X165142857Y-72083333D01*
X165238095Y-72083333D01*
X165380952Y-72035714D01*
X165952380Y-71464285D01*
X165952380Y-72083333D01*
X164952380Y-72702380D02*
X164952380Y-72797619D01*
X165000000Y-72892857D01*
X165047619Y-72940476D01*
X165142857Y-72988095D01*
X165333333Y-73035714D01*
X165571428Y-73035714D01*
X165761904Y-72988095D01*
X165857142Y-72940476D01*
X165904761Y-72892857D01*
X165952380Y-72797619D01*
X165952380Y-72702380D01*
X165904761Y-72607142D01*
X165857142Y-72559523D01*
X165761904Y-72511904D01*
X165571428Y-72464285D01*
X165333333Y-72464285D01*
X165142857Y-72511904D01*
X165047619Y-72559523D01*
X165000000Y-72607142D01*
X164952380Y-72702380D01*
X165047619Y-73416666D02*
X165000000Y-73464285D01*
X164952380Y-73559523D01*
X164952380Y-73797619D01*
X165000000Y-73892857D01*
X165047619Y-73940476D01*
X165142857Y-73988095D01*
X165238095Y-73988095D01*
X165380952Y-73940476D01*
X165952380Y-73369047D01*
X165952380Y-73988095D01*
X163469047Y-70407142D02*
X163516666Y-70454761D01*
X163659523Y-70502380D01*
X163754761Y-70502380D01*
X163897619Y-70454761D01*
X163992857Y-70359523D01*
X164040476Y-70264285D01*
X164088095Y-70073809D01*
X164088095Y-69930952D01*
X164040476Y-69740476D01*
X163992857Y-69645238D01*
X163897619Y-69550000D01*
X163754761Y-69502380D01*
X163659523Y-69502380D01*
X163516666Y-69550000D01*
X163469047Y-69597619D01*
X163088095Y-69597619D02*
X163040476Y-69550000D01*
X162945238Y-69502380D01*
X162707142Y-69502380D01*
X162611904Y-69550000D01*
X162564285Y-69597619D01*
X162516666Y-69692857D01*
X162516666Y-69788095D01*
X162564285Y-69930952D01*
X163135714Y-70502380D01*
X162516666Y-70502380D01*
X161897619Y-69502380D02*
X161802380Y-69502380D01*
X161707142Y-69550000D01*
X161659523Y-69597619D01*
X161611904Y-69692857D01*
X161564285Y-69883333D01*
X161564285Y-70121428D01*
X161611904Y-70311904D01*
X161659523Y-70407142D01*
X161707142Y-70454761D01*
X161802380Y-70502380D01*
X161897619Y-70502380D01*
X161992857Y-70454761D01*
X162040476Y-70407142D01*
X162088095Y-70311904D01*
X162135714Y-70121428D01*
X162135714Y-69883333D01*
X162088095Y-69692857D01*
X162040476Y-69597619D01*
X161992857Y-69550000D01*
X161897619Y-69502380D01*
X161230952Y-69502380D02*
X160611904Y-69502380D01*
X160945238Y-69883333D01*
X160802380Y-69883333D01*
X160707142Y-69930952D01*
X160659523Y-69978571D01*
X160611904Y-70073809D01*
X160611904Y-70311904D01*
X160659523Y-70407142D01*
X160707142Y-70454761D01*
X160802380Y-70502380D01*
X161088095Y-70502380D01*
X161183333Y-70454761D01*
X161230952Y-70407142D01*
X166569047Y-68807142D02*
X166616666Y-68854761D01*
X166759523Y-68902380D01*
X166854761Y-68902380D01*
X166997619Y-68854761D01*
X167092857Y-68759523D01*
X167140476Y-68664285D01*
X167188095Y-68473809D01*
X167188095Y-68330952D01*
X167140476Y-68140476D01*
X167092857Y-68045238D01*
X166997619Y-67950000D01*
X166854761Y-67902380D01*
X166759523Y-67902380D01*
X166616666Y-67950000D01*
X166569047Y-67997619D01*
X166188095Y-67997619D02*
X166140476Y-67950000D01*
X166045238Y-67902380D01*
X165807142Y-67902380D01*
X165711904Y-67950000D01*
X165664285Y-67997619D01*
X165616666Y-68092857D01*
X165616666Y-68188095D01*
X165664285Y-68330952D01*
X166235714Y-68902380D01*
X165616666Y-68902380D01*
X164997619Y-67902380D02*
X164902380Y-67902380D01*
X164807142Y-67950000D01*
X164759523Y-67997619D01*
X164711904Y-68092857D01*
X164664285Y-68283333D01*
X164664285Y-68521428D01*
X164711904Y-68711904D01*
X164759523Y-68807142D01*
X164807142Y-68854761D01*
X164902380Y-68902380D01*
X164997619Y-68902380D01*
X165092857Y-68854761D01*
X165140476Y-68807142D01*
X165188095Y-68711904D01*
X165235714Y-68521428D01*
X165235714Y-68283333D01*
X165188095Y-68092857D01*
X165140476Y-67997619D01*
X165092857Y-67950000D01*
X164997619Y-67902380D01*
X164283333Y-67997619D02*
X164235714Y-67950000D01*
X164140476Y-67902380D01*
X163902380Y-67902380D01*
X163807142Y-67950000D01*
X163759523Y-67997619D01*
X163711904Y-68092857D01*
X163711904Y-68188095D01*
X163759523Y-68330952D01*
X164330952Y-68902380D01*
X163711904Y-68902380D01*
X183742857Y-113969047D02*
X183695238Y-114016666D01*
X183647619Y-114159523D01*
X183647619Y-114254761D01*
X183695238Y-114397619D01*
X183790476Y-114492857D01*
X183885714Y-114540476D01*
X184076190Y-114588095D01*
X184219047Y-114588095D01*
X184409523Y-114540476D01*
X184504761Y-114492857D01*
X184600000Y-114397619D01*
X184647619Y-114254761D01*
X184647619Y-114159523D01*
X184600000Y-114016666D01*
X184552380Y-113969047D01*
X184647619Y-113635714D02*
X184647619Y-113016666D01*
X184266666Y-113350000D01*
X184266666Y-113207142D01*
X184219047Y-113111904D01*
X184171428Y-113064285D01*
X184076190Y-113016666D01*
X183838095Y-113016666D01*
X183742857Y-113064285D01*
X183695238Y-113111904D01*
X183647619Y-113207142D01*
X183647619Y-113492857D01*
X183695238Y-113588095D01*
X183742857Y-113635714D01*
X184647619Y-112397619D02*
X184647619Y-112302380D01*
X184600000Y-112207142D01*
X184552380Y-112159523D01*
X184457142Y-112111904D01*
X184266666Y-112064285D01*
X184028571Y-112064285D01*
X183838095Y-112111904D01*
X183742857Y-112159523D01*
X183695238Y-112207142D01*
X183647619Y-112302380D01*
X183647619Y-112397619D01*
X183695238Y-112492857D01*
X183742857Y-112540476D01*
X183838095Y-112588095D01*
X184028571Y-112635714D01*
X184266666Y-112635714D01*
X184457142Y-112588095D01*
X184552380Y-112540476D01*
X184600000Y-112492857D01*
X184647619Y-112397619D01*
X184552380Y-111683333D02*
X184600000Y-111635714D01*
X184647619Y-111540476D01*
X184647619Y-111302380D01*
X184600000Y-111207142D01*
X184552380Y-111159523D01*
X184457142Y-111111904D01*
X184361904Y-111111904D01*
X184219047Y-111159523D01*
X183647619Y-111730952D01*
X183647619Y-111111904D01*
X179607142Y-97054880D02*
X179654761Y-97007261D01*
X179702380Y-96864404D01*
X179702380Y-96769166D01*
X179654761Y-96626309D01*
X179559523Y-96531071D01*
X179464285Y-96483452D01*
X179273809Y-96435833D01*
X179130952Y-96435833D01*
X178940476Y-96483452D01*
X178845238Y-96531071D01*
X178750000Y-96626309D01*
X178702380Y-96769166D01*
X178702380Y-96864404D01*
X178750000Y-97007261D01*
X178797619Y-97054880D01*
X178702380Y-97388214D02*
X178702380Y-98007261D01*
X179083333Y-97673928D01*
X179083333Y-97816785D01*
X179130952Y-97912023D01*
X179178571Y-97959642D01*
X179273809Y-98007261D01*
X179511904Y-98007261D01*
X179607142Y-97959642D01*
X179654761Y-97912023D01*
X179702380Y-97816785D01*
X179702380Y-97531071D01*
X179654761Y-97435833D01*
X179607142Y-97388214D01*
X178702380Y-98626309D02*
X178702380Y-98721547D01*
X178750000Y-98816785D01*
X178797619Y-98864404D01*
X178892857Y-98912023D01*
X179083333Y-98959642D01*
X179321428Y-98959642D01*
X179511904Y-98912023D01*
X179607142Y-98864404D01*
X179654761Y-98816785D01*
X179702380Y-98721547D01*
X179702380Y-98626309D01*
X179654761Y-98531071D01*
X179607142Y-98483452D01*
X179511904Y-98435833D01*
X179321428Y-98388214D01*
X179083333Y-98388214D01*
X178892857Y-98435833D01*
X178797619Y-98483452D01*
X178750000Y-98531071D01*
X178702380Y-98626309D01*
X179702380Y-99912023D02*
X179702380Y-99340595D01*
X179702380Y-99626309D02*
X178702380Y-99626309D01*
X178845238Y-99531071D01*
X178940476Y-99435833D01*
X178988095Y-99340595D01*
X186145119Y-95057142D02*
X186192738Y-95104761D01*
X186335595Y-95152380D01*
X186430833Y-95152380D01*
X186573690Y-95104761D01*
X186668928Y-95009523D01*
X186716547Y-94914285D01*
X186764166Y-94723809D01*
X186764166Y-94580952D01*
X186716547Y-94390476D01*
X186668928Y-94295238D01*
X186573690Y-94200000D01*
X186430833Y-94152380D01*
X186335595Y-94152380D01*
X186192738Y-94200000D01*
X186145119Y-94247619D01*
X185811785Y-94152380D02*
X185192738Y-94152380D01*
X185526071Y-94533333D01*
X185383214Y-94533333D01*
X185287976Y-94580952D01*
X185240357Y-94628571D01*
X185192738Y-94723809D01*
X185192738Y-94961904D01*
X185240357Y-95057142D01*
X185287976Y-95104761D01*
X185383214Y-95152380D01*
X185668928Y-95152380D01*
X185764166Y-95104761D01*
X185811785Y-95057142D01*
X184573690Y-94152380D02*
X184478452Y-94152380D01*
X184383214Y-94200000D01*
X184335595Y-94247619D01*
X184287976Y-94342857D01*
X184240357Y-94533333D01*
X184240357Y-94771428D01*
X184287976Y-94961904D01*
X184335595Y-95057142D01*
X184383214Y-95104761D01*
X184478452Y-95152380D01*
X184573690Y-95152380D01*
X184668928Y-95104761D01*
X184716547Y-95057142D01*
X184764166Y-94961904D01*
X184811785Y-94771428D01*
X184811785Y-94533333D01*
X184764166Y-94342857D01*
X184716547Y-94247619D01*
X184668928Y-94200000D01*
X184573690Y-94152380D01*
X183907023Y-94152380D02*
X183287976Y-94152380D01*
X183621309Y-94533333D01*
X183478452Y-94533333D01*
X183383214Y-94580952D01*
X183335595Y-94628571D01*
X183287976Y-94723809D01*
X183287976Y-94961904D01*
X183335595Y-95057142D01*
X183383214Y-95104761D01*
X183478452Y-95152380D01*
X183764166Y-95152380D01*
X183859404Y-95104761D01*
X183907023Y-95057142D01*
X42297619Y-119340476D02*
X43297619Y-119340476D01*
X43297619Y-119102380D01*
X43250000Y-118959523D01*
X43154761Y-118864285D01*
X43059523Y-118816666D01*
X42869047Y-118769047D01*
X42726190Y-118769047D01*
X42535714Y-118816666D01*
X42440476Y-118864285D01*
X42345238Y-118959523D01*
X42297619Y-119102380D01*
X42297619Y-119340476D01*
X43297619Y-118435714D02*
X43297619Y-117816666D01*
X42916666Y-118150000D01*
X42916666Y-118007142D01*
X42869047Y-117911904D01*
X42821428Y-117864285D01*
X42726190Y-117816666D01*
X42488095Y-117816666D01*
X42392857Y-117864285D01*
X42345238Y-117911904D01*
X42297619Y-118007142D01*
X42297619Y-118292857D01*
X42345238Y-118388095D01*
X42392857Y-118435714D01*
X42297619Y-116864285D02*
X42297619Y-117435714D01*
X42297619Y-117150000D02*
X43297619Y-117150000D01*
X43154761Y-117245238D01*
X43059523Y-117340476D01*
X43011904Y-117435714D01*
X43202380Y-116483333D02*
X43250000Y-116435714D01*
X43297619Y-116340476D01*
X43297619Y-116102380D01*
X43250000Y-116007142D01*
X43202380Y-115959523D01*
X43107142Y-115911904D01*
X43011904Y-115911904D01*
X42869047Y-115959523D01*
X42297619Y-116530952D01*
X42297619Y-115911904D01*
X43045119Y-62002380D02*
X43378452Y-61526190D01*
X43616547Y-62002380D02*
X43616547Y-61002380D01*
X43235595Y-61002380D01*
X43140357Y-61050000D01*
X43092738Y-61097619D01*
X43045119Y-61192857D01*
X43045119Y-61335714D01*
X43092738Y-61430952D01*
X43140357Y-61478571D01*
X43235595Y-61526190D01*
X43616547Y-61526190D01*
X42711785Y-61002380D02*
X42092738Y-61002380D01*
X42426071Y-61383333D01*
X42283214Y-61383333D01*
X42187976Y-61430952D01*
X42140357Y-61478571D01*
X42092738Y-61573809D01*
X42092738Y-61811904D01*
X42140357Y-61907142D01*
X42187976Y-61954761D01*
X42283214Y-62002380D01*
X42568928Y-62002380D01*
X42664166Y-61954761D01*
X42711785Y-61907142D01*
X41473690Y-61002380D02*
X41378452Y-61002380D01*
X41283214Y-61050000D01*
X41235595Y-61097619D01*
X41187976Y-61192857D01*
X41140357Y-61383333D01*
X41140357Y-61621428D01*
X41187976Y-61811904D01*
X41235595Y-61907142D01*
X41283214Y-61954761D01*
X41378452Y-62002380D01*
X41473690Y-62002380D01*
X41568928Y-61954761D01*
X41616547Y-61907142D01*
X41664166Y-61811904D01*
X41711785Y-61621428D01*
X41711785Y-61383333D01*
X41664166Y-61192857D01*
X41616547Y-61097619D01*
X41568928Y-61050000D01*
X41473690Y-61002380D01*
X40187976Y-62002380D02*
X40759404Y-62002380D01*
X40473690Y-62002380D02*
X40473690Y-61002380D01*
X40568928Y-61145238D01*
X40664166Y-61240476D01*
X40759404Y-61288095D01*
X42345119Y-76352380D02*
X42678452Y-75876190D01*
X42916547Y-76352380D02*
X42916547Y-75352380D01*
X42535595Y-75352380D01*
X42440357Y-75400000D01*
X42392738Y-75447619D01*
X42345119Y-75542857D01*
X42345119Y-75685714D01*
X42392738Y-75780952D01*
X42440357Y-75828571D01*
X42535595Y-75876190D01*
X42916547Y-75876190D01*
X42011785Y-75352380D02*
X41392738Y-75352380D01*
X41726071Y-75733333D01*
X41583214Y-75733333D01*
X41487976Y-75780952D01*
X41440357Y-75828571D01*
X41392738Y-75923809D01*
X41392738Y-76161904D01*
X41440357Y-76257142D01*
X41487976Y-76304761D01*
X41583214Y-76352380D01*
X41868928Y-76352380D01*
X41964166Y-76304761D01*
X42011785Y-76257142D01*
X40773690Y-75352380D02*
X40678452Y-75352380D01*
X40583214Y-75400000D01*
X40535595Y-75447619D01*
X40487976Y-75542857D01*
X40440357Y-75733333D01*
X40440357Y-75971428D01*
X40487976Y-76161904D01*
X40535595Y-76257142D01*
X40583214Y-76304761D01*
X40678452Y-76352380D01*
X40773690Y-76352380D01*
X40868928Y-76304761D01*
X40916547Y-76257142D01*
X40964166Y-76161904D01*
X41011785Y-75971428D01*
X41011785Y-75733333D01*
X40964166Y-75542857D01*
X40916547Y-75447619D01*
X40868928Y-75400000D01*
X40773690Y-75352380D01*
X40059404Y-75447619D02*
X40011785Y-75400000D01*
X39916547Y-75352380D01*
X39678452Y-75352380D01*
X39583214Y-75400000D01*
X39535595Y-75447619D01*
X39487976Y-75542857D01*
X39487976Y-75638095D01*
X39535595Y-75780952D01*
X40107023Y-76352380D01*
X39487976Y-76352380D01*
X42195119Y-102952380D02*
X42528452Y-102476190D01*
X42766547Y-102952380D02*
X42766547Y-101952380D01*
X42385595Y-101952380D01*
X42290357Y-102000000D01*
X42242738Y-102047619D01*
X42195119Y-102142857D01*
X42195119Y-102285714D01*
X42242738Y-102380952D01*
X42290357Y-102428571D01*
X42385595Y-102476190D01*
X42766547Y-102476190D01*
X41861785Y-101952380D02*
X41242738Y-101952380D01*
X41576071Y-102333333D01*
X41433214Y-102333333D01*
X41337976Y-102380952D01*
X41290357Y-102428571D01*
X41242738Y-102523809D01*
X41242738Y-102761904D01*
X41290357Y-102857142D01*
X41337976Y-102904761D01*
X41433214Y-102952380D01*
X41718928Y-102952380D01*
X41814166Y-102904761D01*
X41861785Y-102857142D01*
X40623690Y-101952380D02*
X40528452Y-101952380D01*
X40433214Y-102000000D01*
X40385595Y-102047619D01*
X40337976Y-102142857D01*
X40290357Y-102333333D01*
X40290357Y-102571428D01*
X40337976Y-102761904D01*
X40385595Y-102857142D01*
X40433214Y-102904761D01*
X40528452Y-102952380D01*
X40623690Y-102952380D01*
X40718928Y-102904761D01*
X40766547Y-102857142D01*
X40814166Y-102761904D01*
X40861785Y-102571428D01*
X40861785Y-102333333D01*
X40814166Y-102142857D01*
X40766547Y-102047619D01*
X40718928Y-102000000D01*
X40623690Y-101952380D01*
X39957023Y-101952380D02*
X39337976Y-101952380D01*
X39671309Y-102333333D01*
X39528452Y-102333333D01*
X39433214Y-102380952D01*
X39385595Y-102428571D01*
X39337976Y-102523809D01*
X39337976Y-102761904D01*
X39385595Y-102857142D01*
X39433214Y-102904761D01*
X39528452Y-102952380D01*
X39814166Y-102952380D01*
X39909404Y-102904761D01*
X39957023Y-102857142D01*
X148345119Y-119152380D02*
X148678452Y-118676190D01*
X148916547Y-119152380D02*
X148916547Y-118152380D01*
X148535595Y-118152380D01*
X148440357Y-118200000D01*
X148392738Y-118247619D01*
X148345119Y-118342857D01*
X148345119Y-118485714D01*
X148392738Y-118580952D01*
X148440357Y-118628571D01*
X148535595Y-118676190D01*
X148916547Y-118676190D01*
X148011785Y-118152380D02*
X147392738Y-118152380D01*
X147726071Y-118533333D01*
X147583214Y-118533333D01*
X147487976Y-118580952D01*
X147440357Y-118628571D01*
X147392738Y-118723809D01*
X147392738Y-118961904D01*
X147440357Y-119057142D01*
X147487976Y-119104761D01*
X147583214Y-119152380D01*
X147868928Y-119152380D01*
X147964166Y-119104761D01*
X148011785Y-119057142D01*
X146773690Y-118152380D02*
X146678452Y-118152380D01*
X146583214Y-118200000D01*
X146535595Y-118247619D01*
X146487976Y-118342857D01*
X146440357Y-118533333D01*
X146440357Y-118771428D01*
X146487976Y-118961904D01*
X146535595Y-119057142D01*
X146583214Y-119104761D01*
X146678452Y-119152380D01*
X146773690Y-119152380D01*
X146868928Y-119104761D01*
X146916547Y-119057142D01*
X146964166Y-118961904D01*
X147011785Y-118771428D01*
X147011785Y-118533333D01*
X146964166Y-118342857D01*
X146916547Y-118247619D01*
X146868928Y-118200000D01*
X146773690Y-118152380D01*
X145583214Y-118485714D02*
X145583214Y-119152380D01*
X145821309Y-118104761D02*
X146059404Y-118819047D01*
X145440357Y-118819047D01*
X168707023Y-120197619D02*
X168373690Y-120673809D01*
X168135595Y-120197619D02*
X168135595Y-121197619D01*
X168516547Y-121197619D01*
X168611785Y-121150000D01*
X168659404Y-121102380D01*
X168707023Y-121007142D01*
X168707023Y-120864285D01*
X168659404Y-120769047D01*
X168611785Y-120721428D01*
X168516547Y-120673809D01*
X168135595Y-120673809D01*
X169040357Y-121197619D02*
X169659404Y-121197619D01*
X169326071Y-120816666D01*
X169468928Y-120816666D01*
X169564166Y-120769047D01*
X169611785Y-120721428D01*
X169659404Y-120626190D01*
X169659404Y-120388095D01*
X169611785Y-120292857D01*
X169564166Y-120245238D01*
X169468928Y-120197619D01*
X169183214Y-120197619D01*
X169087976Y-120245238D01*
X169040357Y-120292857D01*
X170278452Y-121197619D02*
X170373690Y-121197619D01*
X170468928Y-121150000D01*
X170516547Y-121102380D01*
X170564166Y-121007142D01*
X170611785Y-120816666D01*
X170611785Y-120578571D01*
X170564166Y-120388095D01*
X170516547Y-120292857D01*
X170468928Y-120245238D01*
X170373690Y-120197619D01*
X170278452Y-120197619D01*
X170183214Y-120245238D01*
X170135595Y-120292857D01*
X170087976Y-120388095D01*
X170040357Y-120578571D01*
X170040357Y-120816666D01*
X170087976Y-121007142D01*
X170135595Y-121102380D01*
X170183214Y-121150000D01*
X170278452Y-121197619D01*
X171516547Y-121197619D02*
X171040357Y-121197619D01*
X170992738Y-120721428D01*
X171040357Y-120769047D01*
X171135595Y-120816666D01*
X171373690Y-120816666D01*
X171468928Y-120769047D01*
X171516547Y-120721428D01*
X171564166Y-120626190D01*
X171564166Y-120388095D01*
X171516547Y-120292857D01*
X171468928Y-120245238D01*
X171373690Y-120197619D01*
X171135595Y-120197619D01*
X171040357Y-120245238D01*
X170992738Y-120292857D01*
X175854880Y-118697619D02*
X175521547Y-119173809D01*
X175283452Y-118697619D02*
X175283452Y-119697619D01*
X175664404Y-119697619D01*
X175759642Y-119650000D01*
X175807261Y-119602380D01*
X175854880Y-119507142D01*
X175854880Y-119364285D01*
X175807261Y-119269047D01*
X175759642Y-119221428D01*
X175664404Y-119173809D01*
X175283452Y-119173809D01*
X176188214Y-119697619D02*
X176807261Y-119697619D01*
X176473928Y-119316666D01*
X176616785Y-119316666D01*
X176712023Y-119269047D01*
X176759642Y-119221428D01*
X176807261Y-119126190D01*
X176807261Y-118888095D01*
X176759642Y-118792857D01*
X176712023Y-118745238D01*
X176616785Y-118697619D01*
X176331071Y-118697619D01*
X176235833Y-118745238D01*
X176188214Y-118792857D01*
X177426309Y-119697619D02*
X177521547Y-119697619D01*
X177616785Y-119650000D01*
X177664404Y-119602380D01*
X177712023Y-119507142D01*
X177759642Y-119316666D01*
X177759642Y-119078571D01*
X177712023Y-118888095D01*
X177664404Y-118792857D01*
X177616785Y-118745238D01*
X177521547Y-118697619D01*
X177426309Y-118697619D01*
X177331071Y-118745238D01*
X177283452Y-118792857D01*
X177235833Y-118888095D01*
X177188214Y-119078571D01*
X177188214Y-119316666D01*
X177235833Y-119507142D01*
X177283452Y-119602380D01*
X177331071Y-119650000D01*
X177426309Y-119697619D01*
X178616785Y-119697619D02*
X178426309Y-119697619D01*
X178331071Y-119650000D01*
X178283452Y-119602380D01*
X178188214Y-119459523D01*
X178140595Y-119269047D01*
X178140595Y-118888095D01*
X178188214Y-118792857D01*
X178235833Y-118745238D01*
X178331071Y-118697619D01*
X178521547Y-118697619D01*
X178616785Y-118745238D01*
X178664404Y-118792857D01*
X178712023Y-118888095D01*
X178712023Y-119126190D01*
X178664404Y-119221428D01*
X178616785Y-119269047D01*
X178521547Y-119316666D01*
X178331071Y-119316666D01*
X178235833Y-119269047D01*
X178188214Y-119221428D01*
X178140595Y-119126190D01*
X152489976Y-56559380D02*
X152823309Y-56083190D01*
X153061404Y-56559380D02*
X153061404Y-55559380D01*
X152680452Y-55559380D01*
X152585214Y-55607000D01*
X152537595Y-55654619D01*
X152489976Y-55749857D01*
X152489976Y-55892714D01*
X152537595Y-55987952D01*
X152585214Y-56035571D01*
X152680452Y-56083190D01*
X153061404Y-56083190D01*
X152156642Y-55559380D02*
X151537595Y-55559380D01*
X151870928Y-55940333D01*
X151728071Y-55940333D01*
X151632833Y-55987952D01*
X151585214Y-56035571D01*
X151537595Y-56130809D01*
X151537595Y-56368904D01*
X151585214Y-56464142D01*
X151632833Y-56511761D01*
X151728071Y-56559380D01*
X152013785Y-56559380D01*
X152109023Y-56511761D01*
X152156642Y-56464142D01*
X150918547Y-55559380D02*
X150823309Y-55559380D01*
X150728071Y-55607000D01*
X150680452Y-55654619D01*
X150632833Y-55749857D01*
X150585214Y-55940333D01*
X150585214Y-56178428D01*
X150632833Y-56368904D01*
X150680452Y-56464142D01*
X150728071Y-56511761D01*
X150823309Y-56559380D01*
X150918547Y-56559380D01*
X151013785Y-56511761D01*
X151061404Y-56464142D01*
X151109023Y-56368904D01*
X151156642Y-56178428D01*
X151156642Y-55940333D01*
X151109023Y-55749857D01*
X151061404Y-55654619D01*
X151013785Y-55607000D01*
X150918547Y-55559380D01*
X150251880Y-55559380D02*
X149585214Y-55559380D01*
X150013785Y-56559380D01*
X168392976Y-56402380D02*
X168726309Y-55926190D01*
X168964404Y-56402380D02*
X168964404Y-55402380D01*
X168583452Y-55402380D01*
X168488214Y-55450000D01*
X168440595Y-55497619D01*
X168392976Y-55592857D01*
X168392976Y-55735714D01*
X168440595Y-55830952D01*
X168488214Y-55878571D01*
X168583452Y-55926190D01*
X168964404Y-55926190D01*
X168059642Y-55402380D02*
X167440595Y-55402380D01*
X167773928Y-55783333D01*
X167631071Y-55783333D01*
X167535833Y-55830952D01*
X167488214Y-55878571D01*
X167440595Y-55973809D01*
X167440595Y-56211904D01*
X167488214Y-56307142D01*
X167535833Y-56354761D01*
X167631071Y-56402380D01*
X167916785Y-56402380D01*
X168012023Y-56354761D01*
X168059642Y-56307142D01*
X166821547Y-55402380D02*
X166726309Y-55402380D01*
X166631071Y-55450000D01*
X166583452Y-55497619D01*
X166535833Y-55592857D01*
X166488214Y-55783333D01*
X166488214Y-56021428D01*
X166535833Y-56211904D01*
X166583452Y-56307142D01*
X166631071Y-56354761D01*
X166726309Y-56402380D01*
X166821547Y-56402380D01*
X166916785Y-56354761D01*
X166964404Y-56307142D01*
X167012023Y-56211904D01*
X167059642Y-56021428D01*
X167059642Y-55783333D01*
X167012023Y-55592857D01*
X166964404Y-55497619D01*
X166916785Y-55450000D01*
X166821547Y-55402380D01*
X165916785Y-55830952D02*
X166012023Y-55783333D01*
X166059642Y-55735714D01*
X166107261Y-55640476D01*
X166107261Y-55592857D01*
X166059642Y-55497619D01*
X166012023Y-55450000D01*
X165916785Y-55402380D01*
X165726309Y-55402380D01*
X165631071Y-55450000D01*
X165583452Y-55497619D01*
X165535833Y-55592857D01*
X165535833Y-55640476D01*
X165583452Y-55735714D01*
X165631071Y-55783333D01*
X165726309Y-55830952D01*
X165916785Y-55830952D01*
X166012023Y-55878571D01*
X166059642Y-55926190D01*
X166107261Y-56021428D01*
X166107261Y-56211904D01*
X166059642Y-56307142D01*
X166012023Y-56354761D01*
X165916785Y-56402380D01*
X165726309Y-56402380D01*
X165631071Y-56354761D01*
X165583452Y-56307142D01*
X165535833Y-56211904D01*
X165535833Y-56021428D01*
X165583452Y-55926190D01*
X165631071Y-55878571D01*
X165726309Y-55830952D01*
X183852380Y-57504880D02*
X183376190Y-57171547D01*
X183852380Y-56933452D02*
X182852380Y-56933452D01*
X182852380Y-57314404D01*
X182900000Y-57409642D01*
X182947619Y-57457261D01*
X183042857Y-57504880D01*
X183185714Y-57504880D01*
X183280952Y-57457261D01*
X183328571Y-57409642D01*
X183376190Y-57314404D01*
X183376190Y-56933452D01*
X182852380Y-57838214D02*
X182852380Y-58457261D01*
X183233333Y-58123928D01*
X183233333Y-58266785D01*
X183280952Y-58362023D01*
X183328571Y-58409642D01*
X183423809Y-58457261D01*
X183661904Y-58457261D01*
X183757142Y-58409642D01*
X183804761Y-58362023D01*
X183852380Y-58266785D01*
X183852380Y-57981071D01*
X183804761Y-57885833D01*
X183757142Y-57838214D01*
X182852380Y-59076309D02*
X182852380Y-59171547D01*
X182900000Y-59266785D01*
X182947619Y-59314404D01*
X183042857Y-59362023D01*
X183233333Y-59409642D01*
X183471428Y-59409642D01*
X183661904Y-59362023D01*
X183757142Y-59314404D01*
X183804761Y-59266785D01*
X183852380Y-59171547D01*
X183852380Y-59076309D01*
X183804761Y-58981071D01*
X183757142Y-58933452D01*
X183661904Y-58885833D01*
X183471428Y-58838214D01*
X183233333Y-58838214D01*
X183042857Y-58885833D01*
X182947619Y-58933452D01*
X182900000Y-58981071D01*
X182852380Y-59076309D01*
X183852380Y-59885833D02*
X183852380Y-60076309D01*
X183804761Y-60171547D01*
X183757142Y-60219166D01*
X183614285Y-60314404D01*
X183423809Y-60362023D01*
X183042857Y-60362023D01*
X182947619Y-60314404D01*
X182900000Y-60266785D01*
X182852380Y-60171547D01*
X182852380Y-59981071D01*
X182900000Y-59885833D01*
X182947619Y-59838214D01*
X183042857Y-59790595D01*
X183280952Y-59790595D01*
X183376190Y-59838214D01*
X183423809Y-59885833D01*
X183471428Y-59981071D01*
X183471428Y-60171547D01*
X183423809Y-60266785D01*
X183376190Y-60314404D01*
X183280952Y-60362023D01*
X178502500Y-114702380D02*
X178407261Y-114750000D01*
X178312023Y-114845238D01*
X178169166Y-114988095D01*
X178073928Y-115035714D01*
X177978690Y-115035714D01*
X178026309Y-114797619D02*
X177931071Y-114845238D01*
X177835833Y-114940476D01*
X177788214Y-115130952D01*
X177788214Y-115464285D01*
X177835833Y-115654761D01*
X177931071Y-115750000D01*
X178026309Y-115797619D01*
X178216785Y-115797619D01*
X178312023Y-115750000D01*
X178407261Y-115654761D01*
X178454880Y-115464285D01*
X178454880Y-115130952D01*
X178407261Y-114940476D01*
X178312023Y-114845238D01*
X178216785Y-114797619D01*
X178026309Y-114797619D01*
X178788214Y-115797619D02*
X179407261Y-115797619D01*
X179073928Y-115416666D01*
X179216785Y-115416666D01*
X179312023Y-115369047D01*
X179359642Y-115321428D01*
X179407261Y-115226190D01*
X179407261Y-114988095D01*
X179359642Y-114892857D01*
X179312023Y-114845238D01*
X179216785Y-114797619D01*
X178931071Y-114797619D01*
X178835833Y-114845238D01*
X178788214Y-114892857D01*
X180026309Y-115797619D02*
X180121547Y-115797619D01*
X180216785Y-115750000D01*
X180264404Y-115702380D01*
X180312023Y-115607142D01*
X180359642Y-115416666D01*
X180359642Y-115178571D01*
X180312023Y-114988095D01*
X180264404Y-114892857D01*
X180216785Y-114845238D01*
X180121547Y-114797619D01*
X180026309Y-114797619D01*
X179931071Y-114845238D01*
X179883452Y-114892857D01*
X179835833Y-114988095D01*
X179788214Y-115178571D01*
X179788214Y-115416666D01*
X179835833Y-115607142D01*
X179883452Y-115702380D01*
X179931071Y-115750000D01*
X180026309Y-115797619D01*
X181312023Y-114797619D02*
X180740595Y-114797619D01*
X181026309Y-114797619D02*
X181026309Y-115797619D01*
X180931071Y-115654761D01*
X180835833Y-115559523D01*
X180740595Y-115511904D01*
X173714285Y-94947380D02*
X173714285Y-95756904D01*
X173666666Y-95852142D01*
X173619047Y-95899761D01*
X173523809Y-95947380D01*
X173333333Y-95947380D01*
X173238095Y-95899761D01*
X173190476Y-95852142D01*
X173142857Y-95756904D01*
X173142857Y-94947380D01*
X172761904Y-94947380D02*
X172142857Y-94947380D01*
X172476190Y-95328333D01*
X172333333Y-95328333D01*
X172238095Y-95375952D01*
X172190476Y-95423571D01*
X172142857Y-95518809D01*
X172142857Y-95756904D01*
X172190476Y-95852142D01*
X172238095Y-95899761D01*
X172333333Y-95947380D01*
X172619047Y-95947380D01*
X172714285Y-95899761D01*
X172761904Y-95852142D01*
X171523809Y-94947380D02*
X171428571Y-94947380D01*
X171333333Y-94995000D01*
X171285714Y-95042619D01*
X171238095Y-95137857D01*
X171190476Y-95328333D01*
X171190476Y-95566428D01*
X171238095Y-95756904D01*
X171285714Y-95852142D01*
X171333333Y-95899761D01*
X171428571Y-95947380D01*
X171523809Y-95947380D01*
X171619047Y-95899761D01*
X171666666Y-95852142D01*
X171714285Y-95756904D01*
X171761904Y-95566428D01*
X171761904Y-95328333D01*
X171714285Y-95137857D01*
X171666666Y-95042619D01*
X171619047Y-94995000D01*
X171523809Y-94947380D01*
X170238095Y-95947380D02*
X170809523Y-95947380D01*
X170523809Y-95947380D02*
X170523809Y-94947380D01*
X170619047Y-95090238D01*
X170714285Y-95185476D01*
X170809523Y-95233095D01*
X177052380Y-113597500D02*
X177100000Y-113692738D01*
X177195238Y-113787976D01*
X177338095Y-113930833D01*
X177385714Y-114026071D01*
X177385714Y-114121309D01*
X177147619Y-114073690D02*
X177195238Y-114168928D01*
X177290476Y-114264166D01*
X177480952Y-114311785D01*
X177814285Y-114311785D01*
X178004761Y-114264166D01*
X178100000Y-114168928D01*
X178147619Y-114073690D01*
X178147619Y-113883214D01*
X178100000Y-113787976D01*
X178004761Y-113692738D01*
X177814285Y-113645119D01*
X177480952Y-113645119D01*
X177290476Y-113692738D01*
X177195238Y-113787976D01*
X177147619Y-113883214D01*
X177147619Y-114073690D01*
X178147619Y-113311785D02*
X178147619Y-112692738D01*
X177766666Y-113026071D01*
X177766666Y-112883214D01*
X177719047Y-112787976D01*
X177671428Y-112740357D01*
X177576190Y-112692738D01*
X177338095Y-112692738D01*
X177242857Y-112740357D01*
X177195238Y-112787976D01*
X177147619Y-112883214D01*
X177147619Y-113168928D01*
X177195238Y-113264166D01*
X177242857Y-113311785D01*
X178147619Y-112073690D02*
X178147619Y-111978452D01*
X178100000Y-111883214D01*
X178052380Y-111835595D01*
X177957142Y-111787976D01*
X177766666Y-111740357D01*
X177528571Y-111740357D01*
X177338095Y-111787976D01*
X177242857Y-111835595D01*
X177195238Y-111883214D01*
X177147619Y-111978452D01*
X177147619Y-112073690D01*
X177195238Y-112168928D01*
X177242857Y-112216547D01*
X177338095Y-112264166D01*
X177528571Y-112311785D01*
X177766666Y-112311785D01*
X177957142Y-112264166D01*
X178052380Y-112216547D01*
X178100000Y-112168928D01*
X178147619Y-112073690D01*
X178052380Y-111359404D02*
X178100000Y-111311785D01*
X178147619Y-111216547D01*
X178147619Y-110978452D01*
X178100000Y-110883214D01*
X178052380Y-110835595D01*
X177957142Y-110787976D01*
X177861904Y-110787976D01*
X177719047Y-110835595D01*
X177147619Y-111407023D01*
X177147619Y-110787976D01*
X50132380Y-51261805D02*
X50846666Y-51261805D01*
X50989523Y-51214186D01*
X51084761Y-51118948D01*
X51132380Y-50976091D01*
X51132380Y-50880853D01*
X51132380Y-52261805D02*
X51132380Y-51690377D01*
X51132380Y-51976091D02*
X50132380Y-51976091D01*
X50275238Y-51880853D01*
X50370476Y-51785615D01*
X50418095Y-51690377D01*
X50132380Y-52880853D02*
X50132380Y-52976091D01*
X50180000Y-53071329D01*
X50227619Y-53118948D01*
X50322857Y-53166567D01*
X50513333Y-53214186D01*
X50751428Y-53214186D01*
X50941904Y-53166567D01*
X51037142Y-53118948D01*
X51084761Y-53071329D01*
X51132380Y-52976091D01*
X51132380Y-52880853D01*
X51084761Y-52785615D01*
X51037142Y-52737996D01*
X50941904Y-52690377D01*
X50751428Y-52642758D01*
X50513333Y-52642758D01*
X50322857Y-52690377D01*
X50227619Y-52737996D01*
X50180000Y-52785615D01*
X50132380Y-52880853D01*
X51132380Y-54166567D02*
X51132380Y-53595139D01*
X51132380Y-53880853D02*
X50132380Y-53880853D01*
X50275238Y-53785615D01*
X50370476Y-53690377D01*
X50418095Y-53595139D01*
X182526190Y-106571428D02*
X183002380Y-106571428D01*
X182002380Y-106238095D02*
X182526190Y-106571428D01*
X182002380Y-106904761D01*
X182002380Y-107142857D02*
X182002380Y-107761904D01*
X182383333Y-107428571D01*
X182383333Y-107571428D01*
X182430952Y-107666666D01*
X182478571Y-107714285D01*
X182573809Y-107761904D01*
X182811904Y-107761904D01*
X182907142Y-107714285D01*
X182954761Y-107666666D01*
X183002380Y-107571428D01*
X183002380Y-107285714D01*
X182954761Y-107190476D01*
X182907142Y-107142857D01*
X182002380Y-108380952D02*
X182002380Y-108476190D01*
X182050000Y-108571428D01*
X182097619Y-108619047D01*
X182192857Y-108666666D01*
X182383333Y-108714285D01*
X182621428Y-108714285D01*
X182811904Y-108666666D01*
X182907142Y-108619047D01*
X182954761Y-108571428D01*
X183002380Y-108476190D01*
X183002380Y-108380952D01*
X182954761Y-108285714D01*
X182907142Y-108238095D01*
X182811904Y-108190476D01*
X182621428Y-108142857D01*
X182383333Y-108142857D01*
X182192857Y-108190476D01*
X182097619Y-108238095D01*
X182050000Y-108285714D01*
X182002380Y-108380952D01*
X183002380Y-109666666D02*
X183002380Y-109095238D01*
X183002380Y-109380952D02*
X182002380Y-109380952D01*
X182145238Y-109285714D01*
X182240476Y-109190476D01*
X182288095Y-109095238D01*
X36307142Y-51955952D02*
X36354761Y-51908333D01*
X36402380Y-51765476D01*
X36402380Y-51670238D01*
X36354761Y-51527380D01*
X36259523Y-51432142D01*
X36164285Y-51384523D01*
X35973809Y-51336904D01*
X35830952Y-51336904D01*
X35640476Y-51384523D01*
X35545238Y-51432142D01*
X35450000Y-51527380D01*
X35402380Y-51670238D01*
X35402380Y-51765476D01*
X35450000Y-51908333D01*
X35497619Y-51955952D01*
X35402380Y-52289285D02*
X35402380Y-52908333D01*
X35783333Y-52575000D01*
X35783333Y-52717857D01*
X35830952Y-52813095D01*
X35878571Y-52860714D01*
X35973809Y-52908333D01*
X36211904Y-52908333D01*
X36307142Y-52860714D01*
X36354761Y-52813095D01*
X36402380Y-52717857D01*
X36402380Y-52432142D01*
X36354761Y-52336904D01*
X36307142Y-52289285D01*
X35402380Y-53527380D02*
X35402380Y-53622619D01*
X35450000Y-53717857D01*
X35497619Y-53765476D01*
X35592857Y-53813095D01*
X35783333Y-53860714D01*
X36021428Y-53860714D01*
X36211904Y-53813095D01*
X36307142Y-53765476D01*
X36354761Y-53717857D01*
X36402380Y-53622619D01*
X36402380Y-53527380D01*
X36354761Y-53432142D01*
X36307142Y-53384523D01*
X36211904Y-53336904D01*
X36021428Y-53289285D01*
X35783333Y-53289285D01*
X35592857Y-53336904D01*
X35497619Y-53384523D01*
X35450000Y-53432142D01*
X35402380Y-53527380D01*
X35735714Y-54717857D02*
X36402380Y-54717857D01*
X35354761Y-54479761D02*
X36069047Y-54241666D01*
X36069047Y-54860714D01*
X36157142Y-66980952D02*
X36204761Y-66933333D01*
X36252380Y-66790476D01*
X36252380Y-66695238D01*
X36204761Y-66552380D01*
X36109523Y-66457142D01*
X36014285Y-66409523D01*
X35823809Y-66361904D01*
X35680952Y-66361904D01*
X35490476Y-66409523D01*
X35395238Y-66457142D01*
X35300000Y-66552380D01*
X35252380Y-66695238D01*
X35252380Y-66790476D01*
X35300000Y-66933333D01*
X35347619Y-66980952D01*
X35252380Y-67314285D02*
X35252380Y-67933333D01*
X35633333Y-67600000D01*
X35633333Y-67742857D01*
X35680952Y-67838095D01*
X35728571Y-67885714D01*
X35823809Y-67933333D01*
X36061904Y-67933333D01*
X36157142Y-67885714D01*
X36204761Y-67838095D01*
X36252380Y-67742857D01*
X36252380Y-67457142D01*
X36204761Y-67361904D01*
X36157142Y-67314285D01*
X35252380Y-68552380D02*
X35252380Y-68647619D01*
X35300000Y-68742857D01*
X35347619Y-68790476D01*
X35442857Y-68838095D01*
X35633333Y-68885714D01*
X35871428Y-68885714D01*
X36061904Y-68838095D01*
X36157142Y-68790476D01*
X36204761Y-68742857D01*
X36252380Y-68647619D01*
X36252380Y-68552380D01*
X36204761Y-68457142D01*
X36157142Y-68409523D01*
X36061904Y-68361904D01*
X35871428Y-68314285D01*
X35633333Y-68314285D01*
X35442857Y-68361904D01*
X35347619Y-68409523D01*
X35300000Y-68457142D01*
X35252380Y-68552380D01*
X35252380Y-69790476D02*
X35252380Y-69314285D01*
X35728571Y-69266666D01*
X35680952Y-69314285D01*
X35633333Y-69409523D01*
X35633333Y-69647619D01*
X35680952Y-69742857D01*
X35728571Y-69790476D01*
X35823809Y-69838095D01*
X36061904Y-69838095D01*
X36157142Y-69790476D01*
X36204761Y-69742857D01*
X36252380Y-69647619D01*
X36252380Y-69409523D01*
X36204761Y-69314285D01*
X36157142Y-69266666D01*
X36257142Y-92980952D02*
X36304761Y-92933333D01*
X36352380Y-92790476D01*
X36352380Y-92695238D01*
X36304761Y-92552380D01*
X36209523Y-92457142D01*
X36114285Y-92409523D01*
X35923809Y-92361904D01*
X35780952Y-92361904D01*
X35590476Y-92409523D01*
X35495238Y-92457142D01*
X35400000Y-92552380D01*
X35352380Y-92695238D01*
X35352380Y-92790476D01*
X35400000Y-92933333D01*
X35447619Y-92980952D01*
X35352380Y-93314285D02*
X35352380Y-93933333D01*
X35733333Y-93600000D01*
X35733333Y-93742857D01*
X35780952Y-93838095D01*
X35828571Y-93885714D01*
X35923809Y-93933333D01*
X36161904Y-93933333D01*
X36257142Y-93885714D01*
X36304761Y-93838095D01*
X36352380Y-93742857D01*
X36352380Y-93457142D01*
X36304761Y-93361904D01*
X36257142Y-93314285D01*
X35352380Y-94552380D02*
X35352380Y-94647619D01*
X35400000Y-94742857D01*
X35447619Y-94790476D01*
X35542857Y-94838095D01*
X35733333Y-94885714D01*
X35971428Y-94885714D01*
X36161904Y-94838095D01*
X36257142Y-94790476D01*
X36304761Y-94742857D01*
X36352380Y-94647619D01*
X36352380Y-94552380D01*
X36304761Y-94457142D01*
X36257142Y-94409523D01*
X36161904Y-94361904D01*
X35971428Y-94314285D01*
X35733333Y-94314285D01*
X35542857Y-94361904D01*
X35447619Y-94409523D01*
X35400000Y-94457142D01*
X35352380Y-94552380D01*
X35352380Y-95742857D02*
X35352380Y-95552380D01*
X35400000Y-95457142D01*
X35447619Y-95409523D01*
X35590476Y-95314285D01*
X35780952Y-95266666D01*
X36161904Y-95266666D01*
X36257142Y-95314285D01*
X36304761Y-95361904D01*
X36352380Y-95457142D01*
X36352380Y-95647619D01*
X36304761Y-95742857D01*
X36257142Y-95790476D01*
X36161904Y-95838095D01*
X35923809Y-95838095D01*
X35828571Y-95790476D01*
X35780952Y-95742857D01*
X35733333Y-95647619D01*
X35733333Y-95457142D01*
X35780952Y-95361904D01*
X35828571Y-95314285D01*
X35923809Y-95266666D01*
X71019047Y-127057142D02*
X71066666Y-127104761D01*
X71209523Y-127152380D01*
X71304761Y-127152380D01*
X71447619Y-127104761D01*
X71542857Y-127009523D01*
X71590476Y-126914285D01*
X71638095Y-126723809D01*
X71638095Y-126580952D01*
X71590476Y-126390476D01*
X71542857Y-126295238D01*
X71447619Y-126200000D01*
X71304761Y-126152380D01*
X71209523Y-126152380D01*
X71066666Y-126200000D01*
X71019047Y-126247619D01*
X70685714Y-126152380D02*
X70066666Y-126152380D01*
X70400000Y-126533333D01*
X70257142Y-126533333D01*
X70161904Y-126580952D01*
X70114285Y-126628571D01*
X70066666Y-126723809D01*
X70066666Y-126961904D01*
X70114285Y-127057142D01*
X70161904Y-127104761D01*
X70257142Y-127152380D01*
X70542857Y-127152380D01*
X70638095Y-127104761D01*
X70685714Y-127057142D01*
X69447619Y-126152380D02*
X69352380Y-126152380D01*
X69257142Y-126200000D01*
X69209523Y-126247619D01*
X69161904Y-126342857D01*
X69114285Y-126533333D01*
X69114285Y-126771428D01*
X69161904Y-126961904D01*
X69209523Y-127057142D01*
X69257142Y-127104761D01*
X69352380Y-127152380D01*
X69447619Y-127152380D01*
X69542857Y-127104761D01*
X69590476Y-127057142D01*
X69638095Y-126961904D01*
X69685714Y-126771428D01*
X69685714Y-126533333D01*
X69638095Y-126342857D01*
X69590476Y-126247619D01*
X69542857Y-126200000D01*
X69447619Y-126152380D01*
X68780952Y-126152380D02*
X68114285Y-126152380D01*
X68542857Y-127152380D01*
X95069047Y-126907142D02*
X95116666Y-126954761D01*
X95259523Y-127002380D01*
X95354761Y-127002380D01*
X95497619Y-126954761D01*
X95592857Y-126859523D01*
X95640476Y-126764285D01*
X95688095Y-126573809D01*
X95688095Y-126430952D01*
X95640476Y-126240476D01*
X95592857Y-126145238D01*
X95497619Y-126050000D01*
X95354761Y-126002380D01*
X95259523Y-126002380D01*
X95116666Y-126050000D01*
X95069047Y-126097619D01*
X94735714Y-126002380D02*
X94116666Y-126002380D01*
X94450000Y-126383333D01*
X94307142Y-126383333D01*
X94211904Y-126430952D01*
X94164285Y-126478571D01*
X94116666Y-126573809D01*
X94116666Y-126811904D01*
X94164285Y-126907142D01*
X94211904Y-126954761D01*
X94307142Y-127002380D01*
X94592857Y-127002380D01*
X94688095Y-126954761D01*
X94735714Y-126907142D01*
X93497619Y-126002380D02*
X93402380Y-126002380D01*
X93307142Y-126050000D01*
X93259523Y-126097619D01*
X93211904Y-126192857D01*
X93164285Y-126383333D01*
X93164285Y-126621428D01*
X93211904Y-126811904D01*
X93259523Y-126907142D01*
X93307142Y-126954761D01*
X93402380Y-127002380D01*
X93497619Y-127002380D01*
X93592857Y-126954761D01*
X93640476Y-126907142D01*
X93688095Y-126811904D01*
X93735714Y-126621428D01*
X93735714Y-126383333D01*
X93688095Y-126192857D01*
X93640476Y-126097619D01*
X93592857Y-126050000D01*
X93497619Y-126002380D01*
X92592857Y-126430952D02*
X92688095Y-126383333D01*
X92735714Y-126335714D01*
X92783333Y-126240476D01*
X92783333Y-126192857D01*
X92735714Y-126097619D01*
X92688095Y-126050000D01*
X92592857Y-126002380D01*
X92402380Y-126002380D01*
X92307142Y-126050000D01*
X92259523Y-126097619D01*
X92211904Y-126192857D01*
X92211904Y-126240476D01*
X92259523Y-126335714D01*
X92307142Y-126383333D01*
X92402380Y-126430952D01*
X92592857Y-126430952D01*
X92688095Y-126478571D01*
X92735714Y-126526190D01*
X92783333Y-126621428D01*
X92783333Y-126811904D01*
X92735714Y-126907142D01*
X92688095Y-126954761D01*
X92592857Y-127002380D01*
X92402380Y-127002380D01*
X92307142Y-126954761D01*
X92259523Y-126907142D01*
X92211904Y-126811904D01*
X92211904Y-126621428D01*
X92259523Y-126526190D01*
X92307142Y-126478571D01*
X92402380Y-126430952D01*
X119619047Y-129357142D02*
X119666666Y-129404761D01*
X119809523Y-129452380D01*
X119904761Y-129452380D01*
X120047619Y-129404761D01*
X120142857Y-129309523D01*
X120190476Y-129214285D01*
X120238095Y-129023809D01*
X120238095Y-128880952D01*
X120190476Y-128690476D01*
X120142857Y-128595238D01*
X120047619Y-128500000D01*
X119904761Y-128452380D01*
X119809523Y-128452380D01*
X119666666Y-128500000D01*
X119619047Y-128547619D01*
X119285714Y-128452380D02*
X118666666Y-128452380D01*
X119000000Y-128833333D01*
X118857142Y-128833333D01*
X118761904Y-128880952D01*
X118714285Y-128928571D01*
X118666666Y-129023809D01*
X118666666Y-129261904D01*
X118714285Y-129357142D01*
X118761904Y-129404761D01*
X118857142Y-129452380D01*
X119142857Y-129452380D01*
X119238095Y-129404761D01*
X119285714Y-129357142D01*
X118047619Y-128452380D02*
X117952380Y-128452380D01*
X117857142Y-128500000D01*
X117809523Y-128547619D01*
X117761904Y-128642857D01*
X117714285Y-128833333D01*
X117714285Y-129071428D01*
X117761904Y-129261904D01*
X117809523Y-129357142D01*
X117857142Y-129404761D01*
X117952380Y-129452380D01*
X118047619Y-129452380D01*
X118142857Y-129404761D01*
X118190476Y-129357142D01*
X118238095Y-129261904D01*
X118285714Y-129071428D01*
X118285714Y-128833333D01*
X118238095Y-128642857D01*
X118190476Y-128547619D01*
X118142857Y-128500000D01*
X118047619Y-128452380D01*
X117238095Y-129452380D02*
X117047619Y-129452380D01*
X116952380Y-129404761D01*
X116904761Y-129357142D01*
X116809523Y-129214285D01*
X116761904Y-129023809D01*
X116761904Y-128642857D01*
X116809523Y-128547619D01*
X116857142Y-128500000D01*
X116952380Y-128452380D01*
X117142857Y-128452380D01*
X117238095Y-128500000D01*
X117285714Y-128547619D01*
X117333333Y-128642857D01*
X117333333Y-128880952D01*
X117285714Y-128976190D01*
X117238095Y-129023809D01*
X117142857Y-129071428D01*
X116952380Y-129071428D01*
X116857142Y-129023809D01*
X116809523Y-128976190D01*
X116761904Y-128880952D01*
X141957142Y-52080952D02*
X142004761Y-52033333D01*
X142052380Y-51890476D01*
X142052380Y-51795238D01*
X142004761Y-51652380D01*
X141909523Y-51557142D01*
X141814285Y-51509523D01*
X141623809Y-51461904D01*
X141480952Y-51461904D01*
X141290476Y-51509523D01*
X141195238Y-51557142D01*
X141100000Y-51652380D01*
X141052380Y-51795238D01*
X141052380Y-51890476D01*
X141100000Y-52033333D01*
X141147619Y-52080952D01*
X141052380Y-52414285D02*
X141052380Y-53033333D01*
X141433333Y-52700000D01*
X141433333Y-52842857D01*
X141480952Y-52938095D01*
X141528571Y-52985714D01*
X141623809Y-53033333D01*
X141861904Y-53033333D01*
X141957142Y-52985714D01*
X142004761Y-52938095D01*
X142052380Y-52842857D01*
X142052380Y-52557142D01*
X142004761Y-52461904D01*
X141957142Y-52414285D01*
X142052380Y-53985714D02*
X142052380Y-53414285D01*
X142052380Y-53700000D02*
X141052380Y-53700000D01*
X141195238Y-53604761D01*
X141290476Y-53509523D01*
X141338095Y-53414285D01*
X141052380Y-54604761D02*
X141052380Y-54700000D01*
X141100000Y-54795238D01*
X141147619Y-54842857D01*
X141242857Y-54890476D01*
X141433333Y-54938095D01*
X141671428Y-54938095D01*
X141861904Y-54890476D01*
X141957142Y-54842857D01*
X142004761Y-54795238D01*
X142052380Y-54700000D01*
X142052380Y-54604761D01*
X142004761Y-54509523D01*
X141957142Y-54461904D01*
X141861904Y-54414285D01*
X141671428Y-54366666D01*
X141433333Y-54366666D01*
X141242857Y-54414285D01*
X141147619Y-54461904D01*
X141100000Y-54509523D01*
X141052380Y-54604761D01*
X164607142Y-51880952D02*
X164654761Y-51833333D01*
X164702380Y-51690476D01*
X164702380Y-51595238D01*
X164654761Y-51452380D01*
X164559523Y-51357142D01*
X164464285Y-51309523D01*
X164273809Y-51261904D01*
X164130952Y-51261904D01*
X163940476Y-51309523D01*
X163845238Y-51357142D01*
X163750000Y-51452380D01*
X163702380Y-51595238D01*
X163702380Y-51690476D01*
X163750000Y-51833333D01*
X163797619Y-51880952D01*
X163702380Y-52214285D02*
X163702380Y-52833333D01*
X164083333Y-52500000D01*
X164083333Y-52642857D01*
X164130952Y-52738095D01*
X164178571Y-52785714D01*
X164273809Y-52833333D01*
X164511904Y-52833333D01*
X164607142Y-52785714D01*
X164654761Y-52738095D01*
X164702380Y-52642857D01*
X164702380Y-52357142D01*
X164654761Y-52261904D01*
X164607142Y-52214285D01*
X164702380Y-53785714D02*
X164702380Y-53214285D01*
X164702380Y-53500000D02*
X163702380Y-53500000D01*
X163845238Y-53404761D01*
X163940476Y-53309523D01*
X163988095Y-53214285D01*
X164702380Y-54738095D02*
X164702380Y-54166666D01*
X164702380Y-54452380D02*
X163702380Y-54452380D01*
X163845238Y-54357142D01*
X163940476Y-54261904D01*
X163988095Y-54166666D01*
X179507142Y-51780952D02*
X179554761Y-51733333D01*
X179602380Y-51590476D01*
X179602380Y-51495238D01*
X179554761Y-51352380D01*
X179459523Y-51257142D01*
X179364285Y-51209523D01*
X179173809Y-51161904D01*
X179030952Y-51161904D01*
X178840476Y-51209523D01*
X178745238Y-51257142D01*
X178650000Y-51352380D01*
X178602380Y-51495238D01*
X178602380Y-51590476D01*
X178650000Y-51733333D01*
X178697619Y-51780952D01*
X178602380Y-52114285D02*
X178602380Y-52733333D01*
X178983333Y-52400000D01*
X178983333Y-52542857D01*
X179030952Y-52638095D01*
X179078571Y-52685714D01*
X179173809Y-52733333D01*
X179411904Y-52733333D01*
X179507142Y-52685714D01*
X179554761Y-52638095D01*
X179602380Y-52542857D01*
X179602380Y-52257142D01*
X179554761Y-52161904D01*
X179507142Y-52114285D01*
X179602380Y-53685714D02*
X179602380Y-53114285D01*
X179602380Y-53400000D02*
X178602380Y-53400000D01*
X178745238Y-53304761D01*
X178840476Y-53209523D01*
X178888095Y-53114285D01*
X178697619Y-54066666D02*
X178650000Y-54114285D01*
X178602380Y-54209523D01*
X178602380Y-54447619D01*
X178650000Y-54542857D01*
X178697619Y-54590476D01*
X178792857Y-54638095D01*
X178888095Y-54638095D01*
X179030952Y-54590476D01*
X179602380Y-54019047D01*
X179602380Y-54638095D01*
X163269047Y-90057142D02*
X163316666Y-90104761D01*
X163459523Y-90152380D01*
X163554761Y-90152380D01*
X163697619Y-90104761D01*
X163792857Y-90009523D01*
X163840476Y-89914285D01*
X163888095Y-89723809D01*
X163888095Y-89580952D01*
X163840476Y-89390476D01*
X163792857Y-89295238D01*
X163697619Y-89200000D01*
X163554761Y-89152380D01*
X163459523Y-89152380D01*
X163316666Y-89200000D01*
X163269047Y-89247619D01*
X162935714Y-89152380D02*
X162316666Y-89152380D01*
X162650000Y-89533333D01*
X162507142Y-89533333D01*
X162411904Y-89580952D01*
X162364285Y-89628571D01*
X162316666Y-89723809D01*
X162316666Y-89961904D01*
X162364285Y-90057142D01*
X162411904Y-90104761D01*
X162507142Y-90152380D01*
X162792857Y-90152380D01*
X162888095Y-90104761D01*
X162935714Y-90057142D01*
X161364285Y-90152380D02*
X161935714Y-90152380D01*
X161650000Y-90152380D02*
X161650000Y-89152380D01*
X161745238Y-89295238D01*
X161840476Y-89390476D01*
X161935714Y-89438095D01*
X161030952Y-89152380D02*
X160411904Y-89152380D01*
X160745238Y-89533333D01*
X160602380Y-89533333D01*
X160507142Y-89580952D01*
X160459523Y-89628571D01*
X160411904Y-89723809D01*
X160411904Y-89961904D01*
X160459523Y-90057142D01*
X160507142Y-90104761D01*
X160602380Y-90152380D01*
X160888095Y-90152380D01*
X160983333Y-90104761D01*
X161030952Y-90057142D01*
X147969047Y-129007142D02*
X148016666Y-129054761D01*
X148159523Y-129102380D01*
X148254761Y-129102380D01*
X148397619Y-129054761D01*
X148492857Y-128959523D01*
X148540476Y-128864285D01*
X148588095Y-128673809D01*
X148588095Y-128530952D01*
X148540476Y-128340476D01*
X148492857Y-128245238D01*
X148397619Y-128150000D01*
X148254761Y-128102380D01*
X148159523Y-128102380D01*
X148016666Y-128150000D01*
X147969047Y-128197619D01*
X147635714Y-128102380D02*
X147016666Y-128102380D01*
X147350000Y-128483333D01*
X147207142Y-128483333D01*
X147111904Y-128530952D01*
X147064285Y-128578571D01*
X147016666Y-128673809D01*
X147016666Y-128911904D01*
X147064285Y-129007142D01*
X147111904Y-129054761D01*
X147207142Y-129102380D01*
X147492857Y-129102380D01*
X147588095Y-129054761D01*
X147635714Y-129007142D01*
X146064285Y-129102380D02*
X146635714Y-129102380D01*
X146350000Y-129102380D02*
X146350000Y-128102380D01*
X146445238Y-128245238D01*
X146540476Y-128340476D01*
X146635714Y-128388095D01*
X145207142Y-128435714D02*
X145207142Y-129102380D01*
X145445238Y-128054761D02*
X145683333Y-128769047D01*
X145064285Y-128769047D01*
X178219047Y-129107142D02*
X178266666Y-129154761D01*
X178409523Y-129202380D01*
X178504761Y-129202380D01*
X178647619Y-129154761D01*
X178742857Y-129059523D01*
X178790476Y-128964285D01*
X178838095Y-128773809D01*
X178838095Y-128630952D01*
X178790476Y-128440476D01*
X178742857Y-128345238D01*
X178647619Y-128250000D01*
X178504761Y-128202380D01*
X178409523Y-128202380D01*
X178266666Y-128250000D01*
X178219047Y-128297619D01*
X177885714Y-128202380D02*
X177266666Y-128202380D01*
X177600000Y-128583333D01*
X177457142Y-128583333D01*
X177361904Y-128630952D01*
X177314285Y-128678571D01*
X177266666Y-128773809D01*
X177266666Y-129011904D01*
X177314285Y-129107142D01*
X177361904Y-129154761D01*
X177457142Y-129202380D01*
X177742857Y-129202380D01*
X177838095Y-129154761D01*
X177885714Y-129107142D01*
X176314285Y-129202380D02*
X176885714Y-129202380D01*
X176600000Y-129202380D02*
X176600000Y-128202380D01*
X176695238Y-128345238D01*
X176790476Y-128440476D01*
X176885714Y-128488095D01*
X175457142Y-128202380D02*
X175647619Y-128202380D01*
X175742857Y-128250000D01*
X175790476Y-128297619D01*
X175885714Y-128440476D01*
X175933333Y-128630952D01*
X175933333Y-129011904D01*
X175885714Y-129107142D01*
X175838095Y-129154761D01*
X175742857Y-129202380D01*
X175552380Y-129202380D01*
X175457142Y-129154761D01*
X175409523Y-129107142D01*
X175361904Y-129011904D01*
X175361904Y-128773809D01*
X175409523Y-128678571D01*
X175457142Y-128630952D01*
X175552380Y-128583333D01*
X175742857Y-128583333D01*
X175838095Y-128630952D01*
X175885714Y-128678571D01*
X175933333Y-128773809D01*
X163269047Y-129157142D02*
X163316666Y-129204761D01*
X163459523Y-129252380D01*
X163554761Y-129252380D01*
X163697619Y-129204761D01*
X163792857Y-129109523D01*
X163840476Y-129014285D01*
X163888095Y-128823809D01*
X163888095Y-128680952D01*
X163840476Y-128490476D01*
X163792857Y-128395238D01*
X163697619Y-128300000D01*
X163554761Y-128252380D01*
X163459523Y-128252380D01*
X163316666Y-128300000D01*
X163269047Y-128347619D01*
X162935714Y-128252380D02*
X162316666Y-128252380D01*
X162650000Y-128633333D01*
X162507142Y-128633333D01*
X162411904Y-128680952D01*
X162364285Y-128728571D01*
X162316666Y-128823809D01*
X162316666Y-129061904D01*
X162364285Y-129157142D01*
X162411904Y-129204761D01*
X162507142Y-129252380D01*
X162792857Y-129252380D01*
X162888095Y-129204761D01*
X162935714Y-129157142D01*
X161364285Y-129252380D02*
X161935714Y-129252380D01*
X161650000Y-129252380D02*
X161650000Y-128252380D01*
X161745238Y-128395238D01*
X161840476Y-128490476D01*
X161935714Y-128538095D01*
X160459523Y-128252380D02*
X160935714Y-128252380D01*
X160983333Y-128728571D01*
X160935714Y-128680952D01*
X160840476Y-128633333D01*
X160602380Y-128633333D01*
X160507142Y-128680952D01*
X160459523Y-128728571D01*
X160411904Y-128823809D01*
X160411904Y-129061904D01*
X160459523Y-129157142D01*
X160507142Y-129204761D01*
X160602380Y-129252380D01*
X160840476Y-129252380D01*
X160935714Y-129204761D01*
X160983333Y-129157142D01*
X44219047Y-46657142D02*
X44266666Y-46704761D01*
X44409523Y-46752380D01*
X44504761Y-46752380D01*
X44647619Y-46704761D01*
X44742857Y-46609523D01*
X44790476Y-46514285D01*
X44838095Y-46323809D01*
X44838095Y-46180952D01*
X44790476Y-45990476D01*
X44742857Y-45895238D01*
X44647619Y-45800000D01*
X44504761Y-45752380D01*
X44409523Y-45752380D01*
X44266666Y-45800000D01*
X44219047Y-45847619D01*
X43838095Y-45847619D02*
X43790476Y-45800000D01*
X43695238Y-45752380D01*
X43457142Y-45752380D01*
X43361904Y-45800000D01*
X43314285Y-45847619D01*
X43266666Y-45942857D01*
X43266666Y-46038095D01*
X43314285Y-46180952D01*
X43885714Y-46752380D01*
X43266666Y-46752380D01*
X42647619Y-45752380D02*
X42552380Y-45752380D01*
X42457142Y-45800000D01*
X42409523Y-45847619D01*
X42361904Y-45942857D01*
X42314285Y-46133333D01*
X42314285Y-46371428D01*
X42361904Y-46561904D01*
X42409523Y-46657142D01*
X42457142Y-46704761D01*
X42552380Y-46752380D01*
X42647619Y-46752380D01*
X42742857Y-46704761D01*
X42790476Y-46657142D01*
X42838095Y-46561904D01*
X42885714Y-46371428D01*
X42885714Y-46133333D01*
X42838095Y-45942857D01*
X42790476Y-45847619D01*
X42742857Y-45800000D01*
X42647619Y-45752380D01*
X41361904Y-46752380D02*
X41933333Y-46752380D01*
X41647619Y-46752380D02*
X41647619Y-45752380D01*
X41742857Y-45895238D01*
X41838095Y-45990476D01*
X41933333Y-46038095D01*
X173747500Y-89297619D02*
X173842738Y-89250000D01*
X173937976Y-89154761D01*
X174080833Y-89011904D01*
X174176071Y-88964285D01*
X174271309Y-88964285D01*
X174223690Y-89202380D02*
X174318928Y-89154761D01*
X174414166Y-89059523D01*
X174461785Y-88869047D01*
X174461785Y-88535714D01*
X174414166Y-88345238D01*
X174318928Y-88250000D01*
X174223690Y-88202380D01*
X174033214Y-88202380D01*
X173937976Y-88250000D01*
X173842738Y-88345238D01*
X173795119Y-88535714D01*
X173795119Y-88869047D01*
X173842738Y-89059523D01*
X173937976Y-89154761D01*
X174033214Y-89202380D01*
X174223690Y-89202380D01*
X172842738Y-89202380D02*
X173414166Y-89202380D01*
X173128452Y-89202380D02*
X173128452Y-88202380D01*
X173223690Y-88345238D01*
X173318928Y-88440476D01*
X173414166Y-88488095D01*
X172223690Y-88202380D02*
X172128452Y-88202380D01*
X172033214Y-88250000D01*
X171985595Y-88297619D01*
X171937976Y-88392857D01*
X171890357Y-88583333D01*
X171890357Y-88821428D01*
X171937976Y-89011904D01*
X171985595Y-89107142D01*
X172033214Y-89154761D01*
X172128452Y-89202380D01*
X172223690Y-89202380D01*
X172318928Y-89154761D01*
X172366547Y-89107142D01*
X172414166Y-89011904D01*
X172461785Y-88821428D01*
X172461785Y-88583333D01*
X172414166Y-88392857D01*
X172366547Y-88297619D01*
X172318928Y-88250000D01*
X172223690Y-88202380D01*
X170937976Y-89202380D02*
X171509404Y-89202380D01*
X171223690Y-89202380D02*
X171223690Y-88202380D01*
X171318928Y-88345238D01*
X171414166Y-88440476D01*
X171509404Y-88488095D01*
X169147500Y-89297619D02*
X169242738Y-89250000D01*
X169337976Y-89154761D01*
X169480833Y-89011904D01*
X169576071Y-88964285D01*
X169671309Y-88964285D01*
X169623690Y-89202380D02*
X169718928Y-89154761D01*
X169814166Y-89059523D01*
X169861785Y-88869047D01*
X169861785Y-88535714D01*
X169814166Y-88345238D01*
X169718928Y-88250000D01*
X169623690Y-88202380D01*
X169433214Y-88202380D01*
X169337976Y-88250000D01*
X169242738Y-88345238D01*
X169195119Y-88535714D01*
X169195119Y-88869047D01*
X169242738Y-89059523D01*
X169337976Y-89154761D01*
X169433214Y-89202380D01*
X169623690Y-89202380D01*
X168242738Y-89202380D02*
X168814166Y-89202380D01*
X168528452Y-89202380D02*
X168528452Y-88202380D01*
X168623690Y-88345238D01*
X168718928Y-88440476D01*
X168814166Y-88488095D01*
X167623690Y-88202380D02*
X167528452Y-88202380D01*
X167433214Y-88250000D01*
X167385595Y-88297619D01*
X167337976Y-88392857D01*
X167290357Y-88583333D01*
X167290357Y-88821428D01*
X167337976Y-89011904D01*
X167385595Y-89107142D01*
X167433214Y-89154761D01*
X167528452Y-89202380D01*
X167623690Y-89202380D01*
X167718928Y-89154761D01*
X167766547Y-89107142D01*
X167814166Y-89011904D01*
X167861785Y-88821428D01*
X167861785Y-88583333D01*
X167814166Y-88392857D01*
X167766547Y-88297619D01*
X167718928Y-88250000D01*
X167623690Y-88202380D01*
X166909404Y-88297619D02*
X166861785Y-88250000D01*
X166766547Y-88202380D01*
X166528452Y-88202380D01*
X166433214Y-88250000D01*
X166385595Y-88297619D01*
X166337976Y-88392857D01*
X166337976Y-88488095D01*
X166385595Y-88630952D01*
X166957023Y-89202380D01*
X166337976Y-89202380D01*
X170802380Y-76404880D02*
X170326190Y-76071547D01*
X170802380Y-75833452D02*
X169802380Y-75833452D01*
X169802380Y-76214404D01*
X169850000Y-76309642D01*
X169897619Y-76357261D01*
X169992857Y-76404880D01*
X170135714Y-76404880D01*
X170230952Y-76357261D01*
X170278571Y-76309642D01*
X170326190Y-76214404D01*
X170326190Y-75833452D01*
X170802380Y-77357261D02*
X170802380Y-76785833D01*
X170802380Y-77071547D02*
X169802380Y-77071547D01*
X169945238Y-76976309D01*
X170040476Y-76881071D01*
X170088095Y-76785833D01*
X169802380Y-77976309D02*
X169802380Y-78071547D01*
X169850000Y-78166785D01*
X169897619Y-78214404D01*
X169992857Y-78262023D01*
X170183333Y-78309642D01*
X170421428Y-78309642D01*
X170611904Y-78262023D01*
X170707142Y-78214404D01*
X170754761Y-78166785D01*
X170802380Y-78071547D01*
X170802380Y-77976309D01*
X170754761Y-77881071D01*
X170707142Y-77833452D01*
X170611904Y-77785833D01*
X170421428Y-77738214D01*
X170183333Y-77738214D01*
X169992857Y-77785833D01*
X169897619Y-77833452D01*
X169850000Y-77881071D01*
X169802380Y-77976309D01*
X170802380Y-79262023D02*
X170802380Y-78690595D01*
X170802380Y-78976309D02*
X169802380Y-78976309D01*
X169945238Y-78881071D01*
X170040476Y-78785833D01*
X170088095Y-78690595D01*
X171302380Y-84057023D02*
X170826190Y-83723690D01*
X171302380Y-83485595D02*
X170302380Y-83485595D01*
X170302380Y-83866547D01*
X170350000Y-83961785D01*
X170397619Y-84009404D01*
X170492857Y-84057023D01*
X170635714Y-84057023D01*
X170730952Y-84009404D01*
X170778571Y-83961785D01*
X170826190Y-83866547D01*
X170826190Y-83485595D01*
X171302380Y-85009404D02*
X171302380Y-84437976D01*
X171302380Y-84723690D02*
X170302380Y-84723690D01*
X170445238Y-84628452D01*
X170540476Y-84533214D01*
X170588095Y-84437976D01*
X170302380Y-85628452D02*
X170302380Y-85723690D01*
X170350000Y-85818928D01*
X170397619Y-85866547D01*
X170492857Y-85914166D01*
X170683333Y-85961785D01*
X170921428Y-85961785D01*
X171111904Y-85914166D01*
X171207142Y-85866547D01*
X171254761Y-85818928D01*
X171302380Y-85723690D01*
X171302380Y-85628452D01*
X171254761Y-85533214D01*
X171207142Y-85485595D01*
X171111904Y-85437976D01*
X170921428Y-85390357D01*
X170683333Y-85390357D01*
X170492857Y-85437976D01*
X170397619Y-85485595D01*
X170350000Y-85533214D01*
X170302380Y-85628452D01*
X170302380Y-86295119D02*
X170302380Y-86914166D01*
X170683333Y-86580833D01*
X170683333Y-86723690D01*
X170730952Y-86818928D01*
X170778571Y-86866547D01*
X170873809Y-86914166D01*
X171111904Y-86914166D01*
X171207142Y-86866547D01*
X171254761Y-86818928D01*
X171302380Y-86723690D01*
X171302380Y-86437976D01*
X171254761Y-86342738D01*
X171207142Y-86295119D01*
X166752380Y-76557023D02*
X166276190Y-76223690D01*
X166752380Y-75985595D02*
X165752380Y-75985595D01*
X165752380Y-76366547D01*
X165800000Y-76461785D01*
X165847619Y-76509404D01*
X165942857Y-76557023D01*
X166085714Y-76557023D01*
X166180952Y-76509404D01*
X166228571Y-76461785D01*
X166276190Y-76366547D01*
X166276190Y-75985595D01*
X166752380Y-77509404D02*
X166752380Y-76937976D01*
X166752380Y-77223690D02*
X165752380Y-77223690D01*
X165895238Y-77128452D01*
X165990476Y-77033214D01*
X166038095Y-76937976D01*
X165752380Y-78128452D02*
X165752380Y-78223690D01*
X165800000Y-78318928D01*
X165847619Y-78366547D01*
X165942857Y-78414166D01*
X166133333Y-78461785D01*
X166371428Y-78461785D01*
X166561904Y-78414166D01*
X166657142Y-78366547D01*
X166704761Y-78318928D01*
X166752380Y-78223690D01*
X166752380Y-78128452D01*
X166704761Y-78033214D01*
X166657142Y-77985595D01*
X166561904Y-77937976D01*
X166371428Y-77890357D01*
X166133333Y-77890357D01*
X165942857Y-77937976D01*
X165847619Y-77985595D01*
X165800000Y-78033214D01*
X165752380Y-78128452D01*
X165847619Y-78842738D02*
X165800000Y-78890357D01*
X165752380Y-78985595D01*
X165752380Y-79223690D01*
X165800000Y-79318928D01*
X165847619Y-79366547D01*
X165942857Y-79414166D01*
X166038095Y-79414166D01*
X166180952Y-79366547D01*
X166752380Y-78795119D01*
X166752380Y-79414166D01*
X166702380Y-84054880D02*
X166226190Y-83721547D01*
X166702380Y-83483452D02*
X165702380Y-83483452D01*
X165702380Y-83864404D01*
X165750000Y-83959642D01*
X165797619Y-84007261D01*
X165892857Y-84054880D01*
X166035714Y-84054880D01*
X166130952Y-84007261D01*
X166178571Y-83959642D01*
X166226190Y-83864404D01*
X166226190Y-83483452D01*
X166702380Y-85007261D02*
X166702380Y-84435833D01*
X166702380Y-84721547D02*
X165702380Y-84721547D01*
X165845238Y-84626309D01*
X165940476Y-84531071D01*
X165988095Y-84435833D01*
X165702380Y-85626309D02*
X165702380Y-85721547D01*
X165750000Y-85816785D01*
X165797619Y-85864404D01*
X165892857Y-85912023D01*
X166083333Y-85959642D01*
X166321428Y-85959642D01*
X166511904Y-85912023D01*
X166607142Y-85864404D01*
X166654761Y-85816785D01*
X166702380Y-85721547D01*
X166702380Y-85626309D01*
X166654761Y-85531071D01*
X166607142Y-85483452D01*
X166511904Y-85435833D01*
X166321428Y-85388214D01*
X166083333Y-85388214D01*
X165892857Y-85435833D01*
X165797619Y-85483452D01*
X165750000Y-85531071D01*
X165702380Y-85626309D01*
X166035714Y-86816785D02*
X166702380Y-86816785D01*
X165654761Y-86578690D02*
X166369047Y-86340595D01*
X166369047Y-86959642D01*
X99364285Y-127347619D02*
X99364285Y-126633333D01*
X99316666Y-126490476D01*
X99221428Y-126395238D01*
X99078571Y-126347619D01*
X98983333Y-126347619D01*
X100364285Y-126347619D02*
X99792857Y-126347619D01*
X100078571Y-126347619D02*
X100078571Y-127347619D01*
X99983333Y-127204761D01*
X99888095Y-127109523D01*
X99792857Y-127061904D01*
X100983333Y-127347619D02*
X101078571Y-127347619D01*
X101173809Y-127300000D01*
X101221428Y-127252380D01*
X101269047Y-127157142D01*
X101316666Y-126966666D01*
X101316666Y-126728571D01*
X101269047Y-126538095D01*
X101221428Y-126442857D01*
X101173809Y-126395238D01*
X101078571Y-126347619D01*
X100983333Y-126347619D01*
X100888095Y-126395238D01*
X100840476Y-126442857D01*
X100792857Y-126538095D01*
X100745238Y-126728571D01*
X100745238Y-126966666D01*
X100792857Y-127157142D01*
X100840476Y-127252380D01*
X100888095Y-127300000D01*
X100983333Y-127347619D01*
X101697619Y-127252380D02*
X101745238Y-127300000D01*
X101840476Y-127347619D01*
X102078571Y-127347619D01*
X102173809Y-127300000D01*
X102221428Y-127252380D01*
X102269047Y-127157142D01*
X102269047Y-127061904D01*
X102221428Y-126919047D01*
X101650000Y-126347619D01*
X102269047Y-126347619D01*
X80519047Y-47302380D02*
X80852380Y-46826190D01*
X81090476Y-47302380D02*
X81090476Y-46302380D01*
X80709523Y-46302380D01*
X80614285Y-46350000D01*
X80566666Y-46397619D01*
X80519047Y-46492857D01*
X80519047Y-46635714D01*
X80566666Y-46730952D01*
X80614285Y-46778571D01*
X80709523Y-46826190D01*
X81090476Y-46826190D01*
X80138095Y-46397619D02*
X80090476Y-46350000D01*
X79995238Y-46302380D01*
X79757142Y-46302380D01*
X79661904Y-46350000D01*
X79614285Y-46397619D01*
X79566666Y-46492857D01*
X79566666Y-46588095D01*
X79614285Y-46730952D01*
X80185714Y-47302380D01*
X79566666Y-47302380D01*
X78947619Y-46302380D02*
X78852380Y-46302380D01*
X78757142Y-46350000D01*
X78709523Y-46397619D01*
X78661904Y-46492857D01*
X78614285Y-46683333D01*
X78614285Y-46921428D01*
X78661904Y-47111904D01*
X78709523Y-47207142D01*
X78757142Y-47254761D01*
X78852380Y-47302380D01*
X78947619Y-47302380D01*
X79042857Y-47254761D01*
X79090476Y-47207142D01*
X79138095Y-47111904D01*
X79185714Y-46921428D01*
X79185714Y-46683333D01*
X79138095Y-46492857D01*
X79090476Y-46397619D01*
X79042857Y-46350000D01*
X78947619Y-46302380D01*
X77661904Y-47302380D02*
X78233333Y-47302380D01*
X77947619Y-47302380D02*
X77947619Y-46302380D01*
X78042857Y-46445238D01*
X78138095Y-46540476D01*
X78233333Y-46588095D01*
X173297619Y-53269047D02*
X173773809Y-53602380D01*
X173297619Y-53840476D02*
X174297619Y-53840476D01*
X174297619Y-53459523D01*
X174250000Y-53364285D01*
X174202380Y-53316666D01*
X174107142Y-53269047D01*
X173964285Y-53269047D01*
X173869047Y-53316666D01*
X173821428Y-53364285D01*
X173773809Y-53459523D01*
X173773809Y-53840476D01*
X174297619Y-52935714D02*
X174297619Y-52316666D01*
X173916666Y-52650000D01*
X173916666Y-52507142D01*
X173869047Y-52411904D01*
X173821428Y-52364285D01*
X173726190Y-52316666D01*
X173488095Y-52316666D01*
X173392857Y-52364285D01*
X173345238Y-52411904D01*
X173297619Y-52507142D01*
X173297619Y-52792857D01*
X173345238Y-52888095D01*
X173392857Y-52935714D01*
X173297619Y-51364285D02*
X173297619Y-51935714D01*
X173297619Y-51650000D02*
X174297619Y-51650000D01*
X174154761Y-51745238D01*
X174059523Y-51840476D01*
X174011904Y-51935714D01*
X174297619Y-50745238D02*
X174297619Y-50650000D01*
X174250000Y-50554761D01*
X174202380Y-50507142D01*
X174107142Y-50459523D01*
X173916666Y-50411904D01*
X173678571Y-50411904D01*
X173488095Y-50459523D01*
X173392857Y-50507142D01*
X173345238Y-50554761D01*
X173297619Y-50650000D01*
X173297619Y-50745238D01*
X173345238Y-50840476D01*
X173392857Y-50888095D01*
X173488095Y-50935714D01*
X173678571Y-50983333D01*
X173916666Y-50983333D01*
X174107142Y-50935714D01*
X174202380Y-50888095D01*
X174250000Y-50840476D01*
X174297619Y-50745238D01*
X155602380Y-51590952D02*
X155126190Y-51257619D01*
X155602380Y-51019523D02*
X154602380Y-51019523D01*
X154602380Y-51400476D01*
X154650000Y-51495714D01*
X154697619Y-51543333D01*
X154792857Y-51590952D01*
X154935714Y-51590952D01*
X155030952Y-51543333D01*
X155078571Y-51495714D01*
X155126190Y-51400476D01*
X155126190Y-51019523D01*
X154602380Y-51924285D02*
X154602380Y-52543333D01*
X154983333Y-52210000D01*
X154983333Y-52352857D01*
X155030952Y-52448095D01*
X155078571Y-52495714D01*
X155173809Y-52543333D01*
X155411904Y-52543333D01*
X155507142Y-52495714D01*
X155554761Y-52448095D01*
X155602380Y-52352857D01*
X155602380Y-52067142D01*
X155554761Y-51971904D01*
X155507142Y-51924285D01*
X155602380Y-53495714D02*
X155602380Y-52924285D01*
X155602380Y-53210000D02*
X154602380Y-53210000D01*
X154745238Y-53114761D01*
X154840476Y-53019523D01*
X154888095Y-52924285D01*
X155602380Y-54448095D02*
X155602380Y-53876666D01*
X155602380Y-54162380D02*
X154602380Y-54162380D01*
X154745238Y-54067142D01*
X154840476Y-53971904D01*
X154888095Y-53876666D01*
X168102380Y-51030952D02*
X167626190Y-50697619D01*
X168102380Y-50459523D02*
X167102380Y-50459523D01*
X167102380Y-50840476D01*
X167150000Y-50935714D01*
X167197619Y-50983333D01*
X167292857Y-51030952D01*
X167435714Y-51030952D01*
X167530952Y-50983333D01*
X167578571Y-50935714D01*
X167626190Y-50840476D01*
X167626190Y-50459523D01*
X167102380Y-51364285D02*
X167102380Y-51983333D01*
X167483333Y-51650000D01*
X167483333Y-51792857D01*
X167530952Y-51888095D01*
X167578571Y-51935714D01*
X167673809Y-51983333D01*
X167911904Y-51983333D01*
X168007142Y-51935714D01*
X168054761Y-51888095D01*
X168102380Y-51792857D01*
X168102380Y-51507142D01*
X168054761Y-51411904D01*
X168007142Y-51364285D01*
X168102380Y-52935714D02*
X168102380Y-52364285D01*
X168102380Y-52650000D02*
X167102380Y-52650000D01*
X167245238Y-52554761D01*
X167340476Y-52459523D01*
X167388095Y-52364285D01*
X167197619Y-53316666D02*
X167150000Y-53364285D01*
X167102380Y-53459523D01*
X167102380Y-53697619D01*
X167150000Y-53792857D01*
X167197619Y-53840476D01*
X167292857Y-53888095D01*
X167388095Y-53888095D01*
X167530952Y-53840476D01*
X168102380Y-53269047D01*
X168102380Y-53888095D01*
M02*
