G04 #@! TF.GenerationSoftware,KiCad,Pcbnew,(5.1.5)-3*
G04 #@! TF.CreationDate,2020-04-11T01:13:50-04:00*
G04 #@! TF.ProjectId,CPU,4350552e-6b69-4636-9164-5f7063625858,rev?*
G04 #@! TF.SameCoordinates,Original*
G04 #@! TF.FileFunction,Profile,NP*
%FSLAX46Y46*%
G04 Gerber Fmt 4.6, Leading zero omitted, Abs format (unit mm)*
G04 Created by KiCad (PCBNEW (5.1.5)-3) date 2020-04-11 01:13:50*
%MOMM*%
%LPD*%
G04 APERTURE LIST*
%ADD10C,0.050000*%
%ADD11C,0.200000*%
G04 APERTURE END LIST*
D10*
X87047327Y-130809994D02*
X89414221Y-130809994D01*
X87625303Y-45547520D02*
X89414221Y-45547520D01*
X49500000Y-111500000D02*
X47500000Y-111500000D01*
X49500000Y-58000000D02*
X49500000Y-111500000D01*
X47500000Y-58000000D02*
X49500000Y-58000000D01*
X47500000Y-111500000D02*
X47500000Y-58000000D01*
D11*
X30400000Y-125630356D02*
X30400000Y-50727572D01*
X167068435Y-130809999D02*
X141296401Y-130809999D01*
X130967859Y-130809994D02*
X130967859Y-130308609D01*
X35580051Y-45547520D02*
X45227268Y-45547520D01*
X182414221Y-130809999D02*
X172483621Y-130809999D01*
X30400000Y-125630356D02*
X35579642Y-130810000D01*
X52222127Y-123857989D02*
G75*
G02X46875689Y-123857989I-2673219J0D01*
G01*
X52222127Y-123155610D02*
X52222127Y-123857989D01*
X130967859Y-130308609D02*
X135881154Y-130308609D01*
X35580051Y-45547520D02*
X30400000Y-50727572D01*
X46875689Y-123857989D02*
X46875689Y-123155610D01*
X187414208Y-50547542D02*
X187414208Y-82978380D01*
X46875689Y-123155610D02*
G75*
G02X52222127Y-123155610I2673219J0D01*
G01*
X50642231Y-45547520D02*
X50642231Y-46047520D01*
X135881155Y-129307219D02*
G75*
G02X141296401Y-129309999I2707623J-1390D01*
G01*
X102887468Y-46047520D02*
G75*
G02X97472506Y-46047520I-2707481J0D01*
G01*
X97472506Y-45547520D02*
X97472506Y-46047520D01*
X50642232Y-46047520D02*
G75*
G02X45227268Y-46047520I-2707482J0D01*
G01*
X168273204Y-45547542D02*
X182414208Y-45547542D01*
X135881154Y-130308609D02*
X135881154Y-129308609D01*
X141296401Y-130809999D02*
X141296401Y-129309999D01*
X172483621Y-130809999D02*
X172483621Y-129309999D01*
X167068435Y-130809999D02*
X167068435Y-129309999D01*
X187414221Y-125809999D02*
G75*
G02X182414221Y-130809999I-5000000J0D01*
G01*
X102887469Y-45547520D02*
X102887469Y-46047520D01*
X141173267Y-45547458D02*
X156069477Y-45547458D01*
X50642231Y-45547520D02*
X78098980Y-45547520D01*
X35579642Y-130810000D02*
X77691474Y-130809996D01*
D10*
X130967859Y-130809994D02*
X89414221Y-130809994D01*
D11*
X187414221Y-92755395D02*
X187414221Y-125809999D01*
X102887469Y-45547520D02*
X131546669Y-45547520D01*
X187414208Y-82978380D02*
X181397688Y-82978380D01*
D10*
X89414221Y-45547520D02*
X97472506Y-45547520D01*
D11*
X167068435Y-129309999D02*
G75*
G02X172483621Y-129309999I2707593J0D01*
G01*
X182414208Y-45547543D02*
G75*
G02X187414207Y-50547542I0J-4999999D01*
G01*
X45227268Y-45547520D02*
X45227268Y-46047520D01*
D10*
X87047327Y-130308609D02*
X87047327Y-130809994D01*
D11*
X141173267Y-46048843D02*
X141173267Y-45547458D01*
X43003529Y-125498000D02*
G75*
G03X43003529Y-125498000I-1228529J0D01*
G01*
D10*
X77691474Y-130308609D02*
X87047327Y-130308609D01*
D11*
X185472528Y-68816000D02*
G75*
G03X185472528Y-68816000I-1228528J0D01*
G01*
X77691474Y-130809996D02*
X77691474Y-130308609D01*
X168273204Y-46547458D02*
X168273204Y-45547542D01*
X156069477Y-46547458D02*
X168273204Y-46547458D01*
D10*
X78098980Y-46048844D02*
X87625303Y-46048844D01*
D11*
X156069477Y-45547458D02*
X156069477Y-46547458D01*
X131546669Y-46048844D02*
X141173267Y-46048843D01*
X131546669Y-45547520D02*
X131546669Y-46048844D01*
D10*
X87625303Y-46048844D02*
X87625303Y-45547520D01*
D11*
X181397688Y-92755395D02*
X187414221Y-92755395D01*
X181397688Y-82978380D02*
X181397688Y-92755395D01*
X78098980Y-45547520D02*
X78098980Y-46048844D01*
X172488263Y-65921000D02*
G75*
G03X172488263Y-65921000I-2837263J0D01*
G01*
X40470529Y-47628000D02*
G75*
G03X40470529Y-47628000I-1228529J0D01*
G01*
X183917529Y-73551000D02*
G75*
G03X183917529Y-73551000I-1228529J0D01*
G01*
X38453529Y-125498000D02*
G75*
G03X38453529Y-125498000I-1228529J0D01*
G01*
X184057529Y-78370000D02*
G75*
G03X184057529Y-78370000I-1228529J0D01*
G01*
X50763529Y-128339000D02*
G75*
G03X50763529Y-128339000I-1228529J0D01*
G01*
M02*
