G04 #@! TF.GenerationSoftware,KiCad,Pcbnew,(5.1.5)-3*
G04 #@! TF.CreationDate,2020-04-11T01:13:50-04:00*
G04 #@! TF.ProjectId,CPU,4350552e-6b69-4636-9164-5f7063625858,rev?*
G04 #@! TF.SameCoordinates,Original*
G04 #@! TF.FileFunction,Paste,Bot*
G04 #@! TF.FilePolarity,Positive*
%FSLAX46Y46*%
G04 Gerber Fmt 4.6, Leading zero omitted, Abs format (unit mm)*
G04 Created by KiCad (PCBNEW (5.1.5)-3) date 2020-04-11 01:13:50*
%MOMM*%
%LPD*%
G04 APERTURE LIST*
%ADD10R,1.500000X0.600000*%
%ADD11C,0.100000*%
%ADD12R,2.700000X1.600000*%
%ADD13R,0.800000X0.800000*%
%ADD14R,1.100000X2.000000*%
%ADD15R,1.600000X1.803000*%
%ADD16R,1.803000X1.600000*%
%ADD17R,0.600000X1.400000*%
%ADD18R,1.000000X1.400000*%
%ADD19R,0.558800X1.270000*%
%ADD20R,1.270000X0.558800*%
%ADD21R,1.000000X2.580000*%
%ADD22R,1.524000X3.048000*%
G04 APERTURE END LIST*
D10*
X179300000Y-73260000D03*
X179300000Y-71990000D03*
X179300000Y-70720000D03*
X179300000Y-69450000D03*
X179300000Y-68180000D03*
X179300000Y-66910000D03*
X179300000Y-65640000D03*
X173900000Y-65640000D03*
X173900000Y-66910000D03*
X173900000Y-68180000D03*
X173900000Y-69450000D03*
X173900000Y-70720000D03*
X173900000Y-71990000D03*
X173900000Y-73260000D03*
D11*
G36*
X181074505Y-75201204D02*
G01*
X181098773Y-75204804D01*
X181122572Y-75210765D01*
X181145671Y-75219030D01*
X181167850Y-75229520D01*
X181188893Y-75242132D01*
X181208599Y-75256747D01*
X181226777Y-75273223D01*
X181243253Y-75291401D01*
X181257868Y-75311107D01*
X181270480Y-75332150D01*
X181280970Y-75354329D01*
X181289235Y-75377428D01*
X181295196Y-75401227D01*
X181298796Y-75425495D01*
X181300000Y-75449999D01*
X181300000Y-76350001D01*
X181298796Y-76374505D01*
X181295196Y-76398773D01*
X181289235Y-76422572D01*
X181280970Y-76445671D01*
X181270480Y-76467850D01*
X181257868Y-76488893D01*
X181243253Y-76508599D01*
X181226777Y-76526777D01*
X181208599Y-76543253D01*
X181188893Y-76557868D01*
X181167850Y-76570480D01*
X181145671Y-76580970D01*
X181122572Y-76589235D01*
X181098773Y-76595196D01*
X181074505Y-76598796D01*
X181050001Y-76600000D01*
X180399999Y-76600000D01*
X180375495Y-76598796D01*
X180351227Y-76595196D01*
X180327428Y-76589235D01*
X180304329Y-76580970D01*
X180282150Y-76570480D01*
X180261107Y-76557868D01*
X180241401Y-76543253D01*
X180223223Y-76526777D01*
X180206747Y-76508599D01*
X180192132Y-76488893D01*
X180179520Y-76467850D01*
X180169030Y-76445671D01*
X180160765Y-76422572D01*
X180154804Y-76398773D01*
X180151204Y-76374505D01*
X180150000Y-76350001D01*
X180150000Y-75449999D01*
X180151204Y-75425495D01*
X180154804Y-75401227D01*
X180160765Y-75377428D01*
X180169030Y-75354329D01*
X180179520Y-75332150D01*
X180192132Y-75311107D01*
X180206747Y-75291401D01*
X180223223Y-75273223D01*
X180241401Y-75256747D01*
X180261107Y-75242132D01*
X180282150Y-75229520D01*
X180304329Y-75219030D01*
X180327428Y-75210765D01*
X180351227Y-75204804D01*
X180375495Y-75201204D01*
X180399999Y-75200000D01*
X181050001Y-75200000D01*
X181074505Y-75201204D01*
G37*
G36*
X183124505Y-75201204D02*
G01*
X183148773Y-75204804D01*
X183172572Y-75210765D01*
X183195671Y-75219030D01*
X183217850Y-75229520D01*
X183238893Y-75242132D01*
X183258599Y-75256747D01*
X183276777Y-75273223D01*
X183293253Y-75291401D01*
X183307868Y-75311107D01*
X183320480Y-75332150D01*
X183330970Y-75354329D01*
X183339235Y-75377428D01*
X183345196Y-75401227D01*
X183348796Y-75425495D01*
X183350000Y-75449999D01*
X183350000Y-76350001D01*
X183348796Y-76374505D01*
X183345196Y-76398773D01*
X183339235Y-76422572D01*
X183330970Y-76445671D01*
X183320480Y-76467850D01*
X183307868Y-76488893D01*
X183293253Y-76508599D01*
X183276777Y-76526777D01*
X183258599Y-76543253D01*
X183238893Y-76557868D01*
X183217850Y-76570480D01*
X183195671Y-76580970D01*
X183172572Y-76589235D01*
X183148773Y-76595196D01*
X183124505Y-76598796D01*
X183100001Y-76600000D01*
X182449999Y-76600000D01*
X182425495Y-76598796D01*
X182401227Y-76595196D01*
X182377428Y-76589235D01*
X182354329Y-76580970D01*
X182332150Y-76570480D01*
X182311107Y-76557868D01*
X182291401Y-76543253D01*
X182273223Y-76526777D01*
X182256747Y-76508599D01*
X182242132Y-76488893D01*
X182229520Y-76467850D01*
X182219030Y-76445671D01*
X182210765Y-76422572D01*
X182204804Y-76398773D01*
X182201204Y-76374505D01*
X182200000Y-76350001D01*
X182200000Y-75449999D01*
X182201204Y-75425495D01*
X182204804Y-75401227D01*
X182210765Y-75377428D01*
X182219030Y-75354329D01*
X182229520Y-75332150D01*
X182242132Y-75311107D01*
X182256747Y-75291401D01*
X182273223Y-75273223D01*
X182291401Y-75256747D01*
X182311107Y-75242132D01*
X182332150Y-75229520D01*
X182354329Y-75219030D01*
X182377428Y-75210765D01*
X182401227Y-75204804D01*
X182425495Y-75201204D01*
X182449999Y-75200000D01*
X183100001Y-75200000D01*
X183124505Y-75201204D01*
G37*
G36*
X179274505Y-79201204D02*
G01*
X179298773Y-79204804D01*
X179322572Y-79210765D01*
X179345671Y-79219030D01*
X179367850Y-79229520D01*
X179388893Y-79242132D01*
X179408599Y-79256747D01*
X179426777Y-79273223D01*
X179443253Y-79291401D01*
X179457868Y-79311107D01*
X179470480Y-79332150D01*
X179480970Y-79354329D01*
X179489235Y-79377428D01*
X179495196Y-79401227D01*
X179498796Y-79425495D01*
X179500000Y-79449999D01*
X179500000Y-80100001D01*
X179498796Y-80124505D01*
X179495196Y-80148773D01*
X179489235Y-80172572D01*
X179480970Y-80195671D01*
X179470480Y-80217850D01*
X179457868Y-80238893D01*
X179443253Y-80258599D01*
X179426777Y-80276777D01*
X179408599Y-80293253D01*
X179388893Y-80307868D01*
X179367850Y-80320480D01*
X179345671Y-80330970D01*
X179322572Y-80339235D01*
X179298773Y-80345196D01*
X179274505Y-80348796D01*
X179250001Y-80350000D01*
X178349999Y-80350000D01*
X178325495Y-80348796D01*
X178301227Y-80345196D01*
X178277428Y-80339235D01*
X178254329Y-80330970D01*
X178232150Y-80320480D01*
X178211107Y-80307868D01*
X178191401Y-80293253D01*
X178173223Y-80276777D01*
X178156747Y-80258599D01*
X178142132Y-80238893D01*
X178129520Y-80217850D01*
X178119030Y-80195671D01*
X178110765Y-80172572D01*
X178104804Y-80148773D01*
X178101204Y-80124505D01*
X178100000Y-80100001D01*
X178100000Y-79449999D01*
X178101204Y-79425495D01*
X178104804Y-79401227D01*
X178110765Y-79377428D01*
X178119030Y-79354329D01*
X178129520Y-79332150D01*
X178142132Y-79311107D01*
X178156747Y-79291401D01*
X178173223Y-79273223D01*
X178191401Y-79256747D01*
X178211107Y-79242132D01*
X178232150Y-79229520D01*
X178254329Y-79219030D01*
X178277428Y-79210765D01*
X178301227Y-79204804D01*
X178325495Y-79201204D01*
X178349999Y-79200000D01*
X179250001Y-79200000D01*
X179274505Y-79201204D01*
G37*
G36*
X179274505Y-77151204D02*
G01*
X179298773Y-77154804D01*
X179322572Y-77160765D01*
X179345671Y-77169030D01*
X179367850Y-77179520D01*
X179388893Y-77192132D01*
X179408599Y-77206747D01*
X179426777Y-77223223D01*
X179443253Y-77241401D01*
X179457868Y-77261107D01*
X179470480Y-77282150D01*
X179480970Y-77304329D01*
X179489235Y-77327428D01*
X179495196Y-77351227D01*
X179498796Y-77375495D01*
X179500000Y-77399999D01*
X179500000Y-78050001D01*
X179498796Y-78074505D01*
X179495196Y-78098773D01*
X179489235Y-78122572D01*
X179480970Y-78145671D01*
X179470480Y-78167850D01*
X179457868Y-78188893D01*
X179443253Y-78208599D01*
X179426777Y-78226777D01*
X179408599Y-78243253D01*
X179388893Y-78257868D01*
X179367850Y-78270480D01*
X179345671Y-78280970D01*
X179322572Y-78289235D01*
X179298773Y-78295196D01*
X179274505Y-78298796D01*
X179250001Y-78300000D01*
X178349999Y-78300000D01*
X178325495Y-78298796D01*
X178301227Y-78295196D01*
X178277428Y-78289235D01*
X178254329Y-78280970D01*
X178232150Y-78270480D01*
X178211107Y-78257868D01*
X178191401Y-78243253D01*
X178173223Y-78226777D01*
X178156747Y-78208599D01*
X178142132Y-78188893D01*
X178129520Y-78167850D01*
X178119030Y-78145671D01*
X178110765Y-78122572D01*
X178104804Y-78098773D01*
X178101204Y-78074505D01*
X178100000Y-78050001D01*
X178100000Y-77399999D01*
X178101204Y-77375495D01*
X178104804Y-77351227D01*
X178110765Y-77327428D01*
X178119030Y-77304329D01*
X178129520Y-77282150D01*
X178142132Y-77261107D01*
X178156747Y-77241401D01*
X178173223Y-77223223D01*
X178191401Y-77206747D01*
X178211107Y-77192132D01*
X178232150Y-77179520D01*
X178254329Y-77169030D01*
X178277428Y-77160765D01*
X178301227Y-77154804D01*
X178325495Y-77151204D01*
X178349999Y-77150000D01*
X179250001Y-77150000D01*
X179274505Y-77151204D01*
G37*
G36*
X177274505Y-79201204D02*
G01*
X177298773Y-79204804D01*
X177322572Y-79210765D01*
X177345671Y-79219030D01*
X177367850Y-79229520D01*
X177388893Y-79242132D01*
X177408599Y-79256747D01*
X177426777Y-79273223D01*
X177443253Y-79291401D01*
X177457868Y-79311107D01*
X177470480Y-79332150D01*
X177480970Y-79354329D01*
X177489235Y-79377428D01*
X177495196Y-79401227D01*
X177498796Y-79425495D01*
X177500000Y-79449999D01*
X177500000Y-80100001D01*
X177498796Y-80124505D01*
X177495196Y-80148773D01*
X177489235Y-80172572D01*
X177480970Y-80195671D01*
X177470480Y-80217850D01*
X177457868Y-80238893D01*
X177443253Y-80258599D01*
X177426777Y-80276777D01*
X177408599Y-80293253D01*
X177388893Y-80307868D01*
X177367850Y-80320480D01*
X177345671Y-80330970D01*
X177322572Y-80339235D01*
X177298773Y-80345196D01*
X177274505Y-80348796D01*
X177250001Y-80350000D01*
X176349999Y-80350000D01*
X176325495Y-80348796D01*
X176301227Y-80345196D01*
X176277428Y-80339235D01*
X176254329Y-80330970D01*
X176232150Y-80320480D01*
X176211107Y-80307868D01*
X176191401Y-80293253D01*
X176173223Y-80276777D01*
X176156747Y-80258599D01*
X176142132Y-80238893D01*
X176129520Y-80217850D01*
X176119030Y-80195671D01*
X176110765Y-80172572D01*
X176104804Y-80148773D01*
X176101204Y-80124505D01*
X176100000Y-80100001D01*
X176100000Y-79449999D01*
X176101204Y-79425495D01*
X176104804Y-79401227D01*
X176110765Y-79377428D01*
X176119030Y-79354329D01*
X176129520Y-79332150D01*
X176142132Y-79311107D01*
X176156747Y-79291401D01*
X176173223Y-79273223D01*
X176191401Y-79256747D01*
X176211107Y-79242132D01*
X176232150Y-79229520D01*
X176254329Y-79219030D01*
X176277428Y-79210765D01*
X176301227Y-79204804D01*
X176325495Y-79201204D01*
X176349999Y-79200000D01*
X177250001Y-79200000D01*
X177274505Y-79201204D01*
G37*
G36*
X177274505Y-77151204D02*
G01*
X177298773Y-77154804D01*
X177322572Y-77160765D01*
X177345671Y-77169030D01*
X177367850Y-77179520D01*
X177388893Y-77192132D01*
X177408599Y-77206747D01*
X177426777Y-77223223D01*
X177443253Y-77241401D01*
X177457868Y-77261107D01*
X177470480Y-77282150D01*
X177480970Y-77304329D01*
X177489235Y-77327428D01*
X177495196Y-77351227D01*
X177498796Y-77375495D01*
X177500000Y-77399999D01*
X177500000Y-78050001D01*
X177498796Y-78074505D01*
X177495196Y-78098773D01*
X177489235Y-78122572D01*
X177480970Y-78145671D01*
X177470480Y-78167850D01*
X177457868Y-78188893D01*
X177443253Y-78208599D01*
X177426777Y-78226777D01*
X177408599Y-78243253D01*
X177388893Y-78257868D01*
X177367850Y-78270480D01*
X177345671Y-78280970D01*
X177322572Y-78289235D01*
X177298773Y-78295196D01*
X177274505Y-78298796D01*
X177250001Y-78300000D01*
X176349999Y-78300000D01*
X176325495Y-78298796D01*
X176301227Y-78295196D01*
X176277428Y-78289235D01*
X176254329Y-78280970D01*
X176232150Y-78270480D01*
X176211107Y-78257868D01*
X176191401Y-78243253D01*
X176173223Y-78226777D01*
X176156747Y-78208599D01*
X176142132Y-78188893D01*
X176129520Y-78167850D01*
X176119030Y-78145671D01*
X176110765Y-78122572D01*
X176104804Y-78098773D01*
X176101204Y-78074505D01*
X176100000Y-78050001D01*
X176100000Y-77399999D01*
X176101204Y-77375495D01*
X176104804Y-77351227D01*
X176110765Y-77327428D01*
X176119030Y-77304329D01*
X176129520Y-77282150D01*
X176142132Y-77261107D01*
X176156747Y-77241401D01*
X176173223Y-77223223D01*
X176191401Y-77206747D01*
X176211107Y-77192132D01*
X176232150Y-77179520D01*
X176254329Y-77169030D01*
X176277428Y-77160765D01*
X176301227Y-77154804D01*
X176325495Y-77151204D01*
X176349999Y-77150000D01*
X177250001Y-77150000D01*
X177274505Y-77151204D01*
G37*
G36*
X175274505Y-79201204D02*
G01*
X175298773Y-79204804D01*
X175322572Y-79210765D01*
X175345671Y-79219030D01*
X175367850Y-79229520D01*
X175388893Y-79242132D01*
X175408599Y-79256747D01*
X175426777Y-79273223D01*
X175443253Y-79291401D01*
X175457868Y-79311107D01*
X175470480Y-79332150D01*
X175480970Y-79354329D01*
X175489235Y-79377428D01*
X175495196Y-79401227D01*
X175498796Y-79425495D01*
X175500000Y-79449999D01*
X175500000Y-80100001D01*
X175498796Y-80124505D01*
X175495196Y-80148773D01*
X175489235Y-80172572D01*
X175480970Y-80195671D01*
X175470480Y-80217850D01*
X175457868Y-80238893D01*
X175443253Y-80258599D01*
X175426777Y-80276777D01*
X175408599Y-80293253D01*
X175388893Y-80307868D01*
X175367850Y-80320480D01*
X175345671Y-80330970D01*
X175322572Y-80339235D01*
X175298773Y-80345196D01*
X175274505Y-80348796D01*
X175250001Y-80350000D01*
X174349999Y-80350000D01*
X174325495Y-80348796D01*
X174301227Y-80345196D01*
X174277428Y-80339235D01*
X174254329Y-80330970D01*
X174232150Y-80320480D01*
X174211107Y-80307868D01*
X174191401Y-80293253D01*
X174173223Y-80276777D01*
X174156747Y-80258599D01*
X174142132Y-80238893D01*
X174129520Y-80217850D01*
X174119030Y-80195671D01*
X174110765Y-80172572D01*
X174104804Y-80148773D01*
X174101204Y-80124505D01*
X174100000Y-80100001D01*
X174100000Y-79449999D01*
X174101204Y-79425495D01*
X174104804Y-79401227D01*
X174110765Y-79377428D01*
X174119030Y-79354329D01*
X174129520Y-79332150D01*
X174142132Y-79311107D01*
X174156747Y-79291401D01*
X174173223Y-79273223D01*
X174191401Y-79256747D01*
X174211107Y-79242132D01*
X174232150Y-79229520D01*
X174254329Y-79219030D01*
X174277428Y-79210765D01*
X174301227Y-79204804D01*
X174325495Y-79201204D01*
X174349999Y-79200000D01*
X175250001Y-79200000D01*
X175274505Y-79201204D01*
G37*
G36*
X175274505Y-77151204D02*
G01*
X175298773Y-77154804D01*
X175322572Y-77160765D01*
X175345671Y-77169030D01*
X175367850Y-77179520D01*
X175388893Y-77192132D01*
X175408599Y-77206747D01*
X175426777Y-77223223D01*
X175443253Y-77241401D01*
X175457868Y-77261107D01*
X175470480Y-77282150D01*
X175480970Y-77304329D01*
X175489235Y-77327428D01*
X175495196Y-77351227D01*
X175498796Y-77375495D01*
X175500000Y-77399999D01*
X175500000Y-78050001D01*
X175498796Y-78074505D01*
X175495196Y-78098773D01*
X175489235Y-78122572D01*
X175480970Y-78145671D01*
X175470480Y-78167850D01*
X175457868Y-78188893D01*
X175443253Y-78208599D01*
X175426777Y-78226777D01*
X175408599Y-78243253D01*
X175388893Y-78257868D01*
X175367850Y-78270480D01*
X175345671Y-78280970D01*
X175322572Y-78289235D01*
X175298773Y-78295196D01*
X175274505Y-78298796D01*
X175250001Y-78300000D01*
X174349999Y-78300000D01*
X174325495Y-78298796D01*
X174301227Y-78295196D01*
X174277428Y-78289235D01*
X174254329Y-78280970D01*
X174232150Y-78270480D01*
X174211107Y-78257868D01*
X174191401Y-78243253D01*
X174173223Y-78226777D01*
X174156747Y-78208599D01*
X174142132Y-78188893D01*
X174129520Y-78167850D01*
X174119030Y-78145671D01*
X174110765Y-78122572D01*
X174104804Y-78098773D01*
X174101204Y-78074505D01*
X174100000Y-78050001D01*
X174100000Y-77399999D01*
X174101204Y-77375495D01*
X174104804Y-77351227D01*
X174110765Y-77327428D01*
X174119030Y-77304329D01*
X174129520Y-77282150D01*
X174142132Y-77261107D01*
X174156747Y-77241401D01*
X174173223Y-77223223D01*
X174191401Y-77206747D01*
X174211107Y-77192132D01*
X174232150Y-77179520D01*
X174254329Y-77169030D01*
X174277428Y-77160765D01*
X174301227Y-77154804D01*
X174325495Y-77151204D01*
X174349999Y-77150000D01*
X175250001Y-77150000D01*
X175274505Y-77151204D01*
G37*
G36*
X167624505Y-72701204D02*
G01*
X167648773Y-72704804D01*
X167672572Y-72710765D01*
X167695671Y-72719030D01*
X167717850Y-72729520D01*
X167738893Y-72742132D01*
X167758599Y-72756747D01*
X167776777Y-72773223D01*
X167793253Y-72791401D01*
X167807868Y-72811107D01*
X167820480Y-72832150D01*
X167830970Y-72854329D01*
X167839235Y-72877428D01*
X167845196Y-72901227D01*
X167848796Y-72925495D01*
X167850000Y-72949999D01*
X167850000Y-73600001D01*
X167848796Y-73624505D01*
X167845196Y-73648773D01*
X167839235Y-73672572D01*
X167830970Y-73695671D01*
X167820480Y-73717850D01*
X167807868Y-73738893D01*
X167793253Y-73758599D01*
X167776777Y-73776777D01*
X167758599Y-73793253D01*
X167738893Y-73807868D01*
X167717850Y-73820480D01*
X167695671Y-73830970D01*
X167672572Y-73839235D01*
X167648773Y-73845196D01*
X167624505Y-73848796D01*
X167600001Y-73850000D01*
X166699999Y-73850000D01*
X166675495Y-73848796D01*
X166651227Y-73845196D01*
X166627428Y-73839235D01*
X166604329Y-73830970D01*
X166582150Y-73820480D01*
X166561107Y-73807868D01*
X166541401Y-73793253D01*
X166523223Y-73776777D01*
X166506747Y-73758599D01*
X166492132Y-73738893D01*
X166479520Y-73717850D01*
X166469030Y-73695671D01*
X166460765Y-73672572D01*
X166454804Y-73648773D01*
X166451204Y-73624505D01*
X166450000Y-73600001D01*
X166450000Y-72949999D01*
X166451204Y-72925495D01*
X166454804Y-72901227D01*
X166460765Y-72877428D01*
X166469030Y-72854329D01*
X166479520Y-72832150D01*
X166492132Y-72811107D01*
X166506747Y-72791401D01*
X166523223Y-72773223D01*
X166541401Y-72756747D01*
X166561107Y-72742132D01*
X166582150Y-72729520D01*
X166604329Y-72719030D01*
X166627428Y-72710765D01*
X166651227Y-72704804D01*
X166675495Y-72701204D01*
X166699999Y-72700000D01*
X167600001Y-72700000D01*
X167624505Y-72701204D01*
G37*
G36*
X167624505Y-70651204D02*
G01*
X167648773Y-70654804D01*
X167672572Y-70660765D01*
X167695671Y-70669030D01*
X167717850Y-70679520D01*
X167738893Y-70692132D01*
X167758599Y-70706747D01*
X167776777Y-70723223D01*
X167793253Y-70741401D01*
X167807868Y-70761107D01*
X167820480Y-70782150D01*
X167830970Y-70804329D01*
X167839235Y-70827428D01*
X167845196Y-70851227D01*
X167848796Y-70875495D01*
X167850000Y-70899999D01*
X167850000Y-71550001D01*
X167848796Y-71574505D01*
X167845196Y-71598773D01*
X167839235Y-71622572D01*
X167830970Y-71645671D01*
X167820480Y-71667850D01*
X167807868Y-71688893D01*
X167793253Y-71708599D01*
X167776777Y-71726777D01*
X167758599Y-71743253D01*
X167738893Y-71757868D01*
X167717850Y-71770480D01*
X167695671Y-71780970D01*
X167672572Y-71789235D01*
X167648773Y-71795196D01*
X167624505Y-71798796D01*
X167600001Y-71800000D01*
X166699999Y-71800000D01*
X166675495Y-71798796D01*
X166651227Y-71795196D01*
X166627428Y-71789235D01*
X166604329Y-71780970D01*
X166582150Y-71770480D01*
X166561107Y-71757868D01*
X166541401Y-71743253D01*
X166523223Y-71726777D01*
X166506747Y-71708599D01*
X166492132Y-71688893D01*
X166479520Y-71667850D01*
X166469030Y-71645671D01*
X166460765Y-71622572D01*
X166454804Y-71598773D01*
X166451204Y-71574505D01*
X166450000Y-71550001D01*
X166450000Y-70899999D01*
X166451204Y-70875495D01*
X166454804Y-70851227D01*
X166460765Y-70827428D01*
X166469030Y-70804329D01*
X166479520Y-70782150D01*
X166492132Y-70761107D01*
X166506747Y-70741401D01*
X166523223Y-70723223D01*
X166541401Y-70706747D01*
X166561107Y-70692132D01*
X166582150Y-70679520D01*
X166604329Y-70669030D01*
X166627428Y-70660765D01*
X166651227Y-70654804D01*
X166675495Y-70651204D01*
X166699999Y-70650000D01*
X167600001Y-70650000D01*
X167624505Y-70651204D01*
G37*
G36*
X169774505Y-72651204D02*
G01*
X169798773Y-72654804D01*
X169822572Y-72660765D01*
X169845671Y-72669030D01*
X169867850Y-72679520D01*
X169888893Y-72692132D01*
X169908599Y-72706747D01*
X169926777Y-72723223D01*
X169943253Y-72741401D01*
X169957868Y-72761107D01*
X169970480Y-72782150D01*
X169980970Y-72804329D01*
X169989235Y-72827428D01*
X169995196Y-72851227D01*
X169998796Y-72875495D01*
X170000000Y-72899999D01*
X170000000Y-73550001D01*
X169998796Y-73574505D01*
X169995196Y-73598773D01*
X169989235Y-73622572D01*
X169980970Y-73645671D01*
X169970480Y-73667850D01*
X169957868Y-73688893D01*
X169943253Y-73708599D01*
X169926777Y-73726777D01*
X169908599Y-73743253D01*
X169888893Y-73757868D01*
X169867850Y-73770480D01*
X169845671Y-73780970D01*
X169822572Y-73789235D01*
X169798773Y-73795196D01*
X169774505Y-73798796D01*
X169750001Y-73800000D01*
X168849999Y-73800000D01*
X168825495Y-73798796D01*
X168801227Y-73795196D01*
X168777428Y-73789235D01*
X168754329Y-73780970D01*
X168732150Y-73770480D01*
X168711107Y-73757868D01*
X168691401Y-73743253D01*
X168673223Y-73726777D01*
X168656747Y-73708599D01*
X168642132Y-73688893D01*
X168629520Y-73667850D01*
X168619030Y-73645671D01*
X168610765Y-73622572D01*
X168604804Y-73598773D01*
X168601204Y-73574505D01*
X168600000Y-73550001D01*
X168600000Y-72899999D01*
X168601204Y-72875495D01*
X168604804Y-72851227D01*
X168610765Y-72827428D01*
X168619030Y-72804329D01*
X168629520Y-72782150D01*
X168642132Y-72761107D01*
X168656747Y-72741401D01*
X168673223Y-72723223D01*
X168691401Y-72706747D01*
X168711107Y-72692132D01*
X168732150Y-72679520D01*
X168754329Y-72669030D01*
X168777428Y-72660765D01*
X168801227Y-72654804D01*
X168825495Y-72651204D01*
X168849999Y-72650000D01*
X169750001Y-72650000D01*
X169774505Y-72651204D01*
G37*
G36*
X169774505Y-70601204D02*
G01*
X169798773Y-70604804D01*
X169822572Y-70610765D01*
X169845671Y-70619030D01*
X169867850Y-70629520D01*
X169888893Y-70642132D01*
X169908599Y-70656747D01*
X169926777Y-70673223D01*
X169943253Y-70691401D01*
X169957868Y-70711107D01*
X169970480Y-70732150D01*
X169980970Y-70754329D01*
X169989235Y-70777428D01*
X169995196Y-70801227D01*
X169998796Y-70825495D01*
X170000000Y-70849999D01*
X170000000Y-71500001D01*
X169998796Y-71524505D01*
X169995196Y-71548773D01*
X169989235Y-71572572D01*
X169980970Y-71595671D01*
X169970480Y-71617850D01*
X169957868Y-71638893D01*
X169943253Y-71658599D01*
X169926777Y-71676777D01*
X169908599Y-71693253D01*
X169888893Y-71707868D01*
X169867850Y-71720480D01*
X169845671Y-71730970D01*
X169822572Y-71739235D01*
X169798773Y-71745196D01*
X169774505Y-71748796D01*
X169750001Y-71750000D01*
X168849999Y-71750000D01*
X168825495Y-71748796D01*
X168801227Y-71745196D01*
X168777428Y-71739235D01*
X168754329Y-71730970D01*
X168732150Y-71720480D01*
X168711107Y-71707868D01*
X168691401Y-71693253D01*
X168673223Y-71676777D01*
X168656747Y-71658599D01*
X168642132Y-71638893D01*
X168629520Y-71617850D01*
X168619030Y-71595671D01*
X168610765Y-71572572D01*
X168604804Y-71548773D01*
X168601204Y-71524505D01*
X168600000Y-71500001D01*
X168600000Y-70849999D01*
X168601204Y-70825495D01*
X168604804Y-70801227D01*
X168610765Y-70777428D01*
X168619030Y-70754329D01*
X168629520Y-70732150D01*
X168642132Y-70711107D01*
X168656747Y-70691401D01*
X168673223Y-70673223D01*
X168691401Y-70656747D01*
X168711107Y-70642132D01*
X168732150Y-70629520D01*
X168754329Y-70619030D01*
X168777428Y-70610765D01*
X168801227Y-70604804D01*
X168825495Y-70601204D01*
X168849999Y-70600000D01*
X169750001Y-70600000D01*
X169774505Y-70601204D01*
G37*
G36*
X171974505Y-70601204D02*
G01*
X171998773Y-70604804D01*
X172022572Y-70610765D01*
X172045671Y-70619030D01*
X172067850Y-70629520D01*
X172088893Y-70642132D01*
X172108599Y-70656747D01*
X172126777Y-70673223D01*
X172143253Y-70691401D01*
X172157868Y-70711107D01*
X172170480Y-70732150D01*
X172180970Y-70754329D01*
X172189235Y-70777428D01*
X172195196Y-70801227D01*
X172198796Y-70825495D01*
X172200000Y-70849999D01*
X172200000Y-71500001D01*
X172198796Y-71524505D01*
X172195196Y-71548773D01*
X172189235Y-71572572D01*
X172180970Y-71595671D01*
X172170480Y-71617850D01*
X172157868Y-71638893D01*
X172143253Y-71658599D01*
X172126777Y-71676777D01*
X172108599Y-71693253D01*
X172088893Y-71707868D01*
X172067850Y-71720480D01*
X172045671Y-71730970D01*
X172022572Y-71739235D01*
X171998773Y-71745196D01*
X171974505Y-71748796D01*
X171950001Y-71750000D01*
X171049999Y-71750000D01*
X171025495Y-71748796D01*
X171001227Y-71745196D01*
X170977428Y-71739235D01*
X170954329Y-71730970D01*
X170932150Y-71720480D01*
X170911107Y-71707868D01*
X170891401Y-71693253D01*
X170873223Y-71676777D01*
X170856747Y-71658599D01*
X170842132Y-71638893D01*
X170829520Y-71617850D01*
X170819030Y-71595671D01*
X170810765Y-71572572D01*
X170804804Y-71548773D01*
X170801204Y-71524505D01*
X170800000Y-71500001D01*
X170800000Y-70849999D01*
X170801204Y-70825495D01*
X170804804Y-70801227D01*
X170810765Y-70777428D01*
X170819030Y-70754329D01*
X170829520Y-70732150D01*
X170842132Y-70711107D01*
X170856747Y-70691401D01*
X170873223Y-70673223D01*
X170891401Y-70656747D01*
X170911107Y-70642132D01*
X170932150Y-70629520D01*
X170954329Y-70619030D01*
X170977428Y-70610765D01*
X171001227Y-70604804D01*
X171025495Y-70601204D01*
X171049999Y-70600000D01*
X171950001Y-70600000D01*
X171974505Y-70601204D01*
G37*
G36*
X171974505Y-72651204D02*
G01*
X171998773Y-72654804D01*
X172022572Y-72660765D01*
X172045671Y-72669030D01*
X172067850Y-72679520D01*
X172088893Y-72692132D01*
X172108599Y-72706747D01*
X172126777Y-72723223D01*
X172143253Y-72741401D01*
X172157868Y-72761107D01*
X172170480Y-72782150D01*
X172180970Y-72804329D01*
X172189235Y-72827428D01*
X172195196Y-72851227D01*
X172198796Y-72875495D01*
X172200000Y-72899999D01*
X172200000Y-73550001D01*
X172198796Y-73574505D01*
X172195196Y-73598773D01*
X172189235Y-73622572D01*
X172180970Y-73645671D01*
X172170480Y-73667850D01*
X172157868Y-73688893D01*
X172143253Y-73708599D01*
X172126777Y-73726777D01*
X172108599Y-73743253D01*
X172088893Y-73757868D01*
X172067850Y-73770480D01*
X172045671Y-73780970D01*
X172022572Y-73789235D01*
X171998773Y-73795196D01*
X171974505Y-73798796D01*
X171950001Y-73800000D01*
X171049999Y-73800000D01*
X171025495Y-73798796D01*
X171001227Y-73795196D01*
X170977428Y-73789235D01*
X170954329Y-73780970D01*
X170932150Y-73770480D01*
X170911107Y-73757868D01*
X170891401Y-73743253D01*
X170873223Y-73726777D01*
X170856747Y-73708599D01*
X170842132Y-73688893D01*
X170829520Y-73667850D01*
X170819030Y-73645671D01*
X170810765Y-73622572D01*
X170804804Y-73598773D01*
X170801204Y-73574505D01*
X170800000Y-73550001D01*
X170800000Y-72899999D01*
X170801204Y-72875495D01*
X170804804Y-72851227D01*
X170810765Y-72827428D01*
X170819030Y-72804329D01*
X170829520Y-72782150D01*
X170842132Y-72761107D01*
X170856747Y-72741401D01*
X170873223Y-72723223D01*
X170891401Y-72706747D01*
X170911107Y-72692132D01*
X170932150Y-72679520D01*
X170954329Y-72669030D01*
X170977428Y-72660765D01*
X171001227Y-72654804D01*
X171025495Y-72651204D01*
X171049999Y-72650000D01*
X171950001Y-72650000D01*
X171974505Y-72651204D01*
G37*
G36*
X182924505Y-111251204D02*
G01*
X182948773Y-111254804D01*
X182972572Y-111260765D01*
X182995671Y-111269030D01*
X183017850Y-111279520D01*
X183038893Y-111292132D01*
X183058599Y-111306747D01*
X183076777Y-111323223D01*
X183093253Y-111341401D01*
X183107868Y-111361107D01*
X183120480Y-111382150D01*
X183130970Y-111404329D01*
X183139235Y-111427428D01*
X183145196Y-111451227D01*
X183148796Y-111475495D01*
X183150000Y-111499999D01*
X183150000Y-112150001D01*
X183148796Y-112174505D01*
X183145196Y-112198773D01*
X183139235Y-112222572D01*
X183130970Y-112245671D01*
X183120480Y-112267850D01*
X183107868Y-112288893D01*
X183093253Y-112308599D01*
X183076777Y-112326777D01*
X183058599Y-112343253D01*
X183038893Y-112357868D01*
X183017850Y-112370480D01*
X182995671Y-112380970D01*
X182972572Y-112389235D01*
X182948773Y-112395196D01*
X182924505Y-112398796D01*
X182900001Y-112400000D01*
X181999999Y-112400000D01*
X181975495Y-112398796D01*
X181951227Y-112395196D01*
X181927428Y-112389235D01*
X181904329Y-112380970D01*
X181882150Y-112370480D01*
X181861107Y-112357868D01*
X181841401Y-112343253D01*
X181823223Y-112326777D01*
X181806747Y-112308599D01*
X181792132Y-112288893D01*
X181779520Y-112267850D01*
X181769030Y-112245671D01*
X181760765Y-112222572D01*
X181754804Y-112198773D01*
X181751204Y-112174505D01*
X181750000Y-112150001D01*
X181750000Y-111499999D01*
X181751204Y-111475495D01*
X181754804Y-111451227D01*
X181760765Y-111427428D01*
X181769030Y-111404329D01*
X181779520Y-111382150D01*
X181792132Y-111361107D01*
X181806747Y-111341401D01*
X181823223Y-111323223D01*
X181841401Y-111306747D01*
X181861107Y-111292132D01*
X181882150Y-111279520D01*
X181904329Y-111269030D01*
X181927428Y-111260765D01*
X181951227Y-111254804D01*
X181975495Y-111251204D01*
X181999999Y-111250000D01*
X182900001Y-111250000D01*
X182924505Y-111251204D01*
G37*
G36*
X182924505Y-113301204D02*
G01*
X182948773Y-113304804D01*
X182972572Y-113310765D01*
X182995671Y-113319030D01*
X183017850Y-113329520D01*
X183038893Y-113342132D01*
X183058599Y-113356747D01*
X183076777Y-113373223D01*
X183093253Y-113391401D01*
X183107868Y-113411107D01*
X183120480Y-113432150D01*
X183130970Y-113454329D01*
X183139235Y-113477428D01*
X183145196Y-113501227D01*
X183148796Y-113525495D01*
X183150000Y-113549999D01*
X183150000Y-114200001D01*
X183148796Y-114224505D01*
X183145196Y-114248773D01*
X183139235Y-114272572D01*
X183130970Y-114295671D01*
X183120480Y-114317850D01*
X183107868Y-114338893D01*
X183093253Y-114358599D01*
X183076777Y-114376777D01*
X183058599Y-114393253D01*
X183038893Y-114407868D01*
X183017850Y-114420480D01*
X182995671Y-114430970D01*
X182972572Y-114439235D01*
X182948773Y-114445196D01*
X182924505Y-114448796D01*
X182900001Y-114450000D01*
X181999999Y-114450000D01*
X181975495Y-114448796D01*
X181951227Y-114445196D01*
X181927428Y-114439235D01*
X181904329Y-114430970D01*
X181882150Y-114420480D01*
X181861107Y-114407868D01*
X181841401Y-114393253D01*
X181823223Y-114376777D01*
X181806747Y-114358599D01*
X181792132Y-114338893D01*
X181779520Y-114317850D01*
X181769030Y-114295671D01*
X181760765Y-114272572D01*
X181754804Y-114248773D01*
X181751204Y-114224505D01*
X181750000Y-114200001D01*
X181750000Y-113549999D01*
X181751204Y-113525495D01*
X181754804Y-113501227D01*
X181760765Y-113477428D01*
X181769030Y-113454329D01*
X181779520Y-113432150D01*
X181792132Y-113411107D01*
X181806747Y-113391401D01*
X181823223Y-113373223D01*
X181841401Y-113356747D01*
X181861107Y-113342132D01*
X181882150Y-113329520D01*
X181904329Y-113319030D01*
X181927428Y-113310765D01*
X181951227Y-113304804D01*
X181975495Y-113301204D01*
X181999999Y-113300000D01*
X182900001Y-113300000D01*
X182924505Y-113301204D01*
G37*
D12*
X181450000Y-96860000D03*
X181450000Y-99660000D03*
X184950000Y-96860000D03*
X184950000Y-99660000D03*
D13*
X40700000Y-118960000D03*
D14*
X40700000Y-117060000D03*
D15*
X40408000Y-59690000D03*
X43252000Y-59690000D03*
X39678000Y-74000000D03*
X42522000Y-74000000D03*
X39678000Y-100500000D03*
X42522000Y-100500000D03*
X145818000Y-116840000D03*
X148662000Y-116840000D03*
X171222000Y-118700000D03*
X168378000Y-118700000D03*
X175678000Y-117300000D03*
X178522000Y-117300000D03*
X153422000Y-57750000D03*
X150578000Y-57750000D03*
X168722000Y-57650000D03*
X165878000Y-57650000D03*
D16*
X181450000Y-60194000D03*
X181450000Y-57350000D03*
D17*
X178850000Y-111410000D03*
X180750000Y-111410000D03*
D18*
X179800000Y-113610000D03*
D19*
X174800000Y-97417400D03*
X174000000Y-97417400D03*
X173200000Y-97417400D03*
X172400000Y-97417400D03*
X171600000Y-97417400D03*
X170800000Y-97417400D03*
X170000000Y-97417400D03*
X169200000Y-97417400D03*
D20*
X167707400Y-98910000D03*
X167707400Y-99710000D03*
X167707400Y-100510000D03*
X167707400Y-101310000D03*
X167707400Y-102110000D03*
X167707400Y-102910000D03*
X167707400Y-103710000D03*
X167707400Y-104510000D03*
D19*
X169200000Y-106002600D03*
X170000000Y-106002600D03*
X170800000Y-106002600D03*
X171600000Y-106002600D03*
X172400000Y-106002600D03*
X173200000Y-106002600D03*
X174000000Y-106002600D03*
X174800000Y-106002600D03*
D20*
X176292600Y-104510000D03*
X176292600Y-103710000D03*
X176292600Y-102910000D03*
X176292600Y-102110000D03*
X176292600Y-101310000D03*
X176292600Y-100510000D03*
X176292600Y-99710000D03*
X176292600Y-98910000D03*
D18*
X175500000Y-113700000D03*
D17*
X176450000Y-111500000D03*
X174550000Y-111500000D03*
D21*
X52740000Y-50462520D03*
X52740000Y-54632520D03*
X54740000Y-50462520D03*
X54740000Y-54632520D03*
X56740000Y-50462520D03*
X56740000Y-54632520D03*
X58740000Y-50462520D03*
X58740000Y-54632520D03*
X60740000Y-50462520D03*
X60740000Y-54632520D03*
X62740000Y-50462520D03*
X62740000Y-54632520D03*
X64740000Y-50462520D03*
X64740000Y-54632520D03*
X66740000Y-50462520D03*
X66740000Y-54632520D03*
X68740000Y-50462520D03*
X68740000Y-54632520D03*
X70740000Y-50462520D03*
X70740000Y-54632520D03*
D11*
G36*
X38074505Y-51476204D02*
G01*
X38098773Y-51479804D01*
X38122572Y-51485765D01*
X38145671Y-51494030D01*
X38167850Y-51504520D01*
X38188893Y-51517132D01*
X38208599Y-51531747D01*
X38226777Y-51548223D01*
X38243253Y-51566401D01*
X38257868Y-51586107D01*
X38270480Y-51607150D01*
X38280970Y-51629329D01*
X38289235Y-51652428D01*
X38295196Y-51676227D01*
X38298796Y-51700495D01*
X38300000Y-51724999D01*
X38300000Y-52375001D01*
X38298796Y-52399505D01*
X38295196Y-52423773D01*
X38289235Y-52447572D01*
X38280970Y-52470671D01*
X38270480Y-52492850D01*
X38257868Y-52513893D01*
X38243253Y-52533599D01*
X38226777Y-52551777D01*
X38208599Y-52568253D01*
X38188893Y-52582868D01*
X38167850Y-52595480D01*
X38145671Y-52605970D01*
X38122572Y-52614235D01*
X38098773Y-52620196D01*
X38074505Y-52623796D01*
X38050001Y-52625000D01*
X37149999Y-52625000D01*
X37125495Y-52623796D01*
X37101227Y-52620196D01*
X37077428Y-52614235D01*
X37054329Y-52605970D01*
X37032150Y-52595480D01*
X37011107Y-52582868D01*
X36991401Y-52568253D01*
X36973223Y-52551777D01*
X36956747Y-52533599D01*
X36942132Y-52513893D01*
X36929520Y-52492850D01*
X36919030Y-52470671D01*
X36910765Y-52447572D01*
X36904804Y-52423773D01*
X36901204Y-52399505D01*
X36900000Y-52375001D01*
X36900000Y-51724999D01*
X36901204Y-51700495D01*
X36904804Y-51676227D01*
X36910765Y-51652428D01*
X36919030Y-51629329D01*
X36929520Y-51607150D01*
X36942132Y-51586107D01*
X36956747Y-51566401D01*
X36973223Y-51548223D01*
X36991401Y-51531747D01*
X37011107Y-51517132D01*
X37032150Y-51504520D01*
X37054329Y-51494030D01*
X37077428Y-51485765D01*
X37101227Y-51479804D01*
X37125495Y-51476204D01*
X37149999Y-51475000D01*
X38050001Y-51475000D01*
X38074505Y-51476204D01*
G37*
G36*
X38074505Y-53526204D02*
G01*
X38098773Y-53529804D01*
X38122572Y-53535765D01*
X38145671Y-53544030D01*
X38167850Y-53554520D01*
X38188893Y-53567132D01*
X38208599Y-53581747D01*
X38226777Y-53598223D01*
X38243253Y-53616401D01*
X38257868Y-53636107D01*
X38270480Y-53657150D01*
X38280970Y-53679329D01*
X38289235Y-53702428D01*
X38295196Y-53726227D01*
X38298796Y-53750495D01*
X38300000Y-53774999D01*
X38300000Y-54425001D01*
X38298796Y-54449505D01*
X38295196Y-54473773D01*
X38289235Y-54497572D01*
X38280970Y-54520671D01*
X38270480Y-54542850D01*
X38257868Y-54563893D01*
X38243253Y-54583599D01*
X38226777Y-54601777D01*
X38208599Y-54618253D01*
X38188893Y-54632868D01*
X38167850Y-54645480D01*
X38145671Y-54655970D01*
X38122572Y-54664235D01*
X38098773Y-54670196D01*
X38074505Y-54673796D01*
X38050001Y-54675000D01*
X37149999Y-54675000D01*
X37125495Y-54673796D01*
X37101227Y-54670196D01*
X37077428Y-54664235D01*
X37054329Y-54655970D01*
X37032150Y-54645480D01*
X37011107Y-54632868D01*
X36991401Y-54618253D01*
X36973223Y-54601777D01*
X36956747Y-54583599D01*
X36942132Y-54563893D01*
X36929520Y-54542850D01*
X36919030Y-54520671D01*
X36910765Y-54497572D01*
X36904804Y-54473773D01*
X36901204Y-54449505D01*
X36900000Y-54425001D01*
X36900000Y-53774999D01*
X36901204Y-53750495D01*
X36904804Y-53726227D01*
X36910765Y-53702428D01*
X36919030Y-53679329D01*
X36929520Y-53657150D01*
X36942132Y-53636107D01*
X36956747Y-53616401D01*
X36973223Y-53598223D01*
X36991401Y-53581747D01*
X37011107Y-53567132D01*
X37032150Y-53554520D01*
X37054329Y-53544030D01*
X37077428Y-53535765D01*
X37101227Y-53529804D01*
X37125495Y-53526204D01*
X37149999Y-53525000D01*
X38050001Y-53525000D01*
X38074505Y-53526204D01*
G37*
G36*
X37924505Y-68551204D02*
G01*
X37948773Y-68554804D01*
X37972572Y-68560765D01*
X37995671Y-68569030D01*
X38017850Y-68579520D01*
X38038893Y-68592132D01*
X38058599Y-68606747D01*
X38076777Y-68623223D01*
X38093253Y-68641401D01*
X38107868Y-68661107D01*
X38120480Y-68682150D01*
X38130970Y-68704329D01*
X38139235Y-68727428D01*
X38145196Y-68751227D01*
X38148796Y-68775495D01*
X38150000Y-68799999D01*
X38150000Y-69450001D01*
X38148796Y-69474505D01*
X38145196Y-69498773D01*
X38139235Y-69522572D01*
X38130970Y-69545671D01*
X38120480Y-69567850D01*
X38107868Y-69588893D01*
X38093253Y-69608599D01*
X38076777Y-69626777D01*
X38058599Y-69643253D01*
X38038893Y-69657868D01*
X38017850Y-69670480D01*
X37995671Y-69680970D01*
X37972572Y-69689235D01*
X37948773Y-69695196D01*
X37924505Y-69698796D01*
X37900001Y-69700000D01*
X36999999Y-69700000D01*
X36975495Y-69698796D01*
X36951227Y-69695196D01*
X36927428Y-69689235D01*
X36904329Y-69680970D01*
X36882150Y-69670480D01*
X36861107Y-69657868D01*
X36841401Y-69643253D01*
X36823223Y-69626777D01*
X36806747Y-69608599D01*
X36792132Y-69588893D01*
X36779520Y-69567850D01*
X36769030Y-69545671D01*
X36760765Y-69522572D01*
X36754804Y-69498773D01*
X36751204Y-69474505D01*
X36750000Y-69450001D01*
X36750000Y-68799999D01*
X36751204Y-68775495D01*
X36754804Y-68751227D01*
X36760765Y-68727428D01*
X36769030Y-68704329D01*
X36779520Y-68682150D01*
X36792132Y-68661107D01*
X36806747Y-68641401D01*
X36823223Y-68623223D01*
X36841401Y-68606747D01*
X36861107Y-68592132D01*
X36882150Y-68579520D01*
X36904329Y-68569030D01*
X36927428Y-68560765D01*
X36951227Y-68554804D01*
X36975495Y-68551204D01*
X36999999Y-68550000D01*
X37900001Y-68550000D01*
X37924505Y-68551204D01*
G37*
G36*
X37924505Y-66501204D02*
G01*
X37948773Y-66504804D01*
X37972572Y-66510765D01*
X37995671Y-66519030D01*
X38017850Y-66529520D01*
X38038893Y-66542132D01*
X38058599Y-66556747D01*
X38076777Y-66573223D01*
X38093253Y-66591401D01*
X38107868Y-66611107D01*
X38120480Y-66632150D01*
X38130970Y-66654329D01*
X38139235Y-66677428D01*
X38145196Y-66701227D01*
X38148796Y-66725495D01*
X38150000Y-66749999D01*
X38150000Y-67400001D01*
X38148796Y-67424505D01*
X38145196Y-67448773D01*
X38139235Y-67472572D01*
X38130970Y-67495671D01*
X38120480Y-67517850D01*
X38107868Y-67538893D01*
X38093253Y-67558599D01*
X38076777Y-67576777D01*
X38058599Y-67593253D01*
X38038893Y-67607868D01*
X38017850Y-67620480D01*
X37995671Y-67630970D01*
X37972572Y-67639235D01*
X37948773Y-67645196D01*
X37924505Y-67648796D01*
X37900001Y-67650000D01*
X36999999Y-67650000D01*
X36975495Y-67648796D01*
X36951227Y-67645196D01*
X36927428Y-67639235D01*
X36904329Y-67630970D01*
X36882150Y-67620480D01*
X36861107Y-67607868D01*
X36841401Y-67593253D01*
X36823223Y-67576777D01*
X36806747Y-67558599D01*
X36792132Y-67538893D01*
X36779520Y-67517850D01*
X36769030Y-67495671D01*
X36760765Y-67472572D01*
X36754804Y-67448773D01*
X36751204Y-67424505D01*
X36750000Y-67400001D01*
X36750000Y-66749999D01*
X36751204Y-66725495D01*
X36754804Y-66701227D01*
X36760765Y-66677428D01*
X36769030Y-66654329D01*
X36779520Y-66632150D01*
X36792132Y-66611107D01*
X36806747Y-66591401D01*
X36823223Y-66573223D01*
X36841401Y-66556747D01*
X36861107Y-66542132D01*
X36882150Y-66529520D01*
X36904329Y-66519030D01*
X36927428Y-66510765D01*
X36951227Y-66504804D01*
X36975495Y-66501204D01*
X36999999Y-66500000D01*
X37900001Y-66500000D01*
X37924505Y-66501204D01*
G37*
G36*
X38024505Y-92501204D02*
G01*
X38048773Y-92504804D01*
X38072572Y-92510765D01*
X38095671Y-92519030D01*
X38117850Y-92529520D01*
X38138893Y-92542132D01*
X38158599Y-92556747D01*
X38176777Y-92573223D01*
X38193253Y-92591401D01*
X38207868Y-92611107D01*
X38220480Y-92632150D01*
X38230970Y-92654329D01*
X38239235Y-92677428D01*
X38245196Y-92701227D01*
X38248796Y-92725495D01*
X38250000Y-92749999D01*
X38250000Y-93400001D01*
X38248796Y-93424505D01*
X38245196Y-93448773D01*
X38239235Y-93472572D01*
X38230970Y-93495671D01*
X38220480Y-93517850D01*
X38207868Y-93538893D01*
X38193253Y-93558599D01*
X38176777Y-93576777D01*
X38158599Y-93593253D01*
X38138893Y-93607868D01*
X38117850Y-93620480D01*
X38095671Y-93630970D01*
X38072572Y-93639235D01*
X38048773Y-93645196D01*
X38024505Y-93648796D01*
X38000001Y-93650000D01*
X37099999Y-93650000D01*
X37075495Y-93648796D01*
X37051227Y-93645196D01*
X37027428Y-93639235D01*
X37004329Y-93630970D01*
X36982150Y-93620480D01*
X36961107Y-93607868D01*
X36941401Y-93593253D01*
X36923223Y-93576777D01*
X36906747Y-93558599D01*
X36892132Y-93538893D01*
X36879520Y-93517850D01*
X36869030Y-93495671D01*
X36860765Y-93472572D01*
X36854804Y-93448773D01*
X36851204Y-93424505D01*
X36850000Y-93400001D01*
X36850000Y-92749999D01*
X36851204Y-92725495D01*
X36854804Y-92701227D01*
X36860765Y-92677428D01*
X36869030Y-92654329D01*
X36879520Y-92632150D01*
X36892132Y-92611107D01*
X36906747Y-92591401D01*
X36923223Y-92573223D01*
X36941401Y-92556747D01*
X36961107Y-92542132D01*
X36982150Y-92529520D01*
X37004329Y-92519030D01*
X37027428Y-92510765D01*
X37051227Y-92504804D01*
X37075495Y-92501204D01*
X37099999Y-92500000D01*
X38000001Y-92500000D01*
X38024505Y-92501204D01*
G37*
G36*
X38024505Y-94551204D02*
G01*
X38048773Y-94554804D01*
X38072572Y-94560765D01*
X38095671Y-94569030D01*
X38117850Y-94579520D01*
X38138893Y-94592132D01*
X38158599Y-94606747D01*
X38176777Y-94623223D01*
X38193253Y-94641401D01*
X38207868Y-94661107D01*
X38220480Y-94682150D01*
X38230970Y-94704329D01*
X38239235Y-94727428D01*
X38245196Y-94751227D01*
X38248796Y-94775495D01*
X38250000Y-94799999D01*
X38250000Y-95450001D01*
X38248796Y-95474505D01*
X38245196Y-95498773D01*
X38239235Y-95522572D01*
X38230970Y-95545671D01*
X38220480Y-95567850D01*
X38207868Y-95588893D01*
X38193253Y-95608599D01*
X38176777Y-95626777D01*
X38158599Y-95643253D01*
X38138893Y-95657868D01*
X38117850Y-95670480D01*
X38095671Y-95680970D01*
X38072572Y-95689235D01*
X38048773Y-95695196D01*
X38024505Y-95698796D01*
X38000001Y-95700000D01*
X37099999Y-95700000D01*
X37075495Y-95698796D01*
X37051227Y-95695196D01*
X37027428Y-95689235D01*
X37004329Y-95680970D01*
X36982150Y-95670480D01*
X36961107Y-95657868D01*
X36941401Y-95643253D01*
X36923223Y-95626777D01*
X36906747Y-95608599D01*
X36892132Y-95588893D01*
X36879520Y-95567850D01*
X36869030Y-95545671D01*
X36860765Y-95522572D01*
X36854804Y-95498773D01*
X36851204Y-95474505D01*
X36850000Y-95450001D01*
X36850000Y-94799999D01*
X36851204Y-94775495D01*
X36854804Y-94751227D01*
X36860765Y-94727428D01*
X36869030Y-94704329D01*
X36879520Y-94682150D01*
X36892132Y-94661107D01*
X36906747Y-94641401D01*
X36923223Y-94623223D01*
X36941401Y-94606747D01*
X36961107Y-94592132D01*
X36982150Y-94579520D01*
X37004329Y-94569030D01*
X37027428Y-94560765D01*
X37051227Y-94554804D01*
X37075495Y-94551204D01*
X37099999Y-94550000D01*
X38000001Y-94550000D01*
X38024505Y-94551204D01*
G37*
G36*
X71274505Y-124351204D02*
G01*
X71298773Y-124354804D01*
X71322572Y-124360765D01*
X71345671Y-124369030D01*
X71367850Y-124379520D01*
X71388893Y-124392132D01*
X71408599Y-124406747D01*
X71426777Y-124423223D01*
X71443253Y-124441401D01*
X71457868Y-124461107D01*
X71470480Y-124482150D01*
X71480970Y-124504329D01*
X71489235Y-124527428D01*
X71495196Y-124551227D01*
X71498796Y-124575495D01*
X71500000Y-124599999D01*
X71500000Y-125500001D01*
X71498796Y-125524505D01*
X71495196Y-125548773D01*
X71489235Y-125572572D01*
X71480970Y-125595671D01*
X71470480Y-125617850D01*
X71457868Y-125638893D01*
X71443253Y-125658599D01*
X71426777Y-125676777D01*
X71408599Y-125693253D01*
X71388893Y-125707868D01*
X71367850Y-125720480D01*
X71345671Y-125730970D01*
X71322572Y-125739235D01*
X71298773Y-125745196D01*
X71274505Y-125748796D01*
X71250001Y-125750000D01*
X70599999Y-125750000D01*
X70575495Y-125748796D01*
X70551227Y-125745196D01*
X70527428Y-125739235D01*
X70504329Y-125730970D01*
X70482150Y-125720480D01*
X70461107Y-125707868D01*
X70441401Y-125693253D01*
X70423223Y-125676777D01*
X70406747Y-125658599D01*
X70392132Y-125638893D01*
X70379520Y-125617850D01*
X70369030Y-125595671D01*
X70360765Y-125572572D01*
X70354804Y-125548773D01*
X70351204Y-125524505D01*
X70350000Y-125500001D01*
X70350000Y-124599999D01*
X70351204Y-124575495D01*
X70354804Y-124551227D01*
X70360765Y-124527428D01*
X70369030Y-124504329D01*
X70379520Y-124482150D01*
X70392132Y-124461107D01*
X70406747Y-124441401D01*
X70423223Y-124423223D01*
X70441401Y-124406747D01*
X70461107Y-124392132D01*
X70482150Y-124379520D01*
X70504329Y-124369030D01*
X70527428Y-124360765D01*
X70551227Y-124354804D01*
X70575495Y-124351204D01*
X70599999Y-124350000D01*
X71250001Y-124350000D01*
X71274505Y-124351204D01*
G37*
G36*
X69224505Y-124351204D02*
G01*
X69248773Y-124354804D01*
X69272572Y-124360765D01*
X69295671Y-124369030D01*
X69317850Y-124379520D01*
X69338893Y-124392132D01*
X69358599Y-124406747D01*
X69376777Y-124423223D01*
X69393253Y-124441401D01*
X69407868Y-124461107D01*
X69420480Y-124482150D01*
X69430970Y-124504329D01*
X69439235Y-124527428D01*
X69445196Y-124551227D01*
X69448796Y-124575495D01*
X69450000Y-124599999D01*
X69450000Y-125500001D01*
X69448796Y-125524505D01*
X69445196Y-125548773D01*
X69439235Y-125572572D01*
X69430970Y-125595671D01*
X69420480Y-125617850D01*
X69407868Y-125638893D01*
X69393253Y-125658599D01*
X69376777Y-125676777D01*
X69358599Y-125693253D01*
X69338893Y-125707868D01*
X69317850Y-125720480D01*
X69295671Y-125730970D01*
X69272572Y-125739235D01*
X69248773Y-125745196D01*
X69224505Y-125748796D01*
X69200001Y-125750000D01*
X68549999Y-125750000D01*
X68525495Y-125748796D01*
X68501227Y-125745196D01*
X68477428Y-125739235D01*
X68454329Y-125730970D01*
X68432150Y-125720480D01*
X68411107Y-125707868D01*
X68391401Y-125693253D01*
X68373223Y-125676777D01*
X68356747Y-125658599D01*
X68342132Y-125638893D01*
X68329520Y-125617850D01*
X68319030Y-125595671D01*
X68310765Y-125572572D01*
X68304804Y-125548773D01*
X68301204Y-125524505D01*
X68300000Y-125500001D01*
X68300000Y-124599999D01*
X68301204Y-124575495D01*
X68304804Y-124551227D01*
X68310765Y-124527428D01*
X68319030Y-124504329D01*
X68329520Y-124482150D01*
X68342132Y-124461107D01*
X68356747Y-124441401D01*
X68373223Y-124423223D01*
X68391401Y-124406747D01*
X68411107Y-124392132D01*
X68432150Y-124379520D01*
X68454329Y-124369030D01*
X68477428Y-124360765D01*
X68501227Y-124354804D01*
X68525495Y-124351204D01*
X68549999Y-124350000D01*
X69200001Y-124350000D01*
X69224505Y-124351204D01*
G37*
G36*
X93274505Y-124201204D02*
G01*
X93298773Y-124204804D01*
X93322572Y-124210765D01*
X93345671Y-124219030D01*
X93367850Y-124229520D01*
X93388893Y-124242132D01*
X93408599Y-124256747D01*
X93426777Y-124273223D01*
X93443253Y-124291401D01*
X93457868Y-124311107D01*
X93470480Y-124332150D01*
X93480970Y-124354329D01*
X93489235Y-124377428D01*
X93495196Y-124401227D01*
X93498796Y-124425495D01*
X93500000Y-124449999D01*
X93500000Y-125350001D01*
X93498796Y-125374505D01*
X93495196Y-125398773D01*
X93489235Y-125422572D01*
X93480970Y-125445671D01*
X93470480Y-125467850D01*
X93457868Y-125488893D01*
X93443253Y-125508599D01*
X93426777Y-125526777D01*
X93408599Y-125543253D01*
X93388893Y-125557868D01*
X93367850Y-125570480D01*
X93345671Y-125580970D01*
X93322572Y-125589235D01*
X93298773Y-125595196D01*
X93274505Y-125598796D01*
X93250001Y-125600000D01*
X92599999Y-125600000D01*
X92575495Y-125598796D01*
X92551227Y-125595196D01*
X92527428Y-125589235D01*
X92504329Y-125580970D01*
X92482150Y-125570480D01*
X92461107Y-125557868D01*
X92441401Y-125543253D01*
X92423223Y-125526777D01*
X92406747Y-125508599D01*
X92392132Y-125488893D01*
X92379520Y-125467850D01*
X92369030Y-125445671D01*
X92360765Y-125422572D01*
X92354804Y-125398773D01*
X92351204Y-125374505D01*
X92350000Y-125350001D01*
X92350000Y-124449999D01*
X92351204Y-124425495D01*
X92354804Y-124401227D01*
X92360765Y-124377428D01*
X92369030Y-124354329D01*
X92379520Y-124332150D01*
X92392132Y-124311107D01*
X92406747Y-124291401D01*
X92423223Y-124273223D01*
X92441401Y-124256747D01*
X92461107Y-124242132D01*
X92482150Y-124229520D01*
X92504329Y-124219030D01*
X92527428Y-124210765D01*
X92551227Y-124204804D01*
X92575495Y-124201204D01*
X92599999Y-124200000D01*
X93250001Y-124200000D01*
X93274505Y-124201204D01*
G37*
G36*
X95324505Y-124201204D02*
G01*
X95348773Y-124204804D01*
X95372572Y-124210765D01*
X95395671Y-124219030D01*
X95417850Y-124229520D01*
X95438893Y-124242132D01*
X95458599Y-124256747D01*
X95476777Y-124273223D01*
X95493253Y-124291401D01*
X95507868Y-124311107D01*
X95520480Y-124332150D01*
X95530970Y-124354329D01*
X95539235Y-124377428D01*
X95545196Y-124401227D01*
X95548796Y-124425495D01*
X95550000Y-124449999D01*
X95550000Y-125350001D01*
X95548796Y-125374505D01*
X95545196Y-125398773D01*
X95539235Y-125422572D01*
X95530970Y-125445671D01*
X95520480Y-125467850D01*
X95507868Y-125488893D01*
X95493253Y-125508599D01*
X95476777Y-125526777D01*
X95458599Y-125543253D01*
X95438893Y-125557868D01*
X95417850Y-125570480D01*
X95395671Y-125580970D01*
X95372572Y-125589235D01*
X95348773Y-125595196D01*
X95324505Y-125598796D01*
X95300001Y-125600000D01*
X94649999Y-125600000D01*
X94625495Y-125598796D01*
X94601227Y-125595196D01*
X94577428Y-125589235D01*
X94554329Y-125580970D01*
X94532150Y-125570480D01*
X94511107Y-125557868D01*
X94491401Y-125543253D01*
X94473223Y-125526777D01*
X94456747Y-125508599D01*
X94442132Y-125488893D01*
X94429520Y-125467850D01*
X94419030Y-125445671D01*
X94410765Y-125422572D01*
X94404804Y-125398773D01*
X94401204Y-125374505D01*
X94400000Y-125350001D01*
X94400000Y-124449999D01*
X94401204Y-124425495D01*
X94404804Y-124401227D01*
X94410765Y-124377428D01*
X94419030Y-124354329D01*
X94429520Y-124332150D01*
X94442132Y-124311107D01*
X94456747Y-124291401D01*
X94473223Y-124273223D01*
X94491401Y-124256747D01*
X94511107Y-124242132D01*
X94532150Y-124229520D01*
X94554329Y-124219030D01*
X94577428Y-124210765D01*
X94601227Y-124204804D01*
X94625495Y-124201204D01*
X94649999Y-124200000D01*
X95300001Y-124200000D01*
X95324505Y-124201204D01*
G37*
G36*
X117674505Y-126551204D02*
G01*
X117698773Y-126554804D01*
X117722572Y-126560765D01*
X117745671Y-126569030D01*
X117767850Y-126579520D01*
X117788893Y-126592132D01*
X117808599Y-126606747D01*
X117826777Y-126623223D01*
X117843253Y-126641401D01*
X117857868Y-126661107D01*
X117870480Y-126682150D01*
X117880970Y-126704329D01*
X117889235Y-126727428D01*
X117895196Y-126751227D01*
X117898796Y-126775495D01*
X117900000Y-126799999D01*
X117900000Y-127700001D01*
X117898796Y-127724505D01*
X117895196Y-127748773D01*
X117889235Y-127772572D01*
X117880970Y-127795671D01*
X117870480Y-127817850D01*
X117857868Y-127838893D01*
X117843253Y-127858599D01*
X117826777Y-127876777D01*
X117808599Y-127893253D01*
X117788893Y-127907868D01*
X117767850Y-127920480D01*
X117745671Y-127930970D01*
X117722572Y-127939235D01*
X117698773Y-127945196D01*
X117674505Y-127948796D01*
X117650001Y-127950000D01*
X116999999Y-127950000D01*
X116975495Y-127948796D01*
X116951227Y-127945196D01*
X116927428Y-127939235D01*
X116904329Y-127930970D01*
X116882150Y-127920480D01*
X116861107Y-127907868D01*
X116841401Y-127893253D01*
X116823223Y-127876777D01*
X116806747Y-127858599D01*
X116792132Y-127838893D01*
X116779520Y-127817850D01*
X116769030Y-127795671D01*
X116760765Y-127772572D01*
X116754804Y-127748773D01*
X116751204Y-127724505D01*
X116750000Y-127700001D01*
X116750000Y-126799999D01*
X116751204Y-126775495D01*
X116754804Y-126751227D01*
X116760765Y-126727428D01*
X116769030Y-126704329D01*
X116779520Y-126682150D01*
X116792132Y-126661107D01*
X116806747Y-126641401D01*
X116823223Y-126623223D01*
X116841401Y-126606747D01*
X116861107Y-126592132D01*
X116882150Y-126579520D01*
X116904329Y-126569030D01*
X116927428Y-126560765D01*
X116951227Y-126554804D01*
X116975495Y-126551204D01*
X116999999Y-126550000D01*
X117650001Y-126550000D01*
X117674505Y-126551204D01*
G37*
G36*
X119724505Y-126551204D02*
G01*
X119748773Y-126554804D01*
X119772572Y-126560765D01*
X119795671Y-126569030D01*
X119817850Y-126579520D01*
X119838893Y-126592132D01*
X119858599Y-126606747D01*
X119876777Y-126623223D01*
X119893253Y-126641401D01*
X119907868Y-126661107D01*
X119920480Y-126682150D01*
X119930970Y-126704329D01*
X119939235Y-126727428D01*
X119945196Y-126751227D01*
X119948796Y-126775495D01*
X119950000Y-126799999D01*
X119950000Y-127700001D01*
X119948796Y-127724505D01*
X119945196Y-127748773D01*
X119939235Y-127772572D01*
X119930970Y-127795671D01*
X119920480Y-127817850D01*
X119907868Y-127838893D01*
X119893253Y-127858599D01*
X119876777Y-127876777D01*
X119858599Y-127893253D01*
X119838893Y-127907868D01*
X119817850Y-127920480D01*
X119795671Y-127930970D01*
X119772572Y-127939235D01*
X119748773Y-127945196D01*
X119724505Y-127948796D01*
X119700001Y-127950000D01*
X119049999Y-127950000D01*
X119025495Y-127948796D01*
X119001227Y-127945196D01*
X118977428Y-127939235D01*
X118954329Y-127930970D01*
X118932150Y-127920480D01*
X118911107Y-127907868D01*
X118891401Y-127893253D01*
X118873223Y-127876777D01*
X118856747Y-127858599D01*
X118842132Y-127838893D01*
X118829520Y-127817850D01*
X118819030Y-127795671D01*
X118810765Y-127772572D01*
X118804804Y-127748773D01*
X118801204Y-127724505D01*
X118800000Y-127700001D01*
X118800000Y-126799999D01*
X118801204Y-126775495D01*
X118804804Y-126751227D01*
X118810765Y-126727428D01*
X118819030Y-126704329D01*
X118829520Y-126682150D01*
X118842132Y-126661107D01*
X118856747Y-126641401D01*
X118873223Y-126623223D01*
X118891401Y-126606747D01*
X118911107Y-126592132D01*
X118932150Y-126579520D01*
X118954329Y-126569030D01*
X118977428Y-126560765D01*
X119001227Y-126554804D01*
X119025495Y-126551204D01*
X119049999Y-126550000D01*
X119700001Y-126550000D01*
X119724505Y-126551204D01*
G37*
G36*
X143724505Y-51601204D02*
G01*
X143748773Y-51604804D01*
X143772572Y-51610765D01*
X143795671Y-51619030D01*
X143817850Y-51629520D01*
X143838893Y-51642132D01*
X143858599Y-51656747D01*
X143876777Y-51673223D01*
X143893253Y-51691401D01*
X143907868Y-51711107D01*
X143920480Y-51732150D01*
X143930970Y-51754329D01*
X143939235Y-51777428D01*
X143945196Y-51801227D01*
X143948796Y-51825495D01*
X143950000Y-51849999D01*
X143950000Y-52500001D01*
X143948796Y-52524505D01*
X143945196Y-52548773D01*
X143939235Y-52572572D01*
X143930970Y-52595671D01*
X143920480Y-52617850D01*
X143907868Y-52638893D01*
X143893253Y-52658599D01*
X143876777Y-52676777D01*
X143858599Y-52693253D01*
X143838893Y-52707868D01*
X143817850Y-52720480D01*
X143795671Y-52730970D01*
X143772572Y-52739235D01*
X143748773Y-52745196D01*
X143724505Y-52748796D01*
X143700001Y-52750000D01*
X142799999Y-52750000D01*
X142775495Y-52748796D01*
X142751227Y-52745196D01*
X142727428Y-52739235D01*
X142704329Y-52730970D01*
X142682150Y-52720480D01*
X142661107Y-52707868D01*
X142641401Y-52693253D01*
X142623223Y-52676777D01*
X142606747Y-52658599D01*
X142592132Y-52638893D01*
X142579520Y-52617850D01*
X142569030Y-52595671D01*
X142560765Y-52572572D01*
X142554804Y-52548773D01*
X142551204Y-52524505D01*
X142550000Y-52500001D01*
X142550000Y-51849999D01*
X142551204Y-51825495D01*
X142554804Y-51801227D01*
X142560765Y-51777428D01*
X142569030Y-51754329D01*
X142579520Y-51732150D01*
X142592132Y-51711107D01*
X142606747Y-51691401D01*
X142623223Y-51673223D01*
X142641401Y-51656747D01*
X142661107Y-51642132D01*
X142682150Y-51629520D01*
X142704329Y-51619030D01*
X142727428Y-51610765D01*
X142751227Y-51604804D01*
X142775495Y-51601204D01*
X142799999Y-51600000D01*
X143700001Y-51600000D01*
X143724505Y-51601204D01*
G37*
G36*
X143724505Y-53651204D02*
G01*
X143748773Y-53654804D01*
X143772572Y-53660765D01*
X143795671Y-53669030D01*
X143817850Y-53679520D01*
X143838893Y-53692132D01*
X143858599Y-53706747D01*
X143876777Y-53723223D01*
X143893253Y-53741401D01*
X143907868Y-53761107D01*
X143920480Y-53782150D01*
X143930970Y-53804329D01*
X143939235Y-53827428D01*
X143945196Y-53851227D01*
X143948796Y-53875495D01*
X143950000Y-53899999D01*
X143950000Y-54550001D01*
X143948796Y-54574505D01*
X143945196Y-54598773D01*
X143939235Y-54622572D01*
X143930970Y-54645671D01*
X143920480Y-54667850D01*
X143907868Y-54688893D01*
X143893253Y-54708599D01*
X143876777Y-54726777D01*
X143858599Y-54743253D01*
X143838893Y-54757868D01*
X143817850Y-54770480D01*
X143795671Y-54780970D01*
X143772572Y-54789235D01*
X143748773Y-54795196D01*
X143724505Y-54798796D01*
X143700001Y-54800000D01*
X142799999Y-54800000D01*
X142775495Y-54798796D01*
X142751227Y-54795196D01*
X142727428Y-54789235D01*
X142704329Y-54780970D01*
X142682150Y-54770480D01*
X142661107Y-54757868D01*
X142641401Y-54743253D01*
X142623223Y-54726777D01*
X142606747Y-54708599D01*
X142592132Y-54688893D01*
X142579520Y-54667850D01*
X142569030Y-54645671D01*
X142560765Y-54622572D01*
X142554804Y-54598773D01*
X142551204Y-54574505D01*
X142550000Y-54550001D01*
X142550000Y-53899999D01*
X142551204Y-53875495D01*
X142554804Y-53851227D01*
X142560765Y-53827428D01*
X142569030Y-53804329D01*
X142579520Y-53782150D01*
X142592132Y-53761107D01*
X142606747Y-53741401D01*
X142623223Y-53723223D01*
X142641401Y-53706747D01*
X142661107Y-53692132D01*
X142682150Y-53679520D01*
X142704329Y-53669030D01*
X142727428Y-53660765D01*
X142751227Y-53654804D01*
X142775495Y-53651204D01*
X142799999Y-53650000D01*
X143700001Y-53650000D01*
X143724505Y-53651204D01*
G37*
G36*
X166374505Y-53451204D02*
G01*
X166398773Y-53454804D01*
X166422572Y-53460765D01*
X166445671Y-53469030D01*
X166467850Y-53479520D01*
X166488893Y-53492132D01*
X166508599Y-53506747D01*
X166526777Y-53523223D01*
X166543253Y-53541401D01*
X166557868Y-53561107D01*
X166570480Y-53582150D01*
X166580970Y-53604329D01*
X166589235Y-53627428D01*
X166595196Y-53651227D01*
X166598796Y-53675495D01*
X166600000Y-53699999D01*
X166600000Y-54350001D01*
X166598796Y-54374505D01*
X166595196Y-54398773D01*
X166589235Y-54422572D01*
X166580970Y-54445671D01*
X166570480Y-54467850D01*
X166557868Y-54488893D01*
X166543253Y-54508599D01*
X166526777Y-54526777D01*
X166508599Y-54543253D01*
X166488893Y-54557868D01*
X166467850Y-54570480D01*
X166445671Y-54580970D01*
X166422572Y-54589235D01*
X166398773Y-54595196D01*
X166374505Y-54598796D01*
X166350001Y-54600000D01*
X165449999Y-54600000D01*
X165425495Y-54598796D01*
X165401227Y-54595196D01*
X165377428Y-54589235D01*
X165354329Y-54580970D01*
X165332150Y-54570480D01*
X165311107Y-54557868D01*
X165291401Y-54543253D01*
X165273223Y-54526777D01*
X165256747Y-54508599D01*
X165242132Y-54488893D01*
X165229520Y-54467850D01*
X165219030Y-54445671D01*
X165210765Y-54422572D01*
X165204804Y-54398773D01*
X165201204Y-54374505D01*
X165200000Y-54350001D01*
X165200000Y-53699999D01*
X165201204Y-53675495D01*
X165204804Y-53651227D01*
X165210765Y-53627428D01*
X165219030Y-53604329D01*
X165229520Y-53582150D01*
X165242132Y-53561107D01*
X165256747Y-53541401D01*
X165273223Y-53523223D01*
X165291401Y-53506747D01*
X165311107Y-53492132D01*
X165332150Y-53479520D01*
X165354329Y-53469030D01*
X165377428Y-53460765D01*
X165401227Y-53454804D01*
X165425495Y-53451204D01*
X165449999Y-53450000D01*
X166350001Y-53450000D01*
X166374505Y-53451204D01*
G37*
G36*
X166374505Y-51401204D02*
G01*
X166398773Y-51404804D01*
X166422572Y-51410765D01*
X166445671Y-51419030D01*
X166467850Y-51429520D01*
X166488893Y-51442132D01*
X166508599Y-51456747D01*
X166526777Y-51473223D01*
X166543253Y-51491401D01*
X166557868Y-51511107D01*
X166570480Y-51532150D01*
X166580970Y-51554329D01*
X166589235Y-51577428D01*
X166595196Y-51601227D01*
X166598796Y-51625495D01*
X166600000Y-51649999D01*
X166600000Y-52300001D01*
X166598796Y-52324505D01*
X166595196Y-52348773D01*
X166589235Y-52372572D01*
X166580970Y-52395671D01*
X166570480Y-52417850D01*
X166557868Y-52438893D01*
X166543253Y-52458599D01*
X166526777Y-52476777D01*
X166508599Y-52493253D01*
X166488893Y-52507868D01*
X166467850Y-52520480D01*
X166445671Y-52530970D01*
X166422572Y-52539235D01*
X166398773Y-52545196D01*
X166374505Y-52548796D01*
X166350001Y-52550000D01*
X165449999Y-52550000D01*
X165425495Y-52548796D01*
X165401227Y-52545196D01*
X165377428Y-52539235D01*
X165354329Y-52530970D01*
X165332150Y-52520480D01*
X165311107Y-52507868D01*
X165291401Y-52493253D01*
X165273223Y-52476777D01*
X165256747Y-52458599D01*
X165242132Y-52438893D01*
X165229520Y-52417850D01*
X165219030Y-52395671D01*
X165210765Y-52372572D01*
X165204804Y-52348773D01*
X165201204Y-52324505D01*
X165200000Y-52300001D01*
X165200000Y-51649999D01*
X165201204Y-51625495D01*
X165204804Y-51601227D01*
X165210765Y-51577428D01*
X165219030Y-51554329D01*
X165229520Y-51532150D01*
X165242132Y-51511107D01*
X165256747Y-51491401D01*
X165273223Y-51473223D01*
X165291401Y-51456747D01*
X165311107Y-51442132D01*
X165332150Y-51429520D01*
X165354329Y-51419030D01*
X165377428Y-51410765D01*
X165401227Y-51404804D01*
X165425495Y-51401204D01*
X165449999Y-51400000D01*
X166350001Y-51400000D01*
X166374505Y-51401204D01*
G37*
G36*
X181274505Y-51301204D02*
G01*
X181298773Y-51304804D01*
X181322572Y-51310765D01*
X181345671Y-51319030D01*
X181367850Y-51329520D01*
X181388893Y-51342132D01*
X181408599Y-51356747D01*
X181426777Y-51373223D01*
X181443253Y-51391401D01*
X181457868Y-51411107D01*
X181470480Y-51432150D01*
X181480970Y-51454329D01*
X181489235Y-51477428D01*
X181495196Y-51501227D01*
X181498796Y-51525495D01*
X181500000Y-51549999D01*
X181500000Y-52200001D01*
X181498796Y-52224505D01*
X181495196Y-52248773D01*
X181489235Y-52272572D01*
X181480970Y-52295671D01*
X181470480Y-52317850D01*
X181457868Y-52338893D01*
X181443253Y-52358599D01*
X181426777Y-52376777D01*
X181408599Y-52393253D01*
X181388893Y-52407868D01*
X181367850Y-52420480D01*
X181345671Y-52430970D01*
X181322572Y-52439235D01*
X181298773Y-52445196D01*
X181274505Y-52448796D01*
X181250001Y-52450000D01*
X180349999Y-52450000D01*
X180325495Y-52448796D01*
X180301227Y-52445196D01*
X180277428Y-52439235D01*
X180254329Y-52430970D01*
X180232150Y-52420480D01*
X180211107Y-52407868D01*
X180191401Y-52393253D01*
X180173223Y-52376777D01*
X180156747Y-52358599D01*
X180142132Y-52338893D01*
X180129520Y-52317850D01*
X180119030Y-52295671D01*
X180110765Y-52272572D01*
X180104804Y-52248773D01*
X180101204Y-52224505D01*
X180100000Y-52200001D01*
X180100000Y-51549999D01*
X180101204Y-51525495D01*
X180104804Y-51501227D01*
X180110765Y-51477428D01*
X180119030Y-51454329D01*
X180129520Y-51432150D01*
X180142132Y-51411107D01*
X180156747Y-51391401D01*
X180173223Y-51373223D01*
X180191401Y-51356747D01*
X180211107Y-51342132D01*
X180232150Y-51329520D01*
X180254329Y-51319030D01*
X180277428Y-51310765D01*
X180301227Y-51304804D01*
X180325495Y-51301204D01*
X180349999Y-51300000D01*
X181250001Y-51300000D01*
X181274505Y-51301204D01*
G37*
G36*
X181274505Y-53351204D02*
G01*
X181298773Y-53354804D01*
X181322572Y-53360765D01*
X181345671Y-53369030D01*
X181367850Y-53379520D01*
X181388893Y-53392132D01*
X181408599Y-53406747D01*
X181426777Y-53423223D01*
X181443253Y-53441401D01*
X181457868Y-53461107D01*
X181470480Y-53482150D01*
X181480970Y-53504329D01*
X181489235Y-53527428D01*
X181495196Y-53551227D01*
X181498796Y-53575495D01*
X181500000Y-53599999D01*
X181500000Y-54250001D01*
X181498796Y-54274505D01*
X181495196Y-54298773D01*
X181489235Y-54322572D01*
X181480970Y-54345671D01*
X181470480Y-54367850D01*
X181457868Y-54388893D01*
X181443253Y-54408599D01*
X181426777Y-54426777D01*
X181408599Y-54443253D01*
X181388893Y-54457868D01*
X181367850Y-54470480D01*
X181345671Y-54480970D01*
X181322572Y-54489235D01*
X181298773Y-54495196D01*
X181274505Y-54498796D01*
X181250001Y-54500000D01*
X180349999Y-54500000D01*
X180325495Y-54498796D01*
X180301227Y-54495196D01*
X180277428Y-54489235D01*
X180254329Y-54480970D01*
X180232150Y-54470480D01*
X180211107Y-54457868D01*
X180191401Y-54443253D01*
X180173223Y-54426777D01*
X180156747Y-54408599D01*
X180142132Y-54388893D01*
X180129520Y-54367850D01*
X180119030Y-54345671D01*
X180110765Y-54322572D01*
X180104804Y-54298773D01*
X180101204Y-54274505D01*
X180100000Y-54250001D01*
X180100000Y-53599999D01*
X180101204Y-53575495D01*
X180104804Y-53551227D01*
X180110765Y-53527428D01*
X180119030Y-53504329D01*
X180129520Y-53482150D01*
X180142132Y-53461107D01*
X180156747Y-53441401D01*
X180173223Y-53423223D01*
X180191401Y-53406747D01*
X180211107Y-53392132D01*
X180232150Y-53379520D01*
X180254329Y-53369030D01*
X180277428Y-53360765D01*
X180301227Y-53354804D01*
X180325495Y-53351204D01*
X180349999Y-53350000D01*
X181250001Y-53350000D01*
X181274505Y-53351204D01*
G37*
G36*
X161474505Y-90651204D02*
G01*
X161498773Y-90654804D01*
X161522572Y-90660765D01*
X161545671Y-90669030D01*
X161567850Y-90679520D01*
X161588893Y-90692132D01*
X161608599Y-90706747D01*
X161626777Y-90723223D01*
X161643253Y-90741401D01*
X161657868Y-90761107D01*
X161670480Y-90782150D01*
X161680970Y-90804329D01*
X161689235Y-90827428D01*
X161695196Y-90851227D01*
X161698796Y-90875495D01*
X161700000Y-90899999D01*
X161700000Y-91800001D01*
X161698796Y-91824505D01*
X161695196Y-91848773D01*
X161689235Y-91872572D01*
X161680970Y-91895671D01*
X161670480Y-91917850D01*
X161657868Y-91938893D01*
X161643253Y-91958599D01*
X161626777Y-91976777D01*
X161608599Y-91993253D01*
X161588893Y-92007868D01*
X161567850Y-92020480D01*
X161545671Y-92030970D01*
X161522572Y-92039235D01*
X161498773Y-92045196D01*
X161474505Y-92048796D01*
X161450001Y-92050000D01*
X160799999Y-92050000D01*
X160775495Y-92048796D01*
X160751227Y-92045196D01*
X160727428Y-92039235D01*
X160704329Y-92030970D01*
X160682150Y-92020480D01*
X160661107Y-92007868D01*
X160641401Y-91993253D01*
X160623223Y-91976777D01*
X160606747Y-91958599D01*
X160592132Y-91938893D01*
X160579520Y-91917850D01*
X160569030Y-91895671D01*
X160560765Y-91872572D01*
X160554804Y-91848773D01*
X160551204Y-91824505D01*
X160550000Y-91800001D01*
X160550000Y-90899999D01*
X160551204Y-90875495D01*
X160554804Y-90851227D01*
X160560765Y-90827428D01*
X160569030Y-90804329D01*
X160579520Y-90782150D01*
X160592132Y-90761107D01*
X160606747Y-90741401D01*
X160623223Y-90723223D01*
X160641401Y-90706747D01*
X160661107Y-90692132D01*
X160682150Y-90679520D01*
X160704329Y-90669030D01*
X160727428Y-90660765D01*
X160751227Y-90654804D01*
X160775495Y-90651204D01*
X160799999Y-90650000D01*
X161450001Y-90650000D01*
X161474505Y-90651204D01*
G37*
G36*
X163524505Y-90651204D02*
G01*
X163548773Y-90654804D01*
X163572572Y-90660765D01*
X163595671Y-90669030D01*
X163617850Y-90679520D01*
X163638893Y-90692132D01*
X163658599Y-90706747D01*
X163676777Y-90723223D01*
X163693253Y-90741401D01*
X163707868Y-90761107D01*
X163720480Y-90782150D01*
X163730970Y-90804329D01*
X163739235Y-90827428D01*
X163745196Y-90851227D01*
X163748796Y-90875495D01*
X163750000Y-90899999D01*
X163750000Y-91800001D01*
X163748796Y-91824505D01*
X163745196Y-91848773D01*
X163739235Y-91872572D01*
X163730970Y-91895671D01*
X163720480Y-91917850D01*
X163707868Y-91938893D01*
X163693253Y-91958599D01*
X163676777Y-91976777D01*
X163658599Y-91993253D01*
X163638893Y-92007868D01*
X163617850Y-92020480D01*
X163595671Y-92030970D01*
X163572572Y-92039235D01*
X163548773Y-92045196D01*
X163524505Y-92048796D01*
X163500001Y-92050000D01*
X162849999Y-92050000D01*
X162825495Y-92048796D01*
X162801227Y-92045196D01*
X162777428Y-92039235D01*
X162754329Y-92030970D01*
X162732150Y-92020480D01*
X162711107Y-92007868D01*
X162691401Y-91993253D01*
X162673223Y-91976777D01*
X162656747Y-91958599D01*
X162642132Y-91938893D01*
X162629520Y-91917850D01*
X162619030Y-91895671D01*
X162610765Y-91872572D01*
X162604804Y-91848773D01*
X162601204Y-91824505D01*
X162600000Y-91800001D01*
X162600000Y-90899999D01*
X162601204Y-90875495D01*
X162604804Y-90851227D01*
X162610765Y-90827428D01*
X162619030Y-90804329D01*
X162629520Y-90782150D01*
X162642132Y-90761107D01*
X162656747Y-90741401D01*
X162673223Y-90723223D01*
X162691401Y-90706747D01*
X162711107Y-90692132D01*
X162732150Y-90679520D01*
X162754329Y-90669030D01*
X162777428Y-90660765D01*
X162801227Y-90654804D01*
X162825495Y-90651204D01*
X162849999Y-90650000D01*
X163500001Y-90650000D01*
X163524505Y-90651204D01*
G37*
G36*
X146174505Y-126301204D02*
G01*
X146198773Y-126304804D01*
X146222572Y-126310765D01*
X146245671Y-126319030D01*
X146267850Y-126329520D01*
X146288893Y-126342132D01*
X146308599Y-126356747D01*
X146326777Y-126373223D01*
X146343253Y-126391401D01*
X146357868Y-126411107D01*
X146370480Y-126432150D01*
X146380970Y-126454329D01*
X146389235Y-126477428D01*
X146395196Y-126501227D01*
X146398796Y-126525495D01*
X146400000Y-126549999D01*
X146400000Y-127450001D01*
X146398796Y-127474505D01*
X146395196Y-127498773D01*
X146389235Y-127522572D01*
X146380970Y-127545671D01*
X146370480Y-127567850D01*
X146357868Y-127588893D01*
X146343253Y-127608599D01*
X146326777Y-127626777D01*
X146308599Y-127643253D01*
X146288893Y-127657868D01*
X146267850Y-127670480D01*
X146245671Y-127680970D01*
X146222572Y-127689235D01*
X146198773Y-127695196D01*
X146174505Y-127698796D01*
X146150001Y-127700000D01*
X145499999Y-127700000D01*
X145475495Y-127698796D01*
X145451227Y-127695196D01*
X145427428Y-127689235D01*
X145404329Y-127680970D01*
X145382150Y-127670480D01*
X145361107Y-127657868D01*
X145341401Y-127643253D01*
X145323223Y-127626777D01*
X145306747Y-127608599D01*
X145292132Y-127588893D01*
X145279520Y-127567850D01*
X145269030Y-127545671D01*
X145260765Y-127522572D01*
X145254804Y-127498773D01*
X145251204Y-127474505D01*
X145250000Y-127450001D01*
X145250000Y-126549999D01*
X145251204Y-126525495D01*
X145254804Y-126501227D01*
X145260765Y-126477428D01*
X145269030Y-126454329D01*
X145279520Y-126432150D01*
X145292132Y-126411107D01*
X145306747Y-126391401D01*
X145323223Y-126373223D01*
X145341401Y-126356747D01*
X145361107Y-126342132D01*
X145382150Y-126329520D01*
X145404329Y-126319030D01*
X145427428Y-126310765D01*
X145451227Y-126304804D01*
X145475495Y-126301204D01*
X145499999Y-126300000D01*
X146150001Y-126300000D01*
X146174505Y-126301204D01*
G37*
G36*
X148224505Y-126301204D02*
G01*
X148248773Y-126304804D01*
X148272572Y-126310765D01*
X148295671Y-126319030D01*
X148317850Y-126329520D01*
X148338893Y-126342132D01*
X148358599Y-126356747D01*
X148376777Y-126373223D01*
X148393253Y-126391401D01*
X148407868Y-126411107D01*
X148420480Y-126432150D01*
X148430970Y-126454329D01*
X148439235Y-126477428D01*
X148445196Y-126501227D01*
X148448796Y-126525495D01*
X148450000Y-126549999D01*
X148450000Y-127450001D01*
X148448796Y-127474505D01*
X148445196Y-127498773D01*
X148439235Y-127522572D01*
X148430970Y-127545671D01*
X148420480Y-127567850D01*
X148407868Y-127588893D01*
X148393253Y-127608599D01*
X148376777Y-127626777D01*
X148358599Y-127643253D01*
X148338893Y-127657868D01*
X148317850Y-127670480D01*
X148295671Y-127680970D01*
X148272572Y-127689235D01*
X148248773Y-127695196D01*
X148224505Y-127698796D01*
X148200001Y-127700000D01*
X147549999Y-127700000D01*
X147525495Y-127698796D01*
X147501227Y-127695196D01*
X147477428Y-127689235D01*
X147454329Y-127680970D01*
X147432150Y-127670480D01*
X147411107Y-127657868D01*
X147391401Y-127643253D01*
X147373223Y-127626777D01*
X147356747Y-127608599D01*
X147342132Y-127588893D01*
X147329520Y-127567850D01*
X147319030Y-127545671D01*
X147310765Y-127522572D01*
X147304804Y-127498773D01*
X147301204Y-127474505D01*
X147300000Y-127450001D01*
X147300000Y-126549999D01*
X147301204Y-126525495D01*
X147304804Y-126501227D01*
X147310765Y-126477428D01*
X147319030Y-126454329D01*
X147329520Y-126432150D01*
X147342132Y-126411107D01*
X147356747Y-126391401D01*
X147373223Y-126373223D01*
X147391401Y-126356747D01*
X147411107Y-126342132D01*
X147432150Y-126329520D01*
X147454329Y-126319030D01*
X147477428Y-126310765D01*
X147501227Y-126304804D01*
X147525495Y-126301204D01*
X147549999Y-126300000D01*
X148200001Y-126300000D01*
X148224505Y-126301204D01*
G37*
G36*
X176424505Y-126401204D02*
G01*
X176448773Y-126404804D01*
X176472572Y-126410765D01*
X176495671Y-126419030D01*
X176517850Y-126429520D01*
X176538893Y-126442132D01*
X176558599Y-126456747D01*
X176576777Y-126473223D01*
X176593253Y-126491401D01*
X176607868Y-126511107D01*
X176620480Y-126532150D01*
X176630970Y-126554329D01*
X176639235Y-126577428D01*
X176645196Y-126601227D01*
X176648796Y-126625495D01*
X176650000Y-126649999D01*
X176650000Y-127550001D01*
X176648796Y-127574505D01*
X176645196Y-127598773D01*
X176639235Y-127622572D01*
X176630970Y-127645671D01*
X176620480Y-127667850D01*
X176607868Y-127688893D01*
X176593253Y-127708599D01*
X176576777Y-127726777D01*
X176558599Y-127743253D01*
X176538893Y-127757868D01*
X176517850Y-127770480D01*
X176495671Y-127780970D01*
X176472572Y-127789235D01*
X176448773Y-127795196D01*
X176424505Y-127798796D01*
X176400001Y-127800000D01*
X175749999Y-127800000D01*
X175725495Y-127798796D01*
X175701227Y-127795196D01*
X175677428Y-127789235D01*
X175654329Y-127780970D01*
X175632150Y-127770480D01*
X175611107Y-127757868D01*
X175591401Y-127743253D01*
X175573223Y-127726777D01*
X175556747Y-127708599D01*
X175542132Y-127688893D01*
X175529520Y-127667850D01*
X175519030Y-127645671D01*
X175510765Y-127622572D01*
X175504804Y-127598773D01*
X175501204Y-127574505D01*
X175500000Y-127550001D01*
X175500000Y-126649999D01*
X175501204Y-126625495D01*
X175504804Y-126601227D01*
X175510765Y-126577428D01*
X175519030Y-126554329D01*
X175529520Y-126532150D01*
X175542132Y-126511107D01*
X175556747Y-126491401D01*
X175573223Y-126473223D01*
X175591401Y-126456747D01*
X175611107Y-126442132D01*
X175632150Y-126429520D01*
X175654329Y-126419030D01*
X175677428Y-126410765D01*
X175701227Y-126404804D01*
X175725495Y-126401204D01*
X175749999Y-126400000D01*
X176400001Y-126400000D01*
X176424505Y-126401204D01*
G37*
G36*
X178474505Y-126401204D02*
G01*
X178498773Y-126404804D01*
X178522572Y-126410765D01*
X178545671Y-126419030D01*
X178567850Y-126429520D01*
X178588893Y-126442132D01*
X178608599Y-126456747D01*
X178626777Y-126473223D01*
X178643253Y-126491401D01*
X178657868Y-126511107D01*
X178670480Y-126532150D01*
X178680970Y-126554329D01*
X178689235Y-126577428D01*
X178695196Y-126601227D01*
X178698796Y-126625495D01*
X178700000Y-126649999D01*
X178700000Y-127550001D01*
X178698796Y-127574505D01*
X178695196Y-127598773D01*
X178689235Y-127622572D01*
X178680970Y-127645671D01*
X178670480Y-127667850D01*
X178657868Y-127688893D01*
X178643253Y-127708599D01*
X178626777Y-127726777D01*
X178608599Y-127743253D01*
X178588893Y-127757868D01*
X178567850Y-127770480D01*
X178545671Y-127780970D01*
X178522572Y-127789235D01*
X178498773Y-127795196D01*
X178474505Y-127798796D01*
X178450001Y-127800000D01*
X177799999Y-127800000D01*
X177775495Y-127798796D01*
X177751227Y-127795196D01*
X177727428Y-127789235D01*
X177704329Y-127780970D01*
X177682150Y-127770480D01*
X177661107Y-127757868D01*
X177641401Y-127743253D01*
X177623223Y-127726777D01*
X177606747Y-127708599D01*
X177592132Y-127688893D01*
X177579520Y-127667850D01*
X177569030Y-127645671D01*
X177560765Y-127622572D01*
X177554804Y-127598773D01*
X177551204Y-127574505D01*
X177550000Y-127550001D01*
X177550000Y-126649999D01*
X177551204Y-126625495D01*
X177554804Y-126601227D01*
X177560765Y-126577428D01*
X177569030Y-126554329D01*
X177579520Y-126532150D01*
X177592132Y-126511107D01*
X177606747Y-126491401D01*
X177623223Y-126473223D01*
X177641401Y-126456747D01*
X177661107Y-126442132D01*
X177682150Y-126429520D01*
X177704329Y-126419030D01*
X177727428Y-126410765D01*
X177751227Y-126404804D01*
X177775495Y-126401204D01*
X177799999Y-126400000D01*
X178450001Y-126400000D01*
X178474505Y-126401204D01*
G37*
G36*
X163524505Y-126451204D02*
G01*
X163548773Y-126454804D01*
X163572572Y-126460765D01*
X163595671Y-126469030D01*
X163617850Y-126479520D01*
X163638893Y-126492132D01*
X163658599Y-126506747D01*
X163676777Y-126523223D01*
X163693253Y-126541401D01*
X163707868Y-126561107D01*
X163720480Y-126582150D01*
X163730970Y-126604329D01*
X163739235Y-126627428D01*
X163745196Y-126651227D01*
X163748796Y-126675495D01*
X163750000Y-126699999D01*
X163750000Y-127600001D01*
X163748796Y-127624505D01*
X163745196Y-127648773D01*
X163739235Y-127672572D01*
X163730970Y-127695671D01*
X163720480Y-127717850D01*
X163707868Y-127738893D01*
X163693253Y-127758599D01*
X163676777Y-127776777D01*
X163658599Y-127793253D01*
X163638893Y-127807868D01*
X163617850Y-127820480D01*
X163595671Y-127830970D01*
X163572572Y-127839235D01*
X163548773Y-127845196D01*
X163524505Y-127848796D01*
X163500001Y-127850000D01*
X162849999Y-127850000D01*
X162825495Y-127848796D01*
X162801227Y-127845196D01*
X162777428Y-127839235D01*
X162754329Y-127830970D01*
X162732150Y-127820480D01*
X162711107Y-127807868D01*
X162691401Y-127793253D01*
X162673223Y-127776777D01*
X162656747Y-127758599D01*
X162642132Y-127738893D01*
X162629520Y-127717850D01*
X162619030Y-127695671D01*
X162610765Y-127672572D01*
X162604804Y-127648773D01*
X162601204Y-127624505D01*
X162600000Y-127600001D01*
X162600000Y-126699999D01*
X162601204Y-126675495D01*
X162604804Y-126651227D01*
X162610765Y-126627428D01*
X162619030Y-126604329D01*
X162629520Y-126582150D01*
X162642132Y-126561107D01*
X162656747Y-126541401D01*
X162673223Y-126523223D01*
X162691401Y-126506747D01*
X162711107Y-126492132D01*
X162732150Y-126479520D01*
X162754329Y-126469030D01*
X162777428Y-126460765D01*
X162801227Y-126454804D01*
X162825495Y-126451204D01*
X162849999Y-126450000D01*
X163500001Y-126450000D01*
X163524505Y-126451204D01*
G37*
G36*
X161474505Y-126451204D02*
G01*
X161498773Y-126454804D01*
X161522572Y-126460765D01*
X161545671Y-126469030D01*
X161567850Y-126479520D01*
X161588893Y-126492132D01*
X161608599Y-126506747D01*
X161626777Y-126523223D01*
X161643253Y-126541401D01*
X161657868Y-126561107D01*
X161670480Y-126582150D01*
X161680970Y-126604329D01*
X161689235Y-126627428D01*
X161695196Y-126651227D01*
X161698796Y-126675495D01*
X161700000Y-126699999D01*
X161700000Y-127600001D01*
X161698796Y-127624505D01*
X161695196Y-127648773D01*
X161689235Y-127672572D01*
X161680970Y-127695671D01*
X161670480Y-127717850D01*
X161657868Y-127738893D01*
X161643253Y-127758599D01*
X161626777Y-127776777D01*
X161608599Y-127793253D01*
X161588893Y-127807868D01*
X161567850Y-127820480D01*
X161545671Y-127830970D01*
X161522572Y-127839235D01*
X161498773Y-127845196D01*
X161474505Y-127848796D01*
X161450001Y-127850000D01*
X160799999Y-127850000D01*
X160775495Y-127848796D01*
X160751227Y-127845196D01*
X160727428Y-127839235D01*
X160704329Y-127830970D01*
X160682150Y-127820480D01*
X160661107Y-127807868D01*
X160641401Y-127793253D01*
X160623223Y-127776777D01*
X160606747Y-127758599D01*
X160592132Y-127738893D01*
X160579520Y-127717850D01*
X160569030Y-127695671D01*
X160560765Y-127672572D01*
X160554804Y-127648773D01*
X160551204Y-127624505D01*
X160550000Y-127600001D01*
X160550000Y-126699999D01*
X160551204Y-126675495D01*
X160554804Y-126651227D01*
X160560765Y-126627428D01*
X160569030Y-126604329D01*
X160579520Y-126582150D01*
X160592132Y-126561107D01*
X160606747Y-126541401D01*
X160623223Y-126523223D01*
X160641401Y-126506747D01*
X160661107Y-126492132D01*
X160682150Y-126479520D01*
X160704329Y-126469030D01*
X160727428Y-126460765D01*
X160751227Y-126454804D01*
X160775495Y-126451204D01*
X160799999Y-126450000D01*
X161450001Y-126450000D01*
X161474505Y-126451204D01*
G37*
G36*
X44474505Y-47251204D02*
G01*
X44498773Y-47254804D01*
X44522572Y-47260765D01*
X44545671Y-47269030D01*
X44567850Y-47279520D01*
X44588893Y-47292132D01*
X44608599Y-47306747D01*
X44626777Y-47323223D01*
X44643253Y-47341401D01*
X44657868Y-47361107D01*
X44670480Y-47382150D01*
X44680970Y-47404329D01*
X44689235Y-47427428D01*
X44695196Y-47451227D01*
X44698796Y-47475495D01*
X44700000Y-47499999D01*
X44700000Y-48400001D01*
X44698796Y-48424505D01*
X44695196Y-48448773D01*
X44689235Y-48472572D01*
X44680970Y-48495671D01*
X44670480Y-48517850D01*
X44657868Y-48538893D01*
X44643253Y-48558599D01*
X44626777Y-48576777D01*
X44608599Y-48593253D01*
X44588893Y-48607868D01*
X44567850Y-48620480D01*
X44545671Y-48630970D01*
X44522572Y-48639235D01*
X44498773Y-48645196D01*
X44474505Y-48648796D01*
X44450001Y-48650000D01*
X43799999Y-48650000D01*
X43775495Y-48648796D01*
X43751227Y-48645196D01*
X43727428Y-48639235D01*
X43704329Y-48630970D01*
X43682150Y-48620480D01*
X43661107Y-48607868D01*
X43641401Y-48593253D01*
X43623223Y-48576777D01*
X43606747Y-48558599D01*
X43592132Y-48538893D01*
X43579520Y-48517850D01*
X43569030Y-48495671D01*
X43560765Y-48472572D01*
X43554804Y-48448773D01*
X43551204Y-48424505D01*
X43550000Y-48400001D01*
X43550000Y-47499999D01*
X43551204Y-47475495D01*
X43554804Y-47451227D01*
X43560765Y-47427428D01*
X43569030Y-47404329D01*
X43579520Y-47382150D01*
X43592132Y-47361107D01*
X43606747Y-47341401D01*
X43623223Y-47323223D01*
X43641401Y-47306747D01*
X43661107Y-47292132D01*
X43682150Y-47279520D01*
X43704329Y-47269030D01*
X43727428Y-47260765D01*
X43751227Y-47254804D01*
X43775495Y-47251204D01*
X43799999Y-47250000D01*
X44450001Y-47250000D01*
X44474505Y-47251204D01*
G37*
G36*
X42424505Y-47251204D02*
G01*
X42448773Y-47254804D01*
X42472572Y-47260765D01*
X42495671Y-47269030D01*
X42517850Y-47279520D01*
X42538893Y-47292132D01*
X42558599Y-47306747D01*
X42576777Y-47323223D01*
X42593253Y-47341401D01*
X42607868Y-47361107D01*
X42620480Y-47382150D01*
X42630970Y-47404329D01*
X42639235Y-47427428D01*
X42645196Y-47451227D01*
X42648796Y-47475495D01*
X42650000Y-47499999D01*
X42650000Y-48400001D01*
X42648796Y-48424505D01*
X42645196Y-48448773D01*
X42639235Y-48472572D01*
X42630970Y-48495671D01*
X42620480Y-48517850D01*
X42607868Y-48538893D01*
X42593253Y-48558599D01*
X42576777Y-48576777D01*
X42558599Y-48593253D01*
X42538893Y-48607868D01*
X42517850Y-48620480D01*
X42495671Y-48630970D01*
X42472572Y-48639235D01*
X42448773Y-48645196D01*
X42424505Y-48648796D01*
X42400001Y-48650000D01*
X41749999Y-48650000D01*
X41725495Y-48648796D01*
X41701227Y-48645196D01*
X41677428Y-48639235D01*
X41654329Y-48630970D01*
X41632150Y-48620480D01*
X41611107Y-48607868D01*
X41591401Y-48593253D01*
X41573223Y-48576777D01*
X41556747Y-48558599D01*
X41542132Y-48538893D01*
X41529520Y-48517850D01*
X41519030Y-48495671D01*
X41510765Y-48472572D01*
X41504804Y-48448773D01*
X41501204Y-48424505D01*
X41500000Y-48400001D01*
X41500000Y-47499999D01*
X41501204Y-47475495D01*
X41504804Y-47451227D01*
X41510765Y-47427428D01*
X41519030Y-47404329D01*
X41529520Y-47382150D01*
X41542132Y-47361107D01*
X41556747Y-47341401D01*
X41573223Y-47323223D01*
X41591401Y-47306747D01*
X41611107Y-47292132D01*
X41632150Y-47279520D01*
X41654329Y-47269030D01*
X41677428Y-47260765D01*
X41701227Y-47254804D01*
X41725495Y-47251204D01*
X41749999Y-47250000D01*
X42400001Y-47250000D01*
X42424505Y-47251204D01*
G37*
D18*
X172700000Y-92550000D03*
D17*
X173650000Y-90350000D03*
X171750000Y-90350000D03*
X167100000Y-90350000D03*
X169000000Y-90350000D03*
D18*
X168050000Y-92550000D03*
D16*
X172050000Y-78972000D03*
X172050000Y-76128000D03*
X172700000Y-86472000D03*
X172700000Y-83628000D03*
X168400000Y-78972000D03*
X168400000Y-76128000D03*
X168050000Y-86472000D03*
X168050000Y-83628000D03*
D22*
X133340000Y-119951000D03*
X133340000Y-124269000D03*
X130800000Y-119951000D03*
X130800000Y-124269000D03*
X128260000Y-124269000D03*
X128260000Y-119951000D03*
X125720000Y-124269000D03*
X125720000Y-119951000D03*
X123180000Y-124269000D03*
X123180000Y-119951000D03*
X120640000Y-124269000D03*
X120640000Y-119951000D03*
X118100000Y-124269000D03*
X118100000Y-119951000D03*
X115560000Y-124269000D03*
X115560000Y-119951000D03*
X113020000Y-124269000D03*
X113020000Y-119951000D03*
X110480000Y-124269000D03*
X110480000Y-119951000D03*
X107940000Y-124269000D03*
X107940000Y-119951000D03*
X105400000Y-124269000D03*
X105400000Y-119951000D03*
X102860000Y-124269000D03*
X102860000Y-119951000D03*
X100320000Y-124269000D03*
X100320000Y-119951000D03*
D11*
G36*
X78724505Y-47801204D02*
G01*
X78748773Y-47804804D01*
X78772572Y-47810765D01*
X78795671Y-47819030D01*
X78817850Y-47829520D01*
X78838893Y-47842132D01*
X78858599Y-47856747D01*
X78876777Y-47873223D01*
X78893253Y-47891401D01*
X78907868Y-47911107D01*
X78920480Y-47932150D01*
X78930970Y-47954329D01*
X78939235Y-47977428D01*
X78945196Y-48001227D01*
X78948796Y-48025495D01*
X78950000Y-48049999D01*
X78950000Y-48950001D01*
X78948796Y-48974505D01*
X78945196Y-48998773D01*
X78939235Y-49022572D01*
X78930970Y-49045671D01*
X78920480Y-49067850D01*
X78907868Y-49088893D01*
X78893253Y-49108599D01*
X78876777Y-49126777D01*
X78858599Y-49143253D01*
X78838893Y-49157868D01*
X78817850Y-49170480D01*
X78795671Y-49180970D01*
X78772572Y-49189235D01*
X78748773Y-49195196D01*
X78724505Y-49198796D01*
X78700001Y-49200000D01*
X78049999Y-49200000D01*
X78025495Y-49198796D01*
X78001227Y-49195196D01*
X77977428Y-49189235D01*
X77954329Y-49180970D01*
X77932150Y-49170480D01*
X77911107Y-49157868D01*
X77891401Y-49143253D01*
X77873223Y-49126777D01*
X77856747Y-49108599D01*
X77842132Y-49088893D01*
X77829520Y-49067850D01*
X77819030Y-49045671D01*
X77810765Y-49022572D01*
X77804804Y-48998773D01*
X77801204Y-48974505D01*
X77800000Y-48950001D01*
X77800000Y-48049999D01*
X77801204Y-48025495D01*
X77804804Y-48001227D01*
X77810765Y-47977428D01*
X77819030Y-47954329D01*
X77829520Y-47932150D01*
X77842132Y-47911107D01*
X77856747Y-47891401D01*
X77873223Y-47873223D01*
X77891401Y-47856747D01*
X77911107Y-47842132D01*
X77932150Y-47829520D01*
X77954329Y-47819030D01*
X77977428Y-47810765D01*
X78001227Y-47804804D01*
X78025495Y-47801204D01*
X78049999Y-47800000D01*
X78700001Y-47800000D01*
X78724505Y-47801204D01*
G37*
G36*
X80774505Y-47801204D02*
G01*
X80798773Y-47804804D01*
X80822572Y-47810765D01*
X80845671Y-47819030D01*
X80867850Y-47829520D01*
X80888893Y-47842132D01*
X80908599Y-47856747D01*
X80926777Y-47873223D01*
X80943253Y-47891401D01*
X80957868Y-47911107D01*
X80970480Y-47932150D01*
X80980970Y-47954329D01*
X80989235Y-47977428D01*
X80995196Y-48001227D01*
X80998796Y-48025495D01*
X81000000Y-48049999D01*
X81000000Y-48950001D01*
X80998796Y-48974505D01*
X80995196Y-48998773D01*
X80989235Y-49022572D01*
X80980970Y-49045671D01*
X80970480Y-49067850D01*
X80957868Y-49088893D01*
X80943253Y-49108599D01*
X80926777Y-49126777D01*
X80908599Y-49143253D01*
X80888893Y-49157868D01*
X80867850Y-49170480D01*
X80845671Y-49180970D01*
X80822572Y-49189235D01*
X80798773Y-49195196D01*
X80774505Y-49198796D01*
X80750001Y-49200000D01*
X80099999Y-49200000D01*
X80075495Y-49198796D01*
X80051227Y-49195196D01*
X80027428Y-49189235D01*
X80004329Y-49180970D01*
X79982150Y-49170480D01*
X79961107Y-49157868D01*
X79941401Y-49143253D01*
X79923223Y-49126777D01*
X79906747Y-49108599D01*
X79892132Y-49088893D01*
X79879520Y-49067850D01*
X79869030Y-49045671D01*
X79860765Y-49022572D01*
X79854804Y-48998773D01*
X79851204Y-48974505D01*
X79850000Y-48950001D01*
X79850000Y-48049999D01*
X79851204Y-48025495D01*
X79854804Y-48001227D01*
X79860765Y-47977428D01*
X79869030Y-47954329D01*
X79879520Y-47932150D01*
X79892132Y-47911107D01*
X79906747Y-47891401D01*
X79923223Y-47873223D01*
X79941401Y-47856747D01*
X79961107Y-47842132D01*
X79982150Y-47829520D01*
X80004329Y-47819030D01*
X80027428Y-47810765D01*
X80051227Y-47804804D01*
X80075495Y-47801204D01*
X80099999Y-47800000D01*
X80750001Y-47800000D01*
X80774505Y-47801204D01*
G37*
G36*
X172474505Y-50601204D02*
G01*
X172498773Y-50604804D01*
X172522572Y-50610765D01*
X172545671Y-50619030D01*
X172567850Y-50629520D01*
X172588893Y-50642132D01*
X172608599Y-50656747D01*
X172626777Y-50673223D01*
X172643253Y-50691401D01*
X172657868Y-50711107D01*
X172670480Y-50732150D01*
X172680970Y-50754329D01*
X172689235Y-50777428D01*
X172695196Y-50801227D01*
X172698796Y-50825495D01*
X172700000Y-50849999D01*
X172700000Y-51500001D01*
X172698796Y-51524505D01*
X172695196Y-51548773D01*
X172689235Y-51572572D01*
X172680970Y-51595671D01*
X172670480Y-51617850D01*
X172657868Y-51638893D01*
X172643253Y-51658599D01*
X172626777Y-51676777D01*
X172608599Y-51693253D01*
X172588893Y-51707868D01*
X172567850Y-51720480D01*
X172545671Y-51730970D01*
X172522572Y-51739235D01*
X172498773Y-51745196D01*
X172474505Y-51748796D01*
X172450001Y-51750000D01*
X171549999Y-51750000D01*
X171525495Y-51748796D01*
X171501227Y-51745196D01*
X171477428Y-51739235D01*
X171454329Y-51730970D01*
X171432150Y-51720480D01*
X171411107Y-51707868D01*
X171391401Y-51693253D01*
X171373223Y-51676777D01*
X171356747Y-51658599D01*
X171342132Y-51638893D01*
X171329520Y-51617850D01*
X171319030Y-51595671D01*
X171310765Y-51572572D01*
X171304804Y-51548773D01*
X171301204Y-51524505D01*
X171300000Y-51500001D01*
X171300000Y-50849999D01*
X171301204Y-50825495D01*
X171304804Y-50801227D01*
X171310765Y-50777428D01*
X171319030Y-50754329D01*
X171329520Y-50732150D01*
X171342132Y-50711107D01*
X171356747Y-50691401D01*
X171373223Y-50673223D01*
X171391401Y-50656747D01*
X171411107Y-50642132D01*
X171432150Y-50629520D01*
X171454329Y-50619030D01*
X171477428Y-50610765D01*
X171501227Y-50604804D01*
X171525495Y-50601204D01*
X171549999Y-50600000D01*
X172450001Y-50600000D01*
X172474505Y-50601204D01*
G37*
G36*
X172474505Y-52651204D02*
G01*
X172498773Y-52654804D01*
X172522572Y-52660765D01*
X172545671Y-52669030D01*
X172567850Y-52679520D01*
X172588893Y-52692132D01*
X172608599Y-52706747D01*
X172626777Y-52723223D01*
X172643253Y-52741401D01*
X172657868Y-52761107D01*
X172670480Y-52782150D01*
X172680970Y-52804329D01*
X172689235Y-52827428D01*
X172695196Y-52851227D01*
X172698796Y-52875495D01*
X172700000Y-52899999D01*
X172700000Y-53550001D01*
X172698796Y-53574505D01*
X172695196Y-53598773D01*
X172689235Y-53622572D01*
X172680970Y-53645671D01*
X172670480Y-53667850D01*
X172657868Y-53688893D01*
X172643253Y-53708599D01*
X172626777Y-53726777D01*
X172608599Y-53743253D01*
X172588893Y-53757868D01*
X172567850Y-53770480D01*
X172545671Y-53780970D01*
X172522572Y-53789235D01*
X172498773Y-53795196D01*
X172474505Y-53798796D01*
X172450001Y-53800000D01*
X171549999Y-53800000D01*
X171525495Y-53798796D01*
X171501227Y-53795196D01*
X171477428Y-53789235D01*
X171454329Y-53780970D01*
X171432150Y-53770480D01*
X171411107Y-53757868D01*
X171391401Y-53743253D01*
X171373223Y-53726777D01*
X171356747Y-53708599D01*
X171342132Y-53688893D01*
X171329520Y-53667850D01*
X171319030Y-53645671D01*
X171310765Y-53622572D01*
X171304804Y-53598773D01*
X171301204Y-53574505D01*
X171300000Y-53550001D01*
X171300000Y-52899999D01*
X171301204Y-52875495D01*
X171304804Y-52851227D01*
X171310765Y-52827428D01*
X171319030Y-52804329D01*
X171329520Y-52782150D01*
X171342132Y-52761107D01*
X171356747Y-52741401D01*
X171373223Y-52723223D01*
X171391401Y-52706747D01*
X171411107Y-52692132D01*
X171432150Y-52679520D01*
X171454329Y-52669030D01*
X171477428Y-52660765D01*
X171501227Y-52654804D01*
X171525495Y-52651204D01*
X171549999Y-52650000D01*
X172450001Y-52650000D01*
X172474505Y-52651204D01*
G37*
G36*
X157274505Y-53161204D02*
G01*
X157298773Y-53164804D01*
X157322572Y-53170765D01*
X157345671Y-53179030D01*
X157367850Y-53189520D01*
X157388893Y-53202132D01*
X157408599Y-53216747D01*
X157426777Y-53233223D01*
X157443253Y-53251401D01*
X157457868Y-53271107D01*
X157470480Y-53292150D01*
X157480970Y-53314329D01*
X157489235Y-53337428D01*
X157495196Y-53361227D01*
X157498796Y-53385495D01*
X157500000Y-53409999D01*
X157500000Y-54060001D01*
X157498796Y-54084505D01*
X157495196Y-54108773D01*
X157489235Y-54132572D01*
X157480970Y-54155671D01*
X157470480Y-54177850D01*
X157457868Y-54198893D01*
X157443253Y-54218599D01*
X157426777Y-54236777D01*
X157408599Y-54253253D01*
X157388893Y-54267868D01*
X157367850Y-54280480D01*
X157345671Y-54290970D01*
X157322572Y-54299235D01*
X157298773Y-54305196D01*
X157274505Y-54308796D01*
X157250001Y-54310000D01*
X156349999Y-54310000D01*
X156325495Y-54308796D01*
X156301227Y-54305196D01*
X156277428Y-54299235D01*
X156254329Y-54290970D01*
X156232150Y-54280480D01*
X156211107Y-54267868D01*
X156191401Y-54253253D01*
X156173223Y-54236777D01*
X156156747Y-54218599D01*
X156142132Y-54198893D01*
X156129520Y-54177850D01*
X156119030Y-54155671D01*
X156110765Y-54132572D01*
X156104804Y-54108773D01*
X156101204Y-54084505D01*
X156100000Y-54060001D01*
X156100000Y-53409999D01*
X156101204Y-53385495D01*
X156104804Y-53361227D01*
X156110765Y-53337428D01*
X156119030Y-53314329D01*
X156129520Y-53292150D01*
X156142132Y-53271107D01*
X156156747Y-53251401D01*
X156173223Y-53233223D01*
X156191401Y-53216747D01*
X156211107Y-53202132D01*
X156232150Y-53189520D01*
X156254329Y-53179030D01*
X156277428Y-53170765D01*
X156301227Y-53164804D01*
X156325495Y-53161204D01*
X156349999Y-53160000D01*
X157250001Y-53160000D01*
X157274505Y-53161204D01*
G37*
G36*
X157274505Y-51111204D02*
G01*
X157298773Y-51114804D01*
X157322572Y-51120765D01*
X157345671Y-51129030D01*
X157367850Y-51139520D01*
X157388893Y-51152132D01*
X157408599Y-51166747D01*
X157426777Y-51183223D01*
X157443253Y-51201401D01*
X157457868Y-51221107D01*
X157470480Y-51242150D01*
X157480970Y-51264329D01*
X157489235Y-51287428D01*
X157495196Y-51311227D01*
X157498796Y-51335495D01*
X157500000Y-51359999D01*
X157500000Y-52010001D01*
X157498796Y-52034505D01*
X157495196Y-52058773D01*
X157489235Y-52082572D01*
X157480970Y-52105671D01*
X157470480Y-52127850D01*
X157457868Y-52148893D01*
X157443253Y-52168599D01*
X157426777Y-52186777D01*
X157408599Y-52203253D01*
X157388893Y-52217868D01*
X157367850Y-52230480D01*
X157345671Y-52240970D01*
X157322572Y-52249235D01*
X157298773Y-52255196D01*
X157274505Y-52258796D01*
X157250001Y-52260000D01*
X156349999Y-52260000D01*
X156325495Y-52258796D01*
X156301227Y-52255196D01*
X156277428Y-52249235D01*
X156254329Y-52240970D01*
X156232150Y-52230480D01*
X156211107Y-52217868D01*
X156191401Y-52203253D01*
X156173223Y-52186777D01*
X156156747Y-52168599D01*
X156142132Y-52148893D01*
X156129520Y-52127850D01*
X156119030Y-52105671D01*
X156110765Y-52082572D01*
X156104804Y-52058773D01*
X156101204Y-52034505D01*
X156100000Y-52010001D01*
X156100000Y-51359999D01*
X156101204Y-51335495D01*
X156104804Y-51311227D01*
X156110765Y-51287428D01*
X156119030Y-51264329D01*
X156129520Y-51242150D01*
X156142132Y-51221107D01*
X156156747Y-51201401D01*
X156173223Y-51183223D01*
X156191401Y-51166747D01*
X156211107Y-51152132D01*
X156232150Y-51139520D01*
X156254329Y-51129030D01*
X156277428Y-51120765D01*
X156301227Y-51114804D01*
X156325495Y-51111204D01*
X156349999Y-51110000D01*
X157250001Y-51110000D01*
X157274505Y-51111204D01*
G37*
G36*
X169774505Y-50551204D02*
G01*
X169798773Y-50554804D01*
X169822572Y-50560765D01*
X169845671Y-50569030D01*
X169867850Y-50579520D01*
X169888893Y-50592132D01*
X169908599Y-50606747D01*
X169926777Y-50623223D01*
X169943253Y-50641401D01*
X169957868Y-50661107D01*
X169970480Y-50682150D01*
X169980970Y-50704329D01*
X169989235Y-50727428D01*
X169995196Y-50751227D01*
X169998796Y-50775495D01*
X170000000Y-50799999D01*
X170000000Y-51450001D01*
X169998796Y-51474505D01*
X169995196Y-51498773D01*
X169989235Y-51522572D01*
X169980970Y-51545671D01*
X169970480Y-51567850D01*
X169957868Y-51588893D01*
X169943253Y-51608599D01*
X169926777Y-51626777D01*
X169908599Y-51643253D01*
X169888893Y-51657868D01*
X169867850Y-51670480D01*
X169845671Y-51680970D01*
X169822572Y-51689235D01*
X169798773Y-51695196D01*
X169774505Y-51698796D01*
X169750001Y-51700000D01*
X168849999Y-51700000D01*
X168825495Y-51698796D01*
X168801227Y-51695196D01*
X168777428Y-51689235D01*
X168754329Y-51680970D01*
X168732150Y-51670480D01*
X168711107Y-51657868D01*
X168691401Y-51643253D01*
X168673223Y-51626777D01*
X168656747Y-51608599D01*
X168642132Y-51588893D01*
X168629520Y-51567850D01*
X168619030Y-51545671D01*
X168610765Y-51522572D01*
X168604804Y-51498773D01*
X168601204Y-51474505D01*
X168600000Y-51450001D01*
X168600000Y-50799999D01*
X168601204Y-50775495D01*
X168604804Y-50751227D01*
X168610765Y-50727428D01*
X168619030Y-50704329D01*
X168629520Y-50682150D01*
X168642132Y-50661107D01*
X168656747Y-50641401D01*
X168673223Y-50623223D01*
X168691401Y-50606747D01*
X168711107Y-50592132D01*
X168732150Y-50579520D01*
X168754329Y-50569030D01*
X168777428Y-50560765D01*
X168801227Y-50554804D01*
X168825495Y-50551204D01*
X168849999Y-50550000D01*
X169750001Y-50550000D01*
X169774505Y-50551204D01*
G37*
G36*
X169774505Y-52601204D02*
G01*
X169798773Y-52604804D01*
X169822572Y-52610765D01*
X169845671Y-52619030D01*
X169867850Y-52629520D01*
X169888893Y-52642132D01*
X169908599Y-52656747D01*
X169926777Y-52673223D01*
X169943253Y-52691401D01*
X169957868Y-52711107D01*
X169970480Y-52732150D01*
X169980970Y-52754329D01*
X169989235Y-52777428D01*
X169995196Y-52801227D01*
X169998796Y-52825495D01*
X170000000Y-52849999D01*
X170000000Y-53500001D01*
X169998796Y-53524505D01*
X169995196Y-53548773D01*
X169989235Y-53572572D01*
X169980970Y-53595671D01*
X169970480Y-53617850D01*
X169957868Y-53638893D01*
X169943253Y-53658599D01*
X169926777Y-53676777D01*
X169908599Y-53693253D01*
X169888893Y-53707868D01*
X169867850Y-53720480D01*
X169845671Y-53730970D01*
X169822572Y-53739235D01*
X169798773Y-53745196D01*
X169774505Y-53748796D01*
X169750001Y-53750000D01*
X168849999Y-53750000D01*
X168825495Y-53748796D01*
X168801227Y-53745196D01*
X168777428Y-53739235D01*
X168754329Y-53730970D01*
X168732150Y-53720480D01*
X168711107Y-53707868D01*
X168691401Y-53693253D01*
X168673223Y-53676777D01*
X168656747Y-53658599D01*
X168642132Y-53638893D01*
X168629520Y-53617850D01*
X168619030Y-53595671D01*
X168610765Y-53572572D01*
X168604804Y-53548773D01*
X168601204Y-53524505D01*
X168600000Y-53500001D01*
X168600000Y-52849999D01*
X168601204Y-52825495D01*
X168604804Y-52801227D01*
X168610765Y-52777428D01*
X168619030Y-52754329D01*
X168629520Y-52732150D01*
X168642132Y-52711107D01*
X168656747Y-52691401D01*
X168673223Y-52673223D01*
X168691401Y-52656747D01*
X168711107Y-52642132D01*
X168732150Y-52629520D01*
X168754329Y-52619030D01*
X168777428Y-52610765D01*
X168801227Y-52604804D01*
X168825495Y-52601204D01*
X168849999Y-52600000D01*
X169750001Y-52600000D01*
X169774505Y-52601204D01*
G37*
M02*
