M48
; DRILL file {KiCad (5.1.5)-3} date 4/11/2020 1:14:14 AM
; FORMAT={-:-/ absolute / metric / decimal}
; #@! TF.CreationDate,2020-04-11T01:14:14-04:00
; #@! TF.GenerationSoftware,Kicad,Pcbnew,(5.1.5)-3
FMAT,2
METRIC
T1C0.400
T2C0.600
T3C0.800
T4C1.000
T5C0.900
%
G90
G05
T1
X32.15Y-51.75
X32.15Y-56.75
X32.15Y-61.75
X32.15Y-66.75
X32.15Y-71.75
X32.15Y-76.75
X32.15Y-81.75
X32.15Y-81.75
X32.15Y-86.75
X32.15Y-86.75
X32.15Y-91.75
X32.15Y-91.75
X32.15Y-96.75
X32.15Y-101.75
X32.15Y-106.75
X32.15Y-106.75
X32.15Y-111.75
X32.15Y-111.75
X32.15Y-116.75
X32.15Y-121.75
X32.85Y-125.45
X34.7Y-97.75
X36.3Y-102.3
X36.4Y-57.15
X36.45Y-128.8
X36.65Y-47.4
X36.65Y-72.8
X37.15Y-111.75
X37.25Y-60.0
X37.25Y-63.35
X37.45Y-71.0
X37.55Y-96.8
X37.6Y-55.9
X37.9Y-91.05
X38.15Y-76.75
X38.15Y-81.75
X38.15Y-86.75
X39.1Y-108.85
X39.85Y-123.0
X39.95Y-128.5
X40.2Y-104.8
X40.9Y-46.4
X41.8Y-113.85
X42.85Y-63.5
X44.0Y-103.6
X44.15Y-76.75
X44.15Y-81.75
X44.15Y-86.75
X44.25Y-128.45
X44.45Y-57.8
X44.55Y-72.1
X44.6Y-107.8
X44.9Y-91.6
X44.95Y-100.5
X45.15Y-123.95
X45.5Y-61.95
X45.55Y-52.65
X45.8Y-114.65
X45.95Y-67.5
X46.45Y-56.9
X49.15Y-118.6
X49.35Y-52.6
X49.75Y-55.5
X50.3Y-59.9
X50.3Y-64.9
X50.3Y-69.9
X50.3Y-74.9
X50.3Y-79.9
X50.3Y-84.9
X50.3Y-89.9
X50.3Y-94.9
X50.3Y-99.9
X50.3Y-104.9
X50.3Y-109.9
X50.3Y-114.9
X51.5Y-46.45
X51.8Y-129.3
X52.9Y-127.5
X54.65Y-125.6
X55.3Y-59.9
X55.3Y-64.9
X55.3Y-69.9
X55.3Y-74.9
X55.3Y-79.9
X55.3Y-84.9
X55.3Y-89.9
X55.3Y-94.9
X55.3Y-99.9
X55.3Y-104.9
X55.3Y-114.9
X55.3Y-119.9
X55.45Y-128.55
X60.3Y-59.9
X60.3Y-64.9
X60.3Y-69.9
X60.3Y-74.9
X60.3Y-79.9
X60.3Y-84.9
X60.3Y-89.9
X60.3Y-94.9
X60.3Y-99.9
X60.3Y-109.9
X60.3Y-114.9
X60.3Y-119.9
X60.3Y-124.9
X65.3Y-59.9
X65.3Y-64.9
X65.3Y-69.9
X65.3Y-74.9
X65.3Y-79.9
X65.3Y-84.9
X65.3Y-89.9
X65.3Y-94.9
X65.3Y-99.9
X65.3Y-104.9
X65.3Y-109.9
X65.3Y-114.9
X65.3Y-119.9
X65.3Y-124.9
X68.75Y-58.45
X69.9Y-126.8
X70.3Y-64.9
X70.3Y-69.9
X70.3Y-74.9
X70.3Y-79.9
X70.3Y-84.9
X70.3Y-89.9
X70.3Y-94.9
X70.3Y-99.9
X70.3Y-104.9
X70.3Y-109.9
X70.3Y-114.9
X70.3Y-119.9
X70.74Y-58.39
X72.9Y-124.787
X74.3Y-53.3
X75.3Y-59.9
X75.3Y-65.15
X75.3Y-69.9
X75.3Y-74.9
X75.3Y-79.9
X75.3Y-84.9
X75.3Y-89.9
X75.3Y-94.9
X75.3Y-99.9
X75.3Y-104.9
X75.3Y-109.9
X75.3Y-114.9
X75.3Y-119.9
X75.3Y-124.9
X75.35Y-56.6
X80.3Y-59.9
X80.3Y-65.25
X80.3Y-69.9
X80.3Y-74.9
X80.3Y-79.9
X80.3Y-84.9
X80.3Y-89.9
X80.3Y-94.9
X80.3Y-99.9
X80.3Y-104.9
X80.3Y-109.9
X80.3Y-114.9
X80.3Y-119.9
X80.3Y-124.9
X80.35Y-56.6
X85.3Y-59.9
X85.3Y-65.35
X85.3Y-69.9
X85.3Y-74.9
X85.3Y-79.9
X85.3Y-84.9
X85.3Y-89.9
X85.3Y-94.9
X85.3Y-99.9
X85.3Y-104.9
X85.3Y-109.9
X85.3Y-114.9
X85.3Y-119.9
X85.3Y-124.9
X85.35Y-56.6
X90.05Y-65.25
X90.3Y-59.9
X90.3Y-69.9
X90.3Y-74.9
X90.3Y-79.9
X90.3Y-84.9
X90.3Y-89.9
X90.3Y-94.9
X90.3Y-99.9
X90.3Y-104.9
X90.3Y-109.9
X90.3Y-114.9
X90.3Y-119.9
X90.3Y-124.9
X90.35Y-56.6
X93.9Y-126.9
X95.0Y-70.45
X95.3Y-59.9
X95.3Y-64.9
X95.3Y-74.9
X95.3Y-79.9
X95.3Y-84.9
X95.3Y-89.9
X95.3Y-94.9
X95.3Y-99.9
X95.3Y-104.9
X95.3Y-109.9
X95.3Y-114.9
X96.5Y-52.2
X96.75Y-124.9
X97.9Y-57.3
X97.9Y-123.0
X97.95Y-120.0
X99.45Y-109.3
X99.9Y-75.4
X100.05Y-126.9
X100.3Y-59.9
X100.3Y-64.9
X100.3Y-69.9
X100.3Y-79.9
X100.3Y-84.9
X100.3Y-89.9
X100.3Y-94.9
X100.3Y-99.9
X100.3Y-104.9
X100.3Y-114.9
X100.55Y-58.75
X101.5Y-52.2
X102.9Y-57.3
X102.95Y-113.75
X104.8Y-80.3
X105.3Y-59.9
X105.3Y-64.9
X105.3Y-69.9
X105.3Y-74.9
X105.3Y-84.9
X105.3Y-89.9
X105.3Y-94.9
X105.3Y-99.9
X105.3Y-104.9
X105.3Y-109.9
X106.15Y-126.9
X106.5Y-52.2
X107.9Y-57.3
X107.9Y-109.0
X108.8Y-49.85
X109.8Y-85.4
X109.9Y-115.0
X110.3Y-59.9
X110.3Y-64.9
X110.3Y-69.9
X110.3Y-74.9
X110.3Y-79.9
X110.3Y-89.9
X110.3Y-94.9
X110.3Y-99.9
X110.3Y-104.9
X110.9Y-126.95
X111.5Y-52.2
X112.35Y-104.5
X112.9Y-57.3
X113.6Y-114.85
X113.8Y-49.85
X114.45Y-126.55
X114.7Y-102.2
X114.95Y-90.35
X114.95Y-109.95
X115.3Y-59.9
X115.3Y-64.9
X115.3Y-69.9
X115.3Y-74.9
X115.3Y-79.9
X115.3Y-84.9
X115.3Y-94.9
X115.3Y-99.9
X115.55Y-127.25
X116.15Y-112.55
X116.4Y-92.75
X116.45Y-97.4
X116.5Y-52.2
X116.75Y-108.2
X117.7Y-99.4
X117.9Y-57.3
X118.8Y-49.85
X119.1Y-108.95
X120.1Y-104.9
X120.3Y-59.9
X120.3Y-64.9
X120.3Y-69.9
X120.3Y-74.9
X120.3Y-79.9
X120.3Y-84.9
X120.3Y-89.9
X120.3Y-94.9
X120.3Y-114.9
X121.2Y-107.35
X121.4Y-92.05
X121.5Y-52.2
X122.25Y-114.2
X122.3Y-102.4
X122.3Y-126.95
X122.9Y-57.3
X123.05Y-94.2
X123.8Y-49.85
X123.8Y-126.95
X124.15Y-104.35
X125.1Y-111.45
X125.15Y-99.8
X125.3Y-59.9
X125.3Y-64.9
X125.3Y-69.9
X125.3Y-74.9
X125.3Y-79.9
X125.3Y-84.9
X125.3Y-89.9
X125.3Y-114.9
X125.55Y-126.95
X126.25Y-102.15
X126.5Y-52.2
X127.2Y-126.95
X127.3Y-97.45
X127.9Y-57.3
X127.9Y-89.2
X128.8Y-49.85
X128.95Y-99.55
X129.0Y-107.35
X129.5Y-117.15
X130.1Y-94.8
X130.3Y-59.9
X130.3Y-64.9
X130.3Y-69.9
X130.3Y-74.9
X130.3Y-79.9
X130.3Y-84.9
X131.05Y-97.4
X131.5Y-52.2
X131.55Y-115.1
X131.65Y-104.65
X132.55Y-92.3
X132.55Y-116.95
X132.9Y-57.3
X133.3Y-113.3
X133.8Y-49.85
X134.65Y-114.95
X135.05Y-129.4
X135.3Y-59.9
X135.3Y-64.9
X135.3Y-69.9
X135.3Y-74.9
X135.3Y-79.9
X135.3Y-94.9
X135.3Y-119.9
X135.45Y-122.35
X135.6Y-83.45
X136.35Y-101.75
X136.4Y-112.75
X136.5Y-52.2
X136.55Y-56.1
X136.7Y-121.45
X137.15Y-119.9
X137.9Y-57.3
X138.8Y-49.85
X139.95Y-53.6
X140.3Y-59.9
X140.3Y-64.9
X140.3Y-124.9
X141.85Y-123.25
X142.35Y-124.6
X142.6Y-126.05
X142.9Y-57.3
X143.0Y-121.8
X143.55Y-123.7
X143.8Y-49.85
X144.15Y-78.5
X144.55Y-120.0
X144.8Y-114.55
X145.05Y-56.1
X145.25Y-75.05
X145.25Y-77.2
X145.3Y-59.9
X145.3Y-64.9
X145.3Y-69.9
X145.3Y-129.9
X146.15Y-106.2
X146.15Y-111.2
X146.65Y-78.25
X147.0Y-94.45
X147.4Y-92.05
X148.0Y-79.7
X148.0Y-84.7
X148.0Y-89.7
X148.0Y-99.65
X148.4Y-102.15
X148.8Y-49.85
X149.7Y-62.25
X149.7Y-67.25
X149.7Y-72.25
X149.8Y-119.05
X150.0Y-128.85
X150.1Y-127.0
X150.85Y-75.3
X150.85Y-78.8
X151.22Y-97.12
X151.7Y-110.45
X151.75Y-106.2
X151.85Y-55.2
X152.0Y-94.45
X152.25Y-125.8
X152.3Y-121.55
X152.4Y-92.05
X152.75Y-80.3
X152.9Y-52.7
X152.9Y-83.95
X152.9Y-89.1
X153.0Y-99.65
X153.4Y-102.15
X153.5Y-75.45
X153.8Y-49.85
X154.4Y-128.85
X154.85Y-61.2
X154.85Y-66.2
X154.85Y-71.2
X156.15Y-106.2
X156.15Y-111.2
X156.65Y-125.8
X157.0Y-94.45
X157.3Y-55.95
X157.3Y-121.55
X157.4Y-92.05
X157.7Y-58.15
X157.75Y-80.3
X157.85Y-83.85
X157.9Y-89.05
X158.0Y-99.65
X158.4Y-102.15
X158.5Y-66.55
X158.5Y-71.55
X158.5Y-75.45
X158.7Y-119.25
X159.4Y-128.85
X159.5Y-91.05
X159.6Y-60.65
X159.9Y-114.3
X160.45Y-93.45
X161.0Y-50.05
X161.15Y-106.2
X161.15Y-111.2
X161.25Y-82.5
X161.7Y-62.4
X161.862Y-66.888
X162.1Y-121.75
X162.35Y-83.8
X162.4Y-72.3
X162.75Y-80.3
X163.2Y-95.85
X163.5Y-75.45
X163.5Y-82.5
X163.6Y-60.85
X163.925Y-98.4
X164.65Y-99.4
X164.65Y-100.5
X164.9Y-50.65
X164.9Y-65.55
X165.05Y-112.25
X165.3Y-108.9
X165.35Y-127.15
X165.65Y-104.5
X165.7Y-118.7
X165.71Y-102.91
X165.825Y-97.4
X165.9Y-55.8
X165.9Y-61.3
X166.275Y-96.4
X166.3Y-109.85
X166.45Y-63.4
X166.8Y-76.1
X167.161Y-106.999
X167.2Y-106.0
X167.5Y-94.85
X167.75Y-52.4
X167.8Y-55.15
X169.25Y-49.6
X169.5Y-60.4
X169.55Y-93.25
X169.6Y-101.25
X169.65Y-99.9
X169.85Y-87.9
X169.85Y-104.45
X169.9Y-103.1
X170.15Y-55.25
X170.4Y-77.45
X170.4Y-121.3
X170.75Y-101.25
X170.8Y-99.9
X170.8Y-107.95
X171.0Y-104.45
X171.05Y-103.1
X171.25Y-57.05
X172.0Y-50.0
X172.02Y-68.67
X172.35Y-101.05
X172.4Y-98.9
X172.4Y-108.45
X172.45Y-99.9
X172.7Y-103.1
X172.85Y-125.65
X173.2Y-95.8
X173.2Y-104.45
X173.4Y-99.9
X173.4Y-101.15
X173.45Y-108.45
X173.89Y-119.55
X174.0Y-95.2
X174.15Y-103.1
X174.45Y-61.15
X174.45Y-108.5
X174.55Y-63.6
X174.6Y-58.8
X174.6Y-104.45
X174.65Y-82.05
X174.806Y-94.609
X175.15Y-75.2
X175.5Y-66.9
X175.95Y-81.5
X176.3Y-63.7
X176.9Y-93.4
X177.05Y-65.9
X177.15Y-82.6
X177.15Y-86.35
X177.2Y-121.75
X177.25Y-89.5
X177.35Y-109.9
X177.45Y-81.45
X178.0Y-104.6
X178.25Y-61.6
X179.25Y-75.95
X179.3Y-74.65
X179.7Y-110.1
X180.25Y-74.25
X180.65Y-78.2
X180.65Y-127.1
X180.8Y-55.5
X180.85Y-128.85
X181.05Y-94.1
X181.1Y-117.35
X181.3Y-64.9
X181.65Y-63.15
X181.65Y-79.85
X182.3Y-94.2
X182.35Y-50.2
X183.85Y-94.25
X185.25Y-94.2
X185.3Y-125.15
X185.75Y-66.9
X185.75Y-81.65
X186.2Y-70.05
T2
X60.9Y-47.8
X147.0Y-55.6
X150.55Y-59.5
X152.7Y-117.925
X158.85Y-50.65
X159.15Y-56.05
X163.75Y-58.75
X167.245Y-50.55
X171.8Y-81.05
X173.6Y-56.6
X173.9Y-74.55
X175.8Y-96.8
X176.675Y-95.786
X178.1Y-58.6
T3
X37.2Y-115.91
X37.2Y-119.91
T4
X138.394Y-69.18
X138.394Y-71.72
X138.394Y-74.26
X138.394Y-76.8
X138.394Y-79.34
X138.394Y-81.88
X138.394Y-84.42
X138.394Y-86.96
X138.394Y-89.5
X138.394Y-92.04
X138.394Y-94.58
X138.394Y-97.12
X138.394Y-99.66
X138.394Y-102.2
X138.394Y-104.74
X138.394Y-107.28
X138.394Y-109.82
X138.394Y-112.36
X138.394Y-114.9
X138.394Y-117.44
X140.934Y-69.18
X140.934Y-71.72
X140.934Y-74.26
X140.934Y-76.8
X140.934Y-79.34
X140.934Y-81.88
X140.934Y-84.42
X140.934Y-86.96
X140.934Y-89.5
X140.934Y-92.04
X140.934Y-94.58
X140.934Y-97.12
X140.934Y-99.66
X140.934Y-102.2
X140.934Y-104.74
X140.934Y-107.28
X140.934Y-109.82
X140.934Y-112.36
X140.934Y-114.9
X140.934Y-117.44
X180.1Y-103.4
X180.1Y-105.9
X180.1Y-108.4
X168.8Y-109.85
X168.8Y-112.39
X168.8Y-114.93
X171.34Y-109.85
X171.34Y-112.39
X171.34Y-114.93
T5
X153.45Y-114.0
X156.45Y-114.0
T0
M30
