G04 #@! TF.GenerationSoftware,KiCad,Pcbnew,(5.1.5)-3*
G04 #@! TF.CreationDate,2020-07-17T16:25:31-04:00*
G04 #@! TF.ProjectId,CPU,4350552e-6b69-4636-9164-5f7063625858,rev?*
G04 #@! TF.SameCoordinates,Original*
G04 #@! TF.FileFunction,Legend,Bot*
G04 #@! TF.FilePolarity,Positive*
%FSLAX46Y46*%
G04 Gerber Fmt 4.6, Leading zero omitted, Abs format (unit mm)*
G04 Created by KiCad (PCBNEW (5.1.5)-3) date 2020-07-17 16:25:31*
%MOMM*%
%LPD*%
G04 APERTURE LIST*
%ADD10C,0.130000*%
%ADD11C,0.120000*%
%ADD12C,0.200000*%
%ADD13C,0.150000*%
%ADD14C,0.127000*%
%ADD15C,0.101600*%
%ADD16C,0.138988*%
G04 APERTURE END LIST*
D10*
X147482142Y-106339285D02*
X147839285Y-106339285D01*
X147839285Y-105589285D01*
X146803571Y-106267857D02*
X146839285Y-106303571D01*
X146946428Y-106339285D01*
X147017857Y-106339285D01*
X147125000Y-106303571D01*
X147196428Y-106232142D01*
X147232142Y-106160714D01*
X147267857Y-106017857D01*
X147267857Y-105910714D01*
X147232142Y-105767857D01*
X147196428Y-105696428D01*
X147125000Y-105625000D01*
X147017857Y-105589285D01*
X146946428Y-105589285D01*
X146839285Y-105625000D01*
X146803571Y-105660714D01*
X146482142Y-106339285D02*
X146482142Y-105589285D01*
X146303571Y-105589285D01*
X146196428Y-105625000D01*
X146125000Y-105696428D01*
X146089285Y-105767857D01*
X146053571Y-105910714D01*
X146053571Y-106017857D01*
X146089285Y-106160714D01*
X146125000Y-106232142D01*
X146196428Y-106303571D01*
X146303571Y-106339285D01*
X146482142Y-106339285D01*
X145910714Y-106410714D02*
X145339285Y-106410714D01*
X144910714Y-105946428D02*
X144803571Y-105982142D01*
X144767857Y-106017857D01*
X144732142Y-106089285D01*
X144732142Y-106196428D01*
X144767857Y-106267857D01*
X144803571Y-106303571D01*
X144875000Y-106339285D01*
X145160714Y-106339285D01*
X145160714Y-105589285D01*
X144910714Y-105589285D01*
X144839285Y-105625000D01*
X144803571Y-105660714D01*
X144767857Y-105732142D01*
X144767857Y-105803571D01*
X144803571Y-105875000D01*
X144839285Y-105910714D01*
X144910714Y-105946428D01*
X145160714Y-105946428D01*
X144053571Y-106339285D02*
X144410714Y-106339285D01*
X144410714Y-105589285D01*
X135071428Y-108125000D02*
X135142857Y-108089285D01*
X135250000Y-108089285D01*
X135357142Y-108125000D01*
X135428571Y-108196428D01*
X135464285Y-108267857D01*
X135500000Y-108410714D01*
X135500000Y-108517857D01*
X135464285Y-108660714D01*
X135428571Y-108732142D01*
X135357142Y-108803571D01*
X135250000Y-108839285D01*
X135178571Y-108839285D01*
X135071428Y-108803571D01*
X135035714Y-108767857D01*
X135035714Y-108517857D01*
X135178571Y-108517857D01*
X134714285Y-108839285D02*
X134714285Y-108089285D01*
X134285714Y-108839285D01*
X134285714Y-108089285D01*
X133928571Y-108839285D02*
X133928571Y-108089285D01*
X133750000Y-108089285D01*
X133642857Y-108125000D01*
X133571428Y-108196428D01*
X133535714Y-108267857D01*
X133500000Y-108410714D01*
X133500000Y-108517857D01*
X133535714Y-108660714D01*
X133571428Y-108732142D01*
X133642857Y-108803571D01*
X133750000Y-108839285D01*
X133928571Y-108839285D01*
X145571428Y-98125000D02*
X145642857Y-98089285D01*
X145750000Y-98089285D01*
X145857142Y-98125000D01*
X145928571Y-98196428D01*
X145964285Y-98267857D01*
X146000000Y-98410714D01*
X146000000Y-98517857D01*
X145964285Y-98660714D01*
X145928571Y-98732142D01*
X145857142Y-98803571D01*
X145750000Y-98839285D01*
X145678571Y-98839285D01*
X145571428Y-98803571D01*
X145535714Y-98767857D01*
X145535714Y-98517857D01*
X145678571Y-98517857D01*
X145214285Y-98839285D02*
X145214285Y-98089285D01*
X144785714Y-98839285D01*
X144785714Y-98089285D01*
X144428571Y-98839285D02*
X144428571Y-98089285D01*
X144250000Y-98089285D01*
X144142857Y-98125000D01*
X144071428Y-98196428D01*
X144035714Y-98267857D01*
X144000000Y-98410714D01*
X144000000Y-98517857D01*
X144035714Y-98660714D01*
X144071428Y-98732142D01*
X144142857Y-98803571D01*
X144250000Y-98839285D01*
X144428571Y-98839285D01*
X146767857Y-96303571D02*
X146660714Y-96339285D01*
X146482142Y-96339285D01*
X146410714Y-96303571D01*
X146375000Y-96267857D01*
X146339285Y-96196428D01*
X146339285Y-96125000D01*
X146375000Y-96053571D01*
X146410714Y-96017857D01*
X146482142Y-95982142D01*
X146625000Y-95946428D01*
X146696428Y-95910714D01*
X146732142Y-95875000D01*
X146767857Y-95803571D01*
X146767857Y-95732142D01*
X146732142Y-95660714D01*
X146696428Y-95625000D01*
X146625000Y-95589285D01*
X146446428Y-95589285D01*
X146339285Y-95625000D01*
X145589285Y-96267857D02*
X145625000Y-96303571D01*
X145732142Y-96339285D01*
X145803571Y-96339285D01*
X145910714Y-96303571D01*
X145982142Y-96232142D01*
X146017857Y-96160714D01*
X146053571Y-96017857D01*
X146053571Y-95910714D01*
X146017857Y-95767857D01*
X145982142Y-95696428D01*
X145910714Y-95625000D01*
X145803571Y-95589285D01*
X145732142Y-95589285D01*
X145625000Y-95625000D01*
X145589285Y-95660714D01*
X144910714Y-96339285D02*
X145267857Y-96339285D01*
X145267857Y-95589285D01*
X144660714Y-96339285D02*
X144660714Y-95589285D01*
X144232142Y-96339285D02*
X144553571Y-95910714D01*
X144232142Y-95589285D02*
X144660714Y-96017857D01*
X146678571Y-93839285D02*
X146678571Y-93089285D01*
X146428571Y-93625000D01*
X146178571Y-93089285D01*
X146178571Y-93839285D01*
X145821428Y-93839285D02*
X145821428Y-93089285D01*
X145500000Y-93803571D02*
X145392857Y-93839285D01*
X145214285Y-93839285D01*
X145142857Y-93803571D01*
X145107142Y-93767857D01*
X145071428Y-93696428D01*
X145071428Y-93625000D01*
X145107142Y-93553571D01*
X145142857Y-93517857D01*
X145214285Y-93482142D01*
X145357142Y-93446428D01*
X145428571Y-93410714D01*
X145464285Y-93375000D01*
X145500000Y-93303571D01*
X145500000Y-93232142D01*
X145464285Y-93160714D01*
X145428571Y-93125000D01*
X145357142Y-93089285D01*
X145178571Y-93089285D01*
X145071428Y-93125000D01*
X144607142Y-93089285D02*
X144464285Y-93089285D01*
X144392857Y-93125000D01*
X144321428Y-93196428D01*
X144285714Y-93339285D01*
X144285714Y-93589285D01*
X144321428Y-93732142D01*
X144392857Y-93803571D01*
X144464285Y-93839285D01*
X144607142Y-93839285D01*
X144678571Y-93803571D01*
X144750000Y-93732142D01*
X144785714Y-93589285D01*
X144785714Y-93339285D01*
X144750000Y-93196428D01*
X144678571Y-93125000D01*
X144607142Y-93089285D01*
X146678571Y-91339285D02*
X146678571Y-90589285D01*
X146428571Y-91125000D01*
X146178571Y-90589285D01*
X146178571Y-91339285D01*
X145678571Y-90589285D02*
X145535714Y-90589285D01*
X145464285Y-90625000D01*
X145392857Y-90696428D01*
X145357142Y-90839285D01*
X145357142Y-91089285D01*
X145392857Y-91232142D01*
X145464285Y-91303571D01*
X145535714Y-91339285D01*
X145678571Y-91339285D01*
X145750000Y-91303571D01*
X145821428Y-91232142D01*
X145857142Y-91089285D01*
X145857142Y-90839285D01*
X145821428Y-90696428D01*
X145750000Y-90625000D01*
X145678571Y-90589285D01*
X145071428Y-91303571D02*
X144964285Y-91339285D01*
X144785714Y-91339285D01*
X144714285Y-91303571D01*
X144678571Y-91267857D01*
X144642857Y-91196428D01*
X144642857Y-91125000D01*
X144678571Y-91053571D01*
X144714285Y-91017857D01*
X144785714Y-90982142D01*
X144928571Y-90946428D01*
X145000000Y-90910714D01*
X145035714Y-90875000D01*
X145071428Y-90803571D01*
X145071428Y-90732142D01*
X145035714Y-90660714D01*
X145000000Y-90625000D01*
X144928571Y-90589285D01*
X144750000Y-90589285D01*
X144642857Y-90625000D01*
X144321428Y-91339285D02*
X144321428Y-90589285D01*
X145071428Y-88089285D02*
X144607142Y-88089285D01*
X144857142Y-88375000D01*
X144750000Y-88375000D01*
X144678571Y-88410714D01*
X144642857Y-88446428D01*
X144607142Y-88517857D01*
X144607142Y-88696428D01*
X144642857Y-88767857D01*
X144678571Y-88803571D01*
X144750000Y-88839285D01*
X144964285Y-88839285D01*
X145035714Y-88803571D01*
X145071428Y-88767857D01*
X144392857Y-88089285D02*
X144142857Y-88839285D01*
X143892857Y-88089285D01*
X135071428Y-72625000D02*
X135142857Y-72589285D01*
X135250000Y-72589285D01*
X135357142Y-72625000D01*
X135428571Y-72696428D01*
X135464285Y-72767857D01*
X135500000Y-72910714D01*
X135500000Y-73017857D01*
X135464285Y-73160714D01*
X135428571Y-73232142D01*
X135357142Y-73303571D01*
X135250000Y-73339285D01*
X135178571Y-73339285D01*
X135071428Y-73303571D01*
X135035714Y-73267857D01*
X135035714Y-73017857D01*
X135178571Y-73017857D01*
X134714285Y-73339285D02*
X134714285Y-72589285D01*
X134285714Y-73339285D01*
X134285714Y-72589285D01*
X133928571Y-73339285D02*
X133928571Y-72589285D01*
X133750000Y-72589285D01*
X133642857Y-72625000D01*
X133571428Y-72696428D01*
X133535714Y-72767857D01*
X133500000Y-72910714D01*
X133500000Y-73017857D01*
X133535714Y-73160714D01*
X133571428Y-73232142D01*
X133642857Y-73303571D01*
X133750000Y-73339285D01*
X133928571Y-73339285D01*
X134642857Y-70089285D02*
X135000000Y-70089285D01*
X135035714Y-70446428D01*
X135000000Y-70410714D01*
X134928571Y-70375000D01*
X134750000Y-70375000D01*
X134678571Y-70410714D01*
X134642857Y-70446428D01*
X134607142Y-70517857D01*
X134607142Y-70696428D01*
X134642857Y-70767857D01*
X134678571Y-70803571D01*
X134750000Y-70839285D01*
X134928571Y-70839285D01*
X135000000Y-70803571D01*
X135035714Y-70767857D01*
X134392857Y-70089285D02*
X134142857Y-70839285D01*
X133892857Y-70089285D01*
X134642857Y-67589285D02*
X135000000Y-67589285D01*
X135035714Y-67946428D01*
X135000000Y-67910714D01*
X134928571Y-67875000D01*
X134750000Y-67875000D01*
X134678571Y-67910714D01*
X134642857Y-67946428D01*
X134607142Y-68017857D01*
X134607142Y-68196428D01*
X134642857Y-68267857D01*
X134678571Y-68303571D01*
X134750000Y-68339285D01*
X134928571Y-68339285D01*
X135000000Y-68303571D01*
X135035714Y-68267857D01*
X134392857Y-67589285D02*
X134142857Y-68339285D01*
X133892857Y-67589285D01*
X135071428Y-101339285D02*
X135071428Y-100589285D01*
X134892857Y-100589285D01*
X134785714Y-100625000D01*
X134714285Y-100696428D01*
X134678571Y-100767857D01*
X134642857Y-100910714D01*
X134642857Y-101017857D01*
X134678571Y-101160714D01*
X134714285Y-101232142D01*
X134785714Y-101303571D01*
X134892857Y-101339285D01*
X135071428Y-101339285D01*
X133892857Y-101267857D02*
X133928571Y-101303571D01*
X134035714Y-101339285D01*
X134107142Y-101339285D01*
X134214285Y-101303571D01*
X134285714Y-101232142D01*
X134321428Y-101160714D01*
X134357142Y-101017857D01*
X134357142Y-100910714D01*
X134321428Y-100767857D01*
X134285714Y-100696428D01*
X134214285Y-100625000D01*
X134107142Y-100589285D01*
X134035714Y-100589285D01*
X133928571Y-100625000D01*
X133892857Y-100660714D01*
X134625000Y-96267857D02*
X134660714Y-96303571D01*
X134767857Y-96339285D01*
X134839285Y-96339285D01*
X134946428Y-96303571D01*
X135017857Y-96232142D01*
X135053571Y-96160714D01*
X135089285Y-96017857D01*
X135089285Y-95910714D01*
X135053571Y-95767857D01*
X135017857Y-95696428D01*
X134946428Y-95625000D01*
X134839285Y-95589285D01*
X134767857Y-95589285D01*
X134660714Y-95625000D01*
X134625000Y-95660714D01*
X134339285Y-96303571D02*
X134232142Y-96339285D01*
X134053571Y-96339285D01*
X133982142Y-96303571D01*
X133946428Y-96267857D01*
X133910714Y-96196428D01*
X133910714Y-96125000D01*
X133946428Y-96053571D01*
X133982142Y-96017857D01*
X134053571Y-95982142D01*
X134196428Y-95946428D01*
X134267857Y-95910714D01*
X134303571Y-95875000D01*
X134339285Y-95803571D01*
X134339285Y-95732142D01*
X134303571Y-95660714D01*
X134267857Y-95625000D01*
X134196428Y-95589285D01*
X134017857Y-95589285D01*
X133910714Y-95625000D01*
X145410714Y-101339285D02*
X145660714Y-100982142D01*
X145839285Y-101339285D02*
X145839285Y-100589285D01*
X145553571Y-100589285D01*
X145482142Y-100625000D01*
X145446428Y-100660714D01*
X145410714Y-100732142D01*
X145410714Y-100839285D01*
X145446428Y-100910714D01*
X145482142Y-100946428D01*
X145553571Y-100982142D01*
X145839285Y-100982142D01*
X145125000Y-101303571D02*
X145017857Y-101339285D01*
X144839285Y-101339285D01*
X144767857Y-101303571D01*
X144732142Y-101267857D01*
X144696428Y-101196428D01*
X144696428Y-101125000D01*
X144732142Y-101053571D01*
X144767857Y-101017857D01*
X144839285Y-100982142D01*
X144982142Y-100946428D01*
X145053571Y-100910714D01*
X145089285Y-100875000D01*
X145125000Y-100803571D01*
X145125000Y-100732142D01*
X145089285Y-100660714D01*
X145053571Y-100625000D01*
X144982142Y-100589285D01*
X144803571Y-100589285D01*
X144696428Y-100625000D01*
X144482142Y-100589285D02*
X144053571Y-100589285D01*
X144267857Y-101339285D02*
X144267857Y-100589285D01*
X145571428Y-116125000D02*
X145642857Y-116089285D01*
X145750000Y-116089285D01*
X145857142Y-116125000D01*
X145928571Y-116196428D01*
X145964285Y-116267857D01*
X146000000Y-116410714D01*
X146000000Y-116517857D01*
X145964285Y-116660714D01*
X145928571Y-116732142D01*
X145857142Y-116803571D01*
X145750000Y-116839285D01*
X145678571Y-116839285D01*
X145571428Y-116803571D01*
X145535714Y-116767857D01*
X145535714Y-116517857D01*
X145678571Y-116517857D01*
X145214285Y-116839285D02*
X145214285Y-116089285D01*
X144785714Y-116839285D01*
X144785714Y-116089285D01*
X144428571Y-116839285D02*
X144428571Y-116089285D01*
X144250000Y-116089285D01*
X144142857Y-116125000D01*
X144071428Y-116196428D01*
X144035714Y-116267857D01*
X144000000Y-116410714D01*
X144000000Y-116517857D01*
X144035714Y-116660714D01*
X144071428Y-116732142D01*
X144142857Y-116803571D01*
X144250000Y-116839285D01*
X144428571Y-116839285D01*
X145571428Y-67589285D02*
X145107142Y-67589285D01*
X145357142Y-67875000D01*
X145250000Y-67875000D01*
X145178571Y-67910714D01*
X145142857Y-67946428D01*
X145107142Y-68017857D01*
X145107142Y-68196428D01*
X145142857Y-68267857D01*
X145178571Y-68303571D01*
X145250000Y-68339285D01*
X145464285Y-68339285D01*
X145535714Y-68303571D01*
X145571428Y-68267857D01*
X144892857Y-67589285D02*
X144642857Y-68339285D01*
X144392857Y-67589285D01*
D11*
X135250000Y-79750000D02*
X135250000Y-81500000D01*
X139250000Y-79750000D02*
X135250000Y-79750000D01*
X139250000Y-81500000D02*
X139250000Y-79750000D01*
X135250000Y-81500000D02*
X139250000Y-81500000D01*
D10*
X134553571Y-79839285D02*
X134589285Y-79946428D01*
X134589285Y-80125000D01*
X134553571Y-80196428D01*
X134517857Y-80232142D01*
X134446428Y-80267857D01*
X134375000Y-80267857D01*
X134303571Y-80232142D01*
X134267857Y-80196428D01*
X134232142Y-80125000D01*
X134196428Y-79982142D01*
X134160714Y-79910714D01*
X134125000Y-79875000D01*
X134053571Y-79839285D01*
X133982142Y-79839285D01*
X133910714Y-79875000D01*
X133875000Y-79910714D01*
X133839285Y-79982142D01*
X133839285Y-80160714D01*
X133875000Y-80267857D01*
X134589285Y-80589285D02*
X133839285Y-80589285D01*
X133839285Y-80767857D01*
X133875000Y-80875000D01*
X133946428Y-80946428D01*
X134017857Y-80982142D01*
X134160714Y-81017857D01*
X134267857Y-81017857D01*
X134410714Y-80982142D01*
X134482142Y-80946428D01*
X134553571Y-80875000D01*
X134589285Y-80767857D01*
X134589285Y-80589285D01*
X134375000Y-81303571D02*
X134375000Y-81660714D01*
X134589285Y-81232142D02*
X133839285Y-81482142D01*
X134589285Y-81732142D01*
D11*
X140000000Y-110250000D02*
X140000000Y-112000000D01*
X144000000Y-110250000D02*
X140000000Y-110250000D01*
X144000000Y-112000000D02*
X144000000Y-110250000D01*
X140000000Y-112000000D02*
X144000000Y-112000000D01*
D10*
X144446428Y-111892857D02*
X144410714Y-111785714D01*
X144410714Y-111607142D01*
X144446428Y-111535714D01*
X144482142Y-111500000D01*
X144553571Y-111464285D01*
X144625000Y-111464285D01*
X144696428Y-111500000D01*
X144732142Y-111535714D01*
X144767857Y-111607142D01*
X144803571Y-111750000D01*
X144839285Y-111821428D01*
X144875000Y-111857142D01*
X144946428Y-111892857D01*
X145017857Y-111892857D01*
X145089285Y-111857142D01*
X145125000Y-111821428D01*
X145160714Y-111750000D01*
X145160714Y-111571428D01*
X145125000Y-111464285D01*
X144482142Y-110714285D02*
X144446428Y-110750000D01*
X144410714Y-110857142D01*
X144410714Y-110928571D01*
X144446428Y-111035714D01*
X144517857Y-111107142D01*
X144589285Y-111142857D01*
X144732142Y-111178571D01*
X144839285Y-111178571D01*
X144982142Y-111142857D01*
X145053571Y-111107142D01*
X145125000Y-111035714D01*
X145160714Y-110928571D01*
X145160714Y-110857142D01*
X145125000Y-110750000D01*
X145089285Y-110714285D01*
X144410714Y-110035714D02*
X144410714Y-110392857D01*
X145160714Y-110392857D01*
X128982142Y-129839285D02*
X128982142Y-130446428D01*
X128946428Y-130517857D01*
X128910714Y-130553571D01*
X128839285Y-130589285D01*
X128696428Y-130589285D01*
X128625000Y-130553571D01*
X128589285Y-130517857D01*
X128553571Y-130446428D01*
X128553571Y-129839285D01*
X127196428Y-130589285D02*
X127446428Y-130232142D01*
X127625000Y-130589285D02*
X127625000Y-129839285D01*
X127339285Y-129839285D01*
X127267857Y-129875000D01*
X127232142Y-129910714D01*
X127196428Y-129982142D01*
X127196428Y-130089285D01*
X127232142Y-130160714D01*
X127267857Y-130196428D01*
X127339285Y-130232142D01*
X127625000Y-130232142D01*
X125875000Y-130517857D02*
X125910714Y-130553571D01*
X126017857Y-130589285D01*
X126089285Y-130589285D01*
X126196428Y-130553571D01*
X126267857Y-130482142D01*
X126303571Y-130410714D01*
X126339285Y-130267857D01*
X126339285Y-130160714D01*
X126303571Y-130017857D01*
X126267857Y-129946428D01*
X126196428Y-129875000D01*
X126089285Y-129839285D01*
X126017857Y-129839285D01*
X125910714Y-129875000D01*
X125875000Y-129910714D01*
X124982142Y-130589285D02*
X124982142Y-129839285D01*
X123910714Y-129839285D02*
X123767857Y-129839285D01*
X123696428Y-129875000D01*
X123625000Y-129946428D01*
X123589285Y-130089285D01*
X123589285Y-130339285D01*
X123625000Y-130482142D01*
X123696428Y-130553571D01*
X123767857Y-130589285D01*
X123910714Y-130589285D01*
X123982142Y-130553571D01*
X124053571Y-130482142D01*
X124089285Y-130339285D01*
X124089285Y-130089285D01*
X124053571Y-129946428D01*
X123982142Y-129875000D01*
X123910714Y-129839285D01*
X122339285Y-129839285D02*
X122696428Y-129839285D01*
X122732142Y-130196428D01*
X122696428Y-130160714D01*
X122625000Y-130125000D01*
X122446428Y-130125000D01*
X122375000Y-130160714D01*
X122339285Y-130196428D01*
X122303571Y-130267857D01*
X122303571Y-130446428D01*
X122339285Y-130517857D01*
X122375000Y-130553571D01*
X122446428Y-130589285D01*
X122625000Y-130589285D01*
X122696428Y-130553571D01*
X122732142Y-130517857D01*
X121017857Y-129875000D02*
X121089285Y-129839285D01*
X121196428Y-129839285D01*
X121303571Y-129875000D01*
X121375000Y-129946428D01*
X121410714Y-130017857D01*
X121446428Y-130160714D01*
X121446428Y-130267857D01*
X121410714Y-130410714D01*
X121375000Y-130482142D01*
X121303571Y-130553571D01*
X121196428Y-130589285D01*
X121125000Y-130589285D01*
X121017857Y-130553571D01*
X120982142Y-130517857D01*
X120982142Y-130267857D01*
X121125000Y-130267857D01*
D11*
X75692000Y-102235000D02*
X75819000Y-62484000D01*
X130175000Y-102235000D02*
X75692000Y-102235000D01*
X130175000Y-62484000D02*
X130175000Y-102235000D01*
X75819000Y-62484000D02*
X130175000Y-62484000D01*
D12*
X133400000Y-63900000D02*
X133400000Y-115600000D01*
D11*
X142700000Y-63100000D02*
G75*
G03X142700000Y-63100000I-3100000J0D01*
G01*
D13*
X142059523Y-61952380D02*
X142059523Y-60952380D01*
X141678571Y-60952380D01*
X141583333Y-61000000D01*
X141535714Y-61047619D01*
X141488095Y-61142857D01*
X141488095Y-61285714D01*
X141535714Y-61380952D01*
X141583333Y-61428571D01*
X141678571Y-61476190D01*
X142059523Y-61476190D01*
X141059523Y-61952380D02*
X141059523Y-61285714D01*
X141059523Y-60952380D02*
X141107142Y-61000000D01*
X141059523Y-61047619D01*
X141011904Y-61000000D01*
X141059523Y-60952380D01*
X141059523Y-61047619D01*
X140059523Y-60585000D02*
X139059523Y-60585000D01*
X139250000Y-61952380D02*
X139583333Y-61476190D01*
X139821428Y-61952380D02*
X139821428Y-60952380D01*
X139440476Y-60952380D01*
X139345238Y-61000000D01*
X139297619Y-61047619D01*
X139250000Y-61142857D01*
X139250000Y-61285714D01*
X139297619Y-61380952D01*
X139345238Y-61428571D01*
X139440476Y-61476190D01*
X139821428Y-61476190D01*
X139059523Y-60585000D02*
X138154761Y-60585000D01*
X138821428Y-61428571D02*
X138488095Y-61428571D01*
X138345238Y-61952380D02*
X138821428Y-61952380D01*
X138821428Y-60952380D01*
X138345238Y-60952380D01*
X138154761Y-60585000D02*
X137202380Y-60585000D01*
X137964285Y-61904761D02*
X137821428Y-61952380D01*
X137583333Y-61952380D01*
X137488095Y-61904761D01*
X137440476Y-61857142D01*
X137392857Y-61761904D01*
X137392857Y-61666666D01*
X137440476Y-61571428D01*
X137488095Y-61523809D01*
X137583333Y-61476190D01*
X137773809Y-61428571D01*
X137869047Y-61380952D01*
X137916666Y-61333333D01*
X137964285Y-61238095D01*
X137964285Y-61142857D01*
X137916666Y-61047619D01*
X137869047Y-61000000D01*
X137773809Y-60952380D01*
X137535714Y-60952380D01*
X137392857Y-61000000D01*
D11*
X176853553Y-97750000D02*
G75*
G03X176853553Y-97750000I-353553J0D01*
G01*
D13*
X89964285Y-118639285D02*
X90059523Y-118734523D01*
X90345238Y-118829761D01*
X90535714Y-118829761D01*
X90821428Y-118734523D01*
X91011904Y-118544047D01*
X91107142Y-118353571D01*
X91202380Y-117972619D01*
X91202380Y-117686904D01*
X91107142Y-117305952D01*
X91011904Y-117115476D01*
X90821428Y-116925000D01*
X90535714Y-116829761D01*
X90345238Y-116829761D01*
X90059523Y-116925000D01*
X89964285Y-117020238D01*
X87964285Y-118829761D02*
X88630952Y-117877380D01*
X89107142Y-118829761D02*
X89107142Y-116829761D01*
X88345238Y-116829761D01*
X88154761Y-116925000D01*
X88059523Y-117020238D01*
X87964285Y-117210714D01*
X87964285Y-117496428D01*
X88059523Y-117686904D01*
X88154761Y-117782142D01*
X88345238Y-117877380D01*
X89107142Y-117877380D01*
X86059523Y-118829761D02*
X87202380Y-118829761D01*
X86630952Y-118829761D02*
X86630952Y-116829761D01*
X86821428Y-117115476D01*
X87011904Y-117305952D01*
X87202380Y-117401190D01*
X84821428Y-116829761D02*
X84630952Y-116829761D01*
X84440476Y-116925000D01*
X84345238Y-117020238D01*
X84250000Y-117210714D01*
X84154761Y-117591666D01*
X84154761Y-118067857D01*
X84250000Y-118448809D01*
X84345238Y-118639285D01*
X84440476Y-118734523D01*
X84630952Y-118829761D01*
X84821428Y-118829761D01*
X85011904Y-118734523D01*
X85107142Y-118639285D01*
X85202380Y-118448809D01*
X85297619Y-118067857D01*
X85297619Y-117591666D01*
X85202380Y-117210714D01*
X85107142Y-117020238D01*
X85011904Y-116925000D01*
X84821428Y-116829761D01*
X82250000Y-118829761D02*
X83392857Y-118829761D01*
X82821428Y-118829761D02*
X82821428Y-116829761D01*
X83011904Y-117115476D01*
X83202380Y-117305952D01*
X83392857Y-117401190D01*
X78726190Y-118639285D02*
X78821428Y-118734523D01*
X79107142Y-118829761D01*
X79297619Y-118829761D01*
X79583333Y-118734523D01*
X79773809Y-118544047D01*
X79869047Y-118353571D01*
X79964285Y-117972619D01*
X79964285Y-117686904D01*
X79869047Y-117305952D01*
X79773809Y-117115476D01*
X79583333Y-116925000D01*
X79297619Y-116829761D01*
X79107142Y-116829761D01*
X78821428Y-116925000D01*
X78726190Y-117020238D01*
X77869047Y-118829761D02*
X77869047Y-116829761D01*
X77107142Y-116829761D01*
X76916666Y-116925000D01*
X76821428Y-117020238D01*
X76726190Y-117210714D01*
X76726190Y-117496428D01*
X76821428Y-117686904D01*
X76916666Y-117782142D01*
X77107142Y-117877380D01*
X77869047Y-117877380D01*
X75869047Y-116829761D02*
X75869047Y-118448809D01*
X75773809Y-118639285D01*
X75678571Y-118734523D01*
X75488095Y-118829761D01*
X75107142Y-118829761D01*
X74916666Y-118734523D01*
X74821428Y-118639285D01*
X74726190Y-118448809D01*
X74726190Y-116829761D01*
X71583333Y-117782142D02*
X71297619Y-117877380D01*
X71202380Y-117972619D01*
X71107142Y-118163095D01*
X71107142Y-118448809D01*
X71202380Y-118639285D01*
X71297619Y-118734523D01*
X71488095Y-118829761D01*
X72250000Y-118829761D01*
X72250000Y-116829761D01*
X71583333Y-116829761D01*
X71392857Y-116925000D01*
X71297619Y-117020238D01*
X71202380Y-117210714D01*
X71202380Y-117401190D01*
X71297619Y-117591666D01*
X71392857Y-117686904D01*
X71583333Y-117782142D01*
X72250000Y-117782142D01*
X69964285Y-118829761D02*
X70154761Y-118734523D01*
X70250000Y-118639285D01*
X70345238Y-118448809D01*
X70345238Y-117877380D01*
X70250000Y-117686904D01*
X70154761Y-117591666D01*
X69964285Y-117496428D01*
X69678571Y-117496428D01*
X69488095Y-117591666D01*
X69392857Y-117686904D01*
X69297619Y-117877380D01*
X69297619Y-118448809D01*
X69392857Y-118639285D01*
X69488095Y-118734523D01*
X69678571Y-118829761D01*
X69964285Y-118829761D01*
X67583333Y-118829761D02*
X67583333Y-117782142D01*
X67678571Y-117591666D01*
X67869047Y-117496428D01*
X68250000Y-117496428D01*
X68440476Y-117591666D01*
X67583333Y-118734523D02*
X67773809Y-118829761D01*
X68250000Y-118829761D01*
X68440476Y-118734523D01*
X68535714Y-118544047D01*
X68535714Y-118353571D01*
X68440476Y-118163095D01*
X68250000Y-118067857D01*
X67773809Y-118067857D01*
X67583333Y-117972619D01*
X66630952Y-118829761D02*
X66630952Y-117496428D01*
X66630952Y-117877380D02*
X66535714Y-117686904D01*
X66440476Y-117591666D01*
X66250000Y-117496428D01*
X66059523Y-117496428D01*
X64535714Y-118829761D02*
X64535714Y-116829761D01*
X64535714Y-118734523D02*
X64726190Y-118829761D01*
X65107142Y-118829761D01*
X65297619Y-118734523D01*
X65392857Y-118639285D01*
X65488095Y-118448809D01*
X65488095Y-117877380D01*
X65392857Y-117686904D01*
X65297619Y-117591666D01*
X65107142Y-117496428D01*
X64726190Y-117496428D01*
X64535714Y-117591666D01*
X62345238Y-116829761D02*
X61678571Y-118829761D01*
X61011904Y-116829761D01*
X59488095Y-117496428D02*
X59488095Y-118829761D01*
X59964285Y-116734523D02*
X60440476Y-118163095D01*
X59202380Y-118163095D01*
X90678571Y-121979761D02*
X90678571Y-120646428D01*
X90678571Y-120836904D02*
X90583333Y-120741666D01*
X90392857Y-120646428D01*
X90107142Y-120646428D01*
X89916666Y-120741666D01*
X89821428Y-120932142D01*
X89821428Y-121979761D01*
X89821428Y-120932142D02*
X89726190Y-120741666D01*
X89535714Y-120646428D01*
X89250000Y-120646428D01*
X89059523Y-120741666D01*
X88964285Y-120932142D01*
X88964285Y-121979761D01*
X87154761Y-120646428D02*
X87154761Y-122646428D01*
X87154761Y-121884523D02*
X87345238Y-121979761D01*
X87726190Y-121979761D01*
X87916666Y-121884523D01*
X88011904Y-121789285D01*
X88107142Y-121598809D01*
X88107142Y-121027380D01*
X88011904Y-120836904D01*
X87916666Y-120741666D01*
X87726190Y-120646428D01*
X87345238Y-120646428D01*
X87154761Y-120741666D01*
X85345238Y-120646428D02*
X85345238Y-121979761D01*
X86202380Y-120646428D02*
X86202380Y-121694047D01*
X86107142Y-121884523D01*
X85916666Y-121979761D01*
X85630952Y-121979761D01*
X85440476Y-121884523D01*
X85345238Y-121789285D01*
X83630952Y-121884523D02*
X83821428Y-121979761D01*
X84202380Y-121979761D01*
X84392857Y-121884523D01*
X84488095Y-121694047D01*
X84488095Y-120932142D01*
X84392857Y-120741666D01*
X84202380Y-120646428D01*
X83821428Y-120646428D01*
X83630952Y-120741666D01*
X83535714Y-120932142D01*
X83535714Y-121122619D01*
X84488095Y-121313095D01*
X82869047Y-120646428D02*
X81821428Y-120646428D01*
X82869047Y-121979761D01*
X81821428Y-121979761D01*
X80202380Y-121979761D02*
X80202380Y-120932142D01*
X80297619Y-120741666D01*
X80488095Y-120646428D01*
X80869047Y-120646428D01*
X81059523Y-120741666D01*
X80202380Y-121884523D02*
X80392857Y-121979761D01*
X80869047Y-121979761D01*
X81059523Y-121884523D01*
X81154761Y-121694047D01*
X81154761Y-121503571D01*
X81059523Y-121313095D01*
X80869047Y-121217857D01*
X80392857Y-121217857D01*
X80202380Y-121122619D01*
X78392857Y-121979761D02*
X78392857Y-119979761D01*
X78392857Y-121884523D02*
X78583333Y-121979761D01*
X78964285Y-121979761D01*
X79154761Y-121884523D01*
X79250000Y-121789285D01*
X79345238Y-121598809D01*
X79345238Y-121027380D01*
X79250000Y-120836904D01*
X79154761Y-120741666D01*
X78964285Y-120646428D01*
X78583333Y-120646428D01*
X78392857Y-120741666D01*
X76583333Y-121979761D02*
X76583333Y-120932142D01*
X76678571Y-120741666D01*
X76869047Y-120646428D01*
X77250000Y-120646428D01*
X77440476Y-120741666D01*
X76583333Y-121884523D02*
X76773809Y-121979761D01*
X77250000Y-121979761D01*
X77440476Y-121884523D01*
X77535714Y-121694047D01*
X77535714Y-121503571D01*
X77440476Y-121313095D01*
X77250000Y-121217857D01*
X76773809Y-121217857D01*
X76583333Y-121122619D01*
X74202380Y-120170238D02*
X74107142Y-120075000D01*
X73916666Y-119979761D01*
X73440476Y-119979761D01*
X73250000Y-120075000D01*
X73154761Y-120170238D01*
X73059523Y-120360714D01*
X73059523Y-120551190D01*
X73154761Y-120836904D01*
X74297619Y-121979761D01*
X73059523Y-121979761D01*
X71821428Y-119979761D02*
X71630952Y-119979761D01*
X71440476Y-120075000D01*
X71345238Y-120170238D01*
X71250000Y-120360714D01*
X71154761Y-120741666D01*
X71154761Y-121217857D01*
X71250000Y-121598809D01*
X71345238Y-121789285D01*
X71440476Y-121884523D01*
X71630952Y-121979761D01*
X71821428Y-121979761D01*
X72011904Y-121884523D01*
X72107142Y-121789285D01*
X72202380Y-121598809D01*
X72297619Y-121217857D01*
X72297619Y-120741666D01*
X72202380Y-120360714D01*
X72107142Y-120170238D01*
X72011904Y-120075000D01*
X71821428Y-119979761D01*
X70392857Y-120170238D02*
X70297619Y-120075000D01*
X70107142Y-119979761D01*
X69630952Y-119979761D01*
X69440476Y-120075000D01*
X69345238Y-120170238D01*
X69250000Y-120360714D01*
X69250000Y-120551190D01*
X69345238Y-120836904D01*
X70488095Y-121979761D01*
X69250000Y-121979761D01*
X68011904Y-119979761D02*
X67821428Y-119979761D01*
X67630952Y-120075000D01*
X67535714Y-120170238D01*
X67440476Y-120360714D01*
X67345238Y-120741666D01*
X67345238Y-121217857D01*
X67440476Y-121598809D01*
X67535714Y-121789285D01*
X67630952Y-121884523D01*
X67821428Y-121979761D01*
X68011904Y-121979761D01*
X68202380Y-121884523D01*
X68297619Y-121789285D01*
X68392857Y-121598809D01*
X68488095Y-121217857D01*
X68488095Y-120741666D01*
X68392857Y-120360714D01*
X68297619Y-120170238D01*
X68202380Y-120075000D01*
X68011904Y-119979761D01*
X66107142Y-119979761D02*
X65916666Y-119979761D01*
X65726190Y-120075000D01*
X65630952Y-120170238D01*
X65535714Y-120360714D01*
X65440476Y-120741666D01*
X65440476Y-121217857D01*
X65535714Y-121598809D01*
X65630952Y-121789285D01*
X65726190Y-121884523D01*
X65916666Y-121979761D01*
X66107142Y-121979761D01*
X66297619Y-121884523D01*
X66392857Y-121789285D01*
X66488095Y-121598809D01*
X66583333Y-121217857D01*
X66583333Y-120741666D01*
X66488095Y-120360714D01*
X66392857Y-120170238D01*
X66297619Y-120075000D01*
X66107142Y-119979761D01*
X64773809Y-119979761D02*
X63440476Y-119979761D01*
X64297619Y-121979761D01*
X61630952Y-121979761D02*
X62773809Y-121979761D01*
X62202380Y-121979761D02*
X62202380Y-119979761D01*
X62392857Y-120265476D01*
X62583333Y-120455952D01*
X62773809Y-120551190D01*
X60964285Y-119979761D02*
X59630952Y-119979761D01*
X60488095Y-121979761D01*
X164973095Y-116070000D02*
X164877857Y-116117619D01*
X164735000Y-116117619D01*
X164592142Y-116070000D01*
X164496904Y-115974761D01*
X164449285Y-115879523D01*
X164401666Y-115689047D01*
X164401666Y-115546190D01*
X164449285Y-115355714D01*
X164496904Y-115260476D01*
X164592142Y-115165238D01*
X164735000Y-115117619D01*
X164830238Y-115117619D01*
X164973095Y-115165238D01*
X165020714Y-115212857D01*
X165020714Y-115546190D01*
X164830238Y-115546190D01*
X165449285Y-115117619D02*
X165449285Y-116117619D01*
X166020714Y-115117619D01*
X166020714Y-116117619D01*
X166496904Y-115117619D02*
X166496904Y-116117619D01*
X166735000Y-116117619D01*
X166877857Y-116070000D01*
X166973095Y-115974761D01*
X167020714Y-115879523D01*
X167068333Y-115689047D01*
X167068333Y-115546190D01*
X167020714Y-115355714D01*
X166973095Y-115260476D01*
X166877857Y-115165238D01*
X166735000Y-115117619D01*
X166496904Y-115117619D01*
X167306428Y-112847380D02*
X167306428Y-111847380D01*
X166973095Y-112561666D01*
X166639761Y-111847380D01*
X166639761Y-112847380D01*
X165973095Y-111847380D02*
X165782619Y-111847380D01*
X165687380Y-111895000D01*
X165592142Y-111990238D01*
X165544523Y-112180714D01*
X165544523Y-112514047D01*
X165592142Y-112704523D01*
X165687380Y-112799761D01*
X165782619Y-112847380D01*
X165973095Y-112847380D01*
X166068333Y-112799761D01*
X166163571Y-112704523D01*
X166211190Y-112514047D01*
X166211190Y-112180714D01*
X166163571Y-111990238D01*
X166068333Y-111895000D01*
X165973095Y-111847380D01*
X165163571Y-112799761D02*
X165020714Y-112847380D01*
X164782619Y-112847380D01*
X164687380Y-112799761D01*
X164639761Y-112752142D01*
X164592142Y-112656904D01*
X164592142Y-112561666D01*
X164639761Y-112466428D01*
X164687380Y-112418809D01*
X164782619Y-112371190D01*
X164973095Y-112323571D01*
X165068333Y-112275952D01*
X165115952Y-112228333D01*
X165163571Y-112133095D01*
X165163571Y-112037857D01*
X165115952Y-111942619D01*
X165068333Y-111895000D01*
X164973095Y-111847380D01*
X164735000Y-111847380D01*
X164592142Y-111895000D01*
X164163571Y-112847380D02*
X164163571Y-111847380D01*
X176077380Y-116022380D02*
X176410714Y-115546190D01*
X176648809Y-116022380D02*
X176648809Y-115022380D01*
X176267857Y-115022380D01*
X176172619Y-115070000D01*
X176125000Y-115117619D01*
X176077380Y-115212857D01*
X176077380Y-115355714D01*
X176125000Y-115450952D01*
X176172619Y-115498571D01*
X176267857Y-115546190D01*
X176648809Y-115546190D01*
X175648809Y-115498571D02*
X175315476Y-115498571D01*
X175172619Y-116022380D02*
X175648809Y-116022380D01*
X175648809Y-115022380D01*
X175172619Y-115022380D01*
X174791666Y-115974761D02*
X174648809Y-116022380D01*
X174410714Y-116022380D01*
X174315476Y-115974761D01*
X174267857Y-115927142D01*
X174220238Y-115831904D01*
X174220238Y-115736666D01*
X174267857Y-115641428D01*
X174315476Y-115593809D01*
X174410714Y-115546190D01*
X174601190Y-115498571D01*
X174696428Y-115450952D01*
X174744047Y-115403333D01*
X174791666Y-115308095D01*
X174791666Y-115212857D01*
X174744047Y-115117619D01*
X174696428Y-115070000D01*
X174601190Y-115022380D01*
X174363095Y-115022380D01*
X174220238Y-115070000D01*
X173791666Y-115498571D02*
X173458333Y-115498571D01*
X173315476Y-116022380D02*
X173791666Y-116022380D01*
X173791666Y-115022380D01*
X173315476Y-115022380D01*
X173029761Y-115022380D02*
X172458333Y-115022380D01*
X172744047Y-116022380D02*
X172744047Y-115022380D01*
X173712142Y-111904761D02*
X173759761Y-111857142D01*
X173807380Y-111714285D01*
X173807380Y-111619047D01*
X173759761Y-111476190D01*
X173664523Y-111380952D01*
X173569285Y-111333333D01*
X173378809Y-111285714D01*
X173235952Y-111285714D01*
X173045476Y-111333333D01*
X172950238Y-111380952D01*
X172855000Y-111476190D01*
X172807380Y-111619047D01*
X172807380Y-111714285D01*
X172855000Y-111857142D01*
X172902619Y-111904761D01*
X173807380Y-112809523D02*
X173807380Y-112333333D01*
X172807380Y-112333333D01*
X173807380Y-113142857D02*
X172807380Y-113142857D01*
X173807380Y-113714285D02*
X173235952Y-113285714D01*
X172807380Y-113714285D02*
X173378809Y-113142857D01*
X166560476Y-108672380D02*
X167036666Y-108672380D01*
X167084285Y-109148571D01*
X167036666Y-109100952D01*
X166941428Y-109053333D01*
X166703333Y-109053333D01*
X166608095Y-109100952D01*
X166560476Y-109148571D01*
X166512857Y-109243809D01*
X166512857Y-109481904D01*
X166560476Y-109577142D01*
X166608095Y-109624761D01*
X166703333Y-109672380D01*
X166941428Y-109672380D01*
X167036666Y-109624761D01*
X167084285Y-109577142D01*
X166227142Y-108672380D02*
X165893809Y-109672380D01*
X165560476Y-108672380D01*
X173807380Y-107648571D02*
X172807380Y-107648571D01*
X173521666Y-107981904D01*
X172807380Y-108315238D01*
X173807380Y-108315238D01*
X173807380Y-108791428D02*
X172807380Y-108791428D01*
X173759761Y-109220000D02*
X173807380Y-109362857D01*
X173807380Y-109600952D01*
X173759761Y-109696190D01*
X173712142Y-109743809D01*
X173616904Y-109791428D01*
X173521666Y-109791428D01*
X173426428Y-109743809D01*
X173378809Y-109696190D01*
X173331190Y-109600952D01*
X173283571Y-109410476D01*
X173235952Y-109315238D01*
X173188333Y-109267619D01*
X173093095Y-109220000D01*
X172997857Y-109220000D01*
X172902619Y-109267619D01*
X172855000Y-109315238D01*
X172807380Y-109410476D01*
X172807380Y-109648571D01*
X172855000Y-109791428D01*
X172807380Y-110410476D02*
X172807380Y-110600952D01*
X172855000Y-110696190D01*
X172950238Y-110791428D01*
X173140714Y-110839047D01*
X173474047Y-110839047D01*
X173664523Y-110791428D01*
X173759761Y-110696190D01*
X173807380Y-110600952D01*
X173807380Y-110410476D01*
X173759761Y-110315238D01*
X173664523Y-110220000D01*
X173474047Y-110172380D01*
X173140714Y-110172380D01*
X172950238Y-110220000D01*
X172855000Y-110315238D01*
X172807380Y-110410476D01*
D11*
X170500000Y-69050000D02*
X170500000Y-70200000D01*
X167250000Y-69050000D02*
X170500000Y-69050000D01*
X168500000Y-69900000D02*
X168500000Y-70250000D01*
X164700000Y-69900000D02*
X168500000Y-69900000D01*
D10*
X152946428Y-130589285D02*
X152946428Y-129839285D01*
X152660714Y-129839285D01*
X152589285Y-129875000D01*
X152553571Y-129910714D01*
X152517857Y-129982142D01*
X152517857Y-130089285D01*
X152553571Y-130160714D01*
X152589285Y-130196428D01*
X152660714Y-130232142D01*
X152946428Y-130232142D01*
X151767857Y-130589285D02*
X152017857Y-130232142D01*
X152196428Y-130589285D02*
X152196428Y-129839285D01*
X151910714Y-129839285D01*
X151839285Y-129875000D01*
X151803571Y-129910714D01*
X151767857Y-129982142D01*
X151767857Y-130089285D01*
X151803571Y-130160714D01*
X151839285Y-130196428D01*
X151910714Y-130232142D01*
X152196428Y-130232142D01*
X151053571Y-129875000D02*
X151125000Y-129839285D01*
X151232142Y-129839285D01*
X151339285Y-129875000D01*
X151410714Y-129946428D01*
X151446428Y-130017857D01*
X151482142Y-130160714D01*
X151482142Y-130267857D01*
X151446428Y-130410714D01*
X151410714Y-130482142D01*
X151339285Y-130553571D01*
X151232142Y-130589285D01*
X151160714Y-130589285D01*
X151053571Y-130553571D01*
X151017857Y-130517857D01*
X151017857Y-130267857D01*
X151160714Y-130267857D01*
X146053571Y-130589285D02*
X146303571Y-130232142D01*
X146482142Y-130589285D02*
X146482142Y-129839285D01*
X146196428Y-129839285D01*
X146125000Y-129875000D01*
X146089285Y-129910714D01*
X146053571Y-129982142D01*
X146053571Y-130089285D01*
X146089285Y-130160714D01*
X146125000Y-130196428D01*
X146196428Y-130232142D01*
X146482142Y-130232142D01*
X145732142Y-129839285D02*
X145732142Y-130446428D01*
X145696428Y-130517857D01*
X145660714Y-130553571D01*
X145589285Y-130589285D01*
X145446428Y-130589285D01*
X145375000Y-130553571D01*
X145339285Y-130517857D01*
X145303571Y-130446428D01*
X145303571Y-129839285D01*
X144946428Y-130589285D02*
X144946428Y-129839285D01*
X144517857Y-130589285D01*
X144517857Y-129839285D01*
D11*
X82238748Y-101210000D02*
X82761252Y-101210000D01*
X82238748Y-99790000D02*
X82761252Y-99790000D01*
X82511252Y-76790000D02*
X81988748Y-76790000D01*
X82511252Y-78210000D02*
X81988748Y-78210000D01*
X143960000Y-127261252D02*
X143960000Y-126738748D01*
X142540000Y-127261252D02*
X142540000Y-126738748D01*
D14*
X130750000Y-130000000D02*
X130750000Y-129100000D01*
X119250000Y-130000000D02*
X119250000Y-126500000D01*
X130750000Y-125500000D02*
X128500000Y-125500000D01*
X130750000Y-129100000D02*
X130750000Y-125500000D01*
X119250000Y-125500000D02*
X121500000Y-125500000D01*
X119250000Y-126500000D02*
X119250000Y-125500000D01*
X119250000Y-130000000D02*
X120500000Y-130000000D01*
X130750000Y-130000000D02*
X129500000Y-130000000D01*
D11*
X51680000Y-50487520D02*
X51680000Y-54607520D01*
X71800000Y-50487520D02*
X71800000Y-54607520D01*
X51980000Y-49232520D02*
X51980000Y-50487520D01*
X51680000Y-50487520D02*
X51980000Y-50487520D01*
X51680000Y-54607520D02*
X51980000Y-54607520D01*
X71500000Y-50487520D02*
X71800000Y-50487520D01*
X71500000Y-54607520D02*
X71800000Y-54607520D01*
X53500000Y-50487520D02*
X53980000Y-50487520D01*
X53500000Y-54607520D02*
X53980000Y-54607520D01*
X55500000Y-50487520D02*
X55980000Y-50487520D01*
X55500000Y-54607520D02*
X55980000Y-54607520D01*
X57500000Y-50487520D02*
X57980000Y-50487520D01*
X57500000Y-54607520D02*
X57980000Y-54607520D01*
X59500000Y-50487520D02*
X59980000Y-50487520D01*
X59500000Y-54607520D02*
X59980000Y-54607520D01*
X61500000Y-50487520D02*
X61980000Y-50487520D01*
X61500000Y-54607520D02*
X61980000Y-54607520D01*
X63500000Y-50487520D02*
X63980000Y-50487520D01*
X63500000Y-54607520D02*
X63980000Y-54607520D01*
X65500000Y-50487520D02*
X65980000Y-50487520D01*
X65500000Y-54607520D02*
X65980000Y-54607520D01*
X67500000Y-50487520D02*
X67980000Y-50487520D01*
X67500000Y-54607520D02*
X67980000Y-54607520D01*
X69500000Y-50487520D02*
X69980000Y-50487520D01*
X69500000Y-54607520D02*
X69980000Y-54607520D01*
X69638748Y-124340000D02*
X70161252Y-124340000D01*
X69638748Y-125760000D02*
X70161252Y-125760000D01*
D14*
X137060000Y-66700000D02*
X139600000Y-66700000D01*
X139600000Y-66700000D02*
X142140000Y-66700000D01*
X142140000Y-66700000D02*
X142140000Y-67652500D01*
X142140000Y-67652500D02*
X142140000Y-68287500D01*
X142140000Y-68287500D02*
X142140000Y-69240000D01*
X142140000Y-69240000D02*
X142140000Y-117500000D01*
X142140000Y-117500000D02*
X137060000Y-117500000D01*
X137060000Y-117500000D02*
X137060000Y-66700000D01*
X139600000Y-66700000D02*
X139600000Y-69240000D01*
X139600000Y-69240000D02*
X142140000Y-69240000D01*
X142140000Y-67220000D02*
X143875000Y-67220000D01*
X143875000Y-67220000D02*
X143875000Y-68720000D01*
X142140000Y-68720000D02*
X143875000Y-68720000D01*
D11*
X177870000Y-106300000D02*
X179870000Y-106300000D01*
X179870000Y-102700000D02*
X177870000Y-102700000D01*
X180270000Y-103750000D02*
X180670000Y-103750000D01*
X177870000Y-102500000D02*
X179870000Y-102500000D01*
X179870000Y-106300000D02*
X180270000Y-106300000D01*
X179870000Y-102700000D02*
X180270000Y-102700000D01*
X179870000Y-102500000D02*
X180270000Y-102500000D01*
X177870000Y-102700000D02*
X177870000Y-102850000D01*
X180270000Y-102700000D02*
X180270000Y-102850000D01*
X180270000Y-103750000D02*
X180270000Y-103700000D01*
X180270000Y-106300000D02*
X180270000Y-106150000D01*
X177870000Y-106300000D02*
X177870000Y-106150000D01*
X158250000Y-130310000D02*
X156300000Y-130310000D01*
X158250000Y-130310000D02*
X160200000Y-130310000D01*
X158250000Y-125190000D02*
X156300000Y-125190000D01*
X158250000Y-125190000D02*
X161700000Y-125190000D01*
X169210000Y-71938748D02*
X169210000Y-72461252D01*
X167790000Y-71938748D02*
X167790000Y-72461252D01*
X169790000Y-72461252D02*
X169790000Y-71938748D01*
X171210000Y-72461252D02*
X171210000Y-71938748D01*
X175710000Y-52738748D02*
X175710000Y-53261252D01*
X174290000Y-52738748D02*
X174290000Y-53261252D01*
X34738748Y-54210000D02*
X35261252Y-54210000D01*
X34738748Y-52790000D02*
X35261252Y-52790000D01*
X37290000Y-73761252D02*
X37290000Y-73238748D01*
X38710000Y-73761252D02*
X38710000Y-73238748D01*
X36840000Y-93838748D02*
X36840000Y-94361252D01*
X38260000Y-93838748D02*
X38260000Y-94361252D01*
X93688748Y-125610000D02*
X94211252Y-125610000D01*
X93688748Y-124190000D02*
X94211252Y-124190000D01*
X118261252Y-121960000D02*
X117738748Y-121960000D01*
X118261252Y-120540000D02*
X117738748Y-120540000D01*
X142540000Y-52938748D02*
X142540000Y-53461252D01*
X143960000Y-52938748D02*
X143960000Y-53461252D01*
X171960000Y-55238748D02*
X171960000Y-55761252D01*
X170540000Y-55238748D02*
X170540000Y-55761252D01*
X180090000Y-52638748D02*
X180090000Y-53161252D01*
X181510000Y-52638748D02*
X181510000Y-53161252D01*
X176838748Y-127810000D02*
X177361252Y-127810000D01*
X176838748Y-126390000D02*
X177361252Y-126390000D01*
X168210000Y-121488748D02*
X168210000Y-122011252D01*
X166790000Y-121488748D02*
X166790000Y-122011252D01*
X43261252Y-48790000D02*
X42738748Y-48790000D01*
X43261252Y-50210000D02*
X42738748Y-50210000D01*
X172780000Y-116265000D02*
X167580000Y-116265000D01*
X172780000Y-111125000D02*
X172780000Y-116265000D01*
X167580000Y-108525000D02*
X167580000Y-116265000D01*
X172780000Y-111125000D02*
X170180000Y-111125000D01*
X170180000Y-111125000D02*
X170180000Y-108525000D01*
X170180000Y-108525000D02*
X167580000Y-108525000D01*
X172780000Y-109855000D02*
X172780000Y-108525000D01*
X172780000Y-108525000D02*
X171450000Y-108525000D01*
D14*
X152350000Y-126450000D02*
X145650000Y-126450000D01*
X145650000Y-126450000D02*
X145650000Y-129050000D01*
X145650000Y-129050000D02*
X152350000Y-129050000D01*
X152350000Y-129050000D02*
X152350000Y-126450000D01*
D11*
X79661252Y-50210000D02*
X79138748Y-50210000D01*
X79661252Y-48790000D02*
X79138748Y-48790000D01*
X156710000Y-51696252D02*
X156710000Y-51173748D01*
X155290000Y-51696252D02*
X155290000Y-51173748D01*
X156710000Y-55988748D02*
X156710000Y-56511252D01*
X155290000Y-55988748D02*
X155290000Y-56511252D01*
X171540000Y-50738748D02*
X171540000Y-51261252D01*
X172960000Y-50738748D02*
X172960000Y-51261252D01*
D13*
X173125000Y-98075000D02*
X173125000Y-98300000D01*
X165875000Y-98075000D02*
X165875000Y-98400000D01*
X165875000Y-105325000D02*
X165875000Y-105000000D01*
X173125000Y-105325000D02*
X173125000Y-105000000D01*
X173125000Y-98075000D02*
X172800000Y-98075000D01*
X173125000Y-105325000D02*
X172800000Y-105325000D01*
X165875000Y-105325000D02*
X166200000Y-105325000D01*
X165875000Y-98075000D02*
X166200000Y-98075000D01*
X173125000Y-98300000D02*
X174550000Y-98300000D01*
D11*
X172660000Y-64195000D02*
X172660000Y-58995000D01*
X177800000Y-64195000D02*
X172660000Y-64195000D01*
X180400000Y-58995000D02*
X172660000Y-58995000D01*
X177800000Y-64195000D02*
X177800000Y-61595000D01*
X177800000Y-61595000D02*
X180400000Y-61595000D01*
X180400000Y-61595000D02*
X180400000Y-58995000D01*
X179070000Y-64195000D02*
X180400000Y-64195000D01*
X180400000Y-64195000D02*
X180400000Y-62865000D01*
X179510000Y-99861252D02*
X179510000Y-99338748D01*
X178090000Y-99861252D02*
X178090000Y-99338748D01*
X180290000Y-99861252D02*
X180290000Y-99338748D01*
X181710000Y-99861252D02*
X181710000Y-99338748D01*
X76760000Y-54626252D02*
X76760000Y-54103748D01*
X78180000Y-54626252D02*
X78180000Y-54103748D01*
X72435000Y-52380000D02*
X75295000Y-52380000D01*
X72435000Y-54300000D02*
X72435000Y-52380000D01*
X75295000Y-54300000D02*
X72435000Y-54300000D01*
X81105000Y-54871252D02*
X81105000Y-54348748D01*
X82525000Y-54871252D02*
X82525000Y-54348748D01*
X83010000Y-54348748D02*
X83010000Y-54871252D01*
X84430000Y-54348748D02*
X84430000Y-54871252D01*
X74033748Y-54670000D02*
X74556252Y-54670000D01*
X74033748Y-56090000D02*
X74556252Y-56090000D01*
X176903748Y-109930000D02*
X177426252Y-109930000D01*
X176903748Y-108510000D02*
X177426252Y-108510000D01*
X103845000Y-50968000D02*
X108245000Y-50968000D01*
X103845000Y-46568000D02*
X103845000Y-50968000D01*
X108245000Y-46568000D02*
X103845000Y-46568000D01*
X108245000Y-50968000D02*
X108245000Y-46568000D01*
X176600000Y-65015000D02*
X178550000Y-65015000D01*
X176600000Y-65015000D02*
X174650000Y-65015000D01*
X176600000Y-73885000D02*
X178550000Y-73885000D01*
X176600000Y-73885000D02*
X173150000Y-73885000D01*
X171340000Y-77288748D02*
X171340000Y-77811252D01*
X172760000Y-77288748D02*
X172760000Y-77811252D01*
X167690000Y-77288748D02*
X167690000Y-77811252D01*
X169110000Y-77288748D02*
X169110000Y-77811252D01*
X171990000Y-85311252D02*
X171990000Y-84788748D01*
X173410000Y-85311252D02*
X173410000Y-84788748D01*
X167340000Y-85311252D02*
X167340000Y-84788748D01*
X168760000Y-85311252D02*
X168760000Y-84788748D01*
X163960000Y-128463748D02*
X163960000Y-128986252D01*
X162540000Y-128463748D02*
X162540000Y-128986252D01*
X164790000Y-128213748D02*
X164790000Y-128736252D01*
X166210000Y-128213748D02*
X166210000Y-128736252D01*
X44210000Y-60976252D02*
X44210000Y-60453748D01*
X42790000Y-60976252D02*
X42790000Y-60453748D01*
X40838748Y-73290000D02*
X41361252Y-73290000D01*
X40838748Y-74710000D02*
X41361252Y-74710000D01*
X40838748Y-101210000D02*
X41361252Y-101210000D01*
X40838748Y-99790000D02*
X41361252Y-99790000D01*
X132815000Y-128511252D02*
X132815000Y-127988748D01*
X134235000Y-128511252D02*
X134235000Y-127988748D01*
X170061252Y-117990000D02*
X169538748Y-117990000D01*
X170061252Y-119410000D02*
X169538748Y-119410000D01*
X176838748Y-116590000D02*
X177361252Y-116590000D01*
X176838748Y-118010000D02*
X177361252Y-118010000D01*
X147261252Y-52290000D02*
X146738748Y-52290000D01*
X147261252Y-53710000D02*
X146738748Y-53710000D01*
X168786252Y-61210000D02*
X168263748Y-61210000D01*
X168786252Y-59790000D02*
X168263748Y-59790000D01*
X183210000Y-59033252D02*
X183210000Y-58510748D01*
X181790000Y-59033252D02*
X181790000Y-58510748D01*
X82238748Y-102790000D02*
X82761252Y-102790000D01*
X82238748Y-104210000D02*
X82761252Y-104210000D01*
X82511252Y-80710000D02*
X81988748Y-80710000D01*
X82511252Y-79290000D02*
X81988748Y-79290000D01*
X82261252Y-74710000D02*
X81738748Y-74710000D01*
X82261252Y-73290000D02*
X81738748Y-73290000D01*
D14*
X70231246Y-67355764D02*
X71131246Y-67355764D01*
X70231246Y-96955764D02*
X70231246Y-67355764D01*
X71131246Y-96955764D02*
X70231246Y-96955764D01*
X75431246Y-67355764D02*
X74131246Y-67355764D01*
X75431246Y-69455764D02*
X75431246Y-67355764D01*
X75431246Y-96955764D02*
X74131246Y-96955764D01*
X75431246Y-94755764D02*
X75431246Y-96955764D01*
D11*
X80238748Y-97710000D02*
X80761252Y-97710000D01*
X80238748Y-96290000D02*
X80761252Y-96290000D01*
X41750000Y-56000000D02*
X35250000Y-56000000D01*
X41750000Y-56000000D02*
X41750000Y-65900000D01*
X35250000Y-56000000D02*
X35250000Y-65900000D01*
X39410436Y-54360000D02*
X40614564Y-54360000D01*
X39410436Y-51640000D02*
X40614564Y-51640000D01*
D15*
X81342364Y-92557452D02*
X81457269Y-92500000D01*
X81572174Y-92385095D01*
X81744531Y-92212738D01*
X81859436Y-92155285D01*
X81974340Y-92155285D01*
X81916888Y-92442547D02*
X82031793Y-92385095D01*
X82146698Y-92270190D01*
X82204150Y-92040380D01*
X82204150Y-91638214D01*
X82146698Y-91408404D01*
X82031793Y-91293500D01*
X81916888Y-91236047D01*
X81687079Y-91236047D01*
X81572174Y-91293500D01*
X81457269Y-91408404D01*
X81399817Y-91638214D01*
X81399817Y-92040380D01*
X81457269Y-92270190D01*
X81572174Y-92385095D01*
X81687079Y-92442547D01*
X81916888Y-92442547D01*
X80365674Y-91638214D02*
X80365674Y-92442547D01*
X80652936Y-91178595D02*
X80940198Y-92040380D01*
X80193317Y-92040380D01*
X79503888Y-91236047D02*
X79388983Y-91236047D01*
X79274079Y-91293500D01*
X79216626Y-91350952D01*
X79159174Y-91465857D01*
X79101721Y-91695666D01*
X79101721Y-91982928D01*
X79159174Y-92212738D01*
X79216626Y-92327642D01*
X79274079Y-92385095D01*
X79388983Y-92442547D01*
X79503888Y-92442547D01*
X79618793Y-92385095D01*
X79676245Y-92327642D01*
X79733698Y-92212738D01*
X79791150Y-91982928D01*
X79791150Y-91695666D01*
X79733698Y-91465857D01*
X79676245Y-91350952D01*
X79618793Y-91293500D01*
X79503888Y-91236047D01*
X77952674Y-92442547D02*
X78642102Y-92442547D01*
X78297388Y-92442547D02*
X78297388Y-91236047D01*
X78412293Y-91408404D01*
X78527198Y-91523309D01*
X78642102Y-91580761D01*
D13*
X84642857Y-100666666D02*
X84595238Y-100714285D01*
X84547619Y-100857142D01*
X84547619Y-100952380D01*
X84595238Y-101095238D01*
X84690476Y-101190476D01*
X84785714Y-101238095D01*
X84976190Y-101285714D01*
X85119047Y-101285714D01*
X85309523Y-101238095D01*
X85404761Y-101190476D01*
X85500000Y-101095238D01*
X85547619Y-100952380D01*
X85547619Y-100857142D01*
X85500000Y-100714285D01*
X85452380Y-100666666D01*
X84547619Y-99714285D02*
X84547619Y-100285714D01*
X84547619Y-100000000D02*
X85547619Y-100000000D01*
X85404761Y-100095238D01*
X85309523Y-100190476D01*
X85261904Y-100285714D01*
X84547619Y-77666666D02*
X85023809Y-78000000D01*
X84547619Y-78238095D02*
X85547619Y-78238095D01*
X85547619Y-77857142D01*
X85500000Y-77761904D01*
X85452380Y-77714285D01*
X85357142Y-77666666D01*
X85214285Y-77666666D01*
X85119047Y-77714285D01*
X85071428Y-77761904D01*
X85023809Y-77857142D01*
X85023809Y-78238095D01*
X85214285Y-76809523D02*
X84547619Y-76809523D01*
X85595238Y-77047619D02*
X84880952Y-77285714D01*
X84880952Y-76666666D01*
X143357142Y-122380952D02*
X143404761Y-122333333D01*
X143452380Y-122190476D01*
X143452380Y-122095238D01*
X143404761Y-121952380D01*
X143309523Y-121857142D01*
X143214285Y-121809523D01*
X143023809Y-121761904D01*
X142880952Y-121761904D01*
X142690476Y-121809523D01*
X142595238Y-121857142D01*
X142500000Y-121952380D01*
X142452380Y-122095238D01*
X142452380Y-122190476D01*
X142500000Y-122333333D01*
X142547619Y-122380952D01*
X142547619Y-122761904D02*
X142500000Y-122809523D01*
X142452380Y-122904761D01*
X142452380Y-123142857D01*
X142500000Y-123238095D01*
X142547619Y-123285714D01*
X142642857Y-123333333D01*
X142738095Y-123333333D01*
X142880952Y-123285714D01*
X143452380Y-122714285D01*
X143452380Y-123333333D01*
X143452380Y-124285714D02*
X143452380Y-123714285D01*
X143452380Y-124000000D02*
X142452380Y-124000000D01*
X142595238Y-123904761D01*
X142690476Y-123809523D01*
X142738095Y-123714285D01*
X143452380Y-125238095D02*
X143452380Y-124666666D01*
X143452380Y-124952380D02*
X142452380Y-124952380D01*
X142595238Y-124857142D01*
X142690476Y-124761904D01*
X142738095Y-124666666D01*
X117952380Y-127121309D02*
X118666666Y-127121309D01*
X118809523Y-127073690D01*
X118904761Y-126978452D01*
X118952380Y-126835595D01*
X118952380Y-126740357D01*
X118952380Y-128121309D02*
X118952380Y-127549880D01*
X118952380Y-127835595D02*
X117952380Y-127835595D01*
X118095238Y-127740357D01*
X118190476Y-127645119D01*
X118238095Y-127549880D01*
X117952380Y-128740357D02*
X117952380Y-128835595D01*
X118000000Y-128930833D01*
X118047619Y-128978452D01*
X118142857Y-129026071D01*
X118333333Y-129073690D01*
X118571428Y-129073690D01*
X118761904Y-129026071D01*
X118857142Y-128978452D01*
X118904761Y-128930833D01*
X118952380Y-128835595D01*
X118952380Y-128740357D01*
X118904761Y-128645119D01*
X118857142Y-128597500D01*
X118761904Y-128549880D01*
X118571428Y-128502261D01*
X118333333Y-128502261D01*
X118142857Y-128549880D01*
X118047619Y-128597500D01*
X118000000Y-128645119D01*
X117952380Y-128740357D01*
X118047619Y-129454642D02*
X118000000Y-129502261D01*
X117952380Y-129597500D01*
X117952380Y-129835595D01*
X118000000Y-129930833D01*
X118047619Y-129978452D01*
X118142857Y-130026071D01*
X118238095Y-130026071D01*
X118380952Y-129978452D01*
X118952380Y-129407023D01*
X118952380Y-130026071D01*
X50452380Y-50214285D02*
X51166666Y-50214285D01*
X51309523Y-50166666D01*
X51404761Y-50071428D01*
X51452380Y-49928571D01*
X51452380Y-49833333D01*
X51452380Y-51214285D02*
X51452380Y-50642857D01*
X51452380Y-50928571D02*
X50452380Y-50928571D01*
X50595238Y-50833333D01*
X50690476Y-50738095D01*
X50738095Y-50642857D01*
X50452380Y-51833333D02*
X50452380Y-51928571D01*
X50500000Y-52023809D01*
X50547619Y-52071428D01*
X50642857Y-52119047D01*
X50833333Y-52166666D01*
X51071428Y-52166666D01*
X51261904Y-52119047D01*
X51357142Y-52071428D01*
X51404761Y-52023809D01*
X51452380Y-51928571D01*
X51452380Y-51833333D01*
X51404761Y-51738095D01*
X51357142Y-51690476D01*
X51261904Y-51642857D01*
X51071428Y-51595238D01*
X50833333Y-51595238D01*
X50642857Y-51642857D01*
X50547619Y-51690476D01*
X50500000Y-51738095D01*
X50452380Y-51833333D01*
X51452380Y-53119047D02*
X51452380Y-52547619D01*
X51452380Y-52833333D02*
X50452380Y-52833333D01*
X50595238Y-52738095D01*
X50690476Y-52642857D01*
X50738095Y-52547619D01*
X42297619Y-119340476D02*
X43297619Y-119340476D01*
X43297619Y-119102380D01*
X43250000Y-118959523D01*
X43154761Y-118864285D01*
X43059523Y-118816666D01*
X42869047Y-118769047D01*
X42726190Y-118769047D01*
X42535714Y-118816666D01*
X42440476Y-118864285D01*
X42345238Y-118959523D01*
X42297619Y-119102380D01*
X42297619Y-119340476D01*
X43297619Y-118435714D02*
X43297619Y-117816666D01*
X42916666Y-118150000D01*
X42916666Y-118007142D01*
X42869047Y-117911904D01*
X42821428Y-117864285D01*
X42726190Y-117816666D01*
X42488095Y-117816666D01*
X42392857Y-117864285D01*
X42345238Y-117911904D01*
X42297619Y-118007142D01*
X42297619Y-118292857D01*
X42345238Y-118388095D01*
X42392857Y-118435714D01*
X42297619Y-116864285D02*
X42297619Y-117435714D01*
X42297619Y-117150000D02*
X43297619Y-117150000D01*
X43154761Y-117245238D01*
X43059523Y-117340476D01*
X43011904Y-117435714D01*
X43202380Y-116483333D02*
X43250000Y-116435714D01*
X43297619Y-116340476D01*
X43297619Y-116102380D01*
X43250000Y-116007142D01*
X43202380Y-115959523D01*
X43107142Y-115911904D01*
X43011904Y-115911904D01*
X42869047Y-115959523D01*
X42297619Y-116530952D01*
X42297619Y-115911904D01*
X71019047Y-123857142D02*
X71066666Y-123904761D01*
X71209523Y-123952380D01*
X71304761Y-123952380D01*
X71447619Y-123904761D01*
X71542857Y-123809523D01*
X71590476Y-123714285D01*
X71638095Y-123523809D01*
X71638095Y-123380952D01*
X71590476Y-123190476D01*
X71542857Y-123095238D01*
X71447619Y-123000000D01*
X71304761Y-122952380D01*
X71209523Y-122952380D01*
X71066666Y-123000000D01*
X71019047Y-123047619D01*
X70638095Y-123047619D02*
X70590476Y-123000000D01*
X70495238Y-122952380D01*
X70257142Y-122952380D01*
X70161904Y-123000000D01*
X70114285Y-123047619D01*
X70066666Y-123142857D01*
X70066666Y-123238095D01*
X70114285Y-123380952D01*
X70685714Y-123952380D01*
X70066666Y-123952380D01*
X69447619Y-122952380D02*
X69352380Y-122952380D01*
X69257142Y-123000000D01*
X69209523Y-123047619D01*
X69161904Y-123142857D01*
X69114285Y-123333333D01*
X69114285Y-123571428D01*
X69161904Y-123761904D01*
X69209523Y-123857142D01*
X69257142Y-123904761D01*
X69352380Y-123952380D01*
X69447619Y-123952380D01*
X69542857Y-123904761D01*
X69590476Y-123857142D01*
X69638095Y-123761904D01*
X69685714Y-123571428D01*
X69685714Y-123333333D01*
X69638095Y-123142857D01*
X69590476Y-123047619D01*
X69542857Y-123000000D01*
X69447619Y-122952380D01*
X68257142Y-123285714D02*
X68257142Y-123952380D01*
X68495238Y-122904761D02*
X68733333Y-123619047D01*
X68114285Y-123619047D01*
X176596190Y-103071428D02*
X177072380Y-103071428D01*
X176072380Y-102738095D02*
X176596190Y-103071428D01*
X176072380Y-103404761D01*
X176167619Y-103690476D02*
X176120000Y-103738095D01*
X176072380Y-103833333D01*
X176072380Y-104071428D01*
X176120000Y-104166666D01*
X176167619Y-104214285D01*
X176262857Y-104261904D01*
X176358095Y-104261904D01*
X176500952Y-104214285D01*
X177072380Y-103642857D01*
X177072380Y-104261904D01*
X176072380Y-104880952D02*
X176072380Y-104976190D01*
X176120000Y-105071428D01*
X176167619Y-105119047D01*
X176262857Y-105166666D01*
X176453333Y-105214285D01*
X176691428Y-105214285D01*
X176881904Y-105166666D01*
X176977142Y-105119047D01*
X177024761Y-105071428D01*
X177072380Y-104976190D01*
X177072380Y-104880952D01*
X177024761Y-104785714D01*
X176977142Y-104738095D01*
X176881904Y-104690476D01*
X176691428Y-104642857D01*
X176453333Y-104642857D01*
X176262857Y-104690476D01*
X176167619Y-104738095D01*
X176120000Y-104785714D01*
X176072380Y-104880952D01*
X177072380Y-106166666D02*
X177072380Y-105595238D01*
X177072380Y-105880952D02*
X176072380Y-105880952D01*
X176215238Y-105785714D01*
X176310476Y-105690476D01*
X176358095Y-105595238D01*
X159547619Y-124897619D02*
X159642857Y-124850000D01*
X159738095Y-124754761D01*
X159880952Y-124611904D01*
X159976190Y-124564285D01*
X160071428Y-124564285D01*
X160023809Y-124802380D02*
X160119047Y-124754761D01*
X160214285Y-124659523D01*
X160261904Y-124469047D01*
X160261904Y-124135714D01*
X160214285Y-123945238D01*
X160119047Y-123850000D01*
X160023809Y-123802380D01*
X159833333Y-123802380D01*
X159738095Y-123850000D01*
X159642857Y-123945238D01*
X159595238Y-124135714D01*
X159595238Y-124469047D01*
X159642857Y-124659523D01*
X159738095Y-124754761D01*
X159833333Y-124802380D01*
X160023809Y-124802380D01*
X159214285Y-123897619D02*
X159166666Y-123850000D01*
X159071428Y-123802380D01*
X158833333Y-123802380D01*
X158738095Y-123850000D01*
X158690476Y-123897619D01*
X158642857Y-123992857D01*
X158642857Y-124088095D01*
X158690476Y-124230952D01*
X159261904Y-124802380D01*
X158642857Y-124802380D01*
X158023809Y-123802380D02*
X157928571Y-123802380D01*
X157833333Y-123850000D01*
X157785714Y-123897619D01*
X157738095Y-123992857D01*
X157690476Y-124183333D01*
X157690476Y-124421428D01*
X157738095Y-124611904D01*
X157785714Y-124707142D01*
X157833333Y-124754761D01*
X157928571Y-124802380D01*
X158023809Y-124802380D01*
X158119047Y-124754761D01*
X158166666Y-124707142D01*
X158214285Y-124611904D01*
X158261904Y-124421428D01*
X158261904Y-124183333D01*
X158214285Y-123992857D01*
X158166666Y-123897619D01*
X158119047Y-123850000D01*
X158023809Y-123802380D01*
X156738095Y-124802380D02*
X157309523Y-124802380D01*
X157023809Y-124802380D02*
X157023809Y-123802380D01*
X157119047Y-123945238D01*
X157214285Y-124040476D01*
X157309523Y-124088095D01*
X163869047Y-70407142D02*
X163916666Y-70454761D01*
X164059523Y-70502380D01*
X164154761Y-70502380D01*
X164297619Y-70454761D01*
X164392857Y-70359523D01*
X164440476Y-70264285D01*
X164488095Y-70073809D01*
X164488095Y-69930952D01*
X164440476Y-69740476D01*
X164392857Y-69645238D01*
X164297619Y-69550000D01*
X164154761Y-69502380D01*
X164059523Y-69502380D01*
X163916666Y-69550000D01*
X163869047Y-69597619D01*
X163535714Y-69502380D02*
X162916666Y-69502380D01*
X163250000Y-69883333D01*
X163107142Y-69883333D01*
X163011904Y-69930952D01*
X162964285Y-69978571D01*
X162916666Y-70073809D01*
X162916666Y-70311904D01*
X162964285Y-70407142D01*
X163011904Y-70454761D01*
X163107142Y-70502380D01*
X163392857Y-70502380D01*
X163488095Y-70454761D01*
X163535714Y-70407142D01*
X162297619Y-69502380D02*
X162202380Y-69502380D01*
X162107142Y-69550000D01*
X162059523Y-69597619D01*
X162011904Y-69692857D01*
X161964285Y-69883333D01*
X161964285Y-70121428D01*
X162011904Y-70311904D01*
X162059523Y-70407142D01*
X162107142Y-70454761D01*
X162202380Y-70502380D01*
X162297619Y-70502380D01*
X162392857Y-70454761D01*
X162440476Y-70407142D01*
X162488095Y-70311904D01*
X162535714Y-70121428D01*
X162535714Y-69883333D01*
X162488095Y-69692857D01*
X162440476Y-69597619D01*
X162392857Y-69550000D01*
X162297619Y-69502380D01*
X161583333Y-69597619D02*
X161535714Y-69550000D01*
X161440476Y-69502380D01*
X161202380Y-69502380D01*
X161107142Y-69550000D01*
X161059523Y-69597619D01*
X161011904Y-69692857D01*
X161011904Y-69788095D01*
X161059523Y-69930952D01*
X161630952Y-70502380D01*
X161011904Y-70502380D01*
X166369047Y-68807142D02*
X166416666Y-68854761D01*
X166559523Y-68902380D01*
X166654761Y-68902380D01*
X166797619Y-68854761D01*
X166892857Y-68759523D01*
X166940476Y-68664285D01*
X166988095Y-68473809D01*
X166988095Y-68330952D01*
X166940476Y-68140476D01*
X166892857Y-68045238D01*
X166797619Y-67950000D01*
X166654761Y-67902380D01*
X166559523Y-67902380D01*
X166416666Y-67950000D01*
X166369047Y-67997619D01*
X166035714Y-67902380D02*
X165416666Y-67902380D01*
X165750000Y-68283333D01*
X165607142Y-68283333D01*
X165511904Y-68330952D01*
X165464285Y-68378571D01*
X165416666Y-68473809D01*
X165416666Y-68711904D01*
X165464285Y-68807142D01*
X165511904Y-68854761D01*
X165607142Y-68902380D01*
X165892857Y-68902380D01*
X165988095Y-68854761D01*
X166035714Y-68807142D01*
X164797619Y-67902380D02*
X164702380Y-67902380D01*
X164607142Y-67950000D01*
X164559523Y-67997619D01*
X164511904Y-68092857D01*
X164464285Y-68283333D01*
X164464285Y-68521428D01*
X164511904Y-68711904D01*
X164559523Y-68807142D01*
X164607142Y-68854761D01*
X164702380Y-68902380D01*
X164797619Y-68902380D01*
X164892857Y-68854761D01*
X164940476Y-68807142D01*
X164988095Y-68711904D01*
X165035714Y-68521428D01*
X165035714Y-68283333D01*
X164988095Y-68092857D01*
X164940476Y-67997619D01*
X164892857Y-67950000D01*
X164797619Y-67902380D01*
X164130952Y-67902380D02*
X163511904Y-67902380D01*
X163845238Y-68283333D01*
X163702380Y-68283333D01*
X163607142Y-68330952D01*
X163559523Y-68378571D01*
X163511904Y-68473809D01*
X163511904Y-68711904D01*
X163559523Y-68807142D01*
X163607142Y-68854761D01*
X163702380Y-68902380D01*
X163988095Y-68902380D01*
X164083333Y-68854761D01*
X164130952Y-68807142D01*
X175357142Y-47880952D02*
X175404761Y-47833333D01*
X175452380Y-47690476D01*
X175452380Y-47595238D01*
X175404761Y-47452380D01*
X175309523Y-47357142D01*
X175214285Y-47309523D01*
X175023809Y-47261904D01*
X174880952Y-47261904D01*
X174690476Y-47309523D01*
X174595238Y-47357142D01*
X174500000Y-47452380D01*
X174452380Y-47595238D01*
X174452380Y-47690476D01*
X174500000Y-47833333D01*
X174547619Y-47880952D01*
X174452380Y-48214285D02*
X174452380Y-48833333D01*
X174833333Y-48500000D01*
X174833333Y-48642857D01*
X174880952Y-48738095D01*
X174928571Y-48785714D01*
X175023809Y-48833333D01*
X175261904Y-48833333D01*
X175357142Y-48785714D01*
X175404761Y-48738095D01*
X175452380Y-48642857D01*
X175452380Y-48357142D01*
X175404761Y-48261904D01*
X175357142Y-48214285D01*
X174452380Y-49452380D02*
X174452380Y-49547619D01*
X174500000Y-49642857D01*
X174547619Y-49690476D01*
X174642857Y-49738095D01*
X174833333Y-49785714D01*
X175071428Y-49785714D01*
X175261904Y-49738095D01*
X175357142Y-49690476D01*
X175404761Y-49642857D01*
X175452380Y-49547619D01*
X175452380Y-49452380D01*
X175404761Y-49357142D01*
X175357142Y-49309523D01*
X175261904Y-49261904D01*
X175071428Y-49214285D01*
X174833333Y-49214285D01*
X174642857Y-49261904D01*
X174547619Y-49309523D01*
X174500000Y-49357142D01*
X174452380Y-49452380D01*
X174785714Y-50642857D02*
X175452380Y-50642857D01*
X174404761Y-50404761D02*
X175119047Y-50166666D01*
X175119047Y-50785714D01*
X177452380Y-114097500D02*
X177500000Y-114192738D01*
X177595238Y-114287976D01*
X177738095Y-114430833D01*
X177785714Y-114526071D01*
X177785714Y-114621309D01*
X177547619Y-114573690D02*
X177595238Y-114668928D01*
X177690476Y-114764166D01*
X177880952Y-114811785D01*
X178214285Y-114811785D01*
X178404761Y-114764166D01*
X178500000Y-114668928D01*
X178547619Y-114573690D01*
X178547619Y-114383214D01*
X178500000Y-114287976D01*
X178404761Y-114192738D01*
X178214285Y-114145119D01*
X177880952Y-114145119D01*
X177690476Y-114192738D01*
X177595238Y-114287976D01*
X177547619Y-114383214D01*
X177547619Y-114573690D01*
X178452380Y-113764166D02*
X178500000Y-113716547D01*
X178547619Y-113621309D01*
X178547619Y-113383214D01*
X178500000Y-113287976D01*
X178452380Y-113240357D01*
X178357142Y-113192738D01*
X178261904Y-113192738D01*
X178119047Y-113240357D01*
X177547619Y-113811785D01*
X177547619Y-113192738D01*
X178547619Y-112573690D02*
X178547619Y-112478452D01*
X178500000Y-112383214D01*
X178452380Y-112335595D01*
X178357142Y-112287976D01*
X178166666Y-112240357D01*
X177928571Y-112240357D01*
X177738095Y-112287976D01*
X177642857Y-112335595D01*
X177595238Y-112383214D01*
X177547619Y-112478452D01*
X177547619Y-112573690D01*
X177595238Y-112668928D01*
X177642857Y-112716547D01*
X177738095Y-112764166D01*
X177928571Y-112811785D01*
X178166666Y-112811785D01*
X178357142Y-112764166D01*
X178452380Y-112716547D01*
X178500000Y-112668928D01*
X178547619Y-112573690D01*
X178452380Y-111859404D02*
X178500000Y-111811785D01*
X178547619Y-111716547D01*
X178547619Y-111478452D01*
X178500000Y-111383214D01*
X178452380Y-111335595D01*
X178357142Y-111287976D01*
X178261904Y-111287976D01*
X178119047Y-111335595D01*
X177547619Y-111907023D01*
X177547619Y-111287976D01*
X36119047Y-55507142D02*
X36166666Y-55554761D01*
X36309523Y-55602380D01*
X36404761Y-55602380D01*
X36547619Y-55554761D01*
X36642857Y-55459523D01*
X36690476Y-55364285D01*
X36738095Y-55173809D01*
X36738095Y-55030952D01*
X36690476Y-54840476D01*
X36642857Y-54745238D01*
X36547619Y-54650000D01*
X36404761Y-54602380D01*
X36309523Y-54602380D01*
X36166666Y-54650000D01*
X36119047Y-54697619D01*
X35738095Y-54697619D02*
X35690476Y-54650000D01*
X35595238Y-54602380D01*
X35357142Y-54602380D01*
X35261904Y-54650000D01*
X35214285Y-54697619D01*
X35166666Y-54792857D01*
X35166666Y-54888095D01*
X35214285Y-55030952D01*
X35785714Y-55602380D01*
X35166666Y-55602380D01*
X34547619Y-54602380D02*
X34452380Y-54602380D01*
X34357142Y-54650000D01*
X34309523Y-54697619D01*
X34261904Y-54792857D01*
X34214285Y-54983333D01*
X34214285Y-55221428D01*
X34261904Y-55411904D01*
X34309523Y-55507142D01*
X34357142Y-55554761D01*
X34452380Y-55602380D01*
X34547619Y-55602380D01*
X34642857Y-55554761D01*
X34690476Y-55507142D01*
X34738095Y-55411904D01*
X34785714Y-55221428D01*
X34785714Y-54983333D01*
X34738095Y-54792857D01*
X34690476Y-54697619D01*
X34642857Y-54650000D01*
X34547619Y-54602380D01*
X33261904Y-55602380D02*
X33833333Y-55602380D01*
X33547619Y-55602380D02*
X33547619Y-54602380D01*
X33642857Y-54745238D01*
X33738095Y-54840476D01*
X33833333Y-54888095D01*
X36857142Y-72380952D02*
X36904761Y-72333333D01*
X36952380Y-72190476D01*
X36952380Y-72095238D01*
X36904761Y-71952380D01*
X36809523Y-71857142D01*
X36714285Y-71809523D01*
X36523809Y-71761904D01*
X36380952Y-71761904D01*
X36190476Y-71809523D01*
X36095238Y-71857142D01*
X36000000Y-71952380D01*
X35952380Y-72095238D01*
X35952380Y-72190476D01*
X36000000Y-72333333D01*
X36047619Y-72380952D01*
X36047619Y-72761904D02*
X36000000Y-72809523D01*
X35952380Y-72904761D01*
X35952380Y-73142857D01*
X36000000Y-73238095D01*
X36047619Y-73285714D01*
X36142857Y-73333333D01*
X36238095Y-73333333D01*
X36380952Y-73285714D01*
X36952380Y-72714285D01*
X36952380Y-73333333D01*
X35952380Y-73952380D02*
X35952380Y-74047619D01*
X36000000Y-74142857D01*
X36047619Y-74190476D01*
X36142857Y-74238095D01*
X36333333Y-74285714D01*
X36571428Y-74285714D01*
X36761904Y-74238095D01*
X36857142Y-74190476D01*
X36904761Y-74142857D01*
X36952380Y-74047619D01*
X36952380Y-73952380D01*
X36904761Y-73857142D01*
X36857142Y-73809523D01*
X36761904Y-73761904D01*
X36571428Y-73714285D01*
X36333333Y-73714285D01*
X36142857Y-73761904D01*
X36047619Y-73809523D01*
X36000000Y-73857142D01*
X35952380Y-73952380D01*
X36047619Y-74666666D02*
X36000000Y-74714285D01*
X35952380Y-74809523D01*
X35952380Y-75047619D01*
X36000000Y-75142857D01*
X36047619Y-75190476D01*
X36142857Y-75238095D01*
X36238095Y-75238095D01*
X36380952Y-75190476D01*
X36952380Y-74619047D01*
X36952380Y-75238095D01*
X36257142Y-92980952D02*
X36304761Y-92933333D01*
X36352380Y-92790476D01*
X36352380Y-92695238D01*
X36304761Y-92552380D01*
X36209523Y-92457142D01*
X36114285Y-92409523D01*
X35923809Y-92361904D01*
X35780952Y-92361904D01*
X35590476Y-92409523D01*
X35495238Y-92457142D01*
X35400000Y-92552380D01*
X35352380Y-92695238D01*
X35352380Y-92790476D01*
X35400000Y-92933333D01*
X35447619Y-92980952D01*
X35447619Y-93361904D02*
X35400000Y-93409523D01*
X35352380Y-93504761D01*
X35352380Y-93742857D01*
X35400000Y-93838095D01*
X35447619Y-93885714D01*
X35542857Y-93933333D01*
X35638095Y-93933333D01*
X35780952Y-93885714D01*
X36352380Y-93314285D01*
X36352380Y-93933333D01*
X35352380Y-94552380D02*
X35352380Y-94647619D01*
X35400000Y-94742857D01*
X35447619Y-94790476D01*
X35542857Y-94838095D01*
X35733333Y-94885714D01*
X35971428Y-94885714D01*
X36161904Y-94838095D01*
X36257142Y-94790476D01*
X36304761Y-94742857D01*
X36352380Y-94647619D01*
X36352380Y-94552380D01*
X36304761Y-94457142D01*
X36257142Y-94409523D01*
X36161904Y-94361904D01*
X35971428Y-94314285D01*
X35733333Y-94314285D01*
X35542857Y-94361904D01*
X35447619Y-94409523D01*
X35400000Y-94457142D01*
X35352380Y-94552380D01*
X35352380Y-95219047D02*
X35352380Y-95838095D01*
X35733333Y-95504761D01*
X35733333Y-95647619D01*
X35780952Y-95742857D01*
X35828571Y-95790476D01*
X35923809Y-95838095D01*
X36161904Y-95838095D01*
X36257142Y-95790476D01*
X36304761Y-95742857D01*
X36352380Y-95647619D01*
X36352380Y-95361904D01*
X36304761Y-95266666D01*
X36257142Y-95219047D01*
X95069047Y-123357142D02*
X95116666Y-123404761D01*
X95259523Y-123452380D01*
X95354761Y-123452380D01*
X95497619Y-123404761D01*
X95592857Y-123309523D01*
X95640476Y-123214285D01*
X95688095Y-123023809D01*
X95688095Y-122880952D01*
X95640476Y-122690476D01*
X95592857Y-122595238D01*
X95497619Y-122500000D01*
X95354761Y-122452380D01*
X95259523Y-122452380D01*
X95116666Y-122500000D01*
X95069047Y-122547619D01*
X94688095Y-122547619D02*
X94640476Y-122500000D01*
X94545238Y-122452380D01*
X94307142Y-122452380D01*
X94211904Y-122500000D01*
X94164285Y-122547619D01*
X94116666Y-122642857D01*
X94116666Y-122738095D01*
X94164285Y-122880952D01*
X94735714Y-123452380D01*
X94116666Y-123452380D01*
X93497619Y-122452380D02*
X93402380Y-122452380D01*
X93307142Y-122500000D01*
X93259523Y-122547619D01*
X93211904Y-122642857D01*
X93164285Y-122833333D01*
X93164285Y-123071428D01*
X93211904Y-123261904D01*
X93259523Y-123357142D01*
X93307142Y-123404761D01*
X93402380Y-123452380D01*
X93497619Y-123452380D01*
X93592857Y-123404761D01*
X93640476Y-123357142D01*
X93688095Y-123261904D01*
X93735714Y-123071428D01*
X93735714Y-122833333D01*
X93688095Y-122642857D01*
X93640476Y-122547619D01*
X93592857Y-122500000D01*
X93497619Y-122452380D01*
X92259523Y-122452380D02*
X92735714Y-122452380D01*
X92783333Y-122928571D01*
X92735714Y-122880952D01*
X92640476Y-122833333D01*
X92402380Y-122833333D01*
X92307142Y-122880952D01*
X92259523Y-122928571D01*
X92211904Y-123023809D01*
X92211904Y-123261904D01*
X92259523Y-123357142D01*
X92307142Y-123404761D01*
X92402380Y-123452380D01*
X92640476Y-123452380D01*
X92735714Y-123404761D01*
X92783333Y-123357142D01*
X119269047Y-123357142D02*
X119316666Y-123404761D01*
X119459523Y-123452380D01*
X119554761Y-123452380D01*
X119697619Y-123404761D01*
X119792857Y-123309523D01*
X119840476Y-123214285D01*
X119888095Y-123023809D01*
X119888095Y-122880952D01*
X119840476Y-122690476D01*
X119792857Y-122595238D01*
X119697619Y-122500000D01*
X119554761Y-122452380D01*
X119459523Y-122452380D01*
X119316666Y-122500000D01*
X119269047Y-122547619D01*
X118888095Y-122547619D02*
X118840476Y-122500000D01*
X118745238Y-122452380D01*
X118507142Y-122452380D01*
X118411904Y-122500000D01*
X118364285Y-122547619D01*
X118316666Y-122642857D01*
X118316666Y-122738095D01*
X118364285Y-122880952D01*
X118935714Y-123452380D01*
X118316666Y-123452380D01*
X117697619Y-122452380D02*
X117602380Y-122452380D01*
X117507142Y-122500000D01*
X117459523Y-122547619D01*
X117411904Y-122642857D01*
X117364285Y-122833333D01*
X117364285Y-123071428D01*
X117411904Y-123261904D01*
X117459523Y-123357142D01*
X117507142Y-123404761D01*
X117602380Y-123452380D01*
X117697619Y-123452380D01*
X117792857Y-123404761D01*
X117840476Y-123357142D01*
X117888095Y-123261904D01*
X117935714Y-123071428D01*
X117935714Y-122833333D01*
X117888095Y-122642857D01*
X117840476Y-122547619D01*
X117792857Y-122500000D01*
X117697619Y-122452380D01*
X116507142Y-122452380D02*
X116697619Y-122452380D01*
X116792857Y-122500000D01*
X116840476Y-122547619D01*
X116935714Y-122690476D01*
X116983333Y-122880952D01*
X116983333Y-123261904D01*
X116935714Y-123357142D01*
X116888095Y-123404761D01*
X116792857Y-123452380D01*
X116602380Y-123452380D01*
X116507142Y-123404761D01*
X116459523Y-123357142D01*
X116411904Y-123261904D01*
X116411904Y-123023809D01*
X116459523Y-122928571D01*
X116507142Y-122880952D01*
X116602380Y-122833333D01*
X116792857Y-122833333D01*
X116888095Y-122880952D01*
X116935714Y-122928571D01*
X116983333Y-123023809D01*
X141957142Y-52080952D02*
X142004761Y-52033333D01*
X142052380Y-51890476D01*
X142052380Y-51795238D01*
X142004761Y-51652380D01*
X141909523Y-51557142D01*
X141814285Y-51509523D01*
X141623809Y-51461904D01*
X141480952Y-51461904D01*
X141290476Y-51509523D01*
X141195238Y-51557142D01*
X141100000Y-51652380D01*
X141052380Y-51795238D01*
X141052380Y-51890476D01*
X141100000Y-52033333D01*
X141147619Y-52080952D01*
X141147619Y-52461904D02*
X141100000Y-52509523D01*
X141052380Y-52604761D01*
X141052380Y-52842857D01*
X141100000Y-52938095D01*
X141147619Y-52985714D01*
X141242857Y-53033333D01*
X141338095Y-53033333D01*
X141480952Y-52985714D01*
X142052380Y-52414285D01*
X142052380Y-53033333D01*
X141052380Y-53652380D02*
X141052380Y-53747619D01*
X141100000Y-53842857D01*
X141147619Y-53890476D01*
X141242857Y-53938095D01*
X141433333Y-53985714D01*
X141671428Y-53985714D01*
X141861904Y-53938095D01*
X141957142Y-53890476D01*
X142004761Y-53842857D01*
X142052380Y-53747619D01*
X142052380Y-53652380D01*
X142004761Y-53557142D01*
X141957142Y-53509523D01*
X141861904Y-53461904D01*
X141671428Y-53414285D01*
X141433333Y-53414285D01*
X141242857Y-53461904D01*
X141147619Y-53509523D01*
X141100000Y-53557142D01*
X141052380Y-53652380D01*
X141052380Y-54319047D02*
X141052380Y-54985714D01*
X142052380Y-54557142D01*
X169957142Y-54380952D02*
X170004761Y-54333333D01*
X170052380Y-54190476D01*
X170052380Y-54095238D01*
X170004761Y-53952380D01*
X169909523Y-53857142D01*
X169814285Y-53809523D01*
X169623809Y-53761904D01*
X169480952Y-53761904D01*
X169290476Y-53809523D01*
X169195238Y-53857142D01*
X169100000Y-53952380D01*
X169052380Y-54095238D01*
X169052380Y-54190476D01*
X169100000Y-54333333D01*
X169147619Y-54380952D01*
X169147619Y-54761904D02*
X169100000Y-54809523D01*
X169052380Y-54904761D01*
X169052380Y-55142857D01*
X169100000Y-55238095D01*
X169147619Y-55285714D01*
X169242857Y-55333333D01*
X169338095Y-55333333D01*
X169480952Y-55285714D01*
X170052380Y-54714285D01*
X170052380Y-55333333D01*
X169052380Y-55952380D02*
X169052380Y-56047619D01*
X169100000Y-56142857D01*
X169147619Y-56190476D01*
X169242857Y-56238095D01*
X169433333Y-56285714D01*
X169671428Y-56285714D01*
X169861904Y-56238095D01*
X169957142Y-56190476D01*
X170004761Y-56142857D01*
X170052380Y-56047619D01*
X170052380Y-55952380D01*
X170004761Y-55857142D01*
X169957142Y-55809523D01*
X169861904Y-55761904D01*
X169671428Y-55714285D01*
X169433333Y-55714285D01*
X169242857Y-55761904D01*
X169147619Y-55809523D01*
X169100000Y-55857142D01*
X169052380Y-55952380D01*
X169480952Y-56857142D02*
X169433333Y-56761904D01*
X169385714Y-56714285D01*
X169290476Y-56666666D01*
X169242857Y-56666666D01*
X169147619Y-56714285D01*
X169100000Y-56761904D01*
X169052380Y-56857142D01*
X169052380Y-57047619D01*
X169100000Y-57142857D01*
X169147619Y-57190476D01*
X169242857Y-57238095D01*
X169290476Y-57238095D01*
X169385714Y-57190476D01*
X169433333Y-57142857D01*
X169480952Y-57047619D01*
X169480952Y-56857142D01*
X169528571Y-56761904D01*
X169576190Y-56714285D01*
X169671428Y-56666666D01*
X169861904Y-56666666D01*
X169957142Y-56714285D01*
X170004761Y-56761904D01*
X170052380Y-56857142D01*
X170052380Y-57047619D01*
X170004761Y-57142857D01*
X169957142Y-57190476D01*
X169861904Y-57238095D01*
X169671428Y-57238095D01*
X169576190Y-57190476D01*
X169528571Y-57142857D01*
X169480952Y-57047619D01*
X181357142Y-47880952D02*
X181404761Y-47833333D01*
X181452380Y-47690476D01*
X181452380Y-47595238D01*
X181404761Y-47452380D01*
X181309523Y-47357142D01*
X181214285Y-47309523D01*
X181023809Y-47261904D01*
X180880952Y-47261904D01*
X180690476Y-47309523D01*
X180595238Y-47357142D01*
X180500000Y-47452380D01*
X180452380Y-47595238D01*
X180452380Y-47690476D01*
X180500000Y-47833333D01*
X180547619Y-47880952D01*
X180547619Y-48261904D02*
X180500000Y-48309523D01*
X180452380Y-48404761D01*
X180452380Y-48642857D01*
X180500000Y-48738095D01*
X180547619Y-48785714D01*
X180642857Y-48833333D01*
X180738095Y-48833333D01*
X180880952Y-48785714D01*
X181452380Y-48214285D01*
X181452380Y-48833333D01*
X180452380Y-49452380D02*
X180452380Y-49547619D01*
X180500000Y-49642857D01*
X180547619Y-49690476D01*
X180642857Y-49738095D01*
X180833333Y-49785714D01*
X181071428Y-49785714D01*
X181261904Y-49738095D01*
X181357142Y-49690476D01*
X181404761Y-49642857D01*
X181452380Y-49547619D01*
X181452380Y-49452380D01*
X181404761Y-49357142D01*
X181357142Y-49309523D01*
X181261904Y-49261904D01*
X181071428Y-49214285D01*
X180833333Y-49214285D01*
X180642857Y-49261904D01*
X180547619Y-49309523D01*
X180500000Y-49357142D01*
X180452380Y-49452380D01*
X181452380Y-50261904D02*
X181452380Y-50452380D01*
X181404761Y-50547619D01*
X181357142Y-50595238D01*
X181214285Y-50690476D01*
X181023809Y-50738095D01*
X180642857Y-50738095D01*
X180547619Y-50690476D01*
X180500000Y-50642857D01*
X180452380Y-50547619D01*
X180452380Y-50357142D01*
X180500000Y-50261904D01*
X180547619Y-50214285D01*
X180642857Y-50166666D01*
X180880952Y-50166666D01*
X180976190Y-50214285D01*
X181023809Y-50261904D01*
X181071428Y-50357142D01*
X181071428Y-50547619D01*
X181023809Y-50642857D01*
X180976190Y-50690476D01*
X180880952Y-50738095D01*
X178219047Y-129107142D02*
X178266666Y-129154761D01*
X178409523Y-129202380D01*
X178504761Y-129202380D01*
X178647619Y-129154761D01*
X178742857Y-129059523D01*
X178790476Y-128964285D01*
X178838095Y-128773809D01*
X178838095Y-128630952D01*
X178790476Y-128440476D01*
X178742857Y-128345238D01*
X178647619Y-128250000D01*
X178504761Y-128202380D01*
X178409523Y-128202380D01*
X178266666Y-128250000D01*
X178219047Y-128297619D01*
X177838095Y-128297619D02*
X177790476Y-128250000D01*
X177695238Y-128202380D01*
X177457142Y-128202380D01*
X177361904Y-128250000D01*
X177314285Y-128297619D01*
X177266666Y-128392857D01*
X177266666Y-128488095D01*
X177314285Y-128630952D01*
X177885714Y-129202380D01*
X177266666Y-129202380D01*
X176314285Y-129202380D02*
X176885714Y-129202380D01*
X176600000Y-129202380D02*
X176600000Y-128202380D01*
X176695238Y-128345238D01*
X176790476Y-128440476D01*
X176885714Y-128488095D01*
X175980952Y-128202380D02*
X175361904Y-128202380D01*
X175695238Y-128583333D01*
X175552380Y-128583333D01*
X175457142Y-128630952D01*
X175409523Y-128678571D01*
X175361904Y-128773809D01*
X175361904Y-129011904D01*
X175409523Y-129107142D01*
X175457142Y-129154761D01*
X175552380Y-129202380D01*
X175838095Y-129202380D01*
X175933333Y-129154761D01*
X175980952Y-129107142D01*
X169557142Y-120780952D02*
X169604761Y-120733333D01*
X169652380Y-120590476D01*
X169652380Y-120495238D01*
X169604761Y-120352380D01*
X169509523Y-120257142D01*
X169414285Y-120209523D01*
X169223809Y-120161904D01*
X169080952Y-120161904D01*
X168890476Y-120209523D01*
X168795238Y-120257142D01*
X168700000Y-120352380D01*
X168652380Y-120495238D01*
X168652380Y-120590476D01*
X168700000Y-120733333D01*
X168747619Y-120780952D01*
X168747619Y-121161904D02*
X168700000Y-121209523D01*
X168652380Y-121304761D01*
X168652380Y-121542857D01*
X168700000Y-121638095D01*
X168747619Y-121685714D01*
X168842857Y-121733333D01*
X168938095Y-121733333D01*
X169080952Y-121685714D01*
X169652380Y-121114285D01*
X169652380Y-121733333D01*
X169652380Y-122685714D02*
X169652380Y-122114285D01*
X169652380Y-122400000D02*
X168652380Y-122400000D01*
X168795238Y-122304761D01*
X168890476Y-122209523D01*
X168938095Y-122114285D01*
X168747619Y-123066666D02*
X168700000Y-123114285D01*
X168652380Y-123209523D01*
X168652380Y-123447619D01*
X168700000Y-123542857D01*
X168747619Y-123590476D01*
X168842857Y-123638095D01*
X168938095Y-123638095D01*
X169080952Y-123590476D01*
X169652380Y-123019047D01*
X169652380Y-123638095D01*
X44119047Y-48207142D02*
X44166666Y-48254761D01*
X44309523Y-48302380D01*
X44404761Y-48302380D01*
X44547619Y-48254761D01*
X44642857Y-48159523D01*
X44690476Y-48064285D01*
X44738095Y-47873809D01*
X44738095Y-47730952D01*
X44690476Y-47540476D01*
X44642857Y-47445238D01*
X44547619Y-47350000D01*
X44404761Y-47302380D01*
X44309523Y-47302380D01*
X44166666Y-47350000D01*
X44119047Y-47397619D01*
X43785714Y-47302380D02*
X43166666Y-47302380D01*
X43500000Y-47683333D01*
X43357142Y-47683333D01*
X43261904Y-47730952D01*
X43214285Y-47778571D01*
X43166666Y-47873809D01*
X43166666Y-48111904D01*
X43214285Y-48207142D01*
X43261904Y-48254761D01*
X43357142Y-48302380D01*
X43642857Y-48302380D01*
X43738095Y-48254761D01*
X43785714Y-48207142D01*
X42547619Y-47302380D02*
X42452380Y-47302380D01*
X42357142Y-47350000D01*
X42309523Y-47397619D01*
X42261904Y-47492857D01*
X42214285Y-47683333D01*
X42214285Y-47921428D01*
X42261904Y-48111904D01*
X42309523Y-48207142D01*
X42357142Y-48254761D01*
X42452380Y-48302380D01*
X42547619Y-48302380D01*
X42642857Y-48254761D01*
X42690476Y-48207142D01*
X42738095Y-48111904D01*
X42785714Y-47921428D01*
X42785714Y-47683333D01*
X42738095Y-47492857D01*
X42690476Y-47397619D01*
X42642857Y-47350000D01*
X42547619Y-47302380D01*
X41261904Y-48302380D02*
X41833333Y-48302380D01*
X41547619Y-48302380D02*
X41547619Y-47302380D01*
X41642857Y-47445238D01*
X41738095Y-47540476D01*
X41833333Y-47588095D01*
X173747500Y-89297619D02*
X173842738Y-89250000D01*
X173937976Y-89154761D01*
X174080833Y-89011904D01*
X174176071Y-88964285D01*
X174271309Y-88964285D01*
X174223690Y-89202380D02*
X174318928Y-89154761D01*
X174414166Y-89059523D01*
X174461785Y-88869047D01*
X174461785Y-88535714D01*
X174414166Y-88345238D01*
X174318928Y-88250000D01*
X174223690Y-88202380D01*
X174033214Y-88202380D01*
X173937976Y-88250000D01*
X173842738Y-88345238D01*
X173795119Y-88535714D01*
X173795119Y-88869047D01*
X173842738Y-89059523D01*
X173937976Y-89154761D01*
X174033214Y-89202380D01*
X174223690Y-89202380D01*
X172842738Y-89202380D02*
X173414166Y-89202380D01*
X173128452Y-89202380D02*
X173128452Y-88202380D01*
X173223690Y-88345238D01*
X173318928Y-88440476D01*
X173414166Y-88488095D01*
X172223690Y-88202380D02*
X172128452Y-88202380D01*
X172033214Y-88250000D01*
X171985595Y-88297619D01*
X171937976Y-88392857D01*
X171890357Y-88583333D01*
X171890357Y-88821428D01*
X171937976Y-89011904D01*
X171985595Y-89107142D01*
X172033214Y-89154761D01*
X172128452Y-89202380D01*
X172223690Y-89202380D01*
X172318928Y-89154761D01*
X172366547Y-89107142D01*
X172414166Y-89011904D01*
X172461785Y-88821428D01*
X172461785Y-88583333D01*
X172414166Y-88392857D01*
X172366547Y-88297619D01*
X172318928Y-88250000D01*
X172223690Y-88202380D01*
X170937976Y-89202380D02*
X171509404Y-89202380D01*
X171223690Y-89202380D02*
X171223690Y-88202380D01*
X171318928Y-88345238D01*
X171414166Y-88440476D01*
X171509404Y-88488095D01*
X166417619Y-90247500D02*
X166370000Y-90152261D01*
X166274761Y-90057023D01*
X166131904Y-89914166D01*
X166084285Y-89818928D01*
X166084285Y-89723690D01*
X166322380Y-89771309D02*
X166274761Y-89676071D01*
X166179523Y-89580833D01*
X165989047Y-89533214D01*
X165655714Y-89533214D01*
X165465238Y-89580833D01*
X165370000Y-89676071D01*
X165322380Y-89771309D01*
X165322380Y-89961785D01*
X165370000Y-90057023D01*
X165465238Y-90152261D01*
X165655714Y-90199880D01*
X165989047Y-90199880D01*
X166179523Y-90152261D01*
X166274761Y-90057023D01*
X166322380Y-89961785D01*
X166322380Y-89771309D01*
X166322380Y-91152261D02*
X166322380Y-90580833D01*
X166322380Y-90866547D02*
X165322380Y-90866547D01*
X165465238Y-90771309D01*
X165560476Y-90676071D01*
X165608095Y-90580833D01*
X165322380Y-91771309D02*
X165322380Y-91866547D01*
X165370000Y-91961785D01*
X165417619Y-92009404D01*
X165512857Y-92057023D01*
X165703333Y-92104642D01*
X165941428Y-92104642D01*
X166131904Y-92057023D01*
X166227142Y-92009404D01*
X166274761Y-91961785D01*
X166322380Y-91866547D01*
X166322380Y-91771309D01*
X166274761Y-91676071D01*
X166227142Y-91628452D01*
X166131904Y-91580833D01*
X165941428Y-91533214D01*
X165703333Y-91533214D01*
X165512857Y-91580833D01*
X165417619Y-91628452D01*
X165370000Y-91676071D01*
X165322380Y-91771309D01*
X165417619Y-92485595D02*
X165370000Y-92533214D01*
X165322380Y-92628452D01*
X165322380Y-92866547D01*
X165370000Y-92961785D01*
X165417619Y-93009404D01*
X165512857Y-93057023D01*
X165608095Y-93057023D01*
X165750952Y-93009404D01*
X166322380Y-92437976D01*
X166322380Y-93057023D01*
X171465714Y-106977380D02*
X171465714Y-107691666D01*
X171513333Y-107834523D01*
X171608571Y-107929761D01*
X171751428Y-107977380D01*
X171846666Y-107977380D01*
X171037142Y-107072619D02*
X170989523Y-107025000D01*
X170894285Y-106977380D01*
X170656190Y-106977380D01*
X170560952Y-107025000D01*
X170513333Y-107072619D01*
X170465714Y-107167857D01*
X170465714Y-107263095D01*
X170513333Y-107405952D01*
X171084761Y-107977380D01*
X170465714Y-107977380D01*
X169846666Y-106977380D02*
X169751428Y-106977380D01*
X169656190Y-107025000D01*
X169608571Y-107072619D01*
X169560952Y-107167857D01*
X169513333Y-107358333D01*
X169513333Y-107596428D01*
X169560952Y-107786904D01*
X169608571Y-107882142D01*
X169656190Y-107929761D01*
X169751428Y-107977380D01*
X169846666Y-107977380D01*
X169941904Y-107929761D01*
X169989523Y-107882142D01*
X170037142Y-107786904D01*
X170084761Y-107596428D01*
X170084761Y-107358333D01*
X170037142Y-107167857D01*
X169989523Y-107072619D01*
X169941904Y-107025000D01*
X169846666Y-106977380D01*
X168560952Y-107977380D02*
X169132380Y-107977380D01*
X168846666Y-107977380D02*
X168846666Y-106977380D01*
X168941904Y-107120238D01*
X169037142Y-107215476D01*
X169132380Y-107263095D01*
D11*
X150142857Y-130202380D02*
X150071428Y-130226190D01*
X149952380Y-130226190D01*
X149904761Y-130202380D01*
X149880952Y-130178571D01*
X149857142Y-130130952D01*
X149857142Y-130083333D01*
X149880952Y-130035714D01*
X149904761Y-130011904D01*
X149952380Y-129988095D01*
X150047619Y-129964285D01*
X150095238Y-129940476D01*
X150119047Y-129916666D01*
X150142857Y-129869047D01*
X150142857Y-129821428D01*
X150119047Y-129773809D01*
X150095238Y-129750000D01*
X150047619Y-129726190D01*
X149928571Y-129726190D01*
X149857142Y-129750000D01*
X149690476Y-129726190D02*
X149571428Y-130226190D01*
X149476190Y-129869047D01*
X149380952Y-130226190D01*
X149261904Y-129726190D01*
X148809523Y-130226190D02*
X149095238Y-130226190D01*
X148952380Y-130226190D02*
X148952380Y-129726190D01*
X149000000Y-129797619D01*
X149047619Y-129845238D01*
X149095238Y-129869047D01*
X148500000Y-129726190D02*
X148452380Y-129726190D01*
X148404761Y-129750000D01*
X148380952Y-129773809D01*
X148357142Y-129821428D01*
X148333333Y-129916666D01*
X148333333Y-130035714D01*
X148357142Y-130130952D01*
X148380952Y-130178571D01*
X148404761Y-130202380D01*
X148452380Y-130226190D01*
X148500000Y-130226190D01*
X148547619Y-130202380D01*
X148571428Y-130178571D01*
X148595238Y-130130952D01*
X148619047Y-130035714D01*
X148619047Y-129916666D01*
X148595238Y-129821428D01*
X148571428Y-129773809D01*
X148547619Y-129750000D01*
X148500000Y-129726190D01*
X147857142Y-130226190D02*
X148142857Y-130226190D01*
X148000000Y-130226190D02*
X148000000Y-129726190D01*
X148047619Y-129797619D01*
X148095238Y-129845238D01*
X148142857Y-129869047D01*
D13*
X80519047Y-48302380D02*
X80852380Y-47826190D01*
X81090476Y-48302380D02*
X81090476Y-47302380D01*
X80709523Y-47302380D01*
X80614285Y-47350000D01*
X80566666Y-47397619D01*
X80519047Y-47492857D01*
X80519047Y-47635714D01*
X80566666Y-47730952D01*
X80614285Y-47778571D01*
X80709523Y-47826190D01*
X81090476Y-47826190D01*
X80185714Y-47302380D02*
X79566666Y-47302380D01*
X79900000Y-47683333D01*
X79757142Y-47683333D01*
X79661904Y-47730952D01*
X79614285Y-47778571D01*
X79566666Y-47873809D01*
X79566666Y-48111904D01*
X79614285Y-48207142D01*
X79661904Y-48254761D01*
X79757142Y-48302380D01*
X80042857Y-48302380D01*
X80138095Y-48254761D01*
X80185714Y-48207142D01*
X78614285Y-48302380D02*
X79185714Y-48302380D01*
X78900000Y-48302380D02*
X78900000Y-47302380D01*
X78995238Y-47445238D01*
X79090476Y-47540476D01*
X79185714Y-47588095D01*
X78280952Y-47302380D02*
X77661904Y-47302380D01*
X77995238Y-47683333D01*
X77852380Y-47683333D01*
X77757142Y-47730952D01*
X77709523Y-47778571D01*
X77661904Y-47873809D01*
X77661904Y-48111904D01*
X77709523Y-48207142D01*
X77757142Y-48254761D01*
X77852380Y-48302380D01*
X78138095Y-48302380D01*
X78233333Y-48254761D01*
X78280952Y-48207142D01*
X154547380Y-50315952D02*
X154071190Y-49982619D01*
X154547380Y-49744523D02*
X153547380Y-49744523D01*
X153547380Y-50125476D01*
X153595000Y-50220714D01*
X153642619Y-50268333D01*
X153737857Y-50315952D01*
X153880714Y-50315952D01*
X153975952Y-50268333D01*
X154023571Y-50220714D01*
X154071190Y-50125476D01*
X154071190Y-49744523D01*
X153547380Y-50649285D02*
X153547380Y-51268333D01*
X153928333Y-50935000D01*
X153928333Y-51077857D01*
X153975952Y-51173095D01*
X154023571Y-51220714D01*
X154118809Y-51268333D01*
X154356904Y-51268333D01*
X154452142Y-51220714D01*
X154499761Y-51173095D01*
X154547380Y-51077857D01*
X154547380Y-50792142D01*
X154499761Y-50696904D01*
X154452142Y-50649285D01*
X154547380Y-52220714D02*
X154547380Y-51649285D01*
X154547380Y-51935000D02*
X153547380Y-51935000D01*
X153690238Y-51839761D01*
X153785476Y-51744523D01*
X153833095Y-51649285D01*
X153547380Y-52839761D02*
X153547380Y-52935000D01*
X153595000Y-53030238D01*
X153642619Y-53077857D01*
X153737857Y-53125476D01*
X153928333Y-53173095D01*
X154166428Y-53173095D01*
X154356904Y-53125476D01*
X154452142Y-53077857D01*
X154499761Y-53030238D01*
X154547380Y-52935000D01*
X154547380Y-52839761D01*
X154499761Y-52744523D01*
X154452142Y-52696904D01*
X154356904Y-52649285D01*
X154166428Y-52601666D01*
X153928333Y-52601666D01*
X153737857Y-52649285D01*
X153642619Y-52696904D01*
X153595000Y-52744523D01*
X153547380Y-52839761D01*
X157452619Y-57369047D02*
X157928809Y-57702380D01*
X157452619Y-57940476D02*
X158452619Y-57940476D01*
X158452619Y-57559523D01*
X158405000Y-57464285D01*
X158357380Y-57416666D01*
X158262142Y-57369047D01*
X158119285Y-57369047D01*
X158024047Y-57416666D01*
X157976428Y-57464285D01*
X157928809Y-57559523D01*
X157928809Y-57940476D01*
X158452619Y-57035714D02*
X158452619Y-56416666D01*
X158071666Y-56750000D01*
X158071666Y-56607142D01*
X158024047Y-56511904D01*
X157976428Y-56464285D01*
X157881190Y-56416666D01*
X157643095Y-56416666D01*
X157547857Y-56464285D01*
X157500238Y-56511904D01*
X157452619Y-56607142D01*
X157452619Y-56892857D01*
X157500238Y-56988095D01*
X157547857Y-57035714D01*
X157452619Y-55464285D02*
X157452619Y-56035714D01*
X157452619Y-55750000D02*
X158452619Y-55750000D01*
X158309761Y-55845238D01*
X158214523Y-55940476D01*
X158166904Y-56035714D01*
X157452619Y-54511904D02*
X157452619Y-55083333D01*
X157452619Y-54797619D02*
X158452619Y-54797619D01*
X158309761Y-54892857D01*
X158214523Y-54988095D01*
X158166904Y-55083333D01*
X171052380Y-49880952D02*
X170576190Y-49547619D01*
X171052380Y-49309523D02*
X170052380Y-49309523D01*
X170052380Y-49690476D01*
X170100000Y-49785714D01*
X170147619Y-49833333D01*
X170242857Y-49880952D01*
X170385714Y-49880952D01*
X170480952Y-49833333D01*
X170528571Y-49785714D01*
X170576190Y-49690476D01*
X170576190Y-49309523D01*
X170052380Y-50214285D02*
X170052380Y-50833333D01*
X170433333Y-50500000D01*
X170433333Y-50642857D01*
X170480952Y-50738095D01*
X170528571Y-50785714D01*
X170623809Y-50833333D01*
X170861904Y-50833333D01*
X170957142Y-50785714D01*
X171004761Y-50738095D01*
X171052380Y-50642857D01*
X171052380Y-50357142D01*
X171004761Y-50261904D01*
X170957142Y-50214285D01*
X171052380Y-51785714D02*
X171052380Y-51214285D01*
X171052380Y-51500000D02*
X170052380Y-51500000D01*
X170195238Y-51404761D01*
X170290476Y-51309523D01*
X170338095Y-51214285D01*
X170147619Y-52166666D02*
X170100000Y-52214285D01*
X170052380Y-52309523D01*
X170052380Y-52547619D01*
X170100000Y-52642857D01*
X170147619Y-52690476D01*
X170242857Y-52738095D01*
X170338095Y-52738095D01*
X170480952Y-52690476D01*
X171052380Y-52119047D01*
X171052380Y-52738095D01*
X171214285Y-95102380D02*
X171214285Y-95911904D01*
X171166666Y-96007142D01*
X171119047Y-96054761D01*
X171023809Y-96102380D01*
X170833333Y-96102380D01*
X170738095Y-96054761D01*
X170690476Y-96007142D01*
X170642857Y-95911904D01*
X170642857Y-95102380D01*
X170214285Y-95197619D02*
X170166666Y-95150000D01*
X170071428Y-95102380D01*
X169833333Y-95102380D01*
X169738095Y-95150000D01*
X169690476Y-95197619D01*
X169642857Y-95292857D01*
X169642857Y-95388095D01*
X169690476Y-95530952D01*
X170261904Y-96102380D01*
X169642857Y-96102380D01*
X169023809Y-95102380D02*
X168928571Y-95102380D01*
X168833333Y-95150000D01*
X168785714Y-95197619D01*
X168738095Y-95292857D01*
X168690476Y-95483333D01*
X168690476Y-95721428D01*
X168738095Y-95911904D01*
X168785714Y-96007142D01*
X168833333Y-96054761D01*
X168928571Y-96102380D01*
X169023809Y-96102380D01*
X169119047Y-96054761D01*
X169166666Y-96007142D01*
X169214285Y-95911904D01*
X169261904Y-95721428D01*
X169261904Y-95483333D01*
X169214285Y-95292857D01*
X169166666Y-95197619D01*
X169119047Y-95150000D01*
X169023809Y-95102380D01*
X167738095Y-96102380D02*
X168309523Y-96102380D01*
X168023809Y-96102380D02*
X168023809Y-95102380D01*
X168119047Y-95245238D01*
X168214285Y-95340476D01*
X168309523Y-95388095D01*
X179785714Y-57452380D02*
X179785714Y-58166666D01*
X179833333Y-58309523D01*
X179928571Y-58404761D01*
X180071428Y-58452380D01*
X180166666Y-58452380D01*
X179404761Y-57452380D02*
X178785714Y-57452380D01*
X179119047Y-57833333D01*
X178976190Y-57833333D01*
X178880952Y-57880952D01*
X178833333Y-57928571D01*
X178785714Y-58023809D01*
X178785714Y-58261904D01*
X178833333Y-58357142D01*
X178880952Y-58404761D01*
X178976190Y-58452380D01*
X179261904Y-58452380D01*
X179357142Y-58404761D01*
X179404761Y-58357142D01*
X178166666Y-57452380D02*
X178071428Y-57452380D01*
X177976190Y-57500000D01*
X177928571Y-57547619D01*
X177880952Y-57642857D01*
X177833333Y-57833333D01*
X177833333Y-58071428D01*
X177880952Y-58261904D01*
X177928571Y-58357142D01*
X177976190Y-58404761D01*
X178071428Y-58452380D01*
X178166666Y-58452380D01*
X178261904Y-58404761D01*
X178309523Y-58357142D01*
X178357142Y-58261904D01*
X178404761Y-58071428D01*
X178404761Y-57833333D01*
X178357142Y-57642857D01*
X178309523Y-57547619D01*
X178261904Y-57500000D01*
X178166666Y-57452380D01*
X177500000Y-57452380D02*
X176880952Y-57452380D01*
X177214285Y-57833333D01*
X177071428Y-57833333D01*
X176976190Y-57880952D01*
X176928571Y-57928571D01*
X176880952Y-58023809D01*
X176880952Y-58261904D01*
X176928571Y-58357142D01*
X176976190Y-58404761D01*
X177071428Y-58452380D01*
X177357142Y-58452380D01*
X177452380Y-58404761D01*
X177500000Y-58357142D01*
X177522142Y-99210952D02*
X177569761Y-99163333D01*
X177617380Y-99020476D01*
X177617380Y-98925238D01*
X177569761Y-98782380D01*
X177474523Y-98687142D01*
X177379285Y-98639523D01*
X177188809Y-98591904D01*
X177045952Y-98591904D01*
X176855476Y-98639523D01*
X176760238Y-98687142D01*
X176665000Y-98782380D01*
X176617380Y-98925238D01*
X176617380Y-99020476D01*
X176665000Y-99163333D01*
X176712619Y-99210952D01*
X176712619Y-99591904D02*
X176665000Y-99639523D01*
X176617380Y-99734761D01*
X176617380Y-99972857D01*
X176665000Y-100068095D01*
X176712619Y-100115714D01*
X176807857Y-100163333D01*
X176903095Y-100163333D01*
X177045952Y-100115714D01*
X177617380Y-99544285D01*
X177617380Y-100163333D01*
X177617380Y-101115714D02*
X177617380Y-100544285D01*
X177617380Y-100830000D02*
X176617380Y-100830000D01*
X176760238Y-100734761D01*
X176855476Y-100639523D01*
X176903095Y-100544285D01*
X176617380Y-101972857D02*
X176617380Y-101782380D01*
X176665000Y-101687142D01*
X176712619Y-101639523D01*
X176855476Y-101544285D01*
X177045952Y-101496666D01*
X177426904Y-101496666D01*
X177522142Y-101544285D01*
X177569761Y-101591904D01*
X177617380Y-101687142D01*
X177617380Y-101877619D01*
X177569761Y-101972857D01*
X177522142Y-102020476D01*
X177426904Y-102068095D01*
X177188809Y-102068095D01*
X177093571Y-102020476D01*
X177045952Y-101972857D01*
X176998333Y-101877619D01*
X176998333Y-101687142D01*
X177045952Y-101591904D01*
X177093571Y-101544285D01*
X177188809Y-101496666D01*
X183007142Y-98480952D02*
X183054761Y-98433333D01*
X183102380Y-98290476D01*
X183102380Y-98195238D01*
X183054761Y-98052380D01*
X182959523Y-97957142D01*
X182864285Y-97909523D01*
X182673809Y-97861904D01*
X182530952Y-97861904D01*
X182340476Y-97909523D01*
X182245238Y-97957142D01*
X182150000Y-98052380D01*
X182102380Y-98195238D01*
X182102380Y-98290476D01*
X182150000Y-98433333D01*
X182197619Y-98480952D01*
X182197619Y-98861904D02*
X182150000Y-98909523D01*
X182102380Y-99004761D01*
X182102380Y-99242857D01*
X182150000Y-99338095D01*
X182197619Y-99385714D01*
X182292857Y-99433333D01*
X182388095Y-99433333D01*
X182530952Y-99385714D01*
X183102380Y-98814285D01*
X183102380Y-99433333D01*
X183102380Y-100385714D02*
X183102380Y-99814285D01*
X183102380Y-100100000D02*
X182102380Y-100100000D01*
X182245238Y-100004761D01*
X182340476Y-99909523D01*
X182388095Y-99814285D01*
X182102380Y-100719047D02*
X182102380Y-101385714D01*
X183102380Y-100957142D01*
X78762857Y-55484047D02*
X78715238Y-55531666D01*
X78667619Y-55674523D01*
X78667619Y-55769761D01*
X78715238Y-55912619D01*
X78810476Y-56007857D01*
X78905714Y-56055476D01*
X79096190Y-56103095D01*
X79239047Y-56103095D01*
X79429523Y-56055476D01*
X79524761Y-56007857D01*
X79620000Y-55912619D01*
X79667619Y-55769761D01*
X79667619Y-55674523D01*
X79620000Y-55531666D01*
X79572380Y-55484047D01*
X79572380Y-55103095D02*
X79620000Y-55055476D01*
X79667619Y-54960238D01*
X79667619Y-54722142D01*
X79620000Y-54626904D01*
X79572380Y-54579285D01*
X79477142Y-54531666D01*
X79381904Y-54531666D01*
X79239047Y-54579285D01*
X78667619Y-55150714D01*
X78667619Y-54531666D01*
X78667619Y-53579285D02*
X78667619Y-54150714D01*
X78667619Y-53865000D02*
X79667619Y-53865000D01*
X79524761Y-53960238D01*
X79429523Y-54055476D01*
X79381904Y-54150714D01*
X79334285Y-52722142D02*
X78667619Y-52722142D01*
X79715238Y-52960238D02*
X79000952Y-53198333D01*
X79000952Y-52579285D01*
X75985476Y-51887380D02*
X75985476Y-50887380D01*
X75747380Y-50887380D01*
X75604523Y-50935000D01*
X75509285Y-51030238D01*
X75461666Y-51125476D01*
X75414047Y-51315952D01*
X75414047Y-51458809D01*
X75461666Y-51649285D01*
X75509285Y-51744523D01*
X75604523Y-51839761D01*
X75747380Y-51887380D01*
X75985476Y-51887380D01*
X75033095Y-50982619D02*
X74985476Y-50935000D01*
X74890238Y-50887380D01*
X74652142Y-50887380D01*
X74556904Y-50935000D01*
X74509285Y-50982619D01*
X74461666Y-51077857D01*
X74461666Y-51173095D01*
X74509285Y-51315952D01*
X75080714Y-51887380D01*
X74461666Y-51887380D01*
X73842619Y-50887380D02*
X73747380Y-50887380D01*
X73652142Y-50935000D01*
X73604523Y-50982619D01*
X73556904Y-51077857D01*
X73509285Y-51268333D01*
X73509285Y-51506428D01*
X73556904Y-51696904D01*
X73604523Y-51792142D01*
X73652142Y-51839761D01*
X73747380Y-51887380D01*
X73842619Y-51887380D01*
X73937857Y-51839761D01*
X73985476Y-51792142D01*
X74033095Y-51696904D01*
X74080714Y-51506428D01*
X74080714Y-51268333D01*
X74033095Y-51077857D01*
X73985476Y-50982619D01*
X73937857Y-50935000D01*
X73842619Y-50887380D01*
X72556904Y-51887380D02*
X73128333Y-51887380D01*
X72842619Y-51887380D02*
X72842619Y-50887380D01*
X72937857Y-51030238D01*
X73033095Y-51125476D01*
X73128333Y-51173095D01*
X82367380Y-57380952D02*
X81891190Y-57047619D01*
X82367380Y-56809523D02*
X81367380Y-56809523D01*
X81367380Y-57190476D01*
X81415000Y-57285714D01*
X81462619Y-57333333D01*
X81557857Y-57380952D01*
X81700714Y-57380952D01*
X81795952Y-57333333D01*
X81843571Y-57285714D01*
X81891190Y-57190476D01*
X81891190Y-56809523D01*
X81462619Y-57761904D02*
X81415000Y-57809523D01*
X81367380Y-57904761D01*
X81367380Y-58142857D01*
X81415000Y-58238095D01*
X81462619Y-58285714D01*
X81557857Y-58333333D01*
X81653095Y-58333333D01*
X81795952Y-58285714D01*
X82367380Y-57714285D01*
X82367380Y-58333333D01*
X81367380Y-58952380D02*
X81367380Y-59047619D01*
X81415000Y-59142857D01*
X81462619Y-59190476D01*
X81557857Y-59238095D01*
X81748333Y-59285714D01*
X81986428Y-59285714D01*
X82176904Y-59238095D01*
X82272142Y-59190476D01*
X82319761Y-59142857D01*
X82367380Y-59047619D01*
X82367380Y-58952380D01*
X82319761Y-58857142D01*
X82272142Y-58809523D01*
X82176904Y-58761904D01*
X81986428Y-58714285D01*
X81748333Y-58714285D01*
X81557857Y-58761904D01*
X81462619Y-58809523D01*
X81415000Y-58857142D01*
X81367380Y-58952380D01*
X81462619Y-59666666D02*
X81415000Y-59714285D01*
X81367380Y-59809523D01*
X81367380Y-60047619D01*
X81415000Y-60142857D01*
X81462619Y-60190476D01*
X81557857Y-60238095D01*
X81653095Y-60238095D01*
X81795952Y-60190476D01*
X82367380Y-59619047D01*
X82367380Y-60238095D01*
X84452380Y-57380952D02*
X83976190Y-57047619D01*
X84452380Y-56809523D02*
X83452380Y-56809523D01*
X83452380Y-57190476D01*
X83500000Y-57285714D01*
X83547619Y-57333333D01*
X83642857Y-57380952D01*
X83785714Y-57380952D01*
X83880952Y-57333333D01*
X83928571Y-57285714D01*
X83976190Y-57190476D01*
X83976190Y-56809523D01*
X83547619Y-57761904D02*
X83500000Y-57809523D01*
X83452380Y-57904761D01*
X83452380Y-58142857D01*
X83500000Y-58238095D01*
X83547619Y-58285714D01*
X83642857Y-58333333D01*
X83738095Y-58333333D01*
X83880952Y-58285714D01*
X84452380Y-57714285D01*
X84452380Y-58333333D01*
X83452380Y-58952380D02*
X83452380Y-59047619D01*
X83500000Y-59142857D01*
X83547619Y-59190476D01*
X83642857Y-59238095D01*
X83833333Y-59285714D01*
X84071428Y-59285714D01*
X84261904Y-59238095D01*
X84357142Y-59190476D01*
X84404761Y-59142857D01*
X84452380Y-59047619D01*
X84452380Y-58952380D01*
X84404761Y-58857142D01*
X84357142Y-58809523D01*
X84261904Y-58761904D01*
X84071428Y-58714285D01*
X83833333Y-58714285D01*
X83642857Y-58761904D01*
X83547619Y-58809523D01*
X83500000Y-58857142D01*
X83452380Y-58952380D01*
X83452380Y-59619047D02*
X83452380Y-60238095D01*
X83833333Y-59904761D01*
X83833333Y-60047619D01*
X83880952Y-60142857D01*
X83928571Y-60190476D01*
X84023809Y-60238095D01*
X84261904Y-60238095D01*
X84357142Y-60190476D01*
X84404761Y-60142857D01*
X84452380Y-60047619D01*
X84452380Y-59761904D01*
X84404761Y-59666666D01*
X84357142Y-59619047D01*
X73380952Y-56547619D02*
X73047619Y-57023809D01*
X72809523Y-56547619D02*
X72809523Y-57547619D01*
X73190476Y-57547619D01*
X73285714Y-57500000D01*
X73333333Y-57452380D01*
X73380952Y-57357142D01*
X73380952Y-57214285D01*
X73333333Y-57119047D01*
X73285714Y-57071428D01*
X73190476Y-57023809D01*
X72809523Y-57023809D01*
X73761904Y-57452380D02*
X73809523Y-57500000D01*
X73904761Y-57547619D01*
X74142857Y-57547619D01*
X74238095Y-57500000D01*
X74285714Y-57452380D01*
X74333333Y-57357142D01*
X74333333Y-57261904D01*
X74285714Y-57119047D01*
X73714285Y-56547619D01*
X74333333Y-56547619D01*
X74952380Y-57547619D02*
X75047619Y-57547619D01*
X75142857Y-57500000D01*
X75190476Y-57452380D01*
X75238095Y-57357142D01*
X75285714Y-57166666D01*
X75285714Y-56928571D01*
X75238095Y-56738095D01*
X75190476Y-56642857D01*
X75142857Y-56595238D01*
X75047619Y-56547619D01*
X74952380Y-56547619D01*
X74857142Y-56595238D01*
X74809523Y-56642857D01*
X74761904Y-56738095D01*
X74714285Y-56928571D01*
X74714285Y-57166666D01*
X74761904Y-57357142D01*
X74809523Y-57452380D01*
X74857142Y-57500000D01*
X74952380Y-57547619D01*
X76142857Y-57214285D02*
X76142857Y-56547619D01*
X75904761Y-57595238D02*
X75666666Y-56880952D01*
X76285714Y-56880952D01*
X179252619Y-110339047D02*
X179728809Y-110672380D01*
X179252619Y-110910476D02*
X180252619Y-110910476D01*
X180252619Y-110529523D01*
X180205000Y-110434285D01*
X180157380Y-110386666D01*
X180062142Y-110339047D01*
X179919285Y-110339047D01*
X179824047Y-110386666D01*
X179776428Y-110434285D01*
X179728809Y-110529523D01*
X179728809Y-110910476D01*
X180157380Y-109958095D02*
X180205000Y-109910476D01*
X180252619Y-109815238D01*
X180252619Y-109577142D01*
X180205000Y-109481904D01*
X180157380Y-109434285D01*
X180062142Y-109386666D01*
X179966904Y-109386666D01*
X179824047Y-109434285D01*
X179252619Y-110005714D01*
X179252619Y-109386666D01*
X180252619Y-108767619D02*
X180252619Y-108672380D01*
X180205000Y-108577142D01*
X180157380Y-108529523D01*
X180062142Y-108481904D01*
X179871666Y-108434285D01*
X179633571Y-108434285D01*
X179443095Y-108481904D01*
X179347857Y-108529523D01*
X179300238Y-108577142D01*
X179252619Y-108672380D01*
X179252619Y-108767619D01*
X179300238Y-108862857D01*
X179347857Y-108910476D01*
X179443095Y-108958095D01*
X179633571Y-109005714D01*
X179871666Y-109005714D01*
X180062142Y-108958095D01*
X180157380Y-108910476D01*
X180205000Y-108862857D01*
X180252619Y-108767619D01*
X180252619Y-107529523D02*
X180252619Y-108005714D01*
X179776428Y-108053333D01*
X179824047Y-108005714D01*
X179871666Y-107910476D01*
X179871666Y-107672380D01*
X179824047Y-107577142D01*
X179776428Y-107529523D01*
X179681190Y-107481904D01*
X179443095Y-107481904D01*
X179347857Y-107529523D01*
X179300238Y-107577142D01*
X179252619Y-107672380D01*
X179252619Y-107910476D01*
X179300238Y-108005714D01*
X179347857Y-108053333D01*
X121610238Y-48077380D02*
X121943571Y-47601190D01*
X122181666Y-48077380D02*
X122181666Y-47077380D01*
X121800714Y-47077380D01*
X121705476Y-47125000D01*
X121657857Y-47172619D01*
X121610238Y-47267857D01*
X121610238Y-47410714D01*
X121657857Y-47505952D01*
X121705476Y-47553571D01*
X121800714Y-47601190D01*
X122181666Y-47601190D01*
X121276904Y-47077380D02*
X120610238Y-48077380D01*
X120610238Y-47077380D02*
X121276904Y-48077380D01*
X120324523Y-47077380D02*
X119705476Y-47077380D01*
X120038809Y-47458333D01*
X119895952Y-47458333D01*
X119800714Y-47505952D01*
X119753095Y-47553571D01*
X119705476Y-47648809D01*
X119705476Y-47886904D01*
X119753095Y-47982142D01*
X119800714Y-48029761D01*
X119895952Y-48077380D01*
X120181666Y-48077380D01*
X120276904Y-48029761D01*
X120324523Y-47982142D01*
X119086428Y-47077380D02*
X118991190Y-47077380D01*
X118895952Y-47125000D01*
X118848333Y-47172619D01*
X118800714Y-47267857D01*
X118753095Y-47458333D01*
X118753095Y-47696428D01*
X118800714Y-47886904D01*
X118848333Y-47982142D01*
X118895952Y-48029761D01*
X118991190Y-48077380D01*
X119086428Y-48077380D01*
X119181666Y-48029761D01*
X119229285Y-47982142D01*
X119276904Y-47886904D01*
X119324523Y-47696428D01*
X119324523Y-47458333D01*
X119276904Y-47267857D01*
X119229285Y-47172619D01*
X119181666Y-47125000D01*
X119086428Y-47077380D01*
X117800714Y-48077380D02*
X118372142Y-48077380D01*
X118086428Y-48077380D02*
X118086428Y-47077380D01*
X118181666Y-47220238D01*
X118276904Y-47315476D01*
X118372142Y-47363095D01*
X108214285Y-51452380D02*
X107642857Y-51452380D01*
X107928571Y-52452380D02*
X107928571Y-51452380D01*
X107309523Y-52452380D02*
X107309523Y-51452380D01*
X106928571Y-51452380D01*
X106833333Y-51500000D01*
X106785714Y-51547619D01*
X106738095Y-51642857D01*
X106738095Y-51785714D01*
X106785714Y-51880952D01*
X106833333Y-51928571D01*
X106928571Y-51976190D01*
X107309523Y-51976190D01*
X106357142Y-51547619D02*
X106309523Y-51500000D01*
X106214285Y-51452380D01*
X105976190Y-51452380D01*
X105880952Y-51500000D01*
X105833333Y-51547619D01*
X105785714Y-51642857D01*
X105785714Y-51738095D01*
X105833333Y-51880952D01*
X106404761Y-52452380D01*
X105785714Y-52452380D01*
X105166666Y-51452380D02*
X105071428Y-51452380D01*
X104976190Y-51500000D01*
X104928571Y-51547619D01*
X104880952Y-51642857D01*
X104833333Y-51833333D01*
X104833333Y-52071428D01*
X104880952Y-52261904D01*
X104928571Y-52357142D01*
X104976190Y-52404761D01*
X105071428Y-52452380D01*
X105166666Y-52452380D01*
X105261904Y-52404761D01*
X105309523Y-52357142D01*
X105357142Y-52261904D01*
X105404761Y-52071428D01*
X105404761Y-51833333D01*
X105357142Y-51642857D01*
X105309523Y-51547619D01*
X105261904Y-51500000D01*
X105166666Y-51452380D01*
X103880952Y-52452380D02*
X104452380Y-52452380D01*
X104166666Y-52452380D02*
X104166666Y-51452380D01*
X104261904Y-51595238D01*
X104357142Y-51690476D01*
X104452380Y-51738095D01*
X108593000Y-48133095D02*
X108545380Y-48037857D01*
X108545380Y-47895000D01*
X108593000Y-47752142D01*
X108688238Y-47656904D01*
X108783476Y-47609285D01*
X108973952Y-47561666D01*
X109116809Y-47561666D01*
X109307285Y-47609285D01*
X109402523Y-47656904D01*
X109497761Y-47752142D01*
X109545380Y-47895000D01*
X109545380Y-47990238D01*
X109497761Y-48133095D01*
X109450142Y-48180714D01*
X109116809Y-48180714D01*
X109116809Y-47990238D01*
X109545380Y-48609285D02*
X108545380Y-48609285D01*
X109545380Y-49180714D01*
X108545380Y-49180714D01*
X109545380Y-49656904D02*
X108545380Y-49656904D01*
X108545380Y-49895000D01*
X108593000Y-50037857D01*
X108688238Y-50133095D01*
X108783476Y-50180714D01*
X108973952Y-50228333D01*
X109116809Y-50228333D01*
X109307285Y-50180714D01*
X109402523Y-50133095D01*
X109497761Y-50037857D01*
X109545380Y-49895000D01*
X109545380Y-49656904D01*
X115855476Y-47077380D02*
X115284047Y-47077380D01*
X115569761Y-48077380D02*
X115569761Y-47077380D01*
X115045952Y-47077380D02*
X114379285Y-48077380D01*
X114379285Y-47077380D02*
X115045952Y-48077380D01*
X114093571Y-47077380D02*
X113474523Y-47077380D01*
X113807857Y-47458333D01*
X113665000Y-47458333D01*
X113569761Y-47505952D01*
X113522142Y-47553571D01*
X113474523Y-47648809D01*
X113474523Y-47886904D01*
X113522142Y-47982142D01*
X113569761Y-48029761D01*
X113665000Y-48077380D01*
X113950714Y-48077380D01*
X114045952Y-48029761D01*
X114093571Y-47982142D01*
X112855476Y-47077380D02*
X112760238Y-47077380D01*
X112665000Y-47125000D01*
X112617380Y-47172619D01*
X112569761Y-47267857D01*
X112522142Y-47458333D01*
X112522142Y-47696428D01*
X112569761Y-47886904D01*
X112617380Y-47982142D01*
X112665000Y-48029761D01*
X112760238Y-48077380D01*
X112855476Y-48077380D01*
X112950714Y-48029761D01*
X112998333Y-47982142D01*
X113045952Y-47886904D01*
X113093571Y-47696428D01*
X113093571Y-47458333D01*
X113045952Y-47267857D01*
X112998333Y-47172619D01*
X112950714Y-47125000D01*
X112855476Y-47077380D01*
X111569761Y-48077380D02*
X112141190Y-48077380D01*
X111855476Y-48077380D02*
X111855476Y-47077380D01*
X111950714Y-47220238D01*
X112045952Y-47315476D01*
X112141190Y-47363095D01*
X177990285Y-74182380D02*
X177990285Y-74991904D01*
X177942666Y-75087142D01*
X177895047Y-75134761D01*
X177799809Y-75182380D01*
X177609333Y-75182380D01*
X177514095Y-75134761D01*
X177466476Y-75087142D01*
X177418857Y-74991904D01*
X177418857Y-74182380D01*
X177037904Y-74182380D02*
X176418857Y-74182380D01*
X176752190Y-74563333D01*
X176609333Y-74563333D01*
X176514095Y-74610952D01*
X176466476Y-74658571D01*
X176418857Y-74753809D01*
X176418857Y-74991904D01*
X176466476Y-75087142D01*
X176514095Y-75134761D01*
X176609333Y-75182380D01*
X176895047Y-75182380D01*
X176990285Y-75134761D01*
X177037904Y-75087142D01*
X175799809Y-74182380D02*
X175704571Y-74182380D01*
X175609333Y-74230000D01*
X175561714Y-74277619D01*
X175514095Y-74372857D01*
X175466476Y-74563333D01*
X175466476Y-74801428D01*
X175514095Y-74991904D01*
X175561714Y-75087142D01*
X175609333Y-75134761D01*
X175704571Y-75182380D01*
X175799809Y-75182380D01*
X175895047Y-75134761D01*
X175942666Y-75087142D01*
X175990285Y-74991904D01*
X176037904Y-74801428D01*
X176037904Y-74563333D01*
X175990285Y-74372857D01*
X175942666Y-74277619D01*
X175895047Y-74230000D01*
X175799809Y-74182380D01*
X175085523Y-74277619D02*
X175037904Y-74230000D01*
X174942666Y-74182380D01*
X174704571Y-74182380D01*
X174609333Y-74230000D01*
X174561714Y-74277619D01*
X174514095Y-74372857D01*
X174514095Y-74468095D01*
X174561714Y-74610952D01*
X175133142Y-75182380D01*
X174514095Y-75182380D01*
X185507380Y-109204523D02*
X185507380Y-109775952D01*
X186507380Y-109490238D02*
X185507380Y-109490238D01*
X186507380Y-110109285D02*
X185507380Y-110109285D01*
X185507380Y-110490238D01*
X185555000Y-110585476D01*
X185602619Y-110633095D01*
X185697857Y-110680714D01*
X185840714Y-110680714D01*
X185935952Y-110633095D01*
X185983571Y-110585476D01*
X186031190Y-110490238D01*
X186031190Y-110109285D01*
X186507380Y-111680714D02*
X186031190Y-111347380D01*
X186507380Y-111109285D02*
X185507380Y-111109285D01*
X185507380Y-111490238D01*
X185555000Y-111585476D01*
X185602619Y-111633095D01*
X185697857Y-111680714D01*
X185840714Y-111680714D01*
X185935952Y-111633095D01*
X185983571Y-111585476D01*
X186031190Y-111490238D01*
X186031190Y-111109285D01*
X185507380Y-112014047D02*
X186507380Y-112680714D01*
X185507380Y-112680714D02*
X186507380Y-112014047D01*
X185602619Y-113014047D02*
X185555000Y-113061666D01*
X185507380Y-113156904D01*
X185507380Y-113395000D01*
X185555000Y-113490238D01*
X185602619Y-113537857D01*
X185697857Y-113585476D01*
X185793095Y-113585476D01*
X185935952Y-113537857D01*
X186507380Y-112966428D01*
X186507380Y-113585476D01*
X185507380Y-114204523D02*
X185507380Y-114299761D01*
X185555000Y-114395000D01*
X185602619Y-114442619D01*
X185697857Y-114490238D01*
X185888333Y-114537857D01*
X186126428Y-114537857D01*
X186316904Y-114490238D01*
X186412142Y-114442619D01*
X186459761Y-114395000D01*
X186507380Y-114299761D01*
X186507380Y-114204523D01*
X186459761Y-114109285D01*
X186412142Y-114061666D01*
X186316904Y-114014047D01*
X186126428Y-113966428D01*
X185888333Y-113966428D01*
X185697857Y-114014047D01*
X185602619Y-114061666D01*
X185555000Y-114109285D01*
X185507380Y-114204523D01*
X186507380Y-115490238D02*
X186507380Y-114918809D01*
X186507380Y-115204523D02*
X185507380Y-115204523D01*
X185650238Y-115109285D01*
X185745476Y-115014047D01*
X185793095Y-114918809D01*
X185507380Y-118213571D02*
X185507380Y-118785000D01*
X186507380Y-118499285D02*
X185507380Y-118499285D01*
X186507380Y-119118333D02*
X185507380Y-119118333D01*
X185507380Y-119499285D01*
X185555000Y-119594523D01*
X185602619Y-119642142D01*
X185697857Y-119689761D01*
X185840714Y-119689761D01*
X185935952Y-119642142D01*
X185983571Y-119594523D01*
X186031190Y-119499285D01*
X186031190Y-119118333D01*
X185507380Y-119975476D02*
X185507380Y-120546904D01*
X186507380Y-120261190D02*
X185507380Y-120261190D01*
X185507380Y-120785000D02*
X186507380Y-121451666D01*
X185507380Y-121451666D02*
X186507380Y-120785000D01*
X185602619Y-121785000D02*
X185555000Y-121832619D01*
X185507380Y-121927857D01*
X185507380Y-122165952D01*
X185555000Y-122261190D01*
X185602619Y-122308809D01*
X185697857Y-122356428D01*
X185793095Y-122356428D01*
X185935952Y-122308809D01*
X186507380Y-121737380D01*
X186507380Y-122356428D01*
X185507380Y-122975476D02*
X185507380Y-123070714D01*
X185555000Y-123165952D01*
X185602619Y-123213571D01*
X185697857Y-123261190D01*
X185888333Y-123308809D01*
X186126428Y-123308809D01*
X186316904Y-123261190D01*
X186412142Y-123213571D01*
X186459761Y-123165952D01*
X186507380Y-123070714D01*
X186507380Y-122975476D01*
X186459761Y-122880238D01*
X186412142Y-122832619D01*
X186316904Y-122785000D01*
X186126428Y-122737380D01*
X185888333Y-122737380D01*
X185697857Y-122785000D01*
X185602619Y-122832619D01*
X185555000Y-122880238D01*
X185507380Y-122975476D01*
X186507380Y-124261190D02*
X186507380Y-123689761D01*
X186507380Y-123975476D02*
X185507380Y-123975476D01*
X185650238Y-123880238D01*
X185745476Y-123785000D01*
X185793095Y-123689761D01*
X170852380Y-76430952D02*
X170376190Y-76097619D01*
X170852380Y-75859523D02*
X169852380Y-75859523D01*
X169852380Y-76240476D01*
X169900000Y-76335714D01*
X169947619Y-76383333D01*
X170042857Y-76430952D01*
X170185714Y-76430952D01*
X170280952Y-76383333D01*
X170328571Y-76335714D01*
X170376190Y-76240476D01*
X170376190Y-75859523D01*
X170852380Y-77383333D02*
X170852380Y-76811904D01*
X170852380Y-77097619D02*
X169852380Y-77097619D01*
X169995238Y-77002380D01*
X170090476Y-76907142D01*
X170138095Y-76811904D01*
X169852380Y-78002380D02*
X169852380Y-78097619D01*
X169900000Y-78192857D01*
X169947619Y-78240476D01*
X170042857Y-78288095D01*
X170233333Y-78335714D01*
X170471428Y-78335714D01*
X170661904Y-78288095D01*
X170757142Y-78240476D01*
X170804761Y-78192857D01*
X170852380Y-78097619D01*
X170852380Y-78002380D01*
X170804761Y-77907142D01*
X170757142Y-77859523D01*
X170661904Y-77811904D01*
X170471428Y-77764285D01*
X170233333Y-77764285D01*
X170042857Y-77811904D01*
X169947619Y-77859523D01*
X169900000Y-77907142D01*
X169852380Y-78002380D01*
X170852380Y-79288095D02*
X170852380Y-78716666D01*
X170852380Y-79002380D02*
X169852380Y-79002380D01*
X169995238Y-78907142D01*
X170090476Y-78811904D01*
X170138095Y-78716666D01*
X167202380Y-76430952D02*
X166726190Y-76097619D01*
X167202380Y-75859523D02*
X166202380Y-75859523D01*
X166202380Y-76240476D01*
X166250000Y-76335714D01*
X166297619Y-76383333D01*
X166392857Y-76430952D01*
X166535714Y-76430952D01*
X166630952Y-76383333D01*
X166678571Y-76335714D01*
X166726190Y-76240476D01*
X166726190Y-75859523D01*
X167202380Y-77383333D02*
X167202380Y-76811904D01*
X167202380Y-77097619D02*
X166202380Y-77097619D01*
X166345238Y-77002380D01*
X166440476Y-76907142D01*
X166488095Y-76811904D01*
X166202380Y-78002380D02*
X166202380Y-78097619D01*
X166250000Y-78192857D01*
X166297619Y-78240476D01*
X166392857Y-78288095D01*
X166583333Y-78335714D01*
X166821428Y-78335714D01*
X167011904Y-78288095D01*
X167107142Y-78240476D01*
X167154761Y-78192857D01*
X167202380Y-78097619D01*
X167202380Y-78002380D01*
X167154761Y-77907142D01*
X167107142Y-77859523D01*
X167011904Y-77811904D01*
X166821428Y-77764285D01*
X166583333Y-77764285D01*
X166392857Y-77811904D01*
X166297619Y-77859523D01*
X166250000Y-77907142D01*
X166202380Y-78002380D01*
X166297619Y-78716666D02*
X166250000Y-78764285D01*
X166202380Y-78859523D01*
X166202380Y-79097619D01*
X166250000Y-79192857D01*
X166297619Y-79240476D01*
X166392857Y-79288095D01*
X166488095Y-79288095D01*
X166630952Y-79240476D01*
X167202380Y-78669047D01*
X167202380Y-79288095D01*
X174802380Y-83930952D02*
X174326190Y-83597619D01*
X174802380Y-83359523D02*
X173802380Y-83359523D01*
X173802380Y-83740476D01*
X173850000Y-83835714D01*
X173897619Y-83883333D01*
X173992857Y-83930952D01*
X174135714Y-83930952D01*
X174230952Y-83883333D01*
X174278571Y-83835714D01*
X174326190Y-83740476D01*
X174326190Y-83359523D01*
X174802380Y-84883333D02*
X174802380Y-84311904D01*
X174802380Y-84597619D02*
X173802380Y-84597619D01*
X173945238Y-84502380D01*
X174040476Y-84407142D01*
X174088095Y-84311904D01*
X173802380Y-85502380D02*
X173802380Y-85597619D01*
X173850000Y-85692857D01*
X173897619Y-85740476D01*
X173992857Y-85788095D01*
X174183333Y-85835714D01*
X174421428Y-85835714D01*
X174611904Y-85788095D01*
X174707142Y-85740476D01*
X174754761Y-85692857D01*
X174802380Y-85597619D01*
X174802380Y-85502380D01*
X174754761Y-85407142D01*
X174707142Y-85359523D01*
X174611904Y-85311904D01*
X174421428Y-85264285D01*
X174183333Y-85264285D01*
X173992857Y-85311904D01*
X173897619Y-85359523D01*
X173850000Y-85407142D01*
X173802380Y-85502380D01*
X173802380Y-86169047D02*
X173802380Y-86788095D01*
X174183333Y-86454761D01*
X174183333Y-86597619D01*
X174230952Y-86692857D01*
X174278571Y-86740476D01*
X174373809Y-86788095D01*
X174611904Y-86788095D01*
X174707142Y-86740476D01*
X174754761Y-86692857D01*
X174802380Y-86597619D01*
X174802380Y-86311904D01*
X174754761Y-86216666D01*
X174707142Y-86169047D01*
X170152380Y-83930952D02*
X169676190Y-83597619D01*
X170152380Y-83359523D02*
X169152380Y-83359523D01*
X169152380Y-83740476D01*
X169200000Y-83835714D01*
X169247619Y-83883333D01*
X169342857Y-83930952D01*
X169485714Y-83930952D01*
X169580952Y-83883333D01*
X169628571Y-83835714D01*
X169676190Y-83740476D01*
X169676190Y-83359523D01*
X170152380Y-84883333D02*
X170152380Y-84311904D01*
X170152380Y-84597619D02*
X169152380Y-84597619D01*
X169295238Y-84502380D01*
X169390476Y-84407142D01*
X169438095Y-84311904D01*
X169152380Y-85502380D02*
X169152380Y-85597619D01*
X169200000Y-85692857D01*
X169247619Y-85740476D01*
X169342857Y-85788095D01*
X169533333Y-85835714D01*
X169771428Y-85835714D01*
X169961904Y-85788095D01*
X170057142Y-85740476D01*
X170104761Y-85692857D01*
X170152380Y-85597619D01*
X170152380Y-85502380D01*
X170104761Y-85407142D01*
X170057142Y-85359523D01*
X169961904Y-85311904D01*
X169771428Y-85264285D01*
X169533333Y-85264285D01*
X169342857Y-85311904D01*
X169247619Y-85359523D01*
X169200000Y-85407142D01*
X169152380Y-85502380D01*
X169485714Y-86692857D02*
X170152380Y-86692857D01*
X169104761Y-86454761D02*
X169819047Y-86216666D01*
X169819047Y-86835714D01*
X163452380Y-123880952D02*
X162976190Y-123547619D01*
X163452380Y-123309523D02*
X162452380Y-123309523D01*
X162452380Y-123690476D01*
X162500000Y-123785714D01*
X162547619Y-123833333D01*
X162642857Y-123880952D01*
X162785714Y-123880952D01*
X162880952Y-123833333D01*
X162928571Y-123785714D01*
X162976190Y-123690476D01*
X162976190Y-123309523D01*
X162547619Y-124261904D02*
X162500000Y-124309523D01*
X162452380Y-124404761D01*
X162452380Y-124642857D01*
X162500000Y-124738095D01*
X162547619Y-124785714D01*
X162642857Y-124833333D01*
X162738095Y-124833333D01*
X162880952Y-124785714D01*
X163452380Y-124214285D01*
X163452380Y-124833333D01*
X162452380Y-125452380D02*
X162452380Y-125547619D01*
X162500000Y-125642857D01*
X162547619Y-125690476D01*
X162642857Y-125738095D01*
X162833333Y-125785714D01*
X163071428Y-125785714D01*
X163261904Y-125738095D01*
X163357142Y-125690476D01*
X163404761Y-125642857D01*
X163452380Y-125547619D01*
X163452380Y-125452380D01*
X163404761Y-125357142D01*
X163357142Y-125309523D01*
X163261904Y-125261904D01*
X163071428Y-125214285D01*
X162833333Y-125214285D01*
X162642857Y-125261904D01*
X162547619Y-125309523D01*
X162500000Y-125357142D01*
X162452380Y-125452380D01*
X162880952Y-126357142D02*
X162833333Y-126261904D01*
X162785714Y-126214285D01*
X162690476Y-126166666D01*
X162642857Y-126166666D01*
X162547619Y-126214285D01*
X162500000Y-126261904D01*
X162452380Y-126357142D01*
X162452380Y-126547619D01*
X162500000Y-126642857D01*
X162547619Y-126690476D01*
X162642857Y-126738095D01*
X162690476Y-126738095D01*
X162785714Y-126690476D01*
X162833333Y-126642857D01*
X162880952Y-126547619D01*
X162880952Y-126357142D01*
X162928571Y-126261904D01*
X162976190Y-126214285D01*
X163071428Y-126166666D01*
X163261904Y-126166666D01*
X163357142Y-126214285D01*
X163404761Y-126261904D01*
X163452380Y-126357142D01*
X163452380Y-126547619D01*
X163404761Y-126642857D01*
X163357142Y-126690476D01*
X163261904Y-126738095D01*
X163071428Y-126738095D01*
X162976190Y-126690476D01*
X162928571Y-126642857D01*
X162880952Y-126547619D01*
X165952380Y-123380952D02*
X165476190Y-123047619D01*
X165952380Y-122809523D02*
X164952380Y-122809523D01*
X164952380Y-123190476D01*
X165000000Y-123285714D01*
X165047619Y-123333333D01*
X165142857Y-123380952D01*
X165285714Y-123380952D01*
X165380952Y-123333333D01*
X165428571Y-123285714D01*
X165476190Y-123190476D01*
X165476190Y-122809523D01*
X165047619Y-123761904D02*
X165000000Y-123809523D01*
X164952380Y-123904761D01*
X164952380Y-124142857D01*
X165000000Y-124238095D01*
X165047619Y-124285714D01*
X165142857Y-124333333D01*
X165238095Y-124333333D01*
X165380952Y-124285714D01*
X165952380Y-123714285D01*
X165952380Y-124333333D01*
X164952380Y-124952380D02*
X164952380Y-125047619D01*
X165000000Y-125142857D01*
X165047619Y-125190476D01*
X165142857Y-125238095D01*
X165333333Y-125285714D01*
X165571428Y-125285714D01*
X165761904Y-125238095D01*
X165857142Y-125190476D01*
X165904761Y-125142857D01*
X165952380Y-125047619D01*
X165952380Y-124952380D01*
X165904761Y-124857142D01*
X165857142Y-124809523D01*
X165761904Y-124761904D01*
X165571428Y-124714285D01*
X165333333Y-124714285D01*
X165142857Y-124761904D01*
X165047619Y-124809523D01*
X165000000Y-124857142D01*
X164952380Y-124952380D01*
X165952380Y-125761904D02*
X165952380Y-125952380D01*
X165904761Y-126047619D01*
X165857142Y-126095238D01*
X165714285Y-126190476D01*
X165523809Y-126238095D01*
X165142857Y-126238095D01*
X165047619Y-126190476D01*
X165000000Y-126142857D01*
X164952380Y-126047619D01*
X164952380Y-125857142D01*
X165000000Y-125761904D01*
X165047619Y-125714285D01*
X165142857Y-125666666D01*
X165380952Y-125666666D01*
X165476190Y-125714285D01*
X165523809Y-125761904D01*
X165571428Y-125857142D01*
X165571428Y-126047619D01*
X165523809Y-126142857D01*
X165476190Y-126190476D01*
X165380952Y-126238095D01*
X45602380Y-59595952D02*
X45126190Y-59262619D01*
X45602380Y-59024523D02*
X44602380Y-59024523D01*
X44602380Y-59405476D01*
X44650000Y-59500714D01*
X44697619Y-59548333D01*
X44792857Y-59595952D01*
X44935714Y-59595952D01*
X45030952Y-59548333D01*
X45078571Y-59500714D01*
X45126190Y-59405476D01*
X45126190Y-59024523D01*
X44602380Y-59929285D02*
X44602380Y-60548333D01*
X44983333Y-60215000D01*
X44983333Y-60357857D01*
X45030952Y-60453095D01*
X45078571Y-60500714D01*
X45173809Y-60548333D01*
X45411904Y-60548333D01*
X45507142Y-60500714D01*
X45554761Y-60453095D01*
X45602380Y-60357857D01*
X45602380Y-60072142D01*
X45554761Y-59976904D01*
X45507142Y-59929285D01*
X44602380Y-61167380D02*
X44602380Y-61262619D01*
X44650000Y-61357857D01*
X44697619Y-61405476D01*
X44792857Y-61453095D01*
X44983333Y-61500714D01*
X45221428Y-61500714D01*
X45411904Y-61453095D01*
X45507142Y-61405476D01*
X45554761Y-61357857D01*
X45602380Y-61262619D01*
X45602380Y-61167380D01*
X45554761Y-61072142D01*
X45507142Y-61024523D01*
X45411904Y-60976904D01*
X45221428Y-60929285D01*
X44983333Y-60929285D01*
X44792857Y-60976904D01*
X44697619Y-61024523D01*
X44650000Y-61072142D01*
X44602380Y-61167380D01*
X45602380Y-62453095D02*
X45602380Y-61881666D01*
X45602380Y-62167380D02*
X44602380Y-62167380D01*
X44745238Y-62072142D01*
X44840476Y-61976904D01*
X44888095Y-61881666D01*
X42219047Y-76102380D02*
X42552380Y-75626190D01*
X42790476Y-76102380D02*
X42790476Y-75102380D01*
X42409523Y-75102380D01*
X42314285Y-75150000D01*
X42266666Y-75197619D01*
X42219047Y-75292857D01*
X42219047Y-75435714D01*
X42266666Y-75530952D01*
X42314285Y-75578571D01*
X42409523Y-75626190D01*
X42790476Y-75626190D01*
X41885714Y-75102380D02*
X41266666Y-75102380D01*
X41600000Y-75483333D01*
X41457142Y-75483333D01*
X41361904Y-75530952D01*
X41314285Y-75578571D01*
X41266666Y-75673809D01*
X41266666Y-75911904D01*
X41314285Y-76007142D01*
X41361904Y-76054761D01*
X41457142Y-76102380D01*
X41742857Y-76102380D01*
X41838095Y-76054761D01*
X41885714Y-76007142D01*
X40647619Y-75102380D02*
X40552380Y-75102380D01*
X40457142Y-75150000D01*
X40409523Y-75197619D01*
X40361904Y-75292857D01*
X40314285Y-75483333D01*
X40314285Y-75721428D01*
X40361904Y-75911904D01*
X40409523Y-76007142D01*
X40457142Y-76054761D01*
X40552380Y-76102380D01*
X40647619Y-76102380D01*
X40742857Y-76054761D01*
X40790476Y-76007142D01*
X40838095Y-75911904D01*
X40885714Y-75721428D01*
X40885714Y-75483333D01*
X40838095Y-75292857D01*
X40790476Y-75197619D01*
X40742857Y-75150000D01*
X40647619Y-75102380D01*
X39933333Y-75197619D02*
X39885714Y-75150000D01*
X39790476Y-75102380D01*
X39552380Y-75102380D01*
X39457142Y-75150000D01*
X39409523Y-75197619D01*
X39361904Y-75292857D01*
X39361904Y-75388095D01*
X39409523Y-75530952D01*
X39980952Y-76102380D01*
X39361904Y-76102380D01*
X42219047Y-102602380D02*
X42552380Y-102126190D01*
X42790476Y-102602380D02*
X42790476Y-101602380D01*
X42409523Y-101602380D01*
X42314285Y-101650000D01*
X42266666Y-101697619D01*
X42219047Y-101792857D01*
X42219047Y-101935714D01*
X42266666Y-102030952D01*
X42314285Y-102078571D01*
X42409523Y-102126190D01*
X42790476Y-102126190D01*
X41885714Y-101602380D02*
X41266666Y-101602380D01*
X41600000Y-101983333D01*
X41457142Y-101983333D01*
X41361904Y-102030952D01*
X41314285Y-102078571D01*
X41266666Y-102173809D01*
X41266666Y-102411904D01*
X41314285Y-102507142D01*
X41361904Y-102554761D01*
X41457142Y-102602380D01*
X41742857Y-102602380D01*
X41838095Y-102554761D01*
X41885714Y-102507142D01*
X40647619Y-101602380D02*
X40552380Y-101602380D01*
X40457142Y-101650000D01*
X40409523Y-101697619D01*
X40361904Y-101792857D01*
X40314285Y-101983333D01*
X40314285Y-102221428D01*
X40361904Y-102411904D01*
X40409523Y-102507142D01*
X40457142Y-102554761D01*
X40552380Y-102602380D01*
X40647619Y-102602380D01*
X40742857Y-102554761D01*
X40790476Y-102507142D01*
X40838095Y-102411904D01*
X40885714Y-102221428D01*
X40885714Y-101983333D01*
X40838095Y-101792857D01*
X40790476Y-101697619D01*
X40742857Y-101650000D01*
X40647619Y-101602380D01*
X39980952Y-101602380D02*
X39361904Y-101602380D01*
X39695238Y-101983333D01*
X39552380Y-101983333D01*
X39457142Y-102030952D01*
X39409523Y-102078571D01*
X39361904Y-102173809D01*
X39361904Y-102411904D01*
X39409523Y-102507142D01*
X39457142Y-102554761D01*
X39552380Y-102602380D01*
X39838095Y-102602380D01*
X39933333Y-102554761D01*
X39980952Y-102507142D01*
X133952380Y-123380952D02*
X133476190Y-123047619D01*
X133952380Y-122809523D02*
X132952380Y-122809523D01*
X132952380Y-123190476D01*
X133000000Y-123285714D01*
X133047619Y-123333333D01*
X133142857Y-123380952D01*
X133285714Y-123380952D01*
X133380952Y-123333333D01*
X133428571Y-123285714D01*
X133476190Y-123190476D01*
X133476190Y-122809523D01*
X132952380Y-123714285D02*
X132952380Y-124333333D01*
X133333333Y-124000000D01*
X133333333Y-124142857D01*
X133380952Y-124238095D01*
X133428571Y-124285714D01*
X133523809Y-124333333D01*
X133761904Y-124333333D01*
X133857142Y-124285714D01*
X133904761Y-124238095D01*
X133952380Y-124142857D01*
X133952380Y-123857142D01*
X133904761Y-123761904D01*
X133857142Y-123714285D01*
X132952380Y-124952380D02*
X132952380Y-125047619D01*
X133000000Y-125142857D01*
X133047619Y-125190476D01*
X133142857Y-125238095D01*
X133333333Y-125285714D01*
X133571428Y-125285714D01*
X133761904Y-125238095D01*
X133857142Y-125190476D01*
X133904761Y-125142857D01*
X133952380Y-125047619D01*
X133952380Y-124952380D01*
X133904761Y-124857142D01*
X133857142Y-124809523D01*
X133761904Y-124761904D01*
X133571428Y-124714285D01*
X133333333Y-124714285D01*
X133142857Y-124761904D01*
X133047619Y-124809523D01*
X133000000Y-124857142D01*
X132952380Y-124952380D01*
X133285714Y-126142857D02*
X133952380Y-126142857D01*
X132904761Y-125904761D02*
X133619047Y-125666666D01*
X133619047Y-126285714D01*
X167119047Y-118952380D02*
X167452380Y-118476190D01*
X167690476Y-118952380D02*
X167690476Y-117952380D01*
X167309523Y-117952380D01*
X167214285Y-118000000D01*
X167166666Y-118047619D01*
X167119047Y-118142857D01*
X167119047Y-118285714D01*
X167166666Y-118380952D01*
X167214285Y-118428571D01*
X167309523Y-118476190D01*
X167690476Y-118476190D01*
X166785714Y-117952380D02*
X166166666Y-117952380D01*
X166500000Y-118333333D01*
X166357142Y-118333333D01*
X166261904Y-118380952D01*
X166214285Y-118428571D01*
X166166666Y-118523809D01*
X166166666Y-118761904D01*
X166214285Y-118857142D01*
X166261904Y-118904761D01*
X166357142Y-118952380D01*
X166642857Y-118952380D01*
X166738095Y-118904761D01*
X166785714Y-118857142D01*
X165547619Y-117952380D02*
X165452380Y-117952380D01*
X165357142Y-118000000D01*
X165309523Y-118047619D01*
X165261904Y-118142857D01*
X165214285Y-118333333D01*
X165214285Y-118571428D01*
X165261904Y-118761904D01*
X165309523Y-118857142D01*
X165357142Y-118904761D01*
X165452380Y-118952380D01*
X165547619Y-118952380D01*
X165642857Y-118904761D01*
X165690476Y-118857142D01*
X165738095Y-118761904D01*
X165785714Y-118571428D01*
X165785714Y-118333333D01*
X165738095Y-118142857D01*
X165690476Y-118047619D01*
X165642857Y-118000000D01*
X165547619Y-117952380D01*
X164309523Y-117952380D02*
X164785714Y-117952380D01*
X164833333Y-118428571D01*
X164785714Y-118380952D01*
X164690476Y-118333333D01*
X164452380Y-118333333D01*
X164357142Y-118380952D01*
X164309523Y-118428571D01*
X164261904Y-118523809D01*
X164261904Y-118761904D01*
X164309523Y-118857142D01*
X164357142Y-118904761D01*
X164452380Y-118952380D01*
X164690476Y-118952380D01*
X164785714Y-118904761D01*
X164833333Y-118857142D01*
X182119047Y-117952380D02*
X182452380Y-117476190D01*
X182690476Y-117952380D02*
X182690476Y-116952380D01*
X182309523Y-116952380D01*
X182214285Y-117000000D01*
X182166666Y-117047619D01*
X182119047Y-117142857D01*
X182119047Y-117285714D01*
X182166666Y-117380952D01*
X182214285Y-117428571D01*
X182309523Y-117476190D01*
X182690476Y-117476190D01*
X181785714Y-116952380D02*
X181166666Y-116952380D01*
X181500000Y-117333333D01*
X181357142Y-117333333D01*
X181261904Y-117380952D01*
X181214285Y-117428571D01*
X181166666Y-117523809D01*
X181166666Y-117761904D01*
X181214285Y-117857142D01*
X181261904Y-117904761D01*
X181357142Y-117952380D01*
X181642857Y-117952380D01*
X181738095Y-117904761D01*
X181785714Y-117857142D01*
X180547619Y-116952380D02*
X180452380Y-116952380D01*
X180357142Y-117000000D01*
X180309523Y-117047619D01*
X180261904Y-117142857D01*
X180214285Y-117333333D01*
X180214285Y-117571428D01*
X180261904Y-117761904D01*
X180309523Y-117857142D01*
X180357142Y-117904761D01*
X180452380Y-117952380D01*
X180547619Y-117952380D01*
X180642857Y-117904761D01*
X180690476Y-117857142D01*
X180738095Y-117761904D01*
X180785714Y-117571428D01*
X180785714Y-117333333D01*
X180738095Y-117142857D01*
X180690476Y-117047619D01*
X180642857Y-117000000D01*
X180547619Y-116952380D01*
X179357142Y-116952380D02*
X179547619Y-116952380D01*
X179642857Y-117000000D01*
X179690476Y-117047619D01*
X179785714Y-117190476D01*
X179833333Y-117380952D01*
X179833333Y-117761904D01*
X179785714Y-117857142D01*
X179738095Y-117904761D01*
X179642857Y-117952380D01*
X179452380Y-117952380D01*
X179357142Y-117904761D01*
X179309523Y-117857142D01*
X179261904Y-117761904D01*
X179261904Y-117523809D01*
X179309523Y-117428571D01*
X179357142Y-117380952D01*
X179452380Y-117333333D01*
X179642857Y-117333333D01*
X179738095Y-117380952D01*
X179785714Y-117428571D01*
X179833333Y-117523809D01*
X148119047Y-51802380D02*
X148452380Y-51326190D01*
X148690476Y-51802380D02*
X148690476Y-50802380D01*
X148309523Y-50802380D01*
X148214285Y-50850000D01*
X148166666Y-50897619D01*
X148119047Y-50992857D01*
X148119047Y-51135714D01*
X148166666Y-51230952D01*
X148214285Y-51278571D01*
X148309523Y-51326190D01*
X148690476Y-51326190D01*
X147785714Y-50802380D02*
X147166666Y-50802380D01*
X147500000Y-51183333D01*
X147357142Y-51183333D01*
X147261904Y-51230952D01*
X147214285Y-51278571D01*
X147166666Y-51373809D01*
X147166666Y-51611904D01*
X147214285Y-51707142D01*
X147261904Y-51754761D01*
X147357142Y-51802380D01*
X147642857Y-51802380D01*
X147738095Y-51754761D01*
X147785714Y-51707142D01*
X146547619Y-50802380D02*
X146452380Y-50802380D01*
X146357142Y-50850000D01*
X146309523Y-50897619D01*
X146261904Y-50992857D01*
X146214285Y-51183333D01*
X146214285Y-51421428D01*
X146261904Y-51611904D01*
X146309523Y-51707142D01*
X146357142Y-51754761D01*
X146452380Y-51802380D01*
X146547619Y-51802380D01*
X146642857Y-51754761D01*
X146690476Y-51707142D01*
X146738095Y-51611904D01*
X146785714Y-51421428D01*
X146785714Y-51183333D01*
X146738095Y-50992857D01*
X146690476Y-50897619D01*
X146642857Y-50850000D01*
X146547619Y-50802380D01*
X145880952Y-50802380D02*
X145214285Y-50802380D01*
X145642857Y-51802380D01*
X165619047Y-60952380D02*
X165952380Y-60476190D01*
X166190476Y-60952380D02*
X166190476Y-59952380D01*
X165809523Y-59952380D01*
X165714285Y-60000000D01*
X165666666Y-60047619D01*
X165619047Y-60142857D01*
X165619047Y-60285714D01*
X165666666Y-60380952D01*
X165714285Y-60428571D01*
X165809523Y-60476190D01*
X166190476Y-60476190D01*
X165285714Y-59952380D02*
X164666666Y-59952380D01*
X165000000Y-60333333D01*
X164857142Y-60333333D01*
X164761904Y-60380952D01*
X164714285Y-60428571D01*
X164666666Y-60523809D01*
X164666666Y-60761904D01*
X164714285Y-60857142D01*
X164761904Y-60904761D01*
X164857142Y-60952380D01*
X165142857Y-60952380D01*
X165238095Y-60904761D01*
X165285714Y-60857142D01*
X164047619Y-59952380D02*
X163952380Y-59952380D01*
X163857142Y-60000000D01*
X163809523Y-60047619D01*
X163761904Y-60142857D01*
X163714285Y-60333333D01*
X163714285Y-60571428D01*
X163761904Y-60761904D01*
X163809523Y-60857142D01*
X163857142Y-60904761D01*
X163952380Y-60952380D01*
X164047619Y-60952380D01*
X164142857Y-60904761D01*
X164190476Y-60857142D01*
X164238095Y-60761904D01*
X164285714Y-60571428D01*
X164285714Y-60333333D01*
X164238095Y-60142857D01*
X164190476Y-60047619D01*
X164142857Y-60000000D01*
X164047619Y-59952380D01*
X163142857Y-60380952D02*
X163238095Y-60333333D01*
X163285714Y-60285714D01*
X163333333Y-60190476D01*
X163333333Y-60142857D01*
X163285714Y-60047619D01*
X163238095Y-60000000D01*
X163142857Y-59952380D01*
X162952380Y-59952380D01*
X162857142Y-60000000D01*
X162809523Y-60047619D01*
X162761904Y-60142857D01*
X162761904Y-60190476D01*
X162809523Y-60285714D01*
X162857142Y-60333333D01*
X162952380Y-60380952D01*
X163142857Y-60380952D01*
X163238095Y-60428571D01*
X163285714Y-60476190D01*
X163333333Y-60571428D01*
X163333333Y-60761904D01*
X163285714Y-60857142D01*
X163238095Y-60904761D01*
X163142857Y-60952380D01*
X162952380Y-60952380D01*
X162857142Y-60904761D01*
X162809523Y-60857142D01*
X162761904Y-60761904D01*
X162761904Y-60571428D01*
X162809523Y-60476190D01*
X162857142Y-60428571D01*
X162952380Y-60380952D01*
X184602380Y-57652952D02*
X184126190Y-57319619D01*
X184602380Y-57081523D02*
X183602380Y-57081523D01*
X183602380Y-57462476D01*
X183650000Y-57557714D01*
X183697619Y-57605333D01*
X183792857Y-57652952D01*
X183935714Y-57652952D01*
X184030952Y-57605333D01*
X184078571Y-57557714D01*
X184126190Y-57462476D01*
X184126190Y-57081523D01*
X183602380Y-57986285D02*
X183602380Y-58605333D01*
X183983333Y-58272000D01*
X183983333Y-58414857D01*
X184030952Y-58510095D01*
X184078571Y-58557714D01*
X184173809Y-58605333D01*
X184411904Y-58605333D01*
X184507142Y-58557714D01*
X184554761Y-58510095D01*
X184602380Y-58414857D01*
X184602380Y-58129142D01*
X184554761Y-58033904D01*
X184507142Y-57986285D01*
X183602380Y-59224380D02*
X183602380Y-59319619D01*
X183650000Y-59414857D01*
X183697619Y-59462476D01*
X183792857Y-59510095D01*
X183983333Y-59557714D01*
X184221428Y-59557714D01*
X184411904Y-59510095D01*
X184507142Y-59462476D01*
X184554761Y-59414857D01*
X184602380Y-59319619D01*
X184602380Y-59224380D01*
X184554761Y-59129142D01*
X184507142Y-59081523D01*
X184411904Y-59033904D01*
X184221428Y-58986285D01*
X183983333Y-58986285D01*
X183792857Y-59033904D01*
X183697619Y-59081523D01*
X183650000Y-59129142D01*
X183602380Y-59224380D01*
X184602380Y-60033904D02*
X184602380Y-60224380D01*
X184554761Y-60319619D01*
X184507142Y-60367238D01*
X184364285Y-60462476D01*
X184173809Y-60510095D01*
X183792857Y-60510095D01*
X183697619Y-60462476D01*
X183650000Y-60414857D01*
X183602380Y-60319619D01*
X183602380Y-60129142D01*
X183650000Y-60033904D01*
X183697619Y-59986285D01*
X183792857Y-59938666D01*
X184030952Y-59938666D01*
X184126190Y-59986285D01*
X184173809Y-60033904D01*
X184221428Y-60129142D01*
X184221428Y-60319619D01*
X184173809Y-60414857D01*
X184126190Y-60462476D01*
X184030952Y-60510095D01*
X82333333Y-104792857D02*
X82285714Y-104745238D01*
X82142857Y-104697619D01*
X82047619Y-104697619D01*
X81904761Y-104745238D01*
X81809523Y-104840476D01*
X81761904Y-104935714D01*
X81714285Y-105126190D01*
X81714285Y-105269047D01*
X81761904Y-105459523D01*
X81809523Y-105554761D01*
X81904761Y-105650000D01*
X82047619Y-105697619D01*
X82142857Y-105697619D01*
X82285714Y-105650000D01*
X82333333Y-105602380D01*
X83190476Y-105364285D02*
X83190476Y-104697619D01*
X82952380Y-105745238D02*
X82714285Y-105030952D01*
X83333333Y-105030952D01*
X84547619Y-80166666D02*
X85023809Y-80500000D01*
X84547619Y-80738095D02*
X85547619Y-80738095D01*
X85547619Y-80357142D01*
X85500000Y-80261904D01*
X85452380Y-80214285D01*
X85357142Y-80166666D01*
X85214285Y-80166666D01*
X85119047Y-80214285D01*
X85071428Y-80261904D01*
X85023809Y-80357142D01*
X85023809Y-80738095D01*
X85547619Y-79833333D02*
X85547619Y-79214285D01*
X85166666Y-79547619D01*
X85166666Y-79404761D01*
X85119047Y-79309523D01*
X85071428Y-79261904D01*
X84976190Y-79214285D01*
X84738095Y-79214285D01*
X84642857Y-79261904D01*
X84595238Y-79309523D01*
X84547619Y-79404761D01*
X84547619Y-79690476D01*
X84595238Y-79785714D01*
X84642857Y-79833333D01*
X84547619Y-74166666D02*
X85023809Y-74500000D01*
X84547619Y-74738095D02*
X85547619Y-74738095D01*
X85547619Y-74357142D01*
X85500000Y-74261904D01*
X85452380Y-74214285D01*
X85357142Y-74166666D01*
X85214285Y-74166666D01*
X85119047Y-74214285D01*
X85071428Y-74261904D01*
X85023809Y-74357142D01*
X85023809Y-74738095D01*
X85547619Y-73261904D02*
X85547619Y-73738095D01*
X85071428Y-73785714D01*
X85119047Y-73738095D01*
X85166666Y-73642857D01*
X85166666Y-73404761D01*
X85119047Y-73309523D01*
X85071428Y-73261904D01*
X84976190Y-73214285D01*
X84738095Y-73214285D01*
X84642857Y-73261904D01*
X84595238Y-73309523D01*
X84547619Y-73404761D01*
X84547619Y-73642857D01*
X84595238Y-73738095D01*
X84642857Y-73785714D01*
D16*
X71549185Y-99308929D02*
X72063958Y-98536769D01*
X72063958Y-99308929D02*
X71549185Y-98536769D01*
X72762579Y-98536769D02*
X72321345Y-98536769D01*
X72541962Y-98536769D02*
X72541962Y-99308929D01*
X72468423Y-99198620D01*
X72394884Y-99125081D01*
X72321345Y-99088312D01*
D13*
X85619047Y-97452380D02*
X85952380Y-96976190D01*
X86190476Y-97452380D02*
X86190476Y-96452380D01*
X85809523Y-96452380D01*
X85714285Y-96500000D01*
X85666666Y-96547619D01*
X85619047Y-96642857D01*
X85619047Y-96785714D01*
X85666666Y-96880952D01*
X85714285Y-96928571D01*
X85809523Y-96976190D01*
X86190476Y-96976190D01*
X84761904Y-96785714D02*
X84761904Y-97452380D01*
X85000000Y-96404761D02*
X85238095Y-97119047D01*
X84619047Y-97119047D01*
X84047619Y-96452380D02*
X83952380Y-96452380D01*
X83857142Y-96500000D01*
X83809523Y-96547619D01*
X83761904Y-96642857D01*
X83714285Y-96833333D01*
X83714285Y-97071428D01*
X83761904Y-97261904D01*
X83809523Y-97357142D01*
X83857142Y-97404761D01*
X83952380Y-97452380D01*
X84047619Y-97452380D01*
X84142857Y-97404761D01*
X84190476Y-97357142D01*
X84238095Y-97261904D01*
X84285714Y-97071428D01*
X84285714Y-96833333D01*
X84238095Y-96642857D01*
X84190476Y-96547619D01*
X84142857Y-96500000D01*
X84047619Y-96452380D01*
X82761904Y-97452380D02*
X83333333Y-97452380D01*
X83047619Y-97452380D02*
X83047619Y-96452380D01*
X83142857Y-96595238D01*
X83238095Y-96690476D01*
X83333333Y-96738095D01*
D15*
X178842364Y-56057452D02*
X178957269Y-56000000D01*
X179072174Y-55885095D01*
X179244531Y-55712738D01*
X179359436Y-55655285D01*
X179474340Y-55655285D01*
X179416888Y-55942547D02*
X179531793Y-55885095D01*
X179646698Y-55770190D01*
X179704150Y-55540380D01*
X179704150Y-55138214D01*
X179646698Y-54908404D01*
X179531793Y-54793500D01*
X179416888Y-54736047D01*
X179187079Y-54736047D01*
X179072174Y-54793500D01*
X178957269Y-54908404D01*
X178899817Y-55138214D01*
X178899817Y-55540380D01*
X178957269Y-55770190D01*
X179072174Y-55885095D01*
X179187079Y-55942547D01*
X179416888Y-55942547D01*
X178497650Y-54736047D02*
X177750769Y-54736047D01*
X178152936Y-55195666D01*
X177980579Y-55195666D01*
X177865674Y-55253119D01*
X177808221Y-55310571D01*
X177750769Y-55425476D01*
X177750769Y-55712738D01*
X177808221Y-55827642D01*
X177865674Y-55885095D01*
X177980579Y-55942547D01*
X178325293Y-55942547D01*
X178440198Y-55885095D01*
X178497650Y-55827642D01*
X177003888Y-54736047D02*
X176888983Y-54736047D01*
X176774079Y-54793500D01*
X176716626Y-54850952D01*
X176659174Y-54965857D01*
X176601721Y-55195666D01*
X176601721Y-55482928D01*
X176659174Y-55712738D01*
X176716626Y-55827642D01*
X176774079Y-55885095D01*
X176888983Y-55942547D01*
X177003888Y-55942547D01*
X177118793Y-55885095D01*
X177176245Y-55827642D01*
X177233698Y-55712738D01*
X177291150Y-55482928D01*
X177291150Y-55195666D01*
X177233698Y-54965857D01*
X177176245Y-54850952D01*
X177118793Y-54793500D01*
X177003888Y-54736047D01*
X175452674Y-55942547D02*
X176142102Y-55942547D01*
X175797388Y-55942547D02*
X175797388Y-54736047D01*
X175912293Y-54908404D01*
X176027198Y-55023309D01*
X176142102Y-55080761D01*
D13*
X34852380Y-59809523D02*
X33852380Y-59809523D01*
X33852380Y-60047619D01*
X33900000Y-60190476D01*
X33995238Y-60285714D01*
X34090476Y-60333333D01*
X34280952Y-60380952D01*
X34423809Y-60380952D01*
X34614285Y-60333333D01*
X34709523Y-60285714D01*
X34804761Y-60190476D01*
X34852380Y-60047619D01*
X34852380Y-59809523D01*
X34852380Y-61333333D02*
X34852380Y-60761904D01*
X34852380Y-61047619D02*
X33852380Y-61047619D01*
X33995238Y-60952380D01*
X34090476Y-60857142D01*
X34138095Y-60761904D01*
X33852380Y-61952380D02*
X33852380Y-62047619D01*
X33900000Y-62142857D01*
X33947619Y-62190476D01*
X34042857Y-62238095D01*
X34233333Y-62285714D01*
X34471428Y-62285714D01*
X34661904Y-62238095D01*
X34757142Y-62190476D01*
X34804761Y-62142857D01*
X34852380Y-62047619D01*
X34852380Y-61952380D01*
X34804761Y-61857142D01*
X34757142Y-61809523D01*
X34661904Y-61761904D01*
X34471428Y-61714285D01*
X34233333Y-61714285D01*
X34042857Y-61761904D01*
X33947619Y-61809523D01*
X33900000Y-61857142D01*
X33852380Y-61952380D01*
X34852380Y-63238095D02*
X34852380Y-62666666D01*
X34852380Y-62952380D02*
X33852380Y-62952380D01*
X33995238Y-62857142D01*
X34090476Y-62761904D01*
X34138095Y-62666666D01*
X43071428Y-54285714D02*
X43071428Y-54619047D01*
X42547619Y-54619047D02*
X43547619Y-54619047D01*
X43547619Y-54142857D01*
X42547619Y-53238095D02*
X42547619Y-53809523D01*
X42547619Y-53523809D02*
X43547619Y-53523809D01*
X43404761Y-53619047D01*
X43309523Y-53714285D01*
X43261904Y-53809523D01*
X43547619Y-52619047D02*
X43547619Y-52523809D01*
X43500000Y-52428571D01*
X43452380Y-52380952D01*
X43357142Y-52333333D01*
X43166666Y-52285714D01*
X42928571Y-52285714D01*
X42738095Y-52333333D01*
X42642857Y-52380952D01*
X42595238Y-52428571D01*
X42547619Y-52523809D01*
X42547619Y-52619047D01*
X42595238Y-52714285D01*
X42642857Y-52761904D01*
X42738095Y-52809523D01*
X42928571Y-52857142D01*
X43166666Y-52857142D01*
X43357142Y-52809523D01*
X43452380Y-52761904D01*
X43500000Y-52714285D01*
X43547619Y-52619047D01*
X42547619Y-51333333D02*
X42547619Y-51904761D01*
X42547619Y-51619047D02*
X43547619Y-51619047D01*
X43404761Y-51714285D01*
X43309523Y-51809523D01*
X43261904Y-51904761D01*
M02*
