M48
; DRILL file {KiCad (5.1.5)-3} date 7/17/2020 4:25:39 PM
; FORMAT={-:-/ absolute / metric / decimal}
; #@! TF.CreationDate,2020-07-17T16:25:39-04:00
; #@! TF.GenerationSoftware,Kicad,Pcbnew,(5.1.5)-3
FMAT,2
METRIC
T1C0.400
T2C0.600
T3C0.800
T4C1.000
T5C0.900
T6C1.000
T7C1.200
T8C2.000
%
G90
G05
T1
X32.15Y-51.0
X32.15Y-56.75
X32.15Y-61.75
X32.15Y-66.75
X32.15Y-71.75
X32.15Y-76.75
X32.15Y-81.75
X32.15Y-81.75
X32.15Y-86.75
X32.15Y-86.75
X32.15Y-91.75
X32.15Y-91.75
X32.15Y-96.75
X32.15Y-101.75
X32.15Y-106.75
X32.15Y-106.75
X32.15Y-111.75
X32.15Y-111.75
X32.15Y-116.75
X32.15Y-121.75
X32.85Y-125.45
X34.5Y-52.0
X34.7Y-90.3
X36.0Y-52.0
X36.0Y-55.0
X36.0Y-57.15
X36.0Y-60.0
X36.3Y-102.3
X36.45Y-128.8
X36.5Y-72.8
X36.65Y-47.4
X37.0Y-69.0
X37.15Y-111.75
X37.45Y-71.0
X37.55Y-96.8
X37.9Y-91.05
X38.15Y-76.75
X38.15Y-81.75
X38.15Y-86.75
X38.608Y-117.856
X39.1Y-108.85
X39.85Y-123.0
X39.95Y-128.5
X40.0Y-61.5
X40.0Y-68.0
X40.2Y-104.8
X40.9Y-46.4
X41.8Y-113.85
X42.85Y-63.5
X43.18Y-104.775
X43.18Y-108.585
X44.1Y-90.4
X44.15Y-76.75
X44.15Y-81.75
X44.15Y-86.75
X44.25Y-128.45
X44.45Y-57.8
X44.55Y-72.1
X44.9Y-91.6
X45.15Y-123.95
X45.5Y-61.95
X45.8Y-114.65
X45.95Y-67.5
X46.45Y-58.0
X49.15Y-118.6
X50.3Y-114.9
X51.5Y-46.45
X51.8Y-129.3
X52.9Y-127.5
X53.848Y-48.133
X54.65Y-125.6
X55.3Y-114.9
X55.3Y-119.9
X55.45Y-128.55
X60.3Y-114.9
X60.3Y-119.9
X60.3Y-124.9
X62.738Y-47.625
X65.3Y-114.9
X65.3Y-119.9
X65.3Y-124.9
X69.253Y-58.67
X69.9Y-126.8
X70.3Y-114.9
X70.3Y-119.9
X70.74Y-57.15
X72.75Y-92.25
X72.9Y-124.787
X73.0Y-99.75
X73.025Y-51.435
X73.75Y-75.5
X73.75Y-78.25
X73.75Y-80.75
X73.75Y-83.5
X73.75Y-87.0
X75.3Y-114.9
X75.3Y-119.9
X75.3Y-124.9
X75.5Y-96.75
X75.946Y-47.625
X77.25Y-79.25
X77.25Y-83.5
X77.5Y-88.25
X77.5Y-91.5
X78.75Y-99.75
X80.01Y-55.245
X80.3Y-114.9
X80.3Y-119.9
X80.3Y-124.9
X80.5Y-91.5
X80.75Y-83.5
X81.0Y-88.25
X81.5Y-57.5
X83.185Y-47.625
X83.185Y-49.53
X83.5Y-57.5
X83.5Y-95.0
X84.0Y-91.5
X84.5Y-82.5
X84.75Y-88.25
X85.3Y-114.9
X85.3Y-119.9
X85.3Y-124.9
X86.0Y-77.0
X86.36Y-49.53
X86.75Y-95.0
X88.0Y-91.5
X88.265Y-47.625
X88.75Y-77.0
X90.17Y-49.53
X90.3Y-114.9
X90.3Y-119.9
X90.3Y-124.9
X91.0Y-96.0
X91.5Y-89.25
X92.71Y-46.99
X92.71Y-48.895
X93.9Y-126.9
X94.25Y-99.5
X95.3Y-114.9
X96.5Y-48.895
X96.5Y-52.2
X96.52Y-46.99
X96.75Y-124.9
X97.9Y-123.0
X97.95Y-120.0
X99.75Y-97.5
X100.05Y-126.9
X101.5Y-52.2
X103.5Y-94.5
X105.75Y-94.25
X106.15Y-126.9
X106.35Y-52.2
X110.49Y-46.99
X110.9Y-126.95
X111.5Y-52.2
X113.8Y-50.8
X114.45Y-126.55
X114.5Y-96.25
X114.75Y-125.0
X116.078Y-50.165
X116.5Y-125.25
X116.7Y-52.2
X117.5Y-128.75
X118.3Y-125.25
X118.8Y-50.8
X120.015Y-50.292
X121.5Y-52.2
X121.75Y-123.0
X122.75Y-115.0
X122.75Y-129.0
X123.8Y-49.85
X124.8Y-111.7
X124.8Y-116.7
X126.5Y-52.2
X127.25Y-128.75
X127.75Y-50.25
X128.05Y-111.7
X128.05Y-116.7
X128.75Y-96.0
X131.5Y-52.2
X132.5Y-50.0
X133.858Y-118.491
X134.5Y-83.5
X135.0Y-129.25
X135.3Y-59.9
X135.3Y-64.9
X135.5Y-126.75
X136.5Y-52.2
X137.668Y-50.292
X137.9Y-57.3
X138.5Y-55.0
X139.1Y-54.1
X139.5Y-52.75
X140.3Y-59.9
X140.3Y-124.9
X140.302Y-50.767
X140.4Y-65.6
X141.25Y-125.75
X141.351Y-49.911
X141.5Y-58.75
X141.5Y-127.25
X141.85Y-123.25
X142.0Y-56.0
X142.5Y-129.5
X142.9Y-57.3
X143.8Y-49.85
X143.8Y-76.9
X144.7Y-89.9
X144.75Y-73.5
X144.75Y-117.5
X144.8Y-114.55
X145.05Y-56.1
X145.3Y-59.9
X145.3Y-64.9
X145.3Y-68.25
X145.5Y-70.0
X146.0Y-78.25
X146.15Y-106.2
X146.15Y-111.2
X146.5Y-122.75
X147.0Y-88.25
X147.75Y-122.75
X148.0Y-79.7
X148.0Y-84.7
X148.0Y-99.65
X148.4Y-102.15
X148.5Y-109.0
X148.8Y-49.85
X149.055Y-77.101
X149.5Y-110.0
X149.7Y-62.25
X149.7Y-67.25
X149.7Y-72.25
X150.25Y-112.5
X150.85Y-75.3
X150.85Y-78.8
X151.75Y-106.2
X151.765Y-49.85
X151.85Y-55.2
X152.0Y-94.45
X152.0Y-97.12
X152.0Y-109.0
X152.0Y-123.5
X152.25Y-111.25
X152.4Y-92.05
X152.75Y-80.3
X152.9Y-52.7
X152.9Y-83.95
X153.0Y-99.65
X153.25Y-112.75
X153.4Y-102.15
X153.5Y-75.45
X153.5Y-89.75
X153.67Y-50.165
X154.055Y-77.101
X154.25Y-124.5
X154.85Y-61.2
X154.85Y-66.2
X154.85Y-72.5
X154.94Y-53.5
X155.5Y-62.9
X156.15Y-106.2
X156.75Y-121.25
X156.8Y-69.1
X157.0Y-94.45
X157.25Y-123.75
X157.3Y-55.95
X157.48Y-49.53
X157.7Y-58.15
X157.75Y-80.3
X157.75Y-129.75
X157.85Y-83.85
X158.0Y-88.75
X158.0Y-99.65
X158.1Y-91.1
X158.25Y-51.25
X158.25Y-54.0
X158.4Y-102.15
X158.5Y-65.25
X158.5Y-72.5
X158.5Y-75.45
X159.055Y-77.101
X159.6Y-60.65
X159.75Y-123.5
X160.25Y-113.5
X160.45Y-93.45
X161.15Y-106.2
X161.15Y-111.2
X161.25Y-82.5
X161.29Y-49.53
X161.29Y-67.31
X161.925Y-50.8
X162.0Y-93.0
X162.0Y-101.5
X162.1Y-103.0
X162.1Y-121.75
X162.14Y-53.125
X162.35Y-83.8
X162.4Y-72.3
X162.5Y-117.5
X162.75Y-80.3
X163.0Y-113.0
X163.2Y-95.85
X163.5Y-75.45
X163.5Y-82.5
X163.6Y-98.4
X163.6Y-99.4
X163.6Y-100.4
X163.611Y-101.52
X163.775Y-94.5
X164.825Y-84.75
X164.9Y-50.65
X164.9Y-65.55
X165.2Y-105.4
X165.3Y-108.9
X165.347Y-60.775
X165.7Y-118.7
X165.9Y-55.8
X166.225Y-95.7
X166.25Y-114.5
X166.37Y-109.855
X166.37Y-111.125
X166.45Y-63.4
X166.5Y-107.5
X166.64Y-68.673
X166.925Y-76.1
X167.005Y-69.85
X167.005Y-71.12
X167.005Y-104.4
X167.2Y-100.65
X167.25Y-99.3
X167.4Y-95.7
X167.5Y-94.5
X167.513Y-103.073
X167.64Y-50.165
X167.75Y-52.4
X167.8Y-55.15
X168.275Y-104.4
X168.3Y-107.9
X168.605Y-103.149
X168.75Y-100.65
X168.8Y-99.3
X168.91Y-81.28
X168.91Y-88.9
X169.175Y-101.92
X169.25Y-57.5
X169.55Y-93.25
X169.642Y-86.898
X169.9Y-99.3
X170.18Y-74.93
X170.25Y-62.0
X170.4Y-121.3
X170.6Y-50.2
X170.7Y-95.0
X170.7Y-103.7
X170.905Y-85.725
X171.0Y-59.25
X171.2Y-99.3
X171.2Y-100.7
X171.247Y-91.846
X171.45Y-81.28
X171.6Y-103.0
X171.6Y-104.4
X171.8Y-95.0
X172.5Y-54.0
X172.85Y-125.65
X173.3Y-108.275
X173.445Y-111.76
X173.445Y-112.975
X173.558Y-110.439
X173.99Y-74.295
X173.99Y-95.885
X173.99Y-115.57
X174.45Y-108.7
X174.5Y-126.5
X174.625Y-80.01
X175.311Y-107.036
X175.5Y-77.5
X175.895Y-67.945
X175.895Y-71.12
X175.895Y-75.565
X175.895Y-97.79
X175.895Y-99.06
X175.95Y-81.5
X176.0Y-80.0
X176.53Y-64.77
X176.6Y-93.6
X176.62Y-68.652
X176.7Y-83.0
X177.0Y-125.5
X177.15Y-86.35
X177.165Y-114.845
X177.2Y-121.75
X177.25Y-89.5
X177.45Y-81.45
X178.435Y-107.315
X178.562Y-74.549
X179.0Y-112.0
X179.172Y-76.86
X179.5Y-57.75
X180.061Y-74.549
X180.65Y-78.2
X180.65Y-127.1
X180.8Y-55.5
X180.85Y-128.85
X180.975Y-110.6
X181.05Y-94.1
X181.1Y-117.35
X181.229Y-71.882
X181.61Y-107.95
X181.65Y-79.85
X181.864Y-125.73
X182.0Y-64.5
X182.245Y-111.76
X182.245Y-113.03
X182.285Y-114.26
X182.3Y-94.2
X182.35Y-50.2
X182.5Y-63.15
X182.88Y-76.2
X182.88Y-103.505
X183.85Y-94.0
X185.25Y-94.0
X185.3Y-125.15
X185.75Y-66.9
X185.75Y-81.65
X186.2Y-70.05
X186.69Y-116.205
T2
X60.9Y-47.8
X114.5Y-122.75
X119.0Y-113.0
X119.75Y-111.25
X120.25Y-115.25
X123.175Y-122.25
X126.75Y-111.25
X128.0Y-123.25
X133.25Y-125.5
X134.267Y-102.933
X134.3Y-90.2
X135.7Y-120.7
X144.0Y-129.5
X145.25Y-123.75
X147.0Y-55.6
X148.75Y-82.0
X149.5Y-57.0
X154.5Y-65.0
X158.5Y-60.25
X159.15Y-56.05
X163.0Y-123.75
X163.75Y-58.75
X167.25Y-127.0
X171.25Y-60.75
X172.212Y-71.323
X173.6Y-56.6
X173.89Y-119.75
X176.675Y-95.786
X179.5Y-56.5
T3
X46.111Y-54.5
X75.0Y-50.5
X131.948Y-102.848
X132.0Y-86.0
X37.2Y-115.91
X37.2Y-119.91
T4
X139.5Y-63.5
X173.99Y-60.325
X173.99Y-62.865
X176.53Y-60.325
X176.53Y-62.865
X179.07Y-60.325
X179.07Y-62.865
X138.33Y-116.23
X140.87Y-67.97
X168.91Y-109.855
X168.91Y-112.395
X168.91Y-114.935
X171.45Y-109.855
X171.45Y-112.395
X171.45Y-114.935
T5
X147.5Y-127.75
X150.5Y-127.75
T6
X50.001Y-54.361
X50.001Y-109.951
X134.001Y-54.361
X134.001Y-109.951
T7
X53.74Y-52.548
X69.74Y-52.548
T8
X100.18Y-50.5
T0
M30
