G04 #@! TF.GenerationSoftware,KiCad,Pcbnew,(5.1.5)-3*
G04 #@! TF.CreationDate,2020-06-29T02:19:28-04:00*
G04 #@! TF.ProjectId,PowerBoth,506f7765-7242-46f7-9468-2e6b69636164,rev?*
G04 #@! TF.SameCoordinates,Original*
G04 #@! TF.FileFunction,Copper,L1,Top*
G04 #@! TF.FilePolarity,Positive*
%FSLAX46Y46*%
G04 Gerber Fmt 4.6, Leading zero omitted, Abs format (unit mm)*
G04 Created by KiCad (PCBNEW (5.1.5)-3) date 2020-06-29 02:19:28*
%MOMM*%
%LPD*%
G04 APERTURE LIST*
%ADD10C,0.100000*%
%ADD11C,0.908000*%
%ADD12O,1.500000X2.300000*%
%ADD13O,1.200000X2.300000*%
%ADD14C,1.200000*%
%ADD15R,1.200000X1.200000*%
%ADD16R,1.654900X0.582600*%
%ADD17R,2.200000X0.600000*%
%ADD18R,2.570000X1.650000*%
%ADD19R,1.803000X1.600000*%
%ADD20R,1.600000X1.800000*%
%ADD21C,1.000000*%
%ADD22C,0.752400*%
%ADD23C,0.600000*%
%ADD24C,2.000000*%
%ADD25C,1.500000*%
%ADD26C,0.800000*%
%ADD27C,0.400000*%
%ADD28C,2.000000*%
%ADD29C,0.500000*%
%ADD30C,0.250000*%
%ADD31C,1.000000*%
%ADD32C,1.500000*%
%ADD33C,0.050000*%
%ADD34C,0.254000*%
G04 APERTURE END LIST*
G04 #@! TA.AperFunction,SMDPad,CuDef*
D10*
G36*
X250874505Y-128801204D02*
G01*
X250898773Y-128804804D01*
X250922572Y-128810765D01*
X250945671Y-128819030D01*
X250967850Y-128829520D01*
X250988893Y-128842132D01*
X251008599Y-128856747D01*
X251026777Y-128873223D01*
X251043253Y-128891401D01*
X251057868Y-128911107D01*
X251070480Y-128932150D01*
X251080970Y-128954329D01*
X251089235Y-128977428D01*
X251095196Y-129001227D01*
X251098796Y-129025495D01*
X251100000Y-129049999D01*
X251100000Y-129950001D01*
X251098796Y-129974505D01*
X251095196Y-129998773D01*
X251089235Y-130022572D01*
X251080970Y-130045671D01*
X251070480Y-130067850D01*
X251057868Y-130088893D01*
X251043253Y-130108599D01*
X251026777Y-130126777D01*
X251008599Y-130143253D01*
X250988893Y-130157868D01*
X250967850Y-130170480D01*
X250945671Y-130180970D01*
X250922572Y-130189235D01*
X250898773Y-130195196D01*
X250874505Y-130198796D01*
X250850001Y-130200000D01*
X250199999Y-130200000D01*
X250175495Y-130198796D01*
X250151227Y-130195196D01*
X250127428Y-130189235D01*
X250104329Y-130180970D01*
X250082150Y-130170480D01*
X250061107Y-130157868D01*
X250041401Y-130143253D01*
X250023223Y-130126777D01*
X250006747Y-130108599D01*
X249992132Y-130088893D01*
X249979520Y-130067850D01*
X249969030Y-130045671D01*
X249960765Y-130022572D01*
X249954804Y-129998773D01*
X249951204Y-129974505D01*
X249950000Y-129950001D01*
X249950000Y-129049999D01*
X249951204Y-129025495D01*
X249954804Y-129001227D01*
X249960765Y-128977428D01*
X249969030Y-128954329D01*
X249979520Y-128932150D01*
X249992132Y-128911107D01*
X250006747Y-128891401D01*
X250023223Y-128873223D01*
X250041401Y-128856747D01*
X250061107Y-128842132D01*
X250082150Y-128829520D01*
X250104329Y-128819030D01*
X250127428Y-128810765D01*
X250151227Y-128804804D01*
X250175495Y-128801204D01*
X250199999Y-128800000D01*
X250850001Y-128800000D01*
X250874505Y-128801204D01*
G37*
G04 #@! TD.AperFunction*
G04 #@! TA.AperFunction,SMDPad,CuDef*
G36*
X248824505Y-128801204D02*
G01*
X248848773Y-128804804D01*
X248872572Y-128810765D01*
X248895671Y-128819030D01*
X248917850Y-128829520D01*
X248938893Y-128842132D01*
X248958599Y-128856747D01*
X248976777Y-128873223D01*
X248993253Y-128891401D01*
X249007868Y-128911107D01*
X249020480Y-128932150D01*
X249030970Y-128954329D01*
X249039235Y-128977428D01*
X249045196Y-129001227D01*
X249048796Y-129025495D01*
X249050000Y-129049999D01*
X249050000Y-129950001D01*
X249048796Y-129974505D01*
X249045196Y-129998773D01*
X249039235Y-130022572D01*
X249030970Y-130045671D01*
X249020480Y-130067850D01*
X249007868Y-130088893D01*
X248993253Y-130108599D01*
X248976777Y-130126777D01*
X248958599Y-130143253D01*
X248938893Y-130157868D01*
X248917850Y-130170480D01*
X248895671Y-130180970D01*
X248872572Y-130189235D01*
X248848773Y-130195196D01*
X248824505Y-130198796D01*
X248800001Y-130200000D01*
X248149999Y-130200000D01*
X248125495Y-130198796D01*
X248101227Y-130195196D01*
X248077428Y-130189235D01*
X248054329Y-130180970D01*
X248032150Y-130170480D01*
X248011107Y-130157868D01*
X247991401Y-130143253D01*
X247973223Y-130126777D01*
X247956747Y-130108599D01*
X247942132Y-130088893D01*
X247929520Y-130067850D01*
X247919030Y-130045671D01*
X247910765Y-130022572D01*
X247904804Y-129998773D01*
X247901204Y-129974505D01*
X247900000Y-129950001D01*
X247900000Y-129049999D01*
X247901204Y-129025495D01*
X247904804Y-129001227D01*
X247910765Y-128977428D01*
X247919030Y-128954329D01*
X247929520Y-128932150D01*
X247942132Y-128911107D01*
X247956747Y-128891401D01*
X247973223Y-128873223D01*
X247991401Y-128856747D01*
X248011107Y-128842132D01*
X248032150Y-128829520D01*
X248054329Y-128819030D01*
X248077428Y-128810765D01*
X248101227Y-128804804D01*
X248125495Y-128801204D01*
X248149999Y-128800000D01*
X248800001Y-128800000D01*
X248824505Y-128801204D01*
G37*
G04 #@! TD.AperFunction*
D11*
X157750000Y-124750000D03*
X158650000Y-125650000D03*
X158650000Y-123850000D03*
X156850000Y-123850000D03*
X156850000Y-125650000D03*
D12*
X262700125Y-135451399D03*
X257500125Y-135451399D03*
X254100125Y-135451399D03*
D13*
X253700125Y-142751399D03*
X263600125Y-142751399D03*
D14*
X267836415Y-132718709D03*
X267836415Y-134718709D03*
X267836415Y-136718709D03*
X267836415Y-138718709D03*
D15*
X267836415Y-140718709D03*
D16*
X240478775Y-125856399D03*
X240478775Y-124586399D03*
X240478775Y-123316399D03*
X240478775Y-122046399D03*
X246121475Y-122046399D03*
X246121475Y-123316399D03*
X246121475Y-124586399D03*
X246121475Y-125856399D03*
D17*
X240700125Y-127546399D03*
X240700125Y-128816399D03*
X240700125Y-131356399D03*
X245900125Y-127546399D03*
X245900125Y-128816399D03*
X245900125Y-131356399D03*
X240700125Y-130086399D03*
X245900125Y-130086399D03*
D18*
X254340000Y-131250000D03*
X257860000Y-131250000D03*
X232540125Y-130201399D03*
X236060125Y-130201399D03*
D19*
X237800125Y-122529399D03*
X237800125Y-125373399D03*
X249500000Y-121929399D03*
X249500000Y-124773399D03*
G04 #@! TA.AperFunction,SMDPad,CuDef*
D10*
G36*
X253474505Y-123976204D02*
G01*
X253498773Y-123979804D01*
X253522572Y-123985765D01*
X253545671Y-123994030D01*
X253567850Y-124004520D01*
X253588893Y-124017132D01*
X253608599Y-124031747D01*
X253626777Y-124048223D01*
X253643253Y-124066401D01*
X253657868Y-124086107D01*
X253670480Y-124107150D01*
X253680970Y-124129329D01*
X253689235Y-124152428D01*
X253695196Y-124176227D01*
X253698796Y-124200495D01*
X253700000Y-124224999D01*
X253700000Y-124875001D01*
X253698796Y-124899505D01*
X253695196Y-124923773D01*
X253689235Y-124947572D01*
X253680970Y-124970671D01*
X253670480Y-124992850D01*
X253657868Y-125013893D01*
X253643253Y-125033599D01*
X253626777Y-125051777D01*
X253608599Y-125068253D01*
X253588893Y-125082868D01*
X253567850Y-125095480D01*
X253545671Y-125105970D01*
X253522572Y-125114235D01*
X253498773Y-125120196D01*
X253474505Y-125123796D01*
X253450001Y-125125000D01*
X252549999Y-125125000D01*
X252525495Y-125123796D01*
X252501227Y-125120196D01*
X252477428Y-125114235D01*
X252454329Y-125105970D01*
X252432150Y-125095480D01*
X252411107Y-125082868D01*
X252391401Y-125068253D01*
X252373223Y-125051777D01*
X252356747Y-125033599D01*
X252342132Y-125013893D01*
X252329520Y-124992850D01*
X252319030Y-124970671D01*
X252310765Y-124947572D01*
X252304804Y-124923773D01*
X252301204Y-124899505D01*
X252300000Y-124875001D01*
X252300000Y-124224999D01*
X252301204Y-124200495D01*
X252304804Y-124176227D01*
X252310765Y-124152428D01*
X252319030Y-124129329D01*
X252329520Y-124107150D01*
X252342132Y-124086107D01*
X252356747Y-124066401D01*
X252373223Y-124048223D01*
X252391401Y-124031747D01*
X252411107Y-124017132D01*
X252432150Y-124004520D01*
X252454329Y-123994030D01*
X252477428Y-123985765D01*
X252501227Y-123979804D01*
X252525495Y-123976204D01*
X252549999Y-123975000D01*
X253450001Y-123975000D01*
X253474505Y-123976204D01*
G37*
G04 #@! TD.AperFunction*
G04 #@! TA.AperFunction,SMDPad,CuDef*
G36*
X253474505Y-121926204D02*
G01*
X253498773Y-121929804D01*
X253522572Y-121935765D01*
X253545671Y-121944030D01*
X253567850Y-121954520D01*
X253588893Y-121967132D01*
X253608599Y-121981747D01*
X253626777Y-121998223D01*
X253643253Y-122016401D01*
X253657868Y-122036107D01*
X253670480Y-122057150D01*
X253680970Y-122079329D01*
X253689235Y-122102428D01*
X253695196Y-122126227D01*
X253698796Y-122150495D01*
X253700000Y-122174999D01*
X253700000Y-122825001D01*
X253698796Y-122849505D01*
X253695196Y-122873773D01*
X253689235Y-122897572D01*
X253680970Y-122920671D01*
X253670480Y-122942850D01*
X253657868Y-122963893D01*
X253643253Y-122983599D01*
X253626777Y-123001777D01*
X253608599Y-123018253D01*
X253588893Y-123032868D01*
X253567850Y-123045480D01*
X253545671Y-123055970D01*
X253522572Y-123064235D01*
X253498773Y-123070196D01*
X253474505Y-123073796D01*
X253450001Y-123075000D01*
X252549999Y-123075000D01*
X252525495Y-123073796D01*
X252501227Y-123070196D01*
X252477428Y-123064235D01*
X252454329Y-123055970D01*
X252432150Y-123045480D01*
X252411107Y-123032868D01*
X252391401Y-123018253D01*
X252373223Y-123001777D01*
X252356747Y-122983599D01*
X252342132Y-122963893D01*
X252329520Y-122942850D01*
X252319030Y-122920671D01*
X252310765Y-122897572D01*
X252304804Y-122873773D01*
X252301204Y-122849505D01*
X252300000Y-122825001D01*
X252300000Y-122174999D01*
X252301204Y-122150495D01*
X252304804Y-122126227D01*
X252310765Y-122102428D01*
X252319030Y-122079329D01*
X252329520Y-122057150D01*
X252342132Y-122036107D01*
X252356747Y-122016401D01*
X252373223Y-121998223D01*
X252391401Y-121981747D01*
X252411107Y-121967132D01*
X252432150Y-121954520D01*
X252454329Y-121944030D01*
X252477428Y-121935765D01*
X252501227Y-121929804D01*
X252525495Y-121926204D01*
X252549999Y-121925000D01*
X253450001Y-121925000D01*
X253474505Y-121926204D01*
G37*
G04 #@! TD.AperFunction*
G04 #@! TA.AperFunction,SMDPad,CuDef*
G36*
X248735904Y-126276144D02*
G01*
X248758959Y-126279563D01*
X248781568Y-126285227D01*
X248803512Y-126293079D01*
X248824582Y-126303044D01*
X248844573Y-126315026D01*
X248863293Y-126328910D01*
X248880563Y-126344562D01*
X248896215Y-126361832D01*
X248910099Y-126380552D01*
X248922081Y-126400543D01*
X248932046Y-126421613D01*
X248939898Y-126443557D01*
X248945562Y-126466166D01*
X248948981Y-126489221D01*
X248950125Y-126512500D01*
X248950125Y-126987500D01*
X248948981Y-127010779D01*
X248945562Y-127033834D01*
X248939898Y-127056443D01*
X248932046Y-127078387D01*
X248922081Y-127099457D01*
X248910099Y-127119448D01*
X248896215Y-127138168D01*
X248880563Y-127155438D01*
X248863293Y-127171090D01*
X248844573Y-127184974D01*
X248824582Y-127196956D01*
X248803512Y-127206921D01*
X248781568Y-127214773D01*
X248758959Y-127220437D01*
X248735904Y-127223856D01*
X248712625Y-127225000D01*
X248137625Y-127225000D01*
X248114346Y-127223856D01*
X248091291Y-127220437D01*
X248068682Y-127214773D01*
X248046738Y-127206921D01*
X248025668Y-127196956D01*
X248005677Y-127184974D01*
X247986957Y-127171090D01*
X247969687Y-127155438D01*
X247954035Y-127138168D01*
X247940151Y-127119448D01*
X247928169Y-127099457D01*
X247918204Y-127078387D01*
X247910352Y-127056443D01*
X247904688Y-127033834D01*
X247901269Y-127010779D01*
X247900125Y-126987500D01*
X247900125Y-126512500D01*
X247901269Y-126489221D01*
X247904688Y-126466166D01*
X247910352Y-126443557D01*
X247918204Y-126421613D01*
X247928169Y-126400543D01*
X247940151Y-126380552D01*
X247954035Y-126361832D01*
X247969687Y-126344562D01*
X247986957Y-126328910D01*
X248005677Y-126315026D01*
X248025668Y-126303044D01*
X248046738Y-126293079D01*
X248068682Y-126285227D01*
X248091291Y-126279563D01*
X248114346Y-126276144D01*
X248137625Y-126275000D01*
X248712625Y-126275000D01*
X248735904Y-126276144D01*
G37*
G04 #@! TD.AperFunction*
G04 #@! TA.AperFunction,SMDPad,CuDef*
G36*
X250485904Y-126276144D02*
G01*
X250508959Y-126279563D01*
X250531568Y-126285227D01*
X250553512Y-126293079D01*
X250574582Y-126303044D01*
X250594573Y-126315026D01*
X250613293Y-126328910D01*
X250630563Y-126344562D01*
X250646215Y-126361832D01*
X250660099Y-126380552D01*
X250672081Y-126400543D01*
X250682046Y-126421613D01*
X250689898Y-126443557D01*
X250695562Y-126466166D01*
X250698981Y-126489221D01*
X250700125Y-126512500D01*
X250700125Y-126987500D01*
X250698981Y-127010779D01*
X250695562Y-127033834D01*
X250689898Y-127056443D01*
X250682046Y-127078387D01*
X250672081Y-127099457D01*
X250660099Y-127119448D01*
X250646215Y-127138168D01*
X250630563Y-127155438D01*
X250613293Y-127171090D01*
X250594573Y-127184974D01*
X250574582Y-127196956D01*
X250553512Y-127206921D01*
X250531568Y-127214773D01*
X250508959Y-127220437D01*
X250485904Y-127223856D01*
X250462625Y-127225000D01*
X249887625Y-127225000D01*
X249864346Y-127223856D01*
X249841291Y-127220437D01*
X249818682Y-127214773D01*
X249796738Y-127206921D01*
X249775668Y-127196956D01*
X249755677Y-127184974D01*
X249736957Y-127171090D01*
X249719687Y-127155438D01*
X249704035Y-127138168D01*
X249690151Y-127119448D01*
X249678169Y-127099457D01*
X249668204Y-127078387D01*
X249660352Y-127056443D01*
X249654688Y-127033834D01*
X249651269Y-127010779D01*
X249650125Y-126987500D01*
X249650125Y-126512500D01*
X249651269Y-126489221D01*
X249654688Y-126466166D01*
X249660352Y-126443557D01*
X249668204Y-126421613D01*
X249678169Y-126400543D01*
X249690151Y-126380552D01*
X249704035Y-126361832D01*
X249719687Y-126344562D01*
X249736957Y-126328910D01*
X249755677Y-126315026D01*
X249775668Y-126303044D01*
X249796738Y-126293079D01*
X249818682Y-126285227D01*
X249841291Y-126279563D01*
X249864346Y-126276144D01*
X249887625Y-126275000D01*
X250462625Y-126275000D01*
X250485904Y-126276144D01*
G37*
G04 #@! TD.AperFunction*
G04 #@! TA.AperFunction,SMDPad,CuDef*
G36*
X163724505Y-125701204D02*
G01*
X163748773Y-125704804D01*
X163772572Y-125710765D01*
X163795671Y-125719030D01*
X163817850Y-125729520D01*
X163838893Y-125742132D01*
X163858599Y-125756747D01*
X163876777Y-125773223D01*
X163893253Y-125791401D01*
X163907868Y-125811107D01*
X163920480Y-125832150D01*
X163930970Y-125854329D01*
X163939235Y-125877428D01*
X163945196Y-125901227D01*
X163948796Y-125925495D01*
X163950000Y-125949999D01*
X163950000Y-126600001D01*
X163948796Y-126624505D01*
X163945196Y-126648773D01*
X163939235Y-126672572D01*
X163930970Y-126695671D01*
X163920480Y-126717850D01*
X163907868Y-126738893D01*
X163893253Y-126758599D01*
X163876777Y-126776777D01*
X163858599Y-126793253D01*
X163838893Y-126807868D01*
X163817850Y-126820480D01*
X163795671Y-126830970D01*
X163772572Y-126839235D01*
X163748773Y-126845196D01*
X163724505Y-126848796D01*
X163700001Y-126850000D01*
X162799999Y-126850000D01*
X162775495Y-126848796D01*
X162751227Y-126845196D01*
X162727428Y-126839235D01*
X162704329Y-126830970D01*
X162682150Y-126820480D01*
X162661107Y-126807868D01*
X162641401Y-126793253D01*
X162623223Y-126776777D01*
X162606747Y-126758599D01*
X162592132Y-126738893D01*
X162579520Y-126717850D01*
X162569030Y-126695671D01*
X162560765Y-126672572D01*
X162554804Y-126648773D01*
X162551204Y-126624505D01*
X162550000Y-126600001D01*
X162550000Y-125949999D01*
X162551204Y-125925495D01*
X162554804Y-125901227D01*
X162560765Y-125877428D01*
X162569030Y-125854329D01*
X162579520Y-125832150D01*
X162592132Y-125811107D01*
X162606747Y-125791401D01*
X162623223Y-125773223D01*
X162641401Y-125756747D01*
X162661107Y-125742132D01*
X162682150Y-125729520D01*
X162704329Y-125719030D01*
X162727428Y-125710765D01*
X162751227Y-125704804D01*
X162775495Y-125701204D01*
X162799999Y-125700000D01*
X163700001Y-125700000D01*
X163724505Y-125701204D01*
G37*
G04 #@! TD.AperFunction*
G04 #@! TA.AperFunction,SMDPad,CuDef*
G36*
X163724505Y-123651204D02*
G01*
X163748773Y-123654804D01*
X163772572Y-123660765D01*
X163795671Y-123669030D01*
X163817850Y-123679520D01*
X163838893Y-123692132D01*
X163858599Y-123706747D01*
X163876777Y-123723223D01*
X163893253Y-123741401D01*
X163907868Y-123761107D01*
X163920480Y-123782150D01*
X163930970Y-123804329D01*
X163939235Y-123827428D01*
X163945196Y-123851227D01*
X163948796Y-123875495D01*
X163950000Y-123899999D01*
X163950000Y-124550001D01*
X163948796Y-124574505D01*
X163945196Y-124598773D01*
X163939235Y-124622572D01*
X163930970Y-124645671D01*
X163920480Y-124667850D01*
X163907868Y-124688893D01*
X163893253Y-124708599D01*
X163876777Y-124726777D01*
X163858599Y-124743253D01*
X163838893Y-124757868D01*
X163817850Y-124770480D01*
X163795671Y-124780970D01*
X163772572Y-124789235D01*
X163748773Y-124795196D01*
X163724505Y-124798796D01*
X163700001Y-124800000D01*
X162799999Y-124800000D01*
X162775495Y-124798796D01*
X162751227Y-124795196D01*
X162727428Y-124789235D01*
X162704329Y-124780970D01*
X162682150Y-124770480D01*
X162661107Y-124757868D01*
X162641401Y-124743253D01*
X162623223Y-124726777D01*
X162606747Y-124708599D01*
X162592132Y-124688893D01*
X162579520Y-124667850D01*
X162569030Y-124645671D01*
X162560765Y-124622572D01*
X162554804Y-124598773D01*
X162551204Y-124574505D01*
X162550000Y-124550001D01*
X162550000Y-123899999D01*
X162551204Y-123875495D01*
X162554804Y-123851227D01*
X162560765Y-123827428D01*
X162569030Y-123804329D01*
X162579520Y-123782150D01*
X162592132Y-123761107D01*
X162606747Y-123741401D01*
X162623223Y-123723223D01*
X162641401Y-123706747D01*
X162661107Y-123692132D01*
X162682150Y-123679520D01*
X162704329Y-123669030D01*
X162727428Y-123660765D01*
X162751227Y-123654804D01*
X162775495Y-123651204D01*
X162799999Y-123650000D01*
X163700001Y-123650000D01*
X163724505Y-123651204D01*
G37*
G04 #@! TD.AperFunction*
D18*
X168490000Y-139000000D03*
X172010000Y-139000000D03*
D17*
X168100000Y-134135000D03*
X162900000Y-134135000D03*
X168100000Y-135405000D03*
X168100000Y-132865000D03*
X168100000Y-131595000D03*
X162900000Y-135405000D03*
X162900000Y-132865000D03*
X162900000Y-131595000D03*
D20*
X170900000Y-128750000D03*
X168100000Y-128750000D03*
D21*
X157750000Y-135750000D03*
X157750000Y-134500000D03*
D22*
X264300125Y-121551399D03*
X265300125Y-121551399D03*
X266300125Y-122551399D03*
X259300125Y-121551399D03*
X260300125Y-121551399D03*
X261300125Y-121551399D03*
X262300125Y-121551399D03*
X263300125Y-121551399D03*
X263300125Y-122551399D03*
X262300125Y-122551399D03*
X261300125Y-122551399D03*
X260300125Y-122551399D03*
X259300125Y-122551399D03*
X266300125Y-121551399D03*
X264300125Y-122551399D03*
X265300125Y-122551399D03*
X148599560Y-144587931D03*
X162599560Y-144587931D03*
X155099560Y-144587931D03*
X139599560Y-128087931D03*
X135599560Y-128087931D03*
X143099560Y-128087931D03*
X147498680Y-135486532D03*
X145099560Y-134587931D03*
X142099560Y-134587931D03*
X142099560Y-131087931D03*
X139099560Y-131087931D03*
X139099560Y-134587931D03*
X247700000Y-122200000D03*
X236500000Y-128000000D03*
X235750000Y-122250000D03*
X250250000Y-131000000D03*
X228100000Y-125000000D03*
X208500000Y-131000000D03*
D23*
X157500000Y-121754510D03*
X160750000Y-123750000D03*
D21*
X157750000Y-133250000D03*
X157750000Y-132000000D03*
X157750000Y-130500000D03*
D23*
X162500000Y-130250000D03*
X163500000Y-130250000D03*
X162500000Y-129500000D03*
X163500000Y-129500000D03*
D22*
X210600000Y-131000000D03*
X213000000Y-131000000D03*
X214500000Y-131000000D03*
X214250000Y-126750000D03*
X212500000Y-128250000D03*
X221000000Y-131000000D03*
X222500000Y-131000000D03*
X213100000Y-129750000D03*
X221250000Y-129750000D03*
X211000000Y-129750000D03*
X224250000Y-128000000D03*
X222500000Y-128000000D03*
X221250000Y-128000000D03*
X214350000Y-128000000D03*
X208250000Y-125500000D03*
X209750000Y-125500000D03*
X203750000Y-125500000D03*
X205850000Y-125500000D03*
X197850000Y-125500000D03*
X195750000Y-125500000D03*
X200250000Y-125500000D03*
X201750000Y-125500000D03*
X197850000Y-127000000D03*
X200250000Y-127000000D03*
X201750000Y-127000000D03*
X195750000Y-127000000D03*
X209500000Y-127000000D03*
X203500000Y-127000000D03*
X205600000Y-127000000D03*
X208000000Y-127000000D03*
X192750000Y-125250000D03*
X194250000Y-125500000D03*
X190350000Y-125250000D03*
X188250000Y-125250000D03*
X194750000Y-128500000D03*
X200750000Y-128500000D03*
X196250000Y-128500000D03*
X198350000Y-128500000D03*
X202250000Y-128500000D03*
X202250000Y-129750000D03*
X200750000Y-129750000D03*
X196250000Y-129750000D03*
X198350000Y-129750000D03*
X194750000Y-129750000D03*
X151649560Y-140587931D03*
X152649560Y-140587931D03*
X153649560Y-140587931D03*
X154649560Y-140587931D03*
X155649560Y-140587931D03*
X156649560Y-140587931D03*
X157649560Y-140587931D03*
X158649560Y-140587931D03*
X159649560Y-140587931D03*
X150500000Y-140587931D03*
X238200125Y-131250000D03*
X239100000Y-129350000D03*
X242400000Y-131250000D03*
X242800125Y-130451399D03*
X242800125Y-129451399D03*
X242800125Y-128451399D03*
X242800125Y-127451399D03*
X243100000Y-124100000D03*
X232550125Y-122001399D03*
X233600125Y-122001399D03*
X232550125Y-123051399D03*
X231500125Y-122001399D03*
X231500125Y-123051399D03*
X233600125Y-123051399D03*
D24*
X243000000Y-122496787D03*
D25*
X231500000Y-124998000D03*
D21*
X166500000Y-122500000D03*
X155250000Y-122250000D03*
D23*
X164750000Y-136250000D03*
D26*
X183250000Y-129000000D03*
D25*
X189000000Y-132250000D03*
D21*
X233299996Y-127100000D03*
D23*
X170750000Y-124552000D03*
D26*
X162250000Y-140000000D03*
X162000000Y-123777010D03*
X164000000Y-140000000D03*
D23*
X167500000Y-125250000D03*
D26*
X231500000Y-126652010D03*
X169500000Y-142750000D03*
D23*
X166097990Y-136034475D03*
D21*
X161000000Y-131500000D03*
X161000000Y-132750000D03*
X161000000Y-134000000D03*
X161000000Y-135250000D03*
X173750000Y-138750000D03*
X173750000Y-139750000D03*
X173750000Y-140750000D03*
X172750000Y-141000000D03*
X171750000Y-141000000D03*
X174750000Y-140750000D03*
X174750000Y-139750000D03*
X174750000Y-138750000D03*
D27*
X249383000Y-122046399D02*
X249500000Y-121929399D01*
D28*
X166250000Y-142000000D02*
X154750000Y-142000000D01*
X168100000Y-140150000D02*
X166250000Y-142000000D01*
X168100000Y-140150000D02*
X168100000Y-135405000D01*
X257860000Y-130310000D02*
X252500000Y-124950000D01*
X257860000Y-131250000D02*
X257860000Y-130310000D01*
D29*
X249100125Y-124773399D02*
X249422125Y-124773399D01*
X249422125Y-124773399D02*
X250100125Y-125451399D01*
X250100125Y-125451399D02*
X250100125Y-126301399D01*
X250100125Y-126301399D02*
X250150125Y-126351399D01*
X246121475Y-125856399D02*
X247205125Y-125856399D01*
X247205125Y-125856399D02*
X247800125Y-126451399D01*
X247800125Y-126451399D02*
X248350125Y-126451399D01*
X248350125Y-126451399D02*
X248450125Y-126351399D01*
X240700125Y-127546399D02*
X242705125Y-127546399D01*
X242705125Y-127546399D02*
X242800125Y-127451399D01*
X242800125Y-128451399D02*
X242800125Y-127451399D01*
X242800125Y-128451399D02*
X242800125Y-129451399D01*
X242800125Y-129451399D02*
X242800125Y-130451399D01*
D27*
X240478775Y-125856399D02*
X241895125Y-125856399D01*
D30*
X243100000Y-124632027D02*
X243100000Y-124100000D01*
X241895125Y-125856399D02*
X243100000Y-124651524D01*
X243100000Y-124651524D02*
X243100000Y-124632027D01*
D29*
X240478775Y-124586399D02*
X239165125Y-124586399D01*
X239165125Y-124586399D02*
X238300125Y-125451399D01*
X238300125Y-125451399D02*
X237878125Y-125451399D01*
X237878125Y-125451399D02*
X237800125Y-125373399D01*
D30*
X245805125Y-127451399D02*
X245900125Y-127546399D01*
X245042024Y-123318400D02*
X245044025Y-123316399D01*
X245044025Y-123316399D02*
X246121475Y-123316399D01*
X245042024Y-127488298D02*
X245042024Y-123318400D01*
X245100125Y-127546399D02*
X245042024Y-127488298D01*
X245900125Y-127546399D02*
X245100125Y-127546399D01*
D29*
X237800125Y-122529399D02*
X238529399Y-122529399D01*
X239151325Y-123316399D02*
X240478775Y-123316399D01*
X238529399Y-122694473D02*
X239151325Y-123316399D01*
X238529399Y-122529399D02*
X238529399Y-122694473D01*
X242180388Y-123316399D02*
X243000000Y-122496787D01*
X240478775Y-123316399D02*
X242180388Y-123316399D01*
D31*
X227941340Y-122500000D02*
X230439340Y-124998000D01*
X230439340Y-124998000D02*
X231500000Y-124998000D01*
X219000000Y-122500000D02*
X227941340Y-122500000D01*
X201500000Y-122500000D02*
X219000000Y-122500000D01*
X165000000Y-122500000D02*
X166500000Y-122500000D01*
X166500000Y-122500000D02*
X201500000Y-122500000D01*
X162500000Y-122500000D02*
X165000000Y-122500000D01*
D30*
X163250000Y-123250000D02*
X162500000Y-122500000D01*
X163250000Y-124225000D02*
X163250000Y-123250000D01*
D31*
X162250000Y-122750000D02*
X162500000Y-122500000D01*
X155250000Y-122250000D02*
X155750000Y-122750000D01*
X155750000Y-122750000D02*
X162250000Y-122750000D01*
D30*
X163950000Y-124225000D02*
X164750000Y-125025000D01*
X163250000Y-124225000D02*
X163950000Y-124225000D01*
X164750000Y-125025000D02*
X164750000Y-134000000D01*
X164750000Y-134000000D02*
X164750000Y-136250000D01*
D28*
X254340000Y-135211524D02*
X254100125Y-135451399D01*
X254340000Y-131250000D02*
X254340000Y-135211524D01*
D30*
X186149999Y-129399999D02*
X189000000Y-132250000D01*
X183250000Y-129000000D02*
X183649999Y-129399999D01*
X183649999Y-129399999D02*
X186149999Y-129399999D01*
D32*
X189000000Y-132250000D02*
X190250000Y-131000000D01*
X232399997Y-127999999D02*
X232799997Y-127599999D01*
X232799997Y-127599999D02*
X233299996Y-127100000D01*
X231052923Y-127999999D02*
X232399997Y-127999999D01*
D31*
X191800000Y-130800000D02*
X191250000Y-130250000D01*
X204950000Y-130800000D02*
X191800000Y-130800000D01*
X206870980Y-128879020D02*
X204950000Y-130800000D01*
X227872642Y-127999999D02*
X224872643Y-125000000D01*
X213396674Y-125000000D02*
X209517654Y-128879020D01*
X231052923Y-127999999D02*
X227872642Y-127999999D01*
X224872643Y-125000000D02*
X213396674Y-125000000D01*
X209517654Y-128879020D02*
X206870980Y-128879020D01*
X190500000Y-131000000D02*
X191250000Y-130250000D01*
X190250000Y-131000000D02*
X190500000Y-131000000D01*
D30*
X170450001Y-124851999D02*
X170398001Y-124851999D01*
X170750000Y-124552000D02*
X170450001Y-124851999D01*
X168100000Y-127150000D02*
X168100000Y-128750000D01*
X170398001Y-124851999D02*
X168100000Y-127150000D01*
X168100000Y-131045000D02*
X168100000Y-128750000D01*
X168100000Y-131595000D02*
X168100000Y-131045000D01*
X162000000Y-125775000D02*
X162000000Y-124342695D01*
X162000000Y-124342695D02*
X162000000Y-123777010D01*
X162500000Y-126275000D02*
X162000000Y-125775000D01*
X163250000Y-126275000D02*
X162500000Y-126275000D01*
X164252001Y-131093399D02*
X164250000Y-131091398D01*
X164252001Y-132096601D02*
X164252001Y-131093399D01*
X164250000Y-132098602D02*
X164252001Y-132096601D01*
X164250000Y-131091398D02*
X164250000Y-127275000D01*
X164250000Y-132361398D02*
X164250000Y-132098602D01*
X164252001Y-132363399D02*
X164250000Y-132361398D01*
X164252001Y-133366601D02*
X164252001Y-132363399D01*
X164252001Y-135906601D02*
X164252001Y-134903399D01*
X164250000Y-133368602D02*
X164252001Y-133366601D01*
X162250000Y-138000000D02*
X164201601Y-136048399D01*
X164201601Y-135957001D02*
X164252001Y-135906601D01*
X164201601Y-136048399D02*
X164201601Y-135957001D01*
X164252001Y-134903399D02*
X164250000Y-134901398D01*
X164250000Y-134901398D02*
X164250000Y-134638602D01*
X164252001Y-133633399D02*
X164250000Y-133631398D01*
X164250000Y-134638602D02*
X164252001Y-134636601D01*
X164250000Y-127275000D02*
X163250000Y-126275000D01*
X164252001Y-134636601D02*
X164252001Y-133633399D01*
X162250000Y-140000000D02*
X162250000Y-138000000D01*
X164250000Y-133631398D02*
X164250000Y-133368602D01*
X164399999Y-139600001D02*
X164000000Y-140000000D01*
X167500000Y-125250000D02*
X165445988Y-127304012D01*
X165445988Y-127304012D02*
X165445988Y-138554012D01*
X165445988Y-138554012D02*
X164399999Y-139600001D01*
X169500000Y-142184315D02*
X169500000Y-142750000D01*
X171750000Y-124500000D02*
X169500000Y-126750000D01*
X227588157Y-126652010D02*
X225184136Y-124247989D01*
X169500000Y-131500000D02*
X170250000Y-132250000D01*
X213085180Y-124247990D02*
X212833170Y-124500000D01*
X170250000Y-141434315D02*
X169500000Y-142184315D01*
X231500000Y-126652010D02*
X227588157Y-126652010D01*
X212833170Y-124500000D02*
X171750000Y-124500000D01*
X170250000Y-132250000D02*
X170250000Y-141434315D01*
X169500000Y-126750000D02*
X169500000Y-131500000D01*
X225184136Y-124247989D02*
X213085180Y-124247990D01*
D27*
X240400125Y-121967749D02*
X240478775Y-122046399D01*
D30*
X212929018Y-123870980D02*
X212799998Y-124000000D01*
X225570982Y-123870980D02*
X212929018Y-123870980D01*
X230100000Y-121900000D02*
X230100000Y-122900000D01*
X166097990Y-135468790D02*
X166097990Y-136034475D01*
X240176186Y-121202510D02*
X230797490Y-121202510D01*
X170000000Y-124000000D02*
X166097990Y-127902010D01*
X230797490Y-121202510D02*
X230100000Y-121900000D01*
X212799998Y-124000000D02*
X170000000Y-124000000D01*
X232695990Y-123995990D02*
X232900000Y-124200000D01*
X232599990Y-126000010D02*
X227700012Y-126000010D01*
X240478775Y-122046399D02*
X240478775Y-121505099D01*
X232900000Y-124200000D02*
X232900000Y-125700000D01*
X230100000Y-122900000D02*
X231195990Y-123995990D01*
X166097990Y-127902010D02*
X166097990Y-135468790D01*
X240478775Y-121505099D02*
X240176186Y-121202510D01*
X232900000Y-125700000D02*
X232599990Y-126000010D01*
X227700012Y-126000010D02*
X225570982Y-123870980D01*
X231195990Y-123995990D02*
X232695990Y-123995990D01*
D33*
G36*
X247777095Y-127136836D02*
G01*
X247813156Y-127204303D01*
X247861687Y-127263438D01*
X247920822Y-127311969D01*
X247988289Y-127348030D01*
X248061494Y-127370237D01*
X248137625Y-127377735D01*
X248712625Y-127377735D01*
X248788756Y-127370237D01*
X248861961Y-127348030D01*
X248929428Y-127311969D01*
X248988563Y-127263438D01*
X249037094Y-127204303D01*
X249073155Y-127136836D01*
X249076321Y-127126399D01*
X249523929Y-127126399D01*
X249527095Y-127136836D01*
X249563156Y-127204303D01*
X249611687Y-127263438D01*
X249670822Y-127311969D01*
X249738289Y-127348030D01*
X249811494Y-127370237D01*
X249887625Y-127377735D01*
X250462625Y-127377735D01*
X250538756Y-127370237D01*
X250611961Y-127348030D01*
X250679428Y-127311969D01*
X250738563Y-127263438D01*
X250787094Y-127204303D01*
X250823155Y-127136836D01*
X250826321Y-127126399D01*
X256825125Y-127126399D01*
X256825125Y-128976399D01*
X251245486Y-128976399D01*
X251244997Y-128971429D01*
X251222079Y-128895879D01*
X251184862Y-128826252D01*
X251134777Y-128765223D01*
X251073748Y-128715138D01*
X251004121Y-128677921D01*
X250928571Y-128655003D01*
X250850001Y-128647265D01*
X250199999Y-128647265D01*
X250121429Y-128655003D01*
X250045879Y-128677921D01*
X249976252Y-128715138D01*
X249915223Y-128765223D01*
X249865138Y-128826252D01*
X249827921Y-128895879D01*
X249805003Y-128971429D01*
X249804514Y-128976399D01*
X249225063Y-128976399D01*
X249220186Y-128976879D01*
X249215496Y-128978302D01*
X249211174Y-128980612D01*
X249207385Y-128983721D01*
X249204276Y-128987510D01*
X249201966Y-128991832D01*
X249200543Y-128996522D01*
X249200068Y-129001908D01*
X249249423Y-131425000D01*
X243824595Y-131425000D01*
X243775538Y-128426399D01*
X247450125Y-128426399D01*
X247455002Y-128425919D01*
X247459692Y-128424496D01*
X247464014Y-128422186D01*
X247467803Y-128419077D01*
X247470912Y-128415288D01*
X247473222Y-128410966D01*
X247474645Y-128406276D01*
X247475125Y-128401399D01*
X247475125Y-127126399D01*
X247773929Y-127126399D01*
X247777095Y-127136836D01*
G37*
X247777095Y-127136836D02*
X247813156Y-127204303D01*
X247861687Y-127263438D01*
X247920822Y-127311969D01*
X247988289Y-127348030D01*
X248061494Y-127370237D01*
X248137625Y-127377735D01*
X248712625Y-127377735D01*
X248788756Y-127370237D01*
X248861961Y-127348030D01*
X248929428Y-127311969D01*
X248988563Y-127263438D01*
X249037094Y-127204303D01*
X249073155Y-127136836D01*
X249076321Y-127126399D01*
X249523929Y-127126399D01*
X249527095Y-127136836D01*
X249563156Y-127204303D01*
X249611687Y-127263438D01*
X249670822Y-127311969D01*
X249738289Y-127348030D01*
X249811494Y-127370237D01*
X249887625Y-127377735D01*
X250462625Y-127377735D01*
X250538756Y-127370237D01*
X250611961Y-127348030D01*
X250679428Y-127311969D01*
X250738563Y-127263438D01*
X250787094Y-127204303D01*
X250823155Y-127136836D01*
X250826321Y-127126399D01*
X256825125Y-127126399D01*
X256825125Y-128976399D01*
X251245486Y-128976399D01*
X251244997Y-128971429D01*
X251222079Y-128895879D01*
X251184862Y-128826252D01*
X251134777Y-128765223D01*
X251073748Y-128715138D01*
X251004121Y-128677921D01*
X250928571Y-128655003D01*
X250850001Y-128647265D01*
X250199999Y-128647265D01*
X250121429Y-128655003D01*
X250045879Y-128677921D01*
X249976252Y-128715138D01*
X249915223Y-128765223D01*
X249865138Y-128826252D01*
X249827921Y-128895879D01*
X249805003Y-128971429D01*
X249804514Y-128976399D01*
X249225063Y-128976399D01*
X249220186Y-128976879D01*
X249215496Y-128978302D01*
X249211174Y-128980612D01*
X249207385Y-128983721D01*
X249204276Y-128987510D01*
X249201966Y-128991832D01*
X249200543Y-128996522D01*
X249200068Y-129001908D01*
X249249423Y-131425000D01*
X243824595Y-131425000D01*
X243775538Y-128426399D01*
X247450125Y-128426399D01*
X247455002Y-128425919D01*
X247459692Y-128424496D01*
X247464014Y-128422186D01*
X247467803Y-128419077D01*
X247470912Y-128415288D01*
X247473222Y-128410966D01*
X247474645Y-128406276D01*
X247475125Y-128401399D01*
X247475125Y-127126399D01*
X247773929Y-127126399D01*
X247777095Y-127136836D01*
G36*
X250803157Y-123619077D02*
G01*
X250806946Y-123622186D01*
X250811268Y-123624496D01*
X250815958Y-123625919D01*
X250820835Y-123626399D01*
X256010480Y-123626399D01*
X256825125Y-124441044D01*
X256825125Y-127476399D01*
X250775125Y-127476399D01*
X250775125Y-127218887D01*
X250787094Y-127204303D01*
X250823155Y-127136836D01*
X250845362Y-127063631D01*
X250852860Y-126987500D01*
X250852860Y-126512500D01*
X250845362Y-126436369D01*
X250823155Y-126363164D01*
X250787094Y-126295697D01*
X250775125Y-126281113D01*
X250775125Y-124472109D01*
X250774645Y-124467232D01*
X250773222Y-124462542D01*
X250770912Y-124458220D01*
X250767803Y-124454431D01*
X250554235Y-124240863D01*
X250554235Y-123973399D01*
X250551300Y-123943602D01*
X250542609Y-123914950D01*
X250528495Y-123888544D01*
X250509500Y-123865399D01*
X250486355Y-123846404D01*
X250459949Y-123832290D01*
X250431297Y-123823599D01*
X250401500Y-123820664D01*
X250134036Y-123820664D01*
X250097093Y-123783721D01*
X250093304Y-123780612D01*
X250088982Y-123778302D01*
X250084292Y-123776879D01*
X250079415Y-123776399D01*
X248220835Y-123776399D01*
X248215958Y-123776879D01*
X248211268Y-123778302D01*
X248206946Y-123780612D01*
X248203157Y-123783721D01*
X247832447Y-124154431D01*
X247829338Y-124158220D01*
X247827028Y-124162542D01*
X247825605Y-124167232D01*
X247825125Y-124172109D01*
X247825125Y-124961754D01*
X247710480Y-125076399D01*
X245319024Y-125076399D01*
X245319024Y-124126399D01*
X246779415Y-124126399D01*
X246784292Y-124125919D01*
X246788982Y-124124496D01*
X246793304Y-124122186D01*
X246797093Y-124119077D01*
X247989770Y-122926399D01*
X250110480Y-122926399D01*
X250803157Y-123619077D01*
G37*
X250803157Y-123619077D02*
X250806946Y-123622186D01*
X250811268Y-123624496D01*
X250815958Y-123625919D01*
X250820835Y-123626399D01*
X256010480Y-123626399D01*
X256825125Y-124441044D01*
X256825125Y-127476399D01*
X250775125Y-127476399D01*
X250775125Y-127218887D01*
X250787094Y-127204303D01*
X250823155Y-127136836D01*
X250845362Y-127063631D01*
X250852860Y-126987500D01*
X250852860Y-126512500D01*
X250845362Y-126436369D01*
X250823155Y-126363164D01*
X250787094Y-126295697D01*
X250775125Y-126281113D01*
X250775125Y-124472109D01*
X250774645Y-124467232D01*
X250773222Y-124462542D01*
X250770912Y-124458220D01*
X250767803Y-124454431D01*
X250554235Y-124240863D01*
X250554235Y-123973399D01*
X250551300Y-123943602D01*
X250542609Y-123914950D01*
X250528495Y-123888544D01*
X250509500Y-123865399D01*
X250486355Y-123846404D01*
X250459949Y-123832290D01*
X250431297Y-123823599D01*
X250401500Y-123820664D01*
X250134036Y-123820664D01*
X250097093Y-123783721D01*
X250093304Y-123780612D01*
X250088982Y-123778302D01*
X250084292Y-123776879D01*
X250079415Y-123776399D01*
X248220835Y-123776399D01*
X248215958Y-123776879D01*
X248211268Y-123778302D01*
X248206946Y-123780612D01*
X248203157Y-123783721D01*
X247832447Y-124154431D01*
X247829338Y-124158220D01*
X247827028Y-124162542D01*
X247825605Y-124167232D01*
X247825125Y-124172109D01*
X247825125Y-124961754D01*
X247710480Y-125076399D01*
X245319024Y-125076399D01*
X245319024Y-124126399D01*
X246779415Y-124126399D01*
X246784292Y-124125919D01*
X246788982Y-124124496D01*
X246793304Y-124122186D01*
X246797093Y-124119077D01*
X247989770Y-122926399D01*
X250110480Y-122926399D01*
X250803157Y-123619077D01*
G36*
X243064003Y-126927558D02*
G01*
X243066313Y-126931880D01*
X243069422Y-126935669D01*
X243073211Y-126938778D01*
X243077533Y-126941088D01*
X243510976Y-127120626D01*
X243525125Y-128851277D01*
X243525125Y-131480551D01*
X243292861Y-131625000D01*
X236044738Y-131625000D01*
X235973775Y-131586425D01*
X235825003Y-131244799D01*
X235826209Y-129176399D01*
X238565080Y-129176399D01*
X238569957Y-129175919D01*
X238574647Y-129174496D01*
X238578969Y-129172186D01*
X238583522Y-129168277D01*
X238968027Y-128748142D01*
X239267803Y-128448367D01*
X239270912Y-128444578D01*
X239273222Y-128440256D01*
X239274645Y-128435566D01*
X239275125Y-128430689D01*
X239275125Y-127709451D01*
X239464917Y-127251252D01*
X239789770Y-126926399D01*
X243063651Y-126926399D01*
X243064003Y-126927558D01*
G37*
X243064003Y-126927558D02*
X243066313Y-126931880D01*
X243069422Y-126935669D01*
X243073211Y-126938778D01*
X243077533Y-126941088D01*
X243510976Y-127120626D01*
X243525125Y-128851277D01*
X243525125Y-131480551D01*
X243292861Y-131625000D01*
X236044738Y-131625000D01*
X235973775Y-131586425D01*
X235825003Y-131244799D01*
X235826209Y-129176399D01*
X238565080Y-129176399D01*
X238569957Y-129175919D01*
X238574647Y-129174496D01*
X238578969Y-129172186D01*
X238583522Y-129168277D01*
X238968027Y-128748142D01*
X239267803Y-128448367D01*
X239270912Y-128444578D01*
X239273222Y-128440256D01*
X239274645Y-128435566D01*
X239275125Y-128430689D01*
X239275125Y-127709451D01*
X239464917Y-127251252D01*
X239789770Y-126926399D01*
X243063651Y-126926399D01*
X243064003Y-126927558D01*
G36*
X234189322Y-121517806D02*
G01*
X234193942Y-121519442D01*
X234197538Y-121520057D01*
X234225000Y-121522705D01*
X234225000Y-122500000D01*
X234225480Y-122504877D01*
X234226903Y-122509567D01*
X234229213Y-122513889D01*
X234232322Y-122517678D01*
X234236111Y-122520787D01*
X234241862Y-122523639D01*
X236758704Y-123390070D01*
X236771630Y-123414254D01*
X236790625Y-123437399D01*
X236813770Y-123456394D01*
X236840176Y-123470508D01*
X236868828Y-123479199D01*
X236898625Y-123482134D01*
X237026134Y-123482134D01*
X238307240Y-123923159D01*
X238775125Y-124391044D01*
X238775125Y-126211754D01*
X238660480Y-126326399D01*
X236602191Y-126326399D01*
X236524892Y-125497678D01*
X236523961Y-125492867D01*
X236522109Y-125488329D01*
X236519407Y-125484240D01*
X236515960Y-125480757D01*
X236511899Y-125478013D01*
X236509285Y-125476788D01*
X234025000Y-124483074D01*
X234025000Y-124000000D01*
X234024520Y-123995123D01*
X234023097Y-123990433D01*
X234020787Y-123986111D01*
X234017678Y-123982322D01*
X234013889Y-123979213D01*
X234009567Y-123976903D01*
X234004877Y-123975480D01*
X234000000Y-123975000D01*
X233500000Y-123975000D01*
X233499779Y-123975001D01*
X233070533Y-123978797D01*
X232901482Y-123809746D01*
X232892806Y-123799174D01*
X232850627Y-123764559D01*
X232802506Y-123738837D01*
X232750291Y-123722998D01*
X232709596Y-123718990D01*
X232709586Y-123718990D01*
X232695990Y-123717651D01*
X232682394Y-123718990D01*
X231310727Y-123718990D01*
X231025000Y-123433263D01*
X231025000Y-121479510D01*
X234107669Y-121479510D01*
X234189322Y-121517806D01*
G37*
X234189322Y-121517806D02*
X234193942Y-121519442D01*
X234197538Y-121520057D01*
X234225000Y-121522705D01*
X234225000Y-122500000D01*
X234225480Y-122504877D01*
X234226903Y-122509567D01*
X234229213Y-122513889D01*
X234232322Y-122517678D01*
X234236111Y-122520787D01*
X234241862Y-122523639D01*
X236758704Y-123390070D01*
X236771630Y-123414254D01*
X236790625Y-123437399D01*
X236813770Y-123456394D01*
X236840176Y-123470508D01*
X236868828Y-123479199D01*
X236898625Y-123482134D01*
X237026134Y-123482134D01*
X238307240Y-123923159D01*
X238775125Y-124391044D01*
X238775125Y-126211754D01*
X238660480Y-126326399D01*
X236602191Y-126326399D01*
X236524892Y-125497678D01*
X236523961Y-125492867D01*
X236522109Y-125488329D01*
X236519407Y-125484240D01*
X236515960Y-125480757D01*
X236511899Y-125478013D01*
X236509285Y-125476788D01*
X234025000Y-124483074D01*
X234025000Y-124000000D01*
X234024520Y-123995123D01*
X234023097Y-123990433D01*
X234020787Y-123986111D01*
X234017678Y-123982322D01*
X234013889Y-123979213D01*
X234009567Y-123976903D01*
X234004877Y-123975480D01*
X234000000Y-123975000D01*
X233500000Y-123975000D01*
X233499779Y-123975001D01*
X233070533Y-123978797D01*
X232901482Y-123809746D01*
X232892806Y-123799174D01*
X232850627Y-123764559D01*
X232802506Y-123738837D01*
X232750291Y-123722998D01*
X232709596Y-123718990D01*
X232709586Y-123718990D01*
X232695990Y-123717651D01*
X232682394Y-123718990D01*
X231310727Y-123718990D01*
X231025000Y-123433263D01*
X231025000Y-121479510D01*
X234107669Y-121479510D01*
X234189322Y-121517806D01*
G36*
X243825123Y-123576399D02*
G01*
X243175144Y-123576399D01*
X243152023Y-123571800D01*
X243047977Y-123571800D01*
X243024856Y-123576399D01*
X237843730Y-123576399D01*
X237025125Y-123294592D01*
X237025125Y-121926399D01*
X238925125Y-121926399D01*
X238925125Y-122501399D01*
X238925605Y-122506276D01*
X238927028Y-122510966D01*
X238929338Y-122515288D01*
X238932447Y-122519077D01*
X238936236Y-122522186D01*
X238940558Y-122524496D01*
X238945248Y-122525919D01*
X238950125Y-122526399D01*
X241750125Y-122526399D01*
X241755002Y-122525919D01*
X241759692Y-122524496D01*
X241764014Y-122522186D01*
X241767803Y-122519077D01*
X241770912Y-122515288D01*
X241773222Y-122510966D01*
X241774645Y-122506276D01*
X241775125Y-122501396D01*
X241775003Y-121625000D01*
X243825002Y-121625000D01*
X243825123Y-123576399D01*
G37*
X243825123Y-123576399D02*
X243175144Y-123576399D01*
X243152023Y-123571800D01*
X243047977Y-123571800D01*
X243024856Y-123576399D01*
X237843730Y-123576399D01*
X237025125Y-123294592D01*
X237025125Y-121926399D01*
X238925125Y-121926399D01*
X238925125Y-122501399D01*
X238925605Y-122506276D01*
X238927028Y-122510966D01*
X238929338Y-122515288D01*
X238932447Y-122519077D01*
X238936236Y-122522186D01*
X238940558Y-122524496D01*
X238945248Y-122525919D01*
X238950125Y-122526399D01*
X241750125Y-122526399D01*
X241755002Y-122525919D01*
X241759692Y-122524496D01*
X241764014Y-122522186D01*
X241767803Y-122519077D01*
X241770912Y-122515288D01*
X241773222Y-122510966D01*
X241774645Y-122506276D01*
X241775125Y-122501396D01*
X241775003Y-121625000D01*
X243825002Y-121625000D01*
X243825123Y-123576399D01*
G36*
X160725422Y-143612931D02*
G01*
X148574989Y-143612931D01*
X148630203Y-140369102D01*
X148633146Y-140376207D01*
X148715443Y-140499373D01*
X148820188Y-140604118D01*
X148943354Y-140686415D01*
X149080210Y-140743102D01*
X149225494Y-140772001D01*
X149373626Y-140772001D01*
X149518910Y-140743102D01*
X149655766Y-140686415D01*
X149778932Y-140604118D01*
X149883677Y-140499373D01*
X149965974Y-140376207D01*
X150022661Y-140239351D01*
X150051560Y-140094067D01*
X150051560Y-139945935D01*
X150022661Y-139800651D01*
X149965974Y-139663795D01*
X149883677Y-139540629D01*
X149778932Y-139435884D01*
X149655766Y-139353587D01*
X149518910Y-139296900D01*
X149373626Y-139268001D01*
X149225494Y-139268001D01*
X149080210Y-139296900D01*
X148943354Y-139353587D01*
X148820188Y-139435884D01*
X148715443Y-139540629D01*
X148642445Y-139649878D01*
X148674358Y-137775000D01*
X160824791Y-137775000D01*
X160725422Y-143612931D01*
G37*
X160725422Y-143612931D02*
X148574989Y-143612931D01*
X148630203Y-140369102D01*
X148633146Y-140376207D01*
X148715443Y-140499373D01*
X148820188Y-140604118D01*
X148943354Y-140686415D01*
X149080210Y-140743102D01*
X149225494Y-140772001D01*
X149373626Y-140772001D01*
X149518910Y-140743102D01*
X149655766Y-140686415D01*
X149778932Y-140604118D01*
X149883677Y-140499373D01*
X149965974Y-140376207D01*
X150022661Y-140239351D01*
X150051560Y-140094067D01*
X150051560Y-139945935D01*
X150022661Y-139800651D01*
X149965974Y-139663795D01*
X149883677Y-139540629D01*
X149778932Y-139435884D01*
X149655766Y-139353587D01*
X149518910Y-139296900D01*
X149373626Y-139268001D01*
X149225494Y-139268001D01*
X149080210Y-139296900D01*
X148943354Y-139353587D01*
X148820188Y-139435884D01*
X148715443Y-139540629D01*
X148642445Y-139649878D01*
X148674358Y-137775000D01*
X160824791Y-137775000D01*
X160725422Y-143612931D01*
D34*
G36*
X229829710Y-121601777D02*
G01*
X229814368Y-121614368D01*
X229764132Y-121675581D01*
X229726803Y-121745418D01*
X229703817Y-121821195D01*
X229698000Y-121880254D01*
X229698000Y-121880261D01*
X229696056Y-121900000D01*
X229698000Y-121919740D01*
X229698001Y-122880251D01*
X229696056Y-122900000D01*
X229703817Y-122978805D01*
X229721536Y-123037217D01*
X229726804Y-123054583D01*
X229764133Y-123124420D01*
X229768139Y-123129301D01*
X229796466Y-123163817D01*
X229814369Y-123185632D01*
X229829705Y-123198218D01*
X230737366Y-124105879D01*
X230745033Y-124130373D01*
X230771053Y-124178035D01*
X230805871Y-124219704D01*
X230807479Y-124221000D01*
X230761184Y-124221000D01*
X228517753Y-121977569D01*
X228493420Y-121947920D01*
X228375106Y-121850823D01*
X228240124Y-121778673D01*
X228093659Y-121734243D01*
X227979506Y-121723000D01*
X227979503Y-121723000D01*
X227941340Y-121719241D01*
X227903177Y-121723000D01*
X162538155Y-121723000D01*
X162499999Y-121719242D01*
X162461843Y-121723000D01*
X162461834Y-121723000D01*
X162347681Y-121734243D01*
X162201216Y-121778673D01*
X162066234Y-121850823D01*
X161947920Y-121947920D01*
X161927338Y-121973000D01*
X156071843Y-121973000D01*
X155853540Y-121754697D01*
X155853536Y-121754691D01*
X155745309Y-121646464D01*
X155713401Y-121625144D01*
X155683766Y-121600823D01*
X155649956Y-121582751D01*
X155618048Y-121561431D01*
X155582595Y-121546746D01*
X155548783Y-121528673D01*
X155512097Y-121517545D01*
X155476643Y-121502859D01*
X155439003Y-121495372D01*
X155402318Y-121484244D01*
X155364162Y-121480486D01*
X155326528Y-121473000D01*
X155288163Y-121473000D01*
X155250000Y-121469241D01*
X155211837Y-121473000D01*
X155173472Y-121473000D01*
X155135838Y-121480486D01*
X155097682Y-121484244D01*
X155060997Y-121495372D01*
X155023357Y-121502859D01*
X154987903Y-121517545D01*
X154951217Y-121528673D01*
X154917405Y-121546746D01*
X154881952Y-121561431D01*
X154850044Y-121582751D01*
X154816234Y-121600823D01*
X154786601Y-121625142D01*
X154754691Y-121646464D01*
X154727551Y-121673604D01*
X154697921Y-121697921D01*
X154673604Y-121727551D01*
X154646464Y-121754691D01*
X154625142Y-121786601D01*
X154600823Y-121816234D01*
X154582751Y-121850044D01*
X154561431Y-121881952D01*
X154546746Y-121917405D01*
X154528673Y-121951217D01*
X154517545Y-121987903D01*
X154502859Y-122023357D01*
X154495372Y-122060997D01*
X154484244Y-122097682D01*
X154480486Y-122135838D01*
X154473000Y-122173472D01*
X154473000Y-122211837D01*
X154469241Y-122250000D01*
X154473000Y-122288163D01*
X154473000Y-122326528D01*
X154480486Y-122364162D01*
X154484244Y-122402318D01*
X154495372Y-122439003D01*
X154502859Y-122476643D01*
X154517545Y-122512097D01*
X154528673Y-122548783D01*
X154546746Y-122582595D01*
X154561431Y-122618048D01*
X154582751Y-122649956D01*
X154600823Y-122683766D01*
X154625144Y-122713401D01*
X154646464Y-122745309D01*
X154754691Y-122853536D01*
X154754697Y-122853540D01*
X155173587Y-123272430D01*
X155197920Y-123302080D01*
X155258748Y-123352000D01*
X155316233Y-123399177D01*
X155354644Y-123419708D01*
X155367000Y-123426312D01*
X155367000Y-136250000D01*
X155374359Y-136324720D01*
X155396154Y-136396568D01*
X155431547Y-136462783D01*
X155479178Y-136520822D01*
X155537217Y-136568453D01*
X155603432Y-136603846D01*
X155675280Y-136625641D01*
X155750000Y-136633000D01*
X159500000Y-136633000D01*
X159574720Y-136625641D01*
X159646568Y-136603846D01*
X159712783Y-136568453D01*
X159770822Y-136520822D01*
X159818453Y-136462783D01*
X159853846Y-136396568D01*
X159875641Y-136324720D01*
X159883000Y-136250000D01*
X159883000Y-136103205D01*
X159896154Y-136146568D01*
X159931547Y-136212783D01*
X159979178Y-136270822D01*
X160037217Y-136318453D01*
X160103432Y-136353846D01*
X160175280Y-136375641D01*
X160250000Y-136383000D01*
X163298486Y-136383000D01*
X161979705Y-137701782D01*
X161964369Y-137714368D01*
X161914133Y-137775580D01*
X161907913Y-137787217D01*
X161876804Y-137845417D01*
X161853817Y-137921195D01*
X161846056Y-138000000D01*
X161848001Y-138019749D01*
X161848000Y-139454386D01*
X161818437Y-139474140D01*
X161724140Y-139568437D01*
X161650050Y-139679320D01*
X161599016Y-139802526D01*
X161573000Y-139933321D01*
X161573000Y-140066679D01*
X161599016Y-140197474D01*
X161650050Y-140320680D01*
X161724140Y-140431563D01*
X161818437Y-140525860D01*
X161929320Y-140599950D01*
X162052526Y-140650984D01*
X162183321Y-140677000D01*
X162316679Y-140677000D01*
X162447474Y-140650984D01*
X162570680Y-140599950D01*
X162681563Y-140525860D01*
X162775860Y-140431563D01*
X162849950Y-140320680D01*
X162900984Y-140197474D01*
X162927000Y-140066679D01*
X162927000Y-139933321D01*
X162900984Y-139802526D01*
X162849950Y-139679320D01*
X162775860Y-139568437D01*
X162681563Y-139474140D01*
X162652000Y-139454387D01*
X162652000Y-138166513D01*
X164261313Y-136557201D01*
X164301815Y-136617816D01*
X164382184Y-136698185D01*
X164476688Y-136761331D01*
X164581695Y-136804826D01*
X164693170Y-136827000D01*
X164806830Y-136827000D01*
X164918305Y-136804826D01*
X165023312Y-136761331D01*
X165043989Y-136747515D01*
X165043989Y-138387497D01*
X164129710Y-139301777D01*
X164129705Y-139301781D01*
X164101550Y-139329936D01*
X164066679Y-139323000D01*
X163933321Y-139323000D01*
X163802526Y-139349016D01*
X163679320Y-139400050D01*
X163568437Y-139474140D01*
X163474140Y-139568437D01*
X163400050Y-139679320D01*
X163349016Y-139802526D01*
X163323000Y-139933321D01*
X163323000Y-140066679D01*
X163349016Y-140197474D01*
X163400050Y-140320680D01*
X163474140Y-140431563D01*
X163568437Y-140525860D01*
X163679320Y-140599950D01*
X163802526Y-140650984D01*
X163933321Y-140677000D01*
X164066679Y-140677000D01*
X164197474Y-140650984D01*
X164320680Y-140599950D01*
X164431563Y-140525860D01*
X164522266Y-140435157D01*
X164522373Y-140435416D01*
X164618350Y-140579056D01*
X164740505Y-140701211D01*
X164773115Y-140723000D01*
X161076656Y-140723000D01*
X161127180Y-137754714D01*
X161121898Y-137695960D01*
X161106135Y-137643997D01*
X161080537Y-137596107D01*
X161046089Y-137554131D01*
X161004113Y-137519683D01*
X160956223Y-137494085D01*
X160904260Y-137478322D01*
X160850220Y-137473000D01*
X148649780Y-137473000D01*
X148600371Y-137477442D01*
X148548147Y-137492318D01*
X148499829Y-137517097D01*
X148457273Y-137550826D01*
X148422115Y-137592210D01*
X148395706Y-137639657D01*
X148379062Y-137691344D01*
X148372820Y-137745286D01*
X148272600Y-143633217D01*
X148277882Y-143691971D01*
X148293645Y-143743934D01*
X148319243Y-143791824D01*
X148353691Y-143833800D01*
X148395667Y-143868248D01*
X148443557Y-143893846D01*
X148495520Y-143909609D01*
X148549560Y-143914931D01*
X160750000Y-143914931D01*
X160799409Y-143910489D01*
X160851633Y-143895613D01*
X160899951Y-143870834D01*
X160942507Y-143837105D01*
X160977665Y-143795721D01*
X161004074Y-143748274D01*
X161020718Y-143696587D01*
X161026960Y-143642645D01*
X161033184Y-143277000D01*
X166187274Y-143277000D01*
X166250000Y-143283178D01*
X166312726Y-143277000D01*
X166500336Y-143258522D01*
X166741051Y-143185502D01*
X166962896Y-143066924D01*
X167157344Y-142907344D01*
X167197335Y-142858615D01*
X168958621Y-141097330D01*
X169007344Y-141057344D01*
X169166924Y-140862896D01*
X169285502Y-140641051D01*
X169358522Y-140400336D01*
X169377000Y-140212726D01*
X169377000Y-140212725D01*
X169383178Y-140150001D01*
X169378582Y-140103340D01*
X169775000Y-140103340D01*
X169829301Y-140097992D01*
X169848001Y-140092320D01*
X169848001Y-141267800D01*
X169229710Y-141886092D01*
X169214368Y-141898683D01*
X169164132Y-141959896D01*
X169126803Y-142029733D01*
X169103817Y-142105510D01*
X169098000Y-142164569D01*
X169098000Y-142164576D01*
X169096056Y-142184315D01*
X169098000Y-142204055D01*
X169098000Y-142204386D01*
X169068437Y-142224140D01*
X168974140Y-142318437D01*
X168900050Y-142429320D01*
X168849016Y-142552526D01*
X168823000Y-142683321D01*
X168823000Y-142816679D01*
X168849016Y-142947474D01*
X168900050Y-143070680D01*
X168974140Y-143181563D01*
X169068437Y-143275860D01*
X169179320Y-143349950D01*
X169302526Y-143400984D01*
X169433321Y-143427000D01*
X169566679Y-143427000D01*
X169697474Y-143400984D01*
X169820680Y-143349950D01*
X169931563Y-143275860D01*
X170025860Y-143181563D01*
X170099950Y-143070680D01*
X170150984Y-142947474D01*
X170177000Y-142816679D01*
X170177000Y-142683321D01*
X170150984Y-142552526D01*
X170099950Y-142429320D01*
X170025860Y-142318437D01*
X169980126Y-142272703D01*
X170388381Y-141864448D01*
X170425280Y-141875641D01*
X170500000Y-141883000D01*
X175250000Y-141883000D01*
X175324720Y-141875641D01*
X175396568Y-141853846D01*
X175462783Y-141818453D01*
X175520822Y-141770822D01*
X175568453Y-141712783D01*
X175603846Y-141646568D01*
X175625641Y-141574720D01*
X175633000Y-141500000D01*
X175633000Y-138000000D01*
X175625641Y-137925280D01*
X175603846Y-137853432D01*
X175568453Y-137787217D01*
X175520822Y-137729178D01*
X175462783Y-137681547D01*
X175396568Y-137646154D01*
X175324720Y-137624359D01*
X175250000Y-137617000D01*
X170652000Y-137617000D01*
X170652000Y-132269739D01*
X170653944Y-132249999D01*
X170652000Y-132230260D01*
X170652000Y-132230253D01*
X170646183Y-132171194D01*
X170623197Y-132095417D01*
X170585868Y-132025580D01*
X170535632Y-131964368D01*
X170520296Y-131951783D01*
X169902000Y-131333487D01*
X169902000Y-129845373D01*
X169903184Y-129846816D01*
X169945363Y-129881431D01*
X169993484Y-129907153D01*
X170045699Y-129922992D01*
X170100000Y-129928340D01*
X170807750Y-129927000D01*
X170877000Y-129857750D01*
X170877000Y-128773000D01*
X170923000Y-128773000D01*
X170923000Y-129857750D01*
X170992250Y-129927000D01*
X171700000Y-129928340D01*
X171754301Y-129922992D01*
X171806516Y-129907153D01*
X171854637Y-129881431D01*
X171896816Y-129846816D01*
X171931431Y-129804637D01*
X171957153Y-129756516D01*
X171972992Y-129704301D01*
X171978340Y-129650000D01*
X171977000Y-128842250D01*
X171907750Y-128773000D01*
X170923000Y-128773000D01*
X170877000Y-128773000D01*
X170857000Y-128773000D01*
X170857000Y-128727000D01*
X170877000Y-128727000D01*
X170877000Y-127642250D01*
X170923000Y-127642250D01*
X170923000Y-128727000D01*
X171907750Y-128727000D01*
X171977000Y-128657750D01*
X171978340Y-127850000D01*
X171972992Y-127795699D01*
X171957153Y-127743484D01*
X171931431Y-127695363D01*
X171896816Y-127653184D01*
X171854637Y-127618569D01*
X171806516Y-127592847D01*
X171754301Y-127577008D01*
X171700000Y-127571660D01*
X170992250Y-127573000D01*
X170923000Y-127642250D01*
X170877000Y-127642250D01*
X170807750Y-127573000D01*
X170100000Y-127571660D01*
X170045699Y-127577008D01*
X169993484Y-127592847D01*
X169945363Y-127618569D01*
X169903184Y-127653184D01*
X169902000Y-127654627D01*
X169902000Y-126916513D01*
X171916514Y-124902000D01*
X212395830Y-124902000D01*
X209195811Y-128102020D01*
X206909143Y-128102020D01*
X206870980Y-128098261D01*
X206832816Y-128102020D01*
X206832814Y-128102020D01*
X206718661Y-128113263D01*
X206572196Y-128157693D01*
X206516166Y-128187642D01*
X206437213Y-128229843D01*
X206352219Y-128299596D01*
X206318900Y-128326940D01*
X206294572Y-128356584D01*
X204628157Y-130023000D01*
X192121844Y-130023000D01*
X191826405Y-129727561D01*
X191802079Y-129697921D01*
X191772438Y-129673595D01*
X191772434Y-129673591D01*
X191683766Y-129600823D01*
X191548783Y-129528673D01*
X191402318Y-129484244D01*
X191250000Y-129469241D01*
X191112684Y-129482766D01*
X191097681Y-129484244D01*
X190951216Y-129528673D01*
X190816233Y-129600823D01*
X190727565Y-129673591D01*
X190727556Y-129673600D01*
X190697921Y-129697921D01*
X190673599Y-129727557D01*
X190416705Y-129984451D01*
X190250000Y-129968032D01*
X190048672Y-129987861D01*
X189855082Y-130046586D01*
X189676668Y-130141950D01*
X189559475Y-130238128D01*
X188558059Y-131239545D01*
X186448222Y-129129709D01*
X186435631Y-129114367D01*
X186374419Y-129064131D01*
X186304582Y-129026802D01*
X186228805Y-129003816D01*
X186169746Y-128997999D01*
X186169738Y-128997999D01*
X186149999Y-128996055D01*
X186130260Y-128997999D01*
X183927000Y-128997999D01*
X183927000Y-128933321D01*
X183900984Y-128802526D01*
X183849950Y-128679320D01*
X183775860Y-128568437D01*
X183681563Y-128474140D01*
X183570680Y-128400050D01*
X183447474Y-128349016D01*
X183316679Y-128323000D01*
X183183321Y-128323000D01*
X183052526Y-128349016D01*
X182929320Y-128400050D01*
X182818437Y-128474140D01*
X182724140Y-128568437D01*
X182650050Y-128679320D01*
X182599016Y-128802526D01*
X182573000Y-128933321D01*
X182573000Y-129066679D01*
X182599016Y-129197474D01*
X182650050Y-129320680D01*
X182724140Y-129431563D01*
X182818437Y-129525860D01*
X182929320Y-129599950D01*
X183052526Y-129650984D01*
X183183321Y-129677000D01*
X183316679Y-129677000D01*
X183351550Y-129670064D01*
X183351778Y-129670292D01*
X183364367Y-129685631D01*
X183425579Y-129735867D01*
X183495416Y-129773196D01*
X183571193Y-129796182D01*
X183630252Y-129801999D01*
X183630259Y-129801999D01*
X183649998Y-129803943D01*
X183669738Y-129801999D01*
X185983486Y-129801999D01*
X188044255Y-131862768D01*
X188031873Y-131903585D01*
X188012467Y-131950435D01*
X188002574Y-132000172D01*
X187987861Y-132048673D01*
X187982893Y-132099113D01*
X187973000Y-132148849D01*
X187973000Y-132199559D01*
X187968032Y-132250000D01*
X187973000Y-132300441D01*
X187973000Y-132351151D01*
X187982893Y-132400887D01*
X187987861Y-132451327D01*
X188002574Y-132499828D01*
X188012467Y-132549565D01*
X188031873Y-132596415D01*
X188046586Y-132644917D01*
X188070480Y-132689620D01*
X188089885Y-132736467D01*
X188118055Y-132778627D01*
X188141950Y-132823331D01*
X188174107Y-132862515D01*
X188202277Y-132904674D01*
X188238129Y-132940526D01*
X188270288Y-132979712D01*
X188309474Y-133011871D01*
X188345326Y-133047723D01*
X188387485Y-133075893D01*
X188426669Y-133108050D01*
X188471373Y-133131945D01*
X188513533Y-133160115D01*
X188560380Y-133179520D01*
X188605083Y-133203414D01*
X188653585Y-133218127D01*
X188700435Y-133237533D01*
X188750172Y-133247426D01*
X188798673Y-133262139D01*
X188849113Y-133267107D01*
X188898849Y-133277000D01*
X188949559Y-133277000D01*
X189000000Y-133281968D01*
X189050441Y-133277000D01*
X189101151Y-133277000D01*
X189150887Y-133267107D01*
X189201327Y-133262139D01*
X189249828Y-133247426D01*
X189299565Y-133237533D01*
X189346415Y-133218127D01*
X189394917Y-133203414D01*
X189439620Y-133179520D01*
X189486467Y-133160115D01*
X189528627Y-133131945D01*
X189573331Y-133108050D01*
X189612514Y-133075894D01*
X189654674Y-133047723D01*
X189797723Y-132904674D01*
X189797725Y-132904671D01*
X191011872Y-131690525D01*
X191108050Y-131573332D01*
X191202827Y-131396016D01*
X191247399Y-131351445D01*
X191247920Y-131352080D01*
X191277564Y-131376408D01*
X191277565Y-131376409D01*
X191366233Y-131449177D01*
X191498260Y-131519747D01*
X191501216Y-131521327D01*
X191647681Y-131565757D01*
X191761834Y-131577000D01*
X191761843Y-131577000D01*
X191799999Y-131580758D01*
X191838155Y-131577000D01*
X204911837Y-131577000D01*
X204950000Y-131580759D01*
X204988163Y-131577000D01*
X204988166Y-131577000D01*
X205102319Y-131565757D01*
X205248784Y-131521327D01*
X205383766Y-131449177D01*
X205502080Y-131352080D01*
X205526412Y-131322431D01*
X205822444Y-131026399D01*
X230976785Y-131026399D01*
X230982133Y-131080700D01*
X230997972Y-131132915D01*
X231023694Y-131181036D01*
X231058309Y-131223215D01*
X231100488Y-131257830D01*
X231148609Y-131283552D01*
X231200824Y-131299391D01*
X231255125Y-131304739D01*
X232447875Y-131303399D01*
X232517125Y-131234149D01*
X232517125Y-130224399D01*
X232563125Y-130224399D01*
X232563125Y-131234149D01*
X232632375Y-131303399D01*
X233825125Y-131304739D01*
X233879426Y-131299391D01*
X233931641Y-131283552D01*
X233979762Y-131257830D01*
X234021941Y-131223215D01*
X234056556Y-131181036D01*
X234082278Y-131132915D01*
X234098117Y-131080700D01*
X234103465Y-131026399D01*
X234102125Y-130293649D01*
X234032875Y-130224399D01*
X232563125Y-130224399D01*
X232517125Y-130224399D01*
X231047375Y-130224399D01*
X230978125Y-130293649D01*
X230976785Y-131026399D01*
X205822444Y-131026399D01*
X207192824Y-129656020D01*
X209479491Y-129656020D01*
X209517654Y-129659779D01*
X209555817Y-129656020D01*
X209555820Y-129656020D01*
X209669973Y-129644777D01*
X209816438Y-129600347D01*
X209951420Y-129528197D01*
X210069734Y-129431100D01*
X210094067Y-129401450D01*
X210119118Y-129376399D01*
X230976785Y-129376399D01*
X230978125Y-130109149D01*
X231047375Y-130178399D01*
X232517125Y-130178399D01*
X232517125Y-129168649D01*
X232563125Y-129168649D01*
X232563125Y-130178399D01*
X234032875Y-130178399D01*
X234102125Y-130109149D01*
X234103465Y-129376399D01*
X234098117Y-129322098D01*
X234082278Y-129269883D01*
X234056556Y-129221762D01*
X234021941Y-129179583D01*
X233979762Y-129144968D01*
X233931641Y-129119246D01*
X233879426Y-129103407D01*
X233825125Y-129098059D01*
X232632375Y-129099399D01*
X232563125Y-129168649D01*
X232517125Y-129168649D01*
X232447875Y-129099399D01*
X231255125Y-129098059D01*
X231200824Y-129103407D01*
X231148609Y-129119246D01*
X231100488Y-129144968D01*
X231058309Y-129179583D01*
X231023694Y-129221762D01*
X230997972Y-129269883D01*
X230982133Y-129322098D01*
X230976785Y-129376399D01*
X210119118Y-129376399D01*
X213718518Y-125777000D01*
X224550800Y-125777000D01*
X227296234Y-128522435D01*
X227320562Y-128552079D01*
X227350206Y-128576407D01*
X227350207Y-128576408D01*
X227438875Y-128649176D01*
X227527973Y-128696800D01*
X227573858Y-128721326D01*
X227720323Y-128765756D01*
X227834476Y-128776999D01*
X227834485Y-128776999D01*
X227872641Y-128780757D01*
X227910797Y-128776999D01*
X230380831Y-128776999D01*
X230479592Y-128858050D01*
X230658006Y-128953414D01*
X230851596Y-129012139D01*
X231002472Y-129026999D01*
X232349556Y-129026999D01*
X232399997Y-129031967D01*
X232450438Y-129026999D01*
X232450448Y-129026999D01*
X232601324Y-129012139D01*
X232794914Y-128953414D01*
X232973328Y-128858050D01*
X233129709Y-128729711D01*
X233161874Y-128690518D01*
X234061868Y-127790524D01*
X234158046Y-127673331D01*
X234253410Y-127494918D01*
X234312135Y-127301328D01*
X234331964Y-127100001D01*
X234312135Y-126898673D01*
X234253410Y-126705083D01*
X234158046Y-126526669D01*
X234029708Y-126370288D01*
X233873327Y-126241950D01*
X233694913Y-126146586D01*
X233501323Y-126087861D01*
X233299995Y-126068032D01*
X233098668Y-126087861D01*
X233072808Y-126095706D01*
X233170295Y-125998219D01*
X233185632Y-125985632D01*
X233235868Y-125924420D01*
X233273197Y-125854583D01*
X233296183Y-125778806D01*
X233302000Y-125719747D01*
X233302000Y-125719740D01*
X233303944Y-125700001D01*
X233302000Y-125680261D01*
X233302000Y-124278762D01*
X233501206Y-124277000D01*
X233723000Y-124277000D01*
X233723000Y-124500000D01*
X233729002Y-124557348D01*
X233745397Y-124609116D01*
X233771576Y-124656690D01*
X233806534Y-124698242D01*
X233848927Y-124732176D01*
X233897125Y-124757188D01*
X236239921Y-125694307D01*
X236303611Y-126377124D01*
X236307736Y-126405439D01*
X236323499Y-126457402D01*
X236349097Y-126505292D01*
X236383545Y-126547268D01*
X236425521Y-126581716D01*
X236473411Y-126607314D01*
X236525374Y-126623077D01*
X236579414Y-126628399D01*
X238670836Y-126628399D01*
X238724876Y-126623077D01*
X238776839Y-126607314D01*
X238824729Y-126581716D01*
X238866705Y-126547268D01*
X238995994Y-126417979D01*
X239030442Y-126376003D01*
X239056040Y-126328113D01*
X239071803Y-126276150D01*
X239077125Y-126222110D01*
X239077125Y-125419689D01*
X239383416Y-125113399D01*
X239504674Y-125113399D01*
X239544809Y-125134852D01*
X239597024Y-125150691D01*
X239651325Y-125156039D01*
X241306225Y-125156039D01*
X241360526Y-125150691D01*
X241412741Y-125134852D01*
X241460862Y-125109130D01*
X241503041Y-125074515D01*
X241537656Y-125032336D01*
X241563378Y-124984215D01*
X241579217Y-124932000D01*
X241584565Y-124877699D01*
X241584565Y-124295099D01*
X241579217Y-124240798D01*
X241563378Y-124188583D01*
X241537656Y-124140462D01*
X241503041Y-124098283D01*
X241460862Y-124063668D01*
X241412741Y-124037946D01*
X241360526Y-124022107D01*
X241306225Y-124016759D01*
X239651325Y-124016759D01*
X239597024Y-124022107D01*
X239544809Y-124037946D01*
X239504674Y-124059399D01*
X239191006Y-124059399D01*
X239165125Y-124056850D01*
X239139244Y-124059399D01*
X239061815Y-124067025D01*
X238962475Y-124097160D01*
X238927193Y-124116018D01*
X238689574Y-123878399D01*
X239589468Y-123878399D01*
X239597024Y-123880691D01*
X239651325Y-123886039D01*
X241306225Y-123886039D01*
X241360526Y-123880691D01*
X241368082Y-123878399D01*
X242484771Y-123878399D01*
X242471902Y-123909468D01*
X242446800Y-124035665D01*
X242446800Y-124164335D01*
X242471902Y-124290532D01*
X242521141Y-124409406D01*
X242592626Y-124516391D01*
X242629623Y-124553388D01*
X241803612Y-125379399D01*
X241512164Y-125379399D01*
X241503041Y-125368283D01*
X241460862Y-125333668D01*
X241412741Y-125307946D01*
X241360526Y-125292107D01*
X241306225Y-125286759D01*
X239651325Y-125286759D01*
X239597024Y-125292107D01*
X239544809Y-125307946D01*
X239496688Y-125333668D01*
X239454509Y-125368283D01*
X239419894Y-125410462D01*
X239394172Y-125458583D01*
X239378333Y-125510798D01*
X239372985Y-125565099D01*
X239372985Y-126147699D01*
X239378333Y-126202000D01*
X239394172Y-126254215D01*
X239419894Y-126302336D01*
X239454509Y-126344515D01*
X239496688Y-126379130D01*
X239544809Y-126404852D01*
X239597024Y-126420691D01*
X239651325Y-126426039D01*
X241306225Y-126426039D01*
X241360526Y-126420691D01*
X241412741Y-126404852D01*
X241460862Y-126379130D01*
X241503041Y-126344515D01*
X241512164Y-126333399D01*
X241918548Y-126333399D01*
X241988633Y-126326496D01*
X242078548Y-126299221D01*
X242161414Y-126254928D01*
X242234046Y-126195320D01*
X242293654Y-126122688D01*
X242337947Y-126039822D01*
X242363085Y-125956952D01*
X243370297Y-124949741D01*
X243385632Y-124937156D01*
X243435868Y-124875944D01*
X243438823Y-124870416D01*
X243473197Y-124806108D01*
X243496183Y-124730330D01*
X243499050Y-124701217D01*
X243502000Y-124671271D01*
X243502000Y-124671264D01*
X243503944Y-124651524D01*
X243502000Y-124631785D01*
X243502000Y-124616990D01*
X243516391Y-124607374D01*
X243607374Y-124516391D01*
X243678859Y-124409406D01*
X243728098Y-124290532D01*
X243753200Y-124164335D01*
X243753200Y-124035665D01*
X243728098Y-123909468D01*
X243715229Y-123878399D01*
X243850125Y-123878399D01*
X243904182Y-123873073D01*
X243956144Y-123857307D01*
X244004032Y-123831706D01*
X244046006Y-123797255D01*
X244080452Y-123755278D01*
X244106046Y-123707386D01*
X244121806Y-123655422D01*
X244127125Y-123601382D01*
X244127094Y-123108511D01*
X244131663Y-123101673D01*
X244227926Y-122869274D01*
X244277000Y-122622561D01*
X244277000Y-122371013D01*
X244270374Y-122337699D01*
X245015685Y-122337699D01*
X245021033Y-122392000D01*
X245036872Y-122444215D01*
X245062594Y-122492336D01*
X245097209Y-122534515D01*
X245139388Y-122569130D01*
X245187509Y-122594852D01*
X245239724Y-122610691D01*
X245294025Y-122616039D01*
X246029225Y-122614699D01*
X246098475Y-122545449D01*
X246098475Y-122069399D01*
X246144475Y-122069399D01*
X246144475Y-122545449D01*
X246213725Y-122614699D01*
X246948925Y-122616039D01*
X247003226Y-122610691D01*
X247055441Y-122594852D01*
X247103562Y-122569130D01*
X247145741Y-122534515D01*
X247180356Y-122492336D01*
X247206078Y-122444215D01*
X247221917Y-122392000D01*
X247227265Y-122337699D01*
X247225925Y-122138649D01*
X247156675Y-122069399D01*
X246144475Y-122069399D01*
X246098475Y-122069399D01*
X245086275Y-122069399D01*
X245017025Y-122138649D01*
X245015685Y-122337699D01*
X244270374Y-122337699D01*
X244227926Y-122124300D01*
X244131663Y-121891901D01*
X244127018Y-121884949D01*
X244127010Y-121755099D01*
X245015685Y-121755099D01*
X245017025Y-121954149D01*
X245086275Y-122023399D01*
X246098475Y-122023399D01*
X246098475Y-121547349D01*
X246144475Y-121547349D01*
X246144475Y-122023399D01*
X247156675Y-122023399D01*
X247225925Y-121954149D01*
X247226121Y-121925000D01*
X252021660Y-121925000D01*
X252023000Y-122407750D01*
X252092250Y-122477000D01*
X252977000Y-122477000D01*
X252977000Y-121717250D01*
X253023000Y-121717250D01*
X253023000Y-122477000D01*
X253907750Y-122477000D01*
X253977000Y-122407750D01*
X253978340Y-121925000D01*
X253972992Y-121870699D01*
X253957153Y-121818484D01*
X253931431Y-121770363D01*
X253896816Y-121728184D01*
X253854637Y-121693569D01*
X253806516Y-121667847D01*
X253754301Y-121652008D01*
X253700000Y-121646660D01*
X253092250Y-121648000D01*
X253023000Y-121717250D01*
X252977000Y-121717250D01*
X252907750Y-121648000D01*
X252300000Y-121646660D01*
X252245699Y-121652008D01*
X252193484Y-121667847D01*
X252145363Y-121693569D01*
X252103184Y-121728184D01*
X252068569Y-121770363D01*
X252042847Y-121818484D01*
X252027008Y-121870699D01*
X252021660Y-121925000D01*
X247226121Y-121925000D01*
X247227265Y-121755099D01*
X247221917Y-121700798D01*
X247206078Y-121648583D01*
X247180356Y-121600462D01*
X247145741Y-121558283D01*
X247103562Y-121523668D01*
X247055441Y-121497946D01*
X247003226Y-121482107D01*
X246948925Y-121476759D01*
X246213725Y-121478099D01*
X246144475Y-121547349D01*
X246098475Y-121547349D01*
X246029225Y-121478099D01*
X245294025Y-121476759D01*
X245239724Y-121482107D01*
X245187509Y-121497946D01*
X245139388Y-121523668D01*
X245097209Y-121558283D01*
X245062594Y-121600462D01*
X245036872Y-121648583D01*
X245021033Y-121700798D01*
X245015685Y-121755099D01*
X244127010Y-121755099D01*
X244127000Y-121599983D01*
X244121678Y-121545960D01*
X244105915Y-121493997D01*
X244080317Y-121446107D01*
X244045869Y-121404131D01*
X244003893Y-121369683D01*
X243956003Y-121344085D01*
X243904040Y-121328322D01*
X243850000Y-121323000D01*
X243503190Y-121323000D01*
X243372487Y-121268861D01*
X243164550Y-121227500D01*
X248320346Y-121227500D01*
X248321500Y-121837149D01*
X248390750Y-121906399D01*
X249477000Y-121906399D01*
X249477000Y-121886399D01*
X249523000Y-121886399D01*
X249523000Y-121906399D01*
X250609250Y-121906399D01*
X250678500Y-121837149D01*
X250679654Y-121227500D01*
X268322501Y-121227500D01*
X268322500Y-122336375D01*
X268321158Y-122350000D01*
X268326516Y-122404399D01*
X268342384Y-122456708D01*
X268361427Y-122492336D01*
X268368151Y-122504916D01*
X268402829Y-122547171D01*
X268445084Y-122581849D01*
X268493292Y-122607616D01*
X268545601Y-122623484D01*
X268600000Y-122628842D01*
X268613625Y-122627500D01*
X275622500Y-122627500D01*
X275622499Y-145572500D01*
X265820071Y-145572500D01*
X265916241Y-145553371D01*
X266175938Y-145445800D01*
X266409660Y-145289633D01*
X266608424Y-145090869D01*
X266764591Y-144857147D01*
X266872162Y-144597450D01*
X266927000Y-144321756D01*
X266927000Y-144040662D01*
X266872162Y-143764968D01*
X266764591Y-143505271D01*
X266608424Y-143271549D01*
X266409660Y-143072785D01*
X266175938Y-142916618D01*
X265916241Y-142809047D01*
X265640547Y-142754209D01*
X265359453Y-142754209D01*
X265083759Y-142809047D01*
X264824062Y-142916618D01*
X264590340Y-143072785D01*
X264477125Y-143186000D01*
X264477125Y-142158320D01*
X264464435Y-142029477D01*
X264414287Y-141864162D01*
X264332852Y-141711807D01*
X264223258Y-141578266D01*
X264089716Y-141468672D01*
X263937361Y-141387237D01*
X263772046Y-141337089D01*
X263712347Y-141331209D01*
X264318031Y-141331209D01*
X264337860Y-141532536D01*
X264396585Y-141726126D01*
X264491949Y-141904540D01*
X264620288Y-142060921D01*
X264776669Y-142189260D01*
X264955083Y-142284624D01*
X265148673Y-142343349D01*
X265299549Y-142358209D01*
X265924935Y-142358209D01*
X266075811Y-142343349D01*
X266269401Y-142284624D01*
X266447815Y-142189260D01*
X266604196Y-142060921D01*
X266732535Y-141904540D01*
X266827899Y-141726126D01*
X266886624Y-141532536D01*
X266906453Y-141331209D01*
X266905222Y-141318709D01*
X266958075Y-141318709D01*
X266963423Y-141373010D01*
X266979262Y-141425225D01*
X267004984Y-141473346D01*
X267039599Y-141515525D01*
X267081778Y-141550140D01*
X267129899Y-141575862D01*
X267182114Y-141591701D01*
X267236415Y-141597049D01*
X267744165Y-141595709D01*
X267813415Y-141526459D01*
X267813415Y-140741709D01*
X267859415Y-140741709D01*
X267859415Y-141526459D01*
X267928665Y-141595709D01*
X268436415Y-141597049D01*
X268490716Y-141591701D01*
X268542931Y-141575862D01*
X268591052Y-141550140D01*
X268633231Y-141515525D01*
X268667846Y-141473346D01*
X268693568Y-141425225D01*
X268709407Y-141373010D01*
X268714755Y-141318709D01*
X268713415Y-140810959D01*
X268644165Y-140741709D01*
X267859415Y-140741709D01*
X267813415Y-140741709D01*
X267028665Y-140741709D01*
X266959415Y-140810959D01*
X266958075Y-141318709D01*
X266905222Y-141318709D01*
X266886624Y-141129882D01*
X266827899Y-140936292D01*
X266732535Y-140757878D01*
X266604196Y-140601497D01*
X266447815Y-140473158D01*
X266269401Y-140377794D01*
X266075811Y-140319069D01*
X265924935Y-140304209D01*
X265299549Y-140304209D01*
X265148673Y-140319069D01*
X264955083Y-140377794D01*
X264776669Y-140473158D01*
X264620288Y-140601497D01*
X264491949Y-140757878D01*
X264396585Y-140936292D01*
X264337860Y-141129882D01*
X264318031Y-141331209D01*
X263712347Y-141331209D01*
X263600125Y-141320156D01*
X263428203Y-141337089D01*
X263262888Y-141387237D01*
X263110533Y-141468672D01*
X262976992Y-141578266D01*
X262867398Y-141711808D01*
X262785963Y-141864163D01*
X262735815Y-142029478D01*
X262723125Y-142158321D01*
X262723126Y-143344478D01*
X262735816Y-143473321D01*
X262785964Y-143638636D01*
X262867399Y-143790991D01*
X262976993Y-143924532D01*
X263110534Y-144034126D01*
X263262889Y-144115561D01*
X263428204Y-144165709D01*
X263600125Y-144182642D01*
X263772047Y-144165709D01*
X263937362Y-144115561D01*
X264073000Y-144043061D01*
X264073000Y-144321756D01*
X264127838Y-144597450D01*
X264235409Y-144857147D01*
X264391576Y-145090869D01*
X264590340Y-145289633D01*
X264824062Y-145445800D01*
X265083759Y-145553371D01*
X265179929Y-145572500D01*
X252477499Y-145572500D01*
X252477499Y-142158321D01*
X252823125Y-142158321D01*
X252823126Y-143344478D01*
X252835816Y-143473321D01*
X252885964Y-143638636D01*
X252967399Y-143790991D01*
X253076993Y-143924532D01*
X253210534Y-144034126D01*
X253362889Y-144115561D01*
X253528204Y-144165709D01*
X253700125Y-144182642D01*
X253872047Y-144165709D01*
X254037362Y-144115561D01*
X254189717Y-144034126D01*
X254323258Y-143924532D01*
X254432852Y-143790991D01*
X254514287Y-143638636D01*
X254564435Y-143473321D01*
X254577125Y-143344478D01*
X254577125Y-142158320D01*
X254564435Y-142029477D01*
X254514287Y-141864162D01*
X254432852Y-141711807D01*
X254341918Y-141601003D01*
X255873125Y-141601003D01*
X255873125Y-141901795D01*
X255931806Y-142196809D01*
X256046915Y-142474705D01*
X256214026Y-142724805D01*
X256426719Y-142937498D01*
X256676819Y-143104609D01*
X256954715Y-143219718D01*
X257249729Y-143278399D01*
X257550521Y-143278399D01*
X257845535Y-143219718D01*
X258123431Y-143104609D01*
X258373531Y-142937498D01*
X258586224Y-142724805D01*
X258753335Y-142474705D01*
X258868444Y-142196809D01*
X258927125Y-141901795D01*
X258927125Y-141601003D01*
X258868444Y-141305989D01*
X258753335Y-141028093D01*
X258586224Y-140777993D01*
X258373531Y-140565300D01*
X258123431Y-140398189D01*
X257845535Y-140283080D01*
X257550521Y-140224399D01*
X257249729Y-140224399D01*
X256954715Y-140283080D01*
X256676819Y-140398189D01*
X256426719Y-140565300D01*
X256214026Y-140777993D01*
X256046915Y-141028093D01*
X255931806Y-141305989D01*
X255873125Y-141601003D01*
X254341918Y-141601003D01*
X254323258Y-141578266D01*
X254189716Y-141468672D01*
X254037361Y-141387237D01*
X253872046Y-141337089D01*
X253700125Y-141320156D01*
X253528203Y-141337089D01*
X253362888Y-141387237D01*
X253210533Y-141468672D01*
X253076992Y-141578266D01*
X252967398Y-141711808D01*
X252885963Y-141864163D01*
X252835815Y-142029478D01*
X252823125Y-142158321D01*
X252477499Y-142158321D01*
X252477499Y-140118709D01*
X266958075Y-140118709D01*
X266959415Y-140626459D01*
X267028665Y-140695709D01*
X267813415Y-140695709D01*
X267813415Y-139910959D01*
X267859415Y-139910959D01*
X267859415Y-140695709D01*
X268644165Y-140695709D01*
X268713415Y-140626459D01*
X268714755Y-140118709D01*
X268709407Y-140064408D01*
X268693568Y-140012193D01*
X268667846Y-139964072D01*
X268633231Y-139921893D01*
X268591052Y-139887278D01*
X268542931Y-139861556D01*
X268490716Y-139845717D01*
X268436415Y-139840369D01*
X267928665Y-139841709D01*
X267859415Y-139910959D01*
X267813415Y-139910959D01*
X267744165Y-139841709D01*
X267236415Y-139840369D01*
X267182114Y-139845717D01*
X267129899Y-139861556D01*
X267081778Y-139887278D01*
X267039599Y-139921893D01*
X267004984Y-139964072D01*
X266979262Y-140012193D01*
X266963423Y-140064408D01*
X266958075Y-140118709D01*
X252477499Y-140118709D01*
X252477499Y-139308908D01*
X267278743Y-139308908D01*
X267337217Y-139444926D01*
X267488487Y-139528360D01*
X267653128Y-139580680D01*
X267824812Y-139599875D01*
X267996942Y-139585208D01*
X268162903Y-139537240D01*
X268316317Y-139457818D01*
X268335613Y-139444926D01*
X268394087Y-139308908D01*
X267836415Y-138751236D01*
X267278743Y-139308908D01*
X252477499Y-139308908D01*
X252477499Y-138707106D01*
X266955249Y-138707106D01*
X266969916Y-138879236D01*
X267017884Y-139045197D01*
X267097306Y-139198611D01*
X267110198Y-139217907D01*
X267246216Y-139276381D01*
X267803888Y-138718709D01*
X267868942Y-138718709D01*
X268426614Y-139276381D01*
X268562632Y-139217907D01*
X268646066Y-139066637D01*
X268698386Y-138901996D01*
X268717581Y-138730312D01*
X268702914Y-138558182D01*
X268654946Y-138392221D01*
X268575524Y-138238807D01*
X268562632Y-138219511D01*
X268426614Y-138161037D01*
X267868942Y-138718709D01*
X267803888Y-138718709D01*
X267246216Y-138161037D01*
X267110198Y-138219511D01*
X267026764Y-138370781D01*
X266974444Y-138535422D01*
X266955249Y-138707106D01*
X252477499Y-138707106D01*
X252477499Y-138128510D01*
X267278743Y-138128510D01*
X267836415Y-138686182D01*
X268394087Y-138128510D01*
X268335613Y-137992492D01*
X268184343Y-137909058D01*
X268019702Y-137856738D01*
X267848018Y-137837543D01*
X267675888Y-137852210D01*
X267509927Y-137900178D01*
X267356513Y-137979600D01*
X267337217Y-137992492D01*
X267278743Y-138128510D01*
X252477499Y-138128510D01*
X252477499Y-131963625D01*
X252478841Y-131950000D01*
X252473483Y-131895601D01*
X252457615Y-131843292D01*
X252431848Y-131795084D01*
X252397170Y-131752829D01*
X252354915Y-131718151D01*
X252306707Y-131692384D01*
X252254398Y-131676516D01*
X252213624Y-131672500D01*
X252199999Y-131671158D01*
X252186374Y-131672500D01*
X249438908Y-131672500D01*
X249474755Y-131641839D01*
X249508341Y-131599171D01*
X249532958Y-131550770D01*
X249547660Y-131498496D01*
X249551881Y-131444359D01*
X249526535Y-130200000D01*
X249671660Y-130200000D01*
X249677008Y-130254301D01*
X249692847Y-130306516D01*
X249718569Y-130354637D01*
X249753184Y-130396816D01*
X249795363Y-130431431D01*
X249843484Y-130457153D01*
X249895699Y-130472992D01*
X249950000Y-130478340D01*
X250432750Y-130477000D01*
X250502000Y-130407750D01*
X250502000Y-129523000D01*
X250548000Y-129523000D01*
X250548000Y-130407750D01*
X250617250Y-130477000D01*
X251100000Y-130478340D01*
X251154301Y-130472992D01*
X251206516Y-130457153D01*
X251254637Y-130431431D01*
X251262473Y-130425000D01*
X252776660Y-130425000D01*
X252776660Y-132075000D01*
X252782008Y-132129301D01*
X252797847Y-132181516D01*
X252823569Y-132229637D01*
X252858184Y-132271816D01*
X252900363Y-132306431D01*
X252948484Y-132332153D01*
X253000699Y-132347992D01*
X253055000Y-132353340D01*
X253063000Y-132353340D01*
X253063001Y-134702194D01*
X253033202Y-134738504D01*
X252914624Y-134960348D01*
X252841603Y-135201064D01*
X252816947Y-135451399D01*
X252841603Y-135701734D01*
X252914624Y-135942450D01*
X253033202Y-136164294D01*
X253192782Y-136358742D01*
X253217761Y-136379242D01*
X253242075Y-136424730D01*
X253370414Y-136581111D01*
X253526795Y-136709450D01*
X253705209Y-136804814D01*
X253898799Y-136863539D01*
X254100125Y-136883368D01*
X254301452Y-136863539D01*
X254495042Y-136804814D01*
X254673456Y-136709450D01*
X254829837Y-136581111D01*
X254958176Y-136424730D01*
X254987379Y-136370095D01*
X255198615Y-136158859D01*
X255247344Y-136118868D01*
X255406924Y-135924420D01*
X255525502Y-135702575D01*
X255598522Y-135461860D01*
X255617000Y-135274250D01*
X255617000Y-135274243D01*
X255623177Y-135211525D01*
X255617000Y-135148806D01*
X255617000Y-135000949D01*
X256473125Y-135000949D01*
X256473125Y-135901850D01*
X256487986Y-136052726D01*
X256546711Y-136246316D01*
X256642075Y-136424730D01*
X256770414Y-136581111D01*
X256926795Y-136709450D01*
X257105209Y-136804814D01*
X257298799Y-136863539D01*
X257500125Y-136883368D01*
X257701452Y-136863539D01*
X257895042Y-136804814D01*
X258073456Y-136709450D01*
X258229837Y-136581111D01*
X258358176Y-136424730D01*
X258453540Y-136246316D01*
X258512265Y-136052725D01*
X258527125Y-135901849D01*
X258527125Y-135474399D01*
X261673125Y-135474399D01*
X261673125Y-135874399D01*
X261697346Y-136074315D01*
X261760103Y-136265664D01*
X261858984Y-136441093D01*
X261990190Y-136593861D01*
X262148678Y-136718096D01*
X262328358Y-136809025D01*
X262516790Y-136861902D01*
X262677125Y-136808873D01*
X262677125Y-135474399D01*
X262723125Y-135474399D01*
X262723125Y-136808873D01*
X262883460Y-136861902D01*
X263071892Y-136809025D01*
X263251572Y-136718096D01*
X263360982Y-136632332D01*
X266959415Y-136632332D01*
X266959415Y-136805086D01*
X266993118Y-136974520D01*
X267059228Y-137134124D01*
X267155205Y-137277764D01*
X267277360Y-137399919D01*
X267421000Y-137495896D01*
X267580604Y-137562006D01*
X267750038Y-137595709D01*
X267922792Y-137595709D01*
X268092226Y-137562006D01*
X268251830Y-137495896D01*
X268395470Y-137399919D01*
X268517625Y-137277764D01*
X268613602Y-137134124D01*
X268679712Y-136974520D01*
X268713415Y-136805086D01*
X268713415Y-136632332D01*
X268679712Y-136462898D01*
X268613602Y-136303294D01*
X268517625Y-136159654D01*
X268395470Y-136037499D01*
X268251830Y-135941522D01*
X268092226Y-135875412D01*
X267922792Y-135841709D01*
X267750038Y-135841709D01*
X267580604Y-135875412D01*
X267421000Y-135941522D01*
X267277360Y-136037499D01*
X267155205Y-136159654D01*
X267059228Y-136303294D01*
X266993118Y-136462898D01*
X266959415Y-136632332D01*
X263360982Y-136632332D01*
X263410060Y-136593861D01*
X263541266Y-136441093D01*
X263640147Y-136265664D01*
X263702904Y-136074315D01*
X263727125Y-135874399D01*
X263727125Y-135474399D01*
X262723125Y-135474399D01*
X262677125Y-135474399D01*
X261673125Y-135474399D01*
X258527125Y-135474399D01*
X258527125Y-135028399D01*
X261673125Y-135028399D01*
X261673125Y-135428399D01*
X262677125Y-135428399D01*
X262677125Y-134093925D01*
X262723125Y-134093925D01*
X262723125Y-135428399D01*
X263727125Y-135428399D01*
X263727125Y-135028399D01*
X263702904Y-134828483D01*
X263640147Y-134637134D01*
X263637441Y-134632332D01*
X266959415Y-134632332D01*
X266959415Y-134805086D01*
X266993118Y-134974520D01*
X267059228Y-135134124D01*
X267155205Y-135277764D01*
X267277360Y-135399919D01*
X267421000Y-135495896D01*
X267580604Y-135562006D01*
X267750038Y-135595709D01*
X267922792Y-135595709D01*
X268092226Y-135562006D01*
X268251830Y-135495896D01*
X268395470Y-135399919D01*
X268517625Y-135277764D01*
X268613602Y-135134124D01*
X268679712Y-134974520D01*
X268713415Y-134805086D01*
X268713415Y-134632332D01*
X268679712Y-134462898D01*
X268613602Y-134303294D01*
X268517625Y-134159654D01*
X268395470Y-134037499D01*
X268251830Y-133941522D01*
X268092226Y-133875412D01*
X267922792Y-133841709D01*
X267750038Y-133841709D01*
X267580604Y-133875412D01*
X267421000Y-133941522D01*
X267277360Y-134037499D01*
X267155205Y-134159654D01*
X267059228Y-134303294D01*
X266993118Y-134462898D01*
X266959415Y-134632332D01*
X263637441Y-134632332D01*
X263541266Y-134461705D01*
X263410060Y-134308937D01*
X263251572Y-134184702D01*
X263071892Y-134093773D01*
X262883460Y-134040896D01*
X262723125Y-134093925D01*
X262677125Y-134093925D01*
X262516790Y-134040896D01*
X262328358Y-134093773D01*
X262148678Y-134184702D01*
X261990190Y-134308937D01*
X261858984Y-134461705D01*
X261760103Y-134637134D01*
X261697346Y-134828483D01*
X261673125Y-135028399D01*
X258527125Y-135028399D01*
X258527125Y-135000948D01*
X258512265Y-134850072D01*
X258453540Y-134656482D01*
X258358176Y-134478068D01*
X258229837Y-134321687D01*
X258073456Y-134193348D01*
X257895041Y-134097984D01*
X257701451Y-134039259D01*
X257500125Y-134019430D01*
X257298798Y-134039259D01*
X257105208Y-134097984D01*
X256926794Y-134193348D01*
X256770413Y-134321687D01*
X256642074Y-134478068D01*
X256546710Y-134656483D01*
X256487985Y-134850073D01*
X256473125Y-135000949D01*
X255617000Y-135000949D01*
X255617000Y-132632332D01*
X266959415Y-132632332D01*
X266959415Y-132805086D01*
X266993118Y-132974520D01*
X267059228Y-133134124D01*
X267155205Y-133277764D01*
X267277360Y-133399919D01*
X267421000Y-133495896D01*
X267580604Y-133562006D01*
X267750038Y-133595709D01*
X267922792Y-133595709D01*
X268092226Y-133562006D01*
X268251830Y-133495896D01*
X268395470Y-133399919D01*
X268517625Y-133277764D01*
X268613602Y-133134124D01*
X268679712Y-132974520D01*
X268713415Y-132805086D01*
X268713415Y-132632332D01*
X268679712Y-132462898D01*
X268613602Y-132303294D01*
X268517625Y-132159654D01*
X268395470Y-132037499D01*
X268251830Y-131941522D01*
X268092226Y-131875412D01*
X267922792Y-131841709D01*
X267750038Y-131841709D01*
X267580604Y-131875412D01*
X267421000Y-131941522D01*
X267277360Y-132037499D01*
X267155205Y-132159654D01*
X267059228Y-132303294D01*
X266993118Y-132462898D01*
X266959415Y-132632332D01*
X255617000Y-132632332D01*
X255617000Y-132353340D01*
X255625000Y-132353340D01*
X255679301Y-132347992D01*
X255731516Y-132332153D01*
X255779637Y-132306431D01*
X255821816Y-132271816D01*
X255856431Y-132229637D01*
X255882153Y-132181516D01*
X255897992Y-132129301D01*
X255903340Y-132075000D01*
X255903340Y-130425000D01*
X255897992Y-130370699D01*
X255882153Y-130318484D01*
X255856431Y-130270363D01*
X255821816Y-130228184D01*
X255779637Y-130193569D01*
X255731516Y-130167847D01*
X255679301Y-130152008D01*
X255625000Y-130146660D01*
X254984765Y-130146660D01*
X254831050Y-130064498D01*
X254590335Y-129991478D01*
X254340000Y-129966822D01*
X254089664Y-129991478D01*
X253848949Y-130064498D01*
X253695234Y-130146660D01*
X253055000Y-130146660D01*
X253000699Y-130152008D01*
X252948484Y-130167847D01*
X252900363Y-130193569D01*
X252858184Y-130228184D01*
X252823569Y-130270363D01*
X252797847Y-130318484D01*
X252782008Y-130370699D01*
X252776660Y-130425000D01*
X251262473Y-130425000D01*
X251296816Y-130396816D01*
X251331431Y-130354637D01*
X251357153Y-130306516D01*
X251372992Y-130254301D01*
X251378340Y-130200000D01*
X251377000Y-129592250D01*
X251307750Y-129523000D01*
X250548000Y-129523000D01*
X250502000Y-129523000D01*
X249742250Y-129523000D01*
X249673000Y-129592250D01*
X249671660Y-130200000D01*
X249526535Y-130200000D01*
X249507763Y-129278399D01*
X249672715Y-129278399D01*
X249673000Y-129407750D01*
X249742250Y-129477000D01*
X250502000Y-129477000D01*
X250502000Y-129457000D01*
X250548000Y-129457000D01*
X250548000Y-129477000D01*
X251307750Y-129477000D01*
X251377000Y-129407750D01*
X251377285Y-129278399D01*
X255022448Y-129278399D01*
X256296660Y-130552611D01*
X256296660Y-132075000D01*
X256302008Y-132129301D01*
X256317847Y-132181516D01*
X256343569Y-132229637D01*
X256378184Y-132271816D01*
X256420363Y-132306431D01*
X256468484Y-132332153D01*
X256520699Y-132347992D01*
X256575000Y-132353340D01*
X257215234Y-132353340D01*
X257368949Y-132435502D01*
X257609664Y-132508522D01*
X257860000Y-132533178D01*
X258110335Y-132508522D01*
X258351050Y-132435502D01*
X258504765Y-132353340D01*
X259145000Y-132353340D01*
X259199301Y-132347992D01*
X259251516Y-132332153D01*
X259299637Y-132306431D01*
X259341816Y-132271816D01*
X259376431Y-132229637D01*
X259402153Y-132181516D01*
X259417992Y-132129301D01*
X259423340Y-132075000D01*
X259423340Y-130425000D01*
X259417992Y-130370699D01*
X259402153Y-130318484D01*
X259376431Y-130270363D01*
X259341816Y-130228184D01*
X259299637Y-130193569D01*
X259251516Y-130167847D01*
X259199301Y-130152008D01*
X259145000Y-130146660D01*
X259127091Y-130146660D01*
X259118523Y-130059664D01*
X259045502Y-129818949D01*
X259028104Y-129786399D01*
X258926924Y-129597104D01*
X258767344Y-129402656D01*
X258718620Y-129362669D01*
X257127125Y-127771174D01*
X257127125Y-126508907D01*
X261922999Y-126508907D01*
X261922999Y-127124873D01*
X262043168Y-127729002D01*
X262278888Y-128298080D01*
X262621100Y-128810236D01*
X263056653Y-129245789D01*
X263568809Y-129588001D01*
X264137887Y-129823721D01*
X264742016Y-129943890D01*
X265357982Y-129943890D01*
X265962111Y-129823721D01*
X266531189Y-129588001D01*
X267043345Y-129245789D01*
X267478898Y-128810236D01*
X267821110Y-128298080D01*
X268056830Y-127729002D01*
X268176999Y-127124873D01*
X268176999Y-126508907D01*
X268056830Y-125904778D01*
X267821110Y-125335700D01*
X267478898Y-124823544D01*
X267043345Y-124387991D01*
X266531189Y-124045779D01*
X265962111Y-123810059D01*
X265357982Y-123689890D01*
X264742016Y-123689890D01*
X264137887Y-123810059D01*
X263568809Y-124045779D01*
X263056653Y-124387991D01*
X262621100Y-124823544D01*
X262278888Y-125335700D01*
X262043168Y-125904778D01*
X261922999Y-126508907D01*
X257127125Y-126508907D01*
X257127125Y-124430688D01*
X257121803Y-124376648D01*
X257106040Y-124324685D01*
X257080442Y-124276795D01*
X257045994Y-124234819D01*
X256216705Y-123405530D01*
X256174729Y-123371082D01*
X256126839Y-123345484D01*
X256074876Y-123329721D01*
X256020836Y-123324399D01*
X253821022Y-123324399D01*
X253854637Y-123306431D01*
X253896816Y-123271816D01*
X253931431Y-123229637D01*
X253957153Y-123181516D01*
X253972992Y-123129301D01*
X253978340Y-123075000D01*
X253977000Y-122592250D01*
X253907750Y-122523000D01*
X253023000Y-122523000D01*
X253023000Y-122543000D01*
X252977000Y-122543000D01*
X252977000Y-122523000D01*
X252092250Y-122523000D01*
X252023000Y-122592250D01*
X252021660Y-123075000D01*
X252027008Y-123129301D01*
X252042847Y-123181516D01*
X252068569Y-123229637D01*
X252103184Y-123271816D01*
X252145363Y-123306431D01*
X252178978Y-123324399D01*
X250935572Y-123324399D01*
X250564852Y-122953678D01*
X250598316Y-122926215D01*
X250632931Y-122884036D01*
X250658653Y-122835915D01*
X250674492Y-122783700D01*
X250679840Y-122729399D01*
X250678500Y-122021649D01*
X250609250Y-121952399D01*
X249523000Y-121952399D01*
X249523000Y-121972399D01*
X249477000Y-121972399D01*
X249477000Y-121952399D01*
X248390750Y-121952399D01*
X248321500Y-122021649D01*
X248320359Y-122624399D01*
X247979414Y-122624399D01*
X247925374Y-122629721D01*
X247873411Y-122645484D01*
X247825521Y-122671082D01*
X247783545Y-122705531D01*
X247227265Y-123261811D01*
X247227265Y-123025099D01*
X247221917Y-122970798D01*
X247206078Y-122918583D01*
X247180356Y-122870462D01*
X247145741Y-122828283D01*
X247103562Y-122793668D01*
X247055441Y-122767946D01*
X247003226Y-122752107D01*
X246948925Y-122746759D01*
X245294025Y-122746759D01*
X245239724Y-122752107D01*
X245187509Y-122767946D01*
X245139388Y-122793668D01*
X245097209Y-122828283D01*
X245062594Y-122870462D01*
X245039932Y-122912858D01*
X245024286Y-122914399D01*
X245024278Y-122914399D01*
X244965219Y-122920216D01*
X244889442Y-122943202D01*
X244819605Y-122980531D01*
X244758393Y-123030767D01*
X244757489Y-123031869D01*
X244756393Y-123032768D01*
X244743807Y-123048104D01*
X244743804Y-123048107D01*
X244736999Y-123056399D01*
X244706157Y-123093980D01*
X244676653Y-123149177D01*
X244668828Y-123163817D01*
X244645841Y-123239595D01*
X244638080Y-123318400D01*
X244640025Y-123338149D01*
X244640024Y-127019452D01*
X244603309Y-127049583D01*
X244568694Y-127091762D01*
X244542972Y-127139883D01*
X244527133Y-127192098D01*
X244521785Y-127246399D01*
X244521785Y-127846399D01*
X244527133Y-127900700D01*
X244542972Y-127952915D01*
X244568694Y-128001036D01*
X244603309Y-128043215D01*
X244645488Y-128077830D01*
X244693609Y-128103552D01*
X244745824Y-128119391D01*
X244796673Y-128124399D01*
X243821193Y-128124399D01*
X243812831Y-127101601D01*
X243807518Y-127049825D01*
X243791755Y-126997862D01*
X243766157Y-126949972D01*
X243731709Y-126907996D01*
X243689733Y-126873548D01*
X243641843Y-126847950D01*
X243267640Y-126692950D01*
X243240993Y-126671082D01*
X243193103Y-126645484D01*
X243141140Y-126629721D01*
X243087100Y-126624399D01*
X239779414Y-126624399D01*
X239725374Y-126629721D01*
X239673411Y-126645484D01*
X239625521Y-126671082D01*
X239583545Y-126705530D01*
X239247855Y-127041220D01*
X239213407Y-127083196D01*
X239187809Y-127131086D01*
X238994210Y-127598475D01*
X238978447Y-127650438D01*
X238973125Y-127704478D01*
X238973125Y-128315952D01*
X238754106Y-128534970D01*
X238745632Y-128543827D01*
X238443094Y-128874399D01*
X235801224Y-128874399D01*
X235747342Y-128879690D01*
X235695370Y-128895423D01*
X235647465Y-128920992D01*
X235605470Y-128955416D01*
X235570997Y-128997372D01*
X235545371Y-129045246D01*
X235529578Y-129097201D01*
X235529493Y-129098059D01*
X234775125Y-129098059D01*
X234720824Y-129103407D01*
X234668609Y-129119246D01*
X234620488Y-129144968D01*
X234578309Y-129179583D01*
X234543694Y-129221762D01*
X234517972Y-129269883D01*
X234502133Y-129322098D01*
X234496785Y-129376399D01*
X234496785Y-131026399D01*
X234502133Y-131080700D01*
X234517972Y-131132915D01*
X234543694Y-131181036D01*
X234578309Y-131223215D01*
X234620488Y-131257830D01*
X234668609Y-131283552D01*
X234720824Y-131299391D01*
X234775125Y-131304739D01*
X235528891Y-131304739D01*
X235529340Y-131308925D01*
X235546037Y-131360596D01*
X235681865Y-131672500D01*
X192013625Y-131672500D01*
X192000000Y-131671158D01*
X191986375Y-131672500D01*
X191945601Y-131676516D01*
X191893292Y-131692384D01*
X191845084Y-131718151D01*
X191802829Y-131752829D01*
X191768151Y-131795084D01*
X191742384Y-131843292D01*
X191726516Y-131895601D01*
X191721158Y-131950000D01*
X191722501Y-131963635D01*
X191722500Y-145572500D01*
X146477500Y-145572500D01*
X146477500Y-136863625D01*
X146478842Y-136850000D01*
X146473484Y-136795601D01*
X146457616Y-136743292D01*
X146431849Y-136695084D01*
X146397171Y-136652829D01*
X146354916Y-136618151D01*
X146306708Y-136592384D01*
X146254399Y-136576516D01*
X146213625Y-136572500D01*
X146200000Y-136571158D01*
X146186375Y-136572500D01*
X134377500Y-136572500D01*
X134377500Y-134696187D01*
X135423000Y-134696187D01*
X135423000Y-134908337D01*
X135464389Y-135116411D01*
X135545575Y-135312413D01*
X135663440Y-135488809D01*
X135813453Y-135638822D01*
X135989849Y-135756687D01*
X136185851Y-135837873D01*
X136393925Y-135879262D01*
X136606075Y-135879262D01*
X136814149Y-135837873D01*
X137010151Y-135756687D01*
X137186547Y-135638822D01*
X137336560Y-135488809D01*
X137454425Y-135312413D01*
X137535611Y-135116411D01*
X137577000Y-134908337D01*
X137577000Y-134696187D01*
X137535611Y-134488113D01*
X137454425Y-134292111D01*
X137336560Y-134115715D01*
X137186547Y-133965702D01*
X137010151Y-133847837D01*
X136814149Y-133766651D01*
X136606075Y-133725262D01*
X136393925Y-133725262D01*
X136185851Y-133766651D01*
X135989849Y-133847837D01*
X135813453Y-133965702D01*
X135663440Y-134115715D01*
X135545575Y-134292111D01*
X135464389Y-134488113D01*
X135423000Y-134696187D01*
X134377500Y-134696187D01*
X134377500Y-132091715D01*
X135073000Y-132091715D01*
X135073000Y-132372809D01*
X135127838Y-132648503D01*
X135235409Y-132908200D01*
X135391576Y-133141922D01*
X135590340Y-133340686D01*
X135824062Y-133496853D01*
X136083759Y-133604424D01*
X136359453Y-133659262D01*
X136640547Y-133659262D01*
X136916241Y-133604424D01*
X137175938Y-133496853D01*
X137409660Y-133340686D01*
X137608424Y-133141922D01*
X137764591Y-132908200D01*
X137872162Y-132648503D01*
X137927000Y-132372809D01*
X137927000Y-132091715D01*
X137872162Y-131816021D01*
X137764591Y-131556324D01*
X137608424Y-131322602D01*
X137409660Y-131123838D01*
X137175938Y-130967671D01*
X136916241Y-130860100D01*
X136640547Y-130805262D01*
X136359453Y-130805262D01*
X136083759Y-130860100D01*
X135824062Y-130967671D01*
X135590340Y-131123838D01*
X135391576Y-131322602D01*
X135235409Y-131556324D01*
X135127838Y-131816021D01*
X135073000Y-132091715D01*
X134377500Y-132091715D01*
X134377500Y-127627500D01*
X143586375Y-127627500D01*
X143600000Y-127628842D01*
X143613625Y-127627500D01*
X143654399Y-127623484D01*
X143706708Y-127607616D01*
X143754916Y-127581849D01*
X143797171Y-127547171D01*
X143831849Y-127504916D01*
X143857616Y-127456708D01*
X143873484Y-127404399D01*
X143878842Y-127350000D01*
X143877500Y-127336375D01*
X143877500Y-122627500D01*
X146186375Y-122627500D01*
X146200000Y-122628842D01*
X146213625Y-122627500D01*
X146254399Y-122623484D01*
X146306708Y-122607616D01*
X146354916Y-122581849D01*
X146397171Y-122547171D01*
X146431849Y-122504916D01*
X146457616Y-122456708D01*
X146473484Y-122404399D01*
X146478842Y-122350000D01*
X146477500Y-122336375D01*
X146477500Y-121227500D01*
X230203986Y-121227500D01*
X229829710Y-121601777D01*
G37*
X229829710Y-121601777D02*
X229814368Y-121614368D01*
X229764132Y-121675581D01*
X229726803Y-121745418D01*
X229703817Y-121821195D01*
X229698000Y-121880254D01*
X229698000Y-121880261D01*
X229696056Y-121900000D01*
X229698000Y-121919740D01*
X229698001Y-122880251D01*
X229696056Y-122900000D01*
X229703817Y-122978805D01*
X229721536Y-123037217D01*
X229726804Y-123054583D01*
X229764133Y-123124420D01*
X229768139Y-123129301D01*
X229796466Y-123163817D01*
X229814369Y-123185632D01*
X229829705Y-123198218D01*
X230737366Y-124105879D01*
X230745033Y-124130373D01*
X230771053Y-124178035D01*
X230805871Y-124219704D01*
X230807479Y-124221000D01*
X230761184Y-124221000D01*
X228517753Y-121977569D01*
X228493420Y-121947920D01*
X228375106Y-121850823D01*
X228240124Y-121778673D01*
X228093659Y-121734243D01*
X227979506Y-121723000D01*
X227979503Y-121723000D01*
X227941340Y-121719241D01*
X227903177Y-121723000D01*
X162538155Y-121723000D01*
X162499999Y-121719242D01*
X162461843Y-121723000D01*
X162461834Y-121723000D01*
X162347681Y-121734243D01*
X162201216Y-121778673D01*
X162066234Y-121850823D01*
X161947920Y-121947920D01*
X161927338Y-121973000D01*
X156071843Y-121973000D01*
X155853540Y-121754697D01*
X155853536Y-121754691D01*
X155745309Y-121646464D01*
X155713401Y-121625144D01*
X155683766Y-121600823D01*
X155649956Y-121582751D01*
X155618048Y-121561431D01*
X155582595Y-121546746D01*
X155548783Y-121528673D01*
X155512097Y-121517545D01*
X155476643Y-121502859D01*
X155439003Y-121495372D01*
X155402318Y-121484244D01*
X155364162Y-121480486D01*
X155326528Y-121473000D01*
X155288163Y-121473000D01*
X155250000Y-121469241D01*
X155211837Y-121473000D01*
X155173472Y-121473000D01*
X155135838Y-121480486D01*
X155097682Y-121484244D01*
X155060997Y-121495372D01*
X155023357Y-121502859D01*
X154987903Y-121517545D01*
X154951217Y-121528673D01*
X154917405Y-121546746D01*
X154881952Y-121561431D01*
X154850044Y-121582751D01*
X154816234Y-121600823D01*
X154786601Y-121625142D01*
X154754691Y-121646464D01*
X154727551Y-121673604D01*
X154697921Y-121697921D01*
X154673604Y-121727551D01*
X154646464Y-121754691D01*
X154625142Y-121786601D01*
X154600823Y-121816234D01*
X154582751Y-121850044D01*
X154561431Y-121881952D01*
X154546746Y-121917405D01*
X154528673Y-121951217D01*
X154517545Y-121987903D01*
X154502859Y-122023357D01*
X154495372Y-122060997D01*
X154484244Y-122097682D01*
X154480486Y-122135838D01*
X154473000Y-122173472D01*
X154473000Y-122211837D01*
X154469241Y-122250000D01*
X154473000Y-122288163D01*
X154473000Y-122326528D01*
X154480486Y-122364162D01*
X154484244Y-122402318D01*
X154495372Y-122439003D01*
X154502859Y-122476643D01*
X154517545Y-122512097D01*
X154528673Y-122548783D01*
X154546746Y-122582595D01*
X154561431Y-122618048D01*
X154582751Y-122649956D01*
X154600823Y-122683766D01*
X154625144Y-122713401D01*
X154646464Y-122745309D01*
X154754691Y-122853536D01*
X154754697Y-122853540D01*
X155173587Y-123272430D01*
X155197920Y-123302080D01*
X155258748Y-123352000D01*
X155316233Y-123399177D01*
X155354644Y-123419708D01*
X155367000Y-123426312D01*
X155367000Y-136250000D01*
X155374359Y-136324720D01*
X155396154Y-136396568D01*
X155431547Y-136462783D01*
X155479178Y-136520822D01*
X155537217Y-136568453D01*
X155603432Y-136603846D01*
X155675280Y-136625641D01*
X155750000Y-136633000D01*
X159500000Y-136633000D01*
X159574720Y-136625641D01*
X159646568Y-136603846D01*
X159712783Y-136568453D01*
X159770822Y-136520822D01*
X159818453Y-136462783D01*
X159853846Y-136396568D01*
X159875641Y-136324720D01*
X159883000Y-136250000D01*
X159883000Y-136103205D01*
X159896154Y-136146568D01*
X159931547Y-136212783D01*
X159979178Y-136270822D01*
X160037217Y-136318453D01*
X160103432Y-136353846D01*
X160175280Y-136375641D01*
X160250000Y-136383000D01*
X163298486Y-136383000D01*
X161979705Y-137701782D01*
X161964369Y-137714368D01*
X161914133Y-137775580D01*
X161907913Y-137787217D01*
X161876804Y-137845417D01*
X161853817Y-137921195D01*
X161846056Y-138000000D01*
X161848001Y-138019749D01*
X161848000Y-139454386D01*
X161818437Y-139474140D01*
X161724140Y-139568437D01*
X161650050Y-139679320D01*
X161599016Y-139802526D01*
X161573000Y-139933321D01*
X161573000Y-140066679D01*
X161599016Y-140197474D01*
X161650050Y-140320680D01*
X161724140Y-140431563D01*
X161818437Y-140525860D01*
X161929320Y-140599950D01*
X162052526Y-140650984D01*
X162183321Y-140677000D01*
X162316679Y-140677000D01*
X162447474Y-140650984D01*
X162570680Y-140599950D01*
X162681563Y-140525860D01*
X162775860Y-140431563D01*
X162849950Y-140320680D01*
X162900984Y-140197474D01*
X162927000Y-140066679D01*
X162927000Y-139933321D01*
X162900984Y-139802526D01*
X162849950Y-139679320D01*
X162775860Y-139568437D01*
X162681563Y-139474140D01*
X162652000Y-139454387D01*
X162652000Y-138166513D01*
X164261313Y-136557201D01*
X164301815Y-136617816D01*
X164382184Y-136698185D01*
X164476688Y-136761331D01*
X164581695Y-136804826D01*
X164693170Y-136827000D01*
X164806830Y-136827000D01*
X164918305Y-136804826D01*
X165023312Y-136761331D01*
X165043989Y-136747515D01*
X165043989Y-138387497D01*
X164129710Y-139301777D01*
X164129705Y-139301781D01*
X164101550Y-139329936D01*
X164066679Y-139323000D01*
X163933321Y-139323000D01*
X163802526Y-139349016D01*
X163679320Y-139400050D01*
X163568437Y-139474140D01*
X163474140Y-139568437D01*
X163400050Y-139679320D01*
X163349016Y-139802526D01*
X163323000Y-139933321D01*
X163323000Y-140066679D01*
X163349016Y-140197474D01*
X163400050Y-140320680D01*
X163474140Y-140431563D01*
X163568437Y-140525860D01*
X163679320Y-140599950D01*
X163802526Y-140650984D01*
X163933321Y-140677000D01*
X164066679Y-140677000D01*
X164197474Y-140650984D01*
X164320680Y-140599950D01*
X164431563Y-140525860D01*
X164522266Y-140435157D01*
X164522373Y-140435416D01*
X164618350Y-140579056D01*
X164740505Y-140701211D01*
X164773115Y-140723000D01*
X161076656Y-140723000D01*
X161127180Y-137754714D01*
X161121898Y-137695960D01*
X161106135Y-137643997D01*
X161080537Y-137596107D01*
X161046089Y-137554131D01*
X161004113Y-137519683D01*
X160956223Y-137494085D01*
X160904260Y-137478322D01*
X160850220Y-137473000D01*
X148649780Y-137473000D01*
X148600371Y-137477442D01*
X148548147Y-137492318D01*
X148499829Y-137517097D01*
X148457273Y-137550826D01*
X148422115Y-137592210D01*
X148395706Y-137639657D01*
X148379062Y-137691344D01*
X148372820Y-137745286D01*
X148272600Y-143633217D01*
X148277882Y-143691971D01*
X148293645Y-143743934D01*
X148319243Y-143791824D01*
X148353691Y-143833800D01*
X148395667Y-143868248D01*
X148443557Y-143893846D01*
X148495520Y-143909609D01*
X148549560Y-143914931D01*
X160750000Y-143914931D01*
X160799409Y-143910489D01*
X160851633Y-143895613D01*
X160899951Y-143870834D01*
X160942507Y-143837105D01*
X160977665Y-143795721D01*
X161004074Y-143748274D01*
X161020718Y-143696587D01*
X161026960Y-143642645D01*
X161033184Y-143277000D01*
X166187274Y-143277000D01*
X166250000Y-143283178D01*
X166312726Y-143277000D01*
X166500336Y-143258522D01*
X166741051Y-143185502D01*
X166962896Y-143066924D01*
X167157344Y-142907344D01*
X167197335Y-142858615D01*
X168958621Y-141097330D01*
X169007344Y-141057344D01*
X169166924Y-140862896D01*
X169285502Y-140641051D01*
X169358522Y-140400336D01*
X169377000Y-140212726D01*
X169377000Y-140212725D01*
X169383178Y-140150001D01*
X169378582Y-140103340D01*
X169775000Y-140103340D01*
X169829301Y-140097992D01*
X169848001Y-140092320D01*
X169848001Y-141267800D01*
X169229710Y-141886092D01*
X169214368Y-141898683D01*
X169164132Y-141959896D01*
X169126803Y-142029733D01*
X169103817Y-142105510D01*
X169098000Y-142164569D01*
X169098000Y-142164576D01*
X169096056Y-142184315D01*
X169098000Y-142204055D01*
X169098000Y-142204386D01*
X169068437Y-142224140D01*
X168974140Y-142318437D01*
X168900050Y-142429320D01*
X168849016Y-142552526D01*
X168823000Y-142683321D01*
X168823000Y-142816679D01*
X168849016Y-142947474D01*
X168900050Y-143070680D01*
X168974140Y-143181563D01*
X169068437Y-143275860D01*
X169179320Y-143349950D01*
X169302526Y-143400984D01*
X169433321Y-143427000D01*
X169566679Y-143427000D01*
X169697474Y-143400984D01*
X169820680Y-143349950D01*
X169931563Y-143275860D01*
X170025860Y-143181563D01*
X170099950Y-143070680D01*
X170150984Y-142947474D01*
X170177000Y-142816679D01*
X170177000Y-142683321D01*
X170150984Y-142552526D01*
X170099950Y-142429320D01*
X170025860Y-142318437D01*
X169980126Y-142272703D01*
X170388381Y-141864448D01*
X170425280Y-141875641D01*
X170500000Y-141883000D01*
X175250000Y-141883000D01*
X175324720Y-141875641D01*
X175396568Y-141853846D01*
X175462783Y-141818453D01*
X175520822Y-141770822D01*
X175568453Y-141712783D01*
X175603846Y-141646568D01*
X175625641Y-141574720D01*
X175633000Y-141500000D01*
X175633000Y-138000000D01*
X175625641Y-137925280D01*
X175603846Y-137853432D01*
X175568453Y-137787217D01*
X175520822Y-137729178D01*
X175462783Y-137681547D01*
X175396568Y-137646154D01*
X175324720Y-137624359D01*
X175250000Y-137617000D01*
X170652000Y-137617000D01*
X170652000Y-132269739D01*
X170653944Y-132249999D01*
X170652000Y-132230260D01*
X170652000Y-132230253D01*
X170646183Y-132171194D01*
X170623197Y-132095417D01*
X170585868Y-132025580D01*
X170535632Y-131964368D01*
X170520296Y-131951783D01*
X169902000Y-131333487D01*
X169902000Y-129845373D01*
X169903184Y-129846816D01*
X169945363Y-129881431D01*
X169993484Y-129907153D01*
X170045699Y-129922992D01*
X170100000Y-129928340D01*
X170807750Y-129927000D01*
X170877000Y-129857750D01*
X170877000Y-128773000D01*
X170923000Y-128773000D01*
X170923000Y-129857750D01*
X170992250Y-129927000D01*
X171700000Y-129928340D01*
X171754301Y-129922992D01*
X171806516Y-129907153D01*
X171854637Y-129881431D01*
X171896816Y-129846816D01*
X171931431Y-129804637D01*
X171957153Y-129756516D01*
X171972992Y-129704301D01*
X171978340Y-129650000D01*
X171977000Y-128842250D01*
X171907750Y-128773000D01*
X170923000Y-128773000D01*
X170877000Y-128773000D01*
X170857000Y-128773000D01*
X170857000Y-128727000D01*
X170877000Y-128727000D01*
X170877000Y-127642250D01*
X170923000Y-127642250D01*
X170923000Y-128727000D01*
X171907750Y-128727000D01*
X171977000Y-128657750D01*
X171978340Y-127850000D01*
X171972992Y-127795699D01*
X171957153Y-127743484D01*
X171931431Y-127695363D01*
X171896816Y-127653184D01*
X171854637Y-127618569D01*
X171806516Y-127592847D01*
X171754301Y-127577008D01*
X171700000Y-127571660D01*
X170992250Y-127573000D01*
X170923000Y-127642250D01*
X170877000Y-127642250D01*
X170807750Y-127573000D01*
X170100000Y-127571660D01*
X170045699Y-127577008D01*
X169993484Y-127592847D01*
X169945363Y-127618569D01*
X169903184Y-127653184D01*
X169902000Y-127654627D01*
X169902000Y-126916513D01*
X171916514Y-124902000D01*
X212395830Y-124902000D01*
X209195811Y-128102020D01*
X206909143Y-128102020D01*
X206870980Y-128098261D01*
X206832816Y-128102020D01*
X206832814Y-128102020D01*
X206718661Y-128113263D01*
X206572196Y-128157693D01*
X206516166Y-128187642D01*
X206437213Y-128229843D01*
X206352219Y-128299596D01*
X206318900Y-128326940D01*
X206294572Y-128356584D01*
X204628157Y-130023000D01*
X192121844Y-130023000D01*
X191826405Y-129727561D01*
X191802079Y-129697921D01*
X191772438Y-129673595D01*
X191772434Y-129673591D01*
X191683766Y-129600823D01*
X191548783Y-129528673D01*
X191402318Y-129484244D01*
X191250000Y-129469241D01*
X191112684Y-129482766D01*
X191097681Y-129484244D01*
X190951216Y-129528673D01*
X190816233Y-129600823D01*
X190727565Y-129673591D01*
X190727556Y-129673600D01*
X190697921Y-129697921D01*
X190673599Y-129727557D01*
X190416705Y-129984451D01*
X190250000Y-129968032D01*
X190048672Y-129987861D01*
X189855082Y-130046586D01*
X189676668Y-130141950D01*
X189559475Y-130238128D01*
X188558059Y-131239545D01*
X186448222Y-129129709D01*
X186435631Y-129114367D01*
X186374419Y-129064131D01*
X186304582Y-129026802D01*
X186228805Y-129003816D01*
X186169746Y-128997999D01*
X186169738Y-128997999D01*
X186149999Y-128996055D01*
X186130260Y-128997999D01*
X183927000Y-128997999D01*
X183927000Y-128933321D01*
X183900984Y-128802526D01*
X183849950Y-128679320D01*
X183775860Y-128568437D01*
X183681563Y-128474140D01*
X183570680Y-128400050D01*
X183447474Y-128349016D01*
X183316679Y-128323000D01*
X183183321Y-128323000D01*
X183052526Y-128349016D01*
X182929320Y-128400050D01*
X182818437Y-128474140D01*
X182724140Y-128568437D01*
X182650050Y-128679320D01*
X182599016Y-128802526D01*
X182573000Y-128933321D01*
X182573000Y-129066679D01*
X182599016Y-129197474D01*
X182650050Y-129320680D01*
X182724140Y-129431563D01*
X182818437Y-129525860D01*
X182929320Y-129599950D01*
X183052526Y-129650984D01*
X183183321Y-129677000D01*
X183316679Y-129677000D01*
X183351550Y-129670064D01*
X183351778Y-129670292D01*
X183364367Y-129685631D01*
X183425579Y-129735867D01*
X183495416Y-129773196D01*
X183571193Y-129796182D01*
X183630252Y-129801999D01*
X183630259Y-129801999D01*
X183649998Y-129803943D01*
X183669738Y-129801999D01*
X185983486Y-129801999D01*
X188044255Y-131862768D01*
X188031873Y-131903585D01*
X188012467Y-131950435D01*
X188002574Y-132000172D01*
X187987861Y-132048673D01*
X187982893Y-132099113D01*
X187973000Y-132148849D01*
X187973000Y-132199559D01*
X187968032Y-132250000D01*
X187973000Y-132300441D01*
X187973000Y-132351151D01*
X187982893Y-132400887D01*
X187987861Y-132451327D01*
X188002574Y-132499828D01*
X188012467Y-132549565D01*
X188031873Y-132596415D01*
X188046586Y-132644917D01*
X188070480Y-132689620D01*
X188089885Y-132736467D01*
X188118055Y-132778627D01*
X188141950Y-132823331D01*
X188174107Y-132862515D01*
X188202277Y-132904674D01*
X188238129Y-132940526D01*
X188270288Y-132979712D01*
X188309474Y-133011871D01*
X188345326Y-133047723D01*
X188387485Y-133075893D01*
X188426669Y-133108050D01*
X188471373Y-133131945D01*
X188513533Y-133160115D01*
X188560380Y-133179520D01*
X188605083Y-133203414D01*
X188653585Y-133218127D01*
X188700435Y-133237533D01*
X188750172Y-133247426D01*
X188798673Y-133262139D01*
X188849113Y-133267107D01*
X188898849Y-133277000D01*
X188949559Y-133277000D01*
X189000000Y-133281968D01*
X189050441Y-133277000D01*
X189101151Y-133277000D01*
X189150887Y-133267107D01*
X189201327Y-133262139D01*
X189249828Y-133247426D01*
X189299565Y-133237533D01*
X189346415Y-133218127D01*
X189394917Y-133203414D01*
X189439620Y-133179520D01*
X189486467Y-133160115D01*
X189528627Y-133131945D01*
X189573331Y-133108050D01*
X189612514Y-133075894D01*
X189654674Y-133047723D01*
X189797723Y-132904674D01*
X189797725Y-132904671D01*
X191011872Y-131690525D01*
X191108050Y-131573332D01*
X191202827Y-131396016D01*
X191247399Y-131351445D01*
X191247920Y-131352080D01*
X191277564Y-131376408D01*
X191277565Y-131376409D01*
X191366233Y-131449177D01*
X191498260Y-131519747D01*
X191501216Y-131521327D01*
X191647681Y-131565757D01*
X191761834Y-131577000D01*
X191761843Y-131577000D01*
X191799999Y-131580758D01*
X191838155Y-131577000D01*
X204911837Y-131577000D01*
X204950000Y-131580759D01*
X204988163Y-131577000D01*
X204988166Y-131577000D01*
X205102319Y-131565757D01*
X205248784Y-131521327D01*
X205383766Y-131449177D01*
X205502080Y-131352080D01*
X205526412Y-131322431D01*
X205822444Y-131026399D01*
X230976785Y-131026399D01*
X230982133Y-131080700D01*
X230997972Y-131132915D01*
X231023694Y-131181036D01*
X231058309Y-131223215D01*
X231100488Y-131257830D01*
X231148609Y-131283552D01*
X231200824Y-131299391D01*
X231255125Y-131304739D01*
X232447875Y-131303399D01*
X232517125Y-131234149D01*
X232517125Y-130224399D01*
X232563125Y-130224399D01*
X232563125Y-131234149D01*
X232632375Y-131303399D01*
X233825125Y-131304739D01*
X233879426Y-131299391D01*
X233931641Y-131283552D01*
X233979762Y-131257830D01*
X234021941Y-131223215D01*
X234056556Y-131181036D01*
X234082278Y-131132915D01*
X234098117Y-131080700D01*
X234103465Y-131026399D01*
X234102125Y-130293649D01*
X234032875Y-130224399D01*
X232563125Y-130224399D01*
X232517125Y-130224399D01*
X231047375Y-130224399D01*
X230978125Y-130293649D01*
X230976785Y-131026399D01*
X205822444Y-131026399D01*
X207192824Y-129656020D01*
X209479491Y-129656020D01*
X209517654Y-129659779D01*
X209555817Y-129656020D01*
X209555820Y-129656020D01*
X209669973Y-129644777D01*
X209816438Y-129600347D01*
X209951420Y-129528197D01*
X210069734Y-129431100D01*
X210094067Y-129401450D01*
X210119118Y-129376399D01*
X230976785Y-129376399D01*
X230978125Y-130109149D01*
X231047375Y-130178399D01*
X232517125Y-130178399D01*
X232517125Y-129168649D01*
X232563125Y-129168649D01*
X232563125Y-130178399D01*
X234032875Y-130178399D01*
X234102125Y-130109149D01*
X234103465Y-129376399D01*
X234098117Y-129322098D01*
X234082278Y-129269883D01*
X234056556Y-129221762D01*
X234021941Y-129179583D01*
X233979762Y-129144968D01*
X233931641Y-129119246D01*
X233879426Y-129103407D01*
X233825125Y-129098059D01*
X232632375Y-129099399D01*
X232563125Y-129168649D01*
X232517125Y-129168649D01*
X232447875Y-129099399D01*
X231255125Y-129098059D01*
X231200824Y-129103407D01*
X231148609Y-129119246D01*
X231100488Y-129144968D01*
X231058309Y-129179583D01*
X231023694Y-129221762D01*
X230997972Y-129269883D01*
X230982133Y-129322098D01*
X230976785Y-129376399D01*
X210119118Y-129376399D01*
X213718518Y-125777000D01*
X224550800Y-125777000D01*
X227296234Y-128522435D01*
X227320562Y-128552079D01*
X227350206Y-128576407D01*
X227350207Y-128576408D01*
X227438875Y-128649176D01*
X227527973Y-128696800D01*
X227573858Y-128721326D01*
X227720323Y-128765756D01*
X227834476Y-128776999D01*
X227834485Y-128776999D01*
X227872641Y-128780757D01*
X227910797Y-128776999D01*
X230380831Y-128776999D01*
X230479592Y-128858050D01*
X230658006Y-128953414D01*
X230851596Y-129012139D01*
X231002472Y-129026999D01*
X232349556Y-129026999D01*
X232399997Y-129031967D01*
X232450438Y-129026999D01*
X232450448Y-129026999D01*
X232601324Y-129012139D01*
X232794914Y-128953414D01*
X232973328Y-128858050D01*
X233129709Y-128729711D01*
X233161874Y-128690518D01*
X234061868Y-127790524D01*
X234158046Y-127673331D01*
X234253410Y-127494918D01*
X234312135Y-127301328D01*
X234331964Y-127100001D01*
X234312135Y-126898673D01*
X234253410Y-126705083D01*
X234158046Y-126526669D01*
X234029708Y-126370288D01*
X233873327Y-126241950D01*
X233694913Y-126146586D01*
X233501323Y-126087861D01*
X233299995Y-126068032D01*
X233098668Y-126087861D01*
X233072808Y-126095706D01*
X233170295Y-125998219D01*
X233185632Y-125985632D01*
X233235868Y-125924420D01*
X233273197Y-125854583D01*
X233296183Y-125778806D01*
X233302000Y-125719747D01*
X233302000Y-125719740D01*
X233303944Y-125700001D01*
X233302000Y-125680261D01*
X233302000Y-124278762D01*
X233501206Y-124277000D01*
X233723000Y-124277000D01*
X233723000Y-124500000D01*
X233729002Y-124557348D01*
X233745397Y-124609116D01*
X233771576Y-124656690D01*
X233806534Y-124698242D01*
X233848927Y-124732176D01*
X233897125Y-124757188D01*
X236239921Y-125694307D01*
X236303611Y-126377124D01*
X236307736Y-126405439D01*
X236323499Y-126457402D01*
X236349097Y-126505292D01*
X236383545Y-126547268D01*
X236425521Y-126581716D01*
X236473411Y-126607314D01*
X236525374Y-126623077D01*
X236579414Y-126628399D01*
X238670836Y-126628399D01*
X238724876Y-126623077D01*
X238776839Y-126607314D01*
X238824729Y-126581716D01*
X238866705Y-126547268D01*
X238995994Y-126417979D01*
X239030442Y-126376003D01*
X239056040Y-126328113D01*
X239071803Y-126276150D01*
X239077125Y-126222110D01*
X239077125Y-125419689D01*
X239383416Y-125113399D01*
X239504674Y-125113399D01*
X239544809Y-125134852D01*
X239597024Y-125150691D01*
X239651325Y-125156039D01*
X241306225Y-125156039D01*
X241360526Y-125150691D01*
X241412741Y-125134852D01*
X241460862Y-125109130D01*
X241503041Y-125074515D01*
X241537656Y-125032336D01*
X241563378Y-124984215D01*
X241579217Y-124932000D01*
X241584565Y-124877699D01*
X241584565Y-124295099D01*
X241579217Y-124240798D01*
X241563378Y-124188583D01*
X241537656Y-124140462D01*
X241503041Y-124098283D01*
X241460862Y-124063668D01*
X241412741Y-124037946D01*
X241360526Y-124022107D01*
X241306225Y-124016759D01*
X239651325Y-124016759D01*
X239597024Y-124022107D01*
X239544809Y-124037946D01*
X239504674Y-124059399D01*
X239191006Y-124059399D01*
X239165125Y-124056850D01*
X239139244Y-124059399D01*
X239061815Y-124067025D01*
X238962475Y-124097160D01*
X238927193Y-124116018D01*
X238689574Y-123878399D01*
X239589468Y-123878399D01*
X239597024Y-123880691D01*
X239651325Y-123886039D01*
X241306225Y-123886039D01*
X241360526Y-123880691D01*
X241368082Y-123878399D01*
X242484771Y-123878399D01*
X242471902Y-123909468D01*
X242446800Y-124035665D01*
X242446800Y-124164335D01*
X242471902Y-124290532D01*
X242521141Y-124409406D01*
X242592626Y-124516391D01*
X242629623Y-124553388D01*
X241803612Y-125379399D01*
X241512164Y-125379399D01*
X241503041Y-125368283D01*
X241460862Y-125333668D01*
X241412741Y-125307946D01*
X241360526Y-125292107D01*
X241306225Y-125286759D01*
X239651325Y-125286759D01*
X239597024Y-125292107D01*
X239544809Y-125307946D01*
X239496688Y-125333668D01*
X239454509Y-125368283D01*
X239419894Y-125410462D01*
X239394172Y-125458583D01*
X239378333Y-125510798D01*
X239372985Y-125565099D01*
X239372985Y-126147699D01*
X239378333Y-126202000D01*
X239394172Y-126254215D01*
X239419894Y-126302336D01*
X239454509Y-126344515D01*
X239496688Y-126379130D01*
X239544809Y-126404852D01*
X239597024Y-126420691D01*
X239651325Y-126426039D01*
X241306225Y-126426039D01*
X241360526Y-126420691D01*
X241412741Y-126404852D01*
X241460862Y-126379130D01*
X241503041Y-126344515D01*
X241512164Y-126333399D01*
X241918548Y-126333399D01*
X241988633Y-126326496D01*
X242078548Y-126299221D01*
X242161414Y-126254928D01*
X242234046Y-126195320D01*
X242293654Y-126122688D01*
X242337947Y-126039822D01*
X242363085Y-125956952D01*
X243370297Y-124949741D01*
X243385632Y-124937156D01*
X243435868Y-124875944D01*
X243438823Y-124870416D01*
X243473197Y-124806108D01*
X243496183Y-124730330D01*
X243499050Y-124701217D01*
X243502000Y-124671271D01*
X243502000Y-124671264D01*
X243503944Y-124651524D01*
X243502000Y-124631785D01*
X243502000Y-124616990D01*
X243516391Y-124607374D01*
X243607374Y-124516391D01*
X243678859Y-124409406D01*
X243728098Y-124290532D01*
X243753200Y-124164335D01*
X243753200Y-124035665D01*
X243728098Y-123909468D01*
X243715229Y-123878399D01*
X243850125Y-123878399D01*
X243904182Y-123873073D01*
X243956144Y-123857307D01*
X244004032Y-123831706D01*
X244046006Y-123797255D01*
X244080452Y-123755278D01*
X244106046Y-123707386D01*
X244121806Y-123655422D01*
X244127125Y-123601382D01*
X244127094Y-123108511D01*
X244131663Y-123101673D01*
X244227926Y-122869274D01*
X244277000Y-122622561D01*
X244277000Y-122371013D01*
X244270374Y-122337699D01*
X245015685Y-122337699D01*
X245021033Y-122392000D01*
X245036872Y-122444215D01*
X245062594Y-122492336D01*
X245097209Y-122534515D01*
X245139388Y-122569130D01*
X245187509Y-122594852D01*
X245239724Y-122610691D01*
X245294025Y-122616039D01*
X246029225Y-122614699D01*
X246098475Y-122545449D01*
X246098475Y-122069399D01*
X246144475Y-122069399D01*
X246144475Y-122545449D01*
X246213725Y-122614699D01*
X246948925Y-122616039D01*
X247003226Y-122610691D01*
X247055441Y-122594852D01*
X247103562Y-122569130D01*
X247145741Y-122534515D01*
X247180356Y-122492336D01*
X247206078Y-122444215D01*
X247221917Y-122392000D01*
X247227265Y-122337699D01*
X247225925Y-122138649D01*
X247156675Y-122069399D01*
X246144475Y-122069399D01*
X246098475Y-122069399D01*
X245086275Y-122069399D01*
X245017025Y-122138649D01*
X245015685Y-122337699D01*
X244270374Y-122337699D01*
X244227926Y-122124300D01*
X244131663Y-121891901D01*
X244127018Y-121884949D01*
X244127010Y-121755099D01*
X245015685Y-121755099D01*
X245017025Y-121954149D01*
X245086275Y-122023399D01*
X246098475Y-122023399D01*
X246098475Y-121547349D01*
X246144475Y-121547349D01*
X246144475Y-122023399D01*
X247156675Y-122023399D01*
X247225925Y-121954149D01*
X247226121Y-121925000D01*
X252021660Y-121925000D01*
X252023000Y-122407750D01*
X252092250Y-122477000D01*
X252977000Y-122477000D01*
X252977000Y-121717250D01*
X253023000Y-121717250D01*
X253023000Y-122477000D01*
X253907750Y-122477000D01*
X253977000Y-122407750D01*
X253978340Y-121925000D01*
X253972992Y-121870699D01*
X253957153Y-121818484D01*
X253931431Y-121770363D01*
X253896816Y-121728184D01*
X253854637Y-121693569D01*
X253806516Y-121667847D01*
X253754301Y-121652008D01*
X253700000Y-121646660D01*
X253092250Y-121648000D01*
X253023000Y-121717250D01*
X252977000Y-121717250D01*
X252907750Y-121648000D01*
X252300000Y-121646660D01*
X252245699Y-121652008D01*
X252193484Y-121667847D01*
X252145363Y-121693569D01*
X252103184Y-121728184D01*
X252068569Y-121770363D01*
X252042847Y-121818484D01*
X252027008Y-121870699D01*
X252021660Y-121925000D01*
X247226121Y-121925000D01*
X247227265Y-121755099D01*
X247221917Y-121700798D01*
X247206078Y-121648583D01*
X247180356Y-121600462D01*
X247145741Y-121558283D01*
X247103562Y-121523668D01*
X247055441Y-121497946D01*
X247003226Y-121482107D01*
X246948925Y-121476759D01*
X246213725Y-121478099D01*
X246144475Y-121547349D01*
X246098475Y-121547349D01*
X246029225Y-121478099D01*
X245294025Y-121476759D01*
X245239724Y-121482107D01*
X245187509Y-121497946D01*
X245139388Y-121523668D01*
X245097209Y-121558283D01*
X245062594Y-121600462D01*
X245036872Y-121648583D01*
X245021033Y-121700798D01*
X245015685Y-121755099D01*
X244127010Y-121755099D01*
X244127000Y-121599983D01*
X244121678Y-121545960D01*
X244105915Y-121493997D01*
X244080317Y-121446107D01*
X244045869Y-121404131D01*
X244003893Y-121369683D01*
X243956003Y-121344085D01*
X243904040Y-121328322D01*
X243850000Y-121323000D01*
X243503190Y-121323000D01*
X243372487Y-121268861D01*
X243164550Y-121227500D01*
X248320346Y-121227500D01*
X248321500Y-121837149D01*
X248390750Y-121906399D01*
X249477000Y-121906399D01*
X249477000Y-121886399D01*
X249523000Y-121886399D01*
X249523000Y-121906399D01*
X250609250Y-121906399D01*
X250678500Y-121837149D01*
X250679654Y-121227500D01*
X268322501Y-121227500D01*
X268322500Y-122336375D01*
X268321158Y-122350000D01*
X268326516Y-122404399D01*
X268342384Y-122456708D01*
X268361427Y-122492336D01*
X268368151Y-122504916D01*
X268402829Y-122547171D01*
X268445084Y-122581849D01*
X268493292Y-122607616D01*
X268545601Y-122623484D01*
X268600000Y-122628842D01*
X268613625Y-122627500D01*
X275622500Y-122627500D01*
X275622499Y-145572500D01*
X265820071Y-145572500D01*
X265916241Y-145553371D01*
X266175938Y-145445800D01*
X266409660Y-145289633D01*
X266608424Y-145090869D01*
X266764591Y-144857147D01*
X266872162Y-144597450D01*
X266927000Y-144321756D01*
X266927000Y-144040662D01*
X266872162Y-143764968D01*
X266764591Y-143505271D01*
X266608424Y-143271549D01*
X266409660Y-143072785D01*
X266175938Y-142916618D01*
X265916241Y-142809047D01*
X265640547Y-142754209D01*
X265359453Y-142754209D01*
X265083759Y-142809047D01*
X264824062Y-142916618D01*
X264590340Y-143072785D01*
X264477125Y-143186000D01*
X264477125Y-142158320D01*
X264464435Y-142029477D01*
X264414287Y-141864162D01*
X264332852Y-141711807D01*
X264223258Y-141578266D01*
X264089716Y-141468672D01*
X263937361Y-141387237D01*
X263772046Y-141337089D01*
X263712347Y-141331209D01*
X264318031Y-141331209D01*
X264337860Y-141532536D01*
X264396585Y-141726126D01*
X264491949Y-141904540D01*
X264620288Y-142060921D01*
X264776669Y-142189260D01*
X264955083Y-142284624D01*
X265148673Y-142343349D01*
X265299549Y-142358209D01*
X265924935Y-142358209D01*
X266075811Y-142343349D01*
X266269401Y-142284624D01*
X266447815Y-142189260D01*
X266604196Y-142060921D01*
X266732535Y-141904540D01*
X266827899Y-141726126D01*
X266886624Y-141532536D01*
X266906453Y-141331209D01*
X266905222Y-141318709D01*
X266958075Y-141318709D01*
X266963423Y-141373010D01*
X266979262Y-141425225D01*
X267004984Y-141473346D01*
X267039599Y-141515525D01*
X267081778Y-141550140D01*
X267129899Y-141575862D01*
X267182114Y-141591701D01*
X267236415Y-141597049D01*
X267744165Y-141595709D01*
X267813415Y-141526459D01*
X267813415Y-140741709D01*
X267859415Y-140741709D01*
X267859415Y-141526459D01*
X267928665Y-141595709D01*
X268436415Y-141597049D01*
X268490716Y-141591701D01*
X268542931Y-141575862D01*
X268591052Y-141550140D01*
X268633231Y-141515525D01*
X268667846Y-141473346D01*
X268693568Y-141425225D01*
X268709407Y-141373010D01*
X268714755Y-141318709D01*
X268713415Y-140810959D01*
X268644165Y-140741709D01*
X267859415Y-140741709D01*
X267813415Y-140741709D01*
X267028665Y-140741709D01*
X266959415Y-140810959D01*
X266958075Y-141318709D01*
X266905222Y-141318709D01*
X266886624Y-141129882D01*
X266827899Y-140936292D01*
X266732535Y-140757878D01*
X266604196Y-140601497D01*
X266447815Y-140473158D01*
X266269401Y-140377794D01*
X266075811Y-140319069D01*
X265924935Y-140304209D01*
X265299549Y-140304209D01*
X265148673Y-140319069D01*
X264955083Y-140377794D01*
X264776669Y-140473158D01*
X264620288Y-140601497D01*
X264491949Y-140757878D01*
X264396585Y-140936292D01*
X264337860Y-141129882D01*
X264318031Y-141331209D01*
X263712347Y-141331209D01*
X263600125Y-141320156D01*
X263428203Y-141337089D01*
X263262888Y-141387237D01*
X263110533Y-141468672D01*
X262976992Y-141578266D01*
X262867398Y-141711808D01*
X262785963Y-141864163D01*
X262735815Y-142029478D01*
X262723125Y-142158321D01*
X262723126Y-143344478D01*
X262735816Y-143473321D01*
X262785964Y-143638636D01*
X262867399Y-143790991D01*
X262976993Y-143924532D01*
X263110534Y-144034126D01*
X263262889Y-144115561D01*
X263428204Y-144165709D01*
X263600125Y-144182642D01*
X263772047Y-144165709D01*
X263937362Y-144115561D01*
X264073000Y-144043061D01*
X264073000Y-144321756D01*
X264127838Y-144597450D01*
X264235409Y-144857147D01*
X264391576Y-145090869D01*
X264590340Y-145289633D01*
X264824062Y-145445800D01*
X265083759Y-145553371D01*
X265179929Y-145572500D01*
X252477499Y-145572500D01*
X252477499Y-142158321D01*
X252823125Y-142158321D01*
X252823126Y-143344478D01*
X252835816Y-143473321D01*
X252885964Y-143638636D01*
X252967399Y-143790991D01*
X253076993Y-143924532D01*
X253210534Y-144034126D01*
X253362889Y-144115561D01*
X253528204Y-144165709D01*
X253700125Y-144182642D01*
X253872047Y-144165709D01*
X254037362Y-144115561D01*
X254189717Y-144034126D01*
X254323258Y-143924532D01*
X254432852Y-143790991D01*
X254514287Y-143638636D01*
X254564435Y-143473321D01*
X254577125Y-143344478D01*
X254577125Y-142158320D01*
X254564435Y-142029477D01*
X254514287Y-141864162D01*
X254432852Y-141711807D01*
X254341918Y-141601003D01*
X255873125Y-141601003D01*
X255873125Y-141901795D01*
X255931806Y-142196809D01*
X256046915Y-142474705D01*
X256214026Y-142724805D01*
X256426719Y-142937498D01*
X256676819Y-143104609D01*
X256954715Y-143219718D01*
X257249729Y-143278399D01*
X257550521Y-143278399D01*
X257845535Y-143219718D01*
X258123431Y-143104609D01*
X258373531Y-142937498D01*
X258586224Y-142724805D01*
X258753335Y-142474705D01*
X258868444Y-142196809D01*
X258927125Y-141901795D01*
X258927125Y-141601003D01*
X258868444Y-141305989D01*
X258753335Y-141028093D01*
X258586224Y-140777993D01*
X258373531Y-140565300D01*
X258123431Y-140398189D01*
X257845535Y-140283080D01*
X257550521Y-140224399D01*
X257249729Y-140224399D01*
X256954715Y-140283080D01*
X256676819Y-140398189D01*
X256426719Y-140565300D01*
X256214026Y-140777993D01*
X256046915Y-141028093D01*
X255931806Y-141305989D01*
X255873125Y-141601003D01*
X254341918Y-141601003D01*
X254323258Y-141578266D01*
X254189716Y-141468672D01*
X254037361Y-141387237D01*
X253872046Y-141337089D01*
X253700125Y-141320156D01*
X253528203Y-141337089D01*
X253362888Y-141387237D01*
X253210533Y-141468672D01*
X253076992Y-141578266D01*
X252967398Y-141711808D01*
X252885963Y-141864163D01*
X252835815Y-142029478D01*
X252823125Y-142158321D01*
X252477499Y-142158321D01*
X252477499Y-140118709D01*
X266958075Y-140118709D01*
X266959415Y-140626459D01*
X267028665Y-140695709D01*
X267813415Y-140695709D01*
X267813415Y-139910959D01*
X267859415Y-139910959D01*
X267859415Y-140695709D01*
X268644165Y-140695709D01*
X268713415Y-140626459D01*
X268714755Y-140118709D01*
X268709407Y-140064408D01*
X268693568Y-140012193D01*
X268667846Y-139964072D01*
X268633231Y-139921893D01*
X268591052Y-139887278D01*
X268542931Y-139861556D01*
X268490716Y-139845717D01*
X268436415Y-139840369D01*
X267928665Y-139841709D01*
X267859415Y-139910959D01*
X267813415Y-139910959D01*
X267744165Y-139841709D01*
X267236415Y-139840369D01*
X267182114Y-139845717D01*
X267129899Y-139861556D01*
X267081778Y-139887278D01*
X267039599Y-139921893D01*
X267004984Y-139964072D01*
X266979262Y-140012193D01*
X266963423Y-140064408D01*
X266958075Y-140118709D01*
X252477499Y-140118709D01*
X252477499Y-139308908D01*
X267278743Y-139308908D01*
X267337217Y-139444926D01*
X267488487Y-139528360D01*
X267653128Y-139580680D01*
X267824812Y-139599875D01*
X267996942Y-139585208D01*
X268162903Y-139537240D01*
X268316317Y-139457818D01*
X268335613Y-139444926D01*
X268394087Y-139308908D01*
X267836415Y-138751236D01*
X267278743Y-139308908D01*
X252477499Y-139308908D01*
X252477499Y-138707106D01*
X266955249Y-138707106D01*
X266969916Y-138879236D01*
X267017884Y-139045197D01*
X267097306Y-139198611D01*
X267110198Y-139217907D01*
X267246216Y-139276381D01*
X267803888Y-138718709D01*
X267868942Y-138718709D01*
X268426614Y-139276381D01*
X268562632Y-139217907D01*
X268646066Y-139066637D01*
X268698386Y-138901996D01*
X268717581Y-138730312D01*
X268702914Y-138558182D01*
X268654946Y-138392221D01*
X268575524Y-138238807D01*
X268562632Y-138219511D01*
X268426614Y-138161037D01*
X267868942Y-138718709D01*
X267803888Y-138718709D01*
X267246216Y-138161037D01*
X267110198Y-138219511D01*
X267026764Y-138370781D01*
X266974444Y-138535422D01*
X266955249Y-138707106D01*
X252477499Y-138707106D01*
X252477499Y-138128510D01*
X267278743Y-138128510D01*
X267836415Y-138686182D01*
X268394087Y-138128510D01*
X268335613Y-137992492D01*
X268184343Y-137909058D01*
X268019702Y-137856738D01*
X267848018Y-137837543D01*
X267675888Y-137852210D01*
X267509927Y-137900178D01*
X267356513Y-137979600D01*
X267337217Y-137992492D01*
X267278743Y-138128510D01*
X252477499Y-138128510D01*
X252477499Y-131963625D01*
X252478841Y-131950000D01*
X252473483Y-131895601D01*
X252457615Y-131843292D01*
X252431848Y-131795084D01*
X252397170Y-131752829D01*
X252354915Y-131718151D01*
X252306707Y-131692384D01*
X252254398Y-131676516D01*
X252213624Y-131672500D01*
X252199999Y-131671158D01*
X252186374Y-131672500D01*
X249438908Y-131672500D01*
X249474755Y-131641839D01*
X249508341Y-131599171D01*
X249532958Y-131550770D01*
X249547660Y-131498496D01*
X249551881Y-131444359D01*
X249526535Y-130200000D01*
X249671660Y-130200000D01*
X249677008Y-130254301D01*
X249692847Y-130306516D01*
X249718569Y-130354637D01*
X249753184Y-130396816D01*
X249795363Y-130431431D01*
X249843484Y-130457153D01*
X249895699Y-130472992D01*
X249950000Y-130478340D01*
X250432750Y-130477000D01*
X250502000Y-130407750D01*
X250502000Y-129523000D01*
X250548000Y-129523000D01*
X250548000Y-130407750D01*
X250617250Y-130477000D01*
X251100000Y-130478340D01*
X251154301Y-130472992D01*
X251206516Y-130457153D01*
X251254637Y-130431431D01*
X251262473Y-130425000D01*
X252776660Y-130425000D01*
X252776660Y-132075000D01*
X252782008Y-132129301D01*
X252797847Y-132181516D01*
X252823569Y-132229637D01*
X252858184Y-132271816D01*
X252900363Y-132306431D01*
X252948484Y-132332153D01*
X253000699Y-132347992D01*
X253055000Y-132353340D01*
X253063000Y-132353340D01*
X253063001Y-134702194D01*
X253033202Y-134738504D01*
X252914624Y-134960348D01*
X252841603Y-135201064D01*
X252816947Y-135451399D01*
X252841603Y-135701734D01*
X252914624Y-135942450D01*
X253033202Y-136164294D01*
X253192782Y-136358742D01*
X253217761Y-136379242D01*
X253242075Y-136424730D01*
X253370414Y-136581111D01*
X253526795Y-136709450D01*
X253705209Y-136804814D01*
X253898799Y-136863539D01*
X254100125Y-136883368D01*
X254301452Y-136863539D01*
X254495042Y-136804814D01*
X254673456Y-136709450D01*
X254829837Y-136581111D01*
X254958176Y-136424730D01*
X254987379Y-136370095D01*
X255198615Y-136158859D01*
X255247344Y-136118868D01*
X255406924Y-135924420D01*
X255525502Y-135702575D01*
X255598522Y-135461860D01*
X255617000Y-135274250D01*
X255617000Y-135274243D01*
X255623177Y-135211525D01*
X255617000Y-135148806D01*
X255617000Y-135000949D01*
X256473125Y-135000949D01*
X256473125Y-135901850D01*
X256487986Y-136052726D01*
X256546711Y-136246316D01*
X256642075Y-136424730D01*
X256770414Y-136581111D01*
X256926795Y-136709450D01*
X257105209Y-136804814D01*
X257298799Y-136863539D01*
X257500125Y-136883368D01*
X257701452Y-136863539D01*
X257895042Y-136804814D01*
X258073456Y-136709450D01*
X258229837Y-136581111D01*
X258358176Y-136424730D01*
X258453540Y-136246316D01*
X258512265Y-136052725D01*
X258527125Y-135901849D01*
X258527125Y-135474399D01*
X261673125Y-135474399D01*
X261673125Y-135874399D01*
X261697346Y-136074315D01*
X261760103Y-136265664D01*
X261858984Y-136441093D01*
X261990190Y-136593861D01*
X262148678Y-136718096D01*
X262328358Y-136809025D01*
X262516790Y-136861902D01*
X262677125Y-136808873D01*
X262677125Y-135474399D01*
X262723125Y-135474399D01*
X262723125Y-136808873D01*
X262883460Y-136861902D01*
X263071892Y-136809025D01*
X263251572Y-136718096D01*
X263360982Y-136632332D01*
X266959415Y-136632332D01*
X266959415Y-136805086D01*
X266993118Y-136974520D01*
X267059228Y-137134124D01*
X267155205Y-137277764D01*
X267277360Y-137399919D01*
X267421000Y-137495896D01*
X267580604Y-137562006D01*
X267750038Y-137595709D01*
X267922792Y-137595709D01*
X268092226Y-137562006D01*
X268251830Y-137495896D01*
X268395470Y-137399919D01*
X268517625Y-137277764D01*
X268613602Y-137134124D01*
X268679712Y-136974520D01*
X268713415Y-136805086D01*
X268713415Y-136632332D01*
X268679712Y-136462898D01*
X268613602Y-136303294D01*
X268517625Y-136159654D01*
X268395470Y-136037499D01*
X268251830Y-135941522D01*
X268092226Y-135875412D01*
X267922792Y-135841709D01*
X267750038Y-135841709D01*
X267580604Y-135875412D01*
X267421000Y-135941522D01*
X267277360Y-136037499D01*
X267155205Y-136159654D01*
X267059228Y-136303294D01*
X266993118Y-136462898D01*
X266959415Y-136632332D01*
X263360982Y-136632332D01*
X263410060Y-136593861D01*
X263541266Y-136441093D01*
X263640147Y-136265664D01*
X263702904Y-136074315D01*
X263727125Y-135874399D01*
X263727125Y-135474399D01*
X262723125Y-135474399D01*
X262677125Y-135474399D01*
X261673125Y-135474399D01*
X258527125Y-135474399D01*
X258527125Y-135028399D01*
X261673125Y-135028399D01*
X261673125Y-135428399D01*
X262677125Y-135428399D01*
X262677125Y-134093925D01*
X262723125Y-134093925D01*
X262723125Y-135428399D01*
X263727125Y-135428399D01*
X263727125Y-135028399D01*
X263702904Y-134828483D01*
X263640147Y-134637134D01*
X263637441Y-134632332D01*
X266959415Y-134632332D01*
X266959415Y-134805086D01*
X266993118Y-134974520D01*
X267059228Y-135134124D01*
X267155205Y-135277764D01*
X267277360Y-135399919D01*
X267421000Y-135495896D01*
X267580604Y-135562006D01*
X267750038Y-135595709D01*
X267922792Y-135595709D01*
X268092226Y-135562006D01*
X268251830Y-135495896D01*
X268395470Y-135399919D01*
X268517625Y-135277764D01*
X268613602Y-135134124D01*
X268679712Y-134974520D01*
X268713415Y-134805086D01*
X268713415Y-134632332D01*
X268679712Y-134462898D01*
X268613602Y-134303294D01*
X268517625Y-134159654D01*
X268395470Y-134037499D01*
X268251830Y-133941522D01*
X268092226Y-133875412D01*
X267922792Y-133841709D01*
X267750038Y-133841709D01*
X267580604Y-133875412D01*
X267421000Y-133941522D01*
X267277360Y-134037499D01*
X267155205Y-134159654D01*
X267059228Y-134303294D01*
X266993118Y-134462898D01*
X266959415Y-134632332D01*
X263637441Y-134632332D01*
X263541266Y-134461705D01*
X263410060Y-134308937D01*
X263251572Y-134184702D01*
X263071892Y-134093773D01*
X262883460Y-134040896D01*
X262723125Y-134093925D01*
X262677125Y-134093925D01*
X262516790Y-134040896D01*
X262328358Y-134093773D01*
X262148678Y-134184702D01*
X261990190Y-134308937D01*
X261858984Y-134461705D01*
X261760103Y-134637134D01*
X261697346Y-134828483D01*
X261673125Y-135028399D01*
X258527125Y-135028399D01*
X258527125Y-135000948D01*
X258512265Y-134850072D01*
X258453540Y-134656482D01*
X258358176Y-134478068D01*
X258229837Y-134321687D01*
X258073456Y-134193348D01*
X257895041Y-134097984D01*
X257701451Y-134039259D01*
X257500125Y-134019430D01*
X257298798Y-134039259D01*
X257105208Y-134097984D01*
X256926794Y-134193348D01*
X256770413Y-134321687D01*
X256642074Y-134478068D01*
X256546710Y-134656483D01*
X256487985Y-134850073D01*
X256473125Y-135000949D01*
X255617000Y-135000949D01*
X255617000Y-132632332D01*
X266959415Y-132632332D01*
X266959415Y-132805086D01*
X266993118Y-132974520D01*
X267059228Y-133134124D01*
X267155205Y-133277764D01*
X267277360Y-133399919D01*
X267421000Y-133495896D01*
X267580604Y-133562006D01*
X267750038Y-133595709D01*
X267922792Y-133595709D01*
X268092226Y-133562006D01*
X268251830Y-133495896D01*
X268395470Y-133399919D01*
X268517625Y-133277764D01*
X268613602Y-133134124D01*
X268679712Y-132974520D01*
X268713415Y-132805086D01*
X268713415Y-132632332D01*
X268679712Y-132462898D01*
X268613602Y-132303294D01*
X268517625Y-132159654D01*
X268395470Y-132037499D01*
X268251830Y-131941522D01*
X268092226Y-131875412D01*
X267922792Y-131841709D01*
X267750038Y-131841709D01*
X267580604Y-131875412D01*
X267421000Y-131941522D01*
X267277360Y-132037499D01*
X267155205Y-132159654D01*
X267059228Y-132303294D01*
X266993118Y-132462898D01*
X266959415Y-132632332D01*
X255617000Y-132632332D01*
X255617000Y-132353340D01*
X255625000Y-132353340D01*
X255679301Y-132347992D01*
X255731516Y-132332153D01*
X255779637Y-132306431D01*
X255821816Y-132271816D01*
X255856431Y-132229637D01*
X255882153Y-132181516D01*
X255897992Y-132129301D01*
X255903340Y-132075000D01*
X255903340Y-130425000D01*
X255897992Y-130370699D01*
X255882153Y-130318484D01*
X255856431Y-130270363D01*
X255821816Y-130228184D01*
X255779637Y-130193569D01*
X255731516Y-130167847D01*
X255679301Y-130152008D01*
X255625000Y-130146660D01*
X254984765Y-130146660D01*
X254831050Y-130064498D01*
X254590335Y-129991478D01*
X254340000Y-129966822D01*
X254089664Y-129991478D01*
X253848949Y-130064498D01*
X253695234Y-130146660D01*
X253055000Y-130146660D01*
X253000699Y-130152008D01*
X252948484Y-130167847D01*
X252900363Y-130193569D01*
X252858184Y-130228184D01*
X252823569Y-130270363D01*
X252797847Y-130318484D01*
X252782008Y-130370699D01*
X252776660Y-130425000D01*
X251262473Y-130425000D01*
X251296816Y-130396816D01*
X251331431Y-130354637D01*
X251357153Y-130306516D01*
X251372992Y-130254301D01*
X251378340Y-130200000D01*
X251377000Y-129592250D01*
X251307750Y-129523000D01*
X250548000Y-129523000D01*
X250502000Y-129523000D01*
X249742250Y-129523000D01*
X249673000Y-129592250D01*
X249671660Y-130200000D01*
X249526535Y-130200000D01*
X249507763Y-129278399D01*
X249672715Y-129278399D01*
X249673000Y-129407750D01*
X249742250Y-129477000D01*
X250502000Y-129477000D01*
X250502000Y-129457000D01*
X250548000Y-129457000D01*
X250548000Y-129477000D01*
X251307750Y-129477000D01*
X251377000Y-129407750D01*
X251377285Y-129278399D01*
X255022448Y-129278399D01*
X256296660Y-130552611D01*
X256296660Y-132075000D01*
X256302008Y-132129301D01*
X256317847Y-132181516D01*
X256343569Y-132229637D01*
X256378184Y-132271816D01*
X256420363Y-132306431D01*
X256468484Y-132332153D01*
X256520699Y-132347992D01*
X256575000Y-132353340D01*
X257215234Y-132353340D01*
X257368949Y-132435502D01*
X257609664Y-132508522D01*
X257860000Y-132533178D01*
X258110335Y-132508522D01*
X258351050Y-132435502D01*
X258504765Y-132353340D01*
X259145000Y-132353340D01*
X259199301Y-132347992D01*
X259251516Y-132332153D01*
X259299637Y-132306431D01*
X259341816Y-132271816D01*
X259376431Y-132229637D01*
X259402153Y-132181516D01*
X259417992Y-132129301D01*
X259423340Y-132075000D01*
X259423340Y-130425000D01*
X259417992Y-130370699D01*
X259402153Y-130318484D01*
X259376431Y-130270363D01*
X259341816Y-130228184D01*
X259299637Y-130193569D01*
X259251516Y-130167847D01*
X259199301Y-130152008D01*
X259145000Y-130146660D01*
X259127091Y-130146660D01*
X259118523Y-130059664D01*
X259045502Y-129818949D01*
X259028104Y-129786399D01*
X258926924Y-129597104D01*
X258767344Y-129402656D01*
X258718620Y-129362669D01*
X257127125Y-127771174D01*
X257127125Y-126508907D01*
X261922999Y-126508907D01*
X261922999Y-127124873D01*
X262043168Y-127729002D01*
X262278888Y-128298080D01*
X262621100Y-128810236D01*
X263056653Y-129245789D01*
X263568809Y-129588001D01*
X264137887Y-129823721D01*
X264742016Y-129943890D01*
X265357982Y-129943890D01*
X265962111Y-129823721D01*
X266531189Y-129588001D01*
X267043345Y-129245789D01*
X267478898Y-128810236D01*
X267821110Y-128298080D01*
X268056830Y-127729002D01*
X268176999Y-127124873D01*
X268176999Y-126508907D01*
X268056830Y-125904778D01*
X267821110Y-125335700D01*
X267478898Y-124823544D01*
X267043345Y-124387991D01*
X266531189Y-124045779D01*
X265962111Y-123810059D01*
X265357982Y-123689890D01*
X264742016Y-123689890D01*
X264137887Y-123810059D01*
X263568809Y-124045779D01*
X263056653Y-124387991D01*
X262621100Y-124823544D01*
X262278888Y-125335700D01*
X262043168Y-125904778D01*
X261922999Y-126508907D01*
X257127125Y-126508907D01*
X257127125Y-124430688D01*
X257121803Y-124376648D01*
X257106040Y-124324685D01*
X257080442Y-124276795D01*
X257045994Y-124234819D01*
X256216705Y-123405530D01*
X256174729Y-123371082D01*
X256126839Y-123345484D01*
X256074876Y-123329721D01*
X256020836Y-123324399D01*
X253821022Y-123324399D01*
X253854637Y-123306431D01*
X253896816Y-123271816D01*
X253931431Y-123229637D01*
X253957153Y-123181516D01*
X253972992Y-123129301D01*
X253978340Y-123075000D01*
X253977000Y-122592250D01*
X253907750Y-122523000D01*
X253023000Y-122523000D01*
X253023000Y-122543000D01*
X252977000Y-122543000D01*
X252977000Y-122523000D01*
X252092250Y-122523000D01*
X252023000Y-122592250D01*
X252021660Y-123075000D01*
X252027008Y-123129301D01*
X252042847Y-123181516D01*
X252068569Y-123229637D01*
X252103184Y-123271816D01*
X252145363Y-123306431D01*
X252178978Y-123324399D01*
X250935572Y-123324399D01*
X250564852Y-122953678D01*
X250598316Y-122926215D01*
X250632931Y-122884036D01*
X250658653Y-122835915D01*
X250674492Y-122783700D01*
X250679840Y-122729399D01*
X250678500Y-122021649D01*
X250609250Y-121952399D01*
X249523000Y-121952399D01*
X249523000Y-121972399D01*
X249477000Y-121972399D01*
X249477000Y-121952399D01*
X248390750Y-121952399D01*
X248321500Y-122021649D01*
X248320359Y-122624399D01*
X247979414Y-122624399D01*
X247925374Y-122629721D01*
X247873411Y-122645484D01*
X247825521Y-122671082D01*
X247783545Y-122705531D01*
X247227265Y-123261811D01*
X247227265Y-123025099D01*
X247221917Y-122970798D01*
X247206078Y-122918583D01*
X247180356Y-122870462D01*
X247145741Y-122828283D01*
X247103562Y-122793668D01*
X247055441Y-122767946D01*
X247003226Y-122752107D01*
X246948925Y-122746759D01*
X245294025Y-122746759D01*
X245239724Y-122752107D01*
X245187509Y-122767946D01*
X245139388Y-122793668D01*
X245097209Y-122828283D01*
X245062594Y-122870462D01*
X245039932Y-122912858D01*
X245024286Y-122914399D01*
X245024278Y-122914399D01*
X244965219Y-122920216D01*
X244889442Y-122943202D01*
X244819605Y-122980531D01*
X244758393Y-123030767D01*
X244757489Y-123031869D01*
X244756393Y-123032768D01*
X244743807Y-123048104D01*
X244743804Y-123048107D01*
X244736999Y-123056399D01*
X244706157Y-123093980D01*
X244676653Y-123149177D01*
X244668828Y-123163817D01*
X244645841Y-123239595D01*
X244638080Y-123318400D01*
X244640025Y-123338149D01*
X244640024Y-127019452D01*
X244603309Y-127049583D01*
X244568694Y-127091762D01*
X244542972Y-127139883D01*
X244527133Y-127192098D01*
X244521785Y-127246399D01*
X244521785Y-127846399D01*
X244527133Y-127900700D01*
X244542972Y-127952915D01*
X244568694Y-128001036D01*
X244603309Y-128043215D01*
X244645488Y-128077830D01*
X244693609Y-128103552D01*
X244745824Y-128119391D01*
X244796673Y-128124399D01*
X243821193Y-128124399D01*
X243812831Y-127101601D01*
X243807518Y-127049825D01*
X243791755Y-126997862D01*
X243766157Y-126949972D01*
X243731709Y-126907996D01*
X243689733Y-126873548D01*
X243641843Y-126847950D01*
X243267640Y-126692950D01*
X243240993Y-126671082D01*
X243193103Y-126645484D01*
X243141140Y-126629721D01*
X243087100Y-126624399D01*
X239779414Y-126624399D01*
X239725374Y-126629721D01*
X239673411Y-126645484D01*
X239625521Y-126671082D01*
X239583545Y-126705530D01*
X239247855Y-127041220D01*
X239213407Y-127083196D01*
X239187809Y-127131086D01*
X238994210Y-127598475D01*
X238978447Y-127650438D01*
X238973125Y-127704478D01*
X238973125Y-128315952D01*
X238754106Y-128534970D01*
X238745632Y-128543827D01*
X238443094Y-128874399D01*
X235801224Y-128874399D01*
X235747342Y-128879690D01*
X235695370Y-128895423D01*
X235647465Y-128920992D01*
X235605470Y-128955416D01*
X235570997Y-128997372D01*
X235545371Y-129045246D01*
X235529578Y-129097201D01*
X235529493Y-129098059D01*
X234775125Y-129098059D01*
X234720824Y-129103407D01*
X234668609Y-129119246D01*
X234620488Y-129144968D01*
X234578309Y-129179583D01*
X234543694Y-129221762D01*
X234517972Y-129269883D01*
X234502133Y-129322098D01*
X234496785Y-129376399D01*
X234496785Y-131026399D01*
X234502133Y-131080700D01*
X234517972Y-131132915D01*
X234543694Y-131181036D01*
X234578309Y-131223215D01*
X234620488Y-131257830D01*
X234668609Y-131283552D01*
X234720824Y-131299391D01*
X234775125Y-131304739D01*
X235528891Y-131304739D01*
X235529340Y-131308925D01*
X235546037Y-131360596D01*
X235681865Y-131672500D01*
X192013625Y-131672500D01*
X192000000Y-131671158D01*
X191986375Y-131672500D01*
X191945601Y-131676516D01*
X191893292Y-131692384D01*
X191845084Y-131718151D01*
X191802829Y-131752829D01*
X191768151Y-131795084D01*
X191742384Y-131843292D01*
X191726516Y-131895601D01*
X191721158Y-131950000D01*
X191722501Y-131963635D01*
X191722500Y-145572500D01*
X146477500Y-145572500D01*
X146477500Y-136863625D01*
X146478842Y-136850000D01*
X146473484Y-136795601D01*
X146457616Y-136743292D01*
X146431849Y-136695084D01*
X146397171Y-136652829D01*
X146354916Y-136618151D01*
X146306708Y-136592384D01*
X146254399Y-136576516D01*
X146213625Y-136572500D01*
X146200000Y-136571158D01*
X146186375Y-136572500D01*
X134377500Y-136572500D01*
X134377500Y-134696187D01*
X135423000Y-134696187D01*
X135423000Y-134908337D01*
X135464389Y-135116411D01*
X135545575Y-135312413D01*
X135663440Y-135488809D01*
X135813453Y-135638822D01*
X135989849Y-135756687D01*
X136185851Y-135837873D01*
X136393925Y-135879262D01*
X136606075Y-135879262D01*
X136814149Y-135837873D01*
X137010151Y-135756687D01*
X137186547Y-135638822D01*
X137336560Y-135488809D01*
X137454425Y-135312413D01*
X137535611Y-135116411D01*
X137577000Y-134908337D01*
X137577000Y-134696187D01*
X137535611Y-134488113D01*
X137454425Y-134292111D01*
X137336560Y-134115715D01*
X137186547Y-133965702D01*
X137010151Y-133847837D01*
X136814149Y-133766651D01*
X136606075Y-133725262D01*
X136393925Y-133725262D01*
X136185851Y-133766651D01*
X135989849Y-133847837D01*
X135813453Y-133965702D01*
X135663440Y-134115715D01*
X135545575Y-134292111D01*
X135464389Y-134488113D01*
X135423000Y-134696187D01*
X134377500Y-134696187D01*
X134377500Y-132091715D01*
X135073000Y-132091715D01*
X135073000Y-132372809D01*
X135127838Y-132648503D01*
X135235409Y-132908200D01*
X135391576Y-133141922D01*
X135590340Y-133340686D01*
X135824062Y-133496853D01*
X136083759Y-133604424D01*
X136359453Y-133659262D01*
X136640547Y-133659262D01*
X136916241Y-133604424D01*
X137175938Y-133496853D01*
X137409660Y-133340686D01*
X137608424Y-133141922D01*
X137764591Y-132908200D01*
X137872162Y-132648503D01*
X137927000Y-132372809D01*
X137927000Y-132091715D01*
X137872162Y-131816021D01*
X137764591Y-131556324D01*
X137608424Y-131322602D01*
X137409660Y-131123838D01*
X137175938Y-130967671D01*
X136916241Y-130860100D01*
X136640547Y-130805262D01*
X136359453Y-130805262D01*
X136083759Y-130860100D01*
X135824062Y-130967671D01*
X135590340Y-131123838D01*
X135391576Y-131322602D01*
X135235409Y-131556324D01*
X135127838Y-131816021D01*
X135073000Y-132091715D01*
X134377500Y-132091715D01*
X134377500Y-127627500D01*
X143586375Y-127627500D01*
X143600000Y-127628842D01*
X143613625Y-127627500D01*
X143654399Y-127623484D01*
X143706708Y-127607616D01*
X143754916Y-127581849D01*
X143797171Y-127547171D01*
X143831849Y-127504916D01*
X143857616Y-127456708D01*
X143873484Y-127404399D01*
X143878842Y-127350000D01*
X143877500Y-127336375D01*
X143877500Y-122627500D01*
X146186375Y-122627500D01*
X146200000Y-122628842D01*
X146213625Y-122627500D01*
X146254399Y-122623484D01*
X146306708Y-122607616D01*
X146354916Y-122581849D01*
X146397171Y-122547171D01*
X146431849Y-122504916D01*
X146457616Y-122456708D01*
X146473484Y-122404399D01*
X146478842Y-122350000D01*
X146477500Y-122336375D01*
X146477500Y-121227500D01*
X230203986Y-121227500D01*
X229829710Y-121601777D01*
G36*
X161349016Y-123579536D02*
G01*
X161323000Y-123710331D01*
X161323000Y-123843689D01*
X161349016Y-123974484D01*
X161400050Y-124097690D01*
X161474140Y-124208573D01*
X161568437Y-124302870D01*
X161598000Y-124322624D01*
X161598000Y-124362441D01*
X161598001Y-124362451D01*
X161598000Y-125755260D01*
X161596056Y-125775000D01*
X161598000Y-125794739D01*
X161598000Y-125794746D01*
X161603817Y-125853805D01*
X161626803Y-125929582D01*
X161664132Y-125999419D01*
X161714368Y-126060632D01*
X161729710Y-126073223D01*
X162201779Y-126545293D01*
X162214368Y-126560632D01*
X162229704Y-126573218D01*
X162229706Y-126573220D01*
X162244463Y-126585331D01*
X162272480Y-126608324D01*
X162281812Y-126703075D01*
X162311877Y-126802188D01*
X162360701Y-126893530D01*
X162426407Y-126973593D01*
X162506470Y-127039299D01*
X162597812Y-127088123D01*
X162696925Y-127118188D01*
X162799999Y-127128340D01*
X163534826Y-127128340D01*
X163848001Y-127441515D01*
X163848000Y-130617000D01*
X160250000Y-130617000D01*
X160175280Y-130624359D01*
X160103432Y-130646154D01*
X160037217Y-130681547D01*
X159979178Y-130729178D01*
X159931547Y-130787217D01*
X159896154Y-130853432D01*
X159883000Y-130896795D01*
X159883000Y-123527000D01*
X161370777Y-123527000D01*
X161349016Y-123579536D01*
G37*
X161349016Y-123579536D02*
X161323000Y-123710331D01*
X161323000Y-123843689D01*
X161349016Y-123974484D01*
X161400050Y-124097690D01*
X161474140Y-124208573D01*
X161568437Y-124302870D01*
X161598000Y-124322624D01*
X161598000Y-124362441D01*
X161598001Y-124362451D01*
X161598000Y-125755260D01*
X161596056Y-125775000D01*
X161598000Y-125794739D01*
X161598000Y-125794746D01*
X161603817Y-125853805D01*
X161626803Y-125929582D01*
X161664132Y-125999419D01*
X161714368Y-126060632D01*
X161729710Y-126073223D01*
X162201779Y-126545293D01*
X162214368Y-126560632D01*
X162229704Y-126573218D01*
X162229706Y-126573220D01*
X162244463Y-126585331D01*
X162272480Y-126608324D01*
X162281812Y-126703075D01*
X162311877Y-126802188D01*
X162360701Y-126893530D01*
X162426407Y-126973593D01*
X162506470Y-127039299D01*
X162597812Y-127088123D01*
X162696925Y-127118188D01*
X162799999Y-127128340D01*
X163534826Y-127128340D01*
X163848001Y-127441515D01*
X163848000Y-130617000D01*
X160250000Y-130617000D01*
X160175280Y-130624359D01*
X160103432Y-130646154D01*
X160037217Y-130681547D01*
X159979178Y-130729178D01*
X159931547Y-130787217D01*
X159896154Y-130853432D01*
X159883000Y-130896795D01*
X159883000Y-123527000D01*
X161370777Y-123527000D01*
X161349016Y-123579536D01*
G36*
X229862932Y-125520436D02*
G01*
X229887260Y-125550080D01*
X229916904Y-125574408D01*
X229916905Y-125574409D01*
X229945663Y-125598010D01*
X227866526Y-125598010D01*
X225869205Y-123600690D01*
X225856614Y-123585348D01*
X225795402Y-123535112D01*
X225725565Y-123497783D01*
X225649788Y-123474797D01*
X225590729Y-123468980D01*
X225590721Y-123468980D01*
X225570982Y-123467036D01*
X225551243Y-123468980D01*
X212948757Y-123468980D01*
X212929018Y-123467036D01*
X212909278Y-123468980D01*
X212909271Y-123468980D01*
X212850212Y-123474797D01*
X212774435Y-123497783D01*
X212704598Y-123535112D01*
X212643386Y-123585348D01*
X212633003Y-123598000D01*
X170019739Y-123598000D01*
X169999999Y-123596056D01*
X169980260Y-123598000D01*
X169980253Y-123598000D01*
X169921194Y-123603817D01*
X169845417Y-123626803D01*
X169775580Y-123664132D01*
X169714368Y-123714368D01*
X169701782Y-123729705D01*
X168065167Y-125366320D01*
X168077000Y-125306830D01*
X168077000Y-125193170D01*
X168054826Y-125081695D01*
X168011331Y-124976688D01*
X167948185Y-124882184D01*
X167867816Y-124801815D01*
X167773312Y-124738669D01*
X167668305Y-124695174D01*
X167556830Y-124673000D01*
X167443170Y-124673000D01*
X167331695Y-124695174D01*
X167226688Y-124738669D01*
X167132184Y-124801815D01*
X167051815Y-124882184D01*
X166988669Y-124976688D01*
X166945174Y-125081695D01*
X166923000Y-125193170D01*
X166923000Y-125258486D01*
X165175698Y-127005789D01*
X165160356Y-127018380D01*
X165152000Y-127028562D01*
X165152000Y-125044739D01*
X165153944Y-125025000D01*
X165152000Y-125005260D01*
X165152000Y-125005253D01*
X165146183Y-124946194D01*
X165123197Y-124870417D01*
X165085868Y-124800580D01*
X165035632Y-124739368D01*
X165020296Y-124726783D01*
X164248223Y-123954710D01*
X164235632Y-123939368D01*
X164228340Y-123933384D01*
X164228340Y-123899999D01*
X164218188Y-123796925D01*
X164188123Y-123697812D01*
X164139299Y-123606470D01*
X164073593Y-123526407D01*
X163993530Y-123460701D01*
X163902188Y-123411877D01*
X163803075Y-123381812D01*
X163700001Y-123371660D01*
X163652000Y-123371660D01*
X163652000Y-123277000D01*
X227619497Y-123277000D01*
X229862932Y-125520436D01*
G37*
X229862932Y-125520436D02*
X229887260Y-125550080D01*
X229916904Y-125574408D01*
X229916905Y-125574409D01*
X229945663Y-125598010D01*
X227866526Y-125598010D01*
X225869205Y-123600690D01*
X225856614Y-123585348D01*
X225795402Y-123535112D01*
X225725565Y-123497783D01*
X225649788Y-123474797D01*
X225590729Y-123468980D01*
X225590721Y-123468980D01*
X225570982Y-123467036D01*
X225551243Y-123468980D01*
X212948757Y-123468980D01*
X212929018Y-123467036D01*
X212909278Y-123468980D01*
X212909271Y-123468980D01*
X212850212Y-123474797D01*
X212774435Y-123497783D01*
X212704598Y-123535112D01*
X212643386Y-123585348D01*
X212633003Y-123598000D01*
X170019739Y-123598000D01*
X169999999Y-123596056D01*
X169980260Y-123598000D01*
X169980253Y-123598000D01*
X169921194Y-123603817D01*
X169845417Y-123626803D01*
X169775580Y-123664132D01*
X169714368Y-123714368D01*
X169701782Y-123729705D01*
X168065167Y-125366320D01*
X168077000Y-125306830D01*
X168077000Y-125193170D01*
X168054826Y-125081695D01*
X168011331Y-124976688D01*
X167948185Y-124882184D01*
X167867816Y-124801815D01*
X167773312Y-124738669D01*
X167668305Y-124695174D01*
X167556830Y-124673000D01*
X167443170Y-124673000D01*
X167331695Y-124695174D01*
X167226688Y-124738669D01*
X167132184Y-124801815D01*
X167051815Y-124882184D01*
X166988669Y-124976688D01*
X166945174Y-125081695D01*
X166923000Y-125193170D01*
X166923000Y-125258486D01*
X165175698Y-127005789D01*
X165160356Y-127018380D01*
X165152000Y-127028562D01*
X165152000Y-125044739D01*
X165153944Y-125025000D01*
X165152000Y-125005260D01*
X165152000Y-125005253D01*
X165146183Y-124946194D01*
X165123197Y-124870417D01*
X165085868Y-124800580D01*
X165035632Y-124739368D01*
X165020296Y-124726783D01*
X164248223Y-123954710D01*
X164235632Y-123939368D01*
X164228340Y-123933384D01*
X164228340Y-123899999D01*
X164218188Y-123796925D01*
X164188123Y-123697812D01*
X164139299Y-123606470D01*
X164073593Y-123526407D01*
X163993530Y-123460701D01*
X163902188Y-123411877D01*
X163803075Y-123381812D01*
X163700001Y-123371660D01*
X163652000Y-123371660D01*
X163652000Y-123277000D01*
X227619497Y-123277000D01*
X229862932Y-125520436D01*
G36*
X236641472Y-121622883D02*
G01*
X236625633Y-121675098D01*
X236620285Y-121729399D01*
X236620285Y-123023024D01*
X234527000Y-122302404D01*
X234527000Y-121604510D01*
X236651293Y-121604510D01*
X236641472Y-121622883D01*
G37*
X236641472Y-121622883D02*
X236625633Y-121675098D01*
X236620285Y-121729399D01*
X236620285Y-123023024D01*
X234527000Y-122302404D01*
X234527000Y-121604510D01*
X236651293Y-121604510D01*
X236641472Y-121622883D01*
G36*
X163744002Y-131136671D02*
G01*
X163744001Y-132053337D01*
X163742000Y-132073655D01*
X163739543Y-132098602D01*
X163742000Y-132123546D01*
X163742000Y-132336454D01*
X163739543Y-132361398D01*
X163742000Y-132386342D01*
X163742000Y-132386344D01*
X163744002Y-132406671D01*
X163744001Y-133323337D01*
X163742000Y-133343655D01*
X163739543Y-133368602D01*
X163742000Y-133393546D01*
X163742000Y-133606454D01*
X163739543Y-133631398D01*
X163742000Y-133656342D01*
X163742000Y-133656344D01*
X163744002Y-133676671D01*
X163744001Y-134593337D01*
X163742000Y-134613655D01*
X163739543Y-134638602D01*
X163742000Y-134663546D01*
X163742000Y-134876454D01*
X163739543Y-134901398D01*
X163742000Y-134926342D01*
X163742000Y-134926344D01*
X163744002Y-134946671D01*
X163744001Y-135735464D01*
X163730000Y-135761658D01*
X163712616Y-135818964D01*
X163658580Y-135873000D01*
X160377000Y-135873000D01*
X160377000Y-131127000D01*
X163743050Y-131127000D01*
X163744002Y-131136671D01*
G37*
X163744002Y-131136671D02*
X163744001Y-132053337D01*
X163742000Y-132073655D01*
X163739543Y-132098602D01*
X163742000Y-132123546D01*
X163742000Y-132336454D01*
X163739543Y-132361398D01*
X163742000Y-132386342D01*
X163742000Y-132386344D01*
X163744002Y-132406671D01*
X163744001Y-133323337D01*
X163742000Y-133343655D01*
X163739543Y-133368602D01*
X163742000Y-133393546D01*
X163742000Y-133606454D01*
X163739543Y-133631398D01*
X163742000Y-133656342D01*
X163742000Y-133656344D01*
X163744002Y-133676671D01*
X163744001Y-134593337D01*
X163742000Y-134613655D01*
X163739543Y-134638602D01*
X163742000Y-134663546D01*
X163742000Y-134876454D01*
X163739543Y-134901398D01*
X163742000Y-134926342D01*
X163742000Y-134926344D01*
X163744002Y-134946671D01*
X163744001Y-135735464D01*
X163730000Y-135761658D01*
X163712616Y-135818964D01*
X163658580Y-135873000D01*
X160377000Y-135873000D01*
X160377000Y-131127000D01*
X163743050Y-131127000D01*
X163744002Y-131136671D01*
G36*
X169373000Y-135623000D02*
G01*
X167127000Y-135623000D01*
X167127000Y-132627000D01*
X169373000Y-132627000D01*
X169373000Y-135623000D01*
G37*
X169373000Y-135623000D02*
X167127000Y-135623000D01*
X167127000Y-132627000D01*
X169373000Y-132627000D01*
X169373000Y-135623000D01*
G36*
X175123000Y-141373000D02*
G01*
X170758000Y-141373000D01*
X170758000Y-138127000D01*
X175123000Y-138127000D01*
X175123000Y-141373000D01*
G37*
X175123000Y-141373000D02*
X170758000Y-141373000D01*
X170758000Y-138127000D01*
X175123000Y-138127000D01*
X175123000Y-141373000D01*
G36*
X159273000Y-136073000D02*
G01*
X155927000Y-136073000D01*
X155927000Y-123633000D01*
X159273000Y-123633000D01*
X159273000Y-136073000D01*
G37*
X159273000Y-136073000D02*
X155927000Y-136073000D01*
X155927000Y-123633000D01*
X159273000Y-123633000D01*
X159273000Y-136073000D01*
M02*
