M48
; DRILL file {KiCad (5.1.5)-3} date 6/7/2020 12:54:15 AM
; FORMAT={-:-/ absolute / metric / decimal}
; #@! TF.CreationDate,2020-06-07T00:54:15-04:00
; #@! TF.GenerationSoftware,Kicad,Pcbnew,(5.1.5)-3
FMAT,2
METRIC
T1C0.400
T2C0.600
T3C0.800
T4C1.000
T5C1.200
T6C1.500
T7C2.300
T8C2.500
T9C5.700
%
G90
G05
T1
X162.25Y-140.0
X164.0Y-140.0
X166.25Y-136.0
X167.5Y-142.25
X183.25Y-129.0
X198.25Y-127.25
X199.25Y-129.25
X231.5Y-126.652
X203.1Y-123.85
X203.1Y-125.65
X204.0Y-124.75
X204.9Y-123.85
X204.9Y-125.65
T2
X135.6Y-128.088
X139.1Y-131.088
X139.1Y-134.588
X139.6Y-128.088
X142.1Y-131.088
X142.1Y-134.588
X143.1Y-128.088
X145.1Y-134.588
X147.499Y-135.487
X148.6Y-144.588
X150.5Y-140.588
X151.65Y-140.588
X152.0Y-131.338
X152.5Y-132.5
X152.65Y-140.588
X153.15Y-131.338
X153.65Y-140.588
X153.75Y-132.5
X154.15Y-131.338
X154.65Y-140.588
X155.1Y-144.588
X155.65Y-140.588
X156.65Y-140.588
X157.65Y-140.588
X158.65Y-140.588
X159.65Y-140.588
X162.6Y-144.588
X197.25Y-129.5
X200.25Y-126.5
X207.25Y-124.0
X207.25Y-125.0
X208.5Y-131.0
X228.1Y-125.0
X231.5Y-122.001
X231.5Y-123.051
X232.55Y-122.001
X232.55Y-123.051
X233.3Y-127.1
X233.6Y-122.001
X233.6Y-123.051
X235.75Y-122.25
X236.5Y-128.0
X238.2Y-131.25
X239.1Y-129.35
X242.4Y-131.25
X242.8Y-127.451
X242.8Y-128.451
X242.8Y-129.451
X242.8Y-130.451
X243.1Y-124.1
X247.7Y-122.2
X250.25Y-131.0
X259.3Y-121.551
X259.3Y-122.551
X260.3Y-121.551
X260.3Y-122.551
X261.3Y-121.551
X261.3Y-122.551
X262.3Y-121.551
X262.3Y-122.551
X263.3Y-121.551
X263.3Y-122.551
X264.3Y-121.551
X264.3Y-122.551
X265.3Y-121.551
X265.3Y-122.551
X266.3Y-121.551
X266.3Y-122.551
T3
X164.5Y-135.5
X189.0Y-132.25
X219.0Y-122.5
X222.0Y-126.75
X222.0Y-129.5
X231.5Y-124.998
X267.836Y-132.719
X267.836Y-134.719
X267.836Y-136.719
X267.836Y-138.719
X267.836Y-140.719
T4
X243.0Y-122.497
T5
X149.3Y-140.02
X165.3Y-140.02
T6
X136.5Y-134.802
T7
X265.5Y-143.931
X136.5Y-131.982
T8
X257.4Y-141.751
T9
X265.05Y-126.817
T3
G00X253.7Y-143.251
M15
G01X253.7Y-142.251
M16
G05
G00X254.1Y-135.801
M15
G01X254.1Y-135.101
M16
G05
G00X257.5Y-135.801
M15
G01X257.5Y-135.101
M16
G05
G00X262.7Y-135.801
M15
G01X262.7Y-135.101
M16
G05
G00X263.6Y-143.251
M15
G01X263.6Y-142.251
M16
G05
T6
G00X265.35Y-141.331
M15
G01X265.874Y-141.331
M16
G05
T0
M30
