G04 #@! TF.GenerationSoftware,KiCad,Pcbnew,(5.1.5)-3*
G04 #@! TF.CreationDate,2020-06-29T02:19:28-04:00*
G04 #@! TF.ProjectId,PowerBoth,506f7765-7242-46f7-9468-2e6b69636164,rev?*
G04 #@! TF.SameCoordinates,Original*
G04 #@! TF.FileFunction,Legend,Bot*
G04 #@! TF.FilePolarity,Positive*
%FSLAX46Y46*%
G04 Gerber Fmt 4.6, Leading zero omitted, Abs format (unit mm)*
G04 Created by KiCad (PCBNEW (5.1.5)-3) date 2020-06-29 02:19:28*
%MOMM*%
%LPD*%
G04 APERTURE LIST*
%ADD10C,0.001000*%
%ADD11C,0.127000*%
%ADD12C,0.406400*%
%ADD13C,0.152400*%
%ADD14C,0.120000*%
%ADD15C,0.200000*%
%ADD16C,0.130000*%
G04 APERTURE END LIST*
D10*
X263445206Y-145851209D02*
X263445206Y-134351209D01*
X263445206Y-134351209D02*
X253945206Y-134351209D01*
X253945206Y-134351209D02*
X253945206Y-145851209D01*
X256195206Y-137851209D02*
X258695206Y-137851209D01*
D11*
X159850000Y-126150000D02*
X159850000Y-126850000D01*
X159850000Y-126850000D02*
X159150000Y-126850000D01*
X159850000Y-123350000D02*
X159850000Y-122650000D01*
X159850000Y-122650000D02*
X159150000Y-122650000D01*
X156350000Y-126850000D02*
X155650000Y-126850000D01*
X155650000Y-126850000D02*
X155650000Y-126150000D01*
X156350000Y-122650000D02*
X155650000Y-122650000D01*
X155650000Y-122650000D02*
X155650000Y-123350000D01*
D12*
X159750000Y-127450000D02*
G75*
G03X159750000Y-127450000I-200000J0D01*
G01*
D13*
X223166525Y-131785399D02*
X219966125Y-131785399D01*
X227433725Y-121117399D02*
X230634125Y-121117399D01*
X219966125Y-121117399D02*
X223166525Y-121117399D01*
X219966125Y-131785399D02*
X219966125Y-121117399D01*
X230634125Y-131785399D02*
X227433725Y-131785399D01*
X230634125Y-121117399D02*
X230634125Y-131785399D01*
D11*
X254650125Y-138251399D02*
X254650125Y-145751399D01*
X260150125Y-138251399D02*
X254700125Y-138251399D01*
X260150125Y-145751399D02*
X260150125Y-138251399D01*
X255900125Y-138251399D02*
X256400125Y-138251399D01*
X255900125Y-138751399D02*
X255900125Y-138251399D01*
X258900125Y-138751399D02*
X255900125Y-138751399D01*
X258900125Y-138251399D02*
X258900125Y-138751399D01*
X258400125Y-138251399D02*
X258900125Y-138251399D01*
X256400125Y-138251399D02*
X256400125Y-144751399D01*
X258400125Y-138251399D02*
X256400125Y-138251399D01*
X258400125Y-144751399D02*
X258400125Y-138251399D01*
X258400125Y-144751399D02*
G75*
G02X256400125Y-144751399I-1000000J0D01*
G01*
X253700125Y-134251399D02*
X253700125Y-145751399D01*
X263600125Y-134251399D02*
X253700125Y-134251399D01*
X263600125Y-145751399D02*
X263600125Y-134251399D01*
X260150125Y-145751399D02*
X263600125Y-145751399D01*
X254650125Y-145751399D02*
X260150125Y-145751399D01*
X253700125Y-145751399D02*
X254650125Y-145751399D01*
X266536415Y-144368709D02*
X266536415Y-129068709D01*
X274486415Y-129068709D02*
X266536415Y-129068709D01*
X274486415Y-144368709D02*
X274486415Y-129068709D01*
X266536415Y-144368709D02*
X274486415Y-144368709D01*
D14*
X249140000Y-124352064D02*
X249140000Y-123147936D01*
X251860000Y-124352064D02*
X251860000Y-123147936D01*
X188738748Y-133290000D02*
X189261252Y-133290000D01*
X188738748Y-134710000D02*
X189261252Y-134710000D01*
X178210000Y-127236252D02*
X178210000Y-126713748D01*
X176790000Y-127236252D02*
X176790000Y-126713748D01*
X150540000Y-122988748D02*
X150540000Y-123511252D01*
X151960000Y-122988748D02*
X151960000Y-123511252D01*
X153960000Y-122988748D02*
X153960000Y-123511252D01*
X152540000Y-122988748D02*
X152540000Y-123511252D01*
X158861252Y-128190000D02*
X158338748Y-128190000D01*
X158861252Y-129610000D02*
X158338748Y-129610000D01*
X158602064Y-133390000D02*
X157397936Y-133390000D01*
X158602064Y-136110000D02*
X157397936Y-136110000D01*
X158602064Y-132860000D02*
X157397936Y-132860000D01*
X158602064Y-130140000D02*
X157397936Y-130140000D01*
X185960000Y-130511252D02*
X185960000Y-129988748D01*
X184540000Y-130511252D02*
X184540000Y-129988748D01*
X186540000Y-130511252D02*
X186540000Y-129988748D01*
X187960000Y-130511252D02*
X187960000Y-129988748D01*
X174710000Y-142988748D02*
X174710000Y-143511252D01*
X173290000Y-142988748D02*
X173290000Y-143511252D01*
X171290000Y-142988748D02*
X171290000Y-143511252D01*
X172710000Y-142988748D02*
X172710000Y-143511252D01*
X175710000Y-131761252D02*
X175710000Y-131238748D01*
X174290000Y-131761252D02*
X174290000Y-131238748D01*
X172290000Y-131761252D02*
X172290000Y-131238748D01*
X173710000Y-131761252D02*
X173710000Y-131238748D01*
X173761252Y-135460000D02*
X173238748Y-135460000D01*
X173761252Y-134040000D02*
X173238748Y-134040000D01*
X184750000Y-124750000D02*
X184750000Y-126750000D01*
X184750000Y-126750000D02*
X180850000Y-126750000D01*
X184750000Y-124750000D02*
X180850000Y-124750000D01*
X181236252Y-128710000D02*
X180713748Y-128710000D01*
X181236252Y-127290000D02*
X180713748Y-127290000D01*
X175710000Y-127238748D02*
X175710000Y-127761252D01*
X174290000Y-127238748D02*
X174290000Y-127761252D01*
X169790000Y-130738748D02*
X169790000Y-131261252D01*
X171210000Y-130738748D02*
X171210000Y-131261252D01*
X167540000Y-131261252D02*
X167540000Y-130738748D01*
X168960000Y-131261252D02*
X168960000Y-130738748D01*
X163963748Y-122960000D02*
X164486252Y-122960000D01*
X163963748Y-121540000D02*
X164486252Y-121540000D01*
X164486252Y-123540000D02*
X163963748Y-123540000D01*
X164486252Y-124960000D02*
X163963748Y-124960000D01*
X162540000Y-126988748D02*
X162540000Y-127511252D01*
X163960000Y-126988748D02*
X163960000Y-127511252D01*
X164540000Y-127486252D02*
X164540000Y-126963748D01*
X165960000Y-127486252D02*
X165960000Y-126963748D01*
X187350000Y-135900000D02*
X191650000Y-135900000D01*
X191650000Y-135900000D02*
X191650000Y-143200000D01*
X187350000Y-135900000D02*
X187350000Y-143200000D01*
X175950000Y-142350000D02*
X175950000Y-145550000D01*
X175950000Y-145550000D02*
X186550000Y-145550000D01*
X186550000Y-145550000D02*
X186550000Y-142350000D01*
X186550000Y-138150000D02*
X186550000Y-134950000D01*
X186550000Y-134950000D02*
X175950000Y-134950000D01*
X175950000Y-134950000D02*
X175950000Y-138150000D01*
D15*
X184140000Y-130020000D02*
G75*
G03X184140000Y-130020000I-100000J0D01*
G01*
D11*
X178000000Y-129500000D02*
X182000000Y-129500000D01*
X182000000Y-134500000D02*
X178000000Y-134500000D01*
X147204560Y-142115001D02*
X147204560Y-137925001D01*
X167394560Y-142115001D02*
X167394560Y-137925001D01*
X147204560Y-142115001D02*
X167394560Y-142115001D01*
X147204560Y-137925001D02*
X167394560Y-137925001D01*
D13*
X154834000Y-136084000D02*
X144166000Y-136084000D01*
X144166000Y-136084000D02*
X144166000Y-132883600D01*
X144166000Y-125416000D02*
X154834000Y-125416000D01*
X154834000Y-125416000D02*
X154834000Y-128616400D01*
X154834000Y-132883600D02*
X154834000Y-136084000D01*
X144166000Y-128616400D02*
X144166000Y-125416000D01*
D16*
X161535714Y-126834500D02*
X160928571Y-126834500D01*
X160857142Y-126798785D01*
X160821428Y-126763071D01*
X160785714Y-126691642D01*
X160785714Y-126548785D01*
X160821428Y-126477357D01*
X160857142Y-126441642D01*
X160928571Y-126405928D01*
X161535714Y-126405928D01*
X161285714Y-125727357D02*
X160785714Y-125727357D01*
X161571428Y-125905928D02*
X161035714Y-126084500D01*
X161035714Y-125620214D01*
X161535714Y-125191642D02*
X161535714Y-125120214D01*
X161500000Y-125048785D01*
X161464285Y-125013071D01*
X161392857Y-124977357D01*
X161250000Y-124941642D01*
X161071428Y-124941642D01*
X160928571Y-124977357D01*
X160857142Y-125013071D01*
X160821428Y-125048785D01*
X160785714Y-125120214D01*
X160785714Y-125191642D01*
X160821428Y-125263071D01*
X160857142Y-125298785D01*
X160928571Y-125334500D01*
X161071428Y-125370214D01*
X161250000Y-125370214D01*
X161392857Y-125334500D01*
X161464285Y-125298785D01*
X161500000Y-125263071D01*
X161535714Y-125191642D01*
X160785714Y-124227357D02*
X160785714Y-124655928D01*
X160785714Y-124441642D02*
X161535714Y-124441642D01*
X161428571Y-124513071D01*
X161357142Y-124584500D01*
X161321428Y-124655928D01*
X231160714Y-130739285D02*
X231160714Y-131096428D01*
X231910714Y-131096428D01*
X231839285Y-130525000D02*
X231875000Y-130489285D01*
X231910714Y-130417857D01*
X231910714Y-130239285D01*
X231875000Y-130167857D01*
X231839285Y-130132142D01*
X231767857Y-130096428D01*
X231696428Y-130096428D01*
X231589285Y-130132142D01*
X231160714Y-130560714D01*
X231160714Y-130096428D01*
X231910714Y-129632142D02*
X231910714Y-129560714D01*
X231875000Y-129489285D01*
X231839285Y-129453571D01*
X231767857Y-129417857D01*
X231625000Y-129382142D01*
X231446428Y-129382142D01*
X231303571Y-129417857D01*
X231232142Y-129453571D01*
X231196428Y-129489285D01*
X231160714Y-129560714D01*
X231160714Y-129632142D01*
X231196428Y-129703571D01*
X231232142Y-129739285D01*
X231303571Y-129775000D01*
X231446428Y-129810714D01*
X231625000Y-129810714D01*
X231767857Y-129775000D01*
X231839285Y-129739285D01*
X231875000Y-129703571D01*
X231910714Y-129632142D01*
X231160714Y-128667857D02*
X231160714Y-129096428D01*
X231160714Y-128882142D02*
X231910714Y-128882142D01*
X231803571Y-128953571D01*
X231732142Y-129025000D01*
X231696428Y-129096428D01*
X259035714Y-133760714D02*
X259035714Y-133225000D01*
X259000000Y-133117857D01*
X258928571Y-133046428D01*
X258821428Y-133010714D01*
X258750000Y-133010714D01*
X259357142Y-133689285D02*
X259392857Y-133725000D01*
X259464285Y-133760714D01*
X259642857Y-133760714D01*
X259714285Y-133725000D01*
X259750000Y-133689285D01*
X259785714Y-133617857D01*
X259785714Y-133546428D01*
X259750000Y-133439285D01*
X259321428Y-133010714D01*
X259785714Y-133010714D01*
X260250000Y-133760714D02*
X260321428Y-133760714D01*
X260392857Y-133725000D01*
X260428571Y-133689285D01*
X260464285Y-133617857D01*
X260500000Y-133475000D01*
X260500000Y-133296428D01*
X260464285Y-133153571D01*
X260428571Y-133082142D01*
X260392857Y-133046428D01*
X260321428Y-133010714D01*
X260250000Y-133010714D01*
X260178571Y-133046428D01*
X260142857Y-133082142D01*
X260107142Y-133153571D01*
X260071428Y-133296428D01*
X260071428Y-133475000D01*
X260107142Y-133617857D01*
X260142857Y-133689285D01*
X260178571Y-133725000D01*
X260250000Y-133760714D01*
X261214285Y-133010714D02*
X260785714Y-133010714D01*
X261000000Y-133010714D02*
X261000000Y-133760714D01*
X260928571Y-133653571D01*
X260857142Y-133582142D01*
X260785714Y-133546428D01*
X272735714Y-128760714D02*
X272735714Y-128225000D01*
X272700000Y-128117857D01*
X272628571Y-128046428D01*
X272521428Y-128010714D01*
X272450000Y-128010714D01*
X273057142Y-128689285D02*
X273092857Y-128725000D01*
X273164285Y-128760714D01*
X273342857Y-128760714D01*
X273414285Y-128725000D01*
X273450000Y-128689285D01*
X273485714Y-128617857D01*
X273485714Y-128546428D01*
X273450000Y-128439285D01*
X273021428Y-128010714D01*
X273485714Y-128010714D01*
X273950000Y-128760714D02*
X274021428Y-128760714D01*
X274092857Y-128725000D01*
X274128571Y-128689285D01*
X274164285Y-128617857D01*
X274200000Y-128475000D01*
X274200000Y-128296428D01*
X274164285Y-128153571D01*
X274128571Y-128082142D01*
X274092857Y-128046428D01*
X274021428Y-128010714D01*
X273950000Y-128010714D01*
X273878571Y-128046428D01*
X273842857Y-128082142D01*
X273807142Y-128153571D01*
X273771428Y-128296428D01*
X273771428Y-128475000D01*
X273807142Y-128617857D01*
X273842857Y-128689285D01*
X273878571Y-128725000D01*
X273950000Y-128760714D01*
X274485714Y-128689285D02*
X274521428Y-128725000D01*
X274592857Y-128760714D01*
X274771428Y-128760714D01*
X274842857Y-128725000D01*
X274878571Y-128689285D01*
X274914285Y-128617857D01*
X274914285Y-128546428D01*
X274878571Y-128439285D01*
X274450000Y-128010714D01*
X274914285Y-128010714D01*
X253047857Y-122910714D02*
X253083571Y-122875000D01*
X253119285Y-122767857D01*
X253119285Y-122696428D01*
X253083571Y-122589285D01*
X253012142Y-122517857D01*
X252940714Y-122482142D01*
X252797857Y-122446428D01*
X252690714Y-122446428D01*
X252547857Y-122482142D01*
X252476428Y-122517857D01*
X252405000Y-122589285D01*
X252369285Y-122696428D01*
X252369285Y-122767857D01*
X252405000Y-122875000D01*
X252440714Y-122910714D01*
X252440714Y-123196428D02*
X252405000Y-123232142D01*
X252369285Y-123303571D01*
X252369285Y-123482142D01*
X252405000Y-123553571D01*
X252440714Y-123589285D01*
X252512142Y-123625000D01*
X252583571Y-123625000D01*
X252690714Y-123589285D01*
X253119285Y-123160714D01*
X253119285Y-123625000D01*
X252369285Y-124089285D02*
X252369285Y-124160714D01*
X252405000Y-124232142D01*
X252440714Y-124267857D01*
X252512142Y-124303571D01*
X252655000Y-124339285D01*
X252833571Y-124339285D01*
X252976428Y-124303571D01*
X253047857Y-124267857D01*
X253083571Y-124232142D01*
X253119285Y-124160714D01*
X253119285Y-124089285D01*
X253083571Y-124017857D01*
X253047857Y-123982142D01*
X252976428Y-123946428D01*
X252833571Y-123910714D01*
X252655000Y-123910714D01*
X252512142Y-123946428D01*
X252440714Y-123982142D01*
X252405000Y-124017857D01*
X252369285Y-124089285D01*
X252369285Y-124589285D02*
X252369285Y-125053571D01*
X252655000Y-124803571D01*
X252655000Y-124910714D01*
X252690714Y-124982142D01*
X252726428Y-125017857D01*
X252797857Y-125053571D01*
X252976428Y-125053571D01*
X253047857Y-125017857D01*
X253083571Y-124982142D01*
X253119285Y-124910714D01*
X253119285Y-124696428D01*
X253083571Y-124625000D01*
X253047857Y-124589285D01*
X190767857Y-130910714D02*
X190803571Y-130875000D01*
X190839285Y-130767857D01*
X190839285Y-130696428D01*
X190803571Y-130589285D01*
X190732142Y-130517857D01*
X190660714Y-130482142D01*
X190517857Y-130446428D01*
X190410714Y-130446428D01*
X190267857Y-130482142D01*
X190196428Y-130517857D01*
X190125000Y-130589285D01*
X190089285Y-130696428D01*
X190089285Y-130767857D01*
X190125000Y-130875000D01*
X190160714Y-130910714D01*
X190089285Y-131160714D02*
X190089285Y-131625000D01*
X190375000Y-131375000D01*
X190375000Y-131482142D01*
X190410714Y-131553571D01*
X190446428Y-131589285D01*
X190517857Y-131625000D01*
X190696428Y-131625000D01*
X190767857Y-131589285D01*
X190803571Y-131553571D01*
X190839285Y-131482142D01*
X190839285Y-131267857D01*
X190803571Y-131196428D01*
X190767857Y-131160714D01*
X190089285Y-132089285D02*
X190089285Y-132160714D01*
X190125000Y-132232142D01*
X190160714Y-132267857D01*
X190232142Y-132303571D01*
X190375000Y-132339285D01*
X190553571Y-132339285D01*
X190696428Y-132303571D01*
X190767857Y-132267857D01*
X190803571Y-132232142D01*
X190839285Y-132160714D01*
X190839285Y-132089285D01*
X190803571Y-132017857D01*
X190767857Y-131982142D01*
X190696428Y-131946428D01*
X190553571Y-131910714D01*
X190375000Y-131910714D01*
X190232142Y-131946428D01*
X190160714Y-131982142D01*
X190125000Y-132017857D01*
X190089285Y-132089285D01*
X190839285Y-133053571D02*
X190839285Y-132625000D01*
X190839285Y-132839285D02*
X190089285Y-132839285D01*
X190196428Y-132767857D01*
X190267857Y-132696428D01*
X190303571Y-132625000D01*
X177767857Y-122660714D02*
X177803571Y-122625000D01*
X177839285Y-122517857D01*
X177839285Y-122446428D01*
X177803571Y-122339285D01*
X177732142Y-122267857D01*
X177660714Y-122232142D01*
X177517857Y-122196428D01*
X177410714Y-122196428D01*
X177267857Y-122232142D01*
X177196428Y-122267857D01*
X177125000Y-122339285D01*
X177089285Y-122446428D01*
X177089285Y-122517857D01*
X177125000Y-122625000D01*
X177160714Y-122660714D01*
X177089285Y-122910714D02*
X177089285Y-123375000D01*
X177375000Y-123125000D01*
X177375000Y-123232142D01*
X177410714Y-123303571D01*
X177446428Y-123339285D01*
X177517857Y-123375000D01*
X177696428Y-123375000D01*
X177767857Y-123339285D01*
X177803571Y-123303571D01*
X177839285Y-123232142D01*
X177839285Y-123017857D01*
X177803571Y-122946428D01*
X177767857Y-122910714D01*
X177089285Y-123839285D02*
X177089285Y-123910714D01*
X177125000Y-123982142D01*
X177160714Y-124017857D01*
X177232142Y-124053571D01*
X177375000Y-124089285D01*
X177553571Y-124089285D01*
X177696428Y-124053571D01*
X177767857Y-124017857D01*
X177803571Y-123982142D01*
X177839285Y-123910714D01*
X177839285Y-123839285D01*
X177803571Y-123767857D01*
X177767857Y-123732142D01*
X177696428Y-123696428D01*
X177553571Y-123660714D01*
X177375000Y-123660714D01*
X177232142Y-123696428D01*
X177160714Y-123732142D01*
X177125000Y-123767857D01*
X177089285Y-123839285D01*
X177160714Y-124375000D02*
X177125000Y-124410714D01*
X177089285Y-124482142D01*
X177089285Y-124660714D01*
X177125000Y-124732142D01*
X177160714Y-124767857D01*
X177232142Y-124803571D01*
X177303571Y-124803571D01*
X177410714Y-124767857D01*
X177839285Y-124339285D01*
X177839285Y-124803571D01*
X150017857Y-122660714D02*
X150053571Y-122625000D01*
X150089285Y-122517857D01*
X150089285Y-122446428D01*
X150053571Y-122339285D01*
X149982142Y-122267857D01*
X149910714Y-122232142D01*
X149767857Y-122196428D01*
X149660714Y-122196428D01*
X149517857Y-122232142D01*
X149446428Y-122267857D01*
X149375000Y-122339285D01*
X149339285Y-122446428D01*
X149339285Y-122517857D01*
X149375000Y-122625000D01*
X149410714Y-122660714D01*
X149589285Y-123303571D02*
X150089285Y-123303571D01*
X149303571Y-123125000D02*
X149839285Y-122946428D01*
X149839285Y-123410714D01*
X149339285Y-123839285D02*
X149339285Y-123910714D01*
X149375000Y-123982142D01*
X149410714Y-124017857D01*
X149482142Y-124053571D01*
X149625000Y-124089285D01*
X149803571Y-124089285D01*
X149946428Y-124053571D01*
X150017857Y-124017857D01*
X150053571Y-123982142D01*
X150089285Y-123910714D01*
X150089285Y-123839285D01*
X150053571Y-123767857D01*
X150017857Y-123732142D01*
X149946428Y-123696428D01*
X149803571Y-123660714D01*
X149625000Y-123660714D01*
X149482142Y-123696428D01*
X149410714Y-123732142D01*
X149375000Y-123767857D01*
X149339285Y-123839285D01*
X150089285Y-124803571D02*
X150089285Y-124375000D01*
X150089285Y-124589285D02*
X149339285Y-124589285D01*
X149446428Y-124517857D01*
X149517857Y-124446428D01*
X149553571Y-124375000D01*
X154232142Y-124589285D02*
X154196428Y-124625000D01*
X154160714Y-124732142D01*
X154160714Y-124803571D01*
X154196428Y-124910714D01*
X154267857Y-124982142D01*
X154339285Y-125017857D01*
X154482142Y-125053571D01*
X154589285Y-125053571D01*
X154732142Y-125017857D01*
X154803571Y-124982142D01*
X154875000Y-124910714D01*
X154910714Y-124803571D01*
X154910714Y-124732142D01*
X154875000Y-124625000D01*
X154839285Y-124589285D01*
X154660714Y-123946428D02*
X154160714Y-123946428D01*
X154946428Y-124125000D02*
X154410714Y-124303571D01*
X154410714Y-123839285D01*
X154910714Y-123410714D02*
X154910714Y-123339285D01*
X154875000Y-123267857D01*
X154839285Y-123232142D01*
X154767857Y-123196428D01*
X154625000Y-123160714D01*
X154446428Y-123160714D01*
X154303571Y-123196428D01*
X154232142Y-123232142D01*
X154196428Y-123267857D01*
X154160714Y-123339285D01*
X154160714Y-123410714D01*
X154196428Y-123482142D01*
X154232142Y-123517857D01*
X154303571Y-123553571D01*
X154446428Y-123589285D01*
X154625000Y-123589285D01*
X154767857Y-123553571D01*
X154839285Y-123517857D01*
X154875000Y-123482142D01*
X154910714Y-123410714D01*
X154660714Y-122517857D02*
X154160714Y-122517857D01*
X154946428Y-122696428D02*
X154410714Y-122875000D01*
X154410714Y-122410714D01*
X160732142Y-129839285D02*
X160696428Y-129875000D01*
X160660714Y-129982142D01*
X160660714Y-130053571D01*
X160696428Y-130160714D01*
X160767857Y-130232142D01*
X160839285Y-130267857D01*
X160982142Y-130303571D01*
X161089285Y-130303571D01*
X161232142Y-130267857D01*
X161303571Y-130232142D01*
X161375000Y-130160714D01*
X161410714Y-130053571D01*
X161410714Y-129982142D01*
X161375000Y-129875000D01*
X161339285Y-129839285D01*
X161160714Y-129196428D02*
X160660714Y-129196428D01*
X161446428Y-129375000D02*
X160910714Y-129553571D01*
X160910714Y-129089285D01*
X161410714Y-128660714D02*
X161410714Y-128589285D01*
X161375000Y-128517857D01*
X161339285Y-128482142D01*
X161267857Y-128446428D01*
X161125000Y-128410714D01*
X160946428Y-128410714D01*
X160803571Y-128446428D01*
X160732142Y-128482142D01*
X160696428Y-128517857D01*
X160660714Y-128589285D01*
X160660714Y-128660714D01*
X160696428Y-128732142D01*
X160732142Y-128767857D01*
X160803571Y-128803571D01*
X160946428Y-128839285D01*
X161125000Y-128839285D01*
X161267857Y-128803571D01*
X161339285Y-128767857D01*
X161375000Y-128732142D01*
X161410714Y-128660714D01*
X161339285Y-128125000D02*
X161375000Y-128089285D01*
X161410714Y-128017857D01*
X161410714Y-127839285D01*
X161375000Y-127767857D01*
X161339285Y-127732142D01*
X161267857Y-127696428D01*
X161196428Y-127696428D01*
X161089285Y-127732142D01*
X160660714Y-128160714D01*
X160660714Y-127696428D01*
X161982142Y-135839285D02*
X161946428Y-135875000D01*
X161910714Y-135982142D01*
X161910714Y-136053571D01*
X161946428Y-136160714D01*
X162017857Y-136232142D01*
X162089285Y-136267857D01*
X162232142Y-136303571D01*
X162339285Y-136303571D01*
X162482142Y-136267857D01*
X162553571Y-136232142D01*
X162625000Y-136160714D01*
X162660714Y-136053571D01*
X162660714Y-135982142D01*
X162625000Y-135875000D01*
X162589285Y-135839285D01*
X162410714Y-135196428D02*
X161910714Y-135196428D01*
X162696428Y-135375000D02*
X162160714Y-135553571D01*
X162160714Y-135089285D01*
X162660714Y-134660714D02*
X162660714Y-134589285D01*
X162625000Y-134517857D01*
X162589285Y-134482142D01*
X162517857Y-134446428D01*
X162375000Y-134410714D01*
X162196428Y-134410714D01*
X162053571Y-134446428D01*
X161982142Y-134482142D01*
X161946428Y-134517857D01*
X161910714Y-134589285D01*
X161910714Y-134660714D01*
X161946428Y-134732142D01*
X161982142Y-134767857D01*
X162053571Y-134803571D01*
X162196428Y-134839285D01*
X162375000Y-134839285D01*
X162517857Y-134803571D01*
X162589285Y-134767857D01*
X162625000Y-134732142D01*
X162660714Y-134660714D01*
X162660714Y-133767857D02*
X162660714Y-133910714D01*
X162625000Y-133982142D01*
X162589285Y-134017857D01*
X162482142Y-134089285D01*
X162339285Y-134125000D01*
X162053571Y-134125000D01*
X161982142Y-134089285D01*
X161946428Y-134053571D01*
X161910714Y-133982142D01*
X161910714Y-133839285D01*
X161946428Y-133767857D01*
X161982142Y-133732142D01*
X162053571Y-133696428D01*
X162232142Y-133696428D01*
X162303571Y-133732142D01*
X162339285Y-133767857D01*
X162375000Y-133839285D01*
X162375000Y-133982142D01*
X162339285Y-134053571D01*
X162303571Y-134089285D01*
X162232142Y-134125000D01*
X161982142Y-132839285D02*
X161946428Y-132875000D01*
X161910714Y-132982142D01*
X161910714Y-133053571D01*
X161946428Y-133160714D01*
X162017857Y-133232142D01*
X162089285Y-133267857D01*
X162232142Y-133303571D01*
X162339285Y-133303571D01*
X162482142Y-133267857D01*
X162553571Y-133232142D01*
X162625000Y-133160714D01*
X162660714Y-133053571D01*
X162660714Y-132982142D01*
X162625000Y-132875000D01*
X162589285Y-132839285D01*
X162410714Y-132196428D02*
X161910714Y-132196428D01*
X162696428Y-132375000D02*
X162160714Y-132553571D01*
X162160714Y-132089285D01*
X162660714Y-131660714D02*
X162660714Y-131589285D01*
X162625000Y-131517857D01*
X162589285Y-131482142D01*
X162517857Y-131446428D01*
X162375000Y-131410714D01*
X162196428Y-131410714D01*
X162053571Y-131446428D01*
X161982142Y-131482142D01*
X161946428Y-131517857D01*
X161910714Y-131589285D01*
X161910714Y-131660714D01*
X161946428Y-131732142D01*
X161982142Y-131767857D01*
X162053571Y-131803571D01*
X162196428Y-131839285D01*
X162375000Y-131839285D01*
X162517857Y-131803571D01*
X162589285Y-131767857D01*
X162625000Y-131732142D01*
X162660714Y-131660714D01*
X162660714Y-131160714D02*
X162660714Y-130696428D01*
X162375000Y-130946428D01*
X162375000Y-130839285D01*
X162339285Y-130767857D01*
X162303571Y-130732142D01*
X162232142Y-130696428D01*
X162053571Y-130696428D01*
X161982142Y-130732142D01*
X161946428Y-130767857D01*
X161910714Y-130839285D01*
X161910714Y-131053571D01*
X161946428Y-131125000D01*
X161982142Y-131160714D01*
X185767857Y-124732142D02*
X185803571Y-124696428D01*
X185839285Y-124589285D01*
X185839285Y-124517857D01*
X185803571Y-124410714D01*
X185732142Y-124339285D01*
X185660714Y-124303571D01*
X185517857Y-124267857D01*
X185410714Y-124267857D01*
X185267857Y-124303571D01*
X185196428Y-124339285D01*
X185125000Y-124410714D01*
X185089285Y-124517857D01*
X185089285Y-124589285D01*
X185125000Y-124696428D01*
X185160714Y-124732142D01*
X185839285Y-125446428D02*
X185839285Y-125017857D01*
X185839285Y-125232142D02*
X185089285Y-125232142D01*
X185196428Y-125160714D01*
X185267857Y-125089285D01*
X185303571Y-125017857D01*
X185625000Y-125732142D02*
X185625000Y-126089285D01*
X185839285Y-125660714D02*
X185089285Y-125910714D01*
X185839285Y-126160714D01*
X185089285Y-126339285D02*
X185089285Y-126803571D01*
X185375000Y-126553571D01*
X185375000Y-126660714D01*
X185410714Y-126732142D01*
X185446428Y-126767857D01*
X185517857Y-126803571D01*
X185696428Y-126803571D01*
X185767857Y-126767857D01*
X185803571Y-126732142D01*
X185839285Y-126660714D01*
X185839285Y-126446428D01*
X185803571Y-126375000D01*
X185767857Y-126339285D01*
X185089285Y-127267857D02*
X185089285Y-127339285D01*
X185125000Y-127410714D01*
X185160714Y-127446428D01*
X185232142Y-127482142D01*
X185375000Y-127517857D01*
X185553571Y-127517857D01*
X185696428Y-127482142D01*
X185767857Y-127446428D01*
X185803571Y-127410714D01*
X185839285Y-127339285D01*
X185839285Y-127267857D01*
X185803571Y-127196428D01*
X185767857Y-127160714D01*
X185696428Y-127125000D01*
X185553571Y-127089285D01*
X185375000Y-127089285D01*
X185232142Y-127125000D01*
X185160714Y-127160714D01*
X185125000Y-127196428D01*
X185089285Y-127267857D01*
X185839285Y-128232142D02*
X185839285Y-127803571D01*
X185839285Y-128017857D02*
X185089285Y-128017857D01*
X185196428Y-127946428D01*
X185267857Y-127875000D01*
X185303571Y-127803571D01*
X187267857Y-124678571D02*
X187303571Y-124642857D01*
X187339285Y-124535714D01*
X187339285Y-124464285D01*
X187303571Y-124357142D01*
X187232142Y-124285714D01*
X187160714Y-124250000D01*
X187017857Y-124214285D01*
X186910714Y-124214285D01*
X186767857Y-124250000D01*
X186696428Y-124285714D01*
X186625000Y-124357142D01*
X186589285Y-124464285D01*
X186589285Y-124535714D01*
X186625000Y-124642857D01*
X186660714Y-124678571D01*
X187339285Y-125392857D02*
X187339285Y-124964285D01*
X187339285Y-125178571D02*
X186589285Y-125178571D01*
X186696428Y-125107142D01*
X186767857Y-125035714D01*
X186803571Y-124964285D01*
X186946428Y-125964285D02*
X186982142Y-126071428D01*
X187017857Y-126107142D01*
X187089285Y-126142857D01*
X187196428Y-126142857D01*
X187267857Y-126107142D01*
X187303571Y-126071428D01*
X187339285Y-126000000D01*
X187339285Y-125714285D01*
X186589285Y-125714285D01*
X186589285Y-125964285D01*
X186625000Y-126035714D01*
X186660714Y-126071428D01*
X186732142Y-126107142D01*
X186803571Y-126107142D01*
X186875000Y-126071428D01*
X186910714Y-126035714D01*
X186946428Y-125964285D01*
X186946428Y-125714285D01*
X186589285Y-126392857D02*
X186589285Y-126857142D01*
X186875000Y-126607142D01*
X186875000Y-126714285D01*
X186910714Y-126785714D01*
X186946428Y-126821428D01*
X187017857Y-126857142D01*
X187196428Y-126857142D01*
X187267857Y-126821428D01*
X187303571Y-126785714D01*
X187339285Y-126714285D01*
X187339285Y-126500000D01*
X187303571Y-126428571D01*
X187267857Y-126392857D01*
X186589285Y-127321428D02*
X186589285Y-127392857D01*
X186625000Y-127464285D01*
X186660714Y-127500000D01*
X186732142Y-127535714D01*
X186875000Y-127571428D01*
X187053571Y-127571428D01*
X187196428Y-127535714D01*
X187267857Y-127500000D01*
X187303571Y-127464285D01*
X187339285Y-127392857D01*
X187339285Y-127321428D01*
X187303571Y-127250000D01*
X187267857Y-127214285D01*
X187196428Y-127178571D01*
X187053571Y-127142857D01*
X186875000Y-127142857D01*
X186732142Y-127178571D01*
X186660714Y-127214285D01*
X186625000Y-127250000D01*
X186589285Y-127321428D01*
X187339285Y-128285714D02*
X187339285Y-127857142D01*
X187339285Y-128071428D02*
X186589285Y-128071428D01*
X186696428Y-128000000D01*
X186767857Y-127928571D01*
X186803571Y-127857142D01*
X170232142Y-144267857D02*
X170196428Y-144303571D01*
X170160714Y-144410714D01*
X170160714Y-144482142D01*
X170196428Y-144589285D01*
X170267857Y-144660714D01*
X170339285Y-144696428D01*
X170482142Y-144732142D01*
X170589285Y-144732142D01*
X170732142Y-144696428D01*
X170803571Y-144660714D01*
X170875000Y-144589285D01*
X170910714Y-144482142D01*
X170910714Y-144410714D01*
X170875000Y-144303571D01*
X170839285Y-144267857D01*
X170839285Y-143982142D02*
X170875000Y-143946428D01*
X170910714Y-143875000D01*
X170910714Y-143696428D01*
X170875000Y-143625000D01*
X170839285Y-143589285D01*
X170767857Y-143553571D01*
X170696428Y-143553571D01*
X170589285Y-143589285D01*
X170160714Y-144017857D01*
X170160714Y-143553571D01*
X170375000Y-143267857D02*
X170375000Y-142910714D01*
X170160714Y-143339285D02*
X170910714Y-143089285D01*
X170160714Y-142839285D01*
X170910714Y-142660714D02*
X170910714Y-142196428D01*
X170625000Y-142446428D01*
X170625000Y-142339285D01*
X170589285Y-142267857D01*
X170553571Y-142232142D01*
X170482142Y-142196428D01*
X170303571Y-142196428D01*
X170232142Y-142232142D01*
X170196428Y-142267857D01*
X170160714Y-142339285D01*
X170160714Y-142553571D01*
X170196428Y-142625000D01*
X170232142Y-142660714D01*
X170910714Y-141732142D02*
X170910714Y-141660714D01*
X170875000Y-141589285D01*
X170839285Y-141553571D01*
X170767857Y-141517857D01*
X170625000Y-141482142D01*
X170446428Y-141482142D01*
X170303571Y-141517857D01*
X170232142Y-141553571D01*
X170196428Y-141589285D01*
X170160714Y-141660714D01*
X170160714Y-141732142D01*
X170196428Y-141803571D01*
X170232142Y-141839285D01*
X170303571Y-141875000D01*
X170446428Y-141910714D01*
X170625000Y-141910714D01*
X170767857Y-141875000D01*
X170839285Y-141839285D01*
X170875000Y-141803571D01*
X170910714Y-141732142D01*
X170160714Y-140767857D02*
X170160714Y-141196428D01*
X170160714Y-140982142D02*
X170910714Y-140982142D01*
X170803571Y-141053571D01*
X170732142Y-141125000D01*
X170696428Y-141196428D01*
X168982142Y-144321428D02*
X168946428Y-144357142D01*
X168910714Y-144464285D01*
X168910714Y-144535714D01*
X168946428Y-144642857D01*
X169017857Y-144714285D01*
X169089285Y-144750000D01*
X169232142Y-144785714D01*
X169339285Y-144785714D01*
X169482142Y-144750000D01*
X169553571Y-144714285D01*
X169625000Y-144642857D01*
X169660714Y-144535714D01*
X169660714Y-144464285D01*
X169625000Y-144357142D01*
X169589285Y-144321428D01*
X169589285Y-144035714D02*
X169625000Y-144000000D01*
X169660714Y-143928571D01*
X169660714Y-143750000D01*
X169625000Y-143678571D01*
X169589285Y-143642857D01*
X169517857Y-143607142D01*
X169446428Y-143607142D01*
X169339285Y-143642857D01*
X168910714Y-144071428D01*
X168910714Y-143607142D01*
X169303571Y-143035714D02*
X169267857Y-142928571D01*
X169232142Y-142892857D01*
X169160714Y-142857142D01*
X169053571Y-142857142D01*
X168982142Y-142892857D01*
X168946428Y-142928571D01*
X168910714Y-143000000D01*
X168910714Y-143285714D01*
X169660714Y-143285714D01*
X169660714Y-143035714D01*
X169625000Y-142964285D01*
X169589285Y-142928571D01*
X169517857Y-142892857D01*
X169446428Y-142892857D01*
X169375000Y-142928571D01*
X169339285Y-142964285D01*
X169303571Y-143035714D01*
X169303571Y-143285714D01*
X169660714Y-142607142D02*
X169660714Y-142142857D01*
X169375000Y-142392857D01*
X169375000Y-142285714D01*
X169339285Y-142214285D01*
X169303571Y-142178571D01*
X169232142Y-142142857D01*
X169053571Y-142142857D01*
X168982142Y-142178571D01*
X168946428Y-142214285D01*
X168910714Y-142285714D01*
X168910714Y-142500000D01*
X168946428Y-142571428D01*
X168982142Y-142607142D01*
X169660714Y-141678571D02*
X169660714Y-141607142D01*
X169625000Y-141535714D01*
X169589285Y-141500000D01*
X169517857Y-141464285D01*
X169375000Y-141428571D01*
X169196428Y-141428571D01*
X169053571Y-141464285D01*
X168982142Y-141500000D01*
X168946428Y-141535714D01*
X168910714Y-141607142D01*
X168910714Y-141678571D01*
X168946428Y-141750000D01*
X168982142Y-141785714D01*
X169053571Y-141821428D01*
X169196428Y-141857142D01*
X169375000Y-141857142D01*
X169517857Y-141821428D01*
X169589285Y-141785714D01*
X169625000Y-141750000D01*
X169660714Y-141678571D01*
X168910714Y-140714285D02*
X168910714Y-141142857D01*
X168910714Y-140928571D02*
X169660714Y-140928571D01*
X169553571Y-141000000D01*
X169482142Y-141071428D01*
X169446428Y-141142857D01*
X173767857Y-125982142D02*
X173803571Y-125946428D01*
X173839285Y-125839285D01*
X173839285Y-125767857D01*
X173803571Y-125660714D01*
X173732142Y-125589285D01*
X173660714Y-125553571D01*
X173517857Y-125517857D01*
X173410714Y-125517857D01*
X173267857Y-125553571D01*
X173196428Y-125589285D01*
X173125000Y-125660714D01*
X173089285Y-125767857D01*
X173089285Y-125839285D01*
X173125000Y-125946428D01*
X173160714Y-125982142D01*
X173089285Y-126232142D02*
X173089285Y-126696428D01*
X173375000Y-126446428D01*
X173375000Y-126553571D01*
X173410714Y-126625000D01*
X173446428Y-126660714D01*
X173517857Y-126696428D01*
X173696428Y-126696428D01*
X173767857Y-126660714D01*
X173803571Y-126625000D01*
X173839285Y-126553571D01*
X173839285Y-126339285D01*
X173803571Y-126267857D01*
X173767857Y-126232142D01*
X173625000Y-126982142D02*
X173625000Y-127339285D01*
X173839285Y-126910714D02*
X173089285Y-127160714D01*
X173839285Y-127410714D01*
X173089285Y-127589285D02*
X173089285Y-128053571D01*
X173375000Y-127803571D01*
X173375000Y-127910714D01*
X173410714Y-127982142D01*
X173446428Y-128017857D01*
X173517857Y-128053571D01*
X173696428Y-128053571D01*
X173767857Y-128017857D01*
X173803571Y-127982142D01*
X173839285Y-127910714D01*
X173839285Y-127696428D01*
X173803571Y-127625000D01*
X173767857Y-127589285D01*
X173089285Y-128517857D02*
X173089285Y-128589285D01*
X173125000Y-128660714D01*
X173160714Y-128696428D01*
X173232142Y-128732142D01*
X173375000Y-128767857D01*
X173553571Y-128767857D01*
X173696428Y-128732142D01*
X173767857Y-128696428D01*
X173803571Y-128660714D01*
X173839285Y-128589285D01*
X173839285Y-128517857D01*
X173803571Y-128446428D01*
X173767857Y-128410714D01*
X173696428Y-128375000D01*
X173553571Y-128339285D01*
X173375000Y-128339285D01*
X173232142Y-128375000D01*
X173160714Y-128410714D01*
X173125000Y-128446428D01*
X173089285Y-128517857D01*
X173839285Y-129482142D02*
X173839285Y-129053571D01*
X173839285Y-129267857D02*
X173089285Y-129267857D01*
X173196428Y-129196428D01*
X173267857Y-129125000D01*
X173303571Y-129053571D01*
X172517857Y-125928571D02*
X172553571Y-125892857D01*
X172589285Y-125785714D01*
X172589285Y-125714285D01*
X172553571Y-125607142D01*
X172482142Y-125535714D01*
X172410714Y-125500000D01*
X172267857Y-125464285D01*
X172160714Y-125464285D01*
X172017857Y-125500000D01*
X171946428Y-125535714D01*
X171875000Y-125607142D01*
X171839285Y-125714285D01*
X171839285Y-125785714D01*
X171875000Y-125892857D01*
X171910714Y-125928571D01*
X171839285Y-126178571D02*
X171839285Y-126642857D01*
X172125000Y-126392857D01*
X172125000Y-126500000D01*
X172160714Y-126571428D01*
X172196428Y-126607142D01*
X172267857Y-126642857D01*
X172446428Y-126642857D01*
X172517857Y-126607142D01*
X172553571Y-126571428D01*
X172589285Y-126500000D01*
X172589285Y-126285714D01*
X172553571Y-126214285D01*
X172517857Y-126178571D01*
X172196428Y-127214285D02*
X172232142Y-127321428D01*
X172267857Y-127357142D01*
X172339285Y-127392857D01*
X172446428Y-127392857D01*
X172517857Y-127357142D01*
X172553571Y-127321428D01*
X172589285Y-127250000D01*
X172589285Y-126964285D01*
X171839285Y-126964285D01*
X171839285Y-127214285D01*
X171875000Y-127285714D01*
X171910714Y-127321428D01*
X171982142Y-127357142D01*
X172053571Y-127357142D01*
X172125000Y-127321428D01*
X172160714Y-127285714D01*
X172196428Y-127214285D01*
X172196428Y-126964285D01*
X171839285Y-127642857D02*
X171839285Y-128107142D01*
X172125000Y-127857142D01*
X172125000Y-127964285D01*
X172160714Y-128035714D01*
X172196428Y-128071428D01*
X172267857Y-128107142D01*
X172446428Y-128107142D01*
X172517857Y-128071428D01*
X172553571Y-128035714D01*
X172589285Y-127964285D01*
X172589285Y-127750000D01*
X172553571Y-127678571D01*
X172517857Y-127642857D01*
X171839285Y-128571428D02*
X171839285Y-128642857D01*
X171875000Y-128714285D01*
X171910714Y-128750000D01*
X171982142Y-128785714D01*
X172125000Y-128821428D01*
X172303571Y-128821428D01*
X172446428Y-128785714D01*
X172517857Y-128750000D01*
X172553571Y-128714285D01*
X172589285Y-128642857D01*
X172589285Y-128571428D01*
X172553571Y-128500000D01*
X172517857Y-128464285D01*
X172446428Y-128428571D01*
X172303571Y-128392857D01*
X172125000Y-128392857D01*
X171982142Y-128428571D01*
X171910714Y-128464285D01*
X171875000Y-128500000D01*
X171839285Y-128571428D01*
X172589285Y-129535714D02*
X172589285Y-129107142D01*
X172589285Y-129321428D02*
X171839285Y-129321428D01*
X171946428Y-129250000D01*
X172017857Y-129178571D01*
X172053571Y-129107142D01*
X172107142Y-135982142D02*
X172071428Y-135946428D01*
X171964285Y-135910714D01*
X171892857Y-135910714D01*
X171785714Y-135946428D01*
X171714285Y-136017857D01*
X171678571Y-136089285D01*
X171642857Y-136232142D01*
X171642857Y-136339285D01*
X171678571Y-136482142D01*
X171714285Y-136553571D01*
X171785714Y-136625000D01*
X171892857Y-136660714D01*
X171964285Y-136660714D01*
X172071428Y-136625000D01*
X172107142Y-136589285D01*
X172321428Y-136410714D02*
X172607142Y-136410714D01*
X172428571Y-135910714D02*
X172428571Y-136553571D01*
X172464285Y-136625000D01*
X172535714Y-136660714D01*
X172607142Y-136660714D01*
X172857142Y-135910714D02*
X172857142Y-136660714D01*
X172857142Y-136375000D02*
X172928571Y-136410714D01*
X173071428Y-136410714D01*
X173142857Y-136375000D01*
X173178571Y-136339285D01*
X173214285Y-136267857D01*
X173214285Y-136053571D01*
X173178571Y-135982142D01*
X173142857Y-135946428D01*
X173071428Y-135910714D01*
X172928571Y-135910714D01*
X172857142Y-135946428D01*
X173464285Y-136660714D02*
X173928571Y-136660714D01*
X173678571Y-136375000D01*
X173785714Y-136375000D01*
X173857142Y-136339285D01*
X173892857Y-136303571D01*
X173928571Y-136232142D01*
X173928571Y-136053571D01*
X173892857Y-135982142D01*
X173857142Y-135946428D01*
X173785714Y-135910714D01*
X173571428Y-135910714D01*
X173500000Y-135946428D01*
X173464285Y-135982142D01*
X174392857Y-136660714D02*
X174464285Y-136660714D01*
X174535714Y-136625000D01*
X174571428Y-136589285D01*
X174607142Y-136517857D01*
X174642857Y-136375000D01*
X174642857Y-136196428D01*
X174607142Y-136053571D01*
X174571428Y-135982142D01*
X174535714Y-135946428D01*
X174464285Y-135910714D01*
X174392857Y-135910714D01*
X174321428Y-135946428D01*
X174285714Y-135982142D01*
X174250000Y-136053571D01*
X174214285Y-136196428D01*
X174214285Y-136375000D01*
X174250000Y-136517857D01*
X174285714Y-136589285D01*
X174321428Y-136625000D01*
X174392857Y-136660714D01*
X175357142Y-135910714D02*
X174928571Y-135910714D01*
X175142857Y-135910714D02*
X175142857Y-136660714D01*
X175071428Y-136553571D01*
X175000000Y-136482142D01*
X174928571Y-136446428D01*
X184410714Y-124089285D02*
X184410714Y-123339285D01*
X184232142Y-123339285D01*
X184125000Y-123375000D01*
X184053571Y-123446428D01*
X184017857Y-123517857D01*
X183982142Y-123660714D01*
X183982142Y-123767857D01*
X184017857Y-123910714D01*
X184053571Y-123982142D01*
X184125000Y-124053571D01*
X184232142Y-124089285D01*
X184410714Y-124089285D01*
X183660714Y-124089285D02*
X183660714Y-123339285D01*
X183660714Y-123625000D02*
X183589285Y-123589285D01*
X183446428Y-123589285D01*
X183375000Y-123625000D01*
X183339285Y-123660714D01*
X183303571Y-123732142D01*
X183303571Y-123946428D01*
X183339285Y-124017857D01*
X183375000Y-124053571D01*
X183446428Y-124089285D01*
X183589285Y-124089285D01*
X183660714Y-124053571D01*
X183017857Y-124053571D02*
X182946428Y-124089285D01*
X182803571Y-124089285D01*
X182732142Y-124053571D01*
X182696428Y-123982142D01*
X182696428Y-123946428D01*
X182732142Y-123875000D01*
X182803571Y-123839285D01*
X182910714Y-123839285D01*
X182982142Y-123803571D01*
X183017857Y-123732142D01*
X183017857Y-123696428D01*
X182982142Y-123625000D01*
X182910714Y-123589285D01*
X182803571Y-123589285D01*
X182732142Y-123625000D01*
X182446428Y-123339285D02*
X181982142Y-123339285D01*
X182232142Y-123625000D01*
X182125000Y-123625000D01*
X182053571Y-123660714D01*
X182017857Y-123696428D01*
X181982142Y-123767857D01*
X181982142Y-123946428D01*
X182017857Y-124017857D01*
X182053571Y-124053571D01*
X182125000Y-124089285D01*
X182339285Y-124089285D01*
X182410714Y-124053571D01*
X182446428Y-124017857D01*
X181517857Y-123339285D02*
X181446428Y-123339285D01*
X181375000Y-123375000D01*
X181339285Y-123410714D01*
X181303571Y-123482142D01*
X181267857Y-123625000D01*
X181267857Y-123803571D01*
X181303571Y-123946428D01*
X181339285Y-124017857D01*
X181375000Y-124053571D01*
X181446428Y-124089285D01*
X181517857Y-124089285D01*
X181589285Y-124053571D01*
X181625000Y-124017857D01*
X181660714Y-123946428D01*
X181696428Y-123803571D01*
X181696428Y-123625000D01*
X181660714Y-123482142D01*
X181625000Y-123410714D01*
X181589285Y-123375000D01*
X181517857Y-123339285D01*
X180553571Y-124089285D02*
X180982142Y-124089285D01*
X180767857Y-124089285D02*
X180767857Y-123339285D01*
X180839285Y-123446428D01*
X180910714Y-123517857D01*
X180982142Y-123553571D01*
X179589285Y-124910714D02*
X179232142Y-124660714D01*
X179589285Y-124482142D02*
X178839285Y-124482142D01*
X178839285Y-124767857D01*
X178875000Y-124839285D01*
X178910714Y-124875000D01*
X178982142Y-124910714D01*
X179089285Y-124910714D01*
X179160714Y-124875000D01*
X179196428Y-124839285D01*
X179232142Y-124767857D01*
X179232142Y-124482142D01*
X178839285Y-125160714D02*
X178839285Y-125625000D01*
X179125000Y-125375000D01*
X179125000Y-125482142D01*
X179160714Y-125553571D01*
X179196428Y-125589285D01*
X179267857Y-125625000D01*
X179446428Y-125625000D01*
X179517857Y-125589285D01*
X179553571Y-125553571D01*
X179589285Y-125482142D01*
X179589285Y-125267857D01*
X179553571Y-125196428D01*
X179517857Y-125160714D01*
X178839285Y-126089285D02*
X178839285Y-126160714D01*
X178875000Y-126232142D01*
X178910714Y-126267857D01*
X178982142Y-126303571D01*
X179125000Y-126339285D01*
X179303571Y-126339285D01*
X179446428Y-126303571D01*
X179517857Y-126267857D01*
X179553571Y-126232142D01*
X179589285Y-126160714D01*
X179589285Y-126089285D01*
X179553571Y-126017857D01*
X179517857Y-125982142D01*
X179446428Y-125946428D01*
X179303571Y-125910714D01*
X179125000Y-125910714D01*
X178982142Y-125946428D01*
X178910714Y-125982142D01*
X178875000Y-126017857D01*
X178839285Y-126089285D01*
X179589285Y-127053571D02*
X179589285Y-126625000D01*
X179589285Y-126839285D02*
X178839285Y-126839285D01*
X178946428Y-126767857D01*
X179017857Y-126696428D01*
X179053571Y-126625000D01*
X175339285Y-123160714D02*
X174982142Y-122910714D01*
X175339285Y-122732142D02*
X174589285Y-122732142D01*
X174589285Y-123017857D01*
X174625000Y-123089285D01*
X174660714Y-123125000D01*
X174732142Y-123160714D01*
X174839285Y-123160714D01*
X174910714Y-123125000D01*
X174946428Y-123089285D01*
X174982142Y-123017857D01*
X174982142Y-122732142D01*
X174589285Y-123410714D02*
X174589285Y-123875000D01*
X174875000Y-123625000D01*
X174875000Y-123732142D01*
X174910714Y-123803571D01*
X174946428Y-123839285D01*
X175017857Y-123875000D01*
X175196428Y-123875000D01*
X175267857Y-123839285D01*
X175303571Y-123803571D01*
X175339285Y-123732142D01*
X175339285Y-123517857D01*
X175303571Y-123446428D01*
X175267857Y-123410714D01*
X174589285Y-124339285D02*
X174589285Y-124410714D01*
X174625000Y-124482142D01*
X174660714Y-124517857D01*
X174732142Y-124553571D01*
X174875000Y-124589285D01*
X175053571Y-124589285D01*
X175196428Y-124553571D01*
X175267857Y-124517857D01*
X175303571Y-124482142D01*
X175339285Y-124410714D01*
X175339285Y-124339285D01*
X175303571Y-124267857D01*
X175267857Y-124232142D01*
X175196428Y-124196428D01*
X175053571Y-124160714D01*
X174875000Y-124160714D01*
X174732142Y-124196428D01*
X174660714Y-124232142D01*
X174625000Y-124267857D01*
X174589285Y-124339285D01*
X174660714Y-124875000D02*
X174625000Y-124910714D01*
X174589285Y-124982142D01*
X174589285Y-125160714D01*
X174625000Y-125232142D01*
X174660714Y-125267857D01*
X174732142Y-125303571D01*
X174803571Y-125303571D01*
X174910714Y-125267857D01*
X175339285Y-124839285D01*
X175339285Y-125303571D01*
X170839285Y-126910714D02*
X170482142Y-126660714D01*
X170839285Y-126482142D02*
X170089285Y-126482142D01*
X170089285Y-126767857D01*
X170125000Y-126839285D01*
X170160714Y-126875000D01*
X170232142Y-126910714D01*
X170339285Y-126910714D01*
X170410714Y-126875000D01*
X170446428Y-126839285D01*
X170482142Y-126767857D01*
X170482142Y-126482142D01*
X170089285Y-127160714D02*
X170089285Y-127625000D01*
X170375000Y-127375000D01*
X170375000Y-127482142D01*
X170410714Y-127553571D01*
X170446428Y-127589285D01*
X170517857Y-127625000D01*
X170696428Y-127625000D01*
X170767857Y-127589285D01*
X170803571Y-127553571D01*
X170839285Y-127482142D01*
X170839285Y-127267857D01*
X170803571Y-127196428D01*
X170767857Y-127160714D01*
X170089285Y-128089285D02*
X170089285Y-128160714D01*
X170125000Y-128232142D01*
X170160714Y-128267857D01*
X170232142Y-128303571D01*
X170375000Y-128339285D01*
X170553571Y-128339285D01*
X170696428Y-128303571D01*
X170767857Y-128267857D01*
X170803571Y-128232142D01*
X170839285Y-128160714D01*
X170839285Y-128089285D01*
X170803571Y-128017857D01*
X170767857Y-127982142D01*
X170696428Y-127946428D01*
X170553571Y-127910714D01*
X170375000Y-127910714D01*
X170232142Y-127946428D01*
X170160714Y-127982142D01*
X170125000Y-128017857D01*
X170089285Y-128089285D01*
X170089285Y-128589285D02*
X170089285Y-129053571D01*
X170375000Y-128803571D01*
X170375000Y-128910714D01*
X170410714Y-128982142D01*
X170446428Y-129017857D01*
X170517857Y-129053571D01*
X170696428Y-129053571D01*
X170767857Y-129017857D01*
X170803571Y-128982142D01*
X170839285Y-128910714D01*
X170839285Y-128696428D01*
X170803571Y-128625000D01*
X170767857Y-128589285D01*
X168589285Y-126910714D02*
X168232142Y-126660714D01*
X168589285Y-126482142D02*
X167839285Y-126482142D01*
X167839285Y-126767857D01*
X167875000Y-126839285D01*
X167910714Y-126875000D01*
X167982142Y-126910714D01*
X168089285Y-126910714D01*
X168160714Y-126875000D01*
X168196428Y-126839285D01*
X168232142Y-126767857D01*
X168232142Y-126482142D01*
X167839285Y-127160714D02*
X167839285Y-127625000D01*
X168125000Y-127375000D01*
X168125000Y-127482142D01*
X168160714Y-127553571D01*
X168196428Y-127589285D01*
X168267857Y-127625000D01*
X168446428Y-127625000D01*
X168517857Y-127589285D01*
X168553571Y-127553571D01*
X168589285Y-127482142D01*
X168589285Y-127267857D01*
X168553571Y-127196428D01*
X168517857Y-127160714D01*
X167839285Y-128089285D02*
X167839285Y-128160714D01*
X167875000Y-128232142D01*
X167910714Y-128267857D01*
X167982142Y-128303571D01*
X168125000Y-128339285D01*
X168303571Y-128339285D01*
X168446428Y-128303571D01*
X168517857Y-128267857D01*
X168553571Y-128232142D01*
X168589285Y-128160714D01*
X168589285Y-128089285D01*
X168553571Y-128017857D01*
X168517857Y-127982142D01*
X168446428Y-127946428D01*
X168303571Y-127910714D01*
X168125000Y-127910714D01*
X167982142Y-127946428D01*
X167910714Y-127982142D01*
X167875000Y-128017857D01*
X167839285Y-128089285D01*
X168089285Y-128982142D02*
X168589285Y-128982142D01*
X167803571Y-128803571D02*
X168339285Y-128625000D01*
X168339285Y-129089285D01*
X169339285Y-122839285D02*
X169589285Y-122482142D01*
X169767857Y-122839285D02*
X169767857Y-122089285D01*
X169482142Y-122089285D01*
X169410714Y-122125000D01*
X169375000Y-122160714D01*
X169339285Y-122232142D01*
X169339285Y-122339285D01*
X169375000Y-122410714D01*
X169410714Y-122446428D01*
X169482142Y-122482142D01*
X169767857Y-122482142D01*
X168696428Y-122339285D02*
X168696428Y-122839285D01*
X168875000Y-122053571D02*
X169053571Y-122589285D01*
X168589285Y-122589285D01*
X168160714Y-122089285D02*
X168089285Y-122089285D01*
X168017857Y-122125000D01*
X167982142Y-122160714D01*
X167946428Y-122232142D01*
X167910714Y-122375000D01*
X167910714Y-122553571D01*
X167946428Y-122696428D01*
X167982142Y-122767857D01*
X168017857Y-122803571D01*
X168089285Y-122839285D01*
X168160714Y-122839285D01*
X168232142Y-122803571D01*
X168267857Y-122767857D01*
X168303571Y-122696428D01*
X168339285Y-122553571D01*
X168339285Y-122375000D01*
X168303571Y-122232142D01*
X168267857Y-122160714D01*
X168232142Y-122125000D01*
X168160714Y-122089285D01*
X167196428Y-122839285D02*
X167625000Y-122839285D01*
X167410714Y-122839285D02*
X167410714Y-122089285D01*
X167482142Y-122196428D01*
X167553571Y-122267857D01*
X167625000Y-122303571D01*
X168339285Y-124589285D02*
X168589285Y-124232142D01*
X168767857Y-124589285D02*
X168767857Y-123839285D01*
X168482142Y-123839285D01*
X168410714Y-123875000D01*
X168375000Y-123910714D01*
X168339285Y-123982142D01*
X168339285Y-124089285D01*
X168375000Y-124160714D01*
X168410714Y-124196428D01*
X168482142Y-124232142D01*
X168767857Y-124232142D01*
X167696428Y-124089285D02*
X167696428Y-124589285D01*
X167875000Y-123803571D02*
X168053571Y-124339285D01*
X167589285Y-124339285D01*
X167160714Y-123839285D02*
X167089285Y-123839285D01*
X167017857Y-123875000D01*
X166982142Y-123910714D01*
X166946428Y-123982142D01*
X166910714Y-124125000D01*
X166910714Y-124303571D01*
X166946428Y-124446428D01*
X166982142Y-124517857D01*
X167017857Y-124553571D01*
X167089285Y-124589285D01*
X167160714Y-124589285D01*
X167232142Y-124553571D01*
X167267857Y-124517857D01*
X167303571Y-124446428D01*
X167339285Y-124303571D01*
X167339285Y-124125000D01*
X167303571Y-123982142D01*
X167267857Y-123910714D01*
X167232142Y-123875000D01*
X167160714Y-123839285D01*
X166625000Y-123910714D02*
X166589285Y-123875000D01*
X166517857Y-123839285D01*
X166339285Y-123839285D01*
X166267857Y-123875000D01*
X166232142Y-123910714D01*
X166196428Y-123982142D01*
X166196428Y-124053571D01*
X166232142Y-124160714D01*
X166660714Y-124589285D01*
X166196428Y-124589285D01*
X164589285Y-129660714D02*
X164232142Y-129410714D01*
X164589285Y-129232142D02*
X163839285Y-129232142D01*
X163839285Y-129517857D01*
X163875000Y-129589285D01*
X163910714Y-129625000D01*
X163982142Y-129660714D01*
X164089285Y-129660714D01*
X164160714Y-129625000D01*
X164196428Y-129589285D01*
X164232142Y-129517857D01*
X164232142Y-129232142D01*
X164089285Y-130303571D02*
X164589285Y-130303571D01*
X163803571Y-130125000D02*
X164339285Y-129946428D01*
X164339285Y-130410714D01*
X163839285Y-130839285D02*
X163839285Y-130910714D01*
X163875000Y-130982142D01*
X163910714Y-131017857D01*
X163982142Y-131053571D01*
X164125000Y-131089285D01*
X164303571Y-131089285D01*
X164446428Y-131053571D01*
X164517857Y-131017857D01*
X164553571Y-130982142D01*
X164589285Y-130910714D01*
X164589285Y-130839285D01*
X164553571Y-130767857D01*
X164517857Y-130732142D01*
X164446428Y-130696428D01*
X164303571Y-130660714D01*
X164125000Y-130660714D01*
X163982142Y-130696428D01*
X163910714Y-130732142D01*
X163875000Y-130767857D01*
X163839285Y-130839285D01*
X163839285Y-131339285D02*
X163839285Y-131803571D01*
X164125000Y-131553571D01*
X164125000Y-131660714D01*
X164160714Y-131732142D01*
X164196428Y-131767857D01*
X164267857Y-131803571D01*
X164446428Y-131803571D01*
X164517857Y-131767857D01*
X164553571Y-131732142D01*
X164589285Y-131660714D01*
X164589285Y-131446428D01*
X164553571Y-131375000D01*
X164517857Y-131339285D01*
X165839285Y-129660714D02*
X165482142Y-129410714D01*
X165839285Y-129232142D02*
X165089285Y-129232142D01*
X165089285Y-129517857D01*
X165125000Y-129589285D01*
X165160714Y-129625000D01*
X165232142Y-129660714D01*
X165339285Y-129660714D01*
X165410714Y-129625000D01*
X165446428Y-129589285D01*
X165482142Y-129517857D01*
X165482142Y-129232142D01*
X165339285Y-130303571D02*
X165839285Y-130303571D01*
X165053571Y-130125000D02*
X165589285Y-129946428D01*
X165589285Y-130410714D01*
X165089285Y-130839285D02*
X165089285Y-130910714D01*
X165125000Y-130982142D01*
X165160714Y-131017857D01*
X165232142Y-131053571D01*
X165375000Y-131089285D01*
X165553571Y-131089285D01*
X165696428Y-131053571D01*
X165767857Y-131017857D01*
X165803571Y-130982142D01*
X165839285Y-130910714D01*
X165839285Y-130839285D01*
X165803571Y-130767857D01*
X165767857Y-130732142D01*
X165696428Y-130696428D01*
X165553571Y-130660714D01*
X165375000Y-130660714D01*
X165232142Y-130696428D01*
X165160714Y-130732142D01*
X165125000Y-130767857D01*
X165089285Y-130839285D01*
X165339285Y-131732142D02*
X165839285Y-131732142D01*
X165053571Y-131553571D02*
X165589285Y-131375000D01*
X165589285Y-131839285D01*
X190517857Y-135839285D02*
X190517857Y-135089285D01*
X190339285Y-135089285D01*
X190232142Y-135125000D01*
X190160714Y-135196428D01*
X190125000Y-135267857D01*
X190089285Y-135410714D01*
X190089285Y-135517857D01*
X190125000Y-135660714D01*
X190160714Y-135732142D01*
X190232142Y-135803571D01*
X190339285Y-135839285D01*
X190517857Y-135839285D01*
X189839285Y-135089285D02*
X189375000Y-135089285D01*
X189625000Y-135375000D01*
X189517857Y-135375000D01*
X189446428Y-135410714D01*
X189410714Y-135446428D01*
X189375000Y-135517857D01*
X189375000Y-135696428D01*
X189410714Y-135767857D01*
X189446428Y-135803571D01*
X189517857Y-135839285D01*
X189732142Y-135839285D01*
X189803571Y-135803571D01*
X189839285Y-135767857D01*
X188910714Y-135089285D02*
X188839285Y-135089285D01*
X188767857Y-135125000D01*
X188732142Y-135160714D01*
X188696428Y-135232142D01*
X188660714Y-135375000D01*
X188660714Y-135553571D01*
X188696428Y-135696428D01*
X188732142Y-135767857D01*
X188767857Y-135803571D01*
X188839285Y-135839285D01*
X188910714Y-135839285D01*
X188982142Y-135803571D01*
X189017857Y-135767857D01*
X189053571Y-135696428D01*
X189089285Y-135553571D01*
X189089285Y-135375000D01*
X189053571Y-135232142D01*
X189017857Y-135160714D01*
X188982142Y-135125000D01*
X188910714Y-135089285D01*
X187946428Y-135839285D02*
X188375000Y-135839285D01*
X188160714Y-135839285D02*
X188160714Y-135089285D01*
X188232142Y-135196428D01*
X188303571Y-135267857D01*
X188375000Y-135303571D01*
X175839285Y-143410714D02*
X175839285Y-143053571D01*
X175089285Y-143053571D01*
X175089285Y-143589285D02*
X175089285Y-144053571D01*
X175375000Y-143803571D01*
X175375000Y-143910714D01*
X175410714Y-143982142D01*
X175446428Y-144017857D01*
X175517857Y-144053571D01*
X175696428Y-144053571D01*
X175767857Y-144017857D01*
X175803571Y-143982142D01*
X175839285Y-143910714D01*
X175839285Y-143696428D01*
X175803571Y-143625000D01*
X175767857Y-143589285D01*
X175089285Y-144517857D02*
X175089285Y-144589285D01*
X175125000Y-144660714D01*
X175160714Y-144696428D01*
X175232142Y-144732142D01*
X175375000Y-144767857D01*
X175553571Y-144767857D01*
X175696428Y-144732142D01*
X175767857Y-144696428D01*
X175803571Y-144660714D01*
X175839285Y-144589285D01*
X175839285Y-144517857D01*
X175803571Y-144446428D01*
X175767857Y-144410714D01*
X175696428Y-144375000D01*
X175553571Y-144339285D01*
X175375000Y-144339285D01*
X175232142Y-144375000D01*
X175160714Y-144410714D01*
X175125000Y-144446428D01*
X175089285Y-144517857D01*
X175839285Y-145482142D02*
X175839285Y-145053571D01*
X175839285Y-145267857D02*
X175089285Y-145267857D01*
X175196428Y-145196428D01*
X175267857Y-145125000D01*
X175303571Y-145053571D01*
X184660714Y-134785714D02*
X184053571Y-134785714D01*
X183982142Y-134750000D01*
X183946428Y-134714285D01*
X183910714Y-134642857D01*
X183910714Y-134500000D01*
X183946428Y-134428571D01*
X183982142Y-134392857D01*
X184053571Y-134357142D01*
X184660714Y-134357142D01*
X184660714Y-134071428D02*
X184660714Y-133607142D01*
X184375000Y-133857142D01*
X184375000Y-133750000D01*
X184339285Y-133678571D01*
X184303571Y-133642857D01*
X184232142Y-133607142D01*
X184053571Y-133607142D01*
X183982142Y-133642857D01*
X183946428Y-133678571D01*
X183910714Y-133750000D01*
X183910714Y-133964285D01*
X183946428Y-134035714D01*
X183982142Y-134071428D01*
X184660714Y-133142857D02*
X184660714Y-133071428D01*
X184625000Y-133000000D01*
X184589285Y-132964285D01*
X184517857Y-132928571D01*
X184375000Y-132892857D01*
X184196428Y-132892857D01*
X184053571Y-132928571D01*
X183982142Y-132964285D01*
X183946428Y-133000000D01*
X183910714Y-133071428D01*
X183910714Y-133142857D01*
X183946428Y-133214285D01*
X183982142Y-133250000D01*
X184053571Y-133285714D01*
X184196428Y-133321428D01*
X184375000Y-133321428D01*
X184517857Y-133285714D01*
X184589285Y-133250000D01*
X184625000Y-133214285D01*
X184660714Y-133142857D01*
X183910714Y-132178571D02*
X183910714Y-132607142D01*
X183910714Y-132392857D02*
X184660714Y-132392857D01*
X184553571Y-132464285D01*
X184482142Y-132535714D01*
X184446428Y-132607142D01*
X149785714Y-144410714D02*
X149785714Y-143875000D01*
X149750000Y-143767857D01*
X149678571Y-143696428D01*
X149571428Y-143660714D01*
X149500000Y-143660714D01*
X150535714Y-143660714D02*
X150107142Y-143660714D01*
X150321428Y-143660714D02*
X150321428Y-144410714D01*
X150250000Y-144303571D01*
X150178571Y-144232142D01*
X150107142Y-144196428D01*
X151000000Y-144410714D02*
X151071428Y-144410714D01*
X151142857Y-144375000D01*
X151178571Y-144339285D01*
X151214285Y-144267857D01*
X151250000Y-144125000D01*
X151250000Y-143946428D01*
X151214285Y-143803571D01*
X151178571Y-143732142D01*
X151142857Y-143696428D01*
X151071428Y-143660714D01*
X151000000Y-143660714D01*
X150928571Y-143696428D01*
X150892857Y-143732142D01*
X150857142Y-143803571D01*
X150821428Y-143946428D01*
X150821428Y-144125000D01*
X150857142Y-144267857D01*
X150892857Y-144339285D01*
X150928571Y-144375000D01*
X151000000Y-144410714D01*
X151964285Y-143660714D02*
X151535714Y-143660714D01*
X151750000Y-143660714D02*
X151750000Y-144410714D01*
X151678571Y-144303571D01*
X151607142Y-144232142D01*
X151535714Y-144196428D01*
X146915500Y-124464285D02*
X147058357Y-124464285D01*
X147129785Y-124500000D01*
X147165500Y-124535714D01*
X147236928Y-124642857D01*
X147272642Y-124785714D01*
X147272642Y-125071428D01*
X147236928Y-125142857D01*
X147201214Y-125178571D01*
X147129785Y-125214285D01*
X146986928Y-125214285D01*
X146915500Y-125178571D01*
X146879785Y-125142857D01*
X146844071Y-125071428D01*
X146844071Y-124892857D01*
X146879785Y-124821428D01*
X146915500Y-124785714D01*
X146986928Y-124750000D01*
X147129785Y-124750000D01*
X147201214Y-124785714D01*
X147236928Y-124821428D01*
X147272642Y-124892857D01*
X146522642Y-125142857D02*
X146486928Y-125178571D01*
X146522642Y-125214285D01*
X146558357Y-125178571D01*
X146522642Y-125142857D01*
X146522642Y-125214285D01*
X146058357Y-124785714D02*
X146129785Y-124750000D01*
X146165500Y-124714285D01*
X146201214Y-124642857D01*
X146201214Y-124607142D01*
X146165500Y-124535714D01*
X146129785Y-124500000D01*
X146058357Y-124464285D01*
X145915500Y-124464285D01*
X145844071Y-124500000D01*
X145808357Y-124535714D01*
X145772642Y-124607142D01*
X145772642Y-124642857D01*
X145808357Y-124714285D01*
X145844071Y-124750000D01*
X145915500Y-124785714D01*
X146058357Y-124785714D01*
X146129785Y-124821428D01*
X146165500Y-124857142D01*
X146201214Y-124928571D01*
X146201214Y-125071428D01*
X146165500Y-125142857D01*
X146129785Y-125178571D01*
X146058357Y-125214285D01*
X145915500Y-125214285D01*
X145844071Y-125178571D01*
X145808357Y-125142857D01*
X145772642Y-125071428D01*
X145772642Y-124928571D01*
X145808357Y-124857142D01*
X145844071Y-124821428D01*
X145915500Y-124785714D01*
X145129785Y-124714285D02*
X145129785Y-125214285D01*
X145451214Y-124714285D02*
X145451214Y-125107142D01*
X145415500Y-125178571D01*
X145344071Y-125214285D01*
X145236928Y-125214285D01*
X145165500Y-125178571D01*
X145129785Y-125142857D01*
X144772642Y-125214285D02*
X144772642Y-124464285D01*
X144772642Y-124821428D02*
X144344071Y-124821428D01*
X144344071Y-125214285D02*
X144344071Y-124464285D01*
X143714285Y-133870214D02*
X143714285Y-133513071D01*
X142964285Y-133513071D01*
X143214285Y-134441642D02*
X143714285Y-134441642D01*
X142928571Y-134263071D02*
X143464285Y-134084500D01*
X143464285Y-134548785D01*
X142964285Y-134977357D02*
X142964285Y-135048785D01*
X143000000Y-135120214D01*
X143035714Y-135155928D01*
X143107142Y-135191642D01*
X143250000Y-135227357D01*
X143428571Y-135227357D01*
X143571428Y-135191642D01*
X143642857Y-135155928D01*
X143678571Y-135120214D01*
X143714285Y-135048785D01*
X143714285Y-134977357D01*
X143678571Y-134905928D01*
X143642857Y-134870214D01*
X143571428Y-134834500D01*
X143428571Y-134798785D01*
X143250000Y-134798785D01*
X143107142Y-134834500D01*
X143035714Y-134870214D01*
X143000000Y-134905928D01*
X142964285Y-134977357D01*
X143714285Y-135941642D02*
X143714285Y-135513071D01*
X143714285Y-135727357D02*
X142964285Y-135727357D01*
X143071428Y-135655928D01*
X143142857Y-135584500D01*
X143178571Y-135513071D01*
M02*
