G04 #@! TF.GenerationSoftware,KiCad,Pcbnew,(5.1.5)-3*
G04 #@! TF.CreationDate,2020-06-07T00:53:48-04:00*
G04 #@! TF.ProjectId,PowerBoth,506f7765-7242-46f7-9468-2e6b69636164,rev?*
G04 #@! TF.SameCoordinates,Original*
G04 #@! TF.FileFunction,Soldermask,Bot*
G04 #@! TF.FilePolarity,Negative*
%FSLAX46Y46*%
G04 Gerber Fmt 4.6, Leading zero omitted, Abs format (unit mm)*
G04 Created by KiCad (PCBNEW (5.1.5)-3) date 2020-06-07 00:53:48*
%MOMM*%
%LPD*%
G04 APERTURE LIST*
%ADD10C,0.500000*%
%ADD11C,0.100000*%
G04 APERTURE END LIST*
D10*
X273000000Y-144500000D02*
G75*
G02X272250000Y-143750000I0J750000D01*
G01*
X273750000Y-143750000D02*
G75*
G02X273000000Y-144500000I-750000J0D01*
G01*
X273000000Y-143000000D02*
G75*
G02X273750000Y-143750000I0J-750000D01*
G01*
X272250000Y-143750000D02*
G75*
G02X273000000Y-143000000I750000J0D01*
G01*
X272250000Y-125500000D02*
G75*
G02X273000000Y-124750000I750000J0D01*
G01*
X273000000Y-124750000D02*
G75*
G02X273750000Y-125500000I0J-750000D01*
G01*
X273750000Y-125500000D02*
G75*
G02X273000000Y-126250000I-750000J0D01*
G01*
X273000000Y-126250000D02*
G75*
G02X272250000Y-125500000I0J750000D01*
G01*
X144500000Y-133500000D02*
G75*
G02X143750000Y-132750000I0J750000D01*
G01*
X145250000Y-132750000D02*
G75*
G02X144500000Y-133500000I-750000J0D01*
G01*
X144500000Y-132000000D02*
G75*
G02X145250000Y-132750000I0J-750000D01*
G01*
X143750000Y-132750000D02*
G75*
G02X144500000Y-132000000I750000J0D01*
G01*
D11*
G36*
X263730191Y-141547499D02*
G01*
X263792728Y-141566470D01*
X263855263Y-141585439D01*
X263855265Y-141585440D01*
X263970527Y-141647049D01*
X264071561Y-141729964D01*
X264154475Y-141830996D01*
X264216084Y-141946258D01*
X264254025Y-142071332D01*
X264263625Y-142168804D01*
X264263625Y-143207766D01*
X264266027Y-143232152D01*
X264273140Y-143255601D01*
X264284691Y-143277212D01*
X264300236Y-143296154D01*
X264319178Y-143311699D01*
X264340789Y-143323250D01*
X264364238Y-143330363D01*
X264388624Y-143332765D01*
X264413010Y-143330363D01*
X264436459Y-143323250D01*
X264458070Y-143311699D01*
X264477012Y-143296154D01*
X264492557Y-143277211D01*
X264567120Y-143165619D01*
X264567122Y-143165616D01*
X264734407Y-142998331D01*
X264931113Y-142866897D01*
X264931115Y-142866896D01*
X265149682Y-142776362D01*
X265381710Y-142730209D01*
X265618290Y-142730209D01*
X265850318Y-142776362D01*
X266068885Y-142866896D01*
X266068887Y-142866897D01*
X266265593Y-142998331D01*
X266432878Y-143165616D01*
X266564312Y-143362322D01*
X266564313Y-143362324D01*
X266654847Y-143580891D01*
X266701000Y-143812919D01*
X266701000Y-144049499D01*
X266654847Y-144281527D01*
X266646863Y-144300801D01*
X266564312Y-144500096D01*
X266432878Y-144696802D01*
X266265593Y-144864087D01*
X266068887Y-144995521D01*
X266068886Y-144995522D01*
X266068885Y-144995522D01*
X265850318Y-145086056D01*
X265618290Y-145132209D01*
X265381710Y-145132209D01*
X265149682Y-145086056D01*
X264931115Y-144995522D01*
X264931114Y-144995522D01*
X264931113Y-144995521D01*
X264734407Y-144864087D01*
X264567122Y-144696802D01*
X264435688Y-144500096D01*
X264353137Y-144300801D01*
X264345153Y-144281527D01*
X264299000Y-144049499D01*
X264299000Y-143845048D01*
X264296598Y-143820662D01*
X264289485Y-143797213D01*
X264277934Y-143775602D01*
X264262389Y-143756660D01*
X264243447Y-143741115D01*
X264221836Y-143729564D01*
X264198387Y-143722451D01*
X264174001Y-143720049D01*
X264149615Y-143722451D01*
X264126166Y-143729564D01*
X264104555Y-143741115D01*
X264077376Y-143765749D01*
X264071562Y-143772834D01*
X263970528Y-143855749D01*
X263855266Y-143917358D01*
X263855264Y-143917359D01*
X263792729Y-143936328D01*
X263730192Y-143955299D01*
X263600125Y-143968109D01*
X263470059Y-143955299D01*
X263407522Y-143936328D01*
X263344987Y-143917359D01*
X263344985Y-143917358D01*
X263229723Y-143855749D01*
X263128690Y-143772835D01*
X263045776Y-143671802D01*
X262984167Y-143556540D01*
X262978982Y-143539446D01*
X262950128Y-143444328D01*
X262946226Y-143431466D01*
X262936626Y-143333994D01*
X262936625Y-142168805D01*
X262946225Y-142071333D01*
X262984166Y-141946259D01*
X263045775Y-141830997D01*
X263128690Y-141729963D01*
X263229722Y-141647049D01*
X263344984Y-141585440D01*
X263344986Y-141585439D01*
X263407521Y-141566470D01*
X263470058Y-141547499D01*
X263600125Y-141534689D01*
X263730191Y-141547499D01*
G37*
G36*
X190701000Y-145001000D02*
G01*
X188299000Y-145001000D01*
X188299000Y-141399000D01*
X190701000Y-141399000D01*
X190701000Y-145001000D01*
G37*
G36*
X174588674Y-143653465D02*
G01*
X174626367Y-143664899D01*
X174661103Y-143683466D01*
X174691548Y-143708452D01*
X174716534Y-143738897D01*
X174735101Y-143773633D01*
X174746535Y-143811326D01*
X174751000Y-143856661D01*
X174751000Y-144693339D01*
X174746535Y-144738674D01*
X174735101Y-144776367D01*
X174716534Y-144811103D01*
X174691548Y-144841548D01*
X174661103Y-144866534D01*
X174626367Y-144885101D01*
X174588674Y-144896535D01*
X174543339Y-144901000D01*
X173456661Y-144901000D01*
X173411326Y-144896535D01*
X173373633Y-144885101D01*
X173338897Y-144866534D01*
X173308452Y-144841548D01*
X173283466Y-144811103D01*
X173264899Y-144776367D01*
X173253465Y-144738674D01*
X173249000Y-144693339D01*
X173249000Y-143856661D01*
X173253465Y-143811326D01*
X173264899Y-143773633D01*
X173283466Y-143738897D01*
X173308452Y-143708452D01*
X173338897Y-143683466D01*
X173373633Y-143664899D01*
X173411326Y-143653465D01*
X173456661Y-143649000D01*
X174543339Y-143649000D01*
X174588674Y-143653465D01*
G37*
G36*
X172588674Y-143653465D02*
G01*
X172626367Y-143664899D01*
X172661103Y-143683466D01*
X172691548Y-143708452D01*
X172716534Y-143738897D01*
X172735101Y-143773633D01*
X172746535Y-143811326D01*
X172751000Y-143856661D01*
X172751000Y-144693339D01*
X172746535Y-144738674D01*
X172735101Y-144776367D01*
X172716534Y-144811103D01*
X172691548Y-144841548D01*
X172661103Y-144866534D01*
X172626367Y-144885101D01*
X172588674Y-144896535D01*
X172543339Y-144901000D01*
X171456661Y-144901000D01*
X171411326Y-144896535D01*
X171373633Y-144885101D01*
X171338897Y-144866534D01*
X171308452Y-144841548D01*
X171283466Y-144811103D01*
X171264899Y-144776367D01*
X171253465Y-144738674D01*
X171249000Y-144693339D01*
X171249000Y-143856661D01*
X171253465Y-143811326D01*
X171264899Y-143773633D01*
X171283466Y-143738897D01*
X171308452Y-143708452D01*
X171338897Y-143683466D01*
X171373633Y-143664899D01*
X171411326Y-143653465D01*
X171456661Y-143649000D01*
X172543339Y-143649000D01*
X172588674Y-143653465D01*
G37*
G36*
X273107457Y-143209782D02*
G01*
X273210783Y-143241126D01*
X273306009Y-143292026D01*
X273389475Y-143360525D01*
X273457974Y-143443991D01*
X273508874Y-143539217D01*
X273540218Y-143642543D01*
X273550801Y-143749999D01*
X273550801Y-143750001D01*
X273540218Y-143857457D01*
X273508874Y-143960783D01*
X273457974Y-144056009D01*
X273389475Y-144139475D01*
X273306009Y-144207974D01*
X273210783Y-144258874D01*
X273107457Y-144290218D01*
X273000001Y-144300801D01*
X272999999Y-144300801D01*
X272892543Y-144290218D01*
X272789217Y-144258874D01*
X272693991Y-144207974D01*
X272610525Y-144139475D01*
X272542026Y-144056009D01*
X272491126Y-143960783D01*
X272459782Y-143857457D01*
X272449199Y-143750001D01*
X272449199Y-143749999D01*
X272459782Y-143642543D01*
X272491126Y-143539217D01*
X272542026Y-143443991D01*
X272610525Y-143360525D01*
X272693991Y-143292026D01*
X272789217Y-143241126D01*
X272892543Y-143209782D01*
X272999999Y-143199199D01*
X273000001Y-143199199D01*
X273107457Y-143209782D01*
G37*
G36*
X253830191Y-141547499D02*
G01*
X253892728Y-141566470D01*
X253955263Y-141585439D01*
X253955265Y-141585440D01*
X254070527Y-141647049D01*
X254171561Y-141729964D01*
X254254475Y-141830996D01*
X254316084Y-141946258D01*
X254354025Y-142071332D01*
X254363625Y-142168804D01*
X254363625Y-143333994D01*
X254354025Y-143431466D01*
X254350123Y-143444328D01*
X254321270Y-143539446D01*
X254316084Y-143556540D01*
X254254475Y-143671802D01*
X254171561Y-143772835D01*
X254070528Y-143855749D01*
X253955266Y-143917358D01*
X253955264Y-143917359D01*
X253892729Y-143936328D01*
X253830192Y-143955299D01*
X253700125Y-143968109D01*
X253570059Y-143955299D01*
X253507522Y-143936328D01*
X253444987Y-143917359D01*
X253444985Y-143917358D01*
X253329723Y-143855749D01*
X253228690Y-143772835D01*
X253145776Y-143671802D01*
X253084167Y-143556540D01*
X253078982Y-143539446D01*
X253050128Y-143444328D01*
X253046226Y-143431466D01*
X253036626Y-143333994D01*
X253036625Y-142168805D01*
X253046225Y-142071333D01*
X253084166Y-141946259D01*
X253145775Y-141830997D01*
X253228690Y-141729963D01*
X253329722Y-141647049D01*
X253444984Y-141585440D01*
X253444986Y-141585439D01*
X253507521Y-141566470D01*
X253570058Y-141547499D01*
X253700125Y-141534689D01*
X253830191Y-141547499D01*
G37*
G36*
X154923060Y-143158501D02*
G01*
X153676060Y-143158501D01*
X153676060Y-141201501D01*
X154923060Y-141201501D01*
X154923060Y-143158501D01*
G37*
G36*
X152923060Y-143158501D02*
G01*
X151676060Y-143158501D01*
X151676060Y-141201501D01*
X152923060Y-141201501D01*
X152923060Y-143158501D01*
G37*
G36*
X150923060Y-143158501D02*
G01*
X149676060Y-143158501D01*
X149676060Y-141201501D01*
X150923060Y-141201501D01*
X150923060Y-143158501D01*
G37*
G36*
X148923060Y-143158501D02*
G01*
X147676060Y-143158501D01*
X147676060Y-141201501D01*
X148923060Y-141201501D01*
X148923060Y-143158501D01*
G37*
G36*
X158923060Y-143158501D02*
G01*
X157676060Y-143158501D01*
X157676060Y-141201501D01*
X158923060Y-141201501D01*
X158923060Y-143158501D01*
G37*
G36*
X160923060Y-143158501D02*
G01*
X159676060Y-143158501D01*
X159676060Y-141201501D01*
X160923060Y-141201501D01*
X160923060Y-143158501D01*
G37*
G36*
X164923060Y-143158501D02*
G01*
X163676060Y-143158501D01*
X163676060Y-141201501D01*
X164923060Y-141201501D01*
X164923060Y-143158501D01*
G37*
G36*
X166923060Y-143158501D02*
G01*
X165676060Y-143158501D01*
X165676060Y-141201501D01*
X166923060Y-141201501D01*
X166923060Y-143158501D01*
G37*
G36*
X162923060Y-143158501D02*
G01*
X161676060Y-143158501D01*
X161676060Y-141201501D01*
X162923060Y-141201501D01*
X162923060Y-143158501D01*
G37*
G36*
X156923060Y-143158501D02*
G01*
X155676060Y-143158501D01*
X155676060Y-141201501D01*
X156923060Y-141201501D01*
X156923060Y-143158501D01*
G37*
G36*
X257779612Y-140500395D02*
G01*
X257990145Y-140587601D01*
X258016380Y-140598468D01*
X258124933Y-140671001D01*
X258229464Y-140740846D01*
X258410678Y-140922060D01*
X258553057Y-141135146D01*
X258651129Y-141371912D01*
X258701125Y-141623260D01*
X258701125Y-141879538D01*
X258651129Y-142130886D01*
X258553057Y-142367652D01*
X258553056Y-142367654D01*
X258410678Y-142580738D01*
X258229464Y-142761952D01*
X258016380Y-142904330D01*
X258016379Y-142904331D01*
X258016378Y-142904331D01*
X257779612Y-143002403D01*
X257528264Y-143052399D01*
X257271986Y-143052399D01*
X257020638Y-143002403D01*
X256783872Y-142904331D01*
X256783871Y-142904331D01*
X256783870Y-142904330D01*
X256570786Y-142761952D01*
X256389572Y-142580738D01*
X256247194Y-142367654D01*
X256247193Y-142367652D01*
X256149121Y-142130886D01*
X256099125Y-141879538D01*
X256099125Y-141623260D01*
X256149121Y-141371912D01*
X256247193Y-141135146D01*
X256389572Y-140922060D01*
X256570786Y-140740846D01*
X256675317Y-140671001D01*
X256783870Y-140598468D01*
X256810105Y-140587601D01*
X257020638Y-140500395D01*
X257271986Y-140450399D01*
X257528264Y-140450399D01*
X257779612Y-140500395D01*
G37*
G36*
X174588674Y-141603465D02*
G01*
X174626367Y-141614899D01*
X174661103Y-141633466D01*
X174691548Y-141658452D01*
X174716534Y-141688897D01*
X174735101Y-141723633D01*
X174746535Y-141761326D01*
X174751000Y-141806661D01*
X174751000Y-142643339D01*
X174746535Y-142688674D01*
X174735101Y-142726367D01*
X174716534Y-142761103D01*
X174691548Y-142791548D01*
X174661103Y-142816534D01*
X174626367Y-142835101D01*
X174588674Y-142846535D01*
X174543339Y-142851000D01*
X173456661Y-142851000D01*
X173411326Y-142846535D01*
X173373633Y-142835101D01*
X173338897Y-142816534D01*
X173308452Y-142791548D01*
X173283466Y-142761103D01*
X173264899Y-142726367D01*
X173253465Y-142688674D01*
X173249000Y-142643339D01*
X173249000Y-141806661D01*
X173253465Y-141761326D01*
X173264899Y-141723633D01*
X173283466Y-141688897D01*
X173308452Y-141658452D01*
X173338897Y-141633466D01*
X173373633Y-141614899D01*
X173411326Y-141603465D01*
X173456661Y-141599000D01*
X174543339Y-141599000D01*
X174588674Y-141603465D01*
G37*
G36*
X172588674Y-141603465D02*
G01*
X172626367Y-141614899D01*
X172661103Y-141633466D01*
X172691548Y-141658452D01*
X172716534Y-141688897D01*
X172735101Y-141723633D01*
X172746535Y-141761326D01*
X172751000Y-141806661D01*
X172751000Y-142643339D01*
X172746535Y-142688674D01*
X172735101Y-142726367D01*
X172716534Y-142761103D01*
X172691548Y-142791548D01*
X172661103Y-142816534D01*
X172626367Y-142835101D01*
X172588674Y-142846535D01*
X172543339Y-142851000D01*
X171456661Y-142851000D01*
X171411326Y-142846535D01*
X171373633Y-142835101D01*
X171338897Y-142816534D01*
X171308452Y-142791548D01*
X171283466Y-142761103D01*
X171264899Y-142726367D01*
X171253465Y-142688674D01*
X171249000Y-142643339D01*
X171249000Y-141806661D01*
X171253465Y-141761326D01*
X171264899Y-141723633D01*
X171283466Y-141688897D01*
X171308452Y-141658452D01*
X171338897Y-141633466D01*
X171373633Y-141614899D01*
X171411326Y-141603465D01*
X171456661Y-141599000D01*
X172543339Y-141599000D01*
X172588674Y-141603465D01*
G37*
G36*
X265953055Y-140534072D02*
G01*
X266031507Y-140541799D01*
X266132166Y-140572334D01*
X266182497Y-140587601D01*
X266321649Y-140661980D01*
X266443617Y-140762076D01*
X266543713Y-140884044D01*
X266618092Y-141023196D01*
X266618092Y-141023197D01*
X266663894Y-141174186D01*
X266679359Y-141331209D01*
X266663894Y-141488232D01*
X266645915Y-141547500D01*
X266618092Y-141639222D01*
X266543713Y-141778374D01*
X266443617Y-141900342D01*
X266321649Y-142000438D01*
X266182497Y-142074817D01*
X266132166Y-142090084D01*
X266031507Y-142120619D01*
X265953055Y-142128346D01*
X265913830Y-142132209D01*
X265310654Y-142132209D01*
X265271429Y-142128346D01*
X265192977Y-142120619D01*
X265092318Y-142090084D01*
X265041987Y-142074817D01*
X264902835Y-142000438D01*
X264780867Y-141900342D01*
X264680771Y-141778374D01*
X264606392Y-141639222D01*
X264578569Y-141547500D01*
X264560590Y-141488232D01*
X264545125Y-141331209D01*
X264560590Y-141174186D01*
X264606392Y-141023197D01*
X264606392Y-141023196D01*
X264680771Y-140884044D01*
X264780867Y-140762076D01*
X264902835Y-140661980D01*
X265041987Y-140587601D01*
X265092318Y-140572334D01*
X265192977Y-140541799D01*
X265271429Y-140534072D01*
X265310654Y-140530209D01*
X265913830Y-140530209D01*
X265953055Y-140534072D01*
G37*
G36*
X186801000Y-142101000D02*
G01*
X183999000Y-142101000D01*
X183999000Y-138399000D01*
X186801000Y-138399000D01*
X186801000Y-142101000D01*
G37*
G36*
X178501000Y-142101000D02*
G01*
X175699000Y-142101000D01*
X175699000Y-138399000D01*
X178501000Y-138399000D01*
X178501000Y-142101000D01*
G37*
G36*
X268499915Y-141382209D02*
G01*
X267172915Y-141382209D01*
X267172915Y-140055209D01*
X268499915Y-140055209D01*
X268499915Y-141382209D01*
G37*
G36*
X165430081Y-139382209D02*
G01*
X165489450Y-139394018D01*
X165607924Y-139443092D01*
X165714548Y-139514336D01*
X165805225Y-139605013D01*
X165876469Y-139711637D01*
X165925543Y-139830111D01*
X165950560Y-139955883D01*
X165950560Y-140084119D01*
X165925543Y-140209891D01*
X165876469Y-140328365D01*
X165805225Y-140434989D01*
X165714548Y-140525666D01*
X165607924Y-140596910D01*
X165607923Y-140596911D01*
X165607922Y-140596911D01*
X165489450Y-140645984D01*
X165363679Y-140671001D01*
X165235441Y-140671001D01*
X165109670Y-140645984D01*
X164991198Y-140596911D01*
X164991197Y-140596911D01*
X164991196Y-140596910D01*
X164884572Y-140525666D01*
X164793895Y-140434989D01*
X164722651Y-140328365D01*
X164673577Y-140209891D01*
X164648560Y-140084119D01*
X164648560Y-139955883D01*
X164673577Y-139830111D01*
X164722651Y-139711637D01*
X164793895Y-139605013D01*
X164884572Y-139514336D01*
X164991196Y-139443092D01*
X165109670Y-139394018D01*
X165169039Y-139382209D01*
X165235441Y-139369001D01*
X165363679Y-139369001D01*
X165430081Y-139382209D01*
G37*
G36*
X149430081Y-139382209D02*
G01*
X149489450Y-139394018D01*
X149607924Y-139443092D01*
X149714548Y-139514336D01*
X149805225Y-139605013D01*
X149876469Y-139711637D01*
X149925543Y-139830111D01*
X149950560Y-139955883D01*
X149950560Y-140084119D01*
X149925543Y-140209891D01*
X149876469Y-140328365D01*
X149805225Y-140434989D01*
X149714548Y-140525666D01*
X149607924Y-140596910D01*
X149607923Y-140596911D01*
X149607922Y-140596911D01*
X149489450Y-140645984D01*
X149363679Y-140671001D01*
X149235441Y-140671001D01*
X149109670Y-140645984D01*
X148991198Y-140596911D01*
X148991197Y-140596911D01*
X148991196Y-140596910D01*
X148884572Y-140525666D01*
X148793895Y-140434989D01*
X148722651Y-140328365D01*
X148673577Y-140209891D01*
X148648560Y-140084119D01*
X148648560Y-139955883D01*
X148673577Y-139830111D01*
X148722651Y-139711637D01*
X148793895Y-139605013D01*
X148884572Y-139514336D01*
X148991196Y-139443092D01*
X149109670Y-139394018D01*
X149169039Y-139382209D01*
X149235441Y-139369001D01*
X149363679Y-139369001D01*
X149430081Y-139382209D01*
G37*
G36*
X190701000Y-139601000D02*
G01*
X188299000Y-139601000D01*
X188299000Y-135999000D01*
X190701000Y-135999000D01*
X190701000Y-139601000D01*
G37*
G36*
X267965857Y-138067958D02*
G01*
X268029951Y-138080707D01*
X268150700Y-138130723D01*
X268259371Y-138203335D01*
X268351789Y-138295753D01*
X268424401Y-138404424D01*
X268474417Y-138525173D01*
X268499915Y-138653360D01*
X268499915Y-138784058D01*
X268474417Y-138912245D01*
X268424401Y-139032994D01*
X268351789Y-139141665D01*
X268259371Y-139234083D01*
X268150700Y-139306695D01*
X268029951Y-139356711D01*
X267968165Y-139369001D01*
X267901765Y-139382209D01*
X267771065Y-139382209D01*
X267704665Y-139369001D01*
X267642879Y-139356711D01*
X267522130Y-139306695D01*
X267413459Y-139234083D01*
X267321041Y-139141665D01*
X267248429Y-139032994D01*
X267198413Y-138912245D01*
X267172915Y-138784058D01*
X267172915Y-138653360D01*
X267198413Y-138525173D01*
X267248429Y-138404424D01*
X267321041Y-138295753D01*
X267413459Y-138203335D01*
X267522130Y-138130723D01*
X267642879Y-138080707D01*
X267706973Y-138067958D01*
X267771065Y-138055209D01*
X267901765Y-138055209D01*
X267965857Y-138067958D01*
G37*
G36*
X164923060Y-138838501D02*
G01*
X163676060Y-138838501D01*
X163676060Y-136881501D01*
X164923060Y-136881501D01*
X164923060Y-138838501D01*
G37*
G36*
X160923060Y-138838501D02*
G01*
X159676060Y-138838501D01*
X159676060Y-136881501D01*
X160923060Y-136881501D01*
X160923060Y-138838501D01*
G37*
G36*
X162923060Y-138838501D02*
G01*
X161676060Y-138838501D01*
X161676060Y-136881501D01*
X162923060Y-136881501D01*
X162923060Y-138838501D01*
G37*
G36*
X158923060Y-138838501D02*
G01*
X157676060Y-138838501D01*
X157676060Y-136881501D01*
X158923060Y-136881501D01*
X158923060Y-138838501D01*
G37*
G36*
X156923060Y-138838501D02*
G01*
X155676060Y-138838501D01*
X155676060Y-136881501D01*
X156923060Y-136881501D01*
X156923060Y-138838501D01*
G37*
G36*
X152923060Y-138838501D02*
G01*
X151676060Y-138838501D01*
X151676060Y-136881501D01*
X152923060Y-136881501D01*
X152923060Y-138838501D01*
G37*
G36*
X154923060Y-138838501D02*
G01*
X153676060Y-138838501D01*
X153676060Y-136881501D01*
X154923060Y-136881501D01*
X154923060Y-138838501D01*
G37*
G36*
X166923060Y-138838501D02*
G01*
X165676060Y-138838501D01*
X165676060Y-136881501D01*
X166923060Y-136881501D01*
X166923060Y-138838501D01*
G37*
G36*
X150923060Y-138838501D02*
G01*
X149676060Y-138838501D01*
X149676060Y-136881501D01*
X150923060Y-136881501D01*
X150923060Y-138838501D01*
G37*
G36*
X148923060Y-138838501D02*
G01*
X147676060Y-138838501D01*
X147676060Y-136881501D01*
X148923060Y-136881501D01*
X148923060Y-138838501D01*
G37*
G36*
X267965857Y-136067958D02*
G01*
X268029951Y-136080707D01*
X268150700Y-136130723D01*
X268259371Y-136203335D01*
X268351789Y-136295753D01*
X268424401Y-136404424D01*
X268474417Y-136525173D01*
X268499915Y-136653360D01*
X268499915Y-136784058D01*
X268474417Y-136912245D01*
X268424401Y-137032994D01*
X268351789Y-137141665D01*
X268259371Y-137234083D01*
X268150700Y-137306695D01*
X268029951Y-137356711D01*
X267965857Y-137369460D01*
X267901765Y-137382209D01*
X267771065Y-137382209D01*
X267706973Y-137369460D01*
X267642879Y-137356711D01*
X267522130Y-137306695D01*
X267413459Y-137234083D01*
X267321041Y-137141665D01*
X267248429Y-137032994D01*
X267198413Y-136912245D01*
X267172915Y-136784058D01*
X267172915Y-136653360D01*
X267198413Y-136525173D01*
X267248429Y-136404424D01*
X267321041Y-136295753D01*
X267413459Y-136203335D01*
X267522130Y-136130723D01*
X267642879Y-136080707D01*
X267706973Y-136067958D01*
X267771065Y-136055209D01*
X267901765Y-136055209D01*
X267965857Y-136067958D01*
G37*
G36*
X254245300Y-134248262D02*
G01*
X254259599Y-134249670D01*
X254336271Y-134272929D01*
X254412943Y-134296187D01*
X254554267Y-134371726D01*
X254678140Y-134473384D01*
X254779798Y-134597256D01*
X254855337Y-134738580D01*
X254901854Y-134891925D01*
X254913625Y-135011437D01*
X254913625Y-135891361D01*
X254901854Y-136010873D01*
X254855337Y-136164218D01*
X254779798Y-136305542D01*
X254678140Y-136429414D01*
X254554268Y-136531072D01*
X254412944Y-136606611D01*
X254336271Y-136629870D01*
X254259600Y-136653128D01*
X254245301Y-136654536D01*
X254100125Y-136668835D01*
X253942997Y-136653359D01*
X253940651Y-136653128D01*
X253863980Y-136629870D01*
X253787307Y-136606611D01*
X253645983Y-136531072D01*
X253522111Y-136429414D01*
X253420453Y-136305542D01*
X253344914Y-136164218D01*
X253298397Y-136010873D01*
X253297228Y-135999000D01*
X253296926Y-135995934D01*
X253286625Y-135891361D01*
X253286625Y-135011438D01*
X253298396Y-134891926D01*
X253298397Y-134891924D01*
X253342500Y-134746535D01*
X253344913Y-134738581D01*
X253420452Y-134597257D01*
X253522110Y-134473384D01*
X253645982Y-134371726D01*
X253787306Y-134296187D01*
X253863978Y-134272929D01*
X253940650Y-134249670D01*
X253954949Y-134248262D01*
X254100125Y-134233963D01*
X254245300Y-134248262D01*
G37*
G36*
X257645300Y-134248262D02*
G01*
X257659599Y-134249670D01*
X257736271Y-134272929D01*
X257812943Y-134296187D01*
X257954267Y-134371726D01*
X258078140Y-134473384D01*
X258179798Y-134597256D01*
X258255337Y-134738580D01*
X258301854Y-134891925D01*
X258313625Y-135011437D01*
X258313625Y-135891361D01*
X258301854Y-136010873D01*
X258255337Y-136164218D01*
X258179798Y-136305542D01*
X258078140Y-136429414D01*
X257954268Y-136531072D01*
X257812944Y-136606611D01*
X257736271Y-136629870D01*
X257659600Y-136653128D01*
X257645301Y-136654536D01*
X257500125Y-136668835D01*
X257342997Y-136653359D01*
X257340651Y-136653128D01*
X257263980Y-136629870D01*
X257187307Y-136606611D01*
X257045983Y-136531072D01*
X256922111Y-136429414D01*
X256820453Y-136305542D01*
X256744914Y-136164218D01*
X256698397Y-136010873D01*
X256697228Y-135999000D01*
X256696926Y-135995934D01*
X256686625Y-135891361D01*
X256686625Y-135011438D01*
X256698396Y-134891926D01*
X256698397Y-134891924D01*
X256742500Y-134746535D01*
X256744913Y-134738581D01*
X256820452Y-134597257D01*
X256922110Y-134473384D01*
X257045982Y-134371726D01*
X257187306Y-134296187D01*
X257263978Y-134272929D01*
X257340650Y-134249670D01*
X257354949Y-134248262D01*
X257500125Y-134233963D01*
X257645300Y-134248262D01*
G37*
G36*
X262845300Y-134248262D02*
G01*
X262859599Y-134249670D01*
X262936271Y-134272929D01*
X263012943Y-134296187D01*
X263154267Y-134371726D01*
X263278140Y-134473384D01*
X263379798Y-134597256D01*
X263455337Y-134738580D01*
X263501854Y-134891925D01*
X263513625Y-135011437D01*
X263513625Y-135891361D01*
X263501854Y-136010873D01*
X263455337Y-136164218D01*
X263379798Y-136305542D01*
X263278140Y-136429414D01*
X263154268Y-136531072D01*
X263012944Y-136606611D01*
X262936271Y-136629870D01*
X262859600Y-136653128D01*
X262845301Y-136654536D01*
X262700125Y-136668835D01*
X262542997Y-136653359D01*
X262540651Y-136653128D01*
X262463980Y-136629870D01*
X262387307Y-136606611D01*
X262245983Y-136531072D01*
X262122111Y-136429414D01*
X262020453Y-136305542D01*
X261944914Y-136164218D01*
X261898397Y-136010873D01*
X261897228Y-135999000D01*
X261896926Y-135995934D01*
X261886625Y-135891361D01*
X261886625Y-135011438D01*
X261898396Y-134891926D01*
X261898397Y-134891924D01*
X261942500Y-134746535D01*
X261944913Y-134738581D01*
X262020452Y-134597257D01*
X262122110Y-134473384D01*
X262245982Y-134371726D01*
X262387306Y-134296187D01*
X262463978Y-134272929D01*
X262540650Y-134249670D01*
X262554949Y-134248262D01*
X262700125Y-134233963D01*
X262845300Y-134248262D01*
G37*
G36*
X136733642Y-134032043D02*
G01*
X136870899Y-134088897D01*
X136879416Y-134092425D01*
X137010608Y-134180084D01*
X137122178Y-134291654D01*
X137175680Y-134371726D01*
X137209838Y-134422848D01*
X137270219Y-134568620D01*
X137301000Y-134723369D01*
X137301000Y-134881155D01*
X137270219Y-135035904D01*
X137226411Y-135141665D01*
X137209837Y-135181678D01*
X137122178Y-135312870D01*
X137010608Y-135424440D01*
X136879416Y-135512099D01*
X136879415Y-135512100D01*
X136879414Y-135512100D01*
X136733642Y-135572481D01*
X136578893Y-135603262D01*
X136421107Y-135603262D01*
X136266358Y-135572481D01*
X136120586Y-135512100D01*
X136120585Y-135512100D01*
X136120584Y-135512099D01*
X135989392Y-135424440D01*
X135877822Y-135312870D01*
X135790163Y-135181678D01*
X135773589Y-135141665D01*
X135729781Y-135035904D01*
X135699000Y-134881155D01*
X135699000Y-134723369D01*
X135729781Y-134568620D01*
X135790162Y-134422848D01*
X135824320Y-134371726D01*
X135877822Y-134291654D01*
X135989392Y-134180084D01*
X136120584Y-134092425D01*
X136129101Y-134088897D01*
X136266358Y-134032043D01*
X136421107Y-134001262D01*
X136578893Y-134001262D01*
X136733642Y-134032043D01*
G37*
G36*
X172938674Y-134003465D02*
G01*
X172976367Y-134014899D01*
X173011103Y-134033466D01*
X173041548Y-134058452D01*
X173066534Y-134088897D01*
X173085101Y-134123633D01*
X173096535Y-134161326D01*
X173101000Y-134206661D01*
X173101000Y-135293339D01*
X173096535Y-135338674D01*
X173085101Y-135376367D01*
X173066534Y-135411103D01*
X173041548Y-135441548D01*
X173011103Y-135466534D01*
X172976367Y-135485101D01*
X172938674Y-135496535D01*
X172893339Y-135501000D01*
X172056661Y-135501000D01*
X172011326Y-135496535D01*
X171973633Y-135485101D01*
X171938897Y-135466534D01*
X171908452Y-135441548D01*
X171883466Y-135411103D01*
X171864899Y-135376367D01*
X171853465Y-135338674D01*
X171849000Y-135293339D01*
X171849000Y-134206661D01*
X171853465Y-134161326D01*
X171864899Y-134123633D01*
X171883466Y-134088897D01*
X171908452Y-134058452D01*
X171938897Y-134033466D01*
X171973633Y-134014899D01*
X172011326Y-134003465D01*
X172056661Y-133999000D01*
X172893339Y-133999000D01*
X172938674Y-134003465D01*
G37*
G36*
X174988674Y-134003465D02*
G01*
X175026367Y-134014899D01*
X175061103Y-134033466D01*
X175091548Y-134058452D01*
X175116534Y-134088897D01*
X175135101Y-134123633D01*
X175146535Y-134161326D01*
X175151000Y-134206661D01*
X175151000Y-135293339D01*
X175146535Y-135338674D01*
X175135101Y-135376367D01*
X175116534Y-135411103D01*
X175091548Y-135441548D01*
X175061103Y-135466534D01*
X175026367Y-135485101D01*
X174988674Y-135496535D01*
X174943339Y-135501000D01*
X174106661Y-135501000D01*
X174061326Y-135496535D01*
X174023633Y-135485101D01*
X173988897Y-135466534D01*
X173958452Y-135441548D01*
X173933466Y-135411103D01*
X173914899Y-135376367D01*
X173903465Y-135338674D01*
X173899000Y-135293339D01*
X173899000Y-134206661D01*
X173903465Y-134161326D01*
X173914899Y-134123633D01*
X173933466Y-134088897D01*
X173958452Y-134058452D01*
X173988897Y-134033466D01*
X174023633Y-134014899D01*
X174061326Y-134003465D01*
X174106661Y-133999000D01*
X174943339Y-133999000D01*
X174988674Y-134003465D01*
G37*
G36*
X267918068Y-134058452D02*
G01*
X268029951Y-134080707D01*
X268150700Y-134130723D01*
X268259371Y-134203335D01*
X268351789Y-134295753D01*
X268424402Y-134404426D01*
X268439051Y-134439792D01*
X268474417Y-134525173D01*
X268499915Y-134653360D01*
X268499915Y-134784058D01*
X268474417Y-134912245D01*
X268424401Y-135032994D01*
X268351789Y-135141665D01*
X268259371Y-135234083D01*
X268150700Y-135306695D01*
X268150699Y-135306696D01*
X268150698Y-135306696D01*
X268115332Y-135321345D01*
X268029951Y-135356711D01*
X267901765Y-135382209D01*
X267771065Y-135382209D01*
X267642879Y-135356711D01*
X267557498Y-135321345D01*
X267522132Y-135306696D01*
X267522131Y-135306696D01*
X267522130Y-135306695D01*
X267413459Y-135234083D01*
X267321041Y-135141665D01*
X267248429Y-135032994D01*
X267198413Y-134912245D01*
X267172915Y-134784058D01*
X267172915Y-134653360D01*
X267198413Y-134525173D01*
X267233779Y-134439792D01*
X267248428Y-134404426D01*
X267321041Y-134295753D01*
X267413459Y-134203335D01*
X267522130Y-134130723D01*
X267642879Y-134080707D01*
X267754762Y-134058452D01*
X267771065Y-134055209D01*
X267901765Y-134055209D01*
X267918068Y-134058452D01*
G37*
G36*
X190488674Y-133253465D02*
G01*
X190526367Y-133264899D01*
X190561103Y-133283466D01*
X190591548Y-133308452D01*
X190616534Y-133338897D01*
X190635101Y-133373633D01*
X190646535Y-133411326D01*
X190651000Y-133456661D01*
X190651000Y-134543339D01*
X190646535Y-134588674D01*
X190635101Y-134626367D01*
X190616534Y-134661103D01*
X190591548Y-134691548D01*
X190561103Y-134716534D01*
X190526367Y-134735101D01*
X190488674Y-134746535D01*
X190443339Y-134751000D01*
X189606661Y-134751000D01*
X189561326Y-134746535D01*
X189523633Y-134735101D01*
X189488897Y-134716534D01*
X189458452Y-134691548D01*
X189433466Y-134661103D01*
X189414899Y-134626367D01*
X189403465Y-134588674D01*
X189399000Y-134543339D01*
X189399000Y-133456661D01*
X189403465Y-133411326D01*
X189414899Y-133373633D01*
X189433466Y-133338897D01*
X189458452Y-133308452D01*
X189488897Y-133283466D01*
X189523633Y-133264899D01*
X189561326Y-133253465D01*
X189606661Y-133249000D01*
X190443339Y-133249000D01*
X190488674Y-133253465D01*
G37*
G36*
X188438674Y-133253465D02*
G01*
X188476367Y-133264899D01*
X188511103Y-133283466D01*
X188541548Y-133308452D01*
X188566534Y-133338897D01*
X188585101Y-133373633D01*
X188596535Y-133411326D01*
X188601000Y-133456661D01*
X188601000Y-134543339D01*
X188596535Y-134588674D01*
X188585101Y-134626367D01*
X188566534Y-134661103D01*
X188541548Y-134691548D01*
X188511103Y-134716534D01*
X188476367Y-134735101D01*
X188438674Y-134746535D01*
X188393339Y-134751000D01*
X187556661Y-134751000D01*
X187511326Y-134746535D01*
X187473633Y-134735101D01*
X187438897Y-134716534D01*
X187408452Y-134691548D01*
X187383466Y-134661103D01*
X187364899Y-134626367D01*
X187353465Y-134588674D01*
X187349000Y-134543339D01*
X187349000Y-133456661D01*
X187353465Y-133411326D01*
X187364899Y-133373633D01*
X187383466Y-133338897D01*
X187408452Y-133308452D01*
X187438897Y-133283466D01*
X187473633Y-133264899D01*
X187511326Y-133253465D01*
X187556661Y-133249000D01*
X188393339Y-133249000D01*
X188438674Y-133253465D01*
G37*
G36*
X178561000Y-130174001D02*
G01*
X178563402Y-130198387D01*
X178570515Y-130221836D01*
X178582066Y-130243447D01*
X178597611Y-130262389D01*
X178616553Y-130277934D01*
X178638164Y-130289485D01*
X178661613Y-130296598D01*
X178685999Y-130299000D01*
X181314001Y-130299000D01*
X181338387Y-130296598D01*
X181361836Y-130289485D01*
X181383447Y-130277934D01*
X181402389Y-130262389D01*
X181417934Y-130243447D01*
X181429485Y-130221836D01*
X181436598Y-130198387D01*
X181439000Y-130174001D01*
X181439000Y-129744000D01*
X183511000Y-129744000D01*
X183511000Y-130446000D01*
X181380999Y-130446000D01*
X181356613Y-130448402D01*
X181333164Y-130455515D01*
X181311553Y-130467066D01*
X181292611Y-130482611D01*
X181277066Y-130501553D01*
X181265515Y-130523164D01*
X181258402Y-130546613D01*
X181256000Y-130570999D01*
X181256000Y-130889001D01*
X181258402Y-130913387D01*
X181265515Y-130936836D01*
X181277066Y-130958447D01*
X181292611Y-130977389D01*
X181311553Y-130992934D01*
X181333164Y-131004485D01*
X181356613Y-131011598D01*
X181380999Y-131014000D01*
X183511000Y-131014000D01*
X183511000Y-131716000D01*
X181380999Y-131716000D01*
X181356613Y-131718402D01*
X181333164Y-131725515D01*
X181311553Y-131737066D01*
X181292611Y-131752611D01*
X181277066Y-131771553D01*
X181265515Y-131793164D01*
X181258402Y-131816613D01*
X181256000Y-131840999D01*
X181256000Y-132159001D01*
X181258402Y-132183387D01*
X181265515Y-132206836D01*
X181277066Y-132228447D01*
X181292611Y-132247389D01*
X181311553Y-132262934D01*
X181333164Y-132274485D01*
X181356613Y-132281598D01*
X181380999Y-132284000D01*
X183511000Y-132284000D01*
X183511000Y-132986000D01*
X181380999Y-132986000D01*
X181356613Y-132988402D01*
X181333164Y-132995515D01*
X181311553Y-133007066D01*
X181292611Y-133022611D01*
X181277066Y-133041553D01*
X181265515Y-133063164D01*
X181258402Y-133086613D01*
X181256000Y-133110999D01*
X181256000Y-133429001D01*
X181258402Y-133453387D01*
X181265515Y-133476836D01*
X181277066Y-133498447D01*
X181292611Y-133517389D01*
X181311553Y-133532934D01*
X181333164Y-133544485D01*
X181356613Y-133551598D01*
X181380999Y-133554000D01*
X183511000Y-133554000D01*
X183511000Y-134256000D01*
X181439000Y-134256000D01*
X181439000Y-133825999D01*
X181436598Y-133801613D01*
X181429485Y-133778164D01*
X181417934Y-133756553D01*
X181402389Y-133737611D01*
X181383447Y-133722066D01*
X181361836Y-133710515D01*
X181338387Y-133703402D01*
X181314001Y-133701000D01*
X178685999Y-133701000D01*
X178661613Y-133703402D01*
X178638164Y-133710515D01*
X178616553Y-133722066D01*
X178597611Y-133737611D01*
X178582066Y-133756553D01*
X178570515Y-133778164D01*
X178563402Y-133801613D01*
X178561000Y-133825999D01*
X178561000Y-134256000D01*
X176489000Y-134256000D01*
X176489000Y-133554000D01*
X178619001Y-133554000D01*
X178643387Y-133551598D01*
X178666836Y-133544485D01*
X178688447Y-133532934D01*
X178707389Y-133517389D01*
X178722934Y-133498447D01*
X178734485Y-133476836D01*
X178741598Y-133453387D01*
X178744000Y-133429001D01*
X178744000Y-133110999D01*
X178741598Y-133086613D01*
X178734485Y-133063164D01*
X178722934Y-133041553D01*
X178707389Y-133022611D01*
X178688447Y-133007066D01*
X178666836Y-132995515D01*
X178643387Y-132988402D01*
X178619001Y-132986000D01*
X176489000Y-132986000D01*
X176489000Y-132284000D01*
X178619001Y-132284000D01*
X178643387Y-132281598D01*
X178666836Y-132274485D01*
X178688447Y-132262934D01*
X178707389Y-132247389D01*
X178722934Y-132228447D01*
X178734485Y-132206836D01*
X178741598Y-132183387D01*
X178744000Y-132159001D01*
X178744000Y-131840999D01*
X178741598Y-131816613D01*
X178734485Y-131793164D01*
X178722934Y-131771553D01*
X178707389Y-131752611D01*
X178688447Y-131737066D01*
X178666836Y-131725515D01*
X178643387Y-131718402D01*
X178619001Y-131716000D01*
X176489000Y-131716000D01*
X176489000Y-131014000D01*
X178619001Y-131014000D01*
X178643387Y-131011598D01*
X178666836Y-131004485D01*
X178688447Y-130992934D01*
X178707389Y-130977389D01*
X178722934Y-130958447D01*
X178734485Y-130936836D01*
X178741598Y-130913387D01*
X178744000Y-130889001D01*
X178744000Y-130570999D01*
X178741598Y-130546613D01*
X178734485Y-130523164D01*
X178722934Y-130501553D01*
X178707389Y-130482611D01*
X178688447Y-130467066D01*
X178666836Y-130455515D01*
X178643387Y-130448402D01*
X178619001Y-130446000D01*
X176489000Y-130446000D01*
X176489000Y-129744000D01*
X178561000Y-129744000D01*
X178561000Y-130174001D01*
G37*
G36*
X163108500Y-133888500D02*
G01*
X160411500Y-133888500D01*
X160411500Y-132111500D01*
X163108500Y-132111500D01*
X163108500Y-133888500D01*
G37*
G36*
X159588500Y-133888500D02*
G01*
X156891500Y-133888500D01*
X156891500Y-132111500D01*
X159588500Y-132111500D01*
X159588500Y-133888500D01*
G37*
G36*
X267961127Y-132067017D02*
G01*
X268029951Y-132080707D01*
X268150700Y-132130723D01*
X268259371Y-132203335D01*
X268351789Y-132295753D01*
X268424401Y-132404424D01*
X268474417Y-132525173D01*
X268479584Y-132551149D01*
X268498558Y-132646535D01*
X268499915Y-132653360D01*
X268499915Y-132784058D01*
X268474417Y-132912245D01*
X268466265Y-132931925D01*
X268425626Y-133030038D01*
X268424401Y-133032994D01*
X268351789Y-133141665D01*
X268259371Y-133234083D01*
X268150700Y-133306695D01*
X268150699Y-133306696D01*
X268150698Y-133306696D01*
X268115332Y-133321345D01*
X268029951Y-133356711D01*
X267965857Y-133369460D01*
X267901765Y-133382209D01*
X267771065Y-133382209D01*
X267706973Y-133369460D01*
X267642879Y-133356711D01*
X267557498Y-133321345D01*
X267522132Y-133306696D01*
X267522131Y-133306696D01*
X267522130Y-133306695D01*
X267413459Y-133234083D01*
X267321041Y-133141665D01*
X267248429Y-133032994D01*
X267247205Y-133030038D01*
X267206565Y-132931925D01*
X267198413Y-132912245D01*
X267172915Y-132784058D01*
X267172915Y-132653360D01*
X267174273Y-132646535D01*
X267193246Y-132551149D01*
X267198413Y-132525173D01*
X267248429Y-132404424D01*
X267321041Y-132295753D01*
X267413459Y-132203335D01*
X267522130Y-132130723D01*
X267642879Y-132080707D01*
X267711703Y-132067017D01*
X267771065Y-132055209D01*
X267901765Y-132055209D01*
X267961127Y-132067017D01*
G37*
G36*
X144607457Y-132209782D02*
G01*
X144710783Y-132241126D01*
X144806009Y-132292026D01*
X144889475Y-132360525D01*
X144957974Y-132443991D01*
X145008874Y-132539217D01*
X145040218Y-132642543D01*
X145050801Y-132749999D01*
X145050801Y-132750001D01*
X145040218Y-132857457D01*
X145008874Y-132960783D01*
X144957974Y-133056009D01*
X144889475Y-133139475D01*
X144806009Y-133207974D01*
X144710783Y-133258874D01*
X144607457Y-133290218D01*
X144500001Y-133300801D01*
X144499999Y-133300801D01*
X144392543Y-133290218D01*
X144289217Y-133258874D01*
X144193991Y-133207974D01*
X144110525Y-133139475D01*
X144042026Y-133056009D01*
X143991126Y-132960783D01*
X143959782Y-132857457D01*
X143949199Y-132750001D01*
X143949199Y-132749999D01*
X143959782Y-132642543D01*
X143991126Y-132539217D01*
X144042026Y-132443991D01*
X144110525Y-132360525D01*
X144193991Y-132292026D01*
X144289217Y-132241126D01*
X144392543Y-132209782D01*
X144499999Y-132199199D01*
X144500001Y-132199199D01*
X144607457Y-132209782D01*
G37*
G36*
X136850318Y-130827415D02*
G01*
X137057871Y-130913387D01*
X137068887Y-130917950D01*
X137265593Y-131049384D01*
X137432878Y-131216669D01*
X137562794Y-131411103D01*
X137564313Y-131413377D01*
X137654847Y-131631944D01*
X137701000Y-131863972D01*
X137701000Y-132100552D01*
X137654847Y-132332580D01*
X137569160Y-132539446D01*
X137564312Y-132551149D01*
X137432878Y-132747855D01*
X137265593Y-132915140D01*
X137068887Y-133046574D01*
X137068886Y-133046575D01*
X137068885Y-133046575D01*
X136850318Y-133137109D01*
X136618290Y-133183262D01*
X136381710Y-133183262D01*
X136149682Y-133137109D01*
X135931115Y-133046575D01*
X135931114Y-133046575D01*
X135931113Y-133046574D01*
X135734407Y-132915140D01*
X135567122Y-132747855D01*
X135435688Y-132551149D01*
X135430840Y-132539446D01*
X135345153Y-132332580D01*
X135299000Y-132100552D01*
X135299000Y-131863972D01*
X135345153Y-131631944D01*
X135435687Y-131413377D01*
X135437206Y-131411103D01*
X135567122Y-131216669D01*
X135734407Y-131049384D01*
X135931113Y-130917950D01*
X135942129Y-130913387D01*
X136149682Y-130827415D01*
X136381710Y-130781262D01*
X136618290Y-130781262D01*
X136850318Y-130827415D01*
G37*
G36*
X173588674Y-131903465D02*
G01*
X173626367Y-131914899D01*
X173661103Y-131933466D01*
X173691548Y-131958452D01*
X173716534Y-131988897D01*
X173735101Y-132023633D01*
X173746535Y-132061326D01*
X173751000Y-132106661D01*
X173751000Y-132943339D01*
X173746535Y-132988674D01*
X173735101Y-133026367D01*
X173716534Y-133061103D01*
X173691548Y-133091548D01*
X173661103Y-133116534D01*
X173626367Y-133135101D01*
X173588674Y-133146535D01*
X173543339Y-133151000D01*
X172456661Y-133151000D01*
X172411326Y-133146535D01*
X172373633Y-133135101D01*
X172338897Y-133116534D01*
X172308452Y-133091548D01*
X172283466Y-133061103D01*
X172264899Y-133026367D01*
X172253465Y-132988674D01*
X172249000Y-132943339D01*
X172249000Y-132106661D01*
X172253465Y-132061326D01*
X172264899Y-132023633D01*
X172283466Y-131988897D01*
X172308452Y-131958452D01*
X172338897Y-131933466D01*
X172373633Y-131914899D01*
X172411326Y-131903465D01*
X172456661Y-131899000D01*
X173543339Y-131899000D01*
X173588674Y-131903465D01*
G37*
G36*
X175588674Y-131903465D02*
G01*
X175626367Y-131914899D01*
X175661103Y-131933466D01*
X175691548Y-131958452D01*
X175716534Y-131988897D01*
X175735101Y-132023633D01*
X175746535Y-132061326D01*
X175751000Y-132106661D01*
X175751000Y-132943339D01*
X175746535Y-132988674D01*
X175735101Y-133026367D01*
X175716534Y-133061103D01*
X175691548Y-133091548D01*
X175661103Y-133116534D01*
X175626367Y-133135101D01*
X175588674Y-133146535D01*
X175543339Y-133151000D01*
X174456661Y-133151000D01*
X174411326Y-133146535D01*
X174373633Y-133135101D01*
X174338897Y-133116534D01*
X174308452Y-133091548D01*
X174283466Y-133061103D01*
X174264899Y-133026367D01*
X174253465Y-132988674D01*
X174249000Y-132943339D01*
X174249000Y-132106661D01*
X174253465Y-132061326D01*
X174264899Y-132023633D01*
X174283466Y-131988897D01*
X174308452Y-131958452D01*
X174338897Y-131933466D01*
X174373633Y-131914899D01*
X174411326Y-131903465D01*
X174456661Y-131899000D01*
X175543339Y-131899000D01*
X175588674Y-131903465D01*
G37*
G36*
X171088674Y-131403465D02*
G01*
X171126367Y-131414899D01*
X171161103Y-131433466D01*
X171191548Y-131458452D01*
X171216534Y-131488897D01*
X171235101Y-131523633D01*
X171246535Y-131561326D01*
X171251000Y-131606661D01*
X171251000Y-132443339D01*
X171246535Y-132488674D01*
X171235101Y-132526367D01*
X171216534Y-132561103D01*
X171191548Y-132591548D01*
X171161103Y-132616534D01*
X171126367Y-132635101D01*
X171088674Y-132646535D01*
X171043339Y-132651000D01*
X169956661Y-132651000D01*
X169911326Y-132646535D01*
X169873633Y-132635101D01*
X169838897Y-132616534D01*
X169808452Y-132591548D01*
X169783466Y-132561103D01*
X169764899Y-132526367D01*
X169753465Y-132488674D01*
X169749000Y-132443339D01*
X169749000Y-131606661D01*
X169753465Y-131561326D01*
X169764899Y-131523633D01*
X169783466Y-131488897D01*
X169808452Y-131458452D01*
X169838897Y-131433466D01*
X169873633Y-131414899D01*
X169911326Y-131403465D01*
X169956661Y-131399000D01*
X171043339Y-131399000D01*
X171088674Y-131403465D01*
G37*
G36*
X168838674Y-131403465D02*
G01*
X168876367Y-131414899D01*
X168911103Y-131433466D01*
X168941548Y-131458452D01*
X168966534Y-131488897D01*
X168985101Y-131523633D01*
X168996535Y-131561326D01*
X169001000Y-131606661D01*
X169001000Y-132443339D01*
X168996535Y-132488674D01*
X168985101Y-132526367D01*
X168966534Y-132561103D01*
X168941548Y-132591548D01*
X168911103Y-132616534D01*
X168876367Y-132635101D01*
X168838674Y-132646535D01*
X168793339Y-132651000D01*
X167706661Y-132651000D01*
X167661326Y-132646535D01*
X167623633Y-132635101D01*
X167588897Y-132616534D01*
X167558452Y-132591548D01*
X167533466Y-132561103D01*
X167514899Y-132526367D01*
X167503465Y-132488674D01*
X167499000Y-132443339D01*
X167499000Y-131606661D01*
X167503465Y-131561326D01*
X167514899Y-131523633D01*
X167533466Y-131488897D01*
X167558452Y-131458452D01*
X167588897Y-131433466D01*
X167623633Y-131414899D01*
X167661326Y-131403465D01*
X167706661Y-131399000D01*
X168793339Y-131399000D01*
X168838674Y-131403465D01*
G37*
G36*
X214866900Y-131910200D02*
G01*
X211133100Y-131910200D01*
X211133100Y-129141600D01*
X214866900Y-129141600D01*
X214866900Y-131910200D01*
G37*
G36*
X187838674Y-130653465D02*
G01*
X187876367Y-130664899D01*
X187911103Y-130683466D01*
X187941548Y-130708452D01*
X187966534Y-130738897D01*
X187985101Y-130773633D01*
X187996535Y-130811326D01*
X188001000Y-130856661D01*
X188001000Y-131693339D01*
X187996535Y-131738674D01*
X187985101Y-131776367D01*
X187966534Y-131811103D01*
X187941548Y-131841548D01*
X187911103Y-131866534D01*
X187876367Y-131885101D01*
X187838674Y-131896535D01*
X187793339Y-131901000D01*
X186706661Y-131901000D01*
X186661326Y-131896535D01*
X186623633Y-131885101D01*
X186588897Y-131866534D01*
X186558452Y-131841548D01*
X186533466Y-131811103D01*
X186514899Y-131776367D01*
X186503465Y-131738674D01*
X186499000Y-131693339D01*
X186499000Y-130856661D01*
X186503465Y-130811326D01*
X186514899Y-130773633D01*
X186533466Y-130738897D01*
X186558452Y-130708452D01*
X186588897Y-130683466D01*
X186623633Y-130664899D01*
X186661326Y-130653465D01*
X186706661Y-130649000D01*
X187793339Y-130649000D01*
X187838674Y-130653465D01*
G37*
G36*
X185838674Y-130653465D02*
G01*
X185876367Y-130664899D01*
X185911103Y-130683466D01*
X185941548Y-130708452D01*
X185966534Y-130738897D01*
X185985101Y-130773633D01*
X185996535Y-130811326D01*
X186001000Y-130856661D01*
X186001000Y-131693339D01*
X185996535Y-131738674D01*
X185985101Y-131776367D01*
X185966534Y-131811103D01*
X185941548Y-131841548D01*
X185911103Y-131866534D01*
X185876367Y-131885101D01*
X185838674Y-131896535D01*
X185793339Y-131901000D01*
X184706661Y-131901000D01*
X184661326Y-131896535D01*
X184623633Y-131885101D01*
X184588897Y-131866534D01*
X184558452Y-131841548D01*
X184533466Y-131811103D01*
X184514899Y-131776367D01*
X184503465Y-131738674D01*
X184499000Y-131693339D01*
X184499000Y-130856661D01*
X184503465Y-130811326D01*
X184514899Y-130773633D01*
X184533466Y-130738897D01*
X184558452Y-130708452D01*
X184588897Y-130683466D01*
X184623633Y-130664899D01*
X184661326Y-130653465D01*
X184706661Y-130649000D01*
X185793339Y-130649000D01*
X185838674Y-130653465D01*
G37*
G36*
X227167025Y-131861599D02*
G01*
X223433225Y-131861599D01*
X223433225Y-129092999D01*
X227167025Y-129092999D01*
X227167025Y-131861599D01*
G37*
G36*
X207088674Y-130428465D02*
G01*
X207126367Y-130439899D01*
X207161103Y-130458466D01*
X207191548Y-130483452D01*
X207216534Y-130513897D01*
X207235101Y-130548633D01*
X207246535Y-130586326D01*
X207251000Y-130631661D01*
X207251000Y-131468339D01*
X207246535Y-131513674D01*
X207235101Y-131551367D01*
X207216534Y-131586103D01*
X207191548Y-131616548D01*
X207161103Y-131641534D01*
X207126367Y-131660101D01*
X207088674Y-131671535D01*
X207043339Y-131676000D01*
X205956661Y-131676000D01*
X205911326Y-131671535D01*
X205873633Y-131660101D01*
X205838897Y-131641534D01*
X205808452Y-131616548D01*
X205783466Y-131586103D01*
X205764899Y-131551367D01*
X205753465Y-131513674D01*
X205749000Y-131468339D01*
X205749000Y-130631661D01*
X205753465Y-130586326D01*
X205764899Y-130548633D01*
X205783466Y-130513897D01*
X205808452Y-130483452D01*
X205838897Y-130458466D01*
X205873633Y-130439899D01*
X205911326Y-130428465D01*
X205956661Y-130424000D01*
X207043339Y-130424000D01*
X207088674Y-130428465D01*
G37*
G36*
X203088674Y-130428465D02*
G01*
X203126367Y-130439899D01*
X203161103Y-130458466D01*
X203191548Y-130483452D01*
X203216534Y-130513897D01*
X203235101Y-130548633D01*
X203246535Y-130586326D01*
X203251000Y-130631661D01*
X203251000Y-131468339D01*
X203246535Y-131513674D01*
X203235101Y-131551367D01*
X203216534Y-131586103D01*
X203191548Y-131616548D01*
X203161103Y-131641534D01*
X203126367Y-131660101D01*
X203088674Y-131671535D01*
X203043339Y-131676000D01*
X201956661Y-131676000D01*
X201911326Y-131671535D01*
X201873633Y-131660101D01*
X201838897Y-131641534D01*
X201808452Y-131616548D01*
X201783466Y-131586103D01*
X201764899Y-131551367D01*
X201753465Y-131513674D01*
X201749000Y-131468339D01*
X201749000Y-130631661D01*
X201753465Y-130586326D01*
X201764899Y-130548633D01*
X201783466Y-130513897D01*
X201808452Y-130483452D01*
X201838897Y-130458466D01*
X201873633Y-130439899D01*
X201911326Y-130428465D01*
X201956661Y-130424000D01*
X203043339Y-130424000D01*
X203088674Y-130428465D01*
G37*
G36*
X205088674Y-130428465D02*
G01*
X205126367Y-130439899D01*
X205161103Y-130458466D01*
X205191548Y-130483452D01*
X205216534Y-130513897D01*
X205235101Y-130548633D01*
X205246535Y-130586326D01*
X205251000Y-130631661D01*
X205251000Y-131468339D01*
X205246535Y-131513674D01*
X205235101Y-131551367D01*
X205216534Y-131586103D01*
X205191548Y-131616548D01*
X205161103Y-131641534D01*
X205126367Y-131660101D01*
X205088674Y-131671535D01*
X205043339Y-131676000D01*
X203956661Y-131676000D01*
X203911326Y-131671535D01*
X203873633Y-131660101D01*
X203838897Y-131641534D01*
X203808452Y-131616548D01*
X203783466Y-131586103D01*
X203764899Y-131551367D01*
X203753465Y-131513674D01*
X203749000Y-131468339D01*
X203749000Y-130631661D01*
X203753465Y-130586326D01*
X203764899Y-130548633D01*
X203783466Y-130513897D01*
X203808452Y-130483452D01*
X203838897Y-130458466D01*
X203873633Y-130439899D01*
X203911326Y-130428465D01*
X203956661Y-130424000D01*
X205043339Y-130424000D01*
X205088674Y-130428465D01*
G37*
G36*
X201013674Y-130003465D02*
G01*
X201051367Y-130014899D01*
X201086103Y-130033466D01*
X201116548Y-130058452D01*
X201141534Y-130088897D01*
X201160101Y-130123633D01*
X201171535Y-130161326D01*
X201176000Y-130206661D01*
X201176000Y-131293339D01*
X201171535Y-131338674D01*
X201160101Y-131376367D01*
X201141534Y-131411103D01*
X201116548Y-131441548D01*
X201086103Y-131466534D01*
X201051367Y-131485101D01*
X201013674Y-131496535D01*
X200968339Y-131501000D01*
X200131661Y-131501000D01*
X200086326Y-131496535D01*
X200048633Y-131485101D01*
X200013897Y-131466534D01*
X199983452Y-131441548D01*
X199958466Y-131411103D01*
X199939899Y-131376367D01*
X199928465Y-131338674D01*
X199924000Y-131293339D01*
X199924000Y-130206661D01*
X199928465Y-130161326D01*
X199939899Y-130123633D01*
X199958466Y-130088897D01*
X199983452Y-130058452D01*
X200013897Y-130033466D01*
X200048633Y-130014899D01*
X200086326Y-130003465D01*
X200131661Y-129999000D01*
X200968339Y-129999000D01*
X201013674Y-130003465D01*
G37*
G36*
X198963674Y-130003465D02*
G01*
X199001367Y-130014899D01*
X199036103Y-130033466D01*
X199066548Y-130058452D01*
X199091534Y-130088897D01*
X199110101Y-130123633D01*
X199121535Y-130161326D01*
X199126000Y-130206661D01*
X199126000Y-131293339D01*
X199121535Y-131338674D01*
X199110101Y-131376367D01*
X199091534Y-131411103D01*
X199066548Y-131441548D01*
X199036103Y-131466534D01*
X199001367Y-131485101D01*
X198963674Y-131496535D01*
X198918339Y-131501000D01*
X198081661Y-131501000D01*
X198036326Y-131496535D01*
X197998633Y-131485101D01*
X197963897Y-131466534D01*
X197933452Y-131441548D01*
X197908466Y-131411103D01*
X197889899Y-131376367D01*
X197878465Y-131338674D01*
X197874000Y-131293339D01*
X197874000Y-130206661D01*
X197878465Y-130161326D01*
X197889899Y-130123633D01*
X197908466Y-130088897D01*
X197933452Y-130058452D01*
X197963897Y-130033466D01*
X197998633Y-130014899D01*
X198036326Y-130003465D01*
X198081661Y-129999000D01*
X198918339Y-129999000D01*
X198963674Y-130003465D01*
G37*
G36*
X173588674Y-129853465D02*
G01*
X173626367Y-129864899D01*
X173661103Y-129883466D01*
X173691548Y-129908452D01*
X173716534Y-129938897D01*
X173735101Y-129973633D01*
X173746535Y-130011326D01*
X173751000Y-130056661D01*
X173751000Y-130893339D01*
X173746535Y-130938674D01*
X173735101Y-130976367D01*
X173716534Y-131011103D01*
X173691548Y-131041548D01*
X173661103Y-131066534D01*
X173626367Y-131085101D01*
X173588674Y-131096535D01*
X173543339Y-131101000D01*
X172456661Y-131101000D01*
X172411326Y-131096535D01*
X172373633Y-131085101D01*
X172338897Y-131066534D01*
X172308452Y-131041548D01*
X172283466Y-131011103D01*
X172264899Y-130976367D01*
X172253465Y-130938674D01*
X172249000Y-130893339D01*
X172249000Y-130056661D01*
X172253465Y-130011326D01*
X172264899Y-129973633D01*
X172283466Y-129938897D01*
X172308452Y-129908452D01*
X172338897Y-129883466D01*
X172373633Y-129864899D01*
X172411326Y-129853465D01*
X172456661Y-129849000D01*
X173543339Y-129849000D01*
X173588674Y-129853465D01*
G37*
G36*
X175588674Y-129853465D02*
G01*
X175626367Y-129864899D01*
X175661103Y-129883466D01*
X175691548Y-129908452D01*
X175716534Y-129938897D01*
X175735101Y-129973633D01*
X175746535Y-130011326D01*
X175751000Y-130056661D01*
X175751000Y-130893339D01*
X175746535Y-130938674D01*
X175735101Y-130976367D01*
X175716534Y-131011103D01*
X175691548Y-131041548D01*
X175661103Y-131066534D01*
X175626367Y-131085101D01*
X175588674Y-131096535D01*
X175543339Y-131101000D01*
X174456661Y-131101000D01*
X174411326Y-131096535D01*
X174373633Y-131085101D01*
X174338897Y-131066534D01*
X174308452Y-131041548D01*
X174283466Y-131011103D01*
X174264899Y-130976367D01*
X174253465Y-130938674D01*
X174249000Y-130893339D01*
X174249000Y-130056661D01*
X174253465Y-130011326D01*
X174264899Y-129973633D01*
X174283466Y-129938897D01*
X174308452Y-129908452D01*
X174338897Y-129883466D01*
X174373633Y-129864899D01*
X174411326Y-129853465D01*
X174456661Y-129849000D01*
X175543339Y-129849000D01*
X175588674Y-129853465D01*
G37*
G36*
X171088674Y-129353465D02*
G01*
X171126367Y-129364899D01*
X171161103Y-129383466D01*
X171191548Y-129408452D01*
X171216534Y-129438897D01*
X171235101Y-129473633D01*
X171246535Y-129511326D01*
X171251000Y-129556661D01*
X171251000Y-130393339D01*
X171246535Y-130438674D01*
X171235101Y-130476367D01*
X171216534Y-130511103D01*
X171191548Y-130541548D01*
X171161103Y-130566534D01*
X171126367Y-130585101D01*
X171088674Y-130596535D01*
X171043339Y-130601000D01*
X169956661Y-130601000D01*
X169911326Y-130596535D01*
X169873633Y-130585101D01*
X169838897Y-130566534D01*
X169808452Y-130541548D01*
X169783466Y-130511103D01*
X169764899Y-130476367D01*
X169753465Y-130438674D01*
X169749000Y-130393339D01*
X169749000Y-129556661D01*
X169753465Y-129511326D01*
X169764899Y-129473633D01*
X169783466Y-129438897D01*
X169808452Y-129408452D01*
X169838897Y-129383466D01*
X169873633Y-129364899D01*
X169911326Y-129353465D01*
X169956661Y-129349000D01*
X171043339Y-129349000D01*
X171088674Y-129353465D01*
G37*
G36*
X168838674Y-129353465D02*
G01*
X168876367Y-129364899D01*
X168911103Y-129383466D01*
X168941548Y-129408452D01*
X168966534Y-129438897D01*
X168985101Y-129473633D01*
X168996535Y-129511326D01*
X169001000Y-129556661D01*
X169001000Y-130393339D01*
X168996535Y-130438674D01*
X168985101Y-130476367D01*
X168966534Y-130511103D01*
X168941548Y-130541548D01*
X168911103Y-130566534D01*
X168876367Y-130585101D01*
X168838674Y-130596535D01*
X168793339Y-130601000D01*
X167706661Y-130601000D01*
X167661326Y-130596535D01*
X167623633Y-130585101D01*
X167588897Y-130566534D01*
X167558452Y-130541548D01*
X167533466Y-130511103D01*
X167514899Y-130476367D01*
X167503465Y-130438674D01*
X167499000Y-130393339D01*
X167499000Y-129556661D01*
X167503465Y-129511326D01*
X167514899Y-129473633D01*
X167533466Y-129438897D01*
X167558452Y-129408452D01*
X167588897Y-129383466D01*
X167623633Y-129364899D01*
X167661326Y-129353465D01*
X167706661Y-129349000D01*
X168793339Y-129349000D01*
X168838674Y-129353465D01*
G37*
G36*
X153498500Y-130513500D02*
G01*
X152771500Y-130513500D01*
X152771500Y-128186500D01*
X153498500Y-128186500D01*
X153498500Y-130513500D01*
G37*
G36*
X150958500Y-130513500D02*
G01*
X150231500Y-130513500D01*
X150231500Y-128186500D01*
X150958500Y-128186500D01*
X150958500Y-130513500D01*
G37*
G36*
X152228500Y-130513500D02*
G01*
X151501500Y-130513500D01*
X151501500Y-128186500D01*
X152228500Y-128186500D01*
X152228500Y-130513500D01*
G37*
G36*
X154768500Y-130513500D02*
G01*
X154041500Y-130513500D01*
X154041500Y-128186500D01*
X154768500Y-128186500D01*
X154768500Y-130513500D01*
G37*
G36*
X193963674Y-129003465D02*
G01*
X194001367Y-129014899D01*
X194036103Y-129033466D01*
X194066548Y-129058452D01*
X194091534Y-129088897D01*
X194110101Y-129123633D01*
X194121535Y-129161326D01*
X194126000Y-129206661D01*
X194126000Y-130293339D01*
X194121535Y-130338674D01*
X194110101Y-130376367D01*
X194091534Y-130411103D01*
X194066548Y-130441548D01*
X194036103Y-130466534D01*
X194001367Y-130485101D01*
X193963674Y-130496535D01*
X193918339Y-130501000D01*
X193081661Y-130501000D01*
X193036326Y-130496535D01*
X192998633Y-130485101D01*
X192963897Y-130466534D01*
X192933452Y-130441548D01*
X192908466Y-130411103D01*
X192889899Y-130376367D01*
X192878465Y-130338674D01*
X192874000Y-130293339D01*
X192874000Y-129206661D01*
X192878465Y-129161326D01*
X192889899Y-129123633D01*
X192908466Y-129088897D01*
X192933452Y-129058452D01*
X192963897Y-129033466D01*
X192998633Y-129014899D01*
X193036326Y-129003465D01*
X193081661Y-128999000D01*
X193918339Y-128999000D01*
X193963674Y-129003465D01*
G37*
G36*
X196013674Y-129003465D02*
G01*
X196051367Y-129014899D01*
X196086103Y-129033466D01*
X196116548Y-129058452D01*
X196141534Y-129088897D01*
X196160101Y-129123633D01*
X196171535Y-129161326D01*
X196176000Y-129206661D01*
X196176000Y-130293339D01*
X196171535Y-130338674D01*
X196160101Y-130376367D01*
X196141534Y-130411103D01*
X196116548Y-130441548D01*
X196086103Y-130466534D01*
X196051367Y-130485101D01*
X196013674Y-130496535D01*
X195968339Y-130501000D01*
X195131661Y-130501000D01*
X195086326Y-130496535D01*
X195048633Y-130485101D01*
X195013897Y-130466534D01*
X194983452Y-130441548D01*
X194958466Y-130411103D01*
X194939899Y-130376367D01*
X194928465Y-130338674D01*
X194924000Y-130293339D01*
X194924000Y-129206661D01*
X194928465Y-129161326D01*
X194939899Y-129123633D01*
X194958466Y-129088897D01*
X194983452Y-129058452D01*
X195013897Y-129033466D01*
X195048633Y-129014899D01*
X195086326Y-129003465D01*
X195131661Y-128999000D01*
X195968339Y-128999000D01*
X196013674Y-129003465D01*
G37*
G36*
X148463500Y-130263500D02*
G01*
X146536500Y-130263500D01*
X146536500Y-128536500D01*
X148463500Y-128536500D01*
X148463500Y-130263500D01*
G37*
G36*
X185838674Y-128603465D02*
G01*
X185876367Y-128614899D01*
X185911103Y-128633466D01*
X185941548Y-128658452D01*
X185966534Y-128688897D01*
X185985101Y-128723633D01*
X185996535Y-128761326D01*
X186001000Y-128806661D01*
X186001000Y-129643339D01*
X185996535Y-129688674D01*
X185985101Y-129726367D01*
X185966534Y-129761103D01*
X185941548Y-129791548D01*
X185911103Y-129816534D01*
X185876367Y-129835101D01*
X185838674Y-129846535D01*
X185793339Y-129851000D01*
X184706661Y-129851000D01*
X184661326Y-129846535D01*
X184623633Y-129835101D01*
X184588897Y-129816534D01*
X184558452Y-129791548D01*
X184533466Y-129761103D01*
X184514899Y-129726367D01*
X184503465Y-129688674D01*
X184499000Y-129643339D01*
X184499000Y-128806661D01*
X184503465Y-128761326D01*
X184514899Y-128723633D01*
X184533466Y-128688897D01*
X184558452Y-128658452D01*
X184588897Y-128633466D01*
X184623633Y-128614899D01*
X184661326Y-128603465D01*
X184706661Y-128599000D01*
X185793339Y-128599000D01*
X185838674Y-128603465D01*
G37*
G36*
X187838674Y-128603465D02*
G01*
X187876367Y-128614899D01*
X187911103Y-128633466D01*
X187941548Y-128658452D01*
X187966534Y-128688897D01*
X187985101Y-128723633D01*
X187996535Y-128761326D01*
X188001000Y-128806661D01*
X188001000Y-129643339D01*
X187996535Y-129688674D01*
X187985101Y-129726367D01*
X187966534Y-129761103D01*
X187941548Y-129791548D01*
X187911103Y-129816534D01*
X187876367Y-129835101D01*
X187838674Y-129846535D01*
X187793339Y-129851000D01*
X186706661Y-129851000D01*
X186661326Y-129846535D01*
X186623633Y-129835101D01*
X186588897Y-129816534D01*
X186558452Y-129791548D01*
X186533466Y-129761103D01*
X186514899Y-129726367D01*
X186503465Y-129688674D01*
X186499000Y-129643339D01*
X186499000Y-128806661D01*
X186503465Y-128761326D01*
X186514899Y-128723633D01*
X186533466Y-128688897D01*
X186558452Y-128658452D01*
X186588897Y-128633466D01*
X186623633Y-128614899D01*
X186661326Y-128603465D01*
X186706661Y-128599000D01*
X187793339Y-128599000D01*
X187838674Y-128603465D01*
G37*
G36*
X265896188Y-124027373D02*
G01*
X266424136Y-124246056D01*
X266424138Y-124246057D01*
X266899279Y-124563536D01*
X267303353Y-124967610D01*
X267620832Y-125442751D01*
X267620833Y-125442753D01*
X267839516Y-125970701D01*
X267950999Y-126531165D01*
X267950999Y-127102615D01*
X267839516Y-127663079D01*
X267651051Y-128118075D01*
X267620832Y-128191029D01*
X267303353Y-128666170D01*
X266899279Y-129070244D01*
X266424138Y-129387723D01*
X266424137Y-129387724D01*
X266424136Y-129387724D01*
X265896188Y-129606407D01*
X265335724Y-129717890D01*
X264764274Y-129717890D01*
X264203810Y-129606407D01*
X263675862Y-129387724D01*
X263675861Y-129387724D01*
X263675860Y-129387723D01*
X263200719Y-129070244D01*
X262796645Y-128666170D01*
X262479166Y-128191029D01*
X262448947Y-128118075D01*
X262260482Y-127663079D01*
X262148999Y-127102615D01*
X262148999Y-126531165D01*
X262260482Y-125970701D01*
X262479165Y-125442753D01*
X262479166Y-125442751D01*
X262796645Y-124967610D01*
X263200719Y-124563536D01*
X263675860Y-124246057D01*
X263675862Y-124246056D01*
X264203810Y-124027373D01*
X264764274Y-123915890D01*
X265335724Y-123915890D01*
X265896188Y-124027373D01*
G37*
G36*
X203088674Y-128378465D02*
G01*
X203126367Y-128389899D01*
X203161103Y-128408466D01*
X203191548Y-128433452D01*
X203216534Y-128463897D01*
X203235101Y-128498633D01*
X203246535Y-128536326D01*
X203251000Y-128581661D01*
X203251000Y-129418339D01*
X203246535Y-129463674D01*
X203235101Y-129501367D01*
X203216534Y-129536103D01*
X203191548Y-129566548D01*
X203161103Y-129591534D01*
X203126367Y-129610101D01*
X203088674Y-129621535D01*
X203043339Y-129626000D01*
X201956661Y-129626000D01*
X201911326Y-129621535D01*
X201873633Y-129610101D01*
X201838897Y-129591534D01*
X201808452Y-129566548D01*
X201783466Y-129536103D01*
X201764899Y-129501367D01*
X201753465Y-129463674D01*
X201749000Y-129418339D01*
X201749000Y-128581661D01*
X201753465Y-128536326D01*
X201764899Y-128498633D01*
X201783466Y-128463897D01*
X201808452Y-128433452D01*
X201838897Y-128408466D01*
X201873633Y-128389899D01*
X201911326Y-128378465D01*
X201956661Y-128374000D01*
X203043339Y-128374000D01*
X203088674Y-128378465D01*
G37*
G36*
X207088674Y-128378465D02*
G01*
X207126367Y-128389899D01*
X207161103Y-128408466D01*
X207191548Y-128433452D01*
X207216534Y-128463897D01*
X207235101Y-128498633D01*
X207246535Y-128536326D01*
X207251000Y-128581661D01*
X207251000Y-129418339D01*
X207246535Y-129463674D01*
X207235101Y-129501367D01*
X207216534Y-129536103D01*
X207191548Y-129566548D01*
X207161103Y-129591534D01*
X207126367Y-129610101D01*
X207088674Y-129621535D01*
X207043339Y-129626000D01*
X205956661Y-129626000D01*
X205911326Y-129621535D01*
X205873633Y-129610101D01*
X205838897Y-129591534D01*
X205808452Y-129566548D01*
X205783466Y-129536103D01*
X205764899Y-129501367D01*
X205753465Y-129463674D01*
X205749000Y-129418339D01*
X205749000Y-128581661D01*
X205753465Y-128536326D01*
X205764899Y-128498633D01*
X205783466Y-128463897D01*
X205808452Y-128433452D01*
X205838897Y-128408466D01*
X205873633Y-128389899D01*
X205911326Y-128378465D01*
X205956661Y-128374000D01*
X207043339Y-128374000D01*
X207088674Y-128378465D01*
G37*
G36*
X205088674Y-128378465D02*
G01*
X205126367Y-128389899D01*
X205161103Y-128408466D01*
X205191548Y-128433452D01*
X205216534Y-128463897D01*
X205235101Y-128498633D01*
X205246535Y-128536326D01*
X205251000Y-128581661D01*
X205251000Y-129418339D01*
X205246535Y-129463674D01*
X205235101Y-129501367D01*
X205216534Y-129536103D01*
X205191548Y-129566548D01*
X205161103Y-129591534D01*
X205126367Y-129610101D01*
X205088674Y-129621535D01*
X205043339Y-129626000D01*
X203956661Y-129626000D01*
X203911326Y-129621535D01*
X203873633Y-129610101D01*
X203838897Y-129591534D01*
X203808452Y-129566548D01*
X203783466Y-129536103D01*
X203764899Y-129501367D01*
X203753465Y-129463674D01*
X203749000Y-129418339D01*
X203749000Y-128581661D01*
X203753465Y-128536326D01*
X203764899Y-128498633D01*
X203783466Y-128463897D01*
X203808452Y-128433452D01*
X203838897Y-128408466D01*
X203873633Y-128389899D01*
X203911326Y-128378465D01*
X203956661Y-128374000D01*
X205043339Y-128374000D01*
X205088674Y-128378465D01*
G37*
G36*
X175588674Y-127903465D02*
G01*
X175626367Y-127914899D01*
X175661103Y-127933466D01*
X175691548Y-127958452D01*
X175716534Y-127988897D01*
X175735101Y-128023633D01*
X175746535Y-128061326D01*
X175751000Y-128106661D01*
X175751000Y-128943339D01*
X175746535Y-128988674D01*
X175735101Y-129026367D01*
X175716534Y-129061103D01*
X175691548Y-129091548D01*
X175661103Y-129116534D01*
X175626367Y-129135101D01*
X175588674Y-129146535D01*
X175543339Y-129151000D01*
X174456661Y-129151000D01*
X174411326Y-129146535D01*
X174373633Y-129135101D01*
X174338897Y-129116534D01*
X174308452Y-129091548D01*
X174283466Y-129061103D01*
X174264899Y-129026367D01*
X174253465Y-128988674D01*
X174249000Y-128943339D01*
X174249000Y-128106661D01*
X174253465Y-128061326D01*
X174264899Y-128023633D01*
X174283466Y-127988897D01*
X174308452Y-127958452D01*
X174338897Y-127933466D01*
X174373633Y-127914899D01*
X174411326Y-127903465D01*
X174456661Y-127899000D01*
X175543339Y-127899000D01*
X175588674Y-127903465D01*
G37*
G36*
X182463674Y-127253465D02*
G01*
X182501367Y-127264899D01*
X182536103Y-127283466D01*
X182566548Y-127308452D01*
X182591534Y-127338897D01*
X182610101Y-127373633D01*
X182621535Y-127411326D01*
X182626000Y-127456661D01*
X182626000Y-128543339D01*
X182621535Y-128588674D01*
X182610101Y-128626367D01*
X182591534Y-128661103D01*
X182566548Y-128691548D01*
X182536103Y-128716534D01*
X182501367Y-128735101D01*
X182463674Y-128746535D01*
X182418339Y-128751000D01*
X181581661Y-128751000D01*
X181536326Y-128746535D01*
X181498633Y-128735101D01*
X181463897Y-128716534D01*
X181433452Y-128691548D01*
X181408466Y-128661103D01*
X181389899Y-128626367D01*
X181378465Y-128588674D01*
X181374000Y-128543339D01*
X181374000Y-127456661D01*
X181378465Y-127411326D01*
X181389899Y-127373633D01*
X181408466Y-127338897D01*
X181433452Y-127308452D01*
X181463897Y-127283466D01*
X181498633Y-127264899D01*
X181536326Y-127253465D01*
X181581661Y-127249000D01*
X182418339Y-127249000D01*
X182463674Y-127253465D01*
G37*
G36*
X180413674Y-127253465D02*
G01*
X180451367Y-127264899D01*
X180486103Y-127283466D01*
X180516548Y-127308452D01*
X180541534Y-127338897D01*
X180560101Y-127373633D01*
X180571535Y-127411326D01*
X180576000Y-127456661D01*
X180576000Y-128543339D01*
X180571535Y-128588674D01*
X180560101Y-128626367D01*
X180541534Y-128661103D01*
X180516548Y-128691548D01*
X180486103Y-128716534D01*
X180451367Y-128735101D01*
X180413674Y-128746535D01*
X180368339Y-128751000D01*
X179531661Y-128751000D01*
X179486326Y-128746535D01*
X179448633Y-128735101D01*
X179413897Y-128716534D01*
X179383452Y-128691548D01*
X179358466Y-128661103D01*
X179339899Y-128626367D01*
X179328465Y-128588674D01*
X179324000Y-128543339D01*
X179324000Y-127456661D01*
X179328465Y-127411326D01*
X179339899Y-127373633D01*
X179358466Y-127338897D01*
X179383452Y-127308452D01*
X179413897Y-127283466D01*
X179448633Y-127264899D01*
X179486326Y-127253465D01*
X179531661Y-127249000D01*
X180368339Y-127249000D01*
X180413674Y-127253465D01*
G37*
G36*
X178088674Y-127378465D02*
G01*
X178126367Y-127389899D01*
X178161103Y-127408466D01*
X178191548Y-127433452D01*
X178216534Y-127463897D01*
X178235101Y-127498633D01*
X178246535Y-127536326D01*
X178251000Y-127581661D01*
X178251000Y-128418339D01*
X178246535Y-128463674D01*
X178235101Y-128501367D01*
X178216534Y-128536103D01*
X178191548Y-128566548D01*
X178161103Y-128591534D01*
X178126367Y-128610101D01*
X178088674Y-128621535D01*
X178043339Y-128626000D01*
X176956661Y-128626000D01*
X176911326Y-128621535D01*
X176873633Y-128610101D01*
X176838897Y-128591534D01*
X176808452Y-128566548D01*
X176783466Y-128536103D01*
X176764899Y-128501367D01*
X176753465Y-128463674D01*
X176749000Y-128418339D01*
X176749000Y-127581661D01*
X176753465Y-127536326D01*
X176764899Y-127498633D01*
X176783466Y-127463897D01*
X176808452Y-127433452D01*
X176838897Y-127408466D01*
X176873633Y-127389899D01*
X176911326Y-127378465D01*
X176956661Y-127374000D01*
X178043339Y-127374000D01*
X178088674Y-127378465D01*
G37*
G36*
X195988674Y-127003465D02*
G01*
X196026367Y-127014899D01*
X196061103Y-127033466D01*
X196091548Y-127058452D01*
X196116534Y-127088897D01*
X196135101Y-127123633D01*
X196146535Y-127161326D01*
X196151000Y-127206661D01*
X196151000Y-128293339D01*
X196146535Y-128338674D01*
X196135101Y-128376367D01*
X196116534Y-128411103D01*
X196091548Y-128441548D01*
X196061103Y-128466534D01*
X196026367Y-128485101D01*
X195988674Y-128496535D01*
X195943339Y-128501000D01*
X195106661Y-128501000D01*
X195061326Y-128496535D01*
X195023633Y-128485101D01*
X194988897Y-128466534D01*
X194958452Y-128441548D01*
X194933466Y-128411103D01*
X194914899Y-128376367D01*
X194903465Y-128338674D01*
X194899000Y-128293339D01*
X194899000Y-127206661D01*
X194903465Y-127161326D01*
X194914899Y-127123633D01*
X194933466Y-127088897D01*
X194958452Y-127058452D01*
X194988897Y-127033466D01*
X195023633Y-127014899D01*
X195061326Y-127003465D01*
X195106661Y-126999000D01*
X195943339Y-126999000D01*
X195988674Y-127003465D01*
G37*
G36*
X193938674Y-127003465D02*
G01*
X193976367Y-127014899D01*
X194011103Y-127033466D01*
X194041548Y-127058452D01*
X194066534Y-127088897D01*
X194085101Y-127123633D01*
X194096535Y-127161326D01*
X194101000Y-127206661D01*
X194101000Y-128293339D01*
X194096535Y-128338674D01*
X194085101Y-128376367D01*
X194066534Y-128411103D01*
X194041548Y-128441548D01*
X194011103Y-128466534D01*
X193976367Y-128485101D01*
X193938674Y-128496535D01*
X193893339Y-128501000D01*
X193056661Y-128501000D01*
X193011326Y-128496535D01*
X192973633Y-128485101D01*
X192938897Y-128466534D01*
X192908452Y-128441548D01*
X192883466Y-128411103D01*
X192864899Y-128376367D01*
X192853465Y-128338674D01*
X192849000Y-128293339D01*
X192849000Y-127206661D01*
X192853465Y-127161326D01*
X192864899Y-127123633D01*
X192883466Y-127088897D01*
X192908452Y-127058452D01*
X192938897Y-127033466D01*
X192973633Y-127014899D01*
X193011326Y-127003465D01*
X193056661Y-126999000D01*
X193893339Y-126999000D01*
X193938674Y-127003465D01*
G37*
G36*
X148463500Y-127463500D02*
G01*
X146536500Y-127463500D01*
X146536500Y-125736500D01*
X148463500Y-125736500D01*
X148463500Y-127463500D01*
G37*
G36*
X203069052Y-122078539D02*
G01*
X203111411Y-122091388D01*
X203150449Y-122112254D01*
X203184666Y-122140335D01*
X203212747Y-122174552D01*
X203233613Y-122213590D01*
X203234508Y-122216540D01*
X203237391Y-122221934D01*
X203239760Y-122227654D01*
X203253373Y-122248029D01*
X203270700Y-122265356D01*
X203291074Y-122278970D01*
X203313712Y-122288348D01*
X203337746Y-122293129D01*
X203362250Y-122293129D01*
X203386283Y-122288349D01*
X203408922Y-122278972D01*
X203429297Y-122265359D01*
X203446624Y-122248032D01*
X203460238Y-122227658D01*
X203462608Y-122221936D01*
X203465492Y-122216540D01*
X203466387Y-122213590D01*
X203487253Y-122174552D01*
X203515334Y-122140335D01*
X203549551Y-122112254D01*
X203588589Y-122091388D01*
X203630948Y-122078539D01*
X203674999Y-122074200D01*
X203675001Y-122074200D01*
X203719052Y-122078539D01*
X203761411Y-122091388D01*
X203800449Y-122112254D01*
X203834666Y-122140335D01*
X203862747Y-122174552D01*
X203883613Y-122213590D01*
X203884508Y-122216540D01*
X203887391Y-122221934D01*
X203889760Y-122227654D01*
X203903373Y-122248029D01*
X203920700Y-122265356D01*
X203941074Y-122278970D01*
X203963712Y-122288348D01*
X203987746Y-122293129D01*
X204012250Y-122293129D01*
X204036283Y-122288349D01*
X204058922Y-122278972D01*
X204079297Y-122265359D01*
X204096624Y-122248032D01*
X204110238Y-122227658D01*
X204112608Y-122221936D01*
X204115492Y-122216540D01*
X204116387Y-122213590D01*
X204137253Y-122174552D01*
X204165334Y-122140335D01*
X204199551Y-122112254D01*
X204238589Y-122091388D01*
X204280948Y-122078539D01*
X204324999Y-122074200D01*
X204325001Y-122074200D01*
X204369052Y-122078539D01*
X204411411Y-122091388D01*
X204450449Y-122112254D01*
X204484666Y-122140335D01*
X204512747Y-122174552D01*
X204533613Y-122213590D01*
X204534508Y-122216540D01*
X204537391Y-122221934D01*
X204539760Y-122227654D01*
X204553373Y-122248029D01*
X204570700Y-122265356D01*
X204591074Y-122278970D01*
X204613712Y-122288348D01*
X204637746Y-122293129D01*
X204662250Y-122293129D01*
X204686283Y-122288349D01*
X204708922Y-122278972D01*
X204729297Y-122265359D01*
X204746624Y-122248032D01*
X204760238Y-122227658D01*
X204762608Y-122221936D01*
X204765492Y-122216540D01*
X204766387Y-122213590D01*
X204787253Y-122174552D01*
X204815334Y-122140335D01*
X204849551Y-122112254D01*
X204888589Y-122091388D01*
X204930948Y-122078539D01*
X204974999Y-122074200D01*
X204975001Y-122074200D01*
X205019052Y-122078539D01*
X205061411Y-122091388D01*
X205100449Y-122112254D01*
X205134666Y-122140335D01*
X205162747Y-122174552D01*
X205183613Y-122213590D01*
X205196462Y-122255949D01*
X205200801Y-122300000D01*
X205200801Y-123000000D01*
X205196462Y-123044051D01*
X205183613Y-123086410D01*
X205162747Y-123125448D01*
X205142583Y-123150019D01*
X205132388Y-123165276D01*
X205123011Y-123187914D01*
X205118230Y-123211948D01*
X205118230Y-123236452D01*
X205123010Y-123260485D01*
X205132387Y-123283124D01*
X205146001Y-123303498D01*
X205163327Y-123320826D01*
X205183702Y-123334440D01*
X205206340Y-123343817D01*
X205230374Y-123348598D01*
X205242627Y-123349200D01*
X205400800Y-123349200D01*
X205400800Y-123507373D01*
X205403202Y-123531759D01*
X205410315Y-123555208D01*
X205421866Y-123576819D01*
X205437411Y-123595761D01*
X205456353Y-123611306D01*
X205477964Y-123622857D01*
X205501413Y-123629970D01*
X205525799Y-123632372D01*
X205550185Y-123629970D01*
X205573634Y-123622857D01*
X205595240Y-123611309D01*
X205624552Y-123587253D01*
X205663590Y-123566387D01*
X205705949Y-123553538D01*
X205750000Y-123549199D01*
X206450000Y-123549199D01*
X206494051Y-123553538D01*
X206536410Y-123566387D01*
X206575448Y-123587253D01*
X206609665Y-123615334D01*
X206637746Y-123649551D01*
X206658612Y-123688589D01*
X206671461Y-123730948D01*
X206675800Y-123774999D01*
X206675800Y-123775001D01*
X206671461Y-123819052D01*
X206658612Y-123861411D01*
X206637746Y-123900449D01*
X206609665Y-123934666D01*
X206575448Y-123962747D01*
X206536410Y-123983613D01*
X206533460Y-123984508D01*
X206528066Y-123987391D01*
X206522346Y-123989760D01*
X206501971Y-124003373D01*
X206484644Y-124020700D01*
X206471030Y-124041074D01*
X206461652Y-124063712D01*
X206456871Y-124087746D01*
X206456871Y-124112250D01*
X206461651Y-124136283D01*
X206471028Y-124158922D01*
X206484641Y-124179297D01*
X206501968Y-124196624D01*
X206522342Y-124210238D01*
X206528064Y-124212608D01*
X206533460Y-124215492D01*
X206536410Y-124216387D01*
X206575448Y-124237253D01*
X206609665Y-124265334D01*
X206637746Y-124299551D01*
X206658612Y-124338589D01*
X206671461Y-124380948D01*
X206675800Y-124424999D01*
X206675800Y-124425001D01*
X206671461Y-124469052D01*
X206658612Y-124511411D01*
X206637746Y-124550449D01*
X206609665Y-124584666D01*
X206575448Y-124612747D01*
X206536410Y-124633613D01*
X206533460Y-124634508D01*
X206528066Y-124637391D01*
X206522346Y-124639760D01*
X206501971Y-124653373D01*
X206484644Y-124670700D01*
X206471030Y-124691074D01*
X206461652Y-124713712D01*
X206456871Y-124737746D01*
X206456871Y-124762250D01*
X206461651Y-124786283D01*
X206471028Y-124808922D01*
X206484641Y-124829297D01*
X206501968Y-124846624D01*
X206522342Y-124860238D01*
X206528064Y-124862608D01*
X206533460Y-124865492D01*
X206536410Y-124866387D01*
X206575448Y-124887253D01*
X206609665Y-124915334D01*
X206637746Y-124949551D01*
X206658612Y-124988589D01*
X206671461Y-125030948D01*
X206675800Y-125074999D01*
X206675800Y-125075001D01*
X206671461Y-125119052D01*
X206658612Y-125161411D01*
X206637746Y-125200449D01*
X206609665Y-125234666D01*
X206575448Y-125262747D01*
X206536410Y-125283613D01*
X206533460Y-125284508D01*
X206528066Y-125287391D01*
X206522346Y-125289760D01*
X206501971Y-125303373D01*
X206484644Y-125320700D01*
X206471030Y-125341074D01*
X206461652Y-125363712D01*
X206456871Y-125387746D01*
X206456871Y-125412250D01*
X206461651Y-125436283D01*
X206471028Y-125458922D01*
X206484641Y-125479297D01*
X206501968Y-125496624D01*
X206522342Y-125510238D01*
X206528064Y-125512608D01*
X206533460Y-125515492D01*
X206536410Y-125516387D01*
X206575448Y-125537253D01*
X206609665Y-125565334D01*
X206637746Y-125599551D01*
X206658612Y-125638589D01*
X206671461Y-125680948D01*
X206675800Y-125724999D01*
X206675800Y-125725001D01*
X206671461Y-125769052D01*
X206658612Y-125811411D01*
X206637746Y-125850449D01*
X206609665Y-125884666D01*
X206575448Y-125912747D01*
X206536410Y-125933613D01*
X206494051Y-125946462D01*
X206450000Y-125950801D01*
X205750000Y-125950801D01*
X205705949Y-125946462D01*
X205663590Y-125933613D01*
X205624552Y-125912747D01*
X205599981Y-125892583D01*
X205584724Y-125882388D01*
X205562086Y-125873011D01*
X205538052Y-125868230D01*
X205513548Y-125868230D01*
X205489515Y-125873010D01*
X205466876Y-125882387D01*
X205446502Y-125896001D01*
X205429174Y-125913327D01*
X205415560Y-125933702D01*
X205406183Y-125956340D01*
X205401402Y-125980374D01*
X205400800Y-125992627D01*
X205400800Y-126150800D01*
X205242627Y-126150800D01*
X205218241Y-126153202D01*
X205194792Y-126160315D01*
X205173181Y-126171866D01*
X205154239Y-126187411D01*
X205138694Y-126206353D01*
X205127143Y-126227964D01*
X205120030Y-126251413D01*
X205117628Y-126275799D01*
X205120030Y-126300185D01*
X205127143Y-126323634D01*
X205138691Y-126345240D01*
X205162747Y-126374552D01*
X205183613Y-126413590D01*
X205196462Y-126455949D01*
X205200801Y-126500000D01*
X205200801Y-127200000D01*
X205196462Y-127244051D01*
X205183613Y-127286410D01*
X205162747Y-127325448D01*
X205134666Y-127359665D01*
X205100449Y-127387746D01*
X205061411Y-127408612D01*
X205019052Y-127421461D01*
X204975001Y-127425800D01*
X204974999Y-127425800D01*
X204930948Y-127421461D01*
X204888589Y-127408612D01*
X204849551Y-127387746D01*
X204815334Y-127359665D01*
X204787253Y-127325448D01*
X204766387Y-127286410D01*
X204765492Y-127283460D01*
X204762609Y-127278066D01*
X204760240Y-127272346D01*
X204746627Y-127251971D01*
X204729300Y-127234644D01*
X204708926Y-127221030D01*
X204686288Y-127211652D01*
X204662254Y-127206871D01*
X204637750Y-127206871D01*
X204613717Y-127211651D01*
X204591078Y-127221028D01*
X204570703Y-127234641D01*
X204553376Y-127251968D01*
X204539762Y-127272342D01*
X204537392Y-127278064D01*
X204534508Y-127283460D01*
X204533613Y-127286410D01*
X204512747Y-127325448D01*
X204484666Y-127359665D01*
X204450449Y-127387746D01*
X204411411Y-127408612D01*
X204369052Y-127421461D01*
X204325001Y-127425800D01*
X204324999Y-127425800D01*
X204280948Y-127421461D01*
X204238589Y-127408612D01*
X204199551Y-127387746D01*
X204165334Y-127359665D01*
X204137253Y-127325448D01*
X204116387Y-127286410D01*
X204115492Y-127283460D01*
X204112609Y-127278066D01*
X204110240Y-127272346D01*
X204096627Y-127251971D01*
X204079300Y-127234644D01*
X204058926Y-127221030D01*
X204036288Y-127211652D01*
X204012254Y-127206871D01*
X203987750Y-127206871D01*
X203963717Y-127211651D01*
X203941078Y-127221028D01*
X203920703Y-127234641D01*
X203903376Y-127251968D01*
X203889762Y-127272342D01*
X203887392Y-127278064D01*
X203884508Y-127283460D01*
X203883613Y-127286410D01*
X203862747Y-127325448D01*
X203834666Y-127359665D01*
X203800449Y-127387746D01*
X203761411Y-127408612D01*
X203719052Y-127421461D01*
X203675001Y-127425800D01*
X203674999Y-127425800D01*
X203630948Y-127421461D01*
X203588589Y-127408612D01*
X203549551Y-127387746D01*
X203515334Y-127359665D01*
X203487253Y-127325448D01*
X203466387Y-127286410D01*
X203465492Y-127283460D01*
X203462609Y-127278066D01*
X203460240Y-127272346D01*
X203446627Y-127251971D01*
X203429300Y-127234644D01*
X203408926Y-127221030D01*
X203386288Y-127211652D01*
X203362254Y-127206871D01*
X203337750Y-127206871D01*
X203313717Y-127211651D01*
X203291078Y-127221028D01*
X203270703Y-127234641D01*
X203253376Y-127251968D01*
X203239762Y-127272342D01*
X203237392Y-127278064D01*
X203234508Y-127283460D01*
X203233613Y-127286410D01*
X203212747Y-127325448D01*
X203184666Y-127359665D01*
X203150449Y-127387746D01*
X203111411Y-127408612D01*
X203069052Y-127421461D01*
X203025001Y-127425800D01*
X203024999Y-127425800D01*
X202980948Y-127421461D01*
X202938589Y-127408612D01*
X202899551Y-127387746D01*
X202865334Y-127359665D01*
X202837253Y-127325448D01*
X202816387Y-127286410D01*
X202803538Y-127244051D01*
X202799199Y-127200000D01*
X202799199Y-126500000D01*
X202803538Y-126455949D01*
X202816387Y-126413590D01*
X202837253Y-126374552D01*
X202857417Y-126349981D01*
X202867612Y-126334724D01*
X202876989Y-126312086D01*
X202881770Y-126288052D01*
X202881770Y-126275799D01*
X203167628Y-126275799D01*
X203170030Y-126300185D01*
X203177143Y-126323634D01*
X203188691Y-126345240D01*
X203212747Y-126374552D01*
X203233613Y-126413590D01*
X203234508Y-126416540D01*
X203237391Y-126421934D01*
X203239760Y-126427654D01*
X203253373Y-126448029D01*
X203270700Y-126465356D01*
X203291074Y-126478970D01*
X203313712Y-126488348D01*
X203337746Y-126493129D01*
X203362250Y-126493129D01*
X203386283Y-126488349D01*
X203408922Y-126478972D01*
X203429297Y-126465359D01*
X203446624Y-126448032D01*
X203460238Y-126427658D01*
X203462608Y-126421936D01*
X203465492Y-126416540D01*
X203466387Y-126413590D01*
X203487253Y-126374552D01*
X203507417Y-126349981D01*
X203517612Y-126334724D01*
X203526989Y-126312086D01*
X203531770Y-126288052D01*
X203531770Y-126275799D01*
X203817628Y-126275799D01*
X203820030Y-126300185D01*
X203827143Y-126323634D01*
X203838691Y-126345240D01*
X203862747Y-126374552D01*
X203883613Y-126413590D01*
X203884508Y-126416540D01*
X203887391Y-126421934D01*
X203889760Y-126427654D01*
X203903373Y-126448029D01*
X203920700Y-126465356D01*
X203941074Y-126478970D01*
X203963712Y-126488348D01*
X203987746Y-126493129D01*
X204012250Y-126493129D01*
X204036283Y-126488349D01*
X204058922Y-126478972D01*
X204079297Y-126465359D01*
X204096624Y-126448032D01*
X204110238Y-126427658D01*
X204112608Y-126421936D01*
X204115492Y-126416540D01*
X204116387Y-126413590D01*
X204137253Y-126374552D01*
X204157417Y-126349981D01*
X204167612Y-126334724D01*
X204176989Y-126312086D01*
X204181770Y-126288052D01*
X204181770Y-126275799D01*
X204467628Y-126275799D01*
X204470030Y-126300185D01*
X204477143Y-126323634D01*
X204488691Y-126345240D01*
X204512747Y-126374552D01*
X204533613Y-126413590D01*
X204534508Y-126416540D01*
X204537391Y-126421934D01*
X204539760Y-126427654D01*
X204553373Y-126448029D01*
X204570700Y-126465356D01*
X204591074Y-126478970D01*
X204613712Y-126488348D01*
X204637746Y-126493129D01*
X204662250Y-126493129D01*
X204686283Y-126488349D01*
X204708922Y-126478972D01*
X204729297Y-126465359D01*
X204746624Y-126448032D01*
X204760238Y-126427658D01*
X204762608Y-126421936D01*
X204765492Y-126416540D01*
X204766387Y-126413590D01*
X204787253Y-126374552D01*
X204807417Y-126349981D01*
X204817612Y-126334724D01*
X204826989Y-126312086D01*
X204831770Y-126288052D01*
X204831770Y-126263548D01*
X204826990Y-126239515D01*
X204817613Y-126216876D01*
X204803999Y-126196502D01*
X204786673Y-126179174D01*
X204766298Y-126165560D01*
X204743660Y-126156183D01*
X204719626Y-126151402D01*
X204707373Y-126150800D01*
X204592627Y-126150800D01*
X204568241Y-126153202D01*
X204544792Y-126160315D01*
X204523181Y-126171866D01*
X204504239Y-126187411D01*
X204488694Y-126206353D01*
X204477143Y-126227964D01*
X204470030Y-126251413D01*
X204467628Y-126275799D01*
X204181770Y-126275799D01*
X204181770Y-126263548D01*
X204176990Y-126239515D01*
X204167613Y-126216876D01*
X204153999Y-126196502D01*
X204136673Y-126179174D01*
X204116298Y-126165560D01*
X204093660Y-126156183D01*
X204069626Y-126151402D01*
X204057373Y-126150800D01*
X203942627Y-126150800D01*
X203918241Y-126153202D01*
X203894792Y-126160315D01*
X203873181Y-126171866D01*
X203854239Y-126187411D01*
X203838694Y-126206353D01*
X203827143Y-126227964D01*
X203820030Y-126251413D01*
X203817628Y-126275799D01*
X203531770Y-126275799D01*
X203531770Y-126263548D01*
X203526990Y-126239515D01*
X203517613Y-126216876D01*
X203503999Y-126196502D01*
X203486673Y-126179174D01*
X203466298Y-126165560D01*
X203443660Y-126156183D01*
X203419626Y-126151402D01*
X203407373Y-126150800D01*
X203292627Y-126150800D01*
X203268241Y-126153202D01*
X203244792Y-126160315D01*
X203223181Y-126171866D01*
X203204239Y-126187411D01*
X203188694Y-126206353D01*
X203177143Y-126227964D01*
X203170030Y-126251413D01*
X203167628Y-126275799D01*
X202881770Y-126275799D01*
X202881770Y-126263548D01*
X202876990Y-126239515D01*
X202867613Y-126216876D01*
X202853999Y-126196502D01*
X202836673Y-126179174D01*
X202816298Y-126165560D01*
X202793660Y-126156183D01*
X202769626Y-126151402D01*
X202757373Y-126150800D01*
X202599200Y-126150800D01*
X202599200Y-125992627D01*
X202596798Y-125968241D01*
X202589685Y-125944792D01*
X202578134Y-125923181D01*
X202562589Y-125904239D01*
X202543647Y-125888694D01*
X202522036Y-125877143D01*
X202498587Y-125870030D01*
X202474201Y-125867628D01*
X202449815Y-125870030D01*
X202426366Y-125877143D01*
X202404760Y-125888691D01*
X202375448Y-125912747D01*
X202336410Y-125933613D01*
X202294051Y-125946462D01*
X202250000Y-125950801D01*
X201550000Y-125950801D01*
X201505949Y-125946462D01*
X201463590Y-125933613D01*
X201424552Y-125912747D01*
X201390335Y-125884666D01*
X201362254Y-125850449D01*
X201341388Y-125811411D01*
X201328539Y-125769052D01*
X201324200Y-125725001D01*
X201324200Y-125724999D01*
X201328539Y-125680948D01*
X201341388Y-125638589D01*
X201362254Y-125599551D01*
X201390335Y-125565334D01*
X201424552Y-125537253D01*
X201463590Y-125516387D01*
X201466540Y-125515492D01*
X201471934Y-125512609D01*
X201477654Y-125510240D01*
X201498029Y-125496627D01*
X201515356Y-125479300D01*
X201528970Y-125458926D01*
X201538348Y-125436288D01*
X201543129Y-125412254D01*
X201543129Y-125387750D01*
X201543129Y-125387746D01*
X202256871Y-125387746D01*
X202256871Y-125412250D01*
X202261651Y-125436283D01*
X202271028Y-125458922D01*
X202284641Y-125479297D01*
X202301968Y-125496624D01*
X202322342Y-125510238D01*
X202328064Y-125512608D01*
X202333460Y-125515492D01*
X202336410Y-125516387D01*
X202375448Y-125537253D01*
X202400019Y-125557417D01*
X202415276Y-125567612D01*
X202437914Y-125576989D01*
X202461948Y-125581770D01*
X202486452Y-125581770D01*
X202510485Y-125576990D01*
X202533124Y-125567613D01*
X202553498Y-125553999D01*
X202570826Y-125536673D01*
X202584440Y-125516298D01*
X202593817Y-125493660D01*
X202598598Y-125469626D01*
X202599200Y-125457373D01*
X202599200Y-125342627D01*
X205400800Y-125342627D01*
X205400800Y-125457373D01*
X205403202Y-125481759D01*
X205410315Y-125505208D01*
X205421866Y-125526819D01*
X205437411Y-125545761D01*
X205456353Y-125561306D01*
X205477964Y-125572857D01*
X205501413Y-125579970D01*
X205525799Y-125582372D01*
X205550185Y-125579970D01*
X205573634Y-125572857D01*
X205595240Y-125561309D01*
X205624552Y-125537253D01*
X205663590Y-125516387D01*
X205666540Y-125515492D01*
X205671934Y-125512609D01*
X205677654Y-125510240D01*
X205698029Y-125496627D01*
X205715356Y-125479300D01*
X205728970Y-125458926D01*
X205738348Y-125436288D01*
X205743129Y-125412254D01*
X205743129Y-125387750D01*
X205738349Y-125363717D01*
X205728972Y-125341078D01*
X205715359Y-125320703D01*
X205698032Y-125303376D01*
X205677658Y-125289762D01*
X205671936Y-125287392D01*
X205666540Y-125284508D01*
X205663590Y-125283613D01*
X205624552Y-125262747D01*
X205599981Y-125242583D01*
X205584724Y-125232388D01*
X205562086Y-125223011D01*
X205538052Y-125218230D01*
X205513548Y-125218230D01*
X205489515Y-125223010D01*
X205466876Y-125232387D01*
X205446502Y-125246001D01*
X205429174Y-125263327D01*
X205415560Y-125283702D01*
X205406183Y-125306340D01*
X205401402Y-125330374D01*
X205400800Y-125342627D01*
X202599200Y-125342627D01*
X202596798Y-125318241D01*
X202589685Y-125294792D01*
X202578134Y-125273181D01*
X202562589Y-125254239D01*
X202543647Y-125238694D01*
X202522036Y-125227143D01*
X202498587Y-125220030D01*
X202474201Y-125217628D01*
X202449815Y-125220030D01*
X202426366Y-125227143D01*
X202404760Y-125238691D01*
X202375448Y-125262747D01*
X202336410Y-125283613D01*
X202333460Y-125284508D01*
X202328066Y-125287391D01*
X202322346Y-125289760D01*
X202301971Y-125303373D01*
X202284644Y-125320700D01*
X202271030Y-125341074D01*
X202261652Y-125363712D01*
X202256871Y-125387746D01*
X201543129Y-125387746D01*
X201538349Y-125363717D01*
X201528972Y-125341078D01*
X201515359Y-125320703D01*
X201498032Y-125303376D01*
X201477658Y-125289762D01*
X201471936Y-125287392D01*
X201466540Y-125284508D01*
X201463590Y-125283613D01*
X201424552Y-125262747D01*
X201390335Y-125234666D01*
X201362254Y-125200449D01*
X201341388Y-125161411D01*
X201328539Y-125119052D01*
X201324200Y-125075001D01*
X201324200Y-125074999D01*
X201328539Y-125030948D01*
X201341388Y-124988589D01*
X201362254Y-124949551D01*
X201390335Y-124915334D01*
X201424552Y-124887253D01*
X201463590Y-124866387D01*
X201466540Y-124865492D01*
X201471934Y-124862609D01*
X201477654Y-124860240D01*
X201498029Y-124846627D01*
X201515356Y-124829300D01*
X201528970Y-124808926D01*
X201538348Y-124786288D01*
X201543129Y-124762254D01*
X201543129Y-124737750D01*
X201543129Y-124737746D01*
X202256871Y-124737746D01*
X202256871Y-124762250D01*
X202261651Y-124786283D01*
X202271028Y-124808922D01*
X202284641Y-124829297D01*
X202301968Y-124846624D01*
X202322342Y-124860238D01*
X202328064Y-124862608D01*
X202333460Y-124865492D01*
X202336410Y-124866387D01*
X202375448Y-124887253D01*
X202400019Y-124907417D01*
X202415276Y-124917612D01*
X202437914Y-124926989D01*
X202461948Y-124931770D01*
X202486452Y-124931770D01*
X202510485Y-124926990D01*
X202533124Y-124917613D01*
X202553498Y-124903999D01*
X202570826Y-124886673D01*
X202584440Y-124866298D01*
X202593817Y-124843660D01*
X202598598Y-124819626D01*
X202599200Y-124807373D01*
X202599200Y-124692627D01*
X205400800Y-124692627D01*
X205400800Y-124807373D01*
X205403202Y-124831759D01*
X205410315Y-124855208D01*
X205421866Y-124876819D01*
X205437411Y-124895761D01*
X205456353Y-124911306D01*
X205477964Y-124922857D01*
X205501413Y-124929970D01*
X205525799Y-124932372D01*
X205550185Y-124929970D01*
X205573634Y-124922857D01*
X205595240Y-124911309D01*
X205624552Y-124887253D01*
X205663590Y-124866387D01*
X205666540Y-124865492D01*
X205671934Y-124862609D01*
X205677654Y-124860240D01*
X205698029Y-124846627D01*
X205715356Y-124829300D01*
X205728970Y-124808926D01*
X205738348Y-124786288D01*
X205743129Y-124762254D01*
X205743129Y-124737750D01*
X205738349Y-124713717D01*
X205728972Y-124691078D01*
X205715359Y-124670703D01*
X205698032Y-124653376D01*
X205677658Y-124639762D01*
X205671936Y-124637392D01*
X205666540Y-124634508D01*
X205663590Y-124633613D01*
X205624552Y-124612747D01*
X205599981Y-124592583D01*
X205584724Y-124582388D01*
X205562086Y-124573011D01*
X205538052Y-124568230D01*
X205513548Y-124568230D01*
X205489515Y-124573010D01*
X205466876Y-124582387D01*
X205446502Y-124596001D01*
X205429174Y-124613327D01*
X205415560Y-124633702D01*
X205406183Y-124656340D01*
X205401402Y-124680374D01*
X205400800Y-124692627D01*
X202599200Y-124692627D01*
X202596798Y-124668241D01*
X202589685Y-124644792D01*
X202578134Y-124623181D01*
X202562589Y-124604239D01*
X202543647Y-124588694D01*
X202522036Y-124577143D01*
X202498587Y-124570030D01*
X202474201Y-124567628D01*
X202449815Y-124570030D01*
X202426366Y-124577143D01*
X202404760Y-124588691D01*
X202375448Y-124612747D01*
X202336410Y-124633613D01*
X202333460Y-124634508D01*
X202328066Y-124637391D01*
X202322346Y-124639760D01*
X202301971Y-124653373D01*
X202284644Y-124670700D01*
X202271030Y-124691074D01*
X202261652Y-124713712D01*
X202256871Y-124737746D01*
X201543129Y-124737746D01*
X201538349Y-124713717D01*
X201528972Y-124691078D01*
X201515359Y-124670703D01*
X201498032Y-124653376D01*
X201477658Y-124639762D01*
X201471936Y-124637392D01*
X201466540Y-124634508D01*
X201463590Y-124633613D01*
X201424552Y-124612747D01*
X201390335Y-124584666D01*
X201362254Y-124550449D01*
X201341388Y-124511411D01*
X201328539Y-124469052D01*
X201324200Y-124425001D01*
X201324200Y-124424999D01*
X201328539Y-124380948D01*
X201341388Y-124338589D01*
X201362254Y-124299551D01*
X201390335Y-124265334D01*
X201424552Y-124237253D01*
X201463590Y-124216387D01*
X201466540Y-124215492D01*
X201471934Y-124212609D01*
X201477654Y-124210240D01*
X201498029Y-124196627D01*
X201515356Y-124179300D01*
X201528970Y-124158926D01*
X201538348Y-124136288D01*
X201543129Y-124112254D01*
X201543129Y-124087750D01*
X201543129Y-124087746D01*
X202256871Y-124087746D01*
X202256871Y-124112250D01*
X202261651Y-124136283D01*
X202271028Y-124158922D01*
X202284641Y-124179297D01*
X202301968Y-124196624D01*
X202322342Y-124210238D01*
X202328064Y-124212608D01*
X202333460Y-124215492D01*
X202336410Y-124216387D01*
X202375448Y-124237253D01*
X202400019Y-124257417D01*
X202415276Y-124267612D01*
X202437914Y-124276989D01*
X202461948Y-124281770D01*
X202486452Y-124281770D01*
X202510485Y-124276990D01*
X202533124Y-124267613D01*
X202553498Y-124253999D01*
X202570826Y-124236673D01*
X202584440Y-124216298D01*
X202593817Y-124193660D01*
X202598598Y-124169626D01*
X202599200Y-124157373D01*
X202599200Y-124042627D01*
X205400800Y-124042627D01*
X205400800Y-124157373D01*
X205403202Y-124181759D01*
X205410315Y-124205208D01*
X205421866Y-124226819D01*
X205437411Y-124245761D01*
X205456353Y-124261306D01*
X205477964Y-124272857D01*
X205501413Y-124279970D01*
X205525799Y-124282372D01*
X205550185Y-124279970D01*
X205573634Y-124272857D01*
X205595240Y-124261309D01*
X205624552Y-124237253D01*
X205663590Y-124216387D01*
X205666540Y-124215492D01*
X205671934Y-124212609D01*
X205677654Y-124210240D01*
X205698029Y-124196627D01*
X205715356Y-124179300D01*
X205728970Y-124158926D01*
X205738348Y-124136288D01*
X205743129Y-124112254D01*
X205743129Y-124087750D01*
X205738349Y-124063717D01*
X205728972Y-124041078D01*
X205715359Y-124020703D01*
X205698032Y-124003376D01*
X205677658Y-123989762D01*
X205671936Y-123987392D01*
X205666540Y-123984508D01*
X205663590Y-123983613D01*
X205624552Y-123962747D01*
X205599981Y-123942583D01*
X205584724Y-123932388D01*
X205562086Y-123923011D01*
X205538052Y-123918230D01*
X205513548Y-123918230D01*
X205489515Y-123923010D01*
X205466876Y-123932387D01*
X205446502Y-123946001D01*
X205429174Y-123963327D01*
X205415560Y-123983702D01*
X205406183Y-124006340D01*
X205401402Y-124030374D01*
X205400800Y-124042627D01*
X202599200Y-124042627D01*
X202596798Y-124018241D01*
X202589685Y-123994792D01*
X202578134Y-123973181D01*
X202562589Y-123954239D01*
X202543647Y-123938694D01*
X202522036Y-123927143D01*
X202498587Y-123920030D01*
X202474201Y-123917628D01*
X202449815Y-123920030D01*
X202426366Y-123927143D01*
X202404760Y-123938691D01*
X202375448Y-123962747D01*
X202336410Y-123983613D01*
X202333460Y-123984508D01*
X202328066Y-123987391D01*
X202322346Y-123989760D01*
X202301971Y-124003373D01*
X202284644Y-124020700D01*
X202271030Y-124041074D01*
X202261652Y-124063712D01*
X202256871Y-124087746D01*
X201543129Y-124087746D01*
X201538349Y-124063717D01*
X201528972Y-124041078D01*
X201515359Y-124020703D01*
X201498032Y-124003376D01*
X201477658Y-123989762D01*
X201471936Y-123987392D01*
X201466540Y-123984508D01*
X201463590Y-123983613D01*
X201424552Y-123962747D01*
X201390335Y-123934666D01*
X201362254Y-123900449D01*
X201341388Y-123861411D01*
X201328539Y-123819052D01*
X201324200Y-123775001D01*
X201324200Y-123774999D01*
X201328539Y-123730948D01*
X201341388Y-123688589D01*
X201362254Y-123649551D01*
X201390335Y-123615334D01*
X201424552Y-123587253D01*
X201463590Y-123566387D01*
X201505949Y-123553538D01*
X201550000Y-123549199D01*
X202250000Y-123549199D01*
X202294051Y-123553538D01*
X202336410Y-123566387D01*
X202375448Y-123587253D01*
X202400019Y-123607417D01*
X202415276Y-123617612D01*
X202437914Y-123626989D01*
X202461948Y-123631770D01*
X202486452Y-123631770D01*
X202510485Y-123626990D01*
X202533124Y-123617613D01*
X202553498Y-123603999D01*
X202570826Y-123586673D01*
X202584440Y-123566298D01*
X202593817Y-123543660D01*
X202598598Y-123519626D01*
X202599200Y-123507373D01*
X202599200Y-123349200D01*
X202757373Y-123349200D01*
X202781759Y-123346798D01*
X202805208Y-123339685D01*
X202826819Y-123328134D01*
X202845761Y-123312589D01*
X202861306Y-123293647D01*
X202872857Y-123272036D01*
X202879970Y-123248587D01*
X202882372Y-123224201D01*
X202881166Y-123211948D01*
X203168230Y-123211948D01*
X203168230Y-123236452D01*
X203173010Y-123260485D01*
X203182387Y-123283124D01*
X203196001Y-123303498D01*
X203213327Y-123320826D01*
X203233702Y-123334440D01*
X203256340Y-123343817D01*
X203280374Y-123348598D01*
X203292627Y-123349200D01*
X203407373Y-123349200D01*
X203431759Y-123346798D01*
X203455208Y-123339685D01*
X203476819Y-123328134D01*
X203495761Y-123312589D01*
X203511306Y-123293647D01*
X203522857Y-123272036D01*
X203529970Y-123248587D01*
X203532372Y-123224201D01*
X203531166Y-123211948D01*
X203818230Y-123211948D01*
X203818230Y-123236452D01*
X203823010Y-123260485D01*
X203832387Y-123283124D01*
X203846001Y-123303498D01*
X203863327Y-123320826D01*
X203883702Y-123334440D01*
X203906340Y-123343817D01*
X203930374Y-123348598D01*
X203942627Y-123349200D01*
X204057373Y-123349200D01*
X204081759Y-123346798D01*
X204105208Y-123339685D01*
X204126819Y-123328134D01*
X204145761Y-123312589D01*
X204161306Y-123293647D01*
X204172857Y-123272036D01*
X204179970Y-123248587D01*
X204182372Y-123224201D01*
X204181166Y-123211948D01*
X204468230Y-123211948D01*
X204468230Y-123236452D01*
X204473010Y-123260485D01*
X204482387Y-123283124D01*
X204496001Y-123303498D01*
X204513327Y-123320826D01*
X204533702Y-123334440D01*
X204556340Y-123343817D01*
X204580374Y-123348598D01*
X204592627Y-123349200D01*
X204707373Y-123349200D01*
X204731759Y-123346798D01*
X204755208Y-123339685D01*
X204776819Y-123328134D01*
X204795761Y-123312589D01*
X204811306Y-123293647D01*
X204822857Y-123272036D01*
X204829970Y-123248587D01*
X204832372Y-123224201D01*
X204829970Y-123199815D01*
X204822857Y-123176366D01*
X204811309Y-123154760D01*
X204787253Y-123125448D01*
X204766387Y-123086410D01*
X204765492Y-123083460D01*
X204762609Y-123078066D01*
X204760240Y-123072346D01*
X204746627Y-123051971D01*
X204729300Y-123034644D01*
X204708926Y-123021030D01*
X204686288Y-123011652D01*
X204662254Y-123006871D01*
X204637750Y-123006871D01*
X204613717Y-123011651D01*
X204591078Y-123021028D01*
X204570703Y-123034641D01*
X204553376Y-123051968D01*
X204539762Y-123072342D01*
X204537392Y-123078064D01*
X204534508Y-123083460D01*
X204533613Y-123086410D01*
X204512747Y-123125448D01*
X204492583Y-123150019D01*
X204482388Y-123165276D01*
X204473011Y-123187914D01*
X204468230Y-123211948D01*
X204181166Y-123211948D01*
X204179970Y-123199815D01*
X204172857Y-123176366D01*
X204161309Y-123154760D01*
X204137253Y-123125448D01*
X204116387Y-123086410D01*
X204115492Y-123083460D01*
X204112609Y-123078066D01*
X204110240Y-123072346D01*
X204096627Y-123051971D01*
X204079300Y-123034644D01*
X204058926Y-123021030D01*
X204036288Y-123011652D01*
X204012254Y-123006871D01*
X203987750Y-123006871D01*
X203963717Y-123011651D01*
X203941078Y-123021028D01*
X203920703Y-123034641D01*
X203903376Y-123051968D01*
X203889762Y-123072342D01*
X203887392Y-123078064D01*
X203884508Y-123083460D01*
X203883613Y-123086410D01*
X203862747Y-123125448D01*
X203842583Y-123150019D01*
X203832388Y-123165276D01*
X203823011Y-123187914D01*
X203818230Y-123211948D01*
X203531166Y-123211948D01*
X203529970Y-123199815D01*
X203522857Y-123176366D01*
X203511309Y-123154760D01*
X203487253Y-123125448D01*
X203466387Y-123086410D01*
X203465492Y-123083460D01*
X203462609Y-123078066D01*
X203460240Y-123072346D01*
X203446627Y-123051971D01*
X203429300Y-123034644D01*
X203408926Y-123021030D01*
X203386288Y-123011652D01*
X203362254Y-123006871D01*
X203337750Y-123006871D01*
X203313717Y-123011651D01*
X203291078Y-123021028D01*
X203270703Y-123034641D01*
X203253376Y-123051968D01*
X203239762Y-123072342D01*
X203237392Y-123078064D01*
X203234508Y-123083460D01*
X203233613Y-123086410D01*
X203212747Y-123125448D01*
X203192583Y-123150019D01*
X203182388Y-123165276D01*
X203173011Y-123187914D01*
X203168230Y-123211948D01*
X202881166Y-123211948D01*
X202879970Y-123199815D01*
X202872857Y-123176366D01*
X202861309Y-123154760D01*
X202837253Y-123125448D01*
X202816387Y-123086410D01*
X202803538Y-123044051D01*
X202799199Y-123000000D01*
X202799199Y-122300000D01*
X202803538Y-122255949D01*
X202816387Y-122213590D01*
X202837253Y-122174552D01*
X202865334Y-122140335D01*
X202899551Y-122112254D01*
X202938589Y-122091388D01*
X202980948Y-122078539D01*
X203024999Y-122074200D01*
X203025001Y-122074200D01*
X203069052Y-122078539D01*
G37*
G36*
X175588674Y-125853465D02*
G01*
X175626367Y-125864899D01*
X175661103Y-125883466D01*
X175691548Y-125908452D01*
X175716534Y-125938897D01*
X175735101Y-125973633D01*
X175746535Y-126011326D01*
X175751000Y-126056661D01*
X175751000Y-126893339D01*
X175746535Y-126938674D01*
X175735101Y-126976367D01*
X175716534Y-127011103D01*
X175691548Y-127041548D01*
X175661103Y-127066534D01*
X175626367Y-127085101D01*
X175588674Y-127096535D01*
X175543339Y-127101000D01*
X174456661Y-127101000D01*
X174411326Y-127096535D01*
X174373633Y-127085101D01*
X174338897Y-127066534D01*
X174308452Y-127041548D01*
X174283466Y-127011103D01*
X174264899Y-126976367D01*
X174253465Y-126938674D01*
X174249000Y-126893339D01*
X174249000Y-126056661D01*
X174253465Y-126011326D01*
X174264899Y-125973633D01*
X174283466Y-125938897D01*
X174308452Y-125908452D01*
X174338897Y-125883466D01*
X174373633Y-125864899D01*
X174411326Y-125853465D01*
X174456661Y-125849000D01*
X175543339Y-125849000D01*
X175588674Y-125853465D01*
G37*
G36*
X178088674Y-125328465D02*
G01*
X178126367Y-125339899D01*
X178161103Y-125358466D01*
X178191548Y-125383452D01*
X178216534Y-125413897D01*
X178235101Y-125448633D01*
X178246535Y-125486326D01*
X178251000Y-125531661D01*
X178251000Y-126368339D01*
X178246535Y-126413674D01*
X178235101Y-126451367D01*
X178216534Y-126486103D01*
X178191548Y-126516548D01*
X178161103Y-126541534D01*
X178126367Y-126560101D01*
X178088674Y-126571535D01*
X178043339Y-126576000D01*
X176956661Y-126576000D01*
X176911326Y-126571535D01*
X176873633Y-126560101D01*
X176838897Y-126541534D01*
X176808452Y-126516548D01*
X176783466Y-126486103D01*
X176764899Y-126451367D01*
X176753465Y-126413674D01*
X176749000Y-126368339D01*
X176749000Y-125531661D01*
X176753465Y-125486326D01*
X176764899Y-125448633D01*
X176783466Y-125413897D01*
X176808452Y-125383452D01*
X176838897Y-125358466D01*
X176873633Y-125339899D01*
X176911326Y-125328465D01*
X176956661Y-125324000D01*
X178043339Y-125324000D01*
X178088674Y-125328465D01*
G37*
G36*
X181351000Y-126401000D02*
G01*
X180349000Y-126401000D01*
X180349000Y-125099000D01*
X181351000Y-125099000D01*
X181351000Y-126401000D01*
G37*
G36*
X184651000Y-126401000D02*
G01*
X183649000Y-126401000D01*
X183649000Y-125099000D01*
X184651000Y-125099000D01*
X184651000Y-126401000D01*
G37*
G36*
X273107457Y-124959782D02*
G01*
X273210783Y-124991126D01*
X273306009Y-125042026D01*
X273389475Y-125110525D01*
X273457974Y-125193991D01*
X273508874Y-125289217D01*
X273540218Y-125392543D01*
X273550801Y-125499999D01*
X273550801Y-125500001D01*
X273540218Y-125607457D01*
X273508874Y-125710783D01*
X273457974Y-125806009D01*
X273389475Y-125889475D01*
X273306009Y-125957974D01*
X273210783Y-126008874D01*
X273107457Y-126040218D01*
X273000001Y-126050801D01*
X272999999Y-126050801D01*
X272892543Y-126040218D01*
X272789217Y-126008874D01*
X272693991Y-125957974D01*
X272610525Y-125889475D01*
X272542026Y-125806009D01*
X272491126Y-125710783D01*
X272459782Y-125607457D01*
X272449199Y-125500001D01*
X272449199Y-125499999D01*
X272459782Y-125392543D01*
X272491126Y-125289217D01*
X272542026Y-125193991D01*
X272610525Y-125110525D01*
X272693991Y-125042026D01*
X272789217Y-124991126D01*
X272892543Y-124959782D01*
X272999999Y-124949199D01*
X273000001Y-124949199D01*
X273107457Y-124959782D01*
G37*
G36*
X194475562Y-124478181D02*
G01*
X194510481Y-124488774D01*
X194542663Y-124505976D01*
X194570873Y-124529127D01*
X194594024Y-124557337D01*
X194611226Y-124589519D01*
X194621819Y-124624438D01*
X194626000Y-124666895D01*
X194626000Y-125808105D01*
X194621819Y-125850562D01*
X194611226Y-125885481D01*
X194594024Y-125917663D01*
X194570873Y-125945873D01*
X194542663Y-125969024D01*
X194510481Y-125986226D01*
X194475562Y-125996819D01*
X194433105Y-126001000D01*
X192066895Y-126001000D01*
X192024438Y-125996819D01*
X191989519Y-125986226D01*
X191957337Y-125969024D01*
X191929127Y-125945873D01*
X191905976Y-125917663D01*
X191888774Y-125885481D01*
X191878181Y-125850562D01*
X191874000Y-125808105D01*
X191874000Y-124666895D01*
X191878181Y-124624438D01*
X191888774Y-124589519D01*
X191905976Y-124557337D01*
X191929127Y-124529127D01*
X191957337Y-124505976D01*
X191989519Y-124488774D01*
X192024438Y-124478181D01*
X192066895Y-124474000D01*
X194433105Y-124474000D01*
X194475562Y-124478181D01*
G37*
G36*
X197975562Y-124478181D02*
G01*
X198010481Y-124488774D01*
X198042663Y-124505976D01*
X198070873Y-124529127D01*
X198094024Y-124557337D01*
X198111226Y-124589519D01*
X198121819Y-124624438D01*
X198126000Y-124666895D01*
X198126000Y-125808105D01*
X198121819Y-125850562D01*
X198111226Y-125885481D01*
X198094024Y-125917663D01*
X198070873Y-125945873D01*
X198042663Y-125969024D01*
X198010481Y-125986226D01*
X197975562Y-125996819D01*
X197933105Y-126001000D01*
X195566895Y-126001000D01*
X195524438Y-125996819D01*
X195489519Y-125986226D01*
X195457337Y-125969024D01*
X195429127Y-125945873D01*
X195405976Y-125917663D01*
X195388774Y-125885481D01*
X195378181Y-125850562D01*
X195374000Y-125808105D01*
X195374000Y-124666895D01*
X195378181Y-124624438D01*
X195388774Y-124589519D01*
X195405976Y-124557337D01*
X195429127Y-124529127D01*
X195457337Y-124505976D01*
X195489519Y-124488774D01*
X195524438Y-124478181D01*
X195566895Y-124474000D01*
X197933105Y-124474000D01*
X197975562Y-124478181D01*
G37*
G36*
X251725562Y-124478181D02*
G01*
X251760481Y-124488774D01*
X251792663Y-124505976D01*
X251820873Y-124529127D01*
X251844024Y-124557337D01*
X251861226Y-124589519D01*
X251871819Y-124624438D01*
X251876000Y-124666895D01*
X251876000Y-125808105D01*
X251871819Y-125850562D01*
X251861226Y-125885481D01*
X251844024Y-125917663D01*
X251820873Y-125945873D01*
X251792663Y-125969024D01*
X251760481Y-125986226D01*
X251725562Y-125996819D01*
X251683105Y-126001000D01*
X249316895Y-126001000D01*
X249274438Y-125996819D01*
X249239519Y-125986226D01*
X249207337Y-125969024D01*
X249179127Y-125945873D01*
X249155976Y-125917663D01*
X249138774Y-125885481D01*
X249128181Y-125850562D01*
X249124000Y-125808105D01*
X249124000Y-124666895D01*
X249128181Y-124624438D01*
X249138774Y-124589519D01*
X249155976Y-124557337D01*
X249179127Y-124529127D01*
X249207337Y-124505976D01*
X249239519Y-124488774D01*
X249274438Y-124478181D01*
X249316895Y-124474000D01*
X251683105Y-124474000D01*
X251725562Y-124478181D01*
G37*
G36*
X154768500Y-125313500D02*
G01*
X154041500Y-125313500D01*
X154041500Y-122986500D01*
X154768500Y-122986500D01*
X154768500Y-125313500D01*
G37*
G36*
X153498500Y-125313500D02*
G01*
X152771500Y-125313500D01*
X152771500Y-122986500D01*
X153498500Y-122986500D01*
X153498500Y-125313500D01*
G37*
G36*
X150958500Y-125313500D02*
G01*
X150231500Y-125313500D01*
X150231500Y-122986500D01*
X150958500Y-122986500D01*
X150958500Y-125313500D01*
G37*
G36*
X152228500Y-125313500D02*
G01*
X151501500Y-125313500D01*
X151501500Y-122986500D01*
X152228500Y-122986500D01*
X152228500Y-125313500D01*
G37*
G36*
X200338674Y-123653465D02*
G01*
X200376367Y-123664899D01*
X200411103Y-123683466D01*
X200441548Y-123708452D01*
X200466534Y-123738897D01*
X200485101Y-123773633D01*
X200496535Y-123811326D01*
X200501000Y-123856661D01*
X200501000Y-124693339D01*
X200496535Y-124738674D01*
X200485101Y-124776367D01*
X200466534Y-124811103D01*
X200441548Y-124841548D01*
X200411103Y-124866534D01*
X200376367Y-124885101D01*
X200338674Y-124896535D01*
X200293339Y-124901000D01*
X199206661Y-124901000D01*
X199161326Y-124896535D01*
X199123633Y-124885101D01*
X199088897Y-124866534D01*
X199058452Y-124841548D01*
X199033466Y-124811103D01*
X199014899Y-124776367D01*
X199003465Y-124738674D01*
X198999000Y-124693339D01*
X198999000Y-123856661D01*
X199003465Y-123811326D01*
X199014899Y-123773633D01*
X199033466Y-123738897D01*
X199058452Y-123708452D01*
X199088897Y-123683466D01*
X199123633Y-123664899D01*
X199161326Y-123653465D01*
X199206661Y-123649000D01*
X200293339Y-123649000D01*
X200338674Y-123653465D01*
G37*
G36*
X214866900Y-123858400D02*
G01*
X211133100Y-123858400D01*
X211133100Y-121089800D01*
X214866900Y-121089800D01*
X214866900Y-123858400D01*
G37*
G36*
X227167025Y-123809799D02*
G01*
X223433225Y-123809799D01*
X223433225Y-121041199D01*
X227167025Y-121041199D01*
X227167025Y-123809799D01*
G37*
G36*
X197975562Y-121503181D02*
G01*
X198010481Y-121513774D01*
X198042663Y-121530976D01*
X198070873Y-121554127D01*
X198094024Y-121582337D01*
X198111226Y-121614519D01*
X198121819Y-121649438D01*
X198126000Y-121691895D01*
X198126000Y-122833105D01*
X198121819Y-122875562D01*
X198111226Y-122910481D01*
X198094024Y-122942663D01*
X198070873Y-122970873D01*
X198042663Y-122994024D01*
X198010481Y-123011226D01*
X197975562Y-123021819D01*
X197933105Y-123026000D01*
X195566895Y-123026000D01*
X195524438Y-123021819D01*
X195489519Y-123011226D01*
X195457337Y-122994024D01*
X195429127Y-122970873D01*
X195405976Y-122942663D01*
X195388774Y-122910481D01*
X195378181Y-122875562D01*
X195374000Y-122833105D01*
X195374000Y-121691895D01*
X195378181Y-121649438D01*
X195388774Y-121614519D01*
X195405976Y-121582337D01*
X195429127Y-121554127D01*
X195457337Y-121530976D01*
X195489519Y-121513774D01*
X195524438Y-121503181D01*
X195566895Y-121499000D01*
X197933105Y-121499000D01*
X197975562Y-121503181D01*
G37*
G36*
X251725562Y-121503181D02*
G01*
X251760481Y-121513774D01*
X251792663Y-121530976D01*
X251820873Y-121554127D01*
X251844024Y-121582337D01*
X251861226Y-121614519D01*
X251871819Y-121649438D01*
X251876000Y-121691895D01*
X251876000Y-122833105D01*
X251871819Y-122875562D01*
X251861226Y-122910481D01*
X251844024Y-122942663D01*
X251820873Y-122970873D01*
X251792663Y-122994024D01*
X251760481Y-123011226D01*
X251725562Y-123021819D01*
X251683105Y-123026000D01*
X249316895Y-123026000D01*
X249274438Y-123021819D01*
X249239519Y-123011226D01*
X249207337Y-122994024D01*
X249179127Y-122970873D01*
X249155976Y-122942663D01*
X249138774Y-122910481D01*
X249128181Y-122875562D01*
X249124000Y-122833105D01*
X249124000Y-121691895D01*
X249128181Y-121649438D01*
X249138774Y-121614519D01*
X249155976Y-121582337D01*
X249179127Y-121554127D01*
X249207337Y-121530976D01*
X249239519Y-121513774D01*
X249274438Y-121503181D01*
X249316895Y-121499000D01*
X251683105Y-121499000D01*
X251725562Y-121503181D01*
G37*
G36*
X194475562Y-121503181D02*
G01*
X194510481Y-121513774D01*
X194542663Y-121530976D01*
X194570873Y-121554127D01*
X194594024Y-121582337D01*
X194611226Y-121614519D01*
X194621819Y-121649438D01*
X194626000Y-121691895D01*
X194626000Y-122833105D01*
X194621819Y-122875562D01*
X194611226Y-122910481D01*
X194594024Y-122942663D01*
X194570873Y-122970873D01*
X194542663Y-122994024D01*
X194510481Y-123011226D01*
X194475562Y-123021819D01*
X194433105Y-123026000D01*
X192066895Y-123026000D01*
X192024438Y-123021819D01*
X191989519Y-123011226D01*
X191957337Y-122994024D01*
X191929127Y-122970873D01*
X191905976Y-122942663D01*
X191888774Y-122910481D01*
X191878181Y-122875562D01*
X191874000Y-122833105D01*
X191874000Y-121691895D01*
X191878181Y-121649438D01*
X191888774Y-121614519D01*
X191905976Y-121582337D01*
X191929127Y-121554127D01*
X191957337Y-121530976D01*
X191989519Y-121513774D01*
X192024438Y-121503181D01*
X192066895Y-121499000D01*
X194433105Y-121499000D01*
X194475562Y-121503181D01*
G37*
G36*
X200338674Y-121603465D02*
G01*
X200376367Y-121614899D01*
X200411103Y-121633466D01*
X200441548Y-121658452D01*
X200466534Y-121688897D01*
X200485101Y-121723633D01*
X200496535Y-121761326D01*
X200501000Y-121806661D01*
X200501000Y-122643339D01*
X200496535Y-122688674D01*
X200485101Y-122726367D01*
X200466534Y-122761103D01*
X200441548Y-122791548D01*
X200411103Y-122816534D01*
X200376367Y-122835101D01*
X200338674Y-122846535D01*
X200293339Y-122851000D01*
X199206661Y-122851000D01*
X199161326Y-122846535D01*
X199123633Y-122835101D01*
X199088897Y-122816534D01*
X199058452Y-122791548D01*
X199033466Y-122761103D01*
X199014899Y-122726367D01*
X199003465Y-122688674D01*
X198999000Y-122643339D01*
X198999000Y-121806661D01*
X199003465Y-121761326D01*
X199014899Y-121723633D01*
X199033466Y-121688897D01*
X199058452Y-121658452D01*
X199088897Y-121633466D01*
X199123633Y-121614899D01*
X199161326Y-121603465D01*
X199206661Y-121599000D01*
X200293339Y-121599000D01*
X200338674Y-121603465D01*
G37*
M02*
