G04 #@! TF.GenerationSoftware,KiCad,Pcbnew,(5.1.5)-3*
G04 #@! TF.CreationDate,2020-04-11T14:24:40-04:00*
G04 #@! TF.ProjectId,PowerBoth,506f7765-7242-46f7-9468-2e6b69636164,rev?*
G04 #@! TF.SameCoordinates,Original*
G04 #@! TF.FileFunction,Soldermask,Bot*
G04 #@! TF.FilePolarity,Negative*
%FSLAX46Y46*%
G04 Gerber Fmt 4.6, Leading zero omitted, Abs format (unit mm)*
G04 Created by KiCad (PCBNEW (5.1.5)-3) date 2020-04-11 14:24:40*
%MOMM*%
%LPD*%
G04 APERTURE LIST*
%ADD10C,0.100000*%
G04 APERTURE END LIST*
D10*
G36*
X263730191Y-141547499D02*
G01*
X263792728Y-141566470D01*
X263855263Y-141585439D01*
X263855265Y-141585440D01*
X263970527Y-141647049D01*
X264071561Y-141729964D01*
X264154475Y-141830996D01*
X264216084Y-141946258D01*
X264254025Y-142071332D01*
X264263625Y-142168804D01*
X264263625Y-143207766D01*
X264266027Y-143232152D01*
X264273140Y-143255601D01*
X264284691Y-143277212D01*
X264300236Y-143296154D01*
X264319178Y-143311699D01*
X264340789Y-143323250D01*
X264364238Y-143330363D01*
X264388624Y-143332765D01*
X264413010Y-143330363D01*
X264436459Y-143323250D01*
X264458070Y-143311699D01*
X264477012Y-143296154D01*
X264492557Y-143277211D01*
X264567120Y-143165619D01*
X264567122Y-143165616D01*
X264734407Y-142998331D01*
X264931113Y-142866897D01*
X264931115Y-142866896D01*
X265149682Y-142776362D01*
X265381710Y-142730209D01*
X265618290Y-142730209D01*
X265850318Y-142776362D01*
X266068885Y-142866896D01*
X266068887Y-142866897D01*
X266265593Y-142998331D01*
X266432878Y-143165616D01*
X266545381Y-143333990D01*
X266564313Y-143362324D01*
X266654847Y-143580891D01*
X266701000Y-143812919D01*
X266701000Y-144049499D01*
X266654847Y-144281527D01*
X266564313Y-144500094D01*
X266564312Y-144500096D01*
X266432878Y-144696802D01*
X266265593Y-144864087D01*
X266068887Y-144995521D01*
X266068886Y-144995522D01*
X266068885Y-144995522D01*
X265850318Y-145086056D01*
X265618290Y-145132209D01*
X265381710Y-145132209D01*
X265149682Y-145086056D01*
X264931115Y-144995522D01*
X264931114Y-144995522D01*
X264931113Y-144995521D01*
X264734407Y-144864087D01*
X264567122Y-144696802D01*
X264435688Y-144500096D01*
X264435687Y-144500094D01*
X264345153Y-144281527D01*
X264299000Y-144049499D01*
X264299000Y-143845048D01*
X264296598Y-143820662D01*
X264289485Y-143797213D01*
X264277934Y-143775602D01*
X264262389Y-143756660D01*
X264243447Y-143741115D01*
X264221836Y-143729564D01*
X264198387Y-143722451D01*
X264174001Y-143720049D01*
X264149615Y-143722451D01*
X264126166Y-143729564D01*
X264104555Y-143741115D01*
X264077376Y-143765749D01*
X264071562Y-143772834D01*
X263970528Y-143855749D01*
X263855266Y-143917358D01*
X263855264Y-143917359D01*
X263792729Y-143936328D01*
X263730192Y-143955299D01*
X263600125Y-143968109D01*
X263470059Y-143955299D01*
X263407522Y-143936328D01*
X263344987Y-143917359D01*
X263344985Y-143917358D01*
X263229723Y-143855749D01*
X263128690Y-143772835D01*
X263045776Y-143671802D01*
X262984167Y-143556540D01*
X262946226Y-143431466D01*
X262936626Y-143333994D01*
X262936625Y-142168805D01*
X262946225Y-142071333D01*
X262984166Y-141946259D01*
X263045775Y-141830997D01*
X263128690Y-141729963D01*
X263229722Y-141647049D01*
X263344984Y-141585440D01*
X263344986Y-141585439D01*
X263407521Y-141566470D01*
X263470058Y-141547499D01*
X263600125Y-141534689D01*
X263730191Y-141547499D01*
G37*
G36*
X253830191Y-141547499D02*
G01*
X253892728Y-141566470D01*
X253955263Y-141585439D01*
X253955265Y-141585440D01*
X254070527Y-141647049D01*
X254171561Y-141729964D01*
X254254475Y-141830996D01*
X254316084Y-141946258D01*
X254354025Y-142071332D01*
X254363625Y-142168804D01*
X254363625Y-143333994D01*
X254354025Y-143431466D01*
X254316084Y-143556540D01*
X254254475Y-143671802D01*
X254171561Y-143772835D01*
X254070528Y-143855749D01*
X253955266Y-143917358D01*
X253955264Y-143917359D01*
X253892729Y-143936328D01*
X253830192Y-143955299D01*
X253700125Y-143968109D01*
X253570059Y-143955299D01*
X253507522Y-143936328D01*
X253444987Y-143917359D01*
X253444985Y-143917358D01*
X253329723Y-143855749D01*
X253228690Y-143772835D01*
X253145776Y-143671802D01*
X253084167Y-143556540D01*
X253046226Y-143431466D01*
X253036626Y-143333994D01*
X253036625Y-142168805D01*
X253046225Y-142071333D01*
X253084166Y-141946259D01*
X253145775Y-141830997D01*
X253228690Y-141729963D01*
X253329722Y-141647049D01*
X253444984Y-141585440D01*
X253444986Y-141585439D01*
X253507521Y-141566470D01*
X253570058Y-141547499D01*
X253700125Y-141534689D01*
X253830191Y-141547499D01*
G37*
G36*
X156923060Y-143158501D02*
G01*
X155676060Y-143158501D01*
X155676060Y-141201501D01*
X156923060Y-141201501D01*
X156923060Y-143158501D01*
G37*
G36*
X154923060Y-143158501D02*
G01*
X153676060Y-143158501D01*
X153676060Y-141201501D01*
X154923060Y-141201501D01*
X154923060Y-143158501D01*
G37*
G36*
X152923060Y-143158501D02*
G01*
X151676060Y-143158501D01*
X151676060Y-141201501D01*
X152923060Y-141201501D01*
X152923060Y-143158501D01*
G37*
G36*
X150923060Y-143158501D02*
G01*
X149676060Y-143158501D01*
X149676060Y-141201501D01*
X150923060Y-141201501D01*
X150923060Y-143158501D01*
G37*
G36*
X148923060Y-143158501D02*
G01*
X147676060Y-143158501D01*
X147676060Y-141201501D01*
X148923060Y-141201501D01*
X148923060Y-143158501D01*
G37*
G36*
X158923060Y-143158501D02*
G01*
X157676060Y-143158501D01*
X157676060Y-141201501D01*
X158923060Y-141201501D01*
X158923060Y-143158501D01*
G37*
G36*
X160923060Y-143158501D02*
G01*
X159676060Y-143158501D01*
X159676060Y-141201501D01*
X160923060Y-141201501D01*
X160923060Y-143158501D01*
G37*
G36*
X162923060Y-143158501D02*
G01*
X161676060Y-143158501D01*
X161676060Y-141201501D01*
X162923060Y-141201501D01*
X162923060Y-143158501D01*
G37*
G36*
X166923060Y-143158501D02*
G01*
X165676060Y-143158501D01*
X165676060Y-141201501D01*
X166923060Y-141201501D01*
X166923060Y-143158501D01*
G37*
G36*
X164923060Y-143158501D02*
G01*
X163676060Y-143158501D01*
X163676060Y-141201501D01*
X164923060Y-141201501D01*
X164923060Y-143158501D01*
G37*
G36*
X257779612Y-140500395D02*
G01*
X257990145Y-140587601D01*
X258016380Y-140598468D01*
X258229464Y-140740846D01*
X258410678Y-140922060D01*
X258553057Y-141135146D01*
X258651129Y-141371912D01*
X258701125Y-141623260D01*
X258701125Y-141879538D01*
X258651129Y-142130886D01*
X258553057Y-142367652D01*
X258553056Y-142367654D01*
X258410678Y-142580738D01*
X258229464Y-142761952D01*
X258016380Y-142904330D01*
X258016379Y-142904331D01*
X258016378Y-142904331D01*
X257779612Y-143002403D01*
X257528264Y-143052399D01*
X257271986Y-143052399D01*
X257020638Y-143002403D01*
X256783872Y-142904331D01*
X256783871Y-142904331D01*
X256783870Y-142904330D01*
X256570786Y-142761952D01*
X256389572Y-142580738D01*
X256247194Y-142367654D01*
X256247193Y-142367652D01*
X256149121Y-142130886D01*
X256099125Y-141879538D01*
X256099125Y-141623260D01*
X256149121Y-141371912D01*
X256247193Y-141135146D01*
X256389572Y-140922060D01*
X256570786Y-140740846D01*
X256783870Y-140598468D01*
X256810105Y-140587601D01*
X257020638Y-140500395D01*
X257271986Y-140450399D01*
X257528264Y-140450399D01*
X257779612Y-140500395D01*
G37*
G36*
X265953055Y-140534072D02*
G01*
X266031507Y-140541799D01*
X266132166Y-140572334D01*
X266182497Y-140587601D01*
X266321649Y-140661980D01*
X266443617Y-140762076D01*
X266543713Y-140884044D01*
X266618092Y-141023196D01*
X266618092Y-141023197D01*
X266663894Y-141174186D01*
X266679359Y-141331209D01*
X266663894Y-141488232D01*
X266645915Y-141547500D01*
X266618092Y-141639222D01*
X266543713Y-141778374D01*
X266443617Y-141900342D01*
X266321649Y-142000438D01*
X266182497Y-142074817D01*
X266132166Y-142090084D01*
X266031507Y-142120619D01*
X265953055Y-142128346D01*
X265913830Y-142132209D01*
X265310654Y-142132209D01*
X265271429Y-142128346D01*
X265192977Y-142120619D01*
X265092318Y-142090084D01*
X265041987Y-142074817D01*
X264902835Y-142000438D01*
X264780867Y-141900342D01*
X264680771Y-141778374D01*
X264606392Y-141639222D01*
X264578569Y-141547500D01*
X264560590Y-141488232D01*
X264545125Y-141331209D01*
X264560590Y-141174186D01*
X264606392Y-141023197D01*
X264606392Y-141023196D01*
X264680771Y-140884044D01*
X264780867Y-140762076D01*
X264902835Y-140661980D01*
X265041987Y-140587601D01*
X265092318Y-140572334D01*
X265192977Y-140541799D01*
X265271429Y-140534072D01*
X265310654Y-140530209D01*
X265913830Y-140530209D01*
X265953055Y-140534072D01*
G37*
G36*
X188413060Y-142051431D02*
G01*
X185786060Y-142051431D01*
X185786060Y-138074431D01*
X188413060Y-138074431D01*
X188413060Y-142051431D01*
G37*
G36*
X185413060Y-142051431D02*
G01*
X182786060Y-142051431D01*
X182786060Y-138074431D01*
X185413060Y-138074431D01*
X185413060Y-142051431D01*
G37*
G36*
X268499915Y-141382209D02*
G01*
X267172915Y-141382209D01*
X267172915Y-140055209D01*
X268499915Y-140055209D01*
X268499915Y-141382209D01*
G37*
G36*
X165444234Y-139543060D02*
G01*
X165472382Y-139554720D01*
X165534504Y-139580451D01*
X165534507Y-139580453D01*
X165615739Y-139634730D01*
X165684831Y-139703822D01*
X165739108Y-139785054D01*
X165739110Y-139785057D01*
X165764841Y-139847179D01*
X165776501Y-139875327D01*
X165795560Y-139971147D01*
X165795560Y-140068855D01*
X165776501Y-140164675D01*
X165776499Y-140164679D01*
X165739110Y-140254945D01*
X165739108Y-140254948D01*
X165684831Y-140336180D01*
X165615739Y-140405272D01*
X165548201Y-140450399D01*
X165534504Y-140459551D01*
X165472382Y-140485282D01*
X165444234Y-140496942D01*
X165348414Y-140516001D01*
X165250706Y-140516001D01*
X165154886Y-140496942D01*
X165126738Y-140485282D01*
X165064616Y-140459551D01*
X165050919Y-140450399D01*
X164983381Y-140405272D01*
X164914289Y-140336180D01*
X164860012Y-140254948D01*
X164860010Y-140254945D01*
X164822621Y-140164679D01*
X164822619Y-140164675D01*
X164803560Y-140068855D01*
X164803560Y-139971147D01*
X164822619Y-139875327D01*
X164834279Y-139847179D01*
X164860010Y-139785057D01*
X164860012Y-139785054D01*
X164914289Y-139703822D01*
X164983381Y-139634730D01*
X165064613Y-139580453D01*
X165064616Y-139580451D01*
X165126738Y-139554720D01*
X165154886Y-139543060D01*
X165250706Y-139524001D01*
X165348414Y-139524001D01*
X165444234Y-139543060D01*
G37*
G36*
X149444234Y-139543060D02*
G01*
X149472382Y-139554720D01*
X149534504Y-139580451D01*
X149534507Y-139580453D01*
X149615739Y-139634730D01*
X149684831Y-139703822D01*
X149739108Y-139785054D01*
X149739110Y-139785057D01*
X149764841Y-139847179D01*
X149776501Y-139875327D01*
X149795560Y-139971147D01*
X149795560Y-140068855D01*
X149776501Y-140164675D01*
X149776499Y-140164679D01*
X149739110Y-140254945D01*
X149739108Y-140254948D01*
X149684831Y-140336180D01*
X149615739Y-140405272D01*
X149548201Y-140450399D01*
X149534504Y-140459551D01*
X149472382Y-140485282D01*
X149444234Y-140496942D01*
X149348414Y-140516001D01*
X149250706Y-140516001D01*
X149154886Y-140496942D01*
X149126738Y-140485282D01*
X149064616Y-140459551D01*
X149050919Y-140450399D01*
X148983381Y-140405272D01*
X148914289Y-140336180D01*
X148860012Y-140254948D01*
X148860010Y-140254945D01*
X148822621Y-140164679D01*
X148822619Y-140164675D01*
X148803560Y-140068855D01*
X148803560Y-139971147D01*
X148822619Y-139875327D01*
X148834279Y-139847179D01*
X148860010Y-139785057D01*
X148860012Y-139785054D01*
X148914289Y-139703822D01*
X148983381Y-139634730D01*
X149064613Y-139580453D01*
X149064616Y-139580451D01*
X149126738Y-139554720D01*
X149154886Y-139543060D01*
X149250706Y-139524001D01*
X149348414Y-139524001D01*
X149444234Y-139543060D01*
G37*
G36*
X267965857Y-138067958D02*
G01*
X268029951Y-138080707D01*
X268150700Y-138130723D01*
X268259371Y-138203335D01*
X268351789Y-138295753D01*
X268424401Y-138404424D01*
X268474417Y-138525173D01*
X268499915Y-138653360D01*
X268499915Y-138784058D01*
X268474417Y-138912245D01*
X268424401Y-139032994D01*
X268351789Y-139141665D01*
X268259371Y-139234083D01*
X268150700Y-139306695D01*
X268029951Y-139356711D01*
X267965857Y-139369460D01*
X267901765Y-139382209D01*
X267771065Y-139382209D01*
X267706973Y-139369460D01*
X267642879Y-139356711D01*
X267522130Y-139306695D01*
X267413459Y-139234083D01*
X267321041Y-139141665D01*
X267248429Y-139032994D01*
X267198413Y-138912245D01*
X267172915Y-138784058D01*
X267172915Y-138653360D01*
X267198413Y-138525173D01*
X267248429Y-138404424D01*
X267321041Y-138295753D01*
X267413459Y-138203335D01*
X267522130Y-138130723D01*
X267642879Y-138080707D01*
X267706973Y-138067958D01*
X267771065Y-138055209D01*
X267901765Y-138055209D01*
X267965857Y-138067958D01*
G37*
G36*
X164923060Y-138838501D02*
G01*
X163676060Y-138838501D01*
X163676060Y-136881501D01*
X164923060Y-136881501D01*
X164923060Y-138838501D01*
G37*
G36*
X148923060Y-138838501D02*
G01*
X147676060Y-138838501D01*
X147676060Y-136881501D01*
X148923060Y-136881501D01*
X148923060Y-138838501D01*
G37*
G36*
X162923060Y-138838501D02*
G01*
X161676060Y-138838501D01*
X161676060Y-136881501D01*
X162923060Y-136881501D01*
X162923060Y-138838501D01*
G37*
G36*
X160923060Y-138838501D02*
G01*
X159676060Y-138838501D01*
X159676060Y-136881501D01*
X160923060Y-136881501D01*
X160923060Y-138838501D01*
G37*
G36*
X158923060Y-138838501D02*
G01*
X157676060Y-138838501D01*
X157676060Y-136881501D01*
X158923060Y-136881501D01*
X158923060Y-138838501D01*
G37*
G36*
X156923060Y-138838501D02*
G01*
X155676060Y-138838501D01*
X155676060Y-136881501D01*
X156923060Y-136881501D01*
X156923060Y-138838501D01*
G37*
G36*
X154923060Y-138838501D02*
G01*
X153676060Y-138838501D01*
X153676060Y-136881501D01*
X154923060Y-136881501D01*
X154923060Y-138838501D01*
G37*
G36*
X152923060Y-138838501D02*
G01*
X151676060Y-138838501D01*
X151676060Y-136881501D01*
X152923060Y-136881501D01*
X152923060Y-138838501D01*
G37*
G36*
X150923060Y-138838501D02*
G01*
X149676060Y-138838501D01*
X149676060Y-136881501D01*
X150923060Y-136881501D01*
X150923060Y-138838501D01*
G37*
G36*
X166923060Y-138838501D02*
G01*
X165676060Y-138838501D01*
X165676060Y-136881501D01*
X166923060Y-136881501D01*
X166923060Y-138838501D01*
G37*
G36*
X267965857Y-136067958D02*
G01*
X268029951Y-136080707D01*
X268150700Y-136130723D01*
X268259371Y-136203335D01*
X268351789Y-136295753D01*
X268424401Y-136404424D01*
X268474417Y-136525173D01*
X268499915Y-136653360D01*
X268499915Y-136784058D01*
X268474417Y-136912245D01*
X268424401Y-137032994D01*
X268351789Y-137141665D01*
X268259371Y-137234083D01*
X268150700Y-137306695D01*
X268029951Y-137356711D01*
X267965857Y-137369460D01*
X267901765Y-137382209D01*
X267771065Y-137382209D01*
X267706973Y-137369460D01*
X267642879Y-137356711D01*
X267522130Y-137306695D01*
X267413459Y-137234083D01*
X267321041Y-137141665D01*
X267248429Y-137032994D01*
X267198413Y-136912245D01*
X267172915Y-136784058D01*
X267172915Y-136653360D01*
X267198413Y-136525173D01*
X267248429Y-136404424D01*
X267321041Y-136295753D01*
X267413459Y-136203335D01*
X267522130Y-136130723D01*
X267642879Y-136080707D01*
X267706973Y-136067958D01*
X267771065Y-136055209D01*
X267901765Y-136055209D01*
X267965857Y-136067958D01*
G37*
G36*
X262845300Y-134248262D02*
G01*
X262859599Y-134249670D01*
X262936271Y-134272929D01*
X263012943Y-134296187D01*
X263154267Y-134371726D01*
X263278140Y-134473384D01*
X263379798Y-134597256D01*
X263455337Y-134738580D01*
X263501854Y-134891925D01*
X263513625Y-135011437D01*
X263513625Y-135891361D01*
X263501854Y-136010873D01*
X263455337Y-136164218D01*
X263379798Y-136305542D01*
X263278140Y-136429414D01*
X263154268Y-136531072D01*
X263012944Y-136606611D01*
X262936271Y-136629870D01*
X262859600Y-136653128D01*
X262845301Y-136654536D01*
X262700125Y-136668835D01*
X262542997Y-136653359D01*
X262540651Y-136653128D01*
X262463980Y-136629870D01*
X262387307Y-136606611D01*
X262245983Y-136531072D01*
X262122111Y-136429414D01*
X262020453Y-136305542D01*
X261944914Y-136164218D01*
X261898397Y-136010873D01*
X261886625Y-135891361D01*
X261886625Y-135011438D01*
X261898396Y-134891926D01*
X261898397Y-134891924D01*
X261944913Y-134738582D01*
X261944913Y-134738581D01*
X262020452Y-134597257D01*
X262122110Y-134473384D01*
X262245982Y-134371726D01*
X262387306Y-134296187D01*
X262463978Y-134272929D01*
X262540650Y-134249670D01*
X262554949Y-134248262D01*
X262700125Y-134233963D01*
X262845300Y-134248262D01*
G37*
G36*
X257645300Y-134248262D02*
G01*
X257659599Y-134249670D01*
X257736271Y-134272929D01*
X257812943Y-134296187D01*
X257954267Y-134371726D01*
X258078140Y-134473384D01*
X258179798Y-134597256D01*
X258255337Y-134738580D01*
X258301854Y-134891925D01*
X258313625Y-135011437D01*
X258313625Y-135891361D01*
X258301854Y-136010873D01*
X258255337Y-136164218D01*
X258179798Y-136305542D01*
X258078140Y-136429414D01*
X257954268Y-136531072D01*
X257812944Y-136606611D01*
X257736271Y-136629870D01*
X257659600Y-136653128D01*
X257645301Y-136654536D01*
X257500125Y-136668835D01*
X257342997Y-136653359D01*
X257340651Y-136653128D01*
X257263980Y-136629870D01*
X257187307Y-136606611D01*
X257045983Y-136531072D01*
X256922111Y-136429414D01*
X256820453Y-136305542D01*
X256744914Y-136164218D01*
X256698397Y-136010873D01*
X256686625Y-135891361D01*
X256686625Y-135011438D01*
X256698396Y-134891926D01*
X256698397Y-134891924D01*
X256744913Y-134738582D01*
X256744913Y-134738581D01*
X256820452Y-134597257D01*
X256922110Y-134473384D01*
X257045982Y-134371726D01*
X257187306Y-134296187D01*
X257263978Y-134272929D01*
X257340650Y-134249670D01*
X257354949Y-134248262D01*
X257500125Y-134233963D01*
X257645300Y-134248262D01*
G37*
G36*
X254245300Y-134248262D02*
G01*
X254259599Y-134249670D01*
X254336271Y-134272929D01*
X254412943Y-134296187D01*
X254554267Y-134371726D01*
X254678140Y-134473384D01*
X254779798Y-134597256D01*
X254855337Y-134738580D01*
X254901854Y-134891925D01*
X254913625Y-135011437D01*
X254913625Y-135891361D01*
X254901854Y-136010873D01*
X254855337Y-136164218D01*
X254779798Y-136305542D01*
X254678140Y-136429414D01*
X254554268Y-136531072D01*
X254412944Y-136606611D01*
X254336271Y-136629870D01*
X254259600Y-136653128D01*
X254245301Y-136654536D01*
X254100125Y-136668835D01*
X253942997Y-136653359D01*
X253940651Y-136653128D01*
X253863980Y-136629870D01*
X253787307Y-136606611D01*
X253645983Y-136531072D01*
X253522111Y-136429414D01*
X253420453Y-136305542D01*
X253344914Y-136164218D01*
X253298397Y-136010873D01*
X253286625Y-135891361D01*
X253286625Y-135011438D01*
X253298396Y-134891926D01*
X253298397Y-134891924D01*
X253344913Y-134738582D01*
X253344913Y-134738581D01*
X253420452Y-134597257D01*
X253522110Y-134473384D01*
X253645982Y-134371726D01*
X253787306Y-134296187D01*
X253863978Y-134272929D01*
X253940650Y-134249670D01*
X253954949Y-134248262D01*
X254100125Y-134233963D01*
X254245300Y-134248262D01*
G37*
G36*
X170564560Y-135873431D02*
G01*
X168634560Y-135873431D01*
X168634560Y-134146431D01*
X170564560Y-134146431D01*
X170564560Y-135873431D01*
G37*
G36*
X173564560Y-135873431D02*
G01*
X171634560Y-135873431D01*
X171634560Y-134146431D01*
X173564560Y-134146431D01*
X173564560Y-135873431D01*
G37*
G36*
X136733642Y-134032043D02*
G01*
X136879414Y-134092424D01*
X136879416Y-134092425D01*
X137010608Y-134180084D01*
X137122178Y-134291654D01*
X137175680Y-134371726D01*
X137209838Y-134422848D01*
X137270219Y-134568620D01*
X137301000Y-134723369D01*
X137301000Y-134881155D01*
X137270219Y-135035904D01*
X137226411Y-135141665D01*
X137209837Y-135181678D01*
X137122178Y-135312870D01*
X137010608Y-135424440D01*
X136879416Y-135512099D01*
X136879415Y-135512100D01*
X136879414Y-135512100D01*
X136733642Y-135572481D01*
X136578893Y-135603262D01*
X136421107Y-135603262D01*
X136266358Y-135572481D01*
X136120586Y-135512100D01*
X136120585Y-135512100D01*
X136120584Y-135512099D01*
X135989392Y-135424440D01*
X135877822Y-135312870D01*
X135790163Y-135181678D01*
X135773589Y-135141665D01*
X135729781Y-135035904D01*
X135699000Y-134881155D01*
X135699000Y-134723369D01*
X135729781Y-134568620D01*
X135790162Y-134422848D01*
X135824320Y-134371726D01*
X135877822Y-134291654D01*
X135989392Y-134180084D01*
X136120584Y-134092425D01*
X136120586Y-134092424D01*
X136266358Y-134032043D01*
X136421107Y-134001262D01*
X136578893Y-134001262D01*
X136733642Y-134032043D01*
G37*
G36*
X268029951Y-134080707D02*
G01*
X268150700Y-134130723D01*
X268259371Y-134203335D01*
X268351789Y-134295753D01*
X268424402Y-134404426D01*
X268439051Y-134439792D01*
X268474417Y-134525173D01*
X268499915Y-134653360D01*
X268499915Y-134784058D01*
X268474417Y-134912245D01*
X268424401Y-135032994D01*
X268351789Y-135141665D01*
X268259371Y-135234083D01*
X268150700Y-135306695D01*
X268150699Y-135306696D01*
X268150698Y-135306696D01*
X268115332Y-135321345D01*
X268029951Y-135356711D01*
X267901765Y-135382209D01*
X267771065Y-135382209D01*
X267642879Y-135356711D01*
X267557498Y-135321345D01*
X267522132Y-135306696D01*
X267522131Y-135306696D01*
X267522130Y-135306695D01*
X267413459Y-135234083D01*
X267321041Y-135141665D01*
X267248429Y-135032994D01*
X267198413Y-134912245D01*
X267172915Y-134784058D01*
X267172915Y-134653360D01*
X267198413Y-134525173D01*
X267233779Y-134439792D01*
X267248428Y-134404426D01*
X267321041Y-134295753D01*
X267413459Y-134203335D01*
X267522130Y-134130723D01*
X267642879Y-134080707D01*
X267771065Y-134055209D01*
X267901765Y-134055209D01*
X268029951Y-134080707D01*
G37*
G36*
X166913060Y-134651431D02*
G01*
X165286060Y-134651431D01*
X165286060Y-133224431D01*
X166913060Y-133224431D01*
X166913060Y-134651431D01*
G37*
G36*
X147962180Y-134250032D02*
G01*
X146235180Y-134250032D01*
X146235180Y-132323032D01*
X147962180Y-132323032D01*
X147962180Y-134250032D01*
G37*
G36*
X150762180Y-134250032D02*
G01*
X149035180Y-134250032D01*
X149035180Y-132323032D01*
X150762180Y-132323032D01*
X150762180Y-134250032D01*
G37*
G36*
X155213060Y-133851431D02*
G01*
X153986060Y-133851431D01*
X153986060Y-132324431D01*
X155213060Y-132324431D01*
X155213060Y-133851431D01*
G37*
G36*
X157213060Y-133851431D02*
G01*
X155986060Y-133851431D01*
X155986060Y-132324431D01*
X157213060Y-132324431D01*
X157213060Y-133851431D01*
G37*
G36*
X267965857Y-132067958D02*
G01*
X268029951Y-132080707D01*
X268150700Y-132130723D01*
X268259371Y-132203335D01*
X268351789Y-132295753D01*
X268424401Y-132404424D01*
X268474417Y-132525173D01*
X268499915Y-132653360D01*
X268499915Y-132784058D01*
X268474417Y-132912245D01*
X268424401Y-133032994D01*
X268351789Y-133141665D01*
X268259371Y-133234083D01*
X268150700Y-133306695D01*
X268029951Y-133356711D01*
X267965857Y-133369460D01*
X267901765Y-133382209D01*
X267771065Y-133382209D01*
X267706973Y-133369460D01*
X267642879Y-133356711D01*
X267522130Y-133306695D01*
X267413459Y-133234083D01*
X267321041Y-133141665D01*
X267248429Y-133032994D01*
X267198413Y-132912245D01*
X267172915Y-132784058D01*
X267172915Y-132653360D01*
X267198413Y-132525173D01*
X267248429Y-132404424D01*
X267321041Y-132295753D01*
X267413459Y-132203335D01*
X267522130Y-132130723D01*
X267642879Y-132080707D01*
X267706973Y-132067958D01*
X267771065Y-132055209D01*
X267901765Y-132055209D01*
X267965857Y-132067958D01*
G37*
G36*
X136850318Y-130827415D02*
G01*
X137068885Y-130917949D01*
X137068887Y-130917950D01*
X137265593Y-131049384D01*
X137432878Y-131216669D01*
X137564312Y-131413375D01*
X137564313Y-131413377D01*
X137654847Y-131631944D01*
X137701000Y-131863972D01*
X137701000Y-132100552D01*
X137654847Y-132332580D01*
X137625088Y-132404424D01*
X137564312Y-132551149D01*
X137432878Y-132747855D01*
X137265593Y-132915140D01*
X137068887Y-133046574D01*
X137068886Y-133046575D01*
X137068885Y-133046575D01*
X136850318Y-133137109D01*
X136618290Y-133183262D01*
X136381710Y-133183262D01*
X136149682Y-133137109D01*
X135931115Y-133046575D01*
X135931114Y-133046575D01*
X135931113Y-133046574D01*
X135734407Y-132915140D01*
X135567122Y-132747855D01*
X135435688Y-132551149D01*
X135374912Y-132404424D01*
X135345153Y-132332580D01*
X135299000Y-132100552D01*
X135299000Y-131863972D01*
X135345153Y-131631944D01*
X135435687Y-131413377D01*
X135435688Y-131413375D01*
X135567122Y-131216669D01*
X135734407Y-131049384D01*
X135931113Y-130917950D01*
X135931115Y-130917949D01*
X136149682Y-130827415D01*
X136381710Y-130781262D01*
X136618290Y-130781262D01*
X136850318Y-130827415D01*
G37*
G36*
X170564560Y-133029431D02*
G01*
X168634560Y-133029431D01*
X168634560Y-131302431D01*
X170564560Y-131302431D01*
X170564560Y-133029431D01*
G37*
G36*
X173564560Y-133029431D02*
G01*
X171634560Y-133029431D01*
X171634560Y-131302431D01*
X173564560Y-131302431D01*
X173564560Y-133029431D01*
G37*
G36*
X166913060Y-132951431D02*
G01*
X165286060Y-132951431D01*
X165286060Y-131524431D01*
X166913060Y-131524431D01*
X166913060Y-132951431D01*
G37*
G36*
X188413060Y-132101431D02*
G01*
X185786060Y-132101431D01*
X185786060Y-128124431D01*
X188413060Y-128124431D01*
X188413060Y-132101431D01*
G37*
G36*
X185413060Y-132101431D02*
G01*
X182786060Y-132101431D01*
X182786060Y-128124431D01*
X185413060Y-128124431D01*
X185413060Y-132101431D01*
G37*
G36*
X227167025Y-131861599D02*
G01*
X223433225Y-131861599D01*
X223433225Y-129092999D01*
X227167025Y-129092999D01*
X227167025Y-131861599D01*
G37*
G36*
X163378560Y-131728731D02*
G01*
X160820560Y-131728731D01*
X160820560Y-130073831D01*
X163378560Y-130073831D01*
X163378560Y-131728731D01*
G37*
G36*
X218763625Y-131714899D02*
G01*
X216836625Y-131714899D01*
X216836625Y-129987899D01*
X218763625Y-129987899D01*
X218763625Y-131714899D01*
G37*
G36*
X209788500Y-131658500D02*
G01*
X208011500Y-131658500D01*
X208011500Y-128961500D01*
X209788500Y-128961500D01*
X209788500Y-131658500D01*
G37*
G36*
X157363060Y-130401431D02*
G01*
X155936060Y-130401431D01*
X155936060Y-128774431D01*
X157363060Y-128774431D01*
X157363060Y-130401431D01*
G37*
G36*
X155663060Y-130401431D02*
G01*
X154236060Y-130401431D01*
X154236060Y-128774431D01*
X155663060Y-128774431D01*
X155663060Y-130401431D01*
G37*
G36*
X195462180Y-130050032D02*
G01*
X192335180Y-130050032D01*
X192335180Y-128323032D01*
X195462180Y-128323032D01*
X195462180Y-130050032D01*
G37*
G36*
X199862180Y-130050032D02*
G01*
X196735180Y-130050032D01*
X196735180Y-128323032D01*
X199862180Y-128323032D01*
X199862180Y-130050032D01*
G37*
G36*
X265896188Y-124027373D02*
G01*
X265896191Y-124027374D01*
X265896190Y-124027374D01*
X266424138Y-124246057D01*
X266899279Y-124563536D01*
X267303353Y-124967610D01*
X267619996Y-125441500D01*
X267620833Y-125442753D01*
X267839516Y-125970701D01*
X267950999Y-126531165D01*
X267950999Y-127102615D01*
X267839516Y-127663079D01*
X267839515Y-127663081D01*
X267620832Y-128191029D01*
X267303353Y-128666170D01*
X266899279Y-129070244D01*
X266424138Y-129387723D01*
X266424137Y-129387724D01*
X266424136Y-129387724D01*
X265896188Y-129606407D01*
X265335724Y-129717890D01*
X264764274Y-129717890D01*
X264203810Y-129606407D01*
X263675862Y-129387724D01*
X263675861Y-129387724D01*
X263675860Y-129387723D01*
X263200719Y-129070244D01*
X262796645Y-128666170D01*
X262479166Y-128191029D01*
X262260483Y-127663081D01*
X262260482Y-127663079D01*
X262148999Y-127102615D01*
X262148999Y-126531165D01*
X262260482Y-125970701D01*
X262479165Y-125442753D01*
X262480002Y-125441500D01*
X262796645Y-124967610D01*
X263200719Y-124563536D01*
X263675860Y-124246057D01*
X264203808Y-124027374D01*
X264203807Y-124027374D01*
X264203810Y-124027373D01*
X264764274Y-123915890D01*
X265335724Y-123915890D01*
X265896188Y-124027373D01*
G37*
G36*
X214599750Y-129714899D02*
G01*
X213872750Y-129714899D01*
X213872750Y-127387899D01*
X214599750Y-127387899D01*
X214599750Y-129714899D01*
G37*
G36*
X212059750Y-129714899D02*
G01*
X211332750Y-129714899D01*
X211332750Y-127387899D01*
X212059750Y-127387899D01*
X212059750Y-129714899D01*
G37*
G36*
X213329750Y-129714899D02*
G01*
X212602750Y-129714899D01*
X212602750Y-127387899D01*
X213329750Y-127387899D01*
X213329750Y-129714899D01*
G37*
G36*
X215869750Y-129714899D02*
G01*
X215142750Y-129714899D01*
X215142750Y-127387899D01*
X215869750Y-127387899D01*
X215869750Y-129714899D01*
G37*
G36*
X218763625Y-128914899D02*
G01*
X216836625Y-128914899D01*
X216836625Y-127187899D01*
X218763625Y-127187899D01*
X218763625Y-128914899D01*
G37*
G36*
X209788500Y-128138500D02*
G01*
X208011500Y-128138500D01*
X208011500Y-125441500D01*
X209788500Y-125441500D01*
X209788500Y-128138500D01*
G37*
G36*
X163378560Y-127102031D02*
G01*
X160820560Y-127102031D01*
X160820560Y-125447131D01*
X163378560Y-125447131D01*
X163378560Y-127102031D01*
G37*
G36*
X167563060Y-126351431D02*
G01*
X165636060Y-126351431D01*
X165636060Y-124624431D01*
X167563060Y-124624431D01*
X167563060Y-126351431D01*
G37*
G36*
X170863060Y-126101431D02*
G01*
X169336060Y-126101431D01*
X169336060Y-124874431D01*
X170863060Y-124874431D01*
X170863060Y-126101431D01*
G37*
G36*
X251913500Y-126013500D02*
G01*
X249086500Y-126013500D01*
X249086500Y-124286500D01*
X251913500Y-124286500D01*
X251913500Y-126013500D01*
G37*
G36*
X199862180Y-124550032D02*
G01*
X196735180Y-124550032D01*
X196735180Y-122823032D01*
X199862180Y-122823032D01*
X199862180Y-124550032D01*
G37*
G36*
X195462180Y-124550032D02*
G01*
X192335180Y-124550032D01*
X192335180Y-122823032D01*
X195462180Y-122823032D01*
X195462180Y-124550032D01*
G37*
G36*
X212059750Y-124514899D02*
G01*
X211332750Y-124514899D01*
X211332750Y-122187899D01*
X212059750Y-122187899D01*
X212059750Y-124514899D01*
G37*
G36*
X214599750Y-124514899D02*
G01*
X213872750Y-124514899D01*
X213872750Y-122187899D01*
X214599750Y-122187899D01*
X214599750Y-124514899D01*
G37*
G36*
X215869750Y-124514899D02*
G01*
X215142750Y-124514899D01*
X215142750Y-122187899D01*
X215869750Y-122187899D01*
X215869750Y-124514899D01*
G37*
G36*
X213329750Y-124514899D02*
G01*
X212602750Y-124514899D01*
X212602750Y-122187899D01*
X213329750Y-122187899D01*
X213329750Y-124514899D01*
G37*
G36*
X170863060Y-124101431D02*
G01*
X169336060Y-124101431D01*
X169336060Y-122874431D01*
X170863060Y-122874431D01*
X170863060Y-124101431D01*
G37*
G36*
X161213060Y-123851431D02*
G01*
X159986060Y-123851431D01*
X159986060Y-122324431D01*
X161213060Y-122324431D01*
X161213060Y-123851431D01*
G37*
G36*
X159213060Y-123851431D02*
G01*
X157986060Y-123851431D01*
X157986060Y-122324431D01*
X159213060Y-122324431D01*
X159213060Y-123851431D01*
G37*
G36*
X227167025Y-123809799D02*
G01*
X223433225Y-123809799D01*
X223433225Y-121041199D01*
X227167025Y-121041199D01*
X227167025Y-123809799D01*
G37*
G36*
X167563060Y-123551431D02*
G01*
X165636060Y-123551431D01*
X165636060Y-121824431D01*
X167563060Y-121824431D01*
X167563060Y-123551431D01*
G37*
G36*
X251913500Y-123213500D02*
G01*
X249086500Y-123213500D01*
X249086500Y-121486500D01*
X251913500Y-121486500D01*
X251913500Y-123213500D01*
G37*
M02*
