G04 #@! TF.GenerationSoftware,KiCad,Pcbnew,(5.1.5)-3*
G04 #@! TF.CreationDate,2020-04-11T14:24:40-04:00*
G04 #@! TF.ProjectId,PowerBoth,506f7765-7242-46f7-9468-2e6b69636164,rev?*
G04 #@! TF.SameCoordinates,Original*
G04 #@! TF.FileFunction,Paste,Bot*
G04 #@! TF.FilePolarity,Positive*
%FSLAX46Y46*%
G04 Gerber Fmt 4.6, Leading zero omitted, Abs format (unit mm)*
G04 Created by KiCad (PCBNEW (5.1.5)-3) date 2020-04-11 14:24:40*
%MOMM*%
%LPD*%
G04 APERTURE LIST*
%ADD10R,3.606800X2.641600*%
%ADD11R,2.700000X1.600000*%
%ADD12R,1.800000X1.600000*%
%ADD13R,0.600000X2.200000*%
%ADD14R,1.650000X2.570000*%
%ADD15R,0.481000X1.527900*%
%ADD16R,2.500000X3.850000*%
%ADD17R,1.300000X1.500000*%
%ADD18R,1.500000X1.300000*%
%ADD19R,1.803000X1.600000*%
%ADD20R,1.600000X1.800000*%
%ADD21R,1.100000X1.400000*%
%ADD22R,1.400000X1.100000*%
%ADD23R,3.000000X1.600000*%
%ADD24R,1.120000X1.830000*%
G04 APERTURE END LIST*
D10*
X225300125Y-130477299D03*
X225300125Y-122425499D03*
D11*
X250500000Y-122350000D03*
X250500000Y-125150000D03*
D12*
X217800125Y-130851399D03*
X217800125Y-128051399D03*
D13*
X211696250Y-123351399D03*
X212966250Y-123351399D03*
X215506250Y-123351399D03*
X211696250Y-128551399D03*
X212966250Y-128551399D03*
X215506250Y-128551399D03*
X214236250Y-123351399D03*
X214236250Y-128551399D03*
D14*
X208900000Y-130310000D03*
X208900000Y-126790000D03*
D15*
X163074560Y-126274581D03*
X162424560Y-126274581D03*
X161774560Y-126274581D03*
X161124560Y-126274581D03*
X161124560Y-130901281D03*
X161774560Y-130901281D03*
X162424560Y-130901281D03*
X163074560Y-130901281D03*
D16*
X184099560Y-130112931D03*
X184099560Y-140062931D03*
X187099560Y-130112931D03*
X187099560Y-140062931D03*
D17*
X154949560Y-129587931D03*
X156649560Y-129587931D03*
D18*
X166099560Y-133937931D03*
X166099560Y-132237931D03*
D19*
X172599560Y-132165931D03*
X172599560Y-135009931D03*
D20*
X147098680Y-133286532D03*
X149898680Y-133286532D03*
D12*
X166599560Y-122687931D03*
X166599560Y-125487931D03*
D19*
X169599560Y-135009931D03*
X169599560Y-132165931D03*
D21*
X160599560Y-123087931D03*
X158599560Y-123087931D03*
D22*
X170099560Y-123487931D03*
X170099560Y-125487931D03*
D21*
X156599560Y-133087931D03*
X154599560Y-133087931D03*
D23*
X193898680Y-129186532D03*
X198298680Y-129186532D03*
X193898680Y-123686532D03*
X198298680Y-123686532D03*
D24*
X156299560Y-142180001D03*
X154299560Y-142180001D03*
X152299560Y-142180001D03*
X150299560Y-142180001D03*
X148299560Y-142180001D03*
X158299560Y-142180001D03*
X160299560Y-142180001D03*
X162299560Y-142180001D03*
X164299560Y-142180001D03*
X166299560Y-142180001D03*
X148299560Y-137860001D03*
X150299560Y-137860001D03*
X152299560Y-137860001D03*
X154299560Y-137860001D03*
X156299560Y-137860001D03*
X158299560Y-137860001D03*
X160299560Y-137860001D03*
X162299560Y-137860001D03*
X164299560Y-137860001D03*
X166299560Y-137860001D03*
M02*
