M48
; DRILL file {KiCad (5.1.5)-3} date 4/11/2020 2:24:43 PM
; FORMAT={-:-/ absolute / metric / decimal}
; #@! TF.CreationDate,2020-04-11T14:24:43-04:00
; #@! TF.GenerationSoftware,Kicad,Pcbnew,(5.1.5)-3
FMAT,2
METRIC
T1C0.400
T2C0.600
T3C0.800
T4C1.000
T5C0.890
T6C1.500
T7C2.300
T8C2.500
T9C5.700
%
G90
G05
T1
X171.15Y-139.05
T2
X135.6Y-128.088
X139.1Y-131.088
X139.1Y-134.588
X139.6Y-128.088
X142.1Y-131.088
X142.1Y-134.588
X143.1Y-128.088
X145.0Y-126.188
X145.1Y-123.588
X145.1Y-131.088
X145.1Y-134.588
X146.6Y-128.088
X147.499Y-135.487
X148.1Y-131.088
X148.6Y-144.588
X149.1Y-123.588
X150.6Y-121.588
X151.1Y-126.088
X151.65Y-140.588
X152.499Y-122.387
X152.65Y-140.588
X153.65Y-140.588
X154.65Y-140.588
X155.1Y-144.588
X155.65Y-140.588
X156.65Y-140.588
X157.65Y-140.588
X158.65Y-140.588
X159.65Y-140.588
X160.65Y-140.588
X162.6Y-144.588
X164.6Y-127.088
X165.1Y-129.088
X169.6Y-144.588
X170.6Y-142.588
X171.1Y-138.088
X172.1Y-127.588
X173.2Y-125.288
X173.799Y-140.087
X174.2Y-125.288
X174.6Y-144.588
X175.2Y-125.288
X176.2Y-125.288
X176.6Y-136.088
X177.1Y-130.588
X177.6Y-136.088
X178.1Y-130.588
X178.6Y-136.088
X179.1Y-130.588
X179.1Y-144.588
X179.3Y-131.888
X179.4Y-134.788
X179.6Y-136.088
X180.1Y-130.588
X180.6Y-136.088
X181.1Y-130.588
X181.6Y-136.088
X183.1Y-143.588
X184.1Y-124.088
X185.1Y-126.088
X187.6Y-121.588
X187.6Y-144.588
X188.05Y-123.088
X191.1Y-143.088
X202.1Y-121.95
X203.45Y-121.951
X204.65Y-121.95
X205.6Y-121.95
X206.7Y-121.95
X207.6Y-121.951
X210.15Y-124.1
X217.5Y-122.8
X221.55Y-128.95
X227.25Y-126.25
X228.45Y-126.65
X230.0Y-126.6
X231.25Y-126.75
X232.75Y-126.65
X233.5Y-122.001
X233.5Y-123.051
X234.0Y-126.6
X234.55Y-122.001
X234.55Y-123.051
X235.25Y-125.051
X235.3Y-126.951
X235.6Y-122.001
X235.6Y-123.051
X237.2Y-128.251
X238.2Y-131.25
X239.1Y-129.35
X242.05Y-124.65
X242.3Y-122.451
X242.4Y-131.25
X242.8Y-127.451
X242.8Y-128.451
X242.8Y-129.451
X242.8Y-130.451
X242.9Y-121.65
X242.9Y-123.15
X243.4Y-122.45
X247.7Y-122.2
X259.3Y-121.551
X259.3Y-122.551
X260.3Y-121.551
X260.3Y-122.551
X261.3Y-121.551
X261.3Y-122.551
X262.3Y-121.551
X262.3Y-122.551
X263.3Y-121.551
X263.3Y-122.551
X264.3Y-121.551
X264.3Y-122.551
X265.3Y-121.551
X265.3Y-122.551
X266.3Y-121.551
X266.3Y-122.551
T3
X267.836Y-132.719
X267.836Y-134.719
X267.836Y-136.719
X267.836Y-138.719
X267.836Y-140.719
T4
X206.075Y-130.31
T5
X149.3Y-140.02
X165.3Y-140.02
T6
X136.5Y-134.802
T7
X265.5Y-143.931
X136.5Y-131.982
T8
X257.4Y-141.751
T9
X265.05Y-126.817
T3
G00X253.7Y-143.251
M15
G01X253.7Y-142.251
M16
G05
G00X254.1Y-135.801
M15
G01X254.1Y-135.101
M16
G05
G00X257.5Y-135.801
M15
G01X257.5Y-135.101
M16
G05
G00X262.7Y-135.801
M15
G01X262.7Y-135.101
M16
G05
G00X263.6Y-143.251
M15
G01X263.6Y-142.251
M16
G05
T6
G00X265.35Y-141.331
M15
G01X265.874Y-141.331
M16
G05
T0
M30
