G04 #@! TF.GenerationSoftware,KiCad,Pcbnew,(5.1.5)-3*
G04 #@! TF.CreationDate,2020-06-07T00:53:48-04:00*
G04 #@! TF.ProjectId,PowerBoth,506f7765-7242-46f7-9468-2e6b69636164,rev?*
G04 #@! TF.SameCoordinates,Original*
G04 #@! TF.FileFunction,Paste,Bot*
G04 #@! TF.FilePolarity,Positive*
%FSLAX46Y46*%
G04 Gerber Fmt 4.6, Leading zero omitted, Abs format (unit mm)*
G04 Created by KiCad (PCBNEW (5.1.5)-3) date 2020-06-07 00:53:48*
%MOMM*%
%LPD*%
G04 APERTURE LIST*
%ADD10C,0.100000*%
%ADD11C,0.010000*%
%ADD12R,3.606800X2.641600*%
%ADD13R,0.900000X1.200000*%
%ADD14R,2.300000X3.500000*%
%ADD15R,2.700000X3.600000*%
%ADD16R,1.970000X0.600000*%
%ADD17R,2.570000X1.650000*%
%ADD18R,1.120000X1.830000*%
%ADD19R,0.600000X2.200000*%
%ADD20R,1.800000X1.600000*%
G04 APERTURE END LIST*
D10*
G36*
X203400000Y-124450000D02*
G01*
X203400000Y-125050000D01*
X202700000Y-125050000D01*
X202700000Y-124450000D01*
X203400000Y-124450000D01*
G37*
G36*
X205300000Y-124450000D02*
G01*
X205300000Y-125050000D01*
X204600000Y-125050000D01*
X204600000Y-124450000D01*
X205300000Y-124450000D01*
G37*
G36*
X204300000Y-124150000D02*
G01*
X203700000Y-124150000D01*
X203700000Y-123450000D01*
X204300000Y-123450000D01*
X204300000Y-124150000D01*
G37*
G36*
X204300000Y-126050000D02*
G01*
X203700000Y-126050000D01*
X203700000Y-125350000D01*
X204300000Y-125350000D01*
X204300000Y-126050000D01*
G37*
D11*
G36*
X180763169Y-130960000D02*
G01*
X179238000Y-130960000D01*
X179238000Y-133041600D01*
X180763169Y-133041600D01*
X180763169Y-130960000D01*
G37*
X180763169Y-130960000D02*
X179238000Y-130960000D01*
X179238000Y-133041600D01*
X180763169Y-133041600D01*
X180763169Y-130960000D01*
D10*
G36*
X203042154Y-122125843D02*
G01*
X203059142Y-122128363D01*
X203075801Y-122132535D01*
X203091971Y-122138321D01*
X203107495Y-122145664D01*
X203122226Y-122154493D01*
X203136020Y-122164723D01*
X203148745Y-122176256D01*
X203160278Y-122188981D01*
X203170508Y-122202775D01*
X203179337Y-122217506D01*
X203186680Y-122233030D01*
X203192466Y-122249200D01*
X203196638Y-122265859D01*
X203199158Y-122282847D01*
X203200001Y-122300000D01*
X203200001Y-123000000D01*
X203199158Y-123017153D01*
X203196638Y-123034141D01*
X203192466Y-123050800D01*
X203186680Y-123066970D01*
X203179337Y-123082494D01*
X203170508Y-123097225D01*
X203160278Y-123111019D01*
X203148745Y-123123744D01*
X203136020Y-123135277D01*
X203122226Y-123145507D01*
X203107495Y-123154336D01*
X203091971Y-123161679D01*
X203075801Y-123167465D01*
X203059142Y-123171637D01*
X203042154Y-123174157D01*
X203025001Y-123175000D01*
X203024999Y-123175000D01*
X203007846Y-123174157D01*
X202990858Y-123171637D01*
X202974199Y-123167465D01*
X202958029Y-123161679D01*
X202942505Y-123154336D01*
X202927774Y-123145507D01*
X202913980Y-123135277D01*
X202901255Y-123123744D01*
X202889722Y-123111019D01*
X202879492Y-123097225D01*
X202870663Y-123082494D01*
X202863320Y-123066970D01*
X202857534Y-123050800D01*
X202853362Y-123034141D01*
X202850842Y-123017153D01*
X202849999Y-123000000D01*
X202849999Y-122300000D01*
X202850842Y-122282847D01*
X202853362Y-122265859D01*
X202857534Y-122249200D01*
X202863320Y-122233030D01*
X202870663Y-122217506D01*
X202879492Y-122202775D01*
X202889722Y-122188981D01*
X202901255Y-122176256D01*
X202913980Y-122164723D01*
X202927774Y-122154493D01*
X202942505Y-122145664D01*
X202958029Y-122138321D01*
X202974199Y-122132535D01*
X202990858Y-122128363D01*
X203007846Y-122125843D01*
X203024999Y-122125000D01*
X203025001Y-122125000D01*
X203042154Y-122125843D01*
G37*
G36*
X203692154Y-122125843D02*
G01*
X203709142Y-122128363D01*
X203725801Y-122132535D01*
X203741971Y-122138321D01*
X203757495Y-122145664D01*
X203772226Y-122154493D01*
X203786020Y-122164723D01*
X203798745Y-122176256D01*
X203810278Y-122188981D01*
X203820508Y-122202775D01*
X203829337Y-122217506D01*
X203836680Y-122233030D01*
X203842466Y-122249200D01*
X203846638Y-122265859D01*
X203849158Y-122282847D01*
X203850001Y-122300000D01*
X203850001Y-123000000D01*
X203849158Y-123017153D01*
X203846638Y-123034141D01*
X203842466Y-123050800D01*
X203836680Y-123066970D01*
X203829337Y-123082494D01*
X203820508Y-123097225D01*
X203810278Y-123111019D01*
X203798745Y-123123744D01*
X203786020Y-123135277D01*
X203772226Y-123145507D01*
X203757495Y-123154336D01*
X203741971Y-123161679D01*
X203725801Y-123167465D01*
X203709142Y-123171637D01*
X203692154Y-123174157D01*
X203675001Y-123175000D01*
X203674999Y-123175000D01*
X203657846Y-123174157D01*
X203640858Y-123171637D01*
X203624199Y-123167465D01*
X203608029Y-123161679D01*
X203592505Y-123154336D01*
X203577774Y-123145507D01*
X203563980Y-123135277D01*
X203551255Y-123123744D01*
X203539722Y-123111019D01*
X203529492Y-123097225D01*
X203520663Y-123082494D01*
X203513320Y-123066970D01*
X203507534Y-123050800D01*
X203503362Y-123034141D01*
X203500842Y-123017153D01*
X203499999Y-123000000D01*
X203499999Y-122300000D01*
X203500842Y-122282847D01*
X203503362Y-122265859D01*
X203507534Y-122249200D01*
X203513320Y-122233030D01*
X203520663Y-122217506D01*
X203529492Y-122202775D01*
X203539722Y-122188981D01*
X203551255Y-122176256D01*
X203563980Y-122164723D01*
X203577774Y-122154493D01*
X203592505Y-122145664D01*
X203608029Y-122138321D01*
X203624199Y-122132535D01*
X203640858Y-122128363D01*
X203657846Y-122125843D01*
X203674999Y-122125000D01*
X203675001Y-122125000D01*
X203692154Y-122125843D01*
G37*
G36*
X204342154Y-122125843D02*
G01*
X204359142Y-122128363D01*
X204375801Y-122132535D01*
X204391971Y-122138321D01*
X204407495Y-122145664D01*
X204422226Y-122154493D01*
X204436020Y-122164723D01*
X204448745Y-122176256D01*
X204460278Y-122188981D01*
X204470508Y-122202775D01*
X204479337Y-122217506D01*
X204486680Y-122233030D01*
X204492466Y-122249200D01*
X204496638Y-122265859D01*
X204499158Y-122282847D01*
X204500001Y-122300000D01*
X204500001Y-123000000D01*
X204499158Y-123017153D01*
X204496638Y-123034141D01*
X204492466Y-123050800D01*
X204486680Y-123066970D01*
X204479337Y-123082494D01*
X204470508Y-123097225D01*
X204460278Y-123111019D01*
X204448745Y-123123744D01*
X204436020Y-123135277D01*
X204422226Y-123145507D01*
X204407495Y-123154336D01*
X204391971Y-123161679D01*
X204375801Y-123167465D01*
X204359142Y-123171637D01*
X204342154Y-123174157D01*
X204325001Y-123175000D01*
X204324999Y-123175000D01*
X204307846Y-123174157D01*
X204290858Y-123171637D01*
X204274199Y-123167465D01*
X204258029Y-123161679D01*
X204242505Y-123154336D01*
X204227774Y-123145507D01*
X204213980Y-123135277D01*
X204201255Y-123123744D01*
X204189722Y-123111019D01*
X204179492Y-123097225D01*
X204170663Y-123082494D01*
X204163320Y-123066970D01*
X204157534Y-123050800D01*
X204153362Y-123034141D01*
X204150842Y-123017153D01*
X204149999Y-123000000D01*
X204149999Y-122300000D01*
X204150842Y-122282847D01*
X204153362Y-122265859D01*
X204157534Y-122249200D01*
X204163320Y-122233030D01*
X204170663Y-122217506D01*
X204179492Y-122202775D01*
X204189722Y-122188981D01*
X204201255Y-122176256D01*
X204213980Y-122164723D01*
X204227774Y-122154493D01*
X204242505Y-122145664D01*
X204258029Y-122138321D01*
X204274199Y-122132535D01*
X204290858Y-122128363D01*
X204307846Y-122125843D01*
X204324999Y-122125000D01*
X204325001Y-122125000D01*
X204342154Y-122125843D01*
G37*
G36*
X204992154Y-122125843D02*
G01*
X205009142Y-122128363D01*
X205025801Y-122132535D01*
X205041971Y-122138321D01*
X205057495Y-122145664D01*
X205072226Y-122154493D01*
X205086020Y-122164723D01*
X205098745Y-122176256D01*
X205110278Y-122188981D01*
X205120508Y-122202775D01*
X205129337Y-122217506D01*
X205136680Y-122233030D01*
X205142466Y-122249200D01*
X205146638Y-122265859D01*
X205149158Y-122282847D01*
X205150001Y-122300000D01*
X205150001Y-123000000D01*
X205149158Y-123017153D01*
X205146638Y-123034141D01*
X205142466Y-123050800D01*
X205136680Y-123066970D01*
X205129337Y-123082494D01*
X205120508Y-123097225D01*
X205110278Y-123111019D01*
X205098745Y-123123744D01*
X205086020Y-123135277D01*
X205072226Y-123145507D01*
X205057495Y-123154336D01*
X205041971Y-123161679D01*
X205025801Y-123167465D01*
X205009142Y-123171637D01*
X204992154Y-123174157D01*
X204975001Y-123175000D01*
X204974999Y-123175000D01*
X204957846Y-123174157D01*
X204940858Y-123171637D01*
X204924199Y-123167465D01*
X204908029Y-123161679D01*
X204892505Y-123154336D01*
X204877774Y-123145507D01*
X204863980Y-123135277D01*
X204851255Y-123123744D01*
X204839722Y-123111019D01*
X204829492Y-123097225D01*
X204820663Y-123082494D01*
X204813320Y-123066970D01*
X204807534Y-123050800D01*
X204803362Y-123034141D01*
X204800842Y-123017153D01*
X204799999Y-123000000D01*
X204799999Y-122300000D01*
X204800842Y-122282847D01*
X204803362Y-122265859D01*
X204807534Y-122249200D01*
X204813320Y-122233030D01*
X204820663Y-122217506D01*
X204829492Y-122202775D01*
X204839722Y-122188981D01*
X204851255Y-122176256D01*
X204863980Y-122164723D01*
X204877774Y-122154493D01*
X204892505Y-122145664D01*
X204908029Y-122138321D01*
X204924199Y-122132535D01*
X204940858Y-122128363D01*
X204957846Y-122125843D01*
X204974999Y-122125000D01*
X204975001Y-122125000D01*
X204992154Y-122125843D01*
G37*
G36*
X206467153Y-123600842D02*
G01*
X206484141Y-123603362D01*
X206500800Y-123607534D01*
X206516970Y-123613320D01*
X206532494Y-123620663D01*
X206547225Y-123629492D01*
X206561019Y-123639722D01*
X206573744Y-123651255D01*
X206585277Y-123663980D01*
X206595507Y-123677774D01*
X206604336Y-123692505D01*
X206611679Y-123708029D01*
X206617465Y-123724199D01*
X206621637Y-123740858D01*
X206624157Y-123757846D01*
X206625000Y-123774999D01*
X206625000Y-123775001D01*
X206624157Y-123792154D01*
X206621637Y-123809142D01*
X206617465Y-123825801D01*
X206611679Y-123841971D01*
X206604336Y-123857495D01*
X206595507Y-123872226D01*
X206585277Y-123886020D01*
X206573744Y-123898745D01*
X206561019Y-123910278D01*
X206547225Y-123920508D01*
X206532494Y-123929337D01*
X206516970Y-123936680D01*
X206500800Y-123942466D01*
X206484141Y-123946638D01*
X206467153Y-123949158D01*
X206450000Y-123950001D01*
X205750000Y-123950001D01*
X205732847Y-123949158D01*
X205715859Y-123946638D01*
X205699200Y-123942466D01*
X205683030Y-123936680D01*
X205667506Y-123929337D01*
X205652775Y-123920508D01*
X205638981Y-123910278D01*
X205626256Y-123898745D01*
X205614723Y-123886020D01*
X205604493Y-123872226D01*
X205595664Y-123857495D01*
X205588321Y-123841971D01*
X205582535Y-123825801D01*
X205578363Y-123809142D01*
X205575843Y-123792154D01*
X205575000Y-123775001D01*
X205575000Y-123774999D01*
X205575843Y-123757846D01*
X205578363Y-123740858D01*
X205582535Y-123724199D01*
X205588321Y-123708029D01*
X205595664Y-123692505D01*
X205604493Y-123677774D01*
X205614723Y-123663980D01*
X205626256Y-123651255D01*
X205638981Y-123639722D01*
X205652775Y-123629492D01*
X205667506Y-123620663D01*
X205683030Y-123613320D01*
X205699200Y-123607534D01*
X205715859Y-123603362D01*
X205732847Y-123600842D01*
X205750000Y-123599999D01*
X206450000Y-123599999D01*
X206467153Y-123600842D01*
G37*
G36*
X206467153Y-124250842D02*
G01*
X206484141Y-124253362D01*
X206500800Y-124257534D01*
X206516970Y-124263320D01*
X206532494Y-124270663D01*
X206547225Y-124279492D01*
X206561019Y-124289722D01*
X206573744Y-124301255D01*
X206585277Y-124313980D01*
X206595507Y-124327774D01*
X206604336Y-124342505D01*
X206611679Y-124358029D01*
X206617465Y-124374199D01*
X206621637Y-124390858D01*
X206624157Y-124407846D01*
X206625000Y-124424999D01*
X206625000Y-124425001D01*
X206624157Y-124442154D01*
X206621637Y-124459142D01*
X206617465Y-124475801D01*
X206611679Y-124491971D01*
X206604336Y-124507495D01*
X206595507Y-124522226D01*
X206585277Y-124536020D01*
X206573744Y-124548745D01*
X206561019Y-124560278D01*
X206547225Y-124570508D01*
X206532494Y-124579337D01*
X206516970Y-124586680D01*
X206500800Y-124592466D01*
X206484141Y-124596638D01*
X206467153Y-124599158D01*
X206450000Y-124600001D01*
X205750000Y-124600001D01*
X205732847Y-124599158D01*
X205715859Y-124596638D01*
X205699200Y-124592466D01*
X205683030Y-124586680D01*
X205667506Y-124579337D01*
X205652775Y-124570508D01*
X205638981Y-124560278D01*
X205626256Y-124548745D01*
X205614723Y-124536020D01*
X205604493Y-124522226D01*
X205595664Y-124507495D01*
X205588321Y-124491971D01*
X205582535Y-124475801D01*
X205578363Y-124459142D01*
X205575843Y-124442154D01*
X205575000Y-124425001D01*
X205575000Y-124424999D01*
X205575843Y-124407846D01*
X205578363Y-124390858D01*
X205582535Y-124374199D01*
X205588321Y-124358029D01*
X205595664Y-124342505D01*
X205604493Y-124327774D01*
X205614723Y-124313980D01*
X205626256Y-124301255D01*
X205638981Y-124289722D01*
X205652775Y-124279492D01*
X205667506Y-124270663D01*
X205683030Y-124263320D01*
X205699200Y-124257534D01*
X205715859Y-124253362D01*
X205732847Y-124250842D01*
X205750000Y-124249999D01*
X206450000Y-124249999D01*
X206467153Y-124250842D01*
G37*
G36*
X206467153Y-124900842D02*
G01*
X206484141Y-124903362D01*
X206500800Y-124907534D01*
X206516970Y-124913320D01*
X206532494Y-124920663D01*
X206547225Y-124929492D01*
X206561019Y-124939722D01*
X206573744Y-124951255D01*
X206585277Y-124963980D01*
X206595507Y-124977774D01*
X206604336Y-124992505D01*
X206611679Y-125008029D01*
X206617465Y-125024199D01*
X206621637Y-125040858D01*
X206624157Y-125057846D01*
X206625000Y-125074999D01*
X206625000Y-125075001D01*
X206624157Y-125092154D01*
X206621637Y-125109142D01*
X206617465Y-125125801D01*
X206611679Y-125141971D01*
X206604336Y-125157495D01*
X206595507Y-125172226D01*
X206585277Y-125186020D01*
X206573744Y-125198745D01*
X206561019Y-125210278D01*
X206547225Y-125220508D01*
X206532494Y-125229337D01*
X206516970Y-125236680D01*
X206500800Y-125242466D01*
X206484141Y-125246638D01*
X206467153Y-125249158D01*
X206450000Y-125250001D01*
X205750000Y-125250001D01*
X205732847Y-125249158D01*
X205715859Y-125246638D01*
X205699200Y-125242466D01*
X205683030Y-125236680D01*
X205667506Y-125229337D01*
X205652775Y-125220508D01*
X205638981Y-125210278D01*
X205626256Y-125198745D01*
X205614723Y-125186020D01*
X205604493Y-125172226D01*
X205595664Y-125157495D01*
X205588321Y-125141971D01*
X205582535Y-125125801D01*
X205578363Y-125109142D01*
X205575843Y-125092154D01*
X205575000Y-125075001D01*
X205575000Y-125074999D01*
X205575843Y-125057846D01*
X205578363Y-125040858D01*
X205582535Y-125024199D01*
X205588321Y-125008029D01*
X205595664Y-124992505D01*
X205604493Y-124977774D01*
X205614723Y-124963980D01*
X205626256Y-124951255D01*
X205638981Y-124939722D01*
X205652775Y-124929492D01*
X205667506Y-124920663D01*
X205683030Y-124913320D01*
X205699200Y-124907534D01*
X205715859Y-124903362D01*
X205732847Y-124900842D01*
X205750000Y-124899999D01*
X206450000Y-124899999D01*
X206467153Y-124900842D01*
G37*
G36*
X206467153Y-125550842D02*
G01*
X206484141Y-125553362D01*
X206500800Y-125557534D01*
X206516970Y-125563320D01*
X206532494Y-125570663D01*
X206547225Y-125579492D01*
X206561019Y-125589722D01*
X206573744Y-125601255D01*
X206585277Y-125613980D01*
X206595507Y-125627774D01*
X206604336Y-125642505D01*
X206611679Y-125658029D01*
X206617465Y-125674199D01*
X206621637Y-125690858D01*
X206624157Y-125707846D01*
X206625000Y-125724999D01*
X206625000Y-125725001D01*
X206624157Y-125742154D01*
X206621637Y-125759142D01*
X206617465Y-125775801D01*
X206611679Y-125791971D01*
X206604336Y-125807495D01*
X206595507Y-125822226D01*
X206585277Y-125836020D01*
X206573744Y-125848745D01*
X206561019Y-125860278D01*
X206547225Y-125870508D01*
X206532494Y-125879337D01*
X206516970Y-125886680D01*
X206500800Y-125892466D01*
X206484141Y-125896638D01*
X206467153Y-125899158D01*
X206450000Y-125900001D01*
X205750000Y-125900001D01*
X205732847Y-125899158D01*
X205715859Y-125896638D01*
X205699200Y-125892466D01*
X205683030Y-125886680D01*
X205667506Y-125879337D01*
X205652775Y-125870508D01*
X205638981Y-125860278D01*
X205626256Y-125848745D01*
X205614723Y-125836020D01*
X205604493Y-125822226D01*
X205595664Y-125807495D01*
X205588321Y-125791971D01*
X205582535Y-125775801D01*
X205578363Y-125759142D01*
X205575843Y-125742154D01*
X205575000Y-125725001D01*
X205575000Y-125724999D01*
X205575843Y-125707846D01*
X205578363Y-125690858D01*
X205582535Y-125674199D01*
X205588321Y-125658029D01*
X205595664Y-125642505D01*
X205604493Y-125627774D01*
X205614723Y-125613980D01*
X205626256Y-125601255D01*
X205638981Y-125589722D01*
X205652775Y-125579492D01*
X205667506Y-125570663D01*
X205683030Y-125563320D01*
X205699200Y-125557534D01*
X205715859Y-125553362D01*
X205732847Y-125550842D01*
X205750000Y-125549999D01*
X206450000Y-125549999D01*
X206467153Y-125550842D01*
G37*
G36*
X204992154Y-126325843D02*
G01*
X205009142Y-126328363D01*
X205025801Y-126332535D01*
X205041971Y-126338321D01*
X205057495Y-126345664D01*
X205072226Y-126354493D01*
X205086020Y-126364723D01*
X205098745Y-126376256D01*
X205110278Y-126388981D01*
X205120508Y-126402775D01*
X205129337Y-126417506D01*
X205136680Y-126433030D01*
X205142466Y-126449200D01*
X205146638Y-126465859D01*
X205149158Y-126482847D01*
X205150001Y-126500000D01*
X205150001Y-127200000D01*
X205149158Y-127217153D01*
X205146638Y-127234141D01*
X205142466Y-127250800D01*
X205136680Y-127266970D01*
X205129337Y-127282494D01*
X205120508Y-127297225D01*
X205110278Y-127311019D01*
X205098745Y-127323744D01*
X205086020Y-127335277D01*
X205072226Y-127345507D01*
X205057495Y-127354336D01*
X205041971Y-127361679D01*
X205025801Y-127367465D01*
X205009142Y-127371637D01*
X204992154Y-127374157D01*
X204975001Y-127375000D01*
X204974999Y-127375000D01*
X204957846Y-127374157D01*
X204940858Y-127371637D01*
X204924199Y-127367465D01*
X204908029Y-127361679D01*
X204892505Y-127354336D01*
X204877774Y-127345507D01*
X204863980Y-127335277D01*
X204851255Y-127323744D01*
X204839722Y-127311019D01*
X204829492Y-127297225D01*
X204820663Y-127282494D01*
X204813320Y-127266970D01*
X204807534Y-127250800D01*
X204803362Y-127234141D01*
X204800842Y-127217153D01*
X204799999Y-127200000D01*
X204799999Y-126500000D01*
X204800842Y-126482847D01*
X204803362Y-126465859D01*
X204807534Y-126449200D01*
X204813320Y-126433030D01*
X204820663Y-126417506D01*
X204829492Y-126402775D01*
X204839722Y-126388981D01*
X204851255Y-126376256D01*
X204863980Y-126364723D01*
X204877774Y-126354493D01*
X204892505Y-126345664D01*
X204908029Y-126338321D01*
X204924199Y-126332535D01*
X204940858Y-126328363D01*
X204957846Y-126325843D01*
X204974999Y-126325000D01*
X204975001Y-126325000D01*
X204992154Y-126325843D01*
G37*
G36*
X204342154Y-126325843D02*
G01*
X204359142Y-126328363D01*
X204375801Y-126332535D01*
X204391971Y-126338321D01*
X204407495Y-126345664D01*
X204422226Y-126354493D01*
X204436020Y-126364723D01*
X204448745Y-126376256D01*
X204460278Y-126388981D01*
X204470508Y-126402775D01*
X204479337Y-126417506D01*
X204486680Y-126433030D01*
X204492466Y-126449200D01*
X204496638Y-126465859D01*
X204499158Y-126482847D01*
X204500001Y-126500000D01*
X204500001Y-127200000D01*
X204499158Y-127217153D01*
X204496638Y-127234141D01*
X204492466Y-127250800D01*
X204486680Y-127266970D01*
X204479337Y-127282494D01*
X204470508Y-127297225D01*
X204460278Y-127311019D01*
X204448745Y-127323744D01*
X204436020Y-127335277D01*
X204422226Y-127345507D01*
X204407495Y-127354336D01*
X204391971Y-127361679D01*
X204375801Y-127367465D01*
X204359142Y-127371637D01*
X204342154Y-127374157D01*
X204325001Y-127375000D01*
X204324999Y-127375000D01*
X204307846Y-127374157D01*
X204290858Y-127371637D01*
X204274199Y-127367465D01*
X204258029Y-127361679D01*
X204242505Y-127354336D01*
X204227774Y-127345507D01*
X204213980Y-127335277D01*
X204201255Y-127323744D01*
X204189722Y-127311019D01*
X204179492Y-127297225D01*
X204170663Y-127282494D01*
X204163320Y-127266970D01*
X204157534Y-127250800D01*
X204153362Y-127234141D01*
X204150842Y-127217153D01*
X204149999Y-127200000D01*
X204149999Y-126500000D01*
X204150842Y-126482847D01*
X204153362Y-126465859D01*
X204157534Y-126449200D01*
X204163320Y-126433030D01*
X204170663Y-126417506D01*
X204179492Y-126402775D01*
X204189722Y-126388981D01*
X204201255Y-126376256D01*
X204213980Y-126364723D01*
X204227774Y-126354493D01*
X204242505Y-126345664D01*
X204258029Y-126338321D01*
X204274199Y-126332535D01*
X204290858Y-126328363D01*
X204307846Y-126325843D01*
X204324999Y-126325000D01*
X204325001Y-126325000D01*
X204342154Y-126325843D01*
G37*
G36*
X203692154Y-126325843D02*
G01*
X203709142Y-126328363D01*
X203725801Y-126332535D01*
X203741971Y-126338321D01*
X203757495Y-126345664D01*
X203772226Y-126354493D01*
X203786020Y-126364723D01*
X203798745Y-126376256D01*
X203810278Y-126388981D01*
X203820508Y-126402775D01*
X203829337Y-126417506D01*
X203836680Y-126433030D01*
X203842466Y-126449200D01*
X203846638Y-126465859D01*
X203849158Y-126482847D01*
X203850001Y-126500000D01*
X203850001Y-127200000D01*
X203849158Y-127217153D01*
X203846638Y-127234141D01*
X203842466Y-127250800D01*
X203836680Y-127266970D01*
X203829337Y-127282494D01*
X203820508Y-127297225D01*
X203810278Y-127311019D01*
X203798745Y-127323744D01*
X203786020Y-127335277D01*
X203772226Y-127345507D01*
X203757495Y-127354336D01*
X203741971Y-127361679D01*
X203725801Y-127367465D01*
X203709142Y-127371637D01*
X203692154Y-127374157D01*
X203675001Y-127375000D01*
X203674999Y-127375000D01*
X203657846Y-127374157D01*
X203640858Y-127371637D01*
X203624199Y-127367465D01*
X203608029Y-127361679D01*
X203592505Y-127354336D01*
X203577774Y-127345507D01*
X203563980Y-127335277D01*
X203551255Y-127323744D01*
X203539722Y-127311019D01*
X203529492Y-127297225D01*
X203520663Y-127282494D01*
X203513320Y-127266970D01*
X203507534Y-127250800D01*
X203503362Y-127234141D01*
X203500842Y-127217153D01*
X203499999Y-127200000D01*
X203499999Y-126500000D01*
X203500842Y-126482847D01*
X203503362Y-126465859D01*
X203507534Y-126449200D01*
X203513320Y-126433030D01*
X203520663Y-126417506D01*
X203529492Y-126402775D01*
X203539722Y-126388981D01*
X203551255Y-126376256D01*
X203563980Y-126364723D01*
X203577774Y-126354493D01*
X203592505Y-126345664D01*
X203608029Y-126338321D01*
X203624199Y-126332535D01*
X203640858Y-126328363D01*
X203657846Y-126325843D01*
X203674999Y-126325000D01*
X203675001Y-126325000D01*
X203692154Y-126325843D01*
G37*
G36*
X203042154Y-126325843D02*
G01*
X203059142Y-126328363D01*
X203075801Y-126332535D01*
X203091971Y-126338321D01*
X203107495Y-126345664D01*
X203122226Y-126354493D01*
X203136020Y-126364723D01*
X203148745Y-126376256D01*
X203160278Y-126388981D01*
X203170508Y-126402775D01*
X203179337Y-126417506D01*
X203186680Y-126433030D01*
X203192466Y-126449200D01*
X203196638Y-126465859D01*
X203199158Y-126482847D01*
X203200001Y-126500000D01*
X203200001Y-127200000D01*
X203199158Y-127217153D01*
X203196638Y-127234141D01*
X203192466Y-127250800D01*
X203186680Y-127266970D01*
X203179337Y-127282494D01*
X203170508Y-127297225D01*
X203160278Y-127311019D01*
X203148745Y-127323744D01*
X203136020Y-127335277D01*
X203122226Y-127345507D01*
X203107495Y-127354336D01*
X203091971Y-127361679D01*
X203075801Y-127367465D01*
X203059142Y-127371637D01*
X203042154Y-127374157D01*
X203025001Y-127375000D01*
X203024999Y-127375000D01*
X203007846Y-127374157D01*
X202990858Y-127371637D01*
X202974199Y-127367465D01*
X202958029Y-127361679D01*
X202942505Y-127354336D01*
X202927774Y-127345507D01*
X202913980Y-127335277D01*
X202901255Y-127323744D01*
X202889722Y-127311019D01*
X202879492Y-127297225D01*
X202870663Y-127282494D01*
X202863320Y-127266970D01*
X202857534Y-127250800D01*
X202853362Y-127234141D01*
X202850842Y-127217153D01*
X202849999Y-127200000D01*
X202849999Y-126500000D01*
X202850842Y-126482847D01*
X202853362Y-126465859D01*
X202857534Y-126449200D01*
X202863320Y-126433030D01*
X202870663Y-126417506D01*
X202879492Y-126402775D01*
X202889722Y-126388981D01*
X202901255Y-126376256D01*
X202913980Y-126364723D01*
X202927774Y-126354493D01*
X202942505Y-126345664D01*
X202958029Y-126338321D01*
X202974199Y-126332535D01*
X202990858Y-126328363D01*
X203007846Y-126325843D01*
X203024999Y-126325000D01*
X203025001Y-126325000D01*
X203042154Y-126325843D01*
G37*
G36*
X202267153Y-125550842D02*
G01*
X202284141Y-125553362D01*
X202300800Y-125557534D01*
X202316970Y-125563320D01*
X202332494Y-125570663D01*
X202347225Y-125579492D01*
X202361019Y-125589722D01*
X202373744Y-125601255D01*
X202385277Y-125613980D01*
X202395507Y-125627774D01*
X202404336Y-125642505D01*
X202411679Y-125658029D01*
X202417465Y-125674199D01*
X202421637Y-125690858D01*
X202424157Y-125707846D01*
X202425000Y-125724999D01*
X202425000Y-125725001D01*
X202424157Y-125742154D01*
X202421637Y-125759142D01*
X202417465Y-125775801D01*
X202411679Y-125791971D01*
X202404336Y-125807495D01*
X202395507Y-125822226D01*
X202385277Y-125836020D01*
X202373744Y-125848745D01*
X202361019Y-125860278D01*
X202347225Y-125870508D01*
X202332494Y-125879337D01*
X202316970Y-125886680D01*
X202300800Y-125892466D01*
X202284141Y-125896638D01*
X202267153Y-125899158D01*
X202250000Y-125900001D01*
X201550000Y-125900001D01*
X201532847Y-125899158D01*
X201515859Y-125896638D01*
X201499200Y-125892466D01*
X201483030Y-125886680D01*
X201467506Y-125879337D01*
X201452775Y-125870508D01*
X201438981Y-125860278D01*
X201426256Y-125848745D01*
X201414723Y-125836020D01*
X201404493Y-125822226D01*
X201395664Y-125807495D01*
X201388321Y-125791971D01*
X201382535Y-125775801D01*
X201378363Y-125759142D01*
X201375843Y-125742154D01*
X201375000Y-125725001D01*
X201375000Y-125724999D01*
X201375843Y-125707846D01*
X201378363Y-125690858D01*
X201382535Y-125674199D01*
X201388321Y-125658029D01*
X201395664Y-125642505D01*
X201404493Y-125627774D01*
X201414723Y-125613980D01*
X201426256Y-125601255D01*
X201438981Y-125589722D01*
X201452775Y-125579492D01*
X201467506Y-125570663D01*
X201483030Y-125563320D01*
X201499200Y-125557534D01*
X201515859Y-125553362D01*
X201532847Y-125550842D01*
X201550000Y-125549999D01*
X202250000Y-125549999D01*
X202267153Y-125550842D01*
G37*
G36*
X202267153Y-124900842D02*
G01*
X202284141Y-124903362D01*
X202300800Y-124907534D01*
X202316970Y-124913320D01*
X202332494Y-124920663D01*
X202347225Y-124929492D01*
X202361019Y-124939722D01*
X202373744Y-124951255D01*
X202385277Y-124963980D01*
X202395507Y-124977774D01*
X202404336Y-124992505D01*
X202411679Y-125008029D01*
X202417465Y-125024199D01*
X202421637Y-125040858D01*
X202424157Y-125057846D01*
X202425000Y-125074999D01*
X202425000Y-125075001D01*
X202424157Y-125092154D01*
X202421637Y-125109142D01*
X202417465Y-125125801D01*
X202411679Y-125141971D01*
X202404336Y-125157495D01*
X202395507Y-125172226D01*
X202385277Y-125186020D01*
X202373744Y-125198745D01*
X202361019Y-125210278D01*
X202347225Y-125220508D01*
X202332494Y-125229337D01*
X202316970Y-125236680D01*
X202300800Y-125242466D01*
X202284141Y-125246638D01*
X202267153Y-125249158D01*
X202250000Y-125250001D01*
X201550000Y-125250001D01*
X201532847Y-125249158D01*
X201515859Y-125246638D01*
X201499200Y-125242466D01*
X201483030Y-125236680D01*
X201467506Y-125229337D01*
X201452775Y-125220508D01*
X201438981Y-125210278D01*
X201426256Y-125198745D01*
X201414723Y-125186020D01*
X201404493Y-125172226D01*
X201395664Y-125157495D01*
X201388321Y-125141971D01*
X201382535Y-125125801D01*
X201378363Y-125109142D01*
X201375843Y-125092154D01*
X201375000Y-125075001D01*
X201375000Y-125074999D01*
X201375843Y-125057846D01*
X201378363Y-125040858D01*
X201382535Y-125024199D01*
X201388321Y-125008029D01*
X201395664Y-124992505D01*
X201404493Y-124977774D01*
X201414723Y-124963980D01*
X201426256Y-124951255D01*
X201438981Y-124939722D01*
X201452775Y-124929492D01*
X201467506Y-124920663D01*
X201483030Y-124913320D01*
X201499200Y-124907534D01*
X201515859Y-124903362D01*
X201532847Y-124900842D01*
X201550000Y-124899999D01*
X202250000Y-124899999D01*
X202267153Y-124900842D01*
G37*
G36*
X202267153Y-124250842D02*
G01*
X202284141Y-124253362D01*
X202300800Y-124257534D01*
X202316970Y-124263320D01*
X202332494Y-124270663D01*
X202347225Y-124279492D01*
X202361019Y-124289722D01*
X202373744Y-124301255D01*
X202385277Y-124313980D01*
X202395507Y-124327774D01*
X202404336Y-124342505D01*
X202411679Y-124358029D01*
X202417465Y-124374199D01*
X202421637Y-124390858D01*
X202424157Y-124407846D01*
X202425000Y-124424999D01*
X202425000Y-124425001D01*
X202424157Y-124442154D01*
X202421637Y-124459142D01*
X202417465Y-124475801D01*
X202411679Y-124491971D01*
X202404336Y-124507495D01*
X202395507Y-124522226D01*
X202385277Y-124536020D01*
X202373744Y-124548745D01*
X202361019Y-124560278D01*
X202347225Y-124570508D01*
X202332494Y-124579337D01*
X202316970Y-124586680D01*
X202300800Y-124592466D01*
X202284141Y-124596638D01*
X202267153Y-124599158D01*
X202250000Y-124600001D01*
X201550000Y-124600001D01*
X201532847Y-124599158D01*
X201515859Y-124596638D01*
X201499200Y-124592466D01*
X201483030Y-124586680D01*
X201467506Y-124579337D01*
X201452775Y-124570508D01*
X201438981Y-124560278D01*
X201426256Y-124548745D01*
X201414723Y-124536020D01*
X201404493Y-124522226D01*
X201395664Y-124507495D01*
X201388321Y-124491971D01*
X201382535Y-124475801D01*
X201378363Y-124459142D01*
X201375843Y-124442154D01*
X201375000Y-124425001D01*
X201375000Y-124424999D01*
X201375843Y-124407846D01*
X201378363Y-124390858D01*
X201382535Y-124374199D01*
X201388321Y-124358029D01*
X201395664Y-124342505D01*
X201404493Y-124327774D01*
X201414723Y-124313980D01*
X201426256Y-124301255D01*
X201438981Y-124289722D01*
X201452775Y-124279492D01*
X201467506Y-124270663D01*
X201483030Y-124263320D01*
X201499200Y-124257534D01*
X201515859Y-124253362D01*
X201532847Y-124250842D01*
X201550000Y-124249999D01*
X202250000Y-124249999D01*
X202267153Y-124250842D01*
G37*
G36*
X202267153Y-123600842D02*
G01*
X202284141Y-123603362D01*
X202300800Y-123607534D01*
X202316970Y-123613320D01*
X202332494Y-123620663D01*
X202347225Y-123629492D01*
X202361019Y-123639722D01*
X202373744Y-123651255D01*
X202385277Y-123663980D01*
X202395507Y-123677774D01*
X202404336Y-123692505D01*
X202411679Y-123708029D01*
X202417465Y-123724199D01*
X202421637Y-123740858D01*
X202424157Y-123757846D01*
X202425000Y-123774999D01*
X202425000Y-123775001D01*
X202424157Y-123792154D01*
X202421637Y-123809142D01*
X202417465Y-123825801D01*
X202411679Y-123841971D01*
X202404336Y-123857495D01*
X202395507Y-123872226D01*
X202385277Y-123886020D01*
X202373744Y-123898745D01*
X202361019Y-123910278D01*
X202347225Y-123920508D01*
X202332494Y-123929337D01*
X202316970Y-123936680D01*
X202300800Y-123942466D01*
X202284141Y-123946638D01*
X202267153Y-123949158D01*
X202250000Y-123950001D01*
X201550000Y-123950001D01*
X201532847Y-123949158D01*
X201515859Y-123946638D01*
X201499200Y-123942466D01*
X201483030Y-123936680D01*
X201467506Y-123929337D01*
X201452775Y-123920508D01*
X201438981Y-123910278D01*
X201426256Y-123898745D01*
X201414723Y-123886020D01*
X201404493Y-123872226D01*
X201395664Y-123857495D01*
X201388321Y-123841971D01*
X201382535Y-123825801D01*
X201378363Y-123809142D01*
X201375843Y-123792154D01*
X201375000Y-123775001D01*
X201375000Y-123774999D01*
X201375843Y-123757846D01*
X201378363Y-123740858D01*
X201382535Y-123724199D01*
X201388321Y-123708029D01*
X201395664Y-123692505D01*
X201404493Y-123677774D01*
X201414723Y-123663980D01*
X201426256Y-123651255D01*
X201438981Y-123639722D01*
X201452775Y-123629492D01*
X201467506Y-123620663D01*
X201483030Y-123613320D01*
X201499200Y-123607534D01*
X201515859Y-123603362D01*
X201532847Y-123600842D01*
X201550000Y-123599999D01*
X202250000Y-123599999D01*
X202267153Y-123600842D01*
G37*
D12*
X225300125Y-130477299D03*
X225300125Y-122425499D03*
D10*
G36*
X251599504Y-121551204D02*
G01*
X251623773Y-121554804D01*
X251647571Y-121560765D01*
X251670671Y-121569030D01*
X251692849Y-121579520D01*
X251713893Y-121592133D01*
X251733598Y-121606747D01*
X251751777Y-121623223D01*
X251768253Y-121641402D01*
X251782867Y-121661107D01*
X251795480Y-121682151D01*
X251805970Y-121704329D01*
X251814235Y-121727429D01*
X251820196Y-121751227D01*
X251823796Y-121775496D01*
X251825000Y-121800000D01*
X251825000Y-122725000D01*
X251823796Y-122749504D01*
X251820196Y-122773773D01*
X251814235Y-122797571D01*
X251805970Y-122820671D01*
X251795480Y-122842849D01*
X251782867Y-122863893D01*
X251768253Y-122883598D01*
X251751777Y-122901777D01*
X251733598Y-122918253D01*
X251713893Y-122932867D01*
X251692849Y-122945480D01*
X251670671Y-122955970D01*
X251647571Y-122964235D01*
X251623773Y-122970196D01*
X251599504Y-122973796D01*
X251575000Y-122975000D01*
X249425000Y-122975000D01*
X249400496Y-122973796D01*
X249376227Y-122970196D01*
X249352429Y-122964235D01*
X249329329Y-122955970D01*
X249307151Y-122945480D01*
X249286107Y-122932867D01*
X249266402Y-122918253D01*
X249248223Y-122901777D01*
X249231747Y-122883598D01*
X249217133Y-122863893D01*
X249204520Y-122842849D01*
X249194030Y-122820671D01*
X249185765Y-122797571D01*
X249179804Y-122773773D01*
X249176204Y-122749504D01*
X249175000Y-122725000D01*
X249175000Y-121800000D01*
X249176204Y-121775496D01*
X249179804Y-121751227D01*
X249185765Y-121727429D01*
X249194030Y-121704329D01*
X249204520Y-121682151D01*
X249217133Y-121661107D01*
X249231747Y-121641402D01*
X249248223Y-121623223D01*
X249266402Y-121606747D01*
X249286107Y-121592133D01*
X249307151Y-121579520D01*
X249329329Y-121569030D01*
X249352429Y-121560765D01*
X249376227Y-121554804D01*
X249400496Y-121551204D01*
X249425000Y-121550000D01*
X251575000Y-121550000D01*
X251599504Y-121551204D01*
G37*
G36*
X251599504Y-124526204D02*
G01*
X251623773Y-124529804D01*
X251647571Y-124535765D01*
X251670671Y-124544030D01*
X251692849Y-124554520D01*
X251713893Y-124567133D01*
X251733598Y-124581747D01*
X251751777Y-124598223D01*
X251768253Y-124616402D01*
X251782867Y-124636107D01*
X251795480Y-124657151D01*
X251805970Y-124679329D01*
X251814235Y-124702429D01*
X251820196Y-124726227D01*
X251823796Y-124750496D01*
X251825000Y-124775000D01*
X251825000Y-125700000D01*
X251823796Y-125724504D01*
X251820196Y-125748773D01*
X251814235Y-125772571D01*
X251805970Y-125795671D01*
X251795480Y-125817849D01*
X251782867Y-125838893D01*
X251768253Y-125858598D01*
X251751777Y-125876777D01*
X251733598Y-125893253D01*
X251713893Y-125907867D01*
X251692849Y-125920480D01*
X251670671Y-125930970D01*
X251647571Y-125939235D01*
X251623773Y-125945196D01*
X251599504Y-125948796D01*
X251575000Y-125950000D01*
X249425000Y-125950000D01*
X249400496Y-125948796D01*
X249376227Y-125945196D01*
X249352429Y-125939235D01*
X249329329Y-125930970D01*
X249307151Y-125920480D01*
X249286107Y-125907867D01*
X249266402Y-125893253D01*
X249248223Y-125876777D01*
X249231747Y-125858598D01*
X249217133Y-125838893D01*
X249204520Y-125817849D01*
X249194030Y-125795671D01*
X249185765Y-125772571D01*
X249179804Y-125748773D01*
X249176204Y-125724504D01*
X249175000Y-125700000D01*
X249175000Y-124775000D01*
X249176204Y-124750496D01*
X249179804Y-124726227D01*
X249185765Y-124702429D01*
X249194030Y-124679329D01*
X249204520Y-124657151D01*
X249217133Y-124636107D01*
X249231747Y-124616402D01*
X249248223Y-124598223D01*
X249266402Y-124581747D01*
X249286107Y-124567133D01*
X249307151Y-124554520D01*
X249329329Y-124544030D01*
X249352429Y-124535765D01*
X249376227Y-124529804D01*
X249400496Y-124526204D01*
X249425000Y-124525000D01*
X251575000Y-124525000D01*
X251599504Y-124526204D01*
G37*
G36*
X190374505Y-133301204D02*
G01*
X190398773Y-133304804D01*
X190422572Y-133310765D01*
X190445671Y-133319030D01*
X190467850Y-133329520D01*
X190488893Y-133342132D01*
X190508599Y-133356747D01*
X190526777Y-133373223D01*
X190543253Y-133391401D01*
X190557868Y-133411107D01*
X190570480Y-133432150D01*
X190580970Y-133454329D01*
X190589235Y-133477428D01*
X190595196Y-133501227D01*
X190598796Y-133525495D01*
X190600000Y-133549999D01*
X190600000Y-134450001D01*
X190598796Y-134474505D01*
X190595196Y-134498773D01*
X190589235Y-134522572D01*
X190580970Y-134545671D01*
X190570480Y-134567850D01*
X190557868Y-134588893D01*
X190543253Y-134608599D01*
X190526777Y-134626777D01*
X190508599Y-134643253D01*
X190488893Y-134657868D01*
X190467850Y-134670480D01*
X190445671Y-134680970D01*
X190422572Y-134689235D01*
X190398773Y-134695196D01*
X190374505Y-134698796D01*
X190350001Y-134700000D01*
X189699999Y-134700000D01*
X189675495Y-134698796D01*
X189651227Y-134695196D01*
X189627428Y-134689235D01*
X189604329Y-134680970D01*
X189582150Y-134670480D01*
X189561107Y-134657868D01*
X189541401Y-134643253D01*
X189523223Y-134626777D01*
X189506747Y-134608599D01*
X189492132Y-134588893D01*
X189479520Y-134567850D01*
X189469030Y-134545671D01*
X189460765Y-134522572D01*
X189454804Y-134498773D01*
X189451204Y-134474505D01*
X189450000Y-134450001D01*
X189450000Y-133549999D01*
X189451204Y-133525495D01*
X189454804Y-133501227D01*
X189460765Y-133477428D01*
X189469030Y-133454329D01*
X189479520Y-133432150D01*
X189492132Y-133411107D01*
X189506747Y-133391401D01*
X189523223Y-133373223D01*
X189541401Y-133356747D01*
X189561107Y-133342132D01*
X189582150Y-133329520D01*
X189604329Y-133319030D01*
X189627428Y-133310765D01*
X189651227Y-133304804D01*
X189675495Y-133301204D01*
X189699999Y-133300000D01*
X190350001Y-133300000D01*
X190374505Y-133301204D01*
G37*
G36*
X188324505Y-133301204D02*
G01*
X188348773Y-133304804D01*
X188372572Y-133310765D01*
X188395671Y-133319030D01*
X188417850Y-133329520D01*
X188438893Y-133342132D01*
X188458599Y-133356747D01*
X188476777Y-133373223D01*
X188493253Y-133391401D01*
X188507868Y-133411107D01*
X188520480Y-133432150D01*
X188530970Y-133454329D01*
X188539235Y-133477428D01*
X188545196Y-133501227D01*
X188548796Y-133525495D01*
X188550000Y-133549999D01*
X188550000Y-134450001D01*
X188548796Y-134474505D01*
X188545196Y-134498773D01*
X188539235Y-134522572D01*
X188530970Y-134545671D01*
X188520480Y-134567850D01*
X188507868Y-134588893D01*
X188493253Y-134608599D01*
X188476777Y-134626777D01*
X188458599Y-134643253D01*
X188438893Y-134657868D01*
X188417850Y-134670480D01*
X188395671Y-134680970D01*
X188372572Y-134689235D01*
X188348773Y-134695196D01*
X188324505Y-134698796D01*
X188300001Y-134700000D01*
X187649999Y-134700000D01*
X187625495Y-134698796D01*
X187601227Y-134695196D01*
X187577428Y-134689235D01*
X187554329Y-134680970D01*
X187532150Y-134670480D01*
X187511107Y-134657868D01*
X187491401Y-134643253D01*
X187473223Y-134626777D01*
X187456747Y-134608599D01*
X187442132Y-134588893D01*
X187429520Y-134567850D01*
X187419030Y-134545671D01*
X187410765Y-134522572D01*
X187404804Y-134498773D01*
X187401204Y-134474505D01*
X187400000Y-134450001D01*
X187400000Y-133549999D01*
X187401204Y-133525495D01*
X187404804Y-133501227D01*
X187410765Y-133477428D01*
X187419030Y-133454329D01*
X187429520Y-133432150D01*
X187442132Y-133411107D01*
X187456747Y-133391401D01*
X187473223Y-133373223D01*
X187491401Y-133356747D01*
X187511107Y-133342132D01*
X187532150Y-133329520D01*
X187554329Y-133319030D01*
X187577428Y-133310765D01*
X187601227Y-133304804D01*
X187625495Y-133301204D01*
X187649999Y-133300000D01*
X188300001Y-133300000D01*
X188324505Y-133301204D01*
G37*
G36*
X177974505Y-127426204D02*
G01*
X177998773Y-127429804D01*
X178022572Y-127435765D01*
X178045671Y-127444030D01*
X178067850Y-127454520D01*
X178088893Y-127467132D01*
X178108599Y-127481747D01*
X178126777Y-127498223D01*
X178143253Y-127516401D01*
X178157868Y-127536107D01*
X178170480Y-127557150D01*
X178180970Y-127579329D01*
X178189235Y-127602428D01*
X178195196Y-127626227D01*
X178198796Y-127650495D01*
X178200000Y-127674999D01*
X178200000Y-128325001D01*
X178198796Y-128349505D01*
X178195196Y-128373773D01*
X178189235Y-128397572D01*
X178180970Y-128420671D01*
X178170480Y-128442850D01*
X178157868Y-128463893D01*
X178143253Y-128483599D01*
X178126777Y-128501777D01*
X178108599Y-128518253D01*
X178088893Y-128532868D01*
X178067850Y-128545480D01*
X178045671Y-128555970D01*
X178022572Y-128564235D01*
X177998773Y-128570196D01*
X177974505Y-128573796D01*
X177950001Y-128575000D01*
X177049999Y-128575000D01*
X177025495Y-128573796D01*
X177001227Y-128570196D01*
X176977428Y-128564235D01*
X176954329Y-128555970D01*
X176932150Y-128545480D01*
X176911107Y-128532868D01*
X176891401Y-128518253D01*
X176873223Y-128501777D01*
X176856747Y-128483599D01*
X176842132Y-128463893D01*
X176829520Y-128442850D01*
X176819030Y-128420671D01*
X176810765Y-128397572D01*
X176804804Y-128373773D01*
X176801204Y-128349505D01*
X176800000Y-128325001D01*
X176800000Y-127674999D01*
X176801204Y-127650495D01*
X176804804Y-127626227D01*
X176810765Y-127602428D01*
X176819030Y-127579329D01*
X176829520Y-127557150D01*
X176842132Y-127536107D01*
X176856747Y-127516401D01*
X176873223Y-127498223D01*
X176891401Y-127481747D01*
X176911107Y-127467132D01*
X176932150Y-127454520D01*
X176954329Y-127444030D01*
X176977428Y-127435765D01*
X177001227Y-127429804D01*
X177025495Y-127426204D01*
X177049999Y-127425000D01*
X177950001Y-127425000D01*
X177974505Y-127426204D01*
G37*
G36*
X177974505Y-125376204D02*
G01*
X177998773Y-125379804D01*
X178022572Y-125385765D01*
X178045671Y-125394030D01*
X178067850Y-125404520D01*
X178088893Y-125417132D01*
X178108599Y-125431747D01*
X178126777Y-125448223D01*
X178143253Y-125466401D01*
X178157868Y-125486107D01*
X178170480Y-125507150D01*
X178180970Y-125529329D01*
X178189235Y-125552428D01*
X178195196Y-125576227D01*
X178198796Y-125600495D01*
X178200000Y-125624999D01*
X178200000Y-126275001D01*
X178198796Y-126299505D01*
X178195196Y-126323773D01*
X178189235Y-126347572D01*
X178180970Y-126370671D01*
X178170480Y-126392850D01*
X178157868Y-126413893D01*
X178143253Y-126433599D01*
X178126777Y-126451777D01*
X178108599Y-126468253D01*
X178088893Y-126482868D01*
X178067850Y-126495480D01*
X178045671Y-126505970D01*
X178022572Y-126514235D01*
X177998773Y-126520196D01*
X177974505Y-126523796D01*
X177950001Y-126525000D01*
X177049999Y-126525000D01*
X177025495Y-126523796D01*
X177001227Y-126520196D01*
X176977428Y-126514235D01*
X176954329Y-126505970D01*
X176932150Y-126495480D01*
X176911107Y-126482868D01*
X176891401Y-126468253D01*
X176873223Y-126451777D01*
X176856747Y-126433599D01*
X176842132Y-126413893D01*
X176829520Y-126392850D01*
X176819030Y-126370671D01*
X176810765Y-126347572D01*
X176804804Y-126323773D01*
X176801204Y-126299505D01*
X176800000Y-126275001D01*
X176800000Y-125624999D01*
X176801204Y-125600495D01*
X176804804Y-125576227D01*
X176810765Y-125552428D01*
X176819030Y-125529329D01*
X176829520Y-125507150D01*
X176842132Y-125486107D01*
X176856747Y-125466401D01*
X176873223Y-125448223D01*
X176891401Y-125431747D01*
X176911107Y-125417132D01*
X176932150Y-125404520D01*
X176954329Y-125394030D01*
X176977428Y-125385765D01*
X177001227Y-125379804D01*
X177025495Y-125376204D01*
X177049999Y-125375000D01*
X177950001Y-125375000D01*
X177974505Y-125376204D01*
G37*
G36*
X204974505Y-128426204D02*
G01*
X204998773Y-128429804D01*
X205022572Y-128435765D01*
X205045671Y-128444030D01*
X205067850Y-128454520D01*
X205088893Y-128467132D01*
X205108599Y-128481747D01*
X205126777Y-128498223D01*
X205143253Y-128516401D01*
X205157868Y-128536107D01*
X205170480Y-128557150D01*
X205180970Y-128579329D01*
X205189235Y-128602428D01*
X205195196Y-128626227D01*
X205198796Y-128650495D01*
X205200000Y-128674999D01*
X205200000Y-129325001D01*
X205198796Y-129349505D01*
X205195196Y-129373773D01*
X205189235Y-129397572D01*
X205180970Y-129420671D01*
X205170480Y-129442850D01*
X205157868Y-129463893D01*
X205143253Y-129483599D01*
X205126777Y-129501777D01*
X205108599Y-129518253D01*
X205088893Y-129532868D01*
X205067850Y-129545480D01*
X205045671Y-129555970D01*
X205022572Y-129564235D01*
X204998773Y-129570196D01*
X204974505Y-129573796D01*
X204950001Y-129575000D01*
X204049999Y-129575000D01*
X204025495Y-129573796D01*
X204001227Y-129570196D01*
X203977428Y-129564235D01*
X203954329Y-129555970D01*
X203932150Y-129545480D01*
X203911107Y-129532868D01*
X203891401Y-129518253D01*
X203873223Y-129501777D01*
X203856747Y-129483599D01*
X203842132Y-129463893D01*
X203829520Y-129442850D01*
X203819030Y-129420671D01*
X203810765Y-129397572D01*
X203804804Y-129373773D01*
X203801204Y-129349505D01*
X203800000Y-129325001D01*
X203800000Y-128674999D01*
X203801204Y-128650495D01*
X203804804Y-128626227D01*
X203810765Y-128602428D01*
X203819030Y-128579329D01*
X203829520Y-128557150D01*
X203842132Y-128536107D01*
X203856747Y-128516401D01*
X203873223Y-128498223D01*
X203891401Y-128481747D01*
X203911107Y-128467132D01*
X203932150Y-128454520D01*
X203954329Y-128444030D01*
X203977428Y-128435765D01*
X204001227Y-128429804D01*
X204025495Y-128426204D01*
X204049999Y-128425000D01*
X204950001Y-128425000D01*
X204974505Y-128426204D01*
G37*
G36*
X204974505Y-130476204D02*
G01*
X204998773Y-130479804D01*
X205022572Y-130485765D01*
X205045671Y-130494030D01*
X205067850Y-130504520D01*
X205088893Y-130517132D01*
X205108599Y-130531747D01*
X205126777Y-130548223D01*
X205143253Y-130566401D01*
X205157868Y-130586107D01*
X205170480Y-130607150D01*
X205180970Y-130629329D01*
X205189235Y-130652428D01*
X205195196Y-130676227D01*
X205198796Y-130700495D01*
X205200000Y-130724999D01*
X205200000Y-131375001D01*
X205198796Y-131399505D01*
X205195196Y-131423773D01*
X205189235Y-131447572D01*
X205180970Y-131470671D01*
X205170480Y-131492850D01*
X205157868Y-131513893D01*
X205143253Y-131533599D01*
X205126777Y-131551777D01*
X205108599Y-131568253D01*
X205088893Y-131582868D01*
X205067850Y-131595480D01*
X205045671Y-131605970D01*
X205022572Y-131614235D01*
X204998773Y-131620196D01*
X204974505Y-131623796D01*
X204950001Y-131625000D01*
X204049999Y-131625000D01*
X204025495Y-131623796D01*
X204001227Y-131620196D01*
X203977428Y-131614235D01*
X203954329Y-131605970D01*
X203932150Y-131595480D01*
X203911107Y-131582868D01*
X203891401Y-131568253D01*
X203873223Y-131551777D01*
X203856747Y-131533599D01*
X203842132Y-131513893D01*
X203829520Y-131492850D01*
X203819030Y-131470671D01*
X203810765Y-131447572D01*
X203804804Y-131423773D01*
X203801204Y-131399505D01*
X203800000Y-131375001D01*
X203800000Y-130724999D01*
X203801204Y-130700495D01*
X203804804Y-130676227D01*
X203810765Y-130652428D01*
X203819030Y-130629329D01*
X203829520Y-130607150D01*
X203842132Y-130586107D01*
X203856747Y-130566401D01*
X203873223Y-130548223D01*
X203891401Y-130531747D01*
X203911107Y-130517132D01*
X203932150Y-130504520D01*
X203954329Y-130494030D01*
X203977428Y-130485765D01*
X204001227Y-130479804D01*
X204025495Y-130476204D01*
X204049999Y-130475000D01*
X204950001Y-130475000D01*
X204974505Y-130476204D01*
G37*
G36*
X206974505Y-130476204D02*
G01*
X206998773Y-130479804D01*
X207022572Y-130485765D01*
X207045671Y-130494030D01*
X207067850Y-130504520D01*
X207088893Y-130517132D01*
X207108599Y-130531747D01*
X207126777Y-130548223D01*
X207143253Y-130566401D01*
X207157868Y-130586107D01*
X207170480Y-130607150D01*
X207180970Y-130629329D01*
X207189235Y-130652428D01*
X207195196Y-130676227D01*
X207198796Y-130700495D01*
X207200000Y-130724999D01*
X207200000Y-131375001D01*
X207198796Y-131399505D01*
X207195196Y-131423773D01*
X207189235Y-131447572D01*
X207180970Y-131470671D01*
X207170480Y-131492850D01*
X207157868Y-131513893D01*
X207143253Y-131533599D01*
X207126777Y-131551777D01*
X207108599Y-131568253D01*
X207088893Y-131582868D01*
X207067850Y-131595480D01*
X207045671Y-131605970D01*
X207022572Y-131614235D01*
X206998773Y-131620196D01*
X206974505Y-131623796D01*
X206950001Y-131625000D01*
X206049999Y-131625000D01*
X206025495Y-131623796D01*
X206001227Y-131620196D01*
X205977428Y-131614235D01*
X205954329Y-131605970D01*
X205932150Y-131595480D01*
X205911107Y-131582868D01*
X205891401Y-131568253D01*
X205873223Y-131551777D01*
X205856747Y-131533599D01*
X205842132Y-131513893D01*
X205829520Y-131492850D01*
X205819030Y-131470671D01*
X205810765Y-131447572D01*
X205804804Y-131423773D01*
X205801204Y-131399505D01*
X205800000Y-131375001D01*
X205800000Y-130724999D01*
X205801204Y-130700495D01*
X205804804Y-130676227D01*
X205810765Y-130652428D01*
X205819030Y-130629329D01*
X205829520Y-130607150D01*
X205842132Y-130586107D01*
X205856747Y-130566401D01*
X205873223Y-130548223D01*
X205891401Y-130531747D01*
X205911107Y-130517132D01*
X205932150Y-130504520D01*
X205954329Y-130494030D01*
X205977428Y-130485765D01*
X206001227Y-130479804D01*
X206025495Y-130476204D01*
X206049999Y-130475000D01*
X206950001Y-130475000D01*
X206974505Y-130476204D01*
G37*
G36*
X206974505Y-128426204D02*
G01*
X206998773Y-128429804D01*
X207022572Y-128435765D01*
X207045671Y-128444030D01*
X207067850Y-128454520D01*
X207088893Y-128467132D01*
X207108599Y-128481747D01*
X207126777Y-128498223D01*
X207143253Y-128516401D01*
X207157868Y-128536107D01*
X207170480Y-128557150D01*
X207180970Y-128579329D01*
X207189235Y-128602428D01*
X207195196Y-128626227D01*
X207198796Y-128650495D01*
X207200000Y-128674999D01*
X207200000Y-129325001D01*
X207198796Y-129349505D01*
X207195196Y-129373773D01*
X207189235Y-129397572D01*
X207180970Y-129420671D01*
X207170480Y-129442850D01*
X207157868Y-129463893D01*
X207143253Y-129483599D01*
X207126777Y-129501777D01*
X207108599Y-129518253D01*
X207088893Y-129532868D01*
X207067850Y-129545480D01*
X207045671Y-129555970D01*
X207022572Y-129564235D01*
X206998773Y-129570196D01*
X206974505Y-129573796D01*
X206950001Y-129575000D01*
X206049999Y-129575000D01*
X206025495Y-129573796D01*
X206001227Y-129570196D01*
X205977428Y-129564235D01*
X205954329Y-129555970D01*
X205932150Y-129545480D01*
X205911107Y-129532868D01*
X205891401Y-129518253D01*
X205873223Y-129501777D01*
X205856747Y-129483599D01*
X205842132Y-129463893D01*
X205829520Y-129442850D01*
X205819030Y-129420671D01*
X205810765Y-129397572D01*
X205804804Y-129373773D01*
X205801204Y-129349505D01*
X205800000Y-129325001D01*
X205800000Y-128674999D01*
X205801204Y-128650495D01*
X205804804Y-128626227D01*
X205810765Y-128602428D01*
X205819030Y-128579329D01*
X205829520Y-128557150D01*
X205842132Y-128536107D01*
X205856747Y-128516401D01*
X205873223Y-128498223D01*
X205891401Y-128481747D01*
X205911107Y-128467132D01*
X205932150Y-128454520D01*
X205954329Y-128444030D01*
X205977428Y-128435765D01*
X206001227Y-128429804D01*
X206025495Y-128426204D01*
X206049999Y-128425000D01*
X206950001Y-128425000D01*
X206974505Y-128426204D01*
G37*
G36*
X200224505Y-123701204D02*
G01*
X200248773Y-123704804D01*
X200272572Y-123710765D01*
X200295671Y-123719030D01*
X200317850Y-123729520D01*
X200338893Y-123742132D01*
X200358599Y-123756747D01*
X200376777Y-123773223D01*
X200393253Y-123791401D01*
X200407868Y-123811107D01*
X200420480Y-123832150D01*
X200430970Y-123854329D01*
X200439235Y-123877428D01*
X200445196Y-123901227D01*
X200448796Y-123925495D01*
X200450000Y-123949999D01*
X200450000Y-124600001D01*
X200448796Y-124624505D01*
X200445196Y-124648773D01*
X200439235Y-124672572D01*
X200430970Y-124695671D01*
X200420480Y-124717850D01*
X200407868Y-124738893D01*
X200393253Y-124758599D01*
X200376777Y-124776777D01*
X200358599Y-124793253D01*
X200338893Y-124807868D01*
X200317850Y-124820480D01*
X200295671Y-124830970D01*
X200272572Y-124839235D01*
X200248773Y-124845196D01*
X200224505Y-124848796D01*
X200200001Y-124850000D01*
X199299999Y-124850000D01*
X199275495Y-124848796D01*
X199251227Y-124845196D01*
X199227428Y-124839235D01*
X199204329Y-124830970D01*
X199182150Y-124820480D01*
X199161107Y-124807868D01*
X199141401Y-124793253D01*
X199123223Y-124776777D01*
X199106747Y-124758599D01*
X199092132Y-124738893D01*
X199079520Y-124717850D01*
X199069030Y-124695671D01*
X199060765Y-124672572D01*
X199054804Y-124648773D01*
X199051204Y-124624505D01*
X199050000Y-124600001D01*
X199050000Y-123949999D01*
X199051204Y-123925495D01*
X199054804Y-123901227D01*
X199060765Y-123877428D01*
X199069030Y-123854329D01*
X199079520Y-123832150D01*
X199092132Y-123811107D01*
X199106747Y-123791401D01*
X199123223Y-123773223D01*
X199141401Y-123756747D01*
X199161107Y-123742132D01*
X199182150Y-123729520D01*
X199204329Y-123719030D01*
X199227428Y-123710765D01*
X199251227Y-123704804D01*
X199275495Y-123701204D01*
X199299999Y-123700000D01*
X200200001Y-123700000D01*
X200224505Y-123701204D01*
G37*
G36*
X200224505Y-121651204D02*
G01*
X200248773Y-121654804D01*
X200272572Y-121660765D01*
X200295671Y-121669030D01*
X200317850Y-121679520D01*
X200338893Y-121692132D01*
X200358599Y-121706747D01*
X200376777Y-121723223D01*
X200393253Y-121741401D01*
X200407868Y-121761107D01*
X200420480Y-121782150D01*
X200430970Y-121804329D01*
X200439235Y-121827428D01*
X200445196Y-121851227D01*
X200448796Y-121875495D01*
X200450000Y-121899999D01*
X200450000Y-122550001D01*
X200448796Y-122574505D01*
X200445196Y-122598773D01*
X200439235Y-122622572D01*
X200430970Y-122645671D01*
X200420480Y-122667850D01*
X200407868Y-122688893D01*
X200393253Y-122708599D01*
X200376777Y-122726777D01*
X200358599Y-122743253D01*
X200338893Y-122757868D01*
X200317850Y-122770480D01*
X200295671Y-122780970D01*
X200272572Y-122789235D01*
X200248773Y-122795196D01*
X200224505Y-122798796D01*
X200200001Y-122800000D01*
X199299999Y-122800000D01*
X199275495Y-122798796D01*
X199251227Y-122795196D01*
X199227428Y-122789235D01*
X199204329Y-122780970D01*
X199182150Y-122770480D01*
X199161107Y-122757868D01*
X199141401Y-122743253D01*
X199123223Y-122726777D01*
X199106747Y-122708599D01*
X199092132Y-122688893D01*
X199079520Y-122667850D01*
X199069030Y-122645671D01*
X199060765Y-122622572D01*
X199054804Y-122598773D01*
X199051204Y-122574505D01*
X199050000Y-122550001D01*
X199050000Y-121899999D01*
X199051204Y-121875495D01*
X199054804Y-121851227D01*
X199060765Y-121827428D01*
X199069030Y-121804329D01*
X199079520Y-121782150D01*
X199092132Y-121761107D01*
X199106747Y-121741401D01*
X199123223Y-121723223D01*
X199141401Y-121706747D01*
X199161107Y-121692132D01*
X199182150Y-121679520D01*
X199204329Y-121669030D01*
X199227428Y-121660765D01*
X199251227Y-121654804D01*
X199275495Y-121651204D01*
X199299999Y-121650000D01*
X200200001Y-121650000D01*
X200224505Y-121651204D01*
G37*
G36*
X197849504Y-124526204D02*
G01*
X197873773Y-124529804D01*
X197897571Y-124535765D01*
X197920671Y-124544030D01*
X197942849Y-124554520D01*
X197963893Y-124567133D01*
X197983598Y-124581747D01*
X198001777Y-124598223D01*
X198018253Y-124616402D01*
X198032867Y-124636107D01*
X198045480Y-124657151D01*
X198055970Y-124679329D01*
X198064235Y-124702429D01*
X198070196Y-124726227D01*
X198073796Y-124750496D01*
X198075000Y-124775000D01*
X198075000Y-125700000D01*
X198073796Y-125724504D01*
X198070196Y-125748773D01*
X198064235Y-125772571D01*
X198055970Y-125795671D01*
X198045480Y-125817849D01*
X198032867Y-125838893D01*
X198018253Y-125858598D01*
X198001777Y-125876777D01*
X197983598Y-125893253D01*
X197963893Y-125907867D01*
X197942849Y-125920480D01*
X197920671Y-125930970D01*
X197897571Y-125939235D01*
X197873773Y-125945196D01*
X197849504Y-125948796D01*
X197825000Y-125950000D01*
X195675000Y-125950000D01*
X195650496Y-125948796D01*
X195626227Y-125945196D01*
X195602429Y-125939235D01*
X195579329Y-125930970D01*
X195557151Y-125920480D01*
X195536107Y-125907867D01*
X195516402Y-125893253D01*
X195498223Y-125876777D01*
X195481747Y-125858598D01*
X195467133Y-125838893D01*
X195454520Y-125817849D01*
X195444030Y-125795671D01*
X195435765Y-125772571D01*
X195429804Y-125748773D01*
X195426204Y-125724504D01*
X195425000Y-125700000D01*
X195425000Y-124775000D01*
X195426204Y-124750496D01*
X195429804Y-124726227D01*
X195435765Y-124702429D01*
X195444030Y-124679329D01*
X195454520Y-124657151D01*
X195467133Y-124636107D01*
X195481747Y-124616402D01*
X195498223Y-124598223D01*
X195516402Y-124581747D01*
X195536107Y-124567133D01*
X195557151Y-124554520D01*
X195579329Y-124544030D01*
X195602429Y-124535765D01*
X195626227Y-124529804D01*
X195650496Y-124526204D01*
X195675000Y-124525000D01*
X197825000Y-124525000D01*
X197849504Y-124526204D01*
G37*
G36*
X197849504Y-121551204D02*
G01*
X197873773Y-121554804D01*
X197897571Y-121560765D01*
X197920671Y-121569030D01*
X197942849Y-121579520D01*
X197963893Y-121592133D01*
X197983598Y-121606747D01*
X198001777Y-121623223D01*
X198018253Y-121641402D01*
X198032867Y-121661107D01*
X198045480Y-121682151D01*
X198055970Y-121704329D01*
X198064235Y-121727429D01*
X198070196Y-121751227D01*
X198073796Y-121775496D01*
X198075000Y-121800000D01*
X198075000Y-122725000D01*
X198073796Y-122749504D01*
X198070196Y-122773773D01*
X198064235Y-122797571D01*
X198055970Y-122820671D01*
X198045480Y-122842849D01*
X198032867Y-122863893D01*
X198018253Y-122883598D01*
X198001777Y-122901777D01*
X197983598Y-122918253D01*
X197963893Y-122932867D01*
X197942849Y-122945480D01*
X197920671Y-122955970D01*
X197897571Y-122964235D01*
X197873773Y-122970196D01*
X197849504Y-122973796D01*
X197825000Y-122975000D01*
X195675000Y-122975000D01*
X195650496Y-122973796D01*
X195626227Y-122970196D01*
X195602429Y-122964235D01*
X195579329Y-122955970D01*
X195557151Y-122945480D01*
X195536107Y-122932867D01*
X195516402Y-122918253D01*
X195498223Y-122901777D01*
X195481747Y-122883598D01*
X195467133Y-122863893D01*
X195454520Y-122842849D01*
X195444030Y-122820671D01*
X195435765Y-122797571D01*
X195429804Y-122773773D01*
X195426204Y-122749504D01*
X195425000Y-122725000D01*
X195425000Y-121800000D01*
X195426204Y-121775496D01*
X195429804Y-121751227D01*
X195435765Y-121727429D01*
X195444030Y-121704329D01*
X195454520Y-121682151D01*
X195467133Y-121661107D01*
X195481747Y-121641402D01*
X195498223Y-121623223D01*
X195516402Y-121606747D01*
X195536107Y-121592133D01*
X195557151Y-121579520D01*
X195579329Y-121569030D01*
X195602429Y-121560765D01*
X195626227Y-121554804D01*
X195650496Y-121551204D01*
X195675000Y-121550000D01*
X197825000Y-121550000D01*
X197849504Y-121551204D01*
G37*
G36*
X194349504Y-121551204D02*
G01*
X194373773Y-121554804D01*
X194397571Y-121560765D01*
X194420671Y-121569030D01*
X194442849Y-121579520D01*
X194463893Y-121592133D01*
X194483598Y-121606747D01*
X194501777Y-121623223D01*
X194518253Y-121641402D01*
X194532867Y-121661107D01*
X194545480Y-121682151D01*
X194555970Y-121704329D01*
X194564235Y-121727429D01*
X194570196Y-121751227D01*
X194573796Y-121775496D01*
X194575000Y-121800000D01*
X194575000Y-122725000D01*
X194573796Y-122749504D01*
X194570196Y-122773773D01*
X194564235Y-122797571D01*
X194555970Y-122820671D01*
X194545480Y-122842849D01*
X194532867Y-122863893D01*
X194518253Y-122883598D01*
X194501777Y-122901777D01*
X194483598Y-122918253D01*
X194463893Y-122932867D01*
X194442849Y-122945480D01*
X194420671Y-122955970D01*
X194397571Y-122964235D01*
X194373773Y-122970196D01*
X194349504Y-122973796D01*
X194325000Y-122975000D01*
X192175000Y-122975000D01*
X192150496Y-122973796D01*
X192126227Y-122970196D01*
X192102429Y-122964235D01*
X192079329Y-122955970D01*
X192057151Y-122945480D01*
X192036107Y-122932867D01*
X192016402Y-122918253D01*
X191998223Y-122901777D01*
X191981747Y-122883598D01*
X191967133Y-122863893D01*
X191954520Y-122842849D01*
X191944030Y-122820671D01*
X191935765Y-122797571D01*
X191929804Y-122773773D01*
X191926204Y-122749504D01*
X191925000Y-122725000D01*
X191925000Y-121800000D01*
X191926204Y-121775496D01*
X191929804Y-121751227D01*
X191935765Y-121727429D01*
X191944030Y-121704329D01*
X191954520Y-121682151D01*
X191967133Y-121661107D01*
X191981747Y-121641402D01*
X191998223Y-121623223D01*
X192016402Y-121606747D01*
X192036107Y-121592133D01*
X192057151Y-121579520D01*
X192079329Y-121569030D01*
X192102429Y-121560765D01*
X192126227Y-121554804D01*
X192150496Y-121551204D01*
X192175000Y-121550000D01*
X194325000Y-121550000D01*
X194349504Y-121551204D01*
G37*
G36*
X194349504Y-124526204D02*
G01*
X194373773Y-124529804D01*
X194397571Y-124535765D01*
X194420671Y-124544030D01*
X194442849Y-124554520D01*
X194463893Y-124567133D01*
X194483598Y-124581747D01*
X194501777Y-124598223D01*
X194518253Y-124616402D01*
X194532867Y-124636107D01*
X194545480Y-124657151D01*
X194555970Y-124679329D01*
X194564235Y-124702429D01*
X194570196Y-124726227D01*
X194573796Y-124750496D01*
X194575000Y-124775000D01*
X194575000Y-125700000D01*
X194573796Y-125724504D01*
X194570196Y-125748773D01*
X194564235Y-125772571D01*
X194555970Y-125795671D01*
X194545480Y-125817849D01*
X194532867Y-125838893D01*
X194518253Y-125858598D01*
X194501777Y-125876777D01*
X194483598Y-125893253D01*
X194463893Y-125907867D01*
X194442849Y-125920480D01*
X194420671Y-125930970D01*
X194397571Y-125939235D01*
X194373773Y-125945196D01*
X194349504Y-125948796D01*
X194325000Y-125950000D01*
X192175000Y-125950000D01*
X192150496Y-125948796D01*
X192126227Y-125945196D01*
X192102429Y-125939235D01*
X192079329Y-125930970D01*
X192057151Y-125920480D01*
X192036107Y-125907867D01*
X192016402Y-125893253D01*
X191998223Y-125876777D01*
X191981747Y-125858598D01*
X191967133Y-125838893D01*
X191954520Y-125817849D01*
X191944030Y-125795671D01*
X191935765Y-125772571D01*
X191929804Y-125748773D01*
X191926204Y-125724504D01*
X191925000Y-125700000D01*
X191925000Y-124775000D01*
X191926204Y-124750496D01*
X191929804Y-124726227D01*
X191935765Y-124702429D01*
X191944030Y-124679329D01*
X191954520Y-124657151D01*
X191967133Y-124636107D01*
X191981747Y-124616402D01*
X191998223Y-124598223D01*
X192016402Y-124581747D01*
X192036107Y-124567133D01*
X192057151Y-124554520D01*
X192079329Y-124544030D01*
X192102429Y-124535765D01*
X192126227Y-124529804D01*
X192150496Y-124526204D01*
X192175000Y-124525000D01*
X194325000Y-124525000D01*
X194349504Y-124526204D01*
G37*
G36*
X185724505Y-130701204D02*
G01*
X185748773Y-130704804D01*
X185772572Y-130710765D01*
X185795671Y-130719030D01*
X185817850Y-130729520D01*
X185838893Y-130742132D01*
X185858599Y-130756747D01*
X185876777Y-130773223D01*
X185893253Y-130791401D01*
X185907868Y-130811107D01*
X185920480Y-130832150D01*
X185930970Y-130854329D01*
X185939235Y-130877428D01*
X185945196Y-130901227D01*
X185948796Y-130925495D01*
X185950000Y-130949999D01*
X185950000Y-131600001D01*
X185948796Y-131624505D01*
X185945196Y-131648773D01*
X185939235Y-131672572D01*
X185930970Y-131695671D01*
X185920480Y-131717850D01*
X185907868Y-131738893D01*
X185893253Y-131758599D01*
X185876777Y-131776777D01*
X185858599Y-131793253D01*
X185838893Y-131807868D01*
X185817850Y-131820480D01*
X185795671Y-131830970D01*
X185772572Y-131839235D01*
X185748773Y-131845196D01*
X185724505Y-131848796D01*
X185700001Y-131850000D01*
X184799999Y-131850000D01*
X184775495Y-131848796D01*
X184751227Y-131845196D01*
X184727428Y-131839235D01*
X184704329Y-131830970D01*
X184682150Y-131820480D01*
X184661107Y-131807868D01*
X184641401Y-131793253D01*
X184623223Y-131776777D01*
X184606747Y-131758599D01*
X184592132Y-131738893D01*
X184579520Y-131717850D01*
X184569030Y-131695671D01*
X184560765Y-131672572D01*
X184554804Y-131648773D01*
X184551204Y-131624505D01*
X184550000Y-131600001D01*
X184550000Y-130949999D01*
X184551204Y-130925495D01*
X184554804Y-130901227D01*
X184560765Y-130877428D01*
X184569030Y-130854329D01*
X184579520Y-130832150D01*
X184592132Y-130811107D01*
X184606747Y-130791401D01*
X184623223Y-130773223D01*
X184641401Y-130756747D01*
X184661107Y-130742132D01*
X184682150Y-130729520D01*
X184704329Y-130719030D01*
X184727428Y-130710765D01*
X184751227Y-130704804D01*
X184775495Y-130701204D01*
X184799999Y-130700000D01*
X185700001Y-130700000D01*
X185724505Y-130701204D01*
G37*
G36*
X185724505Y-128651204D02*
G01*
X185748773Y-128654804D01*
X185772572Y-128660765D01*
X185795671Y-128669030D01*
X185817850Y-128679520D01*
X185838893Y-128692132D01*
X185858599Y-128706747D01*
X185876777Y-128723223D01*
X185893253Y-128741401D01*
X185907868Y-128761107D01*
X185920480Y-128782150D01*
X185930970Y-128804329D01*
X185939235Y-128827428D01*
X185945196Y-128851227D01*
X185948796Y-128875495D01*
X185950000Y-128899999D01*
X185950000Y-129550001D01*
X185948796Y-129574505D01*
X185945196Y-129598773D01*
X185939235Y-129622572D01*
X185930970Y-129645671D01*
X185920480Y-129667850D01*
X185907868Y-129688893D01*
X185893253Y-129708599D01*
X185876777Y-129726777D01*
X185858599Y-129743253D01*
X185838893Y-129757868D01*
X185817850Y-129770480D01*
X185795671Y-129780970D01*
X185772572Y-129789235D01*
X185748773Y-129795196D01*
X185724505Y-129798796D01*
X185700001Y-129800000D01*
X184799999Y-129800000D01*
X184775495Y-129798796D01*
X184751227Y-129795196D01*
X184727428Y-129789235D01*
X184704329Y-129780970D01*
X184682150Y-129770480D01*
X184661107Y-129757868D01*
X184641401Y-129743253D01*
X184623223Y-129726777D01*
X184606747Y-129708599D01*
X184592132Y-129688893D01*
X184579520Y-129667850D01*
X184569030Y-129645671D01*
X184560765Y-129622572D01*
X184554804Y-129598773D01*
X184551204Y-129574505D01*
X184550000Y-129550001D01*
X184550000Y-128899999D01*
X184551204Y-128875495D01*
X184554804Y-128851227D01*
X184560765Y-128827428D01*
X184569030Y-128804329D01*
X184579520Y-128782150D01*
X184592132Y-128761107D01*
X184606747Y-128741401D01*
X184623223Y-128723223D01*
X184641401Y-128706747D01*
X184661107Y-128692132D01*
X184682150Y-128679520D01*
X184704329Y-128669030D01*
X184727428Y-128660765D01*
X184751227Y-128654804D01*
X184775495Y-128651204D01*
X184799999Y-128650000D01*
X185700001Y-128650000D01*
X185724505Y-128651204D01*
G37*
G36*
X187724505Y-128651204D02*
G01*
X187748773Y-128654804D01*
X187772572Y-128660765D01*
X187795671Y-128669030D01*
X187817850Y-128679520D01*
X187838893Y-128692132D01*
X187858599Y-128706747D01*
X187876777Y-128723223D01*
X187893253Y-128741401D01*
X187907868Y-128761107D01*
X187920480Y-128782150D01*
X187930970Y-128804329D01*
X187939235Y-128827428D01*
X187945196Y-128851227D01*
X187948796Y-128875495D01*
X187950000Y-128899999D01*
X187950000Y-129550001D01*
X187948796Y-129574505D01*
X187945196Y-129598773D01*
X187939235Y-129622572D01*
X187930970Y-129645671D01*
X187920480Y-129667850D01*
X187907868Y-129688893D01*
X187893253Y-129708599D01*
X187876777Y-129726777D01*
X187858599Y-129743253D01*
X187838893Y-129757868D01*
X187817850Y-129770480D01*
X187795671Y-129780970D01*
X187772572Y-129789235D01*
X187748773Y-129795196D01*
X187724505Y-129798796D01*
X187700001Y-129800000D01*
X186799999Y-129800000D01*
X186775495Y-129798796D01*
X186751227Y-129795196D01*
X186727428Y-129789235D01*
X186704329Y-129780970D01*
X186682150Y-129770480D01*
X186661107Y-129757868D01*
X186641401Y-129743253D01*
X186623223Y-129726777D01*
X186606747Y-129708599D01*
X186592132Y-129688893D01*
X186579520Y-129667850D01*
X186569030Y-129645671D01*
X186560765Y-129622572D01*
X186554804Y-129598773D01*
X186551204Y-129574505D01*
X186550000Y-129550001D01*
X186550000Y-128899999D01*
X186551204Y-128875495D01*
X186554804Y-128851227D01*
X186560765Y-128827428D01*
X186569030Y-128804329D01*
X186579520Y-128782150D01*
X186592132Y-128761107D01*
X186606747Y-128741401D01*
X186623223Y-128723223D01*
X186641401Y-128706747D01*
X186661107Y-128692132D01*
X186682150Y-128679520D01*
X186704329Y-128669030D01*
X186727428Y-128660765D01*
X186751227Y-128654804D01*
X186775495Y-128651204D01*
X186799999Y-128650000D01*
X187700001Y-128650000D01*
X187724505Y-128651204D01*
G37*
G36*
X187724505Y-130701204D02*
G01*
X187748773Y-130704804D01*
X187772572Y-130710765D01*
X187795671Y-130719030D01*
X187817850Y-130729520D01*
X187838893Y-130742132D01*
X187858599Y-130756747D01*
X187876777Y-130773223D01*
X187893253Y-130791401D01*
X187907868Y-130811107D01*
X187920480Y-130832150D01*
X187930970Y-130854329D01*
X187939235Y-130877428D01*
X187945196Y-130901227D01*
X187948796Y-130925495D01*
X187950000Y-130949999D01*
X187950000Y-131600001D01*
X187948796Y-131624505D01*
X187945196Y-131648773D01*
X187939235Y-131672572D01*
X187930970Y-131695671D01*
X187920480Y-131717850D01*
X187907868Y-131738893D01*
X187893253Y-131758599D01*
X187876777Y-131776777D01*
X187858599Y-131793253D01*
X187838893Y-131807868D01*
X187817850Y-131820480D01*
X187795671Y-131830970D01*
X187772572Y-131839235D01*
X187748773Y-131845196D01*
X187724505Y-131848796D01*
X187700001Y-131850000D01*
X186799999Y-131850000D01*
X186775495Y-131848796D01*
X186751227Y-131845196D01*
X186727428Y-131839235D01*
X186704329Y-131830970D01*
X186682150Y-131820480D01*
X186661107Y-131807868D01*
X186641401Y-131793253D01*
X186623223Y-131776777D01*
X186606747Y-131758599D01*
X186592132Y-131738893D01*
X186579520Y-131717850D01*
X186569030Y-131695671D01*
X186560765Y-131672572D01*
X186554804Y-131648773D01*
X186551204Y-131624505D01*
X186550000Y-131600001D01*
X186550000Y-130949999D01*
X186551204Y-130925495D01*
X186554804Y-130901227D01*
X186560765Y-130877428D01*
X186569030Y-130854329D01*
X186579520Y-130832150D01*
X186592132Y-130811107D01*
X186606747Y-130791401D01*
X186623223Y-130773223D01*
X186641401Y-130756747D01*
X186661107Y-130742132D01*
X186682150Y-130729520D01*
X186704329Y-130719030D01*
X186727428Y-130710765D01*
X186751227Y-130704804D01*
X186775495Y-130701204D01*
X186799999Y-130700000D01*
X187700001Y-130700000D01*
X187724505Y-130701204D01*
G37*
G36*
X174474505Y-143701204D02*
G01*
X174498773Y-143704804D01*
X174522572Y-143710765D01*
X174545671Y-143719030D01*
X174567850Y-143729520D01*
X174588893Y-143742132D01*
X174608599Y-143756747D01*
X174626777Y-143773223D01*
X174643253Y-143791401D01*
X174657868Y-143811107D01*
X174670480Y-143832150D01*
X174680970Y-143854329D01*
X174689235Y-143877428D01*
X174695196Y-143901227D01*
X174698796Y-143925495D01*
X174700000Y-143949999D01*
X174700000Y-144600001D01*
X174698796Y-144624505D01*
X174695196Y-144648773D01*
X174689235Y-144672572D01*
X174680970Y-144695671D01*
X174670480Y-144717850D01*
X174657868Y-144738893D01*
X174643253Y-144758599D01*
X174626777Y-144776777D01*
X174608599Y-144793253D01*
X174588893Y-144807868D01*
X174567850Y-144820480D01*
X174545671Y-144830970D01*
X174522572Y-144839235D01*
X174498773Y-144845196D01*
X174474505Y-144848796D01*
X174450001Y-144850000D01*
X173549999Y-144850000D01*
X173525495Y-144848796D01*
X173501227Y-144845196D01*
X173477428Y-144839235D01*
X173454329Y-144830970D01*
X173432150Y-144820480D01*
X173411107Y-144807868D01*
X173391401Y-144793253D01*
X173373223Y-144776777D01*
X173356747Y-144758599D01*
X173342132Y-144738893D01*
X173329520Y-144717850D01*
X173319030Y-144695671D01*
X173310765Y-144672572D01*
X173304804Y-144648773D01*
X173301204Y-144624505D01*
X173300000Y-144600001D01*
X173300000Y-143949999D01*
X173301204Y-143925495D01*
X173304804Y-143901227D01*
X173310765Y-143877428D01*
X173319030Y-143854329D01*
X173329520Y-143832150D01*
X173342132Y-143811107D01*
X173356747Y-143791401D01*
X173373223Y-143773223D01*
X173391401Y-143756747D01*
X173411107Y-143742132D01*
X173432150Y-143729520D01*
X173454329Y-143719030D01*
X173477428Y-143710765D01*
X173501227Y-143704804D01*
X173525495Y-143701204D01*
X173549999Y-143700000D01*
X174450001Y-143700000D01*
X174474505Y-143701204D01*
G37*
G36*
X174474505Y-141651204D02*
G01*
X174498773Y-141654804D01*
X174522572Y-141660765D01*
X174545671Y-141669030D01*
X174567850Y-141679520D01*
X174588893Y-141692132D01*
X174608599Y-141706747D01*
X174626777Y-141723223D01*
X174643253Y-141741401D01*
X174657868Y-141761107D01*
X174670480Y-141782150D01*
X174680970Y-141804329D01*
X174689235Y-141827428D01*
X174695196Y-141851227D01*
X174698796Y-141875495D01*
X174700000Y-141899999D01*
X174700000Y-142550001D01*
X174698796Y-142574505D01*
X174695196Y-142598773D01*
X174689235Y-142622572D01*
X174680970Y-142645671D01*
X174670480Y-142667850D01*
X174657868Y-142688893D01*
X174643253Y-142708599D01*
X174626777Y-142726777D01*
X174608599Y-142743253D01*
X174588893Y-142757868D01*
X174567850Y-142770480D01*
X174545671Y-142780970D01*
X174522572Y-142789235D01*
X174498773Y-142795196D01*
X174474505Y-142798796D01*
X174450001Y-142800000D01*
X173549999Y-142800000D01*
X173525495Y-142798796D01*
X173501227Y-142795196D01*
X173477428Y-142789235D01*
X173454329Y-142780970D01*
X173432150Y-142770480D01*
X173411107Y-142757868D01*
X173391401Y-142743253D01*
X173373223Y-142726777D01*
X173356747Y-142708599D01*
X173342132Y-142688893D01*
X173329520Y-142667850D01*
X173319030Y-142645671D01*
X173310765Y-142622572D01*
X173304804Y-142598773D01*
X173301204Y-142574505D01*
X173300000Y-142550001D01*
X173300000Y-141899999D01*
X173301204Y-141875495D01*
X173304804Y-141851227D01*
X173310765Y-141827428D01*
X173319030Y-141804329D01*
X173329520Y-141782150D01*
X173342132Y-141761107D01*
X173356747Y-141741401D01*
X173373223Y-141723223D01*
X173391401Y-141706747D01*
X173411107Y-141692132D01*
X173432150Y-141679520D01*
X173454329Y-141669030D01*
X173477428Y-141660765D01*
X173501227Y-141654804D01*
X173525495Y-141651204D01*
X173549999Y-141650000D01*
X174450001Y-141650000D01*
X174474505Y-141651204D01*
G37*
G36*
X172474505Y-141651204D02*
G01*
X172498773Y-141654804D01*
X172522572Y-141660765D01*
X172545671Y-141669030D01*
X172567850Y-141679520D01*
X172588893Y-141692132D01*
X172608599Y-141706747D01*
X172626777Y-141723223D01*
X172643253Y-141741401D01*
X172657868Y-141761107D01*
X172670480Y-141782150D01*
X172680970Y-141804329D01*
X172689235Y-141827428D01*
X172695196Y-141851227D01*
X172698796Y-141875495D01*
X172700000Y-141899999D01*
X172700000Y-142550001D01*
X172698796Y-142574505D01*
X172695196Y-142598773D01*
X172689235Y-142622572D01*
X172680970Y-142645671D01*
X172670480Y-142667850D01*
X172657868Y-142688893D01*
X172643253Y-142708599D01*
X172626777Y-142726777D01*
X172608599Y-142743253D01*
X172588893Y-142757868D01*
X172567850Y-142770480D01*
X172545671Y-142780970D01*
X172522572Y-142789235D01*
X172498773Y-142795196D01*
X172474505Y-142798796D01*
X172450001Y-142800000D01*
X171549999Y-142800000D01*
X171525495Y-142798796D01*
X171501227Y-142795196D01*
X171477428Y-142789235D01*
X171454329Y-142780970D01*
X171432150Y-142770480D01*
X171411107Y-142757868D01*
X171391401Y-142743253D01*
X171373223Y-142726777D01*
X171356747Y-142708599D01*
X171342132Y-142688893D01*
X171329520Y-142667850D01*
X171319030Y-142645671D01*
X171310765Y-142622572D01*
X171304804Y-142598773D01*
X171301204Y-142574505D01*
X171300000Y-142550001D01*
X171300000Y-141899999D01*
X171301204Y-141875495D01*
X171304804Y-141851227D01*
X171310765Y-141827428D01*
X171319030Y-141804329D01*
X171329520Y-141782150D01*
X171342132Y-141761107D01*
X171356747Y-141741401D01*
X171373223Y-141723223D01*
X171391401Y-141706747D01*
X171411107Y-141692132D01*
X171432150Y-141679520D01*
X171454329Y-141669030D01*
X171477428Y-141660765D01*
X171501227Y-141654804D01*
X171525495Y-141651204D01*
X171549999Y-141650000D01*
X172450001Y-141650000D01*
X172474505Y-141651204D01*
G37*
G36*
X172474505Y-143701204D02*
G01*
X172498773Y-143704804D01*
X172522572Y-143710765D01*
X172545671Y-143719030D01*
X172567850Y-143729520D01*
X172588893Y-143742132D01*
X172608599Y-143756747D01*
X172626777Y-143773223D01*
X172643253Y-143791401D01*
X172657868Y-143811107D01*
X172670480Y-143832150D01*
X172680970Y-143854329D01*
X172689235Y-143877428D01*
X172695196Y-143901227D01*
X172698796Y-143925495D01*
X172700000Y-143949999D01*
X172700000Y-144600001D01*
X172698796Y-144624505D01*
X172695196Y-144648773D01*
X172689235Y-144672572D01*
X172680970Y-144695671D01*
X172670480Y-144717850D01*
X172657868Y-144738893D01*
X172643253Y-144758599D01*
X172626777Y-144776777D01*
X172608599Y-144793253D01*
X172588893Y-144807868D01*
X172567850Y-144820480D01*
X172545671Y-144830970D01*
X172522572Y-144839235D01*
X172498773Y-144845196D01*
X172474505Y-144848796D01*
X172450001Y-144850000D01*
X171549999Y-144850000D01*
X171525495Y-144848796D01*
X171501227Y-144845196D01*
X171477428Y-144839235D01*
X171454329Y-144830970D01*
X171432150Y-144820480D01*
X171411107Y-144807868D01*
X171391401Y-144793253D01*
X171373223Y-144776777D01*
X171356747Y-144758599D01*
X171342132Y-144738893D01*
X171329520Y-144717850D01*
X171319030Y-144695671D01*
X171310765Y-144672572D01*
X171304804Y-144648773D01*
X171301204Y-144624505D01*
X171300000Y-144600001D01*
X171300000Y-143949999D01*
X171301204Y-143925495D01*
X171304804Y-143901227D01*
X171310765Y-143877428D01*
X171319030Y-143854329D01*
X171329520Y-143832150D01*
X171342132Y-143811107D01*
X171356747Y-143791401D01*
X171373223Y-143773223D01*
X171391401Y-143756747D01*
X171411107Y-143742132D01*
X171432150Y-143729520D01*
X171454329Y-143719030D01*
X171477428Y-143710765D01*
X171501227Y-143704804D01*
X171525495Y-143701204D01*
X171549999Y-143700000D01*
X172450001Y-143700000D01*
X172474505Y-143701204D01*
G37*
G36*
X175474505Y-131951204D02*
G01*
X175498773Y-131954804D01*
X175522572Y-131960765D01*
X175545671Y-131969030D01*
X175567850Y-131979520D01*
X175588893Y-131992132D01*
X175608599Y-132006747D01*
X175626777Y-132023223D01*
X175643253Y-132041401D01*
X175657868Y-132061107D01*
X175670480Y-132082150D01*
X175680970Y-132104329D01*
X175689235Y-132127428D01*
X175695196Y-132151227D01*
X175698796Y-132175495D01*
X175700000Y-132199999D01*
X175700000Y-132850001D01*
X175698796Y-132874505D01*
X175695196Y-132898773D01*
X175689235Y-132922572D01*
X175680970Y-132945671D01*
X175670480Y-132967850D01*
X175657868Y-132988893D01*
X175643253Y-133008599D01*
X175626777Y-133026777D01*
X175608599Y-133043253D01*
X175588893Y-133057868D01*
X175567850Y-133070480D01*
X175545671Y-133080970D01*
X175522572Y-133089235D01*
X175498773Y-133095196D01*
X175474505Y-133098796D01*
X175450001Y-133100000D01*
X174549999Y-133100000D01*
X174525495Y-133098796D01*
X174501227Y-133095196D01*
X174477428Y-133089235D01*
X174454329Y-133080970D01*
X174432150Y-133070480D01*
X174411107Y-133057868D01*
X174391401Y-133043253D01*
X174373223Y-133026777D01*
X174356747Y-133008599D01*
X174342132Y-132988893D01*
X174329520Y-132967850D01*
X174319030Y-132945671D01*
X174310765Y-132922572D01*
X174304804Y-132898773D01*
X174301204Y-132874505D01*
X174300000Y-132850001D01*
X174300000Y-132199999D01*
X174301204Y-132175495D01*
X174304804Y-132151227D01*
X174310765Y-132127428D01*
X174319030Y-132104329D01*
X174329520Y-132082150D01*
X174342132Y-132061107D01*
X174356747Y-132041401D01*
X174373223Y-132023223D01*
X174391401Y-132006747D01*
X174411107Y-131992132D01*
X174432150Y-131979520D01*
X174454329Y-131969030D01*
X174477428Y-131960765D01*
X174501227Y-131954804D01*
X174525495Y-131951204D01*
X174549999Y-131950000D01*
X175450001Y-131950000D01*
X175474505Y-131951204D01*
G37*
G36*
X175474505Y-129901204D02*
G01*
X175498773Y-129904804D01*
X175522572Y-129910765D01*
X175545671Y-129919030D01*
X175567850Y-129929520D01*
X175588893Y-129942132D01*
X175608599Y-129956747D01*
X175626777Y-129973223D01*
X175643253Y-129991401D01*
X175657868Y-130011107D01*
X175670480Y-130032150D01*
X175680970Y-130054329D01*
X175689235Y-130077428D01*
X175695196Y-130101227D01*
X175698796Y-130125495D01*
X175700000Y-130149999D01*
X175700000Y-130800001D01*
X175698796Y-130824505D01*
X175695196Y-130848773D01*
X175689235Y-130872572D01*
X175680970Y-130895671D01*
X175670480Y-130917850D01*
X175657868Y-130938893D01*
X175643253Y-130958599D01*
X175626777Y-130976777D01*
X175608599Y-130993253D01*
X175588893Y-131007868D01*
X175567850Y-131020480D01*
X175545671Y-131030970D01*
X175522572Y-131039235D01*
X175498773Y-131045196D01*
X175474505Y-131048796D01*
X175450001Y-131050000D01*
X174549999Y-131050000D01*
X174525495Y-131048796D01*
X174501227Y-131045196D01*
X174477428Y-131039235D01*
X174454329Y-131030970D01*
X174432150Y-131020480D01*
X174411107Y-131007868D01*
X174391401Y-130993253D01*
X174373223Y-130976777D01*
X174356747Y-130958599D01*
X174342132Y-130938893D01*
X174329520Y-130917850D01*
X174319030Y-130895671D01*
X174310765Y-130872572D01*
X174304804Y-130848773D01*
X174301204Y-130824505D01*
X174300000Y-130800001D01*
X174300000Y-130149999D01*
X174301204Y-130125495D01*
X174304804Y-130101227D01*
X174310765Y-130077428D01*
X174319030Y-130054329D01*
X174329520Y-130032150D01*
X174342132Y-130011107D01*
X174356747Y-129991401D01*
X174373223Y-129973223D01*
X174391401Y-129956747D01*
X174411107Y-129942132D01*
X174432150Y-129929520D01*
X174454329Y-129919030D01*
X174477428Y-129910765D01*
X174501227Y-129904804D01*
X174525495Y-129901204D01*
X174549999Y-129900000D01*
X175450001Y-129900000D01*
X175474505Y-129901204D01*
G37*
G36*
X173474505Y-129901204D02*
G01*
X173498773Y-129904804D01*
X173522572Y-129910765D01*
X173545671Y-129919030D01*
X173567850Y-129929520D01*
X173588893Y-129942132D01*
X173608599Y-129956747D01*
X173626777Y-129973223D01*
X173643253Y-129991401D01*
X173657868Y-130011107D01*
X173670480Y-130032150D01*
X173680970Y-130054329D01*
X173689235Y-130077428D01*
X173695196Y-130101227D01*
X173698796Y-130125495D01*
X173700000Y-130149999D01*
X173700000Y-130800001D01*
X173698796Y-130824505D01*
X173695196Y-130848773D01*
X173689235Y-130872572D01*
X173680970Y-130895671D01*
X173670480Y-130917850D01*
X173657868Y-130938893D01*
X173643253Y-130958599D01*
X173626777Y-130976777D01*
X173608599Y-130993253D01*
X173588893Y-131007868D01*
X173567850Y-131020480D01*
X173545671Y-131030970D01*
X173522572Y-131039235D01*
X173498773Y-131045196D01*
X173474505Y-131048796D01*
X173450001Y-131050000D01*
X172549999Y-131050000D01*
X172525495Y-131048796D01*
X172501227Y-131045196D01*
X172477428Y-131039235D01*
X172454329Y-131030970D01*
X172432150Y-131020480D01*
X172411107Y-131007868D01*
X172391401Y-130993253D01*
X172373223Y-130976777D01*
X172356747Y-130958599D01*
X172342132Y-130938893D01*
X172329520Y-130917850D01*
X172319030Y-130895671D01*
X172310765Y-130872572D01*
X172304804Y-130848773D01*
X172301204Y-130824505D01*
X172300000Y-130800001D01*
X172300000Y-130149999D01*
X172301204Y-130125495D01*
X172304804Y-130101227D01*
X172310765Y-130077428D01*
X172319030Y-130054329D01*
X172329520Y-130032150D01*
X172342132Y-130011107D01*
X172356747Y-129991401D01*
X172373223Y-129973223D01*
X172391401Y-129956747D01*
X172411107Y-129942132D01*
X172432150Y-129929520D01*
X172454329Y-129919030D01*
X172477428Y-129910765D01*
X172501227Y-129904804D01*
X172525495Y-129901204D01*
X172549999Y-129900000D01*
X173450001Y-129900000D01*
X173474505Y-129901204D01*
G37*
G36*
X173474505Y-131951204D02*
G01*
X173498773Y-131954804D01*
X173522572Y-131960765D01*
X173545671Y-131969030D01*
X173567850Y-131979520D01*
X173588893Y-131992132D01*
X173608599Y-132006747D01*
X173626777Y-132023223D01*
X173643253Y-132041401D01*
X173657868Y-132061107D01*
X173670480Y-132082150D01*
X173680970Y-132104329D01*
X173689235Y-132127428D01*
X173695196Y-132151227D01*
X173698796Y-132175495D01*
X173700000Y-132199999D01*
X173700000Y-132850001D01*
X173698796Y-132874505D01*
X173695196Y-132898773D01*
X173689235Y-132922572D01*
X173680970Y-132945671D01*
X173670480Y-132967850D01*
X173657868Y-132988893D01*
X173643253Y-133008599D01*
X173626777Y-133026777D01*
X173608599Y-133043253D01*
X173588893Y-133057868D01*
X173567850Y-133070480D01*
X173545671Y-133080970D01*
X173522572Y-133089235D01*
X173498773Y-133095196D01*
X173474505Y-133098796D01*
X173450001Y-133100000D01*
X172549999Y-133100000D01*
X172525495Y-133098796D01*
X172501227Y-133095196D01*
X172477428Y-133089235D01*
X172454329Y-133080970D01*
X172432150Y-133070480D01*
X172411107Y-133057868D01*
X172391401Y-133043253D01*
X172373223Y-133026777D01*
X172356747Y-133008599D01*
X172342132Y-132988893D01*
X172329520Y-132967850D01*
X172319030Y-132945671D01*
X172310765Y-132922572D01*
X172304804Y-132898773D01*
X172301204Y-132874505D01*
X172300000Y-132850001D01*
X172300000Y-132199999D01*
X172301204Y-132175495D01*
X172304804Y-132151227D01*
X172310765Y-132127428D01*
X172319030Y-132104329D01*
X172329520Y-132082150D01*
X172342132Y-132061107D01*
X172356747Y-132041401D01*
X172373223Y-132023223D01*
X172391401Y-132006747D01*
X172411107Y-131992132D01*
X172432150Y-131979520D01*
X172454329Y-131969030D01*
X172477428Y-131960765D01*
X172501227Y-131954804D01*
X172525495Y-131951204D01*
X172549999Y-131950000D01*
X173450001Y-131950000D01*
X173474505Y-131951204D01*
G37*
G36*
X172824505Y-134051204D02*
G01*
X172848773Y-134054804D01*
X172872572Y-134060765D01*
X172895671Y-134069030D01*
X172917850Y-134079520D01*
X172938893Y-134092132D01*
X172958599Y-134106747D01*
X172976777Y-134123223D01*
X172993253Y-134141401D01*
X173007868Y-134161107D01*
X173020480Y-134182150D01*
X173030970Y-134204329D01*
X173039235Y-134227428D01*
X173045196Y-134251227D01*
X173048796Y-134275495D01*
X173050000Y-134299999D01*
X173050000Y-135200001D01*
X173048796Y-135224505D01*
X173045196Y-135248773D01*
X173039235Y-135272572D01*
X173030970Y-135295671D01*
X173020480Y-135317850D01*
X173007868Y-135338893D01*
X172993253Y-135358599D01*
X172976777Y-135376777D01*
X172958599Y-135393253D01*
X172938893Y-135407868D01*
X172917850Y-135420480D01*
X172895671Y-135430970D01*
X172872572Y-135439235D01*
X172848773Y-135445196D01*
X172824505Y-135448796D01*
X172800001Y-135450000D01*
X172149999Y-135450000D01*
X172125495Y-135448796D01*
X172101227Y-135445196D01*
X172077428Y-135439235D01*
X172054329Y-135430970D01*
X172032150Y-135420480D01*
X172011107Y-135407868D01*
X171991401Y-135393253D01*
X171973223Y-135376777D01*
X171956747Y-135358599D01*
X171942132Y-135338893D01*
X171929520Y-135317850D01*
X171919030Y-135295671D01*
X171910765Y-135272572D01*
X171904804Y-135248773D01*
X171901204Y-135224505D01*
X171900000Y-135200001D01*
X171900000Y-134299999D01*
X171901204Y-134275495D01*
X171904804Y-134251227D01*
X171910765Y-134227428D01*
X171919030Y-134204329D01*
X171929520Y-134182150D01*
X171942132Y-134161107D01*
X171956747Y-134141401D01*
X171973223Y-134123223D01*
X171991401Y-134106747D01*
X172011107Y-134092132D01*
X172032150Y-134079520D01*
X172054329Y-134069030D01*
X172077428Y-134060765D01*
X172101227Y-134054804D01*
X172125495Y-134051204D01*
X172149999Y-134050000D01*
X172800001Y-134050000D01*
X172824505Y-134051204D01*
G37*
G36*
X174874505Y-134051204D02*
G01*
X174898773Y-134054804D01*
X174922572Y-134060765D01*
X174945671Y-134069030D01*
X174967850Y-134079520D01*
X174988893Y-134092132D01*
X175008599Y-134106747D01*
X175026777Y-134123223D01*
X175043253Y-134141401D01*
X175057868Y-134161107D01*
X175070480Y-134182150D01*
X175080970Y-134204329D01*
X175089235Y-134227428D01*
X175095196Y-134251227D01*
X175098796Y-134275495D01*
X175100000Y-134299999D01*
X175100000Y-135200001D01*
X175098796Y-135224505D01*
X175095196Y-135248773D01*
X175089235Y-135272572D01*
X175080970Y-135295671D01*
X175070480Y-135317850D01*
X175057868Y-135338893D01*
X175043253Y-135358599D01*
X175026777Y-135376777D01*
X175008599Y-135393253D01*
X174988893Y-135407868D01*
X174967850Y-135420480D01*
X174945671Y-135430970D01*
X174922572Y-135439235D01*
X174898773Y-135445196D01*
X174874505Y-135448796D01*
X174850001Y-135450000D01*
X174199999Y-135450000D01*
X174175495Y-135448796D01*
X174151227Y-135445196D01*
X174127428Y-135439235D01*
X174104329Y-135430970D01*
X174082150Y-135420480D01*
X174061107Y-135407868D01*
X174041401Y-135393253D01*
X174023223Y-135376777D01*
X174006747Y-135358599D01*
X173992132Y-135338893D01*
X173979520Y-135317850D01*
X173969030Y-135295671D01*
X173960765Y-135272572D01*
X173954804Y-135248773D01*
X173951204Y-135224505D01*
X173950000Y-135200001D01*
X173950000Y-134299999D01*
X173951204Y-134275495D01*
X173954804Y-134251227D01*
X173960765Y-134227428D01*
X173969030Y-134204329D01*
X173979520Y-134182150D01*
X173992132Y-134161107D01*
X174006747Y-134141401D01*
X174023223Y-134123223D01*
X174041401Y-134106747D01*
X174061107Y-134092132D01*
X174082150Y-134079520D01*
X174104329Y-134069030D01*
X174127428Y-134060765D01*
X174151227Y-134054804D01*
X174175495Y-134051204D01*
X174199999Y-134050000D01*
X174850001Y-134050000D01*
X174874505Y-134051204D01*
G37*
D13*
X184150000Y-125750000D03*
X180850000Y-125750000D03*
D10*
G36*
X180299505Y-127301204D02*
G01*
X180323773Y-127304804D01*
X180347572Y-127310765D01*
X180370671Y-127319030D01*
X180392850Y-127329520D01*
X180413893Y-127342132D01*
X180433599Y-127356747D01*
X180451777Y-127373223D01*
X180468253Y-127391401D01*
X180482868Y-127411107D01*
X180495480Y-127432150D01*
X180505970Y-127454329D01*
X180514235Y-127477428D01*
X180520196Y-127501227D01*
X180523796Y-127525495D01*
X180525000Y-127549999D01*
X180525000Y-128450001D01*
X180523796Y-128474505D01*
X180520196Y-128498773D01*
X180514235Y-128522572D01*
X180505970Y-128545671D01*
X180495480Y-128567850D01*
X180482868Y-128588893D01*
X180468253Y-128608599D01*
X180451777Y-128626777D01*
X180433599Y-128643253D01*
X180413893Y-128657868D01*
X180392850Y-128670480D01*
X180370671Y-128680970D01*
X180347572Y-128689235D01*
X180323773Y-128695196D01*
X180299505Y-128698796D01*
X180275001Y-128700000D01*
X179624999Y-128700000D01*
X179600495Y-128698796D01*
X179576227Y-128695196D01*
X179552428Y-128689235D01*
X179529329Y-128680970D01*
X179507150Y-128670480D01*
X179486107Y-128657868D01*
X179466401Y-128643253D01*
X179448223Y-128626777D01*
X179431747Y-128608599D01*
X179417132Y-128588893D01*
X179404520Y-128567850D01*
X179394030Y-128545671D01*
X179385765Y-128522572D01*
X179379804Y-128498773D01*
X179376204Y-128474505D01*
X179375000Y-128450001D01*
X179375000Y-127549999D01*
X179376204Y-127525495D01*
X179379804Y-127501227D01*
X179385765Y-127477428D01*
X179394030Y-127454329D01*
X179404520Y-127432150D01*
X179417132Y-127411107D01*
X179431747Y-127391401D01*
X179448223Y-127373223D01*
X179466401Y-127356747D01*
X179486107Y-127342132D01*
X179507150Y-127329520D01*
X179529329Y-127319030D01*
X179552428Y-127310765D01*
X179576227Y-127304804D01*
X179600495Y-127301204D01*
X179624999Y-127300000D01*
X180275001Y-127300000D01*
X180299505Y-127301204D01*
G37*
G36*
X182349505Y-127301204D02*
G01*
X182373773Y-127304804D01*
X182397572Y-127310765D01*
X182420671Y-127319030D01*
X182442850Y-127329520D01*
X182463893Y-127342132D01*
X182483599Y-127356747D01*
X182501777Y-127373223D01*
X182518253Y-127391401D01*
X182532868Y-127411107D01*
X182545480Y-127432150D01*
X182555970Y-127454329D01*
X182564235Y-127477428D01*
X182570196Y-127501227D01*
X182573796Y-127525495D01*
X182575000Y-127549999D01*
X182575000Y-128450001D01*
X182573796Y-128474505D01*
X182570196Y-128498773D01*
X182564235Y-128522572D01*
X182555970Y-128545671D01*
X182545480Y-128567850D01*
X182532868Y-128588893D01*
X182518253Y-128608599D01*
X182501777Y-128626777D01*
X182483599Y-128643253D01*
X182463893Y-128657868D01*
X182442850Y-128670480D01*
X182420671Y-128680970D01*
X182397572Y-128689235D01*
X182373773Y-128695196D01*
X182349505Y-128698796D01*
X182325001Y-128700000D01*
X181674999Y-128700000D01*
X181650495Y-128698796D01*
X181626227Y-128695196D01*
X181602428Y-128689235D01*
X181579329Y-128680970D01*
X181557150Y-128670480D01*
X181536107Y-128657868D01*
X181516401Y-128643253D01*
X181498223Y-128626777D01*
X181481747Y-128608599D01*
X181467132Y-128588893D01*
X181454520Y-128567850D01*
X181444030Y-128545671D01*
X181435765Y-128522572D01*
X181429804Y-128498773D01*
X181426204Y-128474505D01*
X181425000Y-128450001D01*
X181425000Y-127549999D01*
X181426204Y-127525495D01*
X181429804Y-127501227D01*
X181435765Y-127477428D01*
X181444030Y-127454329D01*
X181454520Y-127432150D01*
X181467132Y-127411107D01*
X181481747Y-127391401D01*
X181498223Y-127373223D01*
X181516401Y-127356747D01*
X181536107Y-127342132D01*
X181557150Y-127329520D01*
X181579329Y-127319030D01*
X181602428Y-127310765D01*
X181626227Y-127304804D01*
X181650495Y-127301204D01*
X181674999Y-127300000D01*
X182325001Y-127300000D01*
X182349505Y-127301204D01*
G37*
G36*
X175474505Y-127951204D02*
G01*
X175498773Y-127954804D01*
X175522572Y-127960765D01*
X175545671Y-127969030D01*
X175567850Y-127979520D01*
X175588893Y-127992132D01*
X175608599Y-128006747D01*
X175626777Y-128023223D01*
X175643253Y-128041401D01*
X175657868Y-128061107D01*
X175670480Y-128082150D01*
X175680970Y-128104329D01*
X175689235Y-128127428D01*
X175695196Y-128151227D01*
X175698796Y-128175495D01*
X175700000Y-128199999D01*
X175700000Y-128850001D01*
X175698796Y-128874505D01*
X175695196Y-128898773D01*
X175689235Y-128922572D01*
X175680970Y-128945671D01*
X175670480Y-128967850D01*
X175657868Y-128988893D01*
X175643253Y-129008599D01*
X175626777Y-129026777D01*
X175608599Y-129043253D01*
X175588893Y-129057868D01*
X175567850Y-129070480D01*
X175545671Y-129080970D01*
X175522572Y-129089235D01*
X175498773Y-129095196D01*
X175474505Y-129098796D01*
X175450001Y-129100000D01*
X174549999Y-129100000D01*
X174525495Y-129098796D01*
X174501227Y-129095196D01*
X174477428Y-129089235D01*
X174454329Y-129080970D01*
X174432150Y-129070480D01*
X174411107Y-129057868D01*
X174391401Y-129043253D01*
X174373223Y-129026777D01*
X174356747Y-129008599D01*
X174342132Y-128988893D01*
X174329520Y-128967850D01*
X174319030Y-128945671D01*
X174310765Y-128922572D01*
X174304804Y-128898773D01*
X174301204Y-128874505D01*
X174300000Y-128850001D01*
X174300000Y-128199999D01*
X174301204Y-128175495D01*
X174304804Y-128151227D01*
X174310765Y-128127428D01*
X174319030Y-128104329D01*
X174329520Y-128082150D01*
X174342132Y-128061107D01*
X174356747Y-128041401D01*
X174373223Y-128023223D01*
X174391401Y-128006747D01*
X174411107Y-127992132D01*
X174432150Y-127979520D01*
X174454329Y-127969030D01*
X174477428Y-127960765D01*
X174501227Y-127954804D01*
X174525495Y-127951204D01*
X174549999Y-127950000D01*
X175450001Y-127950000D01*
X175474505Y-127951204D01*
G37*
G36*
X175474505Y-125901204D02*
G01*
X175498773Y-125904804D01*
X175522572Y-125910765D01*
X175545671Y-125919030D01*
X175567850Y-125929520D01*
X175588893Y-125942132D01*
X175608599Y-125956747D01*
X175626777Y-125973223D01*
X175643253Y-125991401D01*
X175657868Y-126011107D01*
X175670480Y-126032150D01*
X175680970Y-126054329D01*
X175689235Y-126077428D01*
X175695196Y-126101227D01*
X175698796Y-126125495D01*
X175700000Y-126149999D01*
X175700000Y-126800001D01*
X175698796Y-126824505D01*
X175695196Y-126848773D01*
X175689235Y-126872572D01*
X175680970Y-126895671D01*
X175670480Y-126917850D01*
X175657868Y-126938893D01*
X175643253Y-126958599D01*
X175626777Y-126976777D01*
X175608599Y-126993253D01*
X175588893Y-127007868D01*
X175567850Y-127020480D01*
X175545671Y-127030970D01*
X175522572Y-127039235D01*
X175498773Y-127045196D01*
X175474505Y-127048796D01*
X175450001Y-127050000D01*
X174549999Y-127050000D01*
X174525495Y-127048796D01*
X174501227Y-127045196D01*
X174477428Y-127039235D01*
X174454329Y-127030970D01*
X174432150Y-127020480D01*
X174411107Y-127007868D01*
X174391401Y-126993253D01*
X174373223Y-126976777D01*
X174356747Y-126958599D01*
X174342132Y-126938893D01*
X174329520Y-126917850D01*
X174319030Y-126895671D01*
X174310765Y-126872572D01*
X174304804Y-126848773D01*
X174301204Y-126824505D01*
X174300000Y-126800001D01*
X174300000Y-126149999D01*
X174301204Y-126125495D01*
X174304804Y-126101227D01*
X174310765Y-126077428D01*
X174319030Y-126054329D01*
X174329520Y-126032150D01*
X174342132Y-126011107D01*
X174356747Y-125991401D01*
X174373223Y-125973223D01*
X174391401Y-125956747D01*
X174411107Y-125942132D01*
X174432150Y-125929520D01*
X174454329Y-125919030D01*
X174477428Y-125910765D01*
X174501227Y-125904804D01*
X174525495Y-125901204D01*
X174549999Y-125900000D01*
X175450001Y-125900000D01*
X175474505Y-125901204D01*
G37*
G36*
X168724505Y-129401204D02*
G01*
X168748773Y-129404804D01*
X168772572Y-129410765D01*
X168795671Y-129419030D01*
X168817850Y-129429520D01*
X168838893Y-129442132D01*
X168858599Y-129456747D01*
X168876777Y-129473223D01*
X168893253Y-129491401D01*
X168907868Y-129511107D01*
X168920480Y-129532150D01*
X168930970Y-129554329D01*
X168939235Y-129577428D01*
X168945196Y-129601227D01*
X168948796Y-129625495D01*
X168950000Y-129649999D01*
X168950000Y-130300001D01*
X168948796Y-130324505D01*
X168945196Y-130348773D01*
X168939235Y-130372572D01*
X168930970Y-130395671D01*
X168920480Y-130417850D01*
X168907868Y-130438893D01*
X168893253Y-130458599D01*
X168876777Y-130476777D01*
X168858599Y-130493253D01*
X168838893Y-130507868D01*
X168817850Y-130520480D01*
X168795671Y-130530970D01*
X168772572Y-130539235D01*
X168748773Y-130545196D01*
X168724505Y-130548796D01*
X168700001Y-130550000D01*
X167799999Y-130550000D01*
X167775495Y-130548796D01*
X167751227Y-130545196D01*
X167727428Y-130539235D01*
X167704329Y-130530970D01*
X167682150Y-130520480D01*
X167661107Y-130507868D01*
X167641401Y-130493253D01*
X167623223Y-130476777D01*
X167606747Y-130458599D01*
X167592132Y-130438893D01*
X167579520Y-130417850D01*
X167569030Y-130395671D01*
X167560765Y-130372572D01*
X167554804Y-130348773D01*
X167551204Y-130324505D01*
X167550000Y-130300001D01*
X167550000Y-129649999D01*
X167551204Y-129625495D01*
X167554804Y-129601227D01*
X167560765Y-129577428D01*
X167569030Y-129554329D01*
X167579520Y-129532150D01*
X167592132Y-129511107D01*
X167606747Y-129491401D01*
X167623223Y-129473223D01*
X167641401Y-129456747D01*
X167661107Y-129442132D01*
X167682150Y-129429520D01*
X167704329Y-129419030D01*
X167727428Y-129410765D01*
X167751227Y-129404804D01*
X167775495Y-129401204D01*
X167799999Y-129400000D01*
X168700001Y-129400000D01*
X168724505Y-129401204D01*
G37*
G36*
X168724505Y-131451204D02*
G01*
X168748773Y-131454804D01*
X168772572Y-131460765D01*
X168795671Y-131469030D01*
X168817850Y-131479520D01*
X168838893Y-131492132D01*
X168858599Y-131506747D01*
X168876777Y-131523223D01*
X168893253Y-131541401D01*
X168907868Y-131561107D01*
X168920480Y-131582150D01*
X168930970Y-131604329D01*
X168939235Y-131627428D01*
X168945196Y-131651227D01*
X168948796Y-131675495D01*
X168950000Y-131699999D01*
X168950000Y-132350001D01*
X168948796Y-132374505D01*
X168945196Y-132398773D01*
X168939235Y-132422572D01*
X168930970Y-132445671D01*
X168920480Y-132467850D01*
X168907868Y-132488893D01*
X168893253Y-132508599D01*
X168876777Y-132526777D01*
X168858599Y-132543253D01*
X168838893Y-132557868D01*
X168817850Y-132570480D01*
X168795671Y-132580970D01*
X168772572Y-132589235D01*
X168748773Y-132595196D01*
X168724505Y-132598796D01*
X168700001Y-132600000D01*
X167799999Y-132600000D01*
X167775495Y-132598796D01*
X167751227Y-132595196D01*
X167727428Y-132589235D01*
X167704329Y-132580970D01*
X167682150Y-132570480D01*
X167661107Y-132557868D01*
X167641401Y-132543253D01*
X167623223Y-132526777D01*
X167606747Y-132508599D01*
X167592132Y-132488893D01*
X167579520Y-132467850D01*
X167569030Y-132445671D01*
X167560765Y-132422572D01*
X167554804Y-132398773D01*
X167551204Y-132374505D01*
X167550000Y-132350001D01*
X167550000Y-131699999D01*
X167551204Y-131675495D01*
X167554804Y-131651227D01*
X167560765Y-131627428D01*
X167569030Y-131604329D01*
X167579520Y-131582150D01*
X167592132Y-131561107D01*
X167606747Y-131541401D01*
X167623223Y-131523223D01*
X167641401Y-131506747D01*
X167661107Y-131492132D01*
X167682150Y-131479520D01*
X167704329Y-131469030D01*
X167727428Y-131460765D01*
X167751227Y-131454804D01*
X167775495Y-131451204D01*
X167799999Y-131450000D01*
X168700001Y-131450000D01*
X168724505Y-131451204D01*
G37*
G36*
X170974505Y-129401204D02*
G01*
X170998773Y-129404804D01*
X171022572Y-129410765D01*
X171045671Y-129419030D01*
X171067850Y-129429520D01*
X171088893Y-129442132D01*
X171108599Y-129456747D01*
X171126777Y-129473223D01*
X171143253Y-129491401D01*
X171157868Y-129511107D01*
X171170480Y-129532150D01*
X171180970Y-129554329D01*
X171189235Y-129577428D01*
X171195196Y-129601227D01*
X171198796Y-129625495D01*
X171200000Y-129649999D01*
X171200000Y-130300001D01*
X171198796Y-130324505D01*
X171195196Y-130348773D01*
X171189235Y-130372572D01*
X171180970Y-130395671D01*
X171170480Y-130417850D01*
X171157868Y-130438893D01*
X171143253Y-130458599D01*
X171126777Y-130476777D01*
X171108599Y-130493253D01*
X171088893Y-130507868D01*
X171067850Y-130520480D01*
X171045671Y-130530970D01*
X171022572Y-130539235D01*
X170998773Y-130545196D01*
X170974505Y-130548796D01*
X170950001Y-130550000D01*
X170049999Y-130550000D01*
X170025495Y-130548796D01*
X170001227Y-130545196D01*
X169977428Y-130539235D01*
X169954329Y-130530970D01*
X169932150Y-130520480D01*
X169911107Y-130507868D01*
X169891401Y-130493253D01*
X169873223Y-130476777D01*
X169856747Y-130458599D01*
X169842132Y-130438893D01*
X169829520Y-130417850D01*
X169819030Y-130395671D01*
X169810765Y-130372572D01*
X169804804Y-130348773D01*
X169801204Y-130324505D01*
X169800000Y-130300001D01*
X169800000Y-129649999D01*
X169801204Y-129625495D01*
X169804804Y-129601227D01*
X169810765Y-129577428D01*
X169819030Y-129554329D01*
X169829520Y-129532150D01*
X169842132Y-129511107D01*
X169856747Y-129491401D01*
X169873223Y-129473223D01*
X169891401Y-129456747D01*
X169911107Y-129442132D01*
X169932150Y-129429520D01*
X169954329Y-129419030D01*
X169977428Y-129410765D01*
X170001227Y-129404804D01*
X170025495Y-129401204D01*
X170049999Y-129400000D01*
X170950001Y-129400000D01*
X170974505Y-129401204D01*
G37*
G36*
X170974505Y-131451204D02*
G01*
X170998773Y-131454804D01*
X171022572Y-131460765D01*
X171045671Y-131469030D01*
X171067850Y-131479520D01*
X171088893Y-131492132D01*
X171108599Y-131506747D01*
X171126777Y-131523223D01*
X171143253Y-131541401D01*
X171157868Y-131561107D01*
X171170480Y-131582150D01*
X171180970Y-131604329D01*
X171189235Y-131627428D01*
X171195196Y-131651227D01*
X171198796Y-131675495D01*
X171200000Y-131699999D01*
X171200000Y-132350001D01*
X171198796Y-132374505D01*
X171195196Y-132398773D01*
X171189235Y-132422572D01*
X171180970Y-132445671D01*
X171170480Y-132467850D01*
X171157868Y-132488893D01*
X171143253Y-132508599D01*
X171126777Y-132526777D01*
X171108599Y-132543253D01*
X171088893Y-132557868D01*
X171067850Y-132570480D01*
X171045671Y-132580970D01*
X171022572Y-132589235D01*
X170998773Y-132595196D01*
X170974505Y-132598796D01*
X170950001Y-132600000D01*
X170049999Y-132600000D01*
X170025495Y-132598796D01*
X170001227Y-132595196D01*
X169977428Y-132589235D01*
X169954329Y-132580970D01*
X169932150Y-132570480D01*
X169911107Y-132557868D01*
X169891401Y-132543253D01*
X169873223Y-132526777D01*
X169856747Y-132508599D01*
X169842132Y-132488893D01*
X169829520Y-132467850D01*
X169819030Y-132445671D01*
X169810765Y-132422572D01*
X169804804Y-132398773D01*
X169801204Y-132374505D01*
X169800000Y-132350001D01*
X169800000Y-131699999D01*
X169801204Y-131675495D01*
X169804804Y-131651227D01*
X169810765Y-131627428D01*
X169819030Y-131604329D01*
X169829520Y-131582150D01*
X169842132Y-131561107D01*
X169856747Y-131541401D01*
X169873223Y-131523223D01*
X169891401Y-131506747D01*
X169911107Y-131492132D01*
X169932150Y-131479520D01*
X169954329Y-131469030D01*
X169977428Y-131460765D01*
X170001227Y-131454804D01*
X170025495Y-131451204D01*
X170049999Y-131450000D01*
X170950001Y-131450000D01*
X170974505Y-131451204D01*
G37*
G36*
X202974505Y-130476204D02*
G01*
X202998773Y-130479804D01*
X203022572Y-130485765D01*
X203045671Y-130494030D01*
X203067850Y-130504520D01*
X203088893Y-130517132D01*
X203108599Y-130531747D01*
X203126777Y-130548223D01*
X203143253Y-130566401D01*
X203157868Y-130586107D01*
X203170480Y-130607150D01*
X203180970Y-130629329D01*
X203189235Y-130652428D01*
X203195196Y-130676227D01*
X203198796Y-130700495D01*
X203200000Y-130724999D01*
X203200000Y-131375001D01*
X203198796Y-131399505D01*
X203195196Y-131423773D01*
X203189235Y-131447572D01*
X203180970Y-131470671D01*
X203170480Y-131492850D01*
X203157868Y-131513893D01*
X203143253Y-131533599D01*
X203126777Y-131551777D01*
X203108599Y-131568253D01*
X203088893Y-131582868D01*
X203067850Y-131595480D01*
X203045671Y-131605970D01*
X203022572Y-131614235D01*
X202998773Y-131620196D01*
X202974505Y-131623796D01*
X202950001Y-131625000D01*
X202049999Y-131625000D01*
X202025495Y-131623796D01*
X202001227Y-131620196D01*
X201977428Y-131614235D01*
X201954329Y-131605970D01*
X201932150Y-131595480D01*
X201911107Y-131582868D01*
X201891401Y-131568253D01*
X201873223Y-131551777D01*
X201856747Y-131533599D01*
X201842132Y-131513893D01*
X201829520Y-131492850D01*
X201819030Y-131470671D01*
X201810765Y-131447572D01*
X201804804Y-131423773D01*
X201801204Y-131399505D01*
X201800000Y-131375001D01*
X201800000Y-130724999D01*
X201801204Y-130700495D01*
X201804804Y-130676227D01*
X201810765Y-130652428D01*
X201819030Y-130629329D01*
X201829520Y-130607150D01*
X201842132Y-130586107D01*
X201856747Y-130566401D01*
X201873223Y-130548223D01*
X201891401Y-130531747D01*
X201911107Y-130517132D01*
X201932150Y-130504520D01*
X201954329Y-130494030D01*
X201977428Y-130485765D01*
X202001227Y-130479804D01*
X202025495Y-130476204D01*
X202049999Y-130475000D01*
X202950001Y-130475000D01*
X202974505Y-130476204D01*
G37*
G36*
X202974505Y-128426204D02*
G01*
X202998773Y-128429804D01*
X203022572Y-128435765D01*
X203045671Y-128444030D01*
X203067850Y-128454520D01*
X203088893Y-128467132D01*
X203108599Y-128481747D01*
X203126777Y-128498223D01*
X203143253Y-128516401D01*
X203157868Y-128536107D01*
X203170480Y-128557150D01*
X203180970Y-128579329D01*
X203189235Y-128602428D01*
X203195196Y-128626227D01*
X203198796Y-128650495D01*
X203200000Y-128674999D01*
X203200000Y-129325001D01*
X203198796Y-129349505D01*
X203195196Y-129373773D01*
X203189235Y-129397572D01*
X203180970Y-129420671D01*
X203170480Y-129442850D01*
X203157868Y-129463893D01*
X203143253Y-129483599D01*
X203126777Y-129501777D01*
X203108599Y-129518253D01*
X203088893Y-129532868D01*
X203067850Y-129545480D01*
X203045671Y-129555970D01*
X203022572Y-129564235D01*
X202998773Y-129570196D01*
X202974505Y-129573796D01*
X202950001Y-129575000D01*
X202049999Y-129575000D01*
X202025495Y-129573796D01*
X202001227Y-129570196D01*
X201977428Y-129564235D01*
X201954329Y-129555970D01*
X201932150Y-129545480D01*
X201911107Y-129532868D01*
X201891401Y-129518253D01*
X201873223Y-129501777D01*
X201856747Y-129483599D01*
X201842132Y-129463893D01*
X201829520Y-129442850D01*
X201819030Y-129420671D01*
X201810765Y-129397572D01*
X201804804Y-129373773D01*
X201801204Y-129349505D01*
X201800000Y-129325001D01*
X201800000Y-128674999D01*
X201801204Y-128650495D01*
X201804804Y-128626227D01*
X201810765Y-128602428D01*
X201819030Y-128579329D01*
X201829520Y-128557150D01*
X201842132Y-128536107D01*
X201856747Y-128516401D01*
X201873223Y-128498223D01*
X201891401Y-128481747D01*
X201911107Y-128467132D01*
X201932150Y-128454520D01*
X201954329Y-128444030D01*
X201977428Y-128435765D01*
X202001227Y-128429804D01*
X202025495Y-128426204D01*
X202049999Y-128425000D01*
X202950001Y-128425000D01*
X202974505Y-128426204D01*
G37*
G36*
X198849505Y-130051204D02*
G01*
X198873773Y-130054804D01*
X198897572Y-130060765D01*
X198920671Y-130069030D01*
X198942850Y-130079520D01*
X198963893Y-130092132D01*
X198983599Y-130106747D01*
X199001777Y-130123223D01*
X199018253Y-130141401D01*
X199032868Y-130161107D01*
X199045480Y-130182150D01*
X199055970Y-130204329D01*
X199064235Y-130227428D01*
X199070196Y-130251227D01*
X199073796Y-130275495D01*
X199075000Y-130299999D01*
X199075000Y-131200001D01*
X199073796Y-131224505D01*
X199070196Y-131248773D01*
X199064235Y-131272572D01*
X199055970Y-131295671D01*
X199045480Y-131317850D01*
X199032868Y-131338893D01*
X199018253Y-131358599D01*
X199001777Y-131376777D01*
X198983599Y-131393253D01*
X198963893Y-131407868D01*
X198942850Y-131420480D01*
X198920671Y-131430970D01*
X198897572Y-131439235D01*
X198873773Y-131445196D01*
X198849505Y-131448796D01*
X198825001Y-131450000D01*
X198174999Y-131450000D01*
X198150495Y-131448796D01*
X198126227Y-131445196D01*
X198102428Y-131439235D01*
X198079329Y-131430970D01*
X198057150Y-131420480D01*
X198036107Y-131407868D01*
X198016401Y-131393253D01*
X197998223Y-131376777D01*
X197981747Y-131358599D01*
X197967132Y-131338893D01*
X197954520Y-131317850D01*
X197944030Y-131295671D01*
X197935765Y-131272572D01*
X197929804Y-131248773D01*
X197926204Y-131224505D01*
X197925000Y-131200001D01*
X197925000Y-130299999D01*
X197926204Y-130275495D01*
X197929804Y-130251227D01*
X197935765Y-130227428D01*
X197944030Y-130204329D01*
X197954520Y-130182150D01*
X197967132Y-130161107D01*
X197981747Y-130141401D01*
X197998223Y-130123223D01*
X198016401Y-130106747D01*
X198036107Y-130092132D01*
X198057150Y-130079520D01*
X198079329Y-130069030D01*
X198102428Y-130060765D01*
X198126227Y-130054804D01*
X198150495Y-130051204D01*
X198174999Y-130050000D01*
X198825001Y-130050000D01*
X198849505Y-130051204D01*
G37*
G36*
X200899505Y-130051204D02*
G01*
X200923773Y-130054804D01*
X200947572Y-130060765D01*
X200970671Y-130069030D01*
X200992850Y-130079520D01*
X201013893Y-130092132D01*
X201033599Y-130106747D01*
X201051777Y-130123223D01*
X201068253Y-130141401D01*
X201082868Y-130161107D01*
X201095480Y-130182150D01*
X201105970Y-130204329D01*
X201114235Y-130227428D01*
X201120196Y-130251227D01*
X201123796Y-130275495D01*
X201125000Y-130299999D01*
X201125000Y-131200001D01*
X201123796Y-131224505D01*
X201120196Y-131248773D01*
X201114235Y-131272572D01*
X201105970Y-131295671D01*
X201095480Y-131317850D01*
X201082868Y-131338893D01*
X201068253Y-131358599D01*
X201051777Y-131376777D01*
X201033599Y-131393253D01*
X201013893Y-131407868D01*
X200992850Y-131420480D01*
X200970671Y-131430970D01*
X200947572Y-131439235D01*
X200923773Y-131445196D01*
X200899505Y-131448796D01*
X200875001Y-131450000D01*
X200224999Y-131450000D01*
X200200495Y-131448796D01*
X200176227Y-131445196D01*
X200152428Y-131439235D01*
X200129329Y-131430970D01*
X200107150Y-131420480D01*
X200086107Y-131407868D01*
X200066401Y-131393253D01*
X200048223Y-131376777D01*
X200031747Y-131358599D01*
X200017132Y-131338893D01*
X200004520Y-131317850D01*
X199994030Y-131295671D01*
X199985765Y-131272572D01*
X199979804Y-131248773D01*
X199976204Y-131224505D01*
X199975000Y-131200001D01*
X199975000Y-130299999D01*
X199976204Y-130275495D01*
X199979804Y-130251227D01*
X199985765Y-130227428D01*
X199994030Y-130204329D01*
X200004520Y-130182150D01*
X200017132Y-130161107D01*
X200031747Y-130141401D01*
X200048223Y-130123223D01*
X200066401Y-130106747D01*
X200086107Y-130092132D01*
X200107150Y-130079520D01*
X200129329Y-130069030D01*
X200152428Y-130060765D01*
X200176227Y-130054804D01*
X200200495Y-130051204D01*
X200224999Y-130050000D01*
X200875001Y-130050000D01*
X200899505Y-130051204D01*
G37*
G36*
X195874505Y-127051204D02*
G01*
X195898773Y-127054804D01*
X195922572Y-127060765D01*
X195945671Y-127069030D01*
X195967850Y-127079520D01*
X195988893Y-127092132D01*
X196008599Y-127106747D01*
X196026777Y-127123223D01*
X196043253Y-127141401D01*
X196057868Y-127161107D01*
X196070480Y-127182150D01*
X196080970Y-127204329D01*
X196089235Y-127227428D01*
X196095196Y-127251227D01*
X196098796Y-127275495D01*
X196100000Y-127299999D01*
X196100000Y-128200001D01*
X196098796Y-128224505D01*
X196095196Y-128248773D01*
X196089235Y-128272572D01*
X196080970Y-128295671D01*
X196070480Y-128317850D01*
X196057868Y-128338893D01*
X196043253Y-128358599D01*
X196026777Y-128376777D01*
X196008599Y-128393253D01*
X195988893Y-128407868D01*
X195967850Y-128420480D01*
X195945671Y-128430970D01*
X195922572Y-128439235D01*
X195898773Y-128445196D01*
X195874505Y-128448796D01*
X195850001Y-128450000D01*
X195199999Y-128450000D01*
X195175495Y-128448796D01*
X195151227Y-128445196D01*
X195127428Y-128439235D01*
X195104329Y-128430970D01*
X195082150Y-128420480D01*
X195061107Y-128407868D01*
X195041401Y-128393253D01*
X195023223Y-128376777D01*
X195006747Y-128358599D01*
X194992132Y-128338893D01*
X194979520Y-128317850D01*
X194969030Y-128295671D01*
X194960765Y-128272572D01*
X194954804Y-128248773D01*
X194951204Y-128224505D01*
X194950000Y-128200001D01*
X194950000Y-127299999D01*
X194951204Y-127275495D01*
X194954804Y-127251227D01*
X194960765Y-127227428D01*
X194969030Y-127204329D01*
X194979520Y-127182150D01*
X194992132Y-127161107D01*
X195006747Y-127141401D01*
X195023223Y-127123223D01*
X195041401Y-127106747D01*
X195061107Y-127092132D01*
X195082150Y-127079520D01*
X195104329Y-127069030D01*
X195127428Y-127060765D01*
X195151227Y-127054804D01*
X195175495Y-127051204D01*
X195199999Y-127050000D01*
X195850001Y-127050000D01*
X195874505Y-127051204D01*
G37*
G36*
X193824505Y-127051204D02*
G01*
X193848773Y-127054804D01*
X193872572Y-127060765D01*
X193895671Y-127069030D01*
X193917850Y-127079520D01*
X193938893Y-127092132D01*
X193958599Y-127106747D01*
X193976777Y-127123223D01*
X193993253Y-127141401D01*
X194007868Y-127161107D01*
X194020480Y-127182150D01*
X194030970Y-127204329D01*
X194039235Y-127227428D01*
X194045196Y-127251227D01*
X194048796Y-127275495D01*
X194050000Y-127299999D01*
X194050000Y-128200001D01*
X194048796Y-128224505D01*
X194045196Y-128248773D01*
X194039235Y-128272572D01*
X194030970Y-128295671D01*
X194020480Y-128317850D01*
X194007868Y-128338893D01*
X193993253Y-128358599D01*
X193976777Y-128376777D01*
X193958599Y-128393253D01*
X193938893Y-128407868D01*
X193917850Y-128420480D01*
X193895671Y-128430970D01*
X193872572Y-128439235D01*
X193848773Y-128445196D01*
X193824505Y-128448796D01*
X193800001Y-128450000D01*
X193149999Y-128450000D01*
X193125495Y-128448796D01*
X193101227Y-128445196D01*
X193077428Y-128439235D01*
X193054329Y-128430970D01*
X193032150Y-128420480D01*
X193011107Y-128407868D01*
X192991401Y-128393253D01*
X192973223Y-128376777D01*
X192956747Y-128358599D01*
X192942132Y-128338893D01*
X192929520Y-128317850D01*
X192919030Y-128295671D01*
X192910765Y-128272572D01*
X192904804Y-128248773D01*
X192901204Y-128224505D01*
X192900000Y-128200001D01*
X192900000Y-127299999D01*
X192901204Y-127275495D01*
X192904804Y-127251227D01*
X192910765Y-127227428D01*
X192919030Y-127204329D01*
X192929520Y-127182150D01*
X192942132Y-127161107D01*
X192956747Y-127141401D01*
X192973223Y-127123223D01*
X192991401Y-127106747D01*
X193011107Y-127092132D01*
X193032150Y-127079520D01*
X193054329Y-127069030D01*
X193077428Y-127060765D01*
X193101227Y-127054804D01*
X193125495Y-127051204D01*
X193149999Y-127050000D01*
X193800001Y-127050000D01*
X193824505Y-127051204D01*
G37*
G36*
X195899505Y-129051204D02*
G01*
X195923773Y-129054804D01*
X195947572Y-129060765D01*
X195970671Y-129069030D01*
X195992850Y-129079520D01*
X196013893Y-129092132D01*
X196033599Y-129106747D01*
X196051777Y-129123223D01*
X196068253Y-129141401D01*
X196082868Y-129161107D01*
X196095480Y-129182150D01*
X196105970Y-129204329D01*
X196114235Y-129227428D01*
X196120196Y-129251227D01*
X196123796Y-129275495D01*
X196125000Y-129299999D01*
X196125000Y-130200001D01*
X196123796Y-130224505D01*
X196120196Y-130248773D01*
X196114235Y-130272572D01*
X196105970Y-130295671D01*
X196095480Y-130317850D01*
X196082868Y-130338893D01*
X196068253Y-130358599D01*
X196051777Y-130376777D01*
X196033599Y-130393253D01*
X196013893Y-130407868D01*
X195992850Y-130420480D01*
X195970671Y-130430970D01*
X195947572Y-130439235D01*
X195923773Y-130445196D01*
X195899505Y-130448796D01*
X195875001Y-130450000D01*
X195224999Y-130450000D01*
X195200495Y-130448796D01*
X195176227Y-130445196D01*
X195152428Y-130439235D01*
X195129329Y-130430970D01*
X195107150Y-130420480D01*
X195086107Y-130407868D01*
X195066401Y-130393253D01*
X195048223Y-130376777D01*
X195031747Y-130358599D01*
X195017132Y-130338893D01*
X195004520Y-130317850D01*
X194994030Y-130295671D01*
X194985765Y-130272572D01*
X194979804Y-130248773D01*
X194976204Y-130224505D01*
X194975000Y-130200001D01*
X194975000Y-129299999D01*
X194976204Y-129275495D01*
X194979804Y-129251227D01*
X194985765Y-129227428D01*
X194994030Y-129204329D01*
X195004520Y-129182150D01*
X195017132Y-129161107D01*
X195031747Y-129141401D01*
X195048223Y-129123223D01*
X195066401Y-129106747D01*
X195086107Y-129092132D01*
X195107150Y-129079520D01*
X195129329Y-129069030D01*
X195152428Y-129060765D01*
X195176227Y-129054804D01*
X195200495Y-129051204D01*
X195224999Y-129050000D01*
X195875001Y-129050000D01*
X195899505Y-129051204D01*
G37*
G36*
X193849505Y-129051204D02*
G01*
X193873773Y-129054804D01*
X193897572Y-129060765D01*
X193920671Y-129069030D01*
X193942850Y-129079520D01*
X193963893Y-129092132D01*
X193983599Y-129106747D01*
X194001777Y-129123223D01*
X194018253Y-129141401D01*
X194032868Y-129161107D01*
X194045480Y-129182150D01*
X194055970Y-129204329D01*
X194064235Y-129227428D01*
X194070196Y-129251227D01*
X194073796Y-129275495D01*
X194075000Y-129299999D01*
X194075000Y-130200001D01*
X194073796Y-130224505D01*
X194070196Y-130248773D01*
X194064235Y-130272572D01*
X194055970Y-130295671D01*
X194045480Y-130317850D01*
X194032868Y-130338893D01*
X194018253Y-130358599D01*
X194001777Y-130376777D01*
X193983599Y-130393253D01*
X193963893Y-130407868D01*
X193942850Y-130420480D01*
X193920671Y-130430970D01*
X193897572Y-130439235D01*
X193873773Y-130445196D01*
X193849505Y-130448796D01*
X193825001Y-130450000D01*
X193174999Y-130450000D01*
X193150495Y-130448796D01*
X193126227Y-130445196D01*
X193102428Y-130439235D01*
X193079329Y-130430970D01*
X193057150Y-130420480D01*
X193036107Y-130407868D01*
X193016401Y-130393253D01*
X192998223Y-130376777D01*
X192981747Y-130358599D01*
X192967132Y-130338893D01*
X192954520Y-130317850D01*
X192944030Y-130295671D01*
X192935765Y-130272572D01*
X192929804Y-130248773D01*
X192926204Y-130224505D01*
X192925000Y-130200001D01*
X192925000Y-129299999D01*
X192926204Y-129275495D01*
X192929804Y-129251227D01*
X192935765Y-129227428D01*
X192944030Y-129204329D01*
X192954520Y-129182150D01*
X192967132Y-129161107D01*
X192981747Y-129141401D01*
X192998223Y-129123223D01*
X193016401Y-129106747D01*
X193036107Y-129092132D01*
X193057150Y-129079520D01*
X193079329Y-129069030D01*
X193102428Y-129060765D01*
X193126227Y-129054804D01*
X193150495Y-129051204D01*
X193174999Y-129050000D01*
X193825001Y-129050000D01*
X193849505Y-129051204D01*
G37*
D14*
X189500000Y-137800000D03*
X189500000Y-143200000D03*
D15*
X185400000Y-140250000D03*
X177100000Y-140250000D03*
D16*
X177525000Y-133905000D03*
X182475000Y-131365000D03*
X182475000Y-132635000D03*
X182475000Y-133905000D03*
X177525000Y-132635000D03*
X177525000Y-131365000D03*
X177525000Y-130095000D03*
X182475000Y-130095000D03*
D17*
X158240000Y-133000000D03*
X161760000Y-133000000D03*
D18*
X156299560Y-142180001D03*
X154299560Y-142180001D03*
X152299560Y-142180001D03*
X150299560Y-142180001D03*
X148299560Y-142180001D03*
X158299560Y-142180001D03*
X160299560Y-142180001D03*
X162299560Y-142180001D03*
X164299560Y-142180001D03*
X166299560Y-142180001D03*
X148299560Y-137860001D03*
X150299560Y-137860001D03*
X152299560Y-137860001D03*
X154299560Y-137860001D03*
X156299560Y-137860001D03*
X158299560Y-137860001D03*
X160299560Y-137860001D03*
X162299560Y-137860001D03*
X164299560Y-137860001D03*
X166299560Y-137860001D03*
D19*
X153135000Y-129350000D03*
X153135000Y-124150000D03*
X154405000Y-129350000D03*
X151865000Y-129350000D03*
X150595000Y-129350000D03*
X154405000Y-124150000D03*
X151865000Y-124150000D03*
X150595000Y-124150000D03*
D20*
X147500000Y-126600000D03*
X147500000Y-129400000D03*
D12*
X213000000Y-122474100D03*
X213000000Y-130525900D03*
M02*
