G04 #@! TF.GenerationSoftware,KiCad,Pcbnew,(5.1.5)-3*
G04 #@! TF.CreationDate,2020-06-29T02:19:28-04:00*
G04 #@! TF.ProjectId,PowerBoth,506f7765-7242-46f7-9468-2e6b69636164,rev?*
G04 #@! TF.SameCoordinates,Original*
G04 #@! TF.FileFunction,Soldermask,Top*
G04 #@! TF.FilePolarity,Negative*
%FSLAX46Y46*%
G04 Gerber Fmt 4.6, Leading zero omitted, Abs format (unit mm)*
G04 Created by KiCad (PCBNEW (5.1.5)-3) date 2020-06-29 02:19:28*
%MOMM*%
%LPD*%
G04 APERTURE LIST*
%ADD10C,0.100000*%
G04 APERTURE END LIST*
D10*
G36*
X219600000Y-125750000D02*
G01*
X220100000Y-126050000D01*
X220400000Y-126450000D01*
X220600000Y-126950000D01*
X220600000Y-130050000D01*
X220400000Y-130550000D01*
X219900000Y-131050000D01*
X219500000Y-131250000D01*
X216000000Y-131250000D01*
X215500000Y-131050000D01*
X215100000Y-130650000D01*
X214900000Y-130250000D01*
X214900000Y-126950000D01*
X215000000Y-126550000D01*
X215100000Y-126350000D01*
X215500000Y-125950000D01*
X215800000Y-125750000D01*
X216400000Y-125650000D01*
X219200000Y-125650000D01*
X219600000Y-125750000D01*
G37*
X219600000Y-125750000D02*
X220100000Y-126050000D01*
X220400000Y-126450000D01*
X220600000Y-126950000D01*
X220600000Y-130050000D01*
X220400000Y-130550000D01*
X219900000Y-131050000D01*
X219500000Y-131250000D01*
X216000000Y-131250000D01*
X215500000Y-131050000D01*
X215100000Y-130650000D01*
X214900000Y-130250000D01*
X214900000Y-126950000D01*
X215000000Y-126550000D01*
X215100000Y-126350000D01*
X215500000Y-125950000D01*
X215800000Y-125750000D01*
X216400000Y-125650000D01*
X219200000Y-125650000D01*
X219600000Y-125750000D01*
G36*
X193298680Y-125786532D02*
G01*
X193598680Y-125986532D01*
X193998680Y-126386532D01*
X194098680Y-126786532D01*
X194098680Y-130086532D01*
X193998680Y-130486532D01*
X193798680Y-130786532D01*
X193598680Y-130986532D01*
X193098680Y-131186532D01*
X192798680Y-131286532D01*
X189898680Y-131286532D01*
X189398680Y-131186532D01*
X188998680Y-130986532D01*
X188698680Y-130686532D01*
X188498680Y-130286532D01*
X188398680Y-129886532D01*
X188398680Y-126986532D01*
X188598680Y-126386532D01*
X188998680Y-125986532D01*
X189298680Y-125786532D01*
X189698680Y-125686532D01*
X192998680Y-125686532D01*
X193298680Y-125786532D01*
G37*
X193298680Y-125786532D02*
X193598680Y-125986532D01*
X193998680Y-126386532D01*
X194098680Y-126786532D01*
X194098680Y-130086532D01*
X193998680Y-130486532D01*
X193798680Y-130786532D01*
X193598680Y-130986532D01*
X193098680Y-131186532D01*
X192798680Y-131286532D01*
X189898680Y-131286532D01*
X189398680Y-131186532D01*
X188998680Y-130986532D01*
X188698680Y-130686532D01*
X188498680Y-130286532D01*
X188398680Y-129886532D01*
X188398680Y-126986532D01*
X188598680Y-126386532D01*
X188998680Y-125986532D01*
X189298680Y-125786532D01*
X189698680Y-125686532D01*
X192998680Y-125686532D01*
X193298680Y-125786532D01*
G36*
X263730191Y-141547499D02*
G01*
X263792728Y-141566470D01*
X263855263Y-141585439D01*
X263855265Y-141585440D01*
X263970527Y-141647049D01*
X264071561Y-141729964D01*
X264154475Y-141830996D01*
X264216084Y-141946258D01*
X264254025Y-142071332D01*
X264263625Y-142168804D01*
X264263625Y-143333994D01*
X264254025Y-143431469D01*
X264247116Y-143454243D01*
X264242335Y-143478276D01*
X264242335Y-143502780D01*
X264247115Y-143526814D01*
X264256492Y-143549452D01*
X264270106Y-143569827D01*
X264287433Y-143587154D01*
X264307807Y-143600768D01*
X264330446Y-143610145D01*
X264354479Y-143614926D01*
X264378983Y-143614926D01*
X264403017Y-143610146D01*
X264425655Y-143600769D01*
X264446030Y-143587155D01*
X264463357Y-143569828D01*
X264470665Y-143559975D01*
X264472960Y-143556540D01*
X264567122Y-143415616D01*
X264734407Y-143248331D01*
X264931113Y-143116897D01*
X264931115Y-143116896D01*
X265149682Y-143026362D01*
X265381710Y-142980209D01*
X265618290Y-142980209D01*
X265850318Y-143026362D01*
X266068885Y-143116896D01*
X266068887Y-143116897D01*
X266265593Y-143248331D01*
X266432878Y-143415616D01*
X266562857Y-143610145D01*
X266564313Y-143612324D01*
X266654847Y-143830891D01*
X266701000Y-144062919D01*
X266701000Y-144299499D01*
X266654847Y-144531527D01*
X266564313Y-144750094D01*
X266564312Y-144750096D01*
X266432878Y-144946802D01*
X266265593Y-145114087D01*
X266068887Y-145245521D01*
X266068886Y-145245522D01*
X266068885Y-145245522D01*
X265850318Y-145336056D01*
X265618290Y-145382209D01*
X265381710Y-145382209D01*
X265149682Y-145336056D01*
X264931115Y-145245522D01*
X264931114Y-145245522D01*
X264931113Y-145245521D01*
X264734407Y-145114087D01*
X264567122Y-144946802D01*
X264435688Y-144750096D01*
X264435687Y-144750094D01*
X264345153Y-144531527D01*
X264299000Y-144299499D01*
X264299000Y-144062919D01*
X264345154Y-143830888D01*
X264350037Y-143819098D01*
X264357150Y-143795649D01*
X264359552Y-143771263D01*
X264357150Y-143746877D01*
X264350037Y-143723428D01*
X264338485Y-143701817D01*
X264322940Y-143682876D01*
X264303998Y-143667330D01*
X264282387Y-143655780D01*
X264258938Y-143648667D01*
X264234552Y-143646265D01*
X264210166Y-143648667D01*
X264186717Y-143655780D01*
X264165106Y-143667332D01*
X264137927Y-143691966D01*
X264071561Y-143772835D01*
X263970528Y-143855749D01*
X263855266Y-143917358D01*
X263855264Y-143917359D01*
X263792729Y-143936328D01*
X263730192Y-143955299D01*
X263600125Y-143968109D01*
X263470059Y-143955299D01*
X263407522Y-143936328D01*
X263344987Y-143917359D01*
X263344985Y-143917358D01*
X263229723Y-143855749D01*
X263128690Y-143772835D01*
X263045776Y-143671802D01*
X262984167Y-143556540D01*
X262975150Y-143526814D01*
X262960426Y-143478276D01*
X262946226Y-143431466D01*
X262936626Y-143333994D01*
X262936625Y-142168805D01*
X262946225Y-142071333D01*
X262984166Y-141946259D01*
X263045775Y-141830997D01*
X263128690Y-141729963D01*
X263229722Y-141647049D01*
X263344984Y-141585440D01*
X263344986Y-141585439D01*
X263407521Y-141566470D01*
X263470058Y-141547499D01*
X263600125Y-141534689D01*
X263730191Y-141547499D01*
G37*
G36*
X253830191Y-141547499D02*
G01*
X253892728Y-141566470D01*
X253955263Y-141585439D01*
X253955265Y-141585440D01*
X254070527Y-141647049D01*
X254171561Y-141729964D01*
X254254475Y-141830996D01*
X254316084Y-141946258D01*
X254354025Y-142071332D01*
X254363625Y-142168804D01*
X254363625Y-143333994D01*
X254354025Y-143431466D01*
X254339825Y-143478276D01*
X254325102Y-143526814D01*
X254316084Y-143556540D01*
X254254475Y-143671802D01*
X254171561Y-143772835D01*
X254070528Y-143855749D01*
X253955266Y-143917358D01*
X253955264Y-143917359D01*
X253892729Y-143936328D01*
X253830192Y-143955299D01*
X253700125Y-143968109D01*
X253570059Y-143955299D01*
X253507522Y-143936328D01*
X253444987Y-143917359D01*
X253444985Y-143917358D01*
X253329723Y-143855749D01*
X253228690Y-143772835D01*
X253145776Y-143671802D01*
X253084167Y-143556540D01*
X253075150Y-143526814D01*
X253060426Y-143478276D01*
X253046226Y-143431466D01*
X253036626Y-143333994D01*
X253036625Y-142168805D01*
X253046225Y-142071333D01*
X253084166Y-141946259D01*
X253145775Y-141830997D01*
X253228690Y-141729963D01*
X253329722Y-141647049D01*
X253444984Y-141585440D01*
X253444986Y-141585439D01*
X253507521Y-141566470D01*
X253570058Y-141547499D01*
X253700125Y-141534689D01*
X253830191Y-141547499D01*
G37*
G36*
X257779612Y-140500395D02*
G01*
X257990145Y-140587601D01*
X258016380Y-140598468D01*
X258124933Y-140671001D01*
X258229464Y-140740846D01*
X258410678Y-140922060D01*
X258553057Y-141135146D01*
X258651129Y-141371912D01*
X258701125Y-141623260D01*
X258701125Y-141879538D01*
X258651129Y-142130886D01*
X258553057Y-142367652D01*
X258553056Y-142367654D01*
X258410678Y-142580738D01*
X258229464Y-142761952D01*
X258016380Y-142904330D01*
X258016379Y-142904331D01*
X258016378Y-142904331D01*
X257779612Y-143002403D01*
X257528264Y-143052399D01*
X257271986Y-143052399D01*
X257020638Y-143002403D01*
X256783872Y-142904331D01*
X256783871Y-142904331D01*
X256783870Y-142904330D01*
X256570786Y-142761952D01*
X256389572Y-142580738D01*
X256247194Y-142367654D01*
X256247193Y-142367652D01*
X256149121Y-142130886D01*
X256099125Y-141879538D01*
X256099125Y-141623260D01*
X256149121Y-141371912D01*
X256247193Y-141135146D01*
X256389572Y-140922060D01*
X256570786Y-140740846D01*
X256675317Y-140671001D01*
X256783870Y-140598468D01*
X256810105Y-140587601D01*
X257020638Y-140500395D01*
X257271986Y-140450399D01*
X257528264Y-140450399D01*
X257779612Y-140500395D01*
G37*
G36*
X265953055Y-140534072D02*
G01*
X266031507Y-140541799D01*
X266132166Y-140572334D01*
X266182497Y-140587601D01*
X266321649Y-140661980D01*
X266443617Y-140762076D01*
X266543713Y-140884044D01*
X266618092Y-141023196D01*
X266618092Y-141023197D01*
X266663894Y-141174186D01*
X266679359Y-141331209D01*
X266663894Y-141488232D01*
X266645915Y-141547500D01*
X266618092Y-141639222D01*
X266543713Y-141778374D01*
X266443617Y-141900342D01*
X266321649Y-142000438D01*
X266182497Y-142074817D01*
X266132166Y-142090084D01*
X266031507Y-142120619D01*
X265953055Y-142128346D01*
X265913830Y-142132209D01*
X265310654Y-142132209D01*
X265271429Y-142128346D01*
X265192977Y-142120619D01*
X265092318Y-142090084D01*
X265041987Y-142074817D01*
X264902835Y-142000438D01*
X264780867Y-141900342D01*
X264680771Y-141778374D01*
X264606392Y-141639222D01*
X264578569Y-141547500D01*
X264560590Y-141488232D01*
X264545125Y-141331209D01*
X264560590Y-141174186D01*
X264606392Y-141023197D01*
X264606392Y-141023196D01*
X264680771Y-140884044D01*
X264780867Y-140762076D01*
X264902835Y-140661980D01*
X265041987Y-140587601D01*
X265092318Y-140572334D01*
X265192977Y-140541799D01*
X265271429Y-140534072D01*
X265310654Y-140530209D01*
X265913830Y-140530209D01*
X265953055Y-140534072D01*
G37*
G36*
X268499915Y-141382209D02*
G01*
X267172915Y-141382209D01*
X267172915Y-140055209D01*
X268499915Y-140055209D01*
X268499915Y-141382209D01*
G37*
G36*
X149430081Y-139382209D02*
G01*
X149489450Y-139394018D01*
X149607924Y-139443092D01*
X149714548Y-139514336D01*
X149805225Y-139605013D01*
X149876469Y-139711637D01*
X149925543Y-139830111D01*
X149950560Y-139955883D01*
X149950560Y-140084119D01*
X149925543Y-140209891D01*
X149876469Y-140328365D01*
X149805225Y-140434989D01*
X149714548Y-140525666D01*
X149607924Y-140596910D01*
X149607923Y-140596911D01*
X149607922Y-140596911D01*
X149489450Y-140645984D01*
X149363679Y-140671001D01*
X149235441Y-140671001D01*
X149109670Y-140645984D01*
X148991198Y-140596911D01*
X148991197Y-140596911D01*
X148991196Y-140596910D01*
X148884572Y-140525666D01*
X148793895Y-140434989D01*
X148722651Y-140328365D01*
X148673577Y-140209891D01*
X148648560Y-140084119D01*
X148648560Y-139955883D01*
X148673577Y-139830111D01*
X148722651Y-139711637D01*
X148793895Y-139605013D01*
X148884572Y-139514336D01*
X148991196Y-139443092D01*
X149109670Y-139394018D01*
X149169039Y-139382209D01*
X149235441Y-139369001D01*
X149363679Y-139369001D01*
X149430081Y-139382209D01*
G37*
G36*
X165430081Y-139382209D02*
G01*
X165489450Y-139394018D01*
X165607924Y-139443092D01*
X165714548Y-139514336D01*
X165805225Y-139605013D01*
X165876469Y-139711637D01*
X165925543Y-139830111D01*
X165950560Y-139955883D01*
X165950560Y-140084119D01*
X165925543Y-140209891D01*
X165876469Y-140328365D01*
X165805225Y-140434989D01*
X165714548Y-140525666D01*
X165607924Y-140596910D01*
X165607923Y-140596911D01*
X165607922Y-140596911D01*
X165489450Y-140645984D01*
X165363679Y-140671001D01*
X165235441Y-140671001D01*
X165109670Y-140645984D01*
X164991198Y-140596911D01*
X164991197Y-140596911D01*
X164991196Y-140596910D01*
X164884572Y-140525666D01*
X164793895Y-140434989D01*
X164722651Y-140328365D01*
X164673577Y-140209891D01*
X164648560Y-140084119D01*
X164648560Y-139955883D01*
X164673577Y-139830111D01*
X164722651Y-139711637D01*
X164793895Y-139605013D01*
X164884572Y-139514336D01*
X164991196Y-139443092D01*
X165109670Y-139394018D01*
X165169039Y-139382209D01*
X165235441Y-139369001D01*
X165363679Y-139369001D01*
X165430081Y-139382209D01*
G37*
G36*
X173358500Y-139888500D02*
G01*
X170661500Y-139888500D01*
X170661500Y-138111500D01*
X173358500Y-138111500D01*
X173358500Y-139888500D01*
G37*
G36*
X169838500Y-139888500D02*
G01*
X167141500Y-139888500D01*
X167141500Y-138111500D01*
X169838500Y-138111500D01*
X169838500Y-139888500D01*
G37*
G36*
X267965857Y-138067958D02*
G01*
X268029951Y-138080707D01*
X268150700Y-138130723D01*
X268259371Y-138203335D01*
X268351789Y-138295753D01*
X268424401Y-138404424D01*
X268474417Y-138525173D01*
X268499915Y-138653360D01*
X268499915Y-138784058D01*
X268474417Y-138912245D01*
X268424401Y-139032994D01*
X268351789Y-139141665D01*
X268259371Y-139234083D01*
X268150700Y-139306695D01*
X268029951Y-139356711D01*
X267968165Y-139369001D01*
X267901765Y-139382209D01*
X267771065Y-139382209D01*
X267704665Y-139369001D01*
X267642879Y-139356711D01*
X267522130Y-139306695D01*
X267413459Y-139234083D01*
X267321041Y-139141665D01*
X267248429Y-139032994D01*
X267198413Y-138912245D01*
X267172915Y-138784058D01*
X267172915Y-138653360D01*
X267198413Y-138525173D01*
X267248429Y-138404424D01*
X267321041Y-138295753D01*
X267413459Y-138203335D01*
X267522130Y-138130723D01*
X267642879Y-138080707D01*
X267706973Y-138067958D01*
X267771065Y-138055209D01*
X267901765Y-138055209D01*
X267965857Y-138067958D01*
G37*
G36*
X267965857Y-136067958D02*
G01*
X268029951Y-136080707D01*
X268150700Y-136130723D01*
X268259371Y-136203335D01*
X268351789Y-136295753D01*
X268424401Y-136404424D01*
X268474417Y-136525173D01*
X268499915Y-136653360D01*
X268499915Y-136784058D01*
X268474417Y-136912245D01*
X268424401Y-137032994D01*
X268351789Y-137141665D01*
X268259371Y-137234083D01*
X268150700Y-137306695D01*
X268029951Y-137356711D01*
X267965857Y-137369460D01*
X267901765Y-137382209D01*
X267771065Y-137382209D01*
X267706973Y-137369460D01*
X267642879Y-137356711D01*
X267522130Y-137306695D01*
X267413459Y-137234083D01*
X267321041Y-137141665D01*
X267248429Y-137032994D01*
X267198413Y-136912245D01*
X267172915Y-136784058D01*
X267172915Y-136653360D01*
X267198413Y-136525173D01*
X267248429Y-136404424D01*
X267321041Y-136295753D01*
X267413459Y-136203335D01*
X267522130Y-136130723D01*
X267642879Y-136080707D01*
X267706973Y-136067958D01*
X267771065Y-136055209D01*
X267901765Y-136055209D01*
X267965857Y-136067958D01*
G37*
G36*
X262845300Y-134248262D02*
G01*
X262859599Y-134249670D01*
X262892933Y-134259782D01*
X263012943Y-134296187D01*
X263154267Y-134371726D01*
X263278140Y-134473384D01*
X263379798Y-134597256D01*
X263455337Y-134738580D01*
X263469133Y-134784058D01*
X263500081Y-134886078D01*
X263501854Y-134891925D01*
X263513625Y-135011437D01*
X263513625Y-135891361D01*
X263501854Y-136010873D01*
X263455337Y-136164218D01*
X263379798Y-136305542D01*
X263278140Y-136429414D01*
X263154268Y-136531072D01*
X263012944Y-136606611D01*
X262936271Y-136629870D01*
X262859600Y-136653128D01*
X262845301Y-136654536D01*
X262700125Y-136668835D01*
X262542997Y-136653359D01*
X262540651Y-136653128D01*
X262463980Y-136629870D01*
X262387307Y-136606611D01*
X262245983Y-136531072D01*
X262122111Y-136429414D01*
X262020453Y-136305542D01*
X261944914Y-136164218D01*
X261898397Y-136010873D01*
X261886625Y-135891361D01*
X261886625Y-135011438D01*
X261898396Y-134891926D01*
X261898397Y-134891924D01*
X261944913Y-134738582D01*
X261944913Y-134738581D01*
X262020452Y-134597257D01*
X262122110Y-134473384D01*
X262245982Y-134371726D01*
X262387306Y-134296187D01*
X262507316Y-134259782D01*
X262540650Y-134249670D01*
X262554949Y-134248262D01*
X262700125Y-134233963D01*
X262845300Y-134248262D01*
G37*
G36*
X257645300Y-134248262D02*
G01*
X257659599Y-134249670D01*
X257692933Y-134259782D01*
X257812943Y-134296187D01*
X257954267Y-134371726D01*
X258078140Y-134473384D01*
X258179798Y-134597256D01*
X258255337Y-134738580D01*
X258269133Y-134784058D01*
X258300081Y-134886078D01*
X258301854Y-134891925D01*
X258313625Y-135011437D01*
X258313625Y-135891361D01*
X258301854Y-136010873D01*
X258255337Y-136164218D01*
X258179798Y-136305542D01*
X258078140Y-136429414D01*
X257954268Y-136531072D01*
X257812944Y-136606611D01*
X257736271Y-136629870D01*
X257659600Y-136653128D01*
X257645301Y-136654536D01*
X257500125Y-136668835D01*
X257342997Y-136653359D01*
X257340651Y-136653128D01*
X257263980Y-136629870D01*
X257187307Y-136606611D01*
X257045983Y-136531072D01*
X256922111Y-136429414D01*
X256820453Y-136305542D01*
X256744914Y-136164218D01*
X256698397Y-136010873D01*
X256686625Y-135891361D01*
X256686625Y-135011438D01*
X256698396Y-134891926D01*
X256698397Y-134891924D01*
X256744913Y-134738582D01*
X256744913Y-134738581D01*
X256820452Y-134597257D01*
X256922110Y-134473384D01*
X257045982Y-134371726D01*
X257187306Y-134296187D01*
X257307316Y-134259782D01*
X257340650Y-134249670D01*
X257354949Y-134248262D01*
X257500125Y-134233963D01*
X257645300Y-134248262D01*
G37*
G36*
X254245300Y-134248262D02*
G01*
X254259599Y-134249670D01*
X254292933Y-134259782D01*
X254412943Y-134296187D01*
X254554267Y-134371726D01*
X254678140Y-134473384D01*
X254779798Y-134597256D01*
X254855337Y-134738580D01*
X254869133Y-134784058D01*
X254900081Y-134886078D01*
X254901854Y-134891925D01*
X254913625Y-135011437D01*
X254913625Y-135891361D01*
X254901854Y-136010873D01*
X254855337Y-136164218D01*
X254779798Y-136305542D01*
X254678140Y-136429414D01*
X254554268Y-136531072D01*
X254412944Y-136606611D01*
X254336271Y-136629870D01*
X254259600Y-136653128D01*
X254245301Y-136654536D01*
X254100125Y-136668835D01*
X253942997Y-136653359D01*
X253940651Y-136653128D01*
X253863980Y-136629870D01*
X253787307Y-136606611D01*
X253645983Y-136531072D01*
X253522111Y-136429414D01*
X253420453Y-136305542D01*
X253344914Y-136164218D01*
X253298397Y-136010873D01*
X253286625Y-135891361D01*
X253286625Y-135011438D01*
X253298396Y-134891926D01*
X253298397Y-134891924D01*
X253344913Y-134738582D01*
X253344913Y-134738581D01*
X253420452Y-134597257D01*
X253522110Y-134473384D01*
X253645982Y-134371726D01*
X253787306Y-134296187D01*
X253907316Y-134259782D01*
X253940650Y-134249670D01*
X253954949Y-134248262D01*
X254100125Y-134233963D01*
X254245300Y-134248262D01*
G37*
G36*
X169263500Y-135768500D02*
G01*
X166936500Y-135768500D01*
X166936500Y-135041500D01*
X169263500Y-135041500D01*
X169263500Y-135768500D01*
G37*
G36*
X164063500Y-135768500D02*
G01*
X161736500Y-135768500D01*
X161736500Y-135041500D01*
X164063500Y-135041500D01*
X164063500Y-135768500D01*
G37*
G36*
X136748228Y-133983965D02*
G01*
X136903100Y-134048115D01*
X137042481Y-134141247D01*
X137161015Y-134259781D01*
X137254147Y-134399162D01*
X137318297Y-134554034D01*
X137351000Y-134718446D01*
X137351000Y-134886078D01*
X137318297Y-135050490D01*
X137254147Y-135205362D01*
X137161015Y-135344743D01*
X137042481Y-135463277D01*
X136903100Y-135556409D01*
X136748228Y-135620559D01*
X136583816Y-135653262D01*
X136416184Y-135653262D01*
X136251772Y-135620559D01*
X136096900Y-135556409D01*
X135957519Y-135463277D01*
X135838985Y-135344743D01*
X135745853Y-135205362D01*
X135681703Y-135050490D01*
X135649000Y-134886078D01*
X135649000Y-134718446D01*
X135681703Y-134554034D01*
X135745853Y-134399162D01*
X135838985Y-134259781D01*
X135957519Y-134141247D01*
X136096900Y-134048115D01*
X136251772Y-133983965D01*
X136416184Y-133951262D01*
X136583816Y-133951262D01*
X136748228Y-133983965D01*
G37*
G36*
X268029951Y-134080707D02*
G01*
X268150700Y-134130723D01*
X268259371Y-134203335D01*
X268351789Y-134295753D01*
X268424401Y-134404424D01*
X268474417Y-134525173D01*
X268499915Y-134653360D01*
X268499915Y-134784058D01*
X268474417Y-134912245D01*
X268424401Y-135032994D01*
X268351789Y-135141665D01*
X268259371Y-135234083D01*
X268150700Y-135306695D01*
X268029951Y-135356711D01*
X267901765Y-135382209D01*
X267771065Y-135382209D01*
X267642879Y-135356711D01*
X267522130Y-135306695D01*
X267413459Y-135234083D01*
X267321041Y-135141665D01*
X267248429Y-135032994D01*
X267198413Y-134912245D01*
X267172915Y-134784058D01*
X267172915Y-134653360D01*
X267198413Y-134525173D01*
X267248429Y-134404424D01*
X267321041Y-134295753D01*
X267413459Y-134203335D01*
X267522130Y-134130723D01*
X267642879Y-134080707D01*
X267771065Y-134055209D01*
X267901765Y-134055209D01*
X268029951Y-134080707D01*
G37*
G36*
X164063500Y-134498500D02*
G01*
X161736500Y-134498500D01*
X161736500Y-133771500D01*
X164063500Y-133771500D01*
X164063500Y-134498500D01*
G37*
G36*
X169263500Y-134498500D02*
G01*
X166936500Y-134498500D01*
X166936500Y-133771500D01*
X169263500Y-133771500D01*
X169263500Y-134498500D01*
G37*
G36*
X136850318Y-131077415D02*
G01*
X137068885Y-131167949D01*
X137068887Y-131167950D01*
X137265593Y-131299384D01*
X137432878Y-131466669D01*
X137564312Y-131663375D01*
X137564313Y-131663377D01*
X137654847Y-131881944D01*
X137701000Y-132113972D01*
X137701000Y-132350552D01*
X137654847Y-132582580D01*
X137571391Y-132784059D01*
X137564312Y-132801149D01*
X137432878Y-132997855D01*
X137265593Y-133165140D01*
X137068887Y-133296574D01*
X137068886Y-133296575D01*
X137068885Y-133296575D01*
X136850318Y-133387109D01*
X136618290Y-133433262D01*
X136381710Y-133433262D01*
X136149682Y-133387109D01*
X135931115Y-133296575D01*
X135931114Y-133296575D01*
X135931113Y-133296574D01*
X135734407Y-133165140D01*
X135567122Y-132997855D01*
X135435688Y-132801149D01*
X135428609Y-132784059D01*
X135345153Y-132582580D01*
X135299000Y-132350552D01*
X135299000Y-132113972D01*
X135345153Y-131881944D01*
X135435687Y-131663377D01*
X135435688Y-131663375D01*
X135567122Y-131466669D01*
X135734407Y-131299384D01*
X135931113Y-131167950D01*
X135931115Y-131167949D01*
X136149682Y-131077415D01*
X136381710Y-131031262D01*
X136618290Y-131031262D01*
X136850318Y-131077415D01*
G37*
G36*
X267965857Y-132067958D02*
G01*
X268029951Y-132080707D01*
X268150700Y-132130723D01*
X268162339Y-132138500D01*
X268259371Y-132203335D01*
X268351789Y-132295753D01*
X268424402Y-132404426D01*
X268474417Y-132525174D01*
X268499915Y-132653359D01*
X268499915Y-132784059D01*
X268474417Y-132912245D01*
X268424401Y-133032994D01*
X268351789Y-133141665D01*
X268259371Y-133234083D01*
X268150700Y-133306695D01*
X268029951Y-133356711D01*
X267965857Y-133369460D01*
X267901765Y-133382209D01*
X267771065Y-133382209D01*
X267706973Y-133369460D01*
X267642879Y-133356711D01*
X267522130Y-133306695D01*
X267413459Y-133234083D01*
X267321041Y-133141665D01*
X267248429Y-133032994D01*
X267198413Y-132912245D01*
X267185664Y-132848151D01*
X267172915Y-132784059D01*
X267172915Y-132653359D01*
X267198413Y-132525174D01*
X267248428Y-132404426D01*
X267321041Y-132295753D01*
X267413459Y-132203335D01*
X267510491Y-132138500D01*
X267522130Y-132130723D01*
X267642879Y-132080707D01*
X267706973Y-132067958D01*
X267771065Y-132055209D01*
X267901765Y-132055209D01*
X267965857Y-132067958D01*
G37*
G36*
X169263500Y-133228500D02*
G01*
X166936500Y-133228500D01*
X166936500Y-132501500D01*
X169263500Y-132501500D01*
X169263500Y-133228500D01*
G37*
G36*
X164063500Y-133228500D02*
G01*
X161736500Y-133228500D01*
X161736500Y-132501500D01*
X164063500Y-132501500D01*
X164063500Y-133228500D01*
G37*
G36*
X259208500Y-132138500D02*
G01*
X256511500Y-132138500D01*
X256511500Y-130361500D01*
X259208500Y-130361500D01*
X259208500Y-132138500D01*
G37*
G36*
X255688500Y-132138500D02*
G01*
X252991500Y-132138500D01*
X252991500Y-130361500D01*
X255688500Y-130361500D01*
X255688500Y-132138500D01*
G37*
G36*
X164063500Y-131958500D02*
G01*
X161736500Y-131958500D01*
X161736500Y-131231500D01*
X164063500Y-131231500D01*
X164063500Y-131958500D01*
G37*
G36*
X169263500Y-131958500D02*
G01*
X166936500Y-131958500D01*
X166936500Y-131231500D01*
X169263500Y-131231500D01*
X169263500Y-131958500D01*
G37*
G36*
X247063625Y-131719899D02*
G01*
X244736625Y-131719899D01*
X244736625Y-130992899D01*
X247063625Y-130992899D01*
X247063625Y-131719899D01*
G37*
G36*
X241863625Y-131719899D02*
G01*
X239536625Y-131719899D01*
X239536625Y-130992899D01*
X241863625Y-130992899D01*
X241863625Y-131719899D01*
G37*
G36*
X237408625Y-131089899D02*
G01*
X234711625Y-131089899D01*
X234711625Y-129312899D01*
X237408625Y-129312899D01*
X237408625Y-131089899D01*
G37*
G36*
X233888625Y-131089899D02*
G01*
X231191625Y-131089899D01*
X231191625Y-129312899D01*
X233888625Y-129312899D01*
X233888625Y-131089899D01*
G37*
G36*
X241863625Y-130449899D02*
G01*
X239536625Y-130449899D01*
X239536625Y-129722899D01*
X241863625Y-129722899D01*
X241863625Y-130449899D01*
G37*
G36*
X247063625Y-130449899D02*
G01*
X244736625Y-130449899D01*
X244736625Y-129722899D01*
X247063625Y-129722899D01*
X247063625Y-130449899D01*
G37*
G36*
X248938674Y-128753465D02*
G01*
X248976367Y-128764899D01*
X249011103Y-128783466D01*
X249041548Y-128808452D01*
X249066534Y-128838897D01*
X249085101Y-128873633D01*
X249096535Y-128911326D01*
X249101000Y-128956661D01*
X249101000Y-130043339D01*
X249096535Y-130088674D01*
X249085101Y-130126367D01*
X249066534Y-130161103D01*
X249041548Y-130191548D01*
X249011103Y-130216534D01*
X248976367Y-130235101D01*
X248938674Y-130246535D01*
X248893339Y-130251000D01*
X248056661Y-130251000D01*
X248011326Y-130246535D01*
X247973633Y-130235101D01*
X247938897Y-130216534D01*
X247908452Y-130191548D01*
X247883466Y-130161103D01*
X247864899Y-130126367D01*
X247853465Y-130088674D01*
X247849000Y-130043339D01*
X247849000Y-128956661D01*
X247853465Y-128911326D01*
X247864899Y-128873633D01*
X247883466Y-128838897D01*
X247908452Y-128808452D01*
X247938897Y-128783466D01*
X247973633Y-128764899D01*
X248011326Y-128753465D01*
X248056661Y-128749000D01*
X248893339Y-128749000D01*
X248938674Y-128753465D01*
G37*
G36*
X250988674Y-128753465D02*
G01*
X251026367Y-128764899D01*
X251061103Y-128783466D01*
X251091548Y-128808452D01*
X251116534Y-128838897D01*
X251135101Y-128873633D01*
X251146535Y-128911326D01*
X251151000Y-128956661D01*
X251151000Y-130043339D01*
X251146535Y-130088674D01*
X251135101Y-130126367D01*
X251116534Y-130161103D01*
X251091548Y-130191548D01*
X251061103Y-130216534D01*
X251026367Y-130235101D01*
X250988674Y-130246535D01*
X250943339Y-130251000D01*
X250106661Y-130251000D01*
X250061326Y-130246535D01*
X250023633Y-130235101D01*
X249988897Y-130216534D01*
X249958452Y-130191548D01*
X249933466Y-130161103D01*
X249914899Y-130126367D01*
X249903465Y-130088674D01*
X249899000Y-130043339D01*
X249899000Y-128956661D01*
X249903465Y-128911326D01*
X249914899Y-128873633D01*
X249933466Y-128838897D01*
X249958452Y-128808452D01*
X249988897Y-128783466D01*
X250023633Y-128764899D01*
X250061326Y-128753465D01*
X250106661Y-128749000D01*
X250943339Y-128749000D01*
X250988674Y-128753465D01*
G37*
G36*
X265896188Y-124027373D02*
G01*
X266414595Y-124242104D01*
X266424138Y-124246057D01*
X266899279Y-124563536D01*
X267303353Y-124967610D01*
X267544298Y-125328210D01*
X267620833Y-125442753D01*
X267839516Y-125970701D01*
X267950999Y-126531165D01*
X267950999Y-127102615D01*
X267839516Y-127663079D01*
X267839515Y-127663081D01*
X267620832Y-128191029D01*
X267303353Y-128666170D01*
X266899279Y-129070244D01*
X266424138Y-129387723D01*
X266424137Y-129387724D01*
X266424136Y-129387724D01*
X265896188Y-129606407D01*
X265335724Y-129717890D01*
X264764274Y-129717890D01*
X264203810Y-129606407D01*
X263675862Y-129387724D01*
X263675861Y-129387724D01*
X263675860Y-129387723D01*
X263200719Y-129070244D01*
X262796645Y-128666170D01*
X262479166Y-128191029D01*
X262260483Y-127663081D01*
X262260482Y-127663079D01*
X262148999Y-127102615D01*
X262148999Y-126531165D01*
X262260482Y-125970701D01*
X262479165Y-125442753D01*
X262555700Y-125328210D01*
X262796645Y-124967610D01*
X263200719Y-124563536D01*
X263675860Y-124246057D01*
X263685403Y-124242104D01*
X264203810Y-124027373D01*
X264764274Y-123915890D01*
X265335724Y-123915890D01*
X265896188Y-124027373D01*
G37*
G36*
X171763500Y-129713500D02*
G01*
X170036500Y-129713500D01*
X170036500Y-127786500D01*
X171763500Y-127786500D01*
X171763500Y-129713500D01*
G37*
G36*
X168963500Y-129713500D02*
G01*
X167236500Y-129713500D01*
X167236500Y-127786500D01*
X168963500Y-127786500D01*
X168963500Y-129713500D01*
G37*
G36*
X247063625Y-129179899D02*
G01*
X244736625Y-129179899D01*
X244736625Y-128452899D01*
X247063625Y-128452899D01*
X247063625Y-129179899D01*
G37*
G36*
X241863625Y-129179899D02*
G01*
X239536625Y-129179899D01*
X239536625Y-128452899D01*
X241863625Y-128452899D01*
X241863625Y-129179899D01*
G37*
G36*
X247063625Y-127909899D02*
G01*
X244736625Y-127909899D01*
X244736625Y-127182899D01*
X247063625Y-127182899D01*
X247063625Y-127909899D01*
G37*
G36*
X241863625Y-127909899D02*
G01*
X239536625Y-127909899D01*
X239536625Y-127182899D01*
X241863625Y-127182899D01*
X241863625Y-127909899D01*
G37*
G36*
X250589624Y-126228445D02*
G01*
X250627120Y-126239820D01*
X250661679Y-126258292D01*
X250691972Y-126283153D01*
X250716833Y-126313446D01*
X250735305Y-126348005D01*
X250746680Y-126385501D01*
X250751125Y-126430638D01*
X250751125Y-127069362D01*
X250746680Y-127114499D01*
X250735305Y-127151995D01*
X250716833Y-127186554D01*
X250691972Y-127216847D01*
X250661679Y-127241708D01*
X250627120Y-127260180D01*
X250589624Y-127271555D01*
X250544487Y-127276000D01*
X249805763Y-127276000D01*
X249760626Y-127271555D01*
X249723130Y-127260180D01*
X249688571Y-127241708D01*
X249658278Y-127216847D01*
X249633417Y-127186554D01*
X249614945Y-127151995D01*
X249603570Y-127114499D01*
X249599125Y-127069362D01*
X249599125Y-126430638D01*
X249603570Y-126385501D01*
X249614945Y-126348005D01*
X249633417Y-126313446D01*
X249658278Y-126283153D01*
X249688571Y-126258292D01*
X249723130Y-126239820D01*
X249760626Y-126228445D01*
X249805763Y-126224000D01*
X250544487Y-126224000D01*
X250589624Y-126228445D01*
G37*
G36*
X248839624Y-126228445D02*
G01*
X248877120Y-126239820D01*
X248911679Y-126258292D01*
X248941972Y-126283153D01*
X248966833Y-126313446D01*
X248985305Y-126348005D01*
X248996680Y-126385501D01*
X249001125Y-126430638D01*
X249001125Y-127069362D01*
X248996680Y-127114499D01*
X248985305Y-127151995D01*
X248966833Y-127186554D01*
X248941972Y-127216847D01*
X248911679Y-127241708D01*
X248877120Y-127260180D01*
X248839624Y-127271555D01*
X248794487Y-127276000D01*
X248055763Y-127276000D01*
X248010626Y-127271555D01*
X247973130Y-127260180D01*
X247938571Y-127241708D01*
X247908278Y-127216847D01*
X247883417Y-127186554D01*
X247864945Y-127151995D01*
X247853570Y-127114499D01*
X247849125Y-127069362D01*
X247849125Y-126430638D01*
X247853570Y-126385501D01*
X247864945Y-126348005D01*
X247883417Y-126313446D01*
X247908278Y-126283153D01*
X247938571Y-126258292D01*
X247973130Y-126239820D01*
X248010626Y-126228445D01*
X248055763Y-126224000D01*
X248794487Y-126224000D01*
X248839624Y-126228445D01*
G37*
G36*
X163838674Y-125653465D02*
G01*
X163876367Y-125664899D01*
X163911103Y-125683466D01*
X163941548Y-125708452D01*
X163966534Y-125738897D01*
X163985101Y-125773633D01*
X163996535Y-125811326D01*
X164001000Y-125856661D01*
X164001000Y-126693339D01*
X163996535Y-126738674D01*
X163985101Y-126776367D01*
X163966534Y-126811103D01*
X163941548Y-126841548D01*
X163911103Y-126866534D01*
X163876367Y-126885101D01*
X163838674Y-126896535D01*
X163793339Y-126901000D01*
X162706661Y-126901000D01*
X162661326Y-126896535D01*
X162623633Y-126885101D01*
X162588897Y-126866534D01*
X162558452Y-126841548D01*
X162533466Y-126811103D01*
X162514899Y-126776367D01*
X162503465Y-126738674D01*
X162499000Y-126693339D01*
X162499000Y-125856661D01*
X162503465Y-125811326D01*
X162514899Y-125773633D01*
X162533466Y-125738897D01*
X162558452Y-125708452D01*
X162588897Y-125683466D01*
X162623633Y-125664899D01*
X162661326Y-125653465D01*
X162706661Y-125649000D01*
X163793339Y-125649000D01*
X163838674Y-125653465D01*
G37*
G36*
X238765125Y-126236899D02*
G01*
X236835125Y-126236899D01*
X236835125Y-124509899D01*
X238765125Y-124509899D01*
X238765125Y-126236899D01*
G37*
G36*
X241369725Y-126211199D02*
G01*
X239587825Y-126211199D01*
X239587825Y-125501599D01*
X241369725Y-125501599D01*
X241369725Y-126211199D01*
G37*
G36*
X247012425Y-126211199D02*
G01*
X245230525Y-126211199D01*
X245230525Y-125501599D01*
X247012425Y-125501599D01*
X247012425Y-126211199D01*
G37*
G36*
X156932228Y-125151666D02*
G01*
X156997245Y-125164599D01*
X157089113Y-125202652D01*
X157171792Y-125257896D01*
X157242104Y-125328208D01*
X157297348Y-125410887D01*
X157335401Y-125502755D01*
X157354800Y-125600281D01*
X157354800Y-125699719D01*
X157335401Y-125797245D01*
X157297348Y-125889113D01*
X157242104Y-125971792D01*
X157171792Y-126042104D01*
X157089113Y-126097348D01*
X156997245Y-126135401D01*
X156932228Y-126148334D01*
X156899720Y-126154800D01*
X156800280Y-126154800D01*
X156767772Y-126148334D01*
X156702755Y-126135401D01*
X156610887Y-126097348D01*
X156528208Y-126042104D01*
X156457896Y-125971792D01*
X156402652Y-125889113D01*
X156364599Y-125797245D01*
X156345200Y-125699719D01*
X156345200Y-125600281D01*
X156364599Y-125502755D01*
X156402652Y-125410887D01*
X156457896Y-125328208D01*
X156528208Y-125257896D01*
X156610887Y-125202652D01*
X156702755Y-125164599D01*
X156767772Y-125151666D01*
X156800280Y-125145200D01*
X156899720Y-125145200D01*
X156932228Y-125151666D01*
G37*
G36*
X158732228Y-125151666D02*
G01*
X158797245Y-125164599D01*
X158889113Y-125202652D01*
X158971792Y-125257896D01*
X159042104Y-125328208D01*
X159097348Y-125410887D01*
X159135401Y-125502755D01*
X159154800Y-125600281D01*
X159154800Y-125699719D01*
X159135401Y-125797245D01*
X159097348Y-125889113D01*
X159042104Y-125971792D01*
X158971792Y-126042104D01*
X158889113Y-126097348D01*
X158797245Y-126135401D01*
X158732228Y-126148334D01*
X158699720Y-126154800D01*
X158600280Y-126154800D01*
X158567772Y-126148334D01*
X158502755Y-126135401D01*
X158410887Y-126097348D01*
X158328208Y-126042104D01*
X158257896Y-125971792D01*
X158202652Y-125889113D01*
X158164599Y-125797245D01*
X158145200Y-125699719D01*
X158145200Y-125600281D01*
X158164599Y-125502755D01*
X158202652Y-125410887D01*
X158257896Y-125328208D01*
X158328208Y-125257896D01*
X158410887Y-125202652D01*
X158502755Y-125164599D01*
X158567772Y-125151666D01*
X158600280Y-125145200D01*
X158699720Y-125145200D01*
X158732228Y-125151666D01*
G37*
G36*
X250465000Y-125636899D02*
G01*
X248535000Y-125636899D01*
X248535000Y-123909899D01*
X250465000Y-123909899D01*
X250465000Y-125636899D01*
G37*
G36*
X157832228Y-124251666D02*
G01*
X157897245Y-124264599D01*
X157989113Y-124302652D01*
X158071792Y-124357896D01*
X158142104Y-124428208D01*
X158197348Y-124510887D01*
X158235401Y-124602755D01*
X158248334Y-124667772D01*
X158254800Y-124700280D01*
X158254800Y-124799720D01*
X158251455Y-124816534D01*
X158235401Y-124897245D01*
X158197348Y-124989113D01*
X158142104Y-125071792D01*
X158071792Y-125142104D01*
X157989113Y-125197348D01*
X157897245Y-125235401D01*
X157832228Y-125248334D01*
X157799720Y-125254800D01*
X157700280Y-125254800D01*
X157667772Y-125248334D01*
X157602755Y-125235401D01*
X157510887Y-125197348D01*
X157428208Y-125142104D01*
X157357896Y-125071792D01*
X157302652Y-124989113D01*
X157264599Y-124897245D01*
X157248545Y-124816534D01*
X157245200Y-124799720D01*
X157245200Y-124700280D01*
X157251666Y-124667772D01*
X157264599Y-124602755D01*
X157302652Y-124510887D01*
X157357896Y-124428208D01*
X157428208Y-124357896D01*
X157510887Y-124302652D01*
X157602755Y-124264599D01*
X157667772Y-124251666D01*
X157700280Y-124245200D01*
X157799720Y-124245200D01*
X157832228Y-124251666D01*
G37*
G36*
X253588674Y-123928465D02*
G01*
X253626367Y-123939899D01*
X253661103Y-123958466D01*
X253691548Y-123983452D01*
X253716534Y-124013897D01*
X253735101Y-124048633D01*
X253746535Y-124086326D01*
X253751000Y-124131661D01*
X253751000Y-124968339D01*
X253746535Y-125013674D01*
X253735101Y-125051367D01*
X253716534Y-125086103D01*
X253691548Y-125116548D01*
X253661103Y-125141534D01*
X253626367Y-125160101D01*
X253588674Y-125171535D01*
X253543339Y-125176000D01*
X252456661Y-125176000D01*
X252411326Y-125171535D01*
X252373633Y-125160101D01*
X252338897Y-125141534D01*
X252308452Y-125116548D01*
X252283466Y-125086103D01*
X252264899Y-125051367D01*
X252253465Y-125013674D01*
X252249000Y-124968339D01*
X252249000Y-124131661D01*
X252253465Y-124086326D01*
X252264899Y-124048633D01*
X252283466Y-124013897D01*
X252308452Y-123983452D01*
X252338897Y-123958466D01*
X252373633Y-123939899D01*
X252411326Y-123928465D01*
X252456661Y-123924000D01*
X253543339Y-123924000D01*
X253588674Y-123928465D01*
G37*
G36*
X247012425Y-124941199D02*
G01*
X245230525Y-124941199D01*
X245230525Y-124231599D01*
X247012425Y-124231599D01*
X247012425Y-124941199D01*
G37*
G36*
X241369725Y-124941199D02*
G01*
X239587825Y-124941199D01*
X239587825Y-124231599D01*
X241369725Y-124231599D01*
X241369725Y-124941199D01*
G37*
G36*
X163838674Y-123603465D02*
G01*
X163876367Y-123614899D01*
X163911103Y-123633466D01*
X163941548Y-123658452D01*
X163966534Y-123688897D01*
X163985101Y-123723633D01*
X163996535Y-123761326D01*
X164001000Y-123806661D01*
X164001000Y-124643339D01*
X163996535Y-124688674D01*
X163985101Y-124726367D01*
X163966534Y-124761103D01*
X163941548Y-124791548D01*
X163911103Y-124816534D01*
X163876367Y-124835101D01*
X163838674Y-124846535D01*
X163793339Y-124851000D01*
X162706661Y-124851000D01*
X162661326Y-124846535D01*
X162623633Y-124835101D01*
X162588897Y-124816534D01*
X162558452Y-124791548D01*
X162533466Y-124761103D01*
X162514899Y-124726367D01*
X162503465Y-124688674D01*
X162499000Y-124643339D01*
X162499000Y-123806661D01*
X162503465Y-123761326D01*
X162514899Y-123723633D01*
X162533466Y-123688897D01*
X162558452Y-123658452D01*
X162588897Y-123633466D01*
X162623633Y-123614899D01*
X162661326Y-123603465D01*
X162706661Y-123599000D01*
X163793339Y-123599000D01*
X163838674Y-123603465D01*
G37*
G36*
X156932228Y-123351666D02*
G01*
X156997245Y-123364599D01*
X157089113Y-123402652D01*
X157171792Y-123457896D01*
X157242104Y-123528208D01*
X157297348Y-123610887D01*
X157335401Y-123702755D01*
X157339554Y-123723633D01*
X157354800Y-123800280D01*
X157354800Y-123899720D01*
X157349970Y-123924000D01*
X157335401Y-123997245D01*
X157297348Y-124089113D01*
X157242104Y-124171792D01*
X157171792Y-124242104D01*
X157089113Y-124297348D01*
X156997245Y-124335401D01*
X156932228Y-124348334D01*
X156899720Y-124354800D01*
X156800280Y-124354800D01*
X156767772Y-124348334D01*
X156702755Y-124335401D01*
X156610887Y-124297348D01*
X156528208Y-124242104D01*
X156457896Y-124171792D01*
X156402652Y-124089113D01*
X156364599Y-123997245D01*
X156350030Y-123924000D01*
X156345200Y-123899720D01*
X156345200Y-123800280D01*
X156360446Y-123723633D01*
X156364599Y-123702755D01*
X156402652Y-123610887D01*
X156457896Y-123528208D01*
X156528208Y-123457896D01*
X156610887Y-123402652D01*
X156702755Y-123364599D01*
X156767772Y-123351666D01*
X156800280Y-123345200D01*
X156899720Y-123345200D01*
X156932228Y-123351666D01*
G37*
G36*
X158732228Y-123351666D02*
G01*
X158797245Y-123364599D01*
X158889113Y-123402652D01*
X158971792Y-123457896D01*
X159042104Y-123528208D01*
X159097348Y-123610887D01*
X159135401Y-123702755D01*
X159139554Y-123723633D01*
X159154800Y-123800280D01*
X159154800Y-123899720D01*
X159149970Y-123924000D01*
X159135401Y-123997245D01*
X159097348Y-124089113D01*
X159042104Y-124171792D01*
X158971792Y-124242104D01*
X158889113Y-124297348D01*
X158797245Y-124335401D01*
X158732228Y-124348334D01*
X158699720Y-124354800D01*
X158600280Y-124354800D01*
X158567772Y-124348334D01*
X158502755Y-124335401D01*
X158410887Y-124297348D01*
X158328208Y-124242104D01*
X158257896Y-124171792D01*
X158202652Y-124089113D01*
X158164599Y-123997245D01*
X158150030Y-123924000D01*
X158145200Y-123899720D01*
X158145200Y-123800280D01*
X158160446Y-123723633D01*
X158164599Y-123702755D01*
X158202652Y-123610887D01*
X158257896Y-123528208D01*
X158328208Y-123457896D01*
X158410887Y-123402652D01*
X158502755Y-123364599D01*
X158567772Y-123351666D01*
X158600280Y-123345200D01*
X158699720Y-123345200D01*
X158732228Y-123351666D01*
G37*
G36*
X247012425Y-123671199D02*
G01*
X245230525Y-123671199D01*
X245230525Y-122961599D01*
X247012425Y-122961599D01*
X247012425Y-123671199D01*
G37*
G36*
X241369725Y-123671199D02*
G01*
X239587825Y-123671199D01*
X239587825Y-122961599D01*
X241369725Y-122961599D01*
X241369725Y-123671199D01*
G37*
G36*
X238765125Y-123392899D02*
G01*
X236835125Y-123392899D01*
X236835125Y-121665899D01*
X238765125Y-121665899D01*
X238765125Y-123392899D01*
G37*
G36*
X253588674Y-121878465D02*
G01*
X253626367Y-121889899D01*
X253661103Y-121908466D01*
X253691548Y-121933452D01*
X253716534Y-121963897D01*
X253735101Y-121998633D01*
X253746535Y-122036326D01*
X253751000Y-122081661D01*
X253751000Y-122918339D01*
X253746535Y-122963674D01*
X253735101Y-123001367D01*
X253716534Y-123036103D01*
X253691548Y-123066548D01*
X253661103Y-123091534D01*
X253626367Y-123110101D01*
X253588674Y-123121535D01*
X253543339Y-123126000D01*
X252456661Y-123126000D01*
X252411326Y-123121535D01*
X252373633Y-123110101D01*
X252338897Y-123091534D01*
X252308452Y-123066548D01*
X252283466Y-123036103D01*
X252264899Y-123001367D01*
X252253465Y-122963674D01*
X252249000Y-122918339D01*
X252249000Y-122081661D01*
X252253465Y-122036326D01*
X252264899Y-121998633D01*
X252283466Y-121963897D01*
X252308452Y-121933452D01*
X252338897Y-121908466D01*
X252373633Y-121889899D01*
X252411326Y-121878465D01*
X252456661Y-121874000D01*
X253543339Y-121874000D01*
X253588674Y-121878465D01*
G37*
G36*
X250465000Y-122792899D02*
G01*
X248535000Y-122792899D01*
X248535000Y-121065899D01*
X250465000Y-121065899D01*
X250465000Y-122792899D01*
G37*
G36*
X247012425Y-122401199D02*
G01*
X245230525Y-122401199D01*
X245230525Y-121691599D01*
X247012425Y-121691599D01*
X247012425Y-122401199D01*
G37*
G36*
X241369725Y-122401199D02*
G01*
X239587825Y-122401199D01*
X239587825Y-121691599D01*
X241369725Y-121691599D01*
X241369725Y-122401199D01*
G37*
M02*
