M48
; DRILL file {KiCad (5.1.5)-3} date 6/29/2020 2:20:20 AM
; FORMAT={-:-/ absolute / metric / decimal}
; #@! TF.CreationDate,2020-06-29T02:20:20-04:00
; #@! TF.GenerationSoftware,Kicad,Pcbnew,(5.1.5)-3
FMAT,2
METRIC
T1C0.400
T2C0.600
T3C0.800
T4C1.000
T5C1.200
T6C1.500
T7C1.600
T8C2.300
T9C2.500
T10C5.700
%
G90
G05
T1
X157.5Y-121.755
X160.75Y-123.75
X162.0Y-123.777
X162.25Y-140.0
X162.5Y-129.5
X162.5Y-130.25
X163.5Y-129.5
X163.5Y-130.25
X164.0Y-140.0
X164.75Y-136.25
X166.098Y-136.034
X167.5Y-125.25
X169.5Y-142.75
X170.75Y-124.552
X183.25Y-129.0
X231.5Y-126.652
X156.85Y-123.85
X156.85Y-125.65
X157.75Y-124.75
X158.65Y-123.85
X158.65Y-125.65
T2
X135.6Y-128.088
X139.1Y-131.088
X139.1Y-134.588
X139.6Y-128.088
X142.1Y-131.088
X142.1Y-134.588
X143.1Y-128.088
X145.1Y-134.588
X147.499Y-135.487
X148.6Y-144.588
X150.5Y-140.588
X151.65Y-140.588
X152.65Y-140.588
X153.65Y-140.588
X154.65Y-140.588
X155.1Y-144.588
X155.25Y-122.25
X155.65Y-140.588
X156.65Y-140.588
X157.65Y-140.588
X157.75Y-130.5
X157.75Y-132.0
X157.75Y-133.25
X157.75Y-134.5
X157.75Y-135.75
X158.65Y-140.588
X159.65Y-140.588
X161.0Y-131.5
X161.0Y-132.75
X161.0Y-134.0
X161.0Y-135.25
X162.6Y-144.588
X166.5Y-122.5
X171.75Y-141.0
X172.75Y-141.0
X173.75Y-138.75
X173.75Y-139.75
X173.75Y-140.75
X174.75Y-138.75
X174.75Y-139.75
X174.75Y-140.75
X188.25Y-125.25
X190.35Y-125.25
X192.75Y-125.25
X194.25Y-125.5
X194.75Y-128.5
X194.75Y-129.75
X195.75Y-125.5
X195.75Y-127.0
X196.25Y-128.5
X196.25Y-129.75
X197.85Y-125.5
X197.85Y-127.0
X198.35Y-128.5
X198.35Y-129.75
X200.25Y-125.5
X200.25Y-127.0
X200.75Y-128.5
X200.75Y-129.75
X201.75Y-125.5
X201.75Y-127.0
X202.25Y-128.5
X202.25Y-129.75
X203.5Y-127.0
X203.75Y-125.5
X205.6Y-127.0
X205.85Y-125.5
X208.0Y-127.0
X208.25Y-125.5
X208.5Y-131.0
X209.5Y-127.0
X209.75Y-125.5
X210.6Y-131.0
X211.0Y-129.75
X212.5Y-128.25
X213.0Y-131.0
X213.1Y-129.75
X214.25Y-126.75
X214.35Y-128.0
X214.5Y-131.0
X221.0Y-131.0
X221.25Y-128.0
X221.25Y-129.75
X222.5Y-128.0
X222.5Y-131.0
X224.25Y-128.0
X228.1Y-125.0
X231.5Y-122.001
X231.5Y-123.051
X232.55Y-122.001
X232.55Y-123.051
X233.3Y-127.1
X233.6Y-122.001
X233.6Y-123.051
X235.75Y-122.25
X236.5Y-128.0
X238.2Y-131.25
X239.1Y-129.35
X242.4Y-131.25
X242.8Y-127.451
X242.8Y-128.451
X242.8Y-129.451
X242.8Y-130.451
X243.1Y-124.1
X247.7Y-122.2
X250.25Y-131.0
X259.3Y-121.551
X259.3Y-122.551
X260.3Y-121.551
X260.3Y-122.551
X261.3Y-121.551
X261.3Y-122.551
X262.3Y-121.551
X262.3Y-122.551
X263.3Y-121.551
X263.3Y-122.551
X264.3Y-121.551
X264.3Y-122.551
X265.3Y-121.551
X265.3Y-122.551
X266.3Y-121.551
X266.3Y-122.551
T3
X189.0Y-132.25
X231.5Y-124.998
X267.836Y-132.719
X267.836Y-134.719
X267.836Y-136.719
X267.836Y-138.719
X267.836Y-140.719
T4
X243.0Y-122.497
T5
X149.3Y-140.02
X165.3Y-140.02
T7
X136.5Y-134.802
T8
X265.5Y-144.181
X136.5Y-132.232
T9
X257.4Y-141.751
T10
X265.05Y-126.817
T3
G00X253.7Y-143.251
M15
G01X253.7Y-142.251
M16
G05
G00X254.1Y-135.801
M15
G01X254.1Y-135.101
M16
G05
G00X257.5Y-135.801
M15
G01X257.5Y-135.101
M16
G05
G00X262.7Y-135.801
M15
G01X262.7Y-135.101
M16
G05
G00X263.6Y-143.251
M15
G01X263.6Y-142.251
M16
G05
T6
G00X265.35Y-141.331
M15
G01X265.874Y-141.331
M16
G05
T0
M30
