G04 #@! TF.GenerationSoftware,KiCad,Pcbnew,(5.1.5)-3*
G04 #@! TF.CreationDate,2020-04-11T14:24:40-04:00*
G04 #@! TF.ProjectId,PowerBoth,506f7765-7242-46f7-9468-2e6b69636164,rev?*
G04 #@! TF.SameCoordinates,Original*
G04 #@! TF.FileFunction,Legend,Bot*
G04 #@! TF.FilePolarity,Positive*
%FSLAX46Y46*%
G04 Gerber Fmt 4.6, Leading zero omitted, Abs format (unit mm)*
G04 Created by KiCad (PCBNEW (5.1.5)-3) date 2020-04-11 14:24:40*
%MOMM*%
%LPD*%
G04 APERTURE LIST*
%ADD10C,0.001000*%
%ADD11C,0.152400*%
%ADD12C,0.127000*%
%ADD13C,0.203200*%
%ADD14C,0.150000*%
%ADD15C,0.130000*%
G04 APERTURE END LIST*
D10*
X263445206Y-145851209D02*
X263445206Y-134351209D01*
X263445206Y-134351209D02*
X253945206Y-134351209D01*
X253945206Y-134351209D02*
X253945206Y-145851209D01*
X256195206Y-137851209D02*
X258695206Y-137851209D01*
D11*
X223166525Y-131785399D02*
X219966125Y-131785399D01*
X227433725Y-121117399D02*
X230634125Y-121117399D01*
X219966125Y-121117399D02*
X223166525Y-121117399D01*
X219966125Y-131785399D02*
X219966125Y-121117399D01*
X230634125Y-131785399D02*
X227433725Y-131785399D01*
X230634125Y-121117399D02*
X230634125Y-131785399D01*
D12*
X254650125Y-138251399D02*
X254650125Y-145751399D01*
X260150125Y-138251399D02*
X254700125Y-138251399D01*
X260150125Y-145751399D02*
X260150125Y-138251399D01*
X255900125Y-138251399D02*
X256400125Y-138251399D01*
X255900125Y-138751399D02*
X255900125Y-138251399D01*
X258900125Y-138751399D02*
X255900125Y-138751399D01*
X258900125Y-138251399D02*
X258900125Y-138751399D01*
X258400125Y-138251399D02*
X258900125Y-138251399D01*
X256400125Y-138251399D02*
X256400125Y-144751399D01*
X258400125Y-138251399D02*
X256400125Y-138251399D01*
X258400125Y-144751399D02*
X258400125Y-138251399D01*
X258400125Y-144751399D02*
G75*
G02X256400125Y-144751399I-1000000J0D01*
G01*
X253700125Y-134251399D02*
X253700125Y-145751399D01*
X263600125Y-134251399D02*
X253700125Y-134251399D01*
X263600125Y-145751399D02*
X263600125Y-134251399D01*
X260150125Y-145751399D02*
X263600125Y-145751399D01*
X254650125Y-145751399D02*
X260150125Y-145751399D01*
X253700125Y-145751399D02*
X254650125Y-145751399D01*
X266536415Y-144368709D02*
X266536415Y-129068709D01*
X274486415Y-129068709D02*
X266536415Y-129068709D01*
X274486415Y-144368709D02*
X274486415Y-129068709D01*
X266536415Y-144368709D02*
X274486415Y-144368709D01*
X215725512Y-126651399D02*
G75*
G03X215725512Y-126651399I-424262J0D01*
G01*
D11*
X207731600Y-131471000D02*
X207325200Y-131471000D01*
X210068400Y-125629000D02*
X210474800Y-125629000D01*
X207325200Y-125629000D02*
X207731600Y-125629000D01*
X207325200Y-131471000D02*
X207325200Y-125629000D01*
X210474800Y-131471000D02*
X210068400Y-131471000D01*
X210474800Y-125629000D02*
X210474800Y-131471000D01*
X208265000Y-124994000D02*
X209535000Y-124994000D01*
X208900000Y-124232000D02*
X209027000Y-124994000D01*
X208900000Y-124232000D02*
X209154000Y-124994000D01*
X208900000Y-124232000D02*
X209281000Y-124994000D01*
X208900000Y-124232000D02*
X209408000Y-124994000D01*
X208900000Y-124232000D02*
X209535000Y-124994000D01*
X208900000Y-124232000D02*
X208773000Y-124994000D01*
X208900000Y-124232000D02*
X208646000Y-124994000D01*
X208900000Y-124232000D02*
X208519000Y-124994000D01*
X208900000Y-124232000D02*
X208392000Y-124994000D01*
X208900000Y-124232000D02*
X208265000Y-124994000D01*
X208900000Y-124232000D02*
X209535000Y-124232000D01*
X208265000Y-124232000D02*
X208900000Y-124232000D01*
X208900000Y-124232000D02*
X208900000Y-123978000D01*
X208900000Y-125171800D02*
X208900000Y-124232000D01*
X163775960Y-126911531D02*
X163775960Y-130264331D01*
X160423160Y-130264331D02*
X160423160Y-126911531D01*
D12*
X191849560Y-128837931D02*
X188774560Y-128837931D01*
X179349560Y-128837931D02*
X182424560Y-128837931D01*
X179349560Y-141337931D02*
X182424560Y-141337931D01*
X191849560Y-141337931D02*
X188774560Y-141337931D01*
X191577585Y-140167931D02*
G75*
G03X191577585Y-140167931I-898025J0D01*
G01*
X179349560Y-128837931D02*
X179349560Y-141337931D01*
X191849560Y-141337931D02*
X191849560Y-128837931D01*
D13*
X198298680Y-130136532D02*
G75*
G02X193898680Y-130136532I-2200000J950000D01*
G01*
X198298680Y-128236532D02*
G75*
G03X193898680Y-128236532I-2200000J-950000D01*
G01*
X197848680Y-131836532D02*
X198748680Y-130936532D01*
X198748680Y-127436532D02*
X197848680Y-126536532D01*
X198748680Y-128086532D02*
X198748680Y-127436532D01*
X198748680Y-130936532D02*
X198748680Y-130286532D01*
X193448680Y-131836532D02*
X197848680Y-131836532D01*
X193448680Y-130286532D02*
X193448680Y-131836532D01*
X193448680Y-126536532D02*
X193448680Y-128086532D01*
X197848680Y-126536532D02*
X193448680Y-126536532D01*
X198298680Y-124636532D02*
G75*
G02X193898680Y-124636532I-2200000J950000D01*
G01*
X198298680Y-122736532D02*
G75*
G03X193898680Y-122736532I-2200000J-950000D01*
G01*
X197848680Y-126336532D02*
X198748680Y-125436532D01*
X198748680Y-121936532D02*
X197848680Y-121036532D01*
X198748680Y-122586532D02*
X198748680Y-121936532D01*
X198748680Y-125436532D02*
X198748680Y-124786532D01*
X193448680Y-126336532D02*
X197848680Y-126336532D01*
X193448680Y-124786532D02*
X193448680Y-126336532D01*
X193448680Y-121036532D02*
X193448680Y-122586532D01*
X197848680Y-121036532D02*
X193448680Y-121036532D01*
D12*
X147204560Y-142115001D02*
X147204560Y-137925001D01*
X167394560Y-142115001D02*
X167394560Y-137925001D01*
X147204560Y-142115001D02*
X167394560Y-142115001D01*
X147204560Y-137925001D02*
X167394560Y-137925001D01*
D14*
X231047619Y-131019047D02*
X231047619Y-131495238D01*
X232047619Y-131495238D01*
X231952380Y-130733333D02*
X232000000Y-130685714D01*
X232047619Y-130590476D01*
X232047619Y-130352380D01*
X232000000Y-130257142D01*
X231952380Y-130209523D01*
X231857142Y-130161904D01*
X231761904Y-130161904D01*
X231619047Y-130209523D01*
X231047619Y-130780952D01*
X231047619Y-130161904D01*
X232047619Y-129542857D02*
X232047619Y-129447619D01*
X232000000Y-129352380D01*
X231952380Y-129304761D01*
X231857142Y-129257142D01*
X231666666Y-129209523D01*
X231428571Y-129209523D01*
X231238095Y-129257142D01*
X231142857Y-129304761D01*
X231095238Y-129352380D01*
X231047619Y-129447619D01*
X231047619Y-129542857D01*
X231095238Y-129638095D01*
X231142857Y-129685714D01*
X231238095Y-129733333D01*
X231428571Y-129780952D01*
X231666666Y-129780952D01*
X231857142Y-129733333D01*
X231952380Y-129685714D01*
X232000000Y-129638095D01*
X232047619Y-129542857D01*
X231047619Y-128257142D02*
X231047619Y-128828571D01*
X231047619Y-128542857D02*
X232047619Y-128542857D01*
X231904761Y-128638095D01*
X231809523Y-128733333D01*
X231761904Y-128828571D01*
X261285714Y-132802380D02*
X261285714Y-133516666D01*
X261333333Y-133659523D01*
X261428571Y-133754761D01*
X261571428Y-133802380D01*
X261666666Y-133802380D01*
X260857142Y-132897619D02*
X260809523Y-132850000D01*
X260714285Y-132802380D01*
X260476190Y-132802380D01*
X260380952Y-132850000D01*
X260333333Y-132897619D01*
X260285714Y-132992857D01*
X260285714Y-133088095D01*
X260333333Y-133230952D01*
X260904761Y-133802380D01*
X260285714Y-133802380D01*
X259666666Y-132802380D02*
X259571428Y-132802380D01*
X259476190Y-132850000D01*
X259428571Y-132897619D01*
X259380952Y-132992857D01*
X259333333Y-133183333D01*
X259333333Y-133421428D01*
X259380952Y-133611904D01*
X259428571Y-133707142D01*
X259476190Y-133754761D01*
X259571428Y-133802380D01*
X259666666Y-133802380D01*
X259761904Y-133754761D01*
X259809523Y-133707142D01*
X259857142Y-133611904D01*
X259904761Y-133421428D01*
X259904761Y-133183333D01*
X259857142Y-132992857D01*
X259809523Y-132897619D01*
X259761904Y-132850000D01*
X259666666Y-132802380D01*
X258380952Y-133802380D02*
X258952380Y-133802380D01*
X258666666Y-133802380D02*
X258666666Y-132802380D01*
X258761904Y-132945238D01*
X258857142Y-133040476D01*
X258952380Y-133088095D01*
X274985714Y-127802380D02*
X274985714Y-128516666D01*
X275033333Y-128659523D01*
X275128571Y-128754761D01*
X275271428Y-128802380D01*
X275366666Y-128802380D01*
X274557142Y-127897619D02*
X274509523Y-127850000D01*
X274414285Y-127802380D01*
X274176190Y-127802380D01*
X274080952Y-127850000D01*
X274033333Y-127897619D01*
X273985714Y-127992857D01*
X273985714Y-128088095D01*
X274033333Y-128230952D01*
X274604761Y-128802380D01*
X273985714Y-128802380D01*
X273366666Y-127802380D02*
X273271428Y-127802380D01*
X273176190Y-127850000D01*
X273128571Y-127897619D01*
X273080952Y-127992857D01*
X273033333Y-128183333D01*
X273033333Y-128421428D01*
X273080952Y-128611904D01*
X273128571Y-128707142D01*
X273176190Y-128754761D01*
X273271428Y-128802380D01*
X273366666Y-128802380D01*
X273461904Y-128754761D01*
X273509523Y-128707142D01*
X273557142Y-128611904D01*
X273604761Y-128421428D01*
X273604761Y-128183333D01*
X273557142Y-127992857D01*
X273509523Y-127897619D01*
X273461904Y-127850000D01*
X273366666Y-127802380D01*
X272652380Y-127897619D02*
X272604761Y-127850000D01*
X272509523Y-127802380D01*
X272271428Y-127802380D01*
X272176190Y-127850000D01*
X272128571Y-127897619D01*
X272080952Y-127992857D01*
X272080952Y-128088095D01*
X272128571Y-128230952D01*
X272700000Y-128802380D01*
X272080952Y-128802380D01*
X252792857Y-125195119D02*
X252745238Y-125242738D01*
X252697619Y-125385595D01*
X252697619Y-125480833D01*
X252745238Y-125623690D01*
X252840476Y-125718928D01*
X252935714Y-125766547D01*
X253126190Y-125814166D01*
X253269047Y-125814166D01*
X253459523Y-125766547D01*
X253554761Y-125718928D01*
X253650000Y-125623690D01*
X253697619Y-125480833D01*
X253697619Y-125385595D01*
X253650000Y-125242738D01*
X253602380Y-125195119D01*
X253602380Y-124814166D02*
X253650000Y-124766547D01*
X253697619Y-124671309D01*
X253697619Y-124433214D01*
X253650000Y-124337976D01*
X253602380Y-124290357D01*
X253507142Y-124242738D01*
X253411904Y-124242738D01*
X253269047Y-124290357D01*
X252697619Y-124861785D01*
X252697619Y-124242738D01*
X253697619Y-123623690D02*
X253697619Y-123528452D01*
X253650000Y-123433214D01*
X253602380Y-123385595D01*
X253507142Y-123337976D01*
X253316666Y-123290357D01*
X253078571Y-123290357D01*
X252888095Y-123337976D01*
X252792857Y-123385595D01*
X252745238Y-123433214D01*
X252697619Y-123528452D01*
X252697619Y-123623690D01*
X252745238Y-123718928D01*
X252792857Y-123766547D01*
X252888095Y-123814166D01*
X253078571Y-123861785D01*
X253316666Y-123861785D01*
X253507142Y-123814166D01*
X253602380Y-123766547D01*
X253650000Y-123718928D01*
X253697619Y-123623690D01*
X253697619Y-122957023D02*
X253697619Y-122337976D01*
X253316666Y-122671309D01*
X253316666Y-122528452D01*
X253269047Y-122433214D01*
X253221428Y-122385595D01*
X253126190Y-122337976D01*
X252888095Y-122337976D01*
X252792857Y-122385595D01*
X252745238Y-122433214D01*
X252697619Y-122528452D01*
X252697619Y-122814166D01*
X252745238Y-122909404D01*
X252792857Y-122957023D01*
X215945119Y-131502380D02*
X216278452Y-131026190D01*
X216516547Y-131502380D02*
X216516547Y-130502380D01*
X216135595Y-130502380D01*
X216040357Y-130550000D01*
X215992738Y-130597619D01*
X215945119Y-130692857D01*
X215945119Y-130835714D01*
X215992738Y-130930952D01*
X216040357Y-130978571D01*
X216135595Y-131026190D01*
X216516547Y-131026190D01*
X215564166Y-130597619D02*
X215516547Y-130550000D01*
X215421309Y-130502380D01*
X215183214Y-130502380D01*
X215087976Y-130550000D01*
X215040357Y-130597619D01*
X214992738Y-130692857D01*
X214992738Y-130788095D01*
X215040357Y-130930952D01*
X215611785Y-131502380D01*
X214992738Y-131502380D01*
X214373690Y-130502380D02*
X214278452Y-130502380D01*
X214183214Y-130550000D01*
X214135595Y-130597619D01*
X214087976Y-130692857D01*
X214040357Y-130883333D01*
X214040357Y-131121428D01*
X214087976Y-131311904D01*
X214135595Y-131407142D01*
X214183214Y-131454761D01*
X214278452Y-131502380D01*
X214373690Y-131502380D01*
X214468928Y-131454761D01*
X214516547Y-131407142D01*
X214564166Y-131311904D01*
X214611785Y-131121428D01*
X214611785Y-130883333D01*
X214564166Y-130692857D01*
X214516547Y-130597619D01*
X214468928Y-130550000D01*
X214373690Y-130502380D01*
X213659404Y-130597619D02*
X213611785Y-130550000D01*
X213516547Y-130502380D01*
X213278452Y-130502380D01*
X213183214Y-130550000D01*
X213135595Y-130597619D01*
X213087976Y-130692857D01*
X213087976Y-130788095D01*
X213135595Y-130930952D01*
X213707023Y-131502380D01*
X213087976Y-131502380D01*
X216602380Y-124797500D02*
X216650000Y-124892738D01*
X216745238Y-124987976D01*
X216888095Y-125130833D01*
X216935714Y-125226071D01*
X216935714Y-125321309D01*
X216697619Y-125273690D02*
X216745238Y-125368928D01*
X216840476Y-125464166D01*
X217030952Y-125511785D01*
X217364285Y-125511785D01*
X217554761Y-125464166D01*
X217650000Y-125368928D01*
X217697619Y-125273690D01*
X217697619Y-125083214D01*
X217650000Y-124987976D01*
X217554761Y-124892738D01*
X217364285Y-124845119D01*
X217030952Y-124845119D01*
X216840476Y-124892738D01*
X216745238Y-124987976D01*
X216697619Y-125083214D01*
X216697619Y-125273690D01*
X217602380Y-124464166D02*
X217650000Y-124416547D01*
X217697619Y-124321309D01*
X217697619Y-124083214D01*
X217650000Y-123987976D01*
X217602380Y-123940357D01*
X217507142Y-123892738D01*
X217411904Y-123892738D01*
X217269047Y-123940357D01*
X216697619Y-124511785D01*
X216697619Y-123892738D01*
X217697619Y-123273690D02*
X217697619Y-123178452D01*
X217650000Y-123083214D01*
X217602380Y-123035595D01*
X217507142Y-122987976D01*
X217316666Y-122940357D01*
X217078571Y-122940357D01*
X216888095Y-122987976D01*
X216792857Y-123035595D01*
X216745238Y-123083214D01*
X216697619Y-123178452D01*
X216697619Y-123273690D01*
X216745238Y-123368928D01*
X216792857Y-123416547D01*
X216888095Y-123464166D01*
X217078571Y-123511785D01*
X217316666Y-123511785D01*
X217507142Y-123464166D01*
X217602380Y-123416547D01*
X217650000Y-123368928D01*
X217697619Y-123273690D01*
X216697619Y-121987976D02*
X216697619Y-122559404D01*
X216697619Y-122273690D02*
X217697619Y-122273690D01*
X217554761Y-122368928D01*
X217459523Y-122464166D01*
X217411904Y-122559404D01*
X206802380Y-127759523D02*
X205802380Y-127759523D01*
X205802380Y-127997619D01*
X205850000Y-128140476D01*
X205945238Y-128235714D01*
X206040476Y-128283333D01*
X206230952Y-128330952D01*
X206373809Y-128330952D01*
X206564285Y-128283333D01*
X206659523Y-128235714D01*
X206754761Y-128140476D01*
X206802380Y-127997619D01*
X206802380Y-127759523D01*
X205897619Y-128711904D02*
X205850000Y-128759523D01*
X205802380Y-128854761D01*
X205802380Y-129092857D01*
X205850000Y-129188095D01*
X205897619Y-129235714D01*
X205992857Y-129283333D01*
X206088095Y-129283333D01*
X206230952Y-129235714D01*
X206802380Y-128664285D01*
X206802380Y-129283333D01*
X205802380Y-129902380D02*
X205802380Y-129997619D01*
X205850000Y-130092857D01*
X205897619Y-130140476D01*
X205992857Y-130188095D01*
X206183333Y-130235714D01*
X206421428Y-130235714D01*
X206611904Y-130188095D01*
X206707142Y-130140476D01*
X206754761Y-130092857D01*
X206802380Y-129997619D01*
X206802380Y-129902380D01*
X206754761Y-129807142D01*
X206707142Y-129759523D01*
X206611904Y-129711904D01*
X206421428Y-129664285D01*
X206183333Y-129664285D01*
X205992857Y-129711904D01*
X205897619Y-129759523D01*
X205850000Y-129807142D01*
X205802380Y-129902380D01*
X205802380Y-130569047D02*
X205802380Y-131188095D01*
X206183333Y-130854761D01*
X206183333Y-130997619D01*
X206230952Y-131092857D01*
X206278571Y-131140476D01*
X206373809Y-131188095D01*
X206611904Y-131188095D01*
X206707142Y-131140476D01*
X206754761Y-131092857D01*
X206802380Y-130997619D01*
X206802380Y-130711904D01*
X206754761Y-130616666D01*
X206707142Y-130569047D01*
X159052380Y-128185714D02*
X159861904Y-128185714D01*
X159957142Y-128233333D01*
X160004761Y-128280952D01*
X160052380Y-128376190D01*
X160052380Y-128566666D01*
X160004761Y-128661904D01*
X159957142Y-128709523D01*
X159861904Y-128757142D01*
X159052380Y-128757142D01*
X159052380Y-129138095D02*
X159052380Y-129757142D01*
X159433333Y-129423809D01*
X159433333Y-129566666D01*
X159480952Y-129661904D01*
X159528571Y-129709523D01*
X159623809Y-129757142D01*
X159861904Y-129757142D01*
X159957142Y-129709523D01*
X160004761Y-129661904D01*
X160052380Y-129566666D01*
X160052380Y-129280952D01*
X160004761Y-129185714D01*
X159957142Y-129138095D01*
X159052380Y-130376190D02*
X159052380Y-130471428D01*
X159100000Y-130566666D01*
X159147619Y-130614285D01*
X159242857Y-130661904D01*
X159433333Y-130709523D01*
X159671428Y-130709523D01*
X159861904Y-130661904D01*
X159957142Y-130614285D01*
X160004761Y-130566666D01*
X160052380Y-130471428D01*
X160052380Y-130376190D01*
X160004761Y-130280952D01*
X159957142Y-130233333D01*
X159861904Y-130185714D01*
X159671428Y-130138095D01*
X159433333Y-130138095D01*
X159242857Y-130185714D01*
X159147619Y-130233333D01*
X159100000Y-130280952D01*
X159052380Y-130376190D01*
X160052380Y-131661904D02*
X160052380Y-131090476D01*
X160052380Y-131376190D02*
X159052380Y-131376190D01*
X159195238Y-131280952D01*
X159290476Y-131185714D01*
X159338095Y-131090476D01*
X190617727Y-142838912D02*
X191093918Y-142838912D01*
X191093918Y-141838912D01*
X190379632Y-141838912D02*
X189760584Y-141838912D01*
X190093918Y-142219865D01*
X189951060Y-142219865D01*
X189855822Y-142267484D01*
X189808203Y-142315103D01*
X189760584Y-142410341D01*
X189760584Y-142648436D01*
X189808203Y-142743674D01*
X189855822Y-142791293D01*
X189951060Y-142838912D01*
X190236775Y-142838912D01*
X190332013Y-142791293D01*
X190379632Y-142743674D01*
X189141537Y-141838912D02*
X189046299Y-141838912D01*
X188951060Y-141886532D01*
X188903441Y-141934151D01*
X188855822Y-142029389D01*
X188808203Y-142219865D01*
X188808203Y-142457960D01*
X188855822Y-142648436D01*
X188903441Y-142743674D01*
X188951060Y-142791293D01*
X189046299Y-142838912D01*
X189141537Y-142838912D01*
X189236775Y-142791293D01*
X189284394Y-142743674D01*
X189332013Y-142648436D01*
X189379632Y-142457960D01*
X189379632Y-142219865D01*
X189332013Y-142029389D01*
X189284394Y-141934151D01*
X189236775Y-141886532D01*
X189141537Y-141838912D01*
X187855822Y-142838912D02*
X188427251Y-142838912D01*
X188141537Y-142838912D02*
X188141537Y-141838912D01*
X188236775Y-141981770D01*
X188332013Y-142077008D01*
X188427251Y-142124627D01*
X158535595Y-127107142D02*
X158583214Y-127154761D01*
X158726071Y-127202380D01*
X158821309Y-127202380D01*
X158964166Y-127154761D01*
X159059404Y-127059523D01*
X159107023Y-126964285D01*
X159154642Y-126773809D01*
X159154642Y-126630952D01*
X159107023Y-126440476D01*
X159059404Y-126345238D01*
X158964166Y-126250000D01*
X158821309Y-126202380D01*
X158726071Y-126202380D01*
X158583214Y-126250000D01*
X158535595Y-126297619D01*
X157535595Y-127107142D02*
X157583214Y-127154761D01*
X157726071Y-127202380D01*
X157821309Y-127202380D01*
X157964166Y-127154761D01*
X158059404Y-127059523D01*
X158107023Y-126964285D01*
X158154642Y-126773809D01*
X158154642Y-126630952D01*
X158107023Y-126440476D01*
X158059404Y-126345238D01*
X157964166Y-126250000D01*
X157821309Y-126202380D01*
X157726071Y-126202380D01*
X157583214Y-126250000D01*
X157535595Y-126297619D01*
X156916547Y-126202380D02*
X156726071Y-126202380D01*
X156630833Y-126250000D01*
X156535595Y-126345238D01*
X156487976Y-126535714D01*
X156487976Y-126869047D01*
X156535595Y-127059523D01*
X156630833Y-127154761D01*
X156726071Y-127202380D01*
X156916547Y-127202380D01*
X157011785Y-127154761D01*
X157107023Y-127059523D01*
X157154642Y-126869047D01*
X157154642Y-126535714D01*
X157107023Y-126345238D01*
X157011785Y-126250000D01*
X156916547Y-126202380D01*
X156059404Y-127202380D02*
X156059404Y-126202380D01*
X155726071Y-126916666D01*
X155392738Y-126202380D01*
X155392738Y-127202380D01*
X154916547Y-127202380D02*
X154916547Y-126202380D01*
X154535595Y-126202380D01*
X154440357Y-126250000D01*
X154392738Y-126297619D01*
X154345119Y-126392857D01*
X154345119Y-126535714D01*
X154392738Y-126630952D01*
X154440357Y-126678571D01*
X154535595Y-126726190D01*
X154916547Y-126726190D01*
X154011785Y-126202380D02*
X153392738Y-126202380D01*
X153726071Y-126583333D01*
X153583214Y-126583333D01*
X153487976Y-126630952D01*
X153440357Y-126678571D01*
X153392738Y-126773809D01*
X153392738Y-127011904D01*
X153440357Y-127107142D01*
X153487976Y-127154761D01*
X153583214Y-127202380D01*
X153868928Y-127202380D01*
X153964166Y-127154761D01*
X154011785Y-127107142D01*
X152773690Y-126202380D02*
X152678452Y-126202380D01*
X152583214Y-126250000D01*
X152535595Y-126297619D01*
X152487976Y-126392857D01*
X152440357Y-126583333D01*
X152440357Y-126821428D01*
X152487976Y-127011904D01*
X152535595Y-127107142D01*
X152583214Y-127154761D01*
X152678452Y-127202380D01*
X152773690Y-127202380D01*
X152868928Y-127154761D01*
X152916547Y-127107142D01*
X152964166Y-127011904D01*
X153011785Y-126821428D01*
X153011785Y-126583333D01*
X152964166Y-126392857D01*
X152916547Y-126297619D01*
X152868928Y-126250000D01*
X152773690Y-126202380D01*
X151487976Y-127202380D02*
X152059404Y-127202380D01*
X151773690Y-127202380D02*
X151773690Y-126202380D01*
X151868928Y-126345238D01*
X151964166Y-126440476D01*
X152059404Y-126488095D01*
X164955822Y-130336651D02*
X165003441Y-130289032D01*
X165051060Y-130146174D01*
X165051060Y-130050936D01*
X165003441Y-129908079D01*
X164908203Y-129812841D01*
X164812965Y-129765222D01*
X164622489Y-129717603D01*
X164479632Y-129717603D01*
X164289156Y-129765222D01*
X164193918Y-129812841D01*
X164098680Y-129908079D01*
X164051060Y-130050936D01*
X164051060Y-130146174D01*
X164098680Y-130289032D01*
X164146299Y-130336651D01*
X164527251Y-131098555D02*
X164527251Y-130765222D01*
X165051060Y-130765222D02*
X164051060Y-130765222D01*
X164051060Y-131241412D01*
X165051060Y-131622365D02*
X164051060Y-131622365D01*
X165051060Y-132574746D02*
X165051060Y-132098555D01*
X164051060Y-132098555D01*
X164051060Y-132765222D02*
X164051060Y-133336651D01*
X165051060Y-133050936D02*
X164051060Y-133050936D01*
X164051060Y-133574746D02*
X164051060Y-134193793D01*
X164432013Y-133860460D01*
X164432013Y-134003317D01*
X164479632Y-134098555D01*
X164527251Y-134146174D01*
X164622489Y-134193793D01*
X164860584Y-134193793D01*
X164955822Y-134146174D01*
X165003441Y-134098555D01*
X165051060Y-134003317D01*
X165051060Y-133717603D01*
X165003441Y-133622365D01*
X164955822Y-133574746D01*
X164051060Y-134812841D02*
X164051060Y-134908079D01*
X164098680Y-135003317D01*
X164146299Y-135050936D01*
X164241537Y-135098555D01*
X164432013Y-135146174D01*
X164670108Y-135146174D01*
X164860584Y-135098555D01*
X164955822Y-135050936D01*
X165003441Y-135003317D01*
X165051060Y-134908079D01*
X165051060Y-134812841D01*
X165003441Y-134717603D01*
X164955822Y-134669984D01*
X164860584Y-134622365D01*
X164670108Y-134574746D01*
X164432013Y-134574746D01*
X164241537Y-134622365D01*
X164146299Y-134669984D01*
X164098680Y-134717603D01*
X164051060Y-134812841D01*
X165051060Y-136098555D02*
X165051060Y-135527127D01*
X165051060Y-135812841D02*
X164051060Y-135812841D01*
X164193918Y-135717603D01*
X164289156Y-135622365D01*
X164336775Y-135527127D01*
D15*
X174233333Y-136151166D02*
X174566666Y-136384500D01*
X174233333Y-136551166D02*
X174933333Y-136551166D01*
X174933333Y-136284500D01*
X174900000Y-136217833D01*
X174866666Y-136184500D01*
X174800000Y-136151166D01*
X174700000Y-136151166D01*
X174633333Y-136184500D01*
X174600000Y-136217833D01*
X174566666Y-136284500D01*
X174566666Y-136551166D01*
X174266666Y-135884500D02*
X174233333Y-135784500D01*
X174233333Y-135617833D01*
X174266666Y-135551166D01*
X174300000Y-135517833D01*
X174366666Y-135484500D01*
X174433333Y-135484500D01*
X174500000Y-135517833D01*
X174533333Y-135551166D01*
X174566666Y-135617833D01*
X174600000Y-135751166D01*
X174633333Y-135817833D01*
X174666666Y-135851166D01*
X174733333Y-135884500D01*
X174800000Y-135884500D01*
X174866666Y-135851166D01*
X174900000Y-135817833D01*
X174933333Y-135751166D01*
X174933333Y-135584500D01*
X174900000Y-135484500D01*
X174600000Y-135184500D02*
X174600000Y-134951166D01*
X174233333Y-134851166D02*
X174233333Y-135184500D01*
X174933333Y-135184500D01*
X174933333Y-134851166D01*
X174233333Y-134551166D02*
X174933333Y-134551166D01*
X174233333Y-134151166D01*
X174933333Y-134151166D01*
X174266666Y-133851166D02*
X174233333Y-133751166D01*
X174233333Y-133584500D01*
X174266666Y-133517833D01*
X174300000Y-133484500D01*
X174366666Y-133451166D01*
X174433333Y-133451166D01*
X174500000Y-133484500D01*
X174533333Y-133517833D01*
X174566666Y-133584500D01*
X174600000Y-133717833D01*
X174633333Y-133784500D01*
X174666666Y-133817833D01*
X174733333Y-133851166D01*
X174800000Y-133851166D01*
X174866666Y-133817833D01*
X174900000Y-133784500D01*
X174933333Y-133717833D01*
X174933333Y-133551166D01*
X174900000Y-133451166D01*
X174600000Y-133151166D02*
X174600000Y-132917833D01*
X174233333Y-132817833D02*
X174233333Y-133151166D01*
X174933333Y-133151166D01*
X174933333Y-132817833D01*
X174933333Y-132584500D02*
X174933333Y-132151166D01*
X174666666Y-132384500D01*
X174666666Y-132284500D01*
X174633333Y-132217833D01*
X174600000Y-132184500D01*
X174533333Y-132151166D01*
X174366666Y-132151166D01*
X174300000Y-132184500D01*
X174266666Y-132217833D01*
X174233333Y-132284500D01*
X174233333Y-132484500D01*
X174266666Y-132551166D01*
X174300000Y-132584500D01*
X174933333Y-131717833D02*
X174933333Y-131651166D01*
X174900000Y-131584500D01*
X174866666Y-131551166D01*
X174800000Y-131517833D01*
X174666666Y-131484500D01*
X174500000Y-131484500D01*
X174366666Y-131517833D01*
X174300000Y-131551166D01*
X174266666Y-131584500D01*
X174233333Y-131651166D01*
X174233333Y-131717833D01*
X174266666Y-131784500D01*
X174300000Y-131817833D01*
X174366666Y-131851166D01*
X174500000Y-131884500D01*
X174666666Y-131884500D01*
X174800000Y-131851166D01*
X174866666Y-131817833D01*
X174900000Y-131784500D01*
X174933333Y-131717833D01*
X174233333Y-130817833D02*
X174233333Y-131217833D01*
X174233333Y-131017833D02*
X174933333Y-131017833D01*
X174833333Y-131084500D01*
X174766666Y-131151166D01*
X174733333Y-131217833D01*
D14*
X151242976Y-131907142D02*
X151290595Y-131954761D01*
X151433452Y-132002380D01*
X151528690Y-132002380D01*
X151671547Y-131954761D01*
X151766785Y-131859523D01*
X151814404Y-131764285D01*
X151862023Y-131573809D01*
X151862023Y-131430952D01*
X151814404Y-131240476D01*
X151766785Y-131145238D01*
X151671547Y-131050000D01*
X151528690Y-131002380D01*
X151433452Y-131002380D01*
X151290595Y-131050000D01*
X151242976Y-131097619D01*
X150242976Y-131907142D02*
X150290595Y-131954761D01*
X150433452Y-132002380D01*
X150528690Y-132002380D01*
X150671547Y-131954761D01*
X150766785Y-131859523D01*
X150814404Y-131764285D01*
X150862023Y-131573809D01*
X150862023Y-131430952D01*
X150814404Y-131240476D01*
X150766785Y-131145238D01*
X150671547Y-131050000D01*
X150528690Y-131002380D01*
X150433452Y-131002380D01*
X150290595Y-131050000D01*
X150242976Y-131097619D01*
X149623928Y-131002380D02*
X149433452Y-131002380D01*
X149338214Y-131050000D01*
X149242976Y-131145238D01*
X149195357Y-131335714D01*
X149195357Y-131669047D01*
X149242976Y-131859523D01*
X149338214Y-131954761D01*
X149433452Y-132002380D01*
X149623928Y-132002380D01*
X149719166Y-131954761D01*
X149814404Y-131859523D01*
X149862023Y-131669047D01*
X149862023Y-131335714D01*
X149814404Y-131145238D01*
X149719166Y-131050000D01*
X149623928Y-131002380D01*
X148766785Y-132002380D02*
X148766785Y-131002380D01*
X148433452Y-131716666D01*
X148100119Y-131002380D01*
X148100119Y-132002380D01*
X147623928Y-132002380D02*
X147623928Y-131002380D01*
X147242976Y-131002380D01*
X147147738Y-131050000D01*
X147100119Y-131097619D01*
X147052500Y-131192857D01*
X147052500Y-131335714D01*
X147100119Y-131430952D01*
X147147738Y-131478571D01*
X147242976Y-131526190D01*
X147623928Y-131526190D01*
X146719166Y-131002380D02*
X146100119Y-131002380D01*
X146433452Y-131383333D01*
X146290595Y-131383333D01*
X146195357Y-131430952D01*
X146147738Y-131478571D01*
X146100119Y-131573809D01*
X146100119Y-131811904D01*
X146147738Y-131907142D01*
X146195357Y-131954761D01*
X146290595Y-132002380D01*
X146576309Y-132002380D01*
X146671547Y-131954761D01*
X146719166Y-131907142D01*
X145481071Y-131002380D02*
X145385833Y-131002380D01*
X145290595Y-131050000D01*
X145242976Y-131097619D01*
X145195357Y-131192857D01*
X145147738Y-131383333D01*
X145147738Y-131621428D01*
X145195357Y-131811904D01*
X145242976Y-131907142D01*
X145290595Y-131954761D01*
X145385833Y-132002380D01*
X145481071Y-132002380D01*
X145576309Y-131954761D01*
X145623928Y-131907142D01*
X145671547Y-131811904D01*
X145719166Y-131621428D01*
X145719166Y-131383333D01*
X145671547Y-131192857D01*
X145623928Y-131097619D01*
X145576309Y-131050000D01*
X145481071Y-131002380D01*
X144766785Y-131097619D02*
X144719166Y-131050000D01*
X144623928Y-131002380D01*
X144385833Y-131002380D01*
X144290595Y-131050000D01*
X144242976Y-131097619D01*
X144195357Y-131192857D01*
X144195357Y-131288095D01*
X144242976Y-131430952D01*
X144814404Y-132002380D01*
X144195357Y-132002380D01*
X168092857Y-126595119D02*
X168045238Y-126642738D01*
X167997619Y-126785595D01*
X167997619Y-126880833D01*
X168045238Y-127023690D01*
X168140476Y-127118928D01*
X168235714Y-127166547D01*
X168426190Y-127214166D01*
X168569047Y-127214166D01*
X168759523Y-127166547D01*
X168854761Y-127118928D01*
X168950000Y-127023690D01*
X168997619Y-126880833D01*
X168997619Y-126785595D01*
X168950000Y-126642738D01*
X168902380Y-126595119D01*
X168521428Y-125833214D02*
X168473809Y-125690357D01*
X168426190Y-125642738D01*
X168330952Y-125595119D01*
X168188095Y-125595119D01*
X168092857Y-125642738D01*
X168045238Y-125690357D01*
X167997619Y-125785595D01*
X167997619Y-126166547D01*
X168997619Y-126166547D01*
X168997619Y-125833214D01*
X168950000Y-125737976D01*
X168902380Y-125690357D01*
X168807142Y-125642738D01*
X168711904Y-125642738D01*
X168616666Y-125690357D01*
X168569047Y-125737976D01*
X168521428Y-125833214D01*
X168521428Y-126166547D01*
X167997619Y-125166547D02*
X168997619Y-125166547D01*
X168997619Y-124785595D01*
X168950000Y-124690357D01*
X168902380Y-124642738D01*
X168807142Y-124595119D01*
X168664285Y-124595119D01*
X168569047Y-124642738D01*
X168521428Y-124690357D01*
X168473809Y-124785595D01*
X168473809Y-125166547D01*
X168997619Y-124261785D02*
X168997619Y-123642738D01*
X168616666Y-123976071D01*
X168616666Y-123833214D01*
X168569047Y-123737976D01*
X168521428Y-123690357D01*
X168426190Y-123642738D01*
X168188095Y-123642738D01*
X168092857Y-123690357D01*
X168045238Y-123737976D01*
X167997619Y-123833214D01*
X167997619Y-124118928D01*
X168045238Y-124214166D01*
X168092857Y-124261785D01*
X168997619Y-123023690D02*
X168997619Y-122928452D01*
X168950000Y-122833214D01*
X168902380Y-122785595D01*
X168807142Y-122737976D01*
X168616666Y-122690357D01*
X168378571Y-122690357D01*
X168188095Y-122737976D01*
X168092857Y-122785595D01*
X168045238Y-122833214D01*
X167997619Y-122928452D01*
X167997619Y-123023690D01*
X168045238Y-123118928D01*
X168092857Y-123166547D01*
X168188095Y-123214166D01*
X168378571Y-123261785D01*
X168616666Y-123261785D01*
X168807142Y-123214166D01*
X168902380Y-123166547D01*
X168950000Y-123118928D01*
X168997619Y-123023690D01*
X167997619Y-121737976D02*
X167997619Y-122309404D01*
X167997619Y-122023690D02*
X168997619Y-122023690D01*
X168854761Y-122118928D01*
X168759523Y-122214166D01*
X168711904Y-122309404D01*
X172349880Y-129702380D02*
X172683214Y-129226190D01*
X172921309Y-129702380D02*
X172921309Y-128702380D01*
X172540357Y-128702380D01*
X172445119Y-128750000D01*
X172397500Y-128797619D01*
X172349880Y-128892857D01*
X172349880Y-129035714D01*
X172397500Y-129130952D01*
X172445119Y-129178571D01*
X172540357Y-129226190D01*
X172921309Y-129226190D01*
X171587976Y-129178571D02*
X171921309Y-129178571D01*
X171921309Y-129702380D02*
X171921309Y-128702380D01*
X171445119Y-128702380D01*
X171064166Y-129702380D02*
X171064166Y-128702380D01*
X170111785Y-129702380D02*
X170587976Y-129702380D01*
X170587976Y-128702380D01*
X169921309Y-128702380D02*
X169349880Y-128702380D01*
X169635595Y-129702380D02*
X169635595Y-128702380D01*
X169111785Y-128702380D02*
X168492738Y-128702380D01*
X168826071Y-129083333D01*
X168683214Y-129083333D01*
X168587976Y-129130952D01*
X168540357Y-129178571D01*
X168492738Y-129273809D01*
X168492738Y-129511904D01*
X168540357Y-129607142D01*
X168587976Y-129654761D01*
X168683214Y-129702380D01*
X168968928Y-129702380D01*
X169064166Y-129654761D01*
X169111785Y-129607142D01*
X167873690Y-128702380D02*
X167778452Y-128702380D01*
X167683214Y-128750000D01*
X167635595Y-128797619D01*
X167587976Y-128892857D01*
X167540357Y-129083333D01*
X167540357Y-129321428D01*
X167587976Y-129511904D01*
X167635595Y-129607142D01*
X167683214Y-129654761D01*
X167778452Y-129702380D01*
X167873690Y-129702380D01*
X167968928Y-129654761D01*
X168016547Y-129607142D01*
X168064166Y-129511904D01*
X168111785Y-129321428D01*
X168111785Y-129083333D01*
X168064166Y-128892857D01*
X168016547Y-128797619D01*
X167968928Y-128750000D01*
X167873690Y-128702380D01*
X166587976Y-129702380D02*
X167159404Y-129702380D01*
X166873690Y-129702380D02*
X166873690Y-128702380D01*
X166968928Y-128845238D01*
X167064166Y-128940476D01*
X167159404Y-128988095D01*
X162221309Y-125052380D02*
X162554642Y-124576190D01*
X162792738Y-125052380D02*
X162792738Y-124052380D01*
X162411785Y-124052380D01*
X162316547Y-124100000D01*
X162268928Y-124147619D01*
X162221309Y-124242857D01*
X162221309Y-124385714D01*
X162268928Y-124480952D01*
X162316547Y-124528571D01*
X162411785Y-124576190D01*
X162792738Y-124576190D01*
X161459404Y-124528571D02*
X161792738Y-124528571D01*
X161792738Y-125052380D02*
X161792738Y-124052380D01*
X161316547Y-124052380D01*
X160983214Y-124766666D02*
X160507023Y-124766666D01*
X161078452Y-125052380D02*
X160745119Y-124052380D01*
X160411785Y-125052380D01*
X160078452Y-125052380D02*
X160078452Y-124052380D01*
X159840357Y-124052380D01*
X159697500Y-124100000D01*
X159602261Y-124195238D01*
X159554642Y-124290476D01*
X159507023Y-124480952D01*
X159507023Y-124623809D01*
X159554642Y-124814285D01*
X159602261Y-124909523D01*
X159697500Y-125004761D01*
X159840357Y-125052380D01*
X160078452Y-125052380D01*
X158792738Y-124052380D02*
X158792738Y-124766666D01*
X158840357Y-124909523D01*
X158935595Y-125004761D01*
X159078452Y-125052380D01*
X159173690Y-125052380D01*
X158411785Y-124052380D02*
X157792738Y-124052380D01*
X158126071Y-124433333D01*
X157983214Y-124433333D01*
X157887976Y-124480952D01*
X157840357Y-124528571D01*
X157792738Y-124623809D01*
X157792738Y-124861904D01*
X157840357Y-124957142D01*
X157887976Y-125004761D01*
X157983214Y-125052380D01*
X158268928Y-125052380D01*
X158364166Y-125004761D01*
X158411785Y-124957142D01*
X157173690Y-124052380D02*
X157078452Y-124052380D01*
X156983214Y-124100000D01*
X156935595Y-124147619D01*
X156887976Y-124242857D01*
X156840357Y-124433333D01*
X156840357Y-124671428D01*
X156887976Y-124861904D01*
X156935595Y-124957142D01*
X156983214Y-125004761D01*
X157078452Y-125052380D01*
X157173690Y-125052380D01*
X157268928Y-125004761D01*
X157316547Y-124957142D01*
X157364166Y-124861904D01*
X157411785Y-124671428D01*
X157411785Y-124433333D01*
X157364166Y-124242857D01*
X157316547Y-124147619D01*
X157268928Y-124100000D01*
X157173690Y-124052380D01*
X155887976Y-125052380D02*
X156459404Y-125052380D01*
X156173690Y-125052380D02*
X156173690Y-124052380D01*
X156268928Y-124195238D01*
X156364166Y-124290476D01*
X156459404Y-124338095D01*
X171297619Y-126545119D02*
X171773809Y-126878452D01*
X171297619Y-127116547D02*
X172297619Y-127116547D01*
X172297619Y-126735595D01*
X172250000Y-126640357D01*
X172202380Y-126592738D01*
X172107142Y-126545119D01*
X171964285Y-126545119D01*
X171869047Y-126592738D01*
X171821428Y-126640357D01*
X171773809Y-126735595D01*
X171773809Y-127116547D01*
X171821428Y-125783214D02*
X171773809Y-125640357D01*
X171726190Y-125592738D01*
X171630952Y-125545119D01*
X171488095Y-125545119D01*
X171392857Y-125592738D01*
X171345238Y-125640357D01*
X171297619Y-125735595D01*
X171297619Y-126116547D01*
X172297619Y-126116547D01*
X172297619Y-125783214D01*
X172250000Y-125687976D01*
X172202380Y-125640357D01*
X172107142Y-125592738D01*
X172011904Y-125592738D01*
X171916666Y-125640357D01*
X171869047Y-125687976D01*
X171821428Y-125783214D01*
X171821428Y-126116547D01*
X171297619Y-125116547D02*
X172297619Y-125116547D01*
X172297619Y-124735595D01*
X172250000Y-124640357D01*
X172202380Y-124592738D01*
X172107142Y-124545119D01*
X171964285Y-124545119D01*
X171869047Y-124592738D01*
X171821428Y-124640357D01*
X171773809Y-124735595D01*
X171773809Y-125116547D01*
X172297619Y-124211785D02*
X172297619Y-123592738D01*
X171916666Y-123926071D01*
X171916666Y-123783214D01*
X171869047Y-123687976D01*
X171821428Y-123640357D01*
X171726190Y-123592738D01*
X171488095Y-123592738D01*
X171392857Y-123640357D01*
X171345238Y-123687976D01*
X171297619Y-123783214D01*
X171297619Y-124068928D01*
X171345238Y-124164166D01*
X171392857Y-124211785D01*
X172297619Y-122973690D02*
X172297619Y-122878452D01*
X172250000Y-122783214D01*
X172202380Y-122735595D01*
X172107142Y-122687976D01*
X171916666Y-122640357D01*
X171678571Y-122640357D01*
X171488095Y-122687976D01*
X171392857Y-122735595D01*
X171345238Y-122783214D01*
X171297619Y-122878452D01*
X171297619Y-122973690D01*
X171345238Y-123068928D01*
X171392857Y-123116547D01*
X171488095Y-123164166D01*
X171678571Y-123211785D01*
X171916666Y-123211785D01*
X172107142Y-123164166D01*
X172202380Y-123116547D01*
X172250000Y-123068928D01*
X172297619Y-122973690D01*
X171297619Y-121687976D02*
X171297619Y-122259404D01*
X171297619Y-121973690D02*
X172297619Y-121973690D01*
X172154761Y-122068928D01*
X172059523Y-122164166D01*
X172011904Y-122259404D01*
X158985595Y-135302380D02*
X159318928Y-134826190D01*
X159557023Y-135302380D02*
X159557023Y-134302380D01*
X159176071Y-134302380D01*
X159080833Y-134350000D01*
X159033214Y-134397619D01*
X158985595Y-134492857D01*
X158985595Y-134635714D01*
X159033214Y-134730952D01*
X159080833Y-134778571D01*
X159176071Y-134826190D01*
X159557023Y-134826190D01*
X157985595Y-135207142D02*
X158033214Y-135254761D01*
X158176071Y-135302380D01*
X158271309Y-135302380D01*
X158414166Y-135254761D01*
X158509404Y-135159523D01*
X158557023Y-135064285D01*
X158604642Y-134873809D01*
X158604642Y-134730952D01*
X158557023Y-134540476D01*
X158509404Y-134445238D01*
X158414166Y-134350000D01*
X158271309Y-134302380D01*
X158176071Y-134302380D01*
X158033214Y-134350000D01*
X157985595Y-134397619D01*
X157366547Y-134302380D02*
X157176071Y-134302380D01*
X157080833Y-134350000D01*
X156985595Y-134445238D01*
X156937976Y-134635714D01*
X156937976Y-134969047D01*
X156985595Y-135159523D01*
X157080833Y-135254761D01*
X157176071Y-135302380D01*
X157366547Y-135302380D01*
X157461785Y-135254761D01*
X157557023Y-135159523D01*
X157604642Y-134969047D01*
X157604642Y-134635714D01*
X157557023Y-134445238D01*
X157461785Y-134350000D01*
X157366547Y-134302380D01*
X156509404Y-135302380D02*
X156509404Y-134302380D01*
X156176071Y-135016666D01*
X155842738Y-134302380D01*
X155842738Y-135302380D01*
X155366547Y-135302380D02*
X155366547Y-134302380D01*
X154985595Y-134302380D01*
X154890357Y-134350000D01*
X154842738Y-134397619D01*
X154795119Y-134492857D01*
X154795119Y-134635714D01*
X154842738Y-134730952D01*
X154890357Y-134778571D01*
X154985595Y-134826190D01*
X155366547Y-134826190D01*
X154461785Y-134302380D02*
X153842738Y-134302380D01*
X154176071Y-134683333D01*
X154033214Y-134683333D01*
X153937976Y-134730952D01*
X153890357Y-134778571D01*
X153842738Y-134873809D01*
X153842738Y-135111904D01*
X153890357Y-135207142D01*
X153937976Y-135254761D01*
X154033214Y-135302380D01*
X154318928Y-135302380D01*
X154414166Y-135254761D01*
X154461785Y-135207142D01*
X153223690Y-134302380D02*
X153128452Y-134302380D01*
X153033214Y-134350000D01*
X152985595Y-134397619D01*
X152937976Y-134492857D01*
X152890357Y-134683333D01*
X152890357Y-134921428D01*
X152937976Y-135111904D01*
X152985595Y-135207142D01*
X153033214Y-135254761D01*
X153128452Y-135302380D01*
X153223690Y-135302380D01*
X153318928Y-135254761D01*
X153366547Y-135207142D01*
X153414166Y-135111904D01*
X153461785Y-134921428D01*
X153461785Y-134683333D01*
X153414166Y-134492857D01*
X153366547Y-134397619D01*
X153318928Y-134350000D01*
X153223690Y-134302380D01*
X151937976Y-135302380D02*
X152509404Y-135302380D01*
X152223690Y-135302380D02*
X152223690Y-134302380D01*
X152318928Y-134445238D01*
X152414166Y-134540476D01*
X152509404Y-134588095D01*
X200542857Y-131118928D02*
X200495238Y-131166547D01*
X200447619Y-131309404D01*
X200447619Y-131404642D01*
X200495238Y-131547500D01*
X200590476Y-131642738D01*
X200685714Y-131690357D01*
X200876190Y-131737976D01*
X201019047Y-131737976D01*
X201209523Y-131690357D01*
X201304761Y-131642738D01*
X201400000Y-131547500D01*
X201447619Y-131404642D01*
X201447619Y-131309404D01*
X201400000Y-131166547D01*
X201352380Y-131118928D01*
X200447619Y-130690357D02*
X201447619Y-130690357D01*
X200447619Y-130214166D02*
X201447619Y-130214166D01*
X200447619Y-129642738D01*
X201447619Y-129642738D01*
X201447619Y-129261785D02*
X201447619Y-128642738D01*
X201066666Y-128976071D01*
X201066666Y-128833214D01*
X201019047Y-128737976D01*
X200971428Y-128690357D01*
X200876190Y-128642738D01*
X200638095Y-128642738D01*
X200542857Y-128690357D01*
X200495238Y-128737976D01*
X200447619Y-128833214D01*
X200447619Y-129118928D01*
X200495238Y-129214166D01*
X200542857Y-129261785D01*
X201447619Y-128023690D02*
X201447619Y-127928452D01*
X201400000Y-127833214D01*
X201352380Y-127785595D01*
X201257142Y-127737976D01*
X201066666Y-127690357D01*
X200828571Y-127690357D01*
X200638095Y-127737976D01*
X200542857Y-127785595D01*
X200495238Y-127833214D01*
X200447619Y-127928452D01*
X200447619Y-128023690D01*
X200495238Y-128118928D01*
X200542857Y-128166547D01*
X200638095Y-128214166D01*
X200828571Y-128261785D01*
X201066666Y-128261785D01*
X201257142Y-128214166D01*
X201352380Y-128166547D01*
X201400000Y-128118928D01*
X201447619Y-128023690D01*
X201352380Y-127309404D02*
X201400000Y-127261785D01*
X201447619Y-127166547D01*
X201447619Y-126928452D01*
X201400000Y-126833214D01*
X201352380Y-126785595D01*
X201257142Y-126737976D01*
X201161904Y-126737976D01*
X201019047Y-126785595D01*
X200447619Y-127357023D01*
X200447619Y-126737976D01*
X190741537Y-125855460D02*
X190693918Y-125903079D01*
X190646299Y-126045936D01*
X190646299Y-126141174D01*
X190693918Y-126284032D01*
X190789156Y-126379270D01*
X190884394Y-126426889D01*
X191074870Y-126474508D01*
X191217727Y-126474508D01*
X191408203Y-126426889D01*
X191503441Y-126379270D01*
X191598680Y-126284032D01*
X191646299Y-126141174D01*
X191646299Y-126045936D01*
X191598680Y-125903079D01*
X191551060Y-125855460D01*
X190646299Y-125426889D02*
X191646299Y-125426889D01*
X190646299Y-124950698D02*
X191646299Y-124950698D01*
X190646299Y-124379270D01*
X191646299Y-124379270D01*
X191646299Y-123998317D02*
X191646299Y-123379270D01*
X191265346Y-123712603D01*
X191265346Y-123569746D01*
X191217727Y-123474508D01*
X191170108Y-123426889D01*
X191074870Y-123379270D01*
X190836775Y-123379270D01*
X190741537Y-123426889D01*
X190693918Y-123474508D01*
X190646299Y-123569746D01*
X190646299Y-123855460D01*
X190693918Y-123950698D01*
X190741537Y-123998317D01*
X191646299Y-122760222D02*
X191646299Y-122664984D01*
X191598680Y-122569746D01*
X191551060Y-122522127D01*
X191455822Y-122474508D01*
X191265346Y-122426889D01*
X191027251Y-122426889D01*
X190836775Y-122474508D01*
X190741537Y-122522127D01*
X190693918Y-122569746D01*
X190646299Y-122664984D01*
X190646299Y-122760222D01*
X190693918Y-122855460D01*
X190741537Y-122903079D01*
X190836775Y-122950698D01*
X191027251Y-122998317D01*
X191265346Y-122998317D01*
X191455822Y-122950698D01*
X191551060Y-122903079D01*
X191598680Y-122855460D01*
X191646299Y-122760222D01*
X190646299Y-121474508D02*
X190646299Y-122045936D01*
X190646299Y-121760222D02*
X191646299Y-121760222D01*
X191503441Y-121855460D01*
X191408203Y-121950698D01*
X191360584Y-122045936D01*
X168847619Y-141435714D02*
X168133333Y-141435714D01*
X167990476Y-141483333D01*
X167895238Y-141578571D01*
X167847619Y-141721428D01*
X167847619Y-141816666D01*
X168847619Y-141054761D02*
X168847619Y-140435714D01*
X168466666Y-140769047D01*
X168466666Y-140626190D01*
X168419047Y-140530952D01*
X168371428Y-140483333D01*
X168276190Y-140435714D01*
X168038095Y-140435714D01*
X167942857Y-140483333D01*
X167895238Y-140530952D01*
X167847619Y-140626190D01*
X167847619Y-140911904D01*
X167895238Y-141007142D01*
X167942857Y-141054761D01*
X168847619Y-139816666D02*
X168847619Y-139721428D01*
X168800000Y-139626190D01*
X168752380Y-139578571D01*
X168657142Y-139530952D01*
X168466666Y-139483333D01*
X168228571Y-139483333D01*
X168038095Y-139530952D01*
X167942857Y-139578571D01*
X167895238Y-139626190D01*
X167847619Y-139721428D01*
X167847619Y-139816666D01*
X167895238Y-139911904D01*
X167942857Y-139959523D01*
X168038095Y-140007142D01*
X168228571Y-140054761D01*
X168466666Y-140054761D01*
X168657142Y-140007142D01*
X168752380Y-139959523D01*
X168800000Y-139911904D01*
X168847619Y-139816666D01*
X168752380Y-139102380D02*
X168800000Y-139054761D01*
X168847619Y-138959523D01*
X168847619Y-138721428D01*
X168800000Y-138626190D01*
X168752380Y-138578571D01*
X168657142Y-138530952D01*
X168561904Y-138530952D01*
X168419047Y-138578571D01*
X167847619Y-139150000D01*
X167847619Y-138530952D01*
M02*
