G04 #@! TF.GenerationSoftware,KiCad,Pcbnew,(5.1.5)-3*
G04 #@! TF.CreationDate,2020-04-11T14:24:40-04:00*
G04 #@! TF.ProjectId,PowerBoth,506f7765-7242-46f7-9468-2e6b69636164,rev?*
G04 #@! TF.SameCoordinates,Original*
G04 #@! TF.FileFunction,Legend,Top*
G04 #@! TF.FilePolarity,Positive*
%FSLAX46Y46*%
G04 Gerber Fmt 4.6, Leading zero omitted, Abs format (unit mm)*
G04 Created by KiCad (PCBNEW (5.1.5)-3) date 2020-04-11 14:24:40*
%MOMM*%
%LPD*%
G04 APERTURE LIST*
%ADD10C,0.120000*%
%ADD11C,0.200000*%
%ADD12C,0.150000*%
%ADD13C,0.152400*%
%ADD14C,0.400000*%
%ADD15C,0.127000*%
%ADD16C,0.076200*%
%ADD17C,0.130000*%
G04 APERTURE END LIST*
D10*
X240700000Y-121650000D02*
X240700000Y-121150000D01*
X241000000Y-121200000D02*
X240700000Y-121650000D01*
X236550000Y-121200000D02*
X241000000Y-121200000D01*
X236150000Y-121550000D02*
X236550000Y-121200000D01*
D11*
X216938095Y-124350000D02*
X216842857Y-124302380D01*
X216700000Y-124302380D01*
X216557142Y-124350000D01*
X216461904Y-124445238D01*
X216414285Y-124540476D01*
X216366666Y-124730952D01*
X216366666Y-124873809D01*
X216414285Y-125064285D01*
X216461904Y-125159523D01*
X216557142Y-125254761D01*
X216700000Y-125302380D01*
X216795238Y-125302380D01*
X216938095Y-125254761D01*
X216985714Y-125207142D01*
X216985714Y-124873809D01*
X216795238Y-124873809D01*
X217414285Y-125302380D02*
X217414285Y-124302380D01*
X217985714Y-125302380D01*
X217985714Y-124302380D01*
X218461904Y-125302380D02*
X218461904Y-124302380D01*
X218700000Y-124302380D01*
X218842857Y-124350000D01*
X218938095Y-124445238D01*
X218985714Y-124540476D01*
X219033333Y-124730952D01*
X219033333Y-124873809D01*
X218985714Y-125064285D01*
X218938095Y-125159523D01*
X218842857Y-125254761D01*
X218700000Y-125302380D01*
X218461904Y-125302380D01*
D12*
X206926190Y-127052380D02*
X207259523Y-128052380D01*
X207592857Y-127052380D01*
X208259523Y-127528571D02*
X208402380Y-127576190D01*
X208450000Y-127623809D01*
X208497619Y-127719047D01*
X208497619Y-127861904D01*
X208450000Y-127957142D01*
X208402380Y-128004761D01*
X208307142Y-128052380D01*
X207926190Y-128052380D01*
X207926190Y-127052380D01*
X208259523Y-127052380D01*
X208354761Y-127100000D01*
X208402380Y-127147619D01*
X208450000Y-127242857D01*
X208450000Y-127338095D01*
X208402380Y-127433333D01*
X208354761Y-127480952D01*
X208259523Y-127528571D01*
X207926190Y-127528571D01*
X208878571Y-127766666D02*
X209354761Y-127766666D01*
X208783333Y-128052380D02*
X209116666Y-127052380D01*
X209450000Y-128052380D01*
X209640476Y-127052380D02*
X210211904Y-127052380D01*
X209926190Y-128052380D02*
X209926190Y-127052380D01*
X210402380Y-127052380D02*
X210973809Y-127052380D01*
X210688095Y-128052380D02*
X210688095Y-127052380D01*
X210173809Y-122304761D02*
X210316666Y-122352380D01*
X210554761Y-122352380D01*
X210650000Y-122304761D01*
X210697619Y-122257142D01*
X210745238Y-122161904D01*
X210745238Y-122066666D01*
X210697619Y-121971428D01*
X210650000Y-121923809D01*
X210554761Y-121876190D01*
X210364285Y-121828571D01*
X210269047Y-121780952D01*
X210221428Y-121733333D01*
X210173809Y-121638095D01*
X210173809Y-121542857D01*
X210221428Y-121447619D01*
X210269047Y-121400000D01*
X210364285Y-121352380D01*
X210602380Y-121352380D01*
X210745238Y-121400000D01*
X211030952Y-121352380D02*
X211602380Y-121352380D01*
X211316666Y-122352380D02*
X211316666Y-121352380D01*
X211888095Y-122066666D02*
X212364285Y-122066666D01*
X211792857Y-122352380D02*
X212126190Y-121352380D01*
X212459523Y-122352380D01*
X212650000Y-121352380D02*
X213221428Y-121352380D01*
X212935714Y-122352380D02*
X212935714Y-121352380D01*
D13*
X274295514Y-125421428D02*
X274256809Y-125373809D01*
X274218104Y-125230952D01*
X274218104Y-125135714D01*
X274256809Y-124992857D01*
X274334219Y-124897619D01*
X274411628Y-124850000D01*
X274566447Y-124802380D01*
X274682561Y-124802380D01*
X274837380Y-124850000D01*
X274914790Y-124897619D01*
X274992200Y-124992857D01*
X275030904Y-125135714D01*
X275030904Y-125230952D01*
X274992200Y-125373809D01*
X274953495Y-125421428D01*
X274218104Y-126421428D02*
X274605152Y-126088095D01*
X274218104Y-125850000D02*
X275030904Y-125850000D01*
X275030904Y-126230952D01*
X274992200Y-126326190D01*
X274953495Y-126373809D01*
X274876085Y-126421428D01*
X274759971Y-126421428D01*
X274682561Y-126373809D01*
X274643857Y-126326190D01*
X274605152Y-126230952D01*
X274605152Y-125850000D01*
X274218104Y-127373809D02*
X274218104Y-126802380D01*
X274218104Y-127088095D02*
X275030904Y-127088095D01*
X274914790Y-126992857D01*
X274837380Y-126897619D01*
X274798676Y-126802380D01*
X275030904Y-127992857D02*
X275030904Y-128088095D01*
X274992200Y-128183333D01*
X274953495Y-128230952D01*
X274876085Y-128278571D01*
X274721266Y-128326190D01*
X274527742Y-128326190D01*
X274372923Y-128278571D01*
X274295514Y-128230952D01*
X274256809Y-128183333D01*
X274218104Y-128088095D01*
X274218104Y-127992857D01*
X274256809Y-127897619D01*
X274295514Y-127850000D01*
X274372923Y-127802380D01*
X274527742Y-127754761D01*
X274721266Y-127754761D01*
X274876085Y-127802380D01*
X274953495Y-127850000D01*
X274992200Y-127897619D01*
X275030904Y-127992857D01*
X274218104Y-129278571D02*
X274218104Y-128707142D01*
X274218104Y-128992857D02*
X275030904Y-128992857D01*
X274914790Y-128897619D01*
X274837380Y-128802380D01*
X274798676Y-128707142D01*
X274643857Y-130802380D02*
X274605152Y-130945238D01*
X274566447Y-130992857D01*
X274489038Y-131040476D01*
X274372923Y-131040476D01*
X274295514Y-130992857D01*
X274256809Y-130945238D01*
X274218104Y-130850000D01*
X274218104Y-130469047D01*
X275030904Y-130469047D01*
X275030904Y-130802380D01*
X274992200Y-130897619D01*
X274953495Y-130945238D01*
X274876085Y-130992857D01*
X274798676Y-130992857D01*
X274721266Y-130945238D01*
X274682561Y-130897619D01*
X274643857Y-130802380D01*
X274643857Y-130469047D01*
X274218104Y-131897619D02*
X274643857Y-131897619D01*
X274721266Y-131850000D01*
X274759971Y-131754761D01*
X274759971Y-131564285D01*
X274721266Y-131469047D01*
X274256809Y-131897619D02*
X274218104Y-131802380D01*
X274218104Y-131564285D01*
X274256809Y-131469047D01*
X274334219Y-131421428D01*
X274411628Y-131421428D01*
X274489038Y-131469047D01*
X274527742Y-131564285D01*
X274527742Y-131802380D01*
X274566447Y-131897619D01*
X274759971Y-132230952D02*
X274759971Y-132611904D01*
X275030904Y-132373809D02*
X274334219Y-132373809D01*
X274256809Y-132421428D01*
X274218104Y-132516666D01*
X274218104Y-132611904D01*
X274759971Y-132802380D02*
X274759971Y-133183333D01*
X275030904Y-132945238D02*
X274334219Y-132945238D01*
X274256809Y-132992857D01*
X274218104Y-133088095D01*
X274218104Y-133183333D01*
X274256809Y-133897619D02*
X274218104Y-133802380D01*
X274218104Y-133611904D01*
X274256809Y-133516666D01*
X274334219Y-133469047D01*
X274643857Y-133469047D01*
X274721266Y-133516666D01*
X274759971Y-133611904D01*
X274759971Y-133802380D01*
X274721266Y-133897619D01*
X274643857Y-133945238D01*
X274566447Y-133945238D01*
X274489038Y-133469047D01*
X274218104Y-134373809D02*
X274759971Y-134373809D01*
X274605152Y-134373809D02*
X274682561Y-134421428D01*
X274721266Y-134469047D01*
X274759971Y-134564285D01*
X274759971Y-134659523D01*
X274759971Y-134897619D02*
X274218104Y-135135714D01*
X274759971Y-135373809D02*
X274218104Y-135135714D01*
X274024580Y-135040476D01*
X273985876Y-134992857D01*
X273947171Y-134897619D01*
X274295514Y-137088095D02*
X274256809Y-137040476D01*
X274218104Y-136897619D01*
X274218104Y-136802380D01*
X274256809Y-136659523D01*
X274334219Y-136564285D01*
X274411628Y-136516666D01*
X274566447Y-136469047D01*
X274682561Y-136469047D01*
X274837380Y-136516666D01*
X274914790Y-136564285D01*
X274992200Y-136659523D01*
X275030904Y-136802380D01*
X275030904Y-136897619D01*
X274992200Y-137040476D01*
X274953495Y-137088095D01*
X274218104Y-137516666D02*
X275030904Y-137516666D01*
X274218104Y-137945238D02*
X274643857Y-137945238D01*
X274721266Y-137897619D01*
X274759971Y-137802380D01*
X274759971Y-137659523D01*
X274721266Y-137564285D01*
X274682561Y-137516666D01*
X274218104Y-138850000D02*
X274643857Y-138850000D01*
X274721266Y-138802380D01*
X274759971Y-138707142D01*
X274759971Y-138516666D01*
X274721266Y-138421428D01*
X274256809Y-138850000D02*
X274218104Y-138754761D01*
X274218104Y-138516666D01*
X274256809Y-138421428D01*
X274334219Y-138373809D01*
X274411628Y-138373809D01*
X274489038Y-138421428D01*
X274527742Y-138516666D01*
X274527742Y-138754761D01*
X274566447Y-138850000D01*
X274218104Y-139326190D02*
X274759971Y-139326190D01*
X274605152Y-139326190D02*
X274682561Y-139373809D01*
X274721266Y-139421428D01*
X274759971Y-139516666D01*
X274759971Y-139611904D01*
X274759971Y-140373809D02*
X274101990Y-140373809D01*
X274024580Y-140326190D01*
X273985876Y-140278571D01*
X273947171Y-140183333D01*
X273947171Y-140040476D01*
X273985876Y-139945238D01*
X274256809Y-140373809D02*
X274218104Y-140278571D01*
X274218104Y-140088095D01*
X274256809Y-139992857D01*
X274295514Y-139945238D01*
X274372923Y-139897619D01*
X274605152Y-139897619D01*
X274682561Y-139945238D01*
X274721266Y-139992857D01*
X274759971Y-140088095D01*
X274759971Y-140278571D01*
X274721266Y-140373809D01*
X274256809Y-141230952D02*
X274218104Y-141135714D01*
X274218104Y-140945238D01*
X274256809Y-140850000D01*
X274334219Y-140802380D01*
X274643857Y-140802380D01*
X274721266Y-140850000D01*
X274759971Y-140945238D01*
X274759971Y-141135714D01*
X274721266Y-141230952D01*
X274643857Y-141278571D01*
X274566447Y-141278571D01*
X274489038Y-140802380D01*
X274218104Y-141707142D02*
X274759971Y-141707142D01*
X274605152Y-141707142D02*
X274682561Y-141754761D01*
X274721266Y-141802380D01*
X274759971Y-141897619D01*
X274759971Y-141992857D01*
X272846504Y-124635714D02*
X273388371Y-124635714D01*
X273310961Y-124635714D02*
X273349666Y-124683333D01*
X273388371Y-124778571D01*
X273388371Y-124921428D01*
X273349666Y-125016666D01*
X273272257Y-125064285D01*
X272846504Y-125064285D01*
X273272257Y-125064285D02*
X273349666Y-125111904D01*
X273388371Y-125207142D01*
X273388371Y-125350000D01*
X273349666Y-125445238D01*
X273272257Y-125492857D01*
X272846504Y-125492857D01*
X273388371Y-126397619D02*
X272575571Y-126397619D01*
X272885209Y-126397619D02*
X272846504Y-126302380D01*
X272846504Y-126111904D01*
X272885209Y-126016666D01*
X272923914Y-125969047D01*
X273001323Y-125921428D01*
X273233552Y-125921428D01*
X273310961Y-125969047D01*
X273349666Y-126016666D01*
X273388371Y-126111904D01*
X273388371Y-126302380D01*
X273349666Y-126397619D01*
X273388371Y-127302380D02*
X272846504Y-127302380D01*
X273388371Y-126873809D02*
X272962619Y-126873809D01*
X272885209Y-126921428D01*
X272846504Y-127016666D01*
X272846504Y-127159523D01*
X272885209Y-127254761D01*
X272923914Y-127302380D01*
X272885209Y-128159523D02*
X272846504Y-128064285D01*
X272846504Y-127873809D01*
X272885209Y-127778571D01*
X272962619Y-127730952D01*
X273272257Y-127730952D01*
X273349666Y-127778571D01*
X273388371Y-127873809D01*
X273388371Y-128064285D01*
X273349666Y-128159523D01*
X273272257Y-128207142D01*
X273194847Y-128207142D01*
X273117438Y-127730952D01*
X273388371Y-128540476D02*
X273388371Y-129064285D01*
X272846504Y-128540476D01*
X272846504Y-129064285D01*
X272846504Y-129873809D02*
X273272257Y-129873809D01*
X273349666Y-129826190D01*
X273388371Y-129730952D01*
X273388371Y-129540476D01*
X273349666Y-129445238D01*
X272885209Y-129873809D02*
X272846504Y-129778571D01*
X272846504Y-129540476D01*
X272885209Y-129445238D01*
X272962619Y-129397619D01*
X273040028Y-129397619D01*
X273117438Y-129445238D01*
X273156142Y-129540476D01*
X273156142Y-129778571D01*
X273194847Y-129873809D01*
X272846504Y-130778571D02*
X273659304Y-130778571D01*
X272885209Y-130778571D02*
X272846504Y-130683333D01*
X272846504Y-130492857D01*
X272885209Y-130397619D01*
X272923914Y-130350000D01*
X273001323Y-130302380D01*
X273233552Y-130302380D01*
X273310961Y-130350000D01*
X273349666Y-130397619D01*
X273388371Y-130492857D01*
X273388371Y-130683333D01*
X273349666Y-130778571D01*
X272846504Y-131683333D02*
X273272257Y-131683333D01*
X273349666Y-131635714D01*
X273388371Y-131540476D01*
X273388371Y-131350000D01*
X273349666Y-131254761D01*
X272885209Y-131683333D02*
X272846504Y-131588095D01*
X272846504Y-131350000D01*
X272885209Y-131254761D01*
X272962619Y-131207142D01*
X273040028Y-131207142D01*
X273117438Y-131254761D01*
X273156142Y-131350000D01*
X273156142Y-131588095D01*
X273194847Y-131683333D01*
X273581895Y-132873809D02*
X273620600Y-132921428D01*
X273659304Y-133016666D01*
X273659304Y-133254761D01*
X273620600Y-133350000D01*
X273581895Y-133397619D01*
X273504485Y-133445238D01*
X273427076Y-133445238D01*
X273310961Y-133397619D01*
X272846504Y-132826190D01*
X272846504Y-133445238D01*
X273659304Y-134064285D02*
X273659304Y-134159523D01*
X273620600Y-134254761D01*
X273581895Y-134302380D01*
X273504485Y-134350000D01*
X273349666Y-134397619D01*
X273156142Y-134397619D01*
X273001323Y-134350000D01*
X272923914Y-134302380D01*
X272885209Y-134254761D01*
X272846504Y-134159523D01*
X272846504Y-134064285D01*
X272885209Y-133969047D01*
X272923914Y-133921428D01*
X273001323Y-133873809D01*
X273156142Y-133826190D01*
X273349666Y-133826190D01*
X273504485Y-133873809D01*
X273581895Y-133921428D01*
X273620600Y-133969047D01*
X273659304Y-134064285D01*
X273581895Y-134778571D02*
X273620600Y-134826190D01*
X273659304Y-134921428D01*
X273659304Y-135159523D01*
X273620600Y-135254761D01*
X273581895Y-135302380D01*
X273504485Y-135350000D01*
X273427076Y-135350000D01*
X273310961Y-135302380D01*
X272846504Y-134730952D01*
X272846504Y-135350000D01*
X273659304Y-135969047D02*
X273659304Y-136064285D01*
X273620600Y-136159523D01*
X273581895Y-136207142D01*
X273504485Y-136254761D01*
X273349666Y-136302380D01*
X273156142Y-136302380D01*
X273001323Y-136254761D01*
X272923914Y-136207142D01*
X272885209Y-136159523D01*
X272846504Y-136064285D01*
X272846504Y-135969047D01*
X272885209Y-135873809D01*
X272923914Y-135826190D01*
X273001323Y-135778571D01*
X273156142Y-135730952D01*
X273349666Y-135730952D01*
X273504485Y-135778571D01*
X273581895Y-135826190D01*
X273620600Y-135873809D01*
X273659304Y-135969047D01*
X273659304Y-136921428D02*
X273659304Y-137016666D01*
X273620600Y-137111904D01*
X273581895Y-137159523D01*
X273504485Y-137207142D01*
X273349666Y-137254761D01*
X273156142Y-137254761D01*
X273001323Y-137207142D01*
X272923914Y-137159523D01*
X272885209Y-137111904D01*
X272846504Y-137016666D01*
X272846504Y-136921428D01*
X272885209Y-136826190D01*
X272923914Y-136778571D01*
X273001323Y-136730952D01*
X273156142Y-136683333D01*
X273349666Y-136683333D01*
X273504485Y-136730952D01*
X273581895Y-136778571D01*
X273620600Y-136826190D01*
X273659304Y-136921428D01*
X273388371Y-138111904D02*
X272846504Y-138111904D01*
X273698009Y-137873809D02*
X273117438Y-137635714D01*
X273117438Y-138254761D01*
X273388371Y-139302380D02*
X272846504Y-139540476D01*
X273388371Y-139778571D01*
X273581895Y-140111904D02*
X273620600Y-140159523D01*
X273659304Y-140254761D01*
X273659304Y-140492857D01*
X273620600Y-140588095D01*
X273581895Y-140635714D01*
X273504485Y-140683333D01*
X273427076Y-140683333D01*
X273310961Y-140635714D01*
X272846504Y-140064285D01*
X272846504Y-140683333D01*
X272923914Y-141111904D02*
X272885209Y-141159523D01*
X272846504Y-141111904D01*
X272885209Y-141064285D01*
X272923914Y-141111904D01*
X272846504Y-141111904D01*
X273659304Y-141778571D02*
X273659304Y-141873809D01*
X273620600Y-141969047D01*
X273581895Y-142016666D01*
X273504485Y-142064285D01*
X273349666Y-142111904D01*
X273156142Y-142111904D01*
X273001323Y-142064285D01*
X272923914Y-142016666D01*
X272885209Y-141969047D01*
X272846504Y-141873809D01*
X272846504Y-141778571D01*
X272885209Y-141683333D01*
X272923914Y-141635714D01*
X273001323Y-141588095D01*
X273156142Y-141540476D01*
X273349666Y-141540476D01*
X273504485Y-141588095D01*
X273581895Y-141635714D01*
X273620600Y-141683333D01*
X273659304Y-141778571D01*
D11*
X251300000Y-126950000D02*
X251000000Y-126650000D01*
X251300000Y-126250000D02*
X251300000Y-126950000D01*
X251000000Y-126650000D02*
X251300000Y-126250000D01*
X252800000Y-126650000D02*
X251000000Y-126650000D01*
D14*
X232950125Y-124251399D02*
X236600125Y-124251399D01*
X236600125Y-124251399D02*
X236000125Y-123901399D01*
X236000125Y-123901399D02*
X236000125Y-124651399D01*
D12*
X175436775Y-139893674D02*
X175389156Y-139941293D01*
X175246299Y-139988912D01*
X175151060Y-139988912D01*
X175008203Y-139941293D01*
X174912965Y-139846055D01*
X174865346Y-139750817D01*
X174817727Y-139560341D01*
X174817727Y-139417484D01*
X174865346Y-139227008D01*
X174912965Y-139131770D01*
X175008203Y-139036532D01*
X175151060Y-138988912D01*
X175246299Y-138988912D01*
X175389156Y-139036532D01*
X175436775Y-139084151D01*
X176436775Y-139988912D02*
X176103441Y-139512722D01*
X175865346Y-139988912D02*
X175865346Y-138988912D01*
X176246299Y-138988912D01*
X176341537Y-139036532D01*
X176389156Y-139084151D01*
X176436775Y-139179389D01*
X176436775Y-139322246D01*
X176389156Y-139417484D01*
X176341537Y-139465103D01*
X176246299Y-139512722D01*
X175865346Y-139512722D01*
X177389156Y-139988912D02*
X176817727Y-139988912D01*
X177103441Y-139988912D02*
X177103441Y-138988912D01*
X177008203Y-139131770D01*
X176912965Y-139227008D01*
X176817727Y-139274627D01*
X178008203Y-138988912D02*
X178103441Y-138988912D01*
X178198680Y-139036532D01*
X178246299Y-139084151D01*
X178293918Y-139179389D01*
X178341537Y-139369865D01*
X178341537Y-139607960D01*
X178293918Y-139798436D01*
X178246299Y-139893674D01*
X178198680Y-139941293D01*
X178103441Y-139988912D01*
X178008203Y-139988912D01*
X177912965Y-139941293D01*
X177865346Y-139893674D01*
X177817727Y-139798436D01*
X177770108Y-139607960D01*
X177770108Y-139369865D01*
X177817727Y-139179389D01*
X177865346Y-139084151D01*
X177912965Y-139036532D01*
X178008203Y-138988912D01*
X179293918Y-139988912D02*
X178722489Y-139988912D01*
X179008203Y-139988912D02*
X179008203Y-138988912D01*
X178912965Y-139131770D01*
X178817727Y-139227008D01*
X178722489Y-139274627D01*
X180484394Y-139988912D02*
X180484394Y-138988912D01*
X180865346Y-138988912D01*
X180960584Y-139036532D01*
X181008203Y-139084151D01*
X181055822Y-139179389D01*
X181055822Y-139322246D01*
X181008203Y-139417484D01*
X180960584Y-139465103D01*
X180865346Y-139512722D01*
X180484394Y-139512722D01*
X181627251Y-139988912D02*
X181532013Y-139941293D01*
X181484394Y-139893674D01*
X181436775Y-139798436D01*
X181436775Y-139512722D01*
X181484394Y-139417484D01*
X181532013Y-139369865D01*
X181627251Y-139322246D01*
X181770108Y-139322246D01*
X181865346Y-139369865D01*
X181912965Y-139417484D01*
X181960584Y-139512722D01*
X181960584Y-139798436D01*
X181912965Y-139893674D01*
X181865346Y-139941293D01*
X181770108Y-139988912D01*
X181627251Y-139988912D01*
X182293918Y-139322246D02*
X182484394Y-139988912D01*
X182674870Y-139512722D01*
X182865346Y-139988912D01*
X183055822Y-139322246D01*
X183817727Y-139941293D02*
X183722489Y-139988912D01*
X183532013Y-139988912D01*
X183436775Y-139941293D01*
X183389156Y-139846055D01*
X183389156Y-139465103D01*
X183436775Y-139369865D01*
X183532013Y-139322246D01*
X183722489Y-139322246D01*
X183817727Y-139369865D01*
X183865346Y-139465103D01*
X183865346Y-139560341D01*
X183389156Y-139655579D01*
X184293918Y-139988912D02*
X184293918Y-139322246D01*
X184293918Y-139512722D02*
X184341537Y-139417484D01*
X184389156Y-139369865D01*
X184484394Y-139322246D01*
X184579632Y-139322246D01*
X185627251Y-139941293D02*
X185770108Y-139988912D01*
X186008203Y-139988912D01*
X186103441Y-139941293D01*
X186151060Y-139893674D01*
X186198680Y-139798436D01*
X186198680Y-139703198D01*
X186151060Y-139607960D01*
X186103441Y-139560341D01*
X186008203Y-139512722D01*
X185817727Y-139465103D01*
X185722489Y-139417484D01*
X185674870Y-139369865D01*
X185627251Y-139274627D01*
X185627251Y-139179389D01*
X185674870Y-139084151D01*
X185722489Y-139036532D01*
X185817727Y-138988912D01*
X186055822Y-138988912D01*
X186198680Y-139036532D01*
X186627251Y-139465103D02*
X186960584Y-139465103D01*
X187103441Y-139988912D02*
X186627251Y-139988912D01*
X186627251Y-138988912D01*
X187103441Y-138988912D01*
X187532013Y-139988912D02*
X187532013Y-138988912D01*
X187912965Y-138988912D01*
X188008203Y-139036532D01*
X188055822Y-139084151D01*
X188103441Y-139179389D01*
X188103441Y-139322246D01*
X188055822Y-139417484D01*
X188008203Y-139465103D01*
X187912965Y-139512722D01*
X187532013Y-139512722D01*
X188532013Y-139988912D02*
X188532013Y-138988912D01*
X189579632Y-139893674D02*
X189532013Y-139941293D01*
X189389156Y-139988912D01*
X189293918Y-139988912D01*
X189151060Y-139941293D01*
X189055822Y-139846055D01*
X189008203Y-139750817D01*
X188960584Y-139560341D01*
X188960584Y-139417484D01*
X189008203Y-139227008D01*
X189055822Y-139131770D01*
X189151060Y-139036532D01*
X189293918Y-138988912D01*
X189389156Y-138988912D01*
X189532013Y-139036532D01*
X189579632Y-139084151D01*
X174936775Y-141591293D02*
X174841537Y-141638912D01*
X174651060Y-141638912D01*
X174555822Y-141591293D01*
X174508203Y-141543674D01*
X174460584Y-141448436D01*
X174460584Y-141162722D01*
X174508203Y-141067484D01*
X174555822Y-141019865D01*
X174651060Y-140972246D01*
X174841537Y-140972246D01*
X174936775Y-141019865D01*
X175508203Y-141638912D02*
X175412965Y-141591293D01*
X175365346Y-141543674D01*
X175317727Y-141448436D01*
X175317727Y-141162722D01*
X175365346Y-141067484D01*
X175412965Y-141019865D01*
X175508203Y-140972246D01*
X175651060Y-140972246D01*
X175746299Y-141019865D01*
X175793918Y-141067484D01*
X175841537Y-141162722D01*
X175841537Y-141448436D01*
X175793918Y-141543674D01*
X175746299Y-141591293D01*
X175651060Y-141638912D01*
X175508203Y-141638912D01*
X176270108Y-140972246D02*
X176270108Y-141638912D01*
X176270108Y-141067484D02*
X176317727Y-141019865D01*
X176412965Y-140972246D01*
X176555822Y-140972246D01*
X176651060Y-141019865D01*
X176698680Y-141115103D01*
X176698680Y-141638912D01*
X177079632Y-140972246D02*
X177317727Y-141638912D01*
X177555822Y-140972246D01*
X178317727Y-141591293D02*
X178222489Y-141638912D01*
X178032013Y-141638912D01*
X177936775Y-141591293D01*
X177889156Y-141496055D01*
X177889156Y-141115103D01*
X177936775Y-141019865D01*
X178032013Y-140972246D01*
X178222489Y-140972246D01*
X178317727Y-141019865D01*
X178365346Y-141115103D01*
X178365346Y-141210341D01*
X177889156Y-141305579D01*
X178793918Y-141638912D02*
X178793918Y-140972246D01*
X178793918Y-141162722D02*
X178841537Y-141067484D01*
X178889156Y-141019865D01*
X178984394Y-140972246D01*
X179079632Y-140972246D01*
X179270108Y-140972246D02*
X179651060Y-140972246D01*
X179412965Y-140638912D02*
X179412965Y-141496055D01*
X179460584Y-141591293D01*
X179555822Y-141638912D01*
X179651060Y-141638912D01*
X180365346Y-141591293D02*
X180270108Y-141638912D01*
X180079632Y-141638912D01*
X179984394Y-141591293D01*
X179936775Y-141496055D01*
X179936775Y-141115103D01*
X179984394Y-141019865D01*
X180079632Y-140972246D01*
X180270108Y-140972246D01*
X180365346Y-141019865D01*
X180412965Y-141115103D01*
X180412965Y-141210341D01*
X179936775Y-141305579D01*
X180841537Y-141638912D02*
X180841537Y-140972246D01*
X180841537Y-141162722D02*
X180889156Y-141067484D01*
X180936775Y-141019865D01*
X181032013Y-140972246D01*
X181127251Y-140972246D01*
X182222489Y-141638912D02*
X182222489Y-140638912D01*
X182222489Y-141019865D02*
X182317727Y-140972246D01*
X182508203Y-140972246D01*
X182603441Y-141019865D01*
X182651060Y-141067484D01*
X182698680Y-141162722D01*
X182698680Y-141448436D01*
X182651060Y-141543674D01*
X182603441Y-141591293D01*
X182508203Y-141638912D01*
X182317727Y-141638912D01*
X182222489Y-141591293D01*
X183270108Y-141638912D02*
X183174870Y-141591293D01*
X183127251Y-141543674D01*
X183079632Y-141448436D01*
X183079632Y-141162722D01*
X183127251Y-141067484D01*
X183174870Y-141019865D01*
X183270108Y-140972246D01*
X183412965Y-140972246D01*
X183508203Y-141019865D01*
X183555822Y-141067484D01*
X183603441Y-141162722D01*
X183603441Y-141448436D01*
X183555822Y-141543674D01*
X183508203Y-141591293D01*
X183412965Y-141638912D01*
X183270108Y-141638912D01*
X184460584Y-141638912D02*
X184460584Y-141115103D01*
X184412965Y-141019865D01*
X184317727Y-140972246D01*
X184127251Y-140972246D01*
X184032013Y-141019865D01*
X184460584Y-141591293D02*
X184365346Y-141638912D01*
X184127251Y-141638912D01*
X184032013Y-141591293D01*
X183984394Y-141496055D01*
X183984394Y-141400817D01*
X184032013Y-141305579D01*
X184127251Y-141257960D01*
X184365346Y-141257960D01*
X184460584Y-141210341D01*
X184936775Y-141638912D02*
X184936775Y-140972246D01*
X184936775Y-141162722D02*
X184984394Y-141067484D01*
X185032013Y-141019865D01*
X185127251Y-140972246D01*
X185222489Y-140972246D01*
X185984394Y-141638912D02*
X185984394Y-140638912D01*
X185984394Y-141591293D02*
X185889156Y-141638912D01*
X185698680Y-141638912D01*
X185603441Y-141591293D01*
X185555822Y-141543674D01*
X185508203Y-141448436D01*
X185508203Y-141162722D01*
X185555822Y-141067484D01*
X185603441Y-141019865D01*
X185698680Y-140972246D01*
X185889156Y-140972246D01*
X185984394Y-141019865D01*
X187127251Y-140972246D02*
X187365346Y-141638912D01*
X187603441Y-140972246D01*
X187936775Y-140734151D02*
X187984394Y-140686532D01*
X188079632Y-140638912D01*
X188317727Y-140638912D01*
X188412965Y-140686532D01*
X188460584Y-140734151D01*
X188508203Y-140829389D01*
X188508203Y-140924627D01*
X188460584Y-141067484D01*
X187889156Y-141638912D01*
X188508203Y-141638912D01*
X188936775Y-141543674D02*
X188984394Y-141591293D01*
X188936775Y-141638912D01*
X188889156Y-141591293D01*
X188936775Y-141543674D01*
X188936775Y-141638912D01*
X189603441Y-140638912D02*
X189698680Y-140638912D01*
X189793918Y-140686532D01*
X189841537Y-140734151D01*
X189889156Y-140829389D01*
X189936775Y-141019865D01*
X189936775Y-141257960D01*
X189889156Y-141448436D01*
X189841537Y-141543674D01*
X189793918Y-141591293D01*
X189698680Y-141638912D01*
X189603441Y-141638912D01*
X189508203Y-141591293D01*
X189460584Y-141543674D01*
X189412965Y-141448436D01*
X189365346Y-141257960D01*
X189365346Y-141019865D01*
X189412965Y-140829389D01*
X189460584Y-140734151D01*
X189508203Y-140686532D01*
X189603441Y-140638912D01*
X175436775Y-143288912D02*
X175436775Y-142622246D01*
X175436775Y-142717484D02*
X175484394Y-142669865D01*
X175579632Y-142622246D01*
X175722489Y-142622246D01*
X175817727Y-142669865D01*
X175865346Y-142765103D01*
X175865346Y-143288912D01*
X175865346Y-142765103D02*
X175912965Y-142669865D01*
X176008203Y-142622246D01*
X176151060Y-142622246D01*
X176246299Y-142669865D01*
X176293918Y-142765103D01*
X176293918Y-143288912D01*
X177198680Y-142622246D02*
X177198680Y-143622246D01*
X177198680Y-143241293D02*
X177103441Y-143288912D01*
X176912965Y-143288912D01*
X176817727Y-143241293D01*
X176770108Y-143193674D01*
X176722489Y-143098436D01*
X176722489Y-142812722D01*
X176770108Y-142717484D01*
X176817727Y-142669865D01*
X176912965Y-142622246D01*
X177103441Y-142622246D01*
X177198680Y-142669865D01*
X178103441Y-142622246D02*
X178103441Y-143288912D01*
X177674870Y-142622246D02*
X177674870Y-143146055D01*
X177722489Y-143241293D01*
X177817727Y-143288912D01*
X177960584Y-143288912D01*
X178055822Y-143241293D01*
X178103441Y-143193674D01*
X178960584Y-143241293D02*
X178865346Y-143288912D01*
X178674870Y-143288912D01*
X178579632Y-143241293D01*
X178532013Y-143146055D01*
X178532013Y-142765103D01*
X178579632Y-142669865D01*
X178674870Y-142622246D01*
X178865346Y-142622246D01*
X178960584Y-142669865D01*
X179008203Y-142765103D01*
X179008203Y-142860341D01*
X178532013Y-142955579D01*
X179341537Y-142622246D02*
X179865346Y-142622246D01*
X179341537Y-143288912D01*
X179865346Y-143288912D01*
X180674870Y-143288912D02*
X180674870Y-142765103D01*
X180627251Y-142669865D01*
X180532013Y-142622246D01*
X180341537Y-142622246D01*
X180246299Y-142669865D01*
X180674870Y-143241293D02*
X180579632Y-143288912D01*
X180341537Y-143288912D01*
X180246299Y-143241293D01*
X180198680Y-143146055D01*
X180198680Y-143050817D01*
X180246299Y-142955579D01*
X180341537Y-142907960D01*
X180579632Y-142907960D01*
X180674870Y-142860341D01*
X181579632Y-143288912D02*
X181579632Y-142288912D01*
X181579632Y-143241293D02*
X181484394Y-143288912D01*
X181293918Y-143288912D01*
X181198680Y-143241293D01*
X181151060Y-143193674D01*
X181103441Y-143098436D01*
X181103441Y-142812722D01*
X181151060Y-142717484D01*
X181198680Y-142669865D01*
X181293918Y-142622246D01*
X181484394Y-142622246D01*
X181579632Y-142669865D01*
X182484394Y-143288912D02*
X182484394Y-142765103D01*
X182436775Y-142669865D01*
X182341537Y-142622246D01*
X182151060Y-142622246D01*
X182055822Y-142669865D01*
X182484394Y-143241293D02*
X182389156Y-143288912D01*
X182151060Y-143288912D01*
X182055822Y-143241293D01*
X182008203Y-143146055D01*
X182008203Y-143050817D01*
X182055822Y-142955579D01*
X182151060Y-142907960D01*
X182389156Y-142907960D01*
X182484394Y-142860341D01*
X183674870Y-142384151D02*
X183722489Y-142336532D01*
X183817727Y-142288912D01*
X184055822Y-142288912D01*
X184151060Y-142336532D01*
X184198680Y-142384151D01*
X184246299Y-142479389D01*
X184246299Y-142574627D01*
X184198680Y-142717484D01*
X183627251Y-143288912D01*
X184246299Y-143288912D01*
X184865346Y-142288912D02*
X184960584Y-142288912D01*
X185055822Y-142336532D01*
X185103441Y-142384151D01*
X185151060Y-142479389D01*
X185198680Y-142669865D01*
X185198680Y-142907960D01*
X185151060Y-143098436D01*
X185103441Y-143193674D01*
X185055822Y-143241293D01*
X184960584Y-143288912D01*
X184865346Y-143288912D01*
X184770108Y-143241293D01*
X184722489Y-143193674D01*
X184674870Y-143098436D01*
X184627251Y-142907960D01*
X184627251Y-142669865D01*
X184674870Y-142479389D01*
X184722489Y-142384151D01*
X184770108Y-142336532D01*
X184865346Y-142288912D01*
X185579632Y-142384151D02*
X185627251Y-142336532D01*
X185722489Y-142288912D01*
X185960584Y-142288912D01*
X186055822Y-142336532D01*
X186103441Y-142384151D01*
X186151060Y-142479389D01*
X186151060Y-142574627D01*
X186103441Y-142717484D01*
X185532013Y-143288912D01*
X186151060Y-143288912D01*
X186770108Y-142288912D02*
X186865346Y-142288912D01*
X186960584Y-142336532D01*
X187008203Y-142384151D01*
X187055822Y-142479389D01*
X187103441Y-142669865D01*
X187103441Y-142907960D01*
X187055822Y-143098436D01*
X187008203Y-143193674D01*
X186960584Y-143241293D01*
X186865346Y-143288912D01*
X186770108Y-143288912D01*
X186674870Y-143241293D01*
X186627251Y-143193674D01*
X186579632Y-143098436D01*
X186532013Y-142907960D01*
X186532013Y-142669865D01*
X186579632Y-142479389D01*
X186627251Y-142384151D01*
X186674870Y-142336532D01*
X186770108Y-142288912D01*
X187722489Y-142288912D02*
X187817727Y-142288912D01*
X187912965Y-142336532D01*
X187960584Y-142384151D01*
X188008203Y-142479389D01*
X188055822Y-142669865D01*
X188055822Y-142907960D01*
X188008203Y-143098436D01*
X187960584Y-143193674D01*
X187912965Y-143241293D01*
X187817727Y-143288912D01*
X187722489Y-143288912D01*
X187627251Y-143241293D01*
X187579632Y-143193674D01*
X187532013Y-143098436D01*
X187484394Y-142907960D01*
X187484394Y-142669865D01*
X187532013Y-142479389D01*
X187579632Y-142384151D01*
X187627251Y-142336532D01*
X187722489Y-142288912D01*
X188912965Y-142622246D02*
X188912965Y-143288912D01*
X188674870Y-142241293D02*
X188436775Y-142955579D01*
X189055822Y-142955579D01*
D13*
X241166525Y-126592999D02*
X245433725Y-126592999D01*
X245433725Y-121309799D02*
X241166525Y-121309799D01*
D15*
X244424387Y-131151399D02*
G75*
G03X244424387Y-131151399I-424262J0D01*
G01*
D13*
X253179000Y-132418400D02*
X253179000Y-132824800D01*
X259021000Y-130081600D02*
X259021000Y-129675200D01*
X259021000Y-132824800D02*
X259021000Y-132418400D01*
X253179000Y-132824800D02*
X259021000Y-132824800D01*
X253179000Y-129675200D02*
X253179000Y-130081600D01*
X259021000Y-129675200D02*
X253179000Y-129675200D01*
X259656000Y-131885000D02*
X259656000Y-130615000D01*
X260418000Y-131250000D02*
X259656000Y-131123000D01*
X260418000Y-131250000D02*
X259656000Y-130996000D01*
X260418000Y-131250000D02*
X259656000Y-130869000D01*
X260418000Y-131250000D02*
X259656000Y-130742000D01*
X260418000Y-131250000D02*
X259656000Y-130615000D01*
X260418000Y-131250000D02*
X259656000Y-131377000D01*
X260418000Y-131250000D02*
X259656000Y-131504000D01*
X260418000Y-131250000D02*
X259656000Y-131631000D01*
X260418000Y-131250000D02*
X259656000Y-131758000D01*
X260418000Y-131250000D02*
X259656000Y-131885000D01*
X260418000Y-131250000D02*
X260418000Y-130615000D01*
X260418000Y-131885000D02*
X260418000Y-131250000D01*
X260418000Y-131250000D02*
X260672000Y-131250000D01*
X259478200Y-131250000D02*
X260418000Y-131250000D01*
X231379125Y-131369799D02*
X231379125Y-131776199D01*
X237221125Y-129032999D02*
X237221125Y-128626599D01*
X237221125Y-131776199D02*
X237221125Y-131369799D01*
X231379125Y-131776199D02*
X237221125Y-131776199D01*
X231379125Y-128626599D02*
X231379125Y-129032999D01*
X237221125Y-128626599D02*
X231379125Y-128626599D01*
X237856125Y-130836399D02*
X237856125Y-129566399D01*
X238618125Y-130201399D02*
X237856125Y-130074399D01*
X238618125Y-130201399D02*
X237856125Y-129947399D01*
X238618125Y-130201399D02*
X237856125Y-129820399D01*
X238618125Y-130201399D02*
X237856125Y-129693399D01*
X238618125Y-130201399D02*
X237856125Y-129566399D01*
X238618125Y-130201399D02*
X237856125Y-130328399D01*
X238618125Y-130201399D02*
X237856125Y-130455399D01*
X238618125Y-130201399D02*
X237856125Y-130582399D01*
X238618125Y-130201399D02*
X237856125Y-130709399D01*
X238618125Y-130201399D02*
X237856125Y-130836399D01*
X238618125Y-130201399D02*
X238618125Y-129566399D01*
X238618125Y-130836399D02*
X238618125Y-130201399D01*
X238618125Y-130201399D02*
X238872125Y-130201399D01*
X237678325Y-130201399D02*
X238618125Y-130201399D01*
D15*
X181223822Y-125387931D02*
G75*
G03X181223822Y-125387931I-424262J0D01*
G01*
D13*
X173790560Y-131657531D02*
X173790560Y-130336731D01*
X165408560Y-135518331D02*
X165408560Y-136839131D01*
X165408560Y-130336731D02*
X165408560Y-131657531D01*
X173790560Y-130336731D02*
X165408560Y-130336731D01*
X173790560Y-136839131D02*
X173790560Y-135518331D01*
X165408560Y-136839131D02*
X173790560Y-136839131D01*
X164773560Y-133460931D02*
X164773560Y-133714931D01*
X164011560Y-133587931D02*
X164773560Y-133714931D01*
X164011560Y-133587931D02*
X164773560Y-133841931D01*
X164011560Y-133587931D02*
X164773560Y-133968931D01*
X164011560Y-133587931D02*
X164773560Y-134095931D01*
X164011560Y-133587931D02*
X164773560Y-134222931D01*
X164011560Y-133587931D02*
X164773560Y-133460931D01*
X164011560Y-133587931D02*
X164773560Y-133333931D01*
X164011560Y-133587931D02*
X164773560Y-133206931D01*
X164011560Y-133587931D02*
X164773560Y-133079931D01*
X164011560Y-133587931D02*
X164773560Y-132952931D01*
X164011560Y-132952931D02*
X164011560Y-133587931D01*
X164011560Y-133587931D02*
X163757560Y-133587931D01*
X164773560Y-134095931D02*
X164773560Y-134222931D01*
X164773560Y-133968931D02*
X164773560Y-134095931D01*
X164773560Y-133841931D02*
X164773560Y-133968931D01*
X164773560Y-133714931D02*
X164773560Y-133841931D01*
X164773560Y-133333931D02*
X164773560Y-133460931D01*
X164773560Y-133206931D02*
X164773560Y-133333931D01*
X164773560Y-133079931D02*
X164773560Y-133206931D01*
X164773560Y-132952931D02*
X164773560Y-133079931D01*
X164011560Y-133587931D02*
X164011560Y-134222931D01*
X164951360Y-133587931D02*
X164011560Y-133587931D01*
D12*
X233564285Y-121539285D02*
X233564285Y-122146428D01*
X233600000Y-122217857D01*
X233635714Y-122253571D01*
X233707142Y-122289285D01*
X233850000Y-122289285D01*
X233921428Y-122253571D01*
X233957142Y-122217857D01*
X233992857Y-122146428D01*
X233992857Y-121539285D01*
X234314285Y-121610714D02*
X234350000Y-121575000D01*
X234421428Y-121539285D01*
X234600000Y-121539285D01*
X234671428Y-121575000D01*
X234707142Y-121610714D01*
X234742857Y-121682142D01*
X234742857Y-121753571D01*
X234707142Y-121860714D01*
X234278571Y-122289285D01*
X234742857Y-122289285D01*
X235207142Y-121539285D02*
X235278571Y-121539285D01*
X235350000Y-121575000D01*
X235385714Y-121610714D01*
X235421428Y-121682142D01*
X235457142Y-121825000D01*
X235457142Y-122003571D01*
X235421428Y-122146428D01*
X235385714Y-122217857D01*
X235350000Y-122253571D01*
X235278571Y-122289285D01*
X235207142Y-122289285D01*
X235135714Y-122253571D01*
X235100000Y-122217857D01*
X235064285Y-122146428D01*
X235028571Y-122003571D01*
X235028571Y-121825000D01*
X235064285Y-121682142D01*
X235100000Y-121610714D01*
X235135714Y-121575000D01*
X235207142Y-121539285D01*
X236171428Y-122289285D02*
X235742857Y-122289285D01*
X235957142Y-122289285D02*
X235957142Y-121539285D01*
X235885714Y-121646428D01*
X235814285Y-121717857D01*
X235742857Y-121753571D01*
D16*
X244809149Y-125686047D02*
X244809149Y-125973309D01*
X244521887Y-125858404D02*
X244809149Y-125973309D01*
X245096410Y-125858404D01*
X244636791Y-126203119D02*
X244809149Y-125973309D01*
X244981506Y-126203119D01*
D17*
X239314285Y-129136928D02*
X238564285Y-129136928D01*
X239100000Y-128886928D01*
X238564285Y-128636928D01*
X239314285Y-128636928D01*
X238635714Y-128315500D02*
X238600000Y-128279785D01*
X238564285Y-128208357D01*
X238564285Y-128029785D01*
X238600000Y-127958357D01*
X238635714Y-127922642D01*
X238707142Y-127886928D01*
X238778571Y-127886928D01*
X238885714Y-127922642D01*
X239314285Y-128351214D01*
X239314285Y-127886928D01*
X238564285Y-127422642D02*
X238564285Y-127351214D01*
X238600000Y-127279785D01*
X238635714Y-127244071D01*
X238707142Y-127208357D01*
X238850000Y-127172642D01*
X239028571Y-127172642D01*
X239171428Y-127208357D01*
X239242857Y-127244071D01*
X239278571Y-127279785D01*
X239314285Y-127351214D01*
X239314285Y-127422642D01*
X239278571Y-127494071D01*
X239242857Y-127529785D01*
X239171428Y-127565500D01*
X239028571Y-127601214D01*
X238850000Y-127601214D01*
X238707142Y-127565500D01*
X238635714Y-127529785D01*
X238600000Y-127494071D01*
X238564285Y-127422642D01*
X239314285Y-126458357D02*
X239314285Y-126886928D01*
X239314285Y-126672642D02*
X238564285Y-126672642D01*
X238671428Y-126744071D01*
X238742857Y-126815500D01*
X238778571Y-126886928D01*
D12*
X258309523Y-129352380D02*
X258309523Y-128352380D01*
X258547619Y-128352380D01*
X258690476Y-128400000D01*
X258785714Y-128495238D01*
X258833333Y-128590476D01*
X258880952Y-128780952D01*
X258880952Y-128923809D01*
X258833333Y-129114285D01*
X258785714Y-129209523D01*
X258690476Y-129304761D01*
X258547619Y-129352380D01*
X258309523Y-129352380D01*
X259261904Y-128447619D02*
X259309523Y-128400000D01*
X259404761Y-128352380D01*
X259642857Y-128352380D01*
X259738095Y-128400000D01*
X259785714Y-128447619D01*
X259833333Y-128542857D01*
X259833333Y-128638095D01*
X259785714Y-128780952D01*
X259214285Y-129352380D01*
X259833333Y-129352380D01*
X260452380Y-128352380D02*
X260547619Y-128352380D01*
X260642857Y-128400000D01*
X260690476Y-128447619D01*
X260738095Y-128542857D01*
X260785714Y-128733333D01*
X260785714Y-128971428D01*
X260738095Y-129161904D01*
X260690476Y-129257142D01*
X260642857Y-129304761D01*
X260547619Y-129352380D01*
X260452380Y-129352380D01*
X260357142Y-129304761D01*
X260309523Y-129257142D01*
X260261904Y-129161904D01*
X260214285Y-128971428D01*
X260214285Y-128733333D01*
X260261904Y-128542857D01*
X260309523Y-128447619D01*
X260357142Y-128400000D01*
X260452380Y-128352380D01*
X261738095Y-129352380D02*
X261166666Y-129352380D01*
X261452380Y-129352380D02*
X261452380Y-128352380D01*
X261357142Y-128495238D01*
X261261904Y-128590476D01*
X261166666Y-128638095D01*
X230652380Y-131640476D02*
X229652380Y-131640476D01*
X229652380Y-131402380D01*
X229700000Y-131259523D01*
X229795238Y-131164285D01*
X229890476Y-131116666D01*
X230080952Y-131069047D01*
X230223809Y-131069047D01*
X230414285Y-131116666D01*
X230509523Y-131164285D01*
X230604761Y-131259523D01*
X230652380Y-131402380D01*
X230652380Y-131640476D01*
X229747619Y-130688095D02*
X229700000Y-130640476D01*
X229652380Y-130545238D01*
X229652380Y-130307142D01*
X229700000Y-130211904D01*
X229747619Y-130164285D01*
X229842857Y-130116666D01*
X229938095Y-130116666D01*
X230080952Y-130164285D01*
X230652380Y-130735714D01*
X230652380Y-130116666D01*
X229652380Y-129497619D02*
X229652380Y-129402380D01*
X229700000Y-129307142D01*
X229747619Y-129259523D01*
X229842857Y-129211904D01*
X230033333Y-129164285D01*
X230271428Y-129164285D01*
X230461904Y-129211904D01*
X230557142Y-129259523D01*
X230604761Y-129307142D01*
X230652380Y-129402380D01*
X230652380Y-129497619D01*
X230604761Y-129592857D01*
X230557142Y-129640476D01*
X230461904Y-129688095D01*
X230271428Y-129735714D01*
X230033333Y-129735714D01*
X229842857Y-129688095D01*
X229747619Y-129640476D01*
X229700000Y-129592857D01*
X229652380Y-129497619D01*
X229747619Y-128783333D02*
X229700000Y-128735714D01*
X229652380Y-128640476D01*
X229652380Y-128402380D01*
X229700000Y-128307142D01*
X229747619Y-128259523D01*
X229842857Y-128211904D01*
X229938095Y-128211904D01*
X230080952Y-128259523D01*
X230652380Y-128830952D01*
X230652380Y-128211904D01*
X232511904Y-127254880D02*
X232130952Y-127521547D01*
X232511904Y-127712023D02*
X231711904Y-127712023D01*
X231711904Y-127407261D01*
X231750000Y-127331071D01*
X231788095Y-127292976D01*
X231864285Y-127254880D01*
X231978571Y-127254880D01*
X232054761Y-127292976D01*
X232092857Y-127331071D01*
X232130952Y-127407261D01*
X232130952Y-127712023D01*
X232473809Y-126950119D02*
X232511904Y-126835833D01*
X232511904Y-126645357D01*
X232473809Y-126569166D01*
X232435714Y-126531071D01*
X232359523Y-126492976D01*
X232283333Y-126492976D01*
X232207142Y-126531071D01*
X232169047Y-126569166D01*
X232130952Y-126645357D01*
X232092857Y-126797738D01*
X232054761Y-126873928D01*
X232016666Y-126912023D01*
X231940476Y-126950119D01*
X231864285Y-126950119D01*
X231788095Y-126912023D01*
X231750000Y-126873928D01*
X231711904Y-126797738D01*
X231711904Y-126607261D01*
X231750000Y-126492976D01*
X232092857Y-126150119D02*
X232092857Y-125883452D01*
X232511904Y-125769166D02*
X232511904Y-126150119D01*
X231711904Y-126150119D01*
X231711904Y-125769166D01*
X232511904Y-125426309D02*
X231711904Y-125426309D01*
X232511904Y-124969166D01*
X231711904Y-124969166D01*
X232473809Y-124626309D02*
X232511904Y-124512023D01*
X232511904Y-124321547D01*
X232473809Y-124245357D01*
X232435714Y-124207261D01*
X232359523Y-124169166D01*
X232283333Y-124169166D01*
X232207142Y-124207261D01*
X232169047Y-124245357D01*
X232130952Y-124321547D01*
X232092857Y-124473928D01*
X232054761Y-124550119D01*
X232016666Y-124588214D01*
X231940476Y-124626309D01*
X231864285Y-124626309D01*
X231788095Y-124588214D01*
X231750000Y-124550119D01*
X231711904Y-124473928D01*
X231711904Y-124283452D01*
X231750000Y-124169166D01*
X232092857Y-123826309D02*
X232092857Y-123559642D01*
X232511904Y-123445357D02*
X232511904Y-123826309D01*
X231711904Y-123826309D01*
X231711904Y-123445357D01*
X231788095Y-123140595D02*
X231750000Y-123102500D01*
X231711904Y-123026309D01*
X231711904Y-122835833D01*
X231750000Y-122759642D01*
X231788095Y-122721547D01*
X231864285Y-122683452D01*
X231940476Y-122683452D01*
X232054761Y-122721547D01*
X232511904Y-123178690D01*
X232511904Y-122683452D01*
X231711904Y-122188214D02*
X231711904Y-122112023D01*
X231750000Y-122035833D01*
X231788095Y-121997738D01*
X231864285Y-121959642D01*
X232016666Y-121921547D01*
X232207142Y-121921547D01*
X232359523Y-121959642D01*
X232435714Y-121997738D01*
X232473809Y-122035833D01*
X232511904Y-122112023D01*
X232511904Y-122188214D01*
X232473809Y-122264404D01*
X232435714Y-122302500D01*
X232359523Y-122340595D01*
X232207142Y-122378690D01*
X232016666Y-122378690D01*
X231864285Y-122340595D01*
X231788095Y-122302500D01*
X231750000Y-122264404D01*
X231711904Y-122188214D01*
X232511904Y-121159642D02*
X232511904Y-121616785D01*
X232511904Y-121388214D02*
X231711904Y-121388214D01*
X231826190Y-121464404D01*
X231902380Y-121540595D01*
X231940476Y-121616785D01*
X248507142Y-130192976D02*
X248554761Y-130240595D01*
X248602380Y-130383452D01*
X248602380Y-130478690D01*
X248554761Y-130621547D01*
X248459523Y-130716785D01*
X248364285Y-130764404D01*
X248173809Y-130812023D01*
X248030952Y-130812023D01*
X247840476Y-130764404D01*
X247745238Y-130716785D01*
X247650000Y-130621547D01*
X247602380Y-130478690D01*
X247602380Y-130383452D01*
X247650000Y-130240595D01*
X247697619Y-130192976D01*
X247697619Y-129812023D02*
X247650000Y-129764404D01*
X247602380Y-129669166D01*
X247602380Y-129431071D01*
X247650000Y-129335833D01*
X247697619Y-129288214D01*
X247792857Y-129240595D01*
X247888095Y-129240595D01*
X248030952Y-129288214D01*
X248602380Y-129859642D01*
X248602380Y-129240595D01*
X247602380Y-128621547D02*
X247602380Y-128526309D01*
X247650000Y-128431071D01*
X247697619Y-128383452D01*
X247792857Y-128335833D01*
X247983333Y-128288214D01*
X248221428Y-128288214D01*
X248411904Y-128335833D01*
X248507142Y-128383452D01*
X248554761Y-128431071D01*
X248602380Y-128526309D01*
X248602380Y-128621547D01*
X248554761Y-128716785D01*
X248507142Y-128764404D01*
X248411904Y-128812023D01*
X248221428Y-128859642D01*
X247983333Y-128859642D01*
X247792857Y-128812023D01*
X247697619Y-128764404D01*
X247650000Y-128716785D01*
X247602380Y-128621547D01*
X247697619Y-127907261D02*
X247650000Y-127859642D01*
X247602380Y-127764404D01*
X247602380Y-127526309D01*
X247650000Y-127431071D01*
X247697619Y-127383452D01*
X247792857Y-127335833D01*
X247888095Y-127335833D01*
X248030952Y-127383452D01*
X248602380Y-127954880D01*
X248602380Y-127335833D01*
X254392857Y-122707023D02*
X254345238Y-122659404D01*
X254297619Y-122516547D01*
X254297619Y-122421309D01*
X254345238Y-122278452D01*
X254440476Y-122183214D01*
X254535714Y-122135595D01*
X254726190Y-122087976D01*
X254869047Y-122087976D01*
X255059523Y-122135595D01*
X255154761Y-122183214D01*
X255250000Y-122278452D01*
X255297619Y-122421309D01*
X255297619Y-122516547D01*
X255250000Y-122659404D01*
X255202380Y-122707023D01*
X255202380Y-123087976D02*
X255250000Y-123135595D01*
X255297619Y-123230833D01*
X255297619Y-123468928D01*
X255250000Y-123564166D01*
X255202380Y-123611785D01*
X255107142Y-123659404D01*
X255011904Y-123659404D01*
X254869047Y-123611785D01*
X254297619Y-123040357D01*
X254297619Y-123659404D01*
X255297619Y-124278452D02*
X255297619Y-124373690D01*
X255250000Y-124468928D01*
X255202380Y-124516547D01*
X255107142Y-124564166D01*
X254916666Y-124611785D01*
X254678571Y-124611785D01*
X254488095Y-124564166D01*
X254392857Y-124516547D01*
X254345238Y-124468928D01*
X254297619Y-124373690D01*
X254297619Y-124278452D01*
X254345238Y-124183214D01*
X254392857Y-124135595D01*
X254488095Y-124087976D01*
X254678571Y-124040357D01*
X254916666Y-124040357D01*
X255107142Y-124087976D01*
X255202380Y-124135595D01*
X255250000Y-124183214D01*
X255297619Y-124278452D01*
X254297619Y-125564166D02*
X254297619Y-124992738D01*
X254297619Y-125278452D02*
X255297619Y-125278452D01*
X255154761Y-125183214D01*
X255059523Y-125087976D01*
X255011904Y-124992738D01*
X253807023Y-127007142D02*
X253759404Y-127054761D01*
X253616547Y-127102380D01*
X253521309Y-127102380D01*
X253378452Y-127054761D01*
X253283214Y-126959523D01*
X253235595Y-126864285D01*
X253187976Y-126673809D01*
X253187976Y-126530952D01*
X253235595Y-126340476D01*
X253283214Y-126245238D01*
X253378452Y-126150000D01*
X253521309Y-126102380D01*
X253616547Y-126102380D01*
X253759404Y-126150000D01*
X253807023Y-126197619D01*
X254807023Y-127007142D02*
X254759404Y-127054761D01*
X254616547Y-127102380D01*
X254521309Y-127102380D01*
X254378452Y-127054761D01*
X254283214Y-126959523D01*
X254235595Y-126864285D01*
X254187976Y-126673809D01*
X254187976Y-126530952D01*
X254235595Y-126340476D01*
X254283214Y-126245238D01*
X254378452Y-126150000D01*
X254521309Y-126102380D01*
X254616547Y-126102380D01*
X254759404Y-126150000D01*
X254807023Y-126197619D01*
X255187976Y-126197619D02*
X255235595Y-126150000D01*
X255330833Y-126102380D01*
X255568928Y-126102380D01*
X255664166Y-126150000D01*
X255711785Y-126197619D01*
X255759404Y-126292857D01*
X255759404Y-126388095D01*
X255711785Y-126530952D01*
X255140357Y-127102380D01*
X255759404Y-127102380D01*
X256378452Y-126102380D02*
X256473690Y-126102380D01*
X256568928Y-126150000D01*
X256616547Y-126197619D01*
X256664166Y-126292857D01*
X256711785Y-126483333D01*
X256711785Y-126721428D01*
X256664166Y-126911904D01*
X256616547Y-127007142D01*
X256568928Y-127054761D01*
X256473690Y-127102380D01*
X256378452Y-127102380D01*
X256283214Y-127054761D01*
X256235595Y-127007142D01*
X256187976Y-126911904D01*
X256140357Y-126721428D01*
X256140357Y-126483333D01*
X256187976Y-126292857D01*
X256235595Y-126197619D01*
X256283214Y-126150000D01*
X256378452Y-126102380D01*
X257664166Y-127102380D02*
X257092738Y-127102380D01*
X257378452Y-127102380D02*
X257378452Y-126102380D01*
X257283214Y-126245238D01*
X257187976Y-126340476D01*
X257092738Y-126388095D01*
X248302380Y-124992976D02*
X247826190Y-125326309D01*
X248302380Y-125564404D02*
X247302380Y-125564404D01*
X247302380Y-125183452D01*
X247350000Y-125088214D01*
X247397619Y-125040595D01*
X247492857Y-124992976D01*
X247635714Y-124992976D01*
X247730952Y-125040595D01*
X247778571Y-125088214D01*
X247826190Y-125183452D01*
X247826190Y-125564404D01*
X248207142Y-123992976D02*
X248254761Y-124040595D01*
X248302380Y-124183452D01*
X248302380Y-124278690D01*
X248254761Y-124421547D01*
X248159523Y-124516785D01*
X248064285Y-124564404D01*
X247873809Y-124612023D01*
X247730952Y-124612023D01*
X247540476Y-124564404D01*
X247445238Y-124516785D01*
X247350000Y-124421547D01*
X247302380Y-124278690D01*
X247302380Y-124183452D01*
X247350000Y-124040595D01*
X247397619Y-123992976D01*
X247397619Y-123612023D02*
X247350000Y-123564404D01*
X247302380Y-123469166D01*
X247302380Y-123231071D01*
X247350000Y-123135833D01*
X247397619Y-123088214D01*
X247492857Y-123040595D01*
X247588095Y-123040595D01*
X247730952Y-123088214D01*
X248302380Y-123659642D01*
X248302380Y-123040595D01*
X247302380Y-122421547D02*
X247302380Y-122326309D01*
X247350000Y-122231071D01*
X247397619Y-122183452D01*
X247492857Y-122135833D01*
X247683333Y-122088214D01*
X247921428Y-122088214D01*
X248111904Y-122135833D01*
X248207142Y-122183452D01*
X248254761Y-122231071D01*
X248302380Y-122326309D01*
X248302380Y-122421547D01*
X248254761Y-122516785D01*
X248207142Y-122564404D01*
X248111904Y-122612023D01*
X247921428Y-122659642D01*
X247683333Y-122659642D01*
X247492857Y-122612023D01*
X247397619Y-122564404D01*
X247350000Y-122516785D01*
X247302380Y-122421547D01*
X248302380Y-121135833D02*
X248302380Y-121707261D01*
X248302380Y-121421547D02*
X247302380Y-121421547D01*
X247445238Y-121516785D01*
X247540476Y-121612023D01*
X247588095Y-121707261D01*
X223957023Y-124452380D02*
X223623690Y-123976190D01*
X223385595Y-124452380D02*
X223385595Y-123452380D01*
X223766547Y-123452380D01*
X223861785Y-123500000D01*
X223909404Y-123547619D01*
X223957023Y-123642857D01*
X223957023Y-123785714D01*
X223909404Y-123880952D01*
X223861785Y-123928571D01*
X223766547Y-123976190D01*
X223385595Y-123976190D01*
X224337976Y-123547619D02*
X224385595Y-123500000D01*
X224480833Y-123452380D01*
X224718928Y-123452380D01*
X224814166Y-123500000D01*
X224861785Y-123547619D01*
X224909404Y-123642857D01*
X224909404Y-123738095D01*
X224861785Y-123880952D01*
X224290357Y-124452380D01*
X224909404Y-124452380D01*
X225528452Y-123452380D02*
X225623690Y-123452380D01*
X225718928Y-123500000D01*
X225766547Y-123547619D01*
X225814166Y-123642857D01*
X225861785Y-123833333D01*
X225861785Y-124071428D01*
X225814166Y-124261904D01*
X225766547Y-124357142D01*
X225718928Y-124404761D01*
X225623690Y-124452380D01*
X225528452Y-124452380D01*
X225433214Y-124404761D01*
X225385595Y-124357142D01*
X225337976Y-124261904D01*
X225290357Y-124071428D01*
X225290357Y-123833333D01*
X225337976Y-123642857D01*
X225385595Y-123547619D01*
X225433214Y-123500000D01*
X225528452Y-123452380D01*
X226814166Y-124452380D02*
X226242738Y-124452380D01*
X226528452Y-124452380D02*
X226528452Y-123452380D01*
X226433214Y-123595238D01*
X226337976Y-123690476D01*
X226242738Y-123738095D01*
X211585714Y-123202380D02*
X212157142Y-123202380D01*
X211871428Y-124202380D02*
X211871428Y-123202380D01*
X212490476Y-124202380D02*
X212490476Y-123202380D01*
X212871428Y-123202380D01*
X212966666Y-123250000D01*
X213014285Y-123297619D01*
X213061904Y-123392857D01*
X213061904Y-123535714D01*
X213014285Y-123630952D01*
X212966666Y-123678571D01*
X212871428Y-123726190D01*
X212490476Y-123726190D01*
X213442857Y-123297619D02*
X213490476Y-123250000D01*
X213585714Y-123202380D01*
X213823809Y-123202380D01*
X213919047Y-123250000D01*
X213966666Y-123297619D01*
X214014285Y-123392857D01*
X214014285Y-123488095D01*
X213966666Y-123630952D01*
X213395238Y-124202380D01*
X214014285Y-124202380D01*
X214633333Y-123202380D02*
X214728571Y-123202380D01*
X214823809Y-123250000D01*
X214871428Y-123297619D01*
X214919047Y-123392857D01*
X214966666Y-123583333D01*
X214966666Y-123821428D01*
X214919047Y-124011904D01*
X214871428Y-124107142D01*
X214823809Y-124154761D01*
X214728571Y-124202380D01*
X214633333Y-124202380D01*
X214538095Y-124154761D01*
X214490476Y-124107142D01*
X214442857Y-124011904D01*
X214395238Y-123821428D01*
X214395238Y-123583333D01*
X214442857Y-123392857D01*
X214490476Y-123297619D01*
X214538095Y-123250000D01*
X214633333Y-123202380D01*
X215919047Y-124202380D02*
X215347619Y-124202380D01*
X215633333Y-124202380D02*
X215633333Y-123202380D01*
X215538095Y-123345238D01*
X215442857Y-123440476D01*
X215347619Y-123488095D01*
X206785714Y-125652380D02*
X207357142Y-125652380D01*
X207071428Y-126652380D02*
X207071428Y-125652380D01*
X207690476Y-126652380D02*
X207690476Y-125652380D01*
X208071428Y-125652380D01*
X208166666Y-125700000D01*
X208214285Y-125747619D01*
X208261904Y-125842857D01*
X208261904Y-125985714D01*
X208214285Y-126080952D01*
X208166666Y-126128571D01*
X208071428Y-126176190D01*
X207690476Y-126176190D01*
X208642857Y-125747619D02*
X208690476Y-125700000D01*
X208785714Y-125652380D01*
X209023809Y-125652380D01*
X209119047Y-125700000D01*
X209166666Y-125747619D01*
X209214285Y-125842857D01*
X209214285Y-125938095D01*
X209166666Y-126080952D01*
X208595238Y-126652380D01*
X209214285Y-126652380D01*
X209833333Y-125652380D02*
X209928571Y-125652380D01*
X210023809Y-125700000D01*
X210071428Y-125747619D01*
X210119047Y-125842857D01*
X210166666Y-126033333D01*
X210166666Y-126271428D01*
X210119047Y-126461904D01*
X210071428Y-126557142D01*
X210023809Y-126604761D01*
X209928571Y-126652380D01*
X209833333Y-126652380D01*
X209738095Y-126604761D01*
X209690476Y-126557142D01*
X209642857Y-126461904D01*
X209595238Y-126271428D01*
X209595238Y-126033333D01*
X209642857Y-125842857D01*
X209690476Y-125747619D01*
X209738095Y-125700000D01*
X209833333Y-125652380D01*
X210547619Y-125747619D02*
X210595238Y-125700000D01*
X210690476Y-125652380D01*
X210928571Y-125652380D01*
X211023809Y-125700000D01*
X211071428Y-125747619D01*
X211119047Y-125842857D01*
X211119047Y-125938095D01*
X211071428Y-126080952D01*
X210500000Y-126652380D01*
X211119047Y-126652380D01*
X151813702Y-132450907D02*
X151861321Y-132498526D01*
X151908940Y-132641383D01*
X151908940Y-132736621D01*
X151861321Y-132879478D01*
X151766083Y-132974716D01*
X151670845Y-133022335D01*
X151480369Y-133069954D01*
X151337512Y-133069954D01*
X151147036Y-133022335D01*
X151051798Y-132974716D01*
X150956560Y-132879478D01*
X150908940Y-132736621D01*
X150908940Y-132641383D01*
X150956560Y-132498526D01*
X151004179Y-132450907D01*
X150908940Y-131831859D02*
X150908940Y-131641383D01*
X150956560Y-131546145D01*
X151051798Y-131450907D01*
X151242274Y-131403288D01*
X151575607Y-131403288D01*
X151766083Y-131450907D01*
X151861321Y-131546145D01*
X151908940Y-131641383D01*
X151908940Y-131831859D01*
X151861321Y-131927097D01*
X151766083Y-132022335D01*
X151575607Y-132069954D01*
X151242274Y-132069954D01*
X151051798Y-132022335D01*
X150956560Y-131927097D01*
X150908940Y-131831859D01*
X150908940Y-130974716D02*
X151718464Y-130974716D01*
X151813702Y-130927097D01*
X151861321Y-130879478D01*
X151908940Y-130784240D01*
X151908940Y-130593764D01*
X151861321Y-130498526D01*
X151813702Y-130450907D01*
X151718464Y-130403288D01*
X150908940Y-130403288D01*
X150908940Y-130069954D02*
X150908940Y-129498526D01*
X151908940Y-129784240D02*
X150908940Y-129784240D01*
X150908940Y-129260431D02*
X150908940Y-128641383D01*
X151289893Y-128974716D01*
X151289893Y-128831859D01*
X151337512Y-128736621D01*
X151385131Y-128689002D01*
X151480369Y-128641383D01*
X151718464Y-128641383D01*
X151813702Y-128689002D01*
X151861321Y-128736621D01*
X151908940Y-128831859D01*
X151908940Y-129117573D01*
X151861321Y-129212811D01*
X151813702Y-129260431D01*
X150908940Y-128022335D02*
X150908940Y-127927097D01*
X150956560Y-127831859D01*
X151004179Y-127784240D01*
X151099417Y-127736621D01*
X151289893Y-127689002D01*
X151527988Y-127689002D01*
X151718464Y-127736621D01*
X151813702Y-127784240D01*
X151861321Y-127831859D01*
X151908940Y-127927097D01*
X151908940Y-128022335D01*
X151861321Y-128117573D01*
X151813702Y-128165192D01*
X151718464Y-128212811D01*
X151527988Y-128260431D01*
X151289893Y-128260431D01*
X151099417Y-128212811D01*
X151004179Y-128165192D01*
X150956560Y-128117573D01*
X150908940Y-128022335D01*
X151908940Y-126736621D02*
X151908940Y-127308050D01*
X151908940Y-127022335D02*
X150908940Y-127022335D01*
X151051798Y-127117573D01*
X151147036Y-127212811D01*
X151194655Y-127308050D01*
X159013702Y-127050907D02*
X159061321Y-127098526D01*
X159108940Y-127241383D01*
X159108940Y-127336621D01*
X159061321Y-127479478D01*
X158966083Y-127574716D01*
X158870845Y-127622335D01*
X158680369Y-127669954D01*
X158537512Y-127669954D01*
X158347036Y-127622335D01*
X158251798Y-127574716D01*
X158156560Y-127479478D01*
X158108940Y-127336621D01*
X158108940Y-127241383D01*
X158156560Y-127098526D01*
X158204179Y-127050907D01*
X158108940Y-126431859D02*
X158108940Y-126241383D01*
X158156560Y-126146145D01*
X158251798Y-126050907D01*
X158442274Y-126003288D01*
X158775607Y-126003288D01*
X158966083Y-126050907D01*
X159061321Y-126146145D01*
X159108940Y-126241383D01*
X159108940Y-126431859D01*
X159061321Y-126527097D01*
X158966083Y-126622335D01*
X158775607Y-126669954D01*
X158442274Y-126669954D01*
X158251798Y-126622335D01*
X158156560Y-126527097D01*
X158108940Y-126431859D01*
X158108940Y-125574716D02*
X158918464Y-125574716D01*
X159013702Y-125527097D01*
X159061321Y-125479478D01*
X159108940Y-125384240D01*
X159108940Y-125193764D01*
X159061321Y-125098526D01*
X159013702Y-125050907D01*
X158918464Y-125003288D01*
X158108940Y-125003288D01*
X158108940Y-124669954D02*
X158108940Y-124098526D01*
X159108940Y-124384240D02*
X158108940Y-124384240D01*
X158108940Y-123860431D02*
X158108940Y-123241383D01*
X158489893Y-123574716D01*
X158489893Y-123431859D01*
X158537512Y-123336621D01*
X158585131Y-123289002D01*
X158680369Y-123241383D01*
X158918464Y-123241383D01*
X159013702Y-123289002D01*
X159061321Y-123336621D01*
X159108940Y-123431859D01*
X159108940Y-123717573D01*
X159061321Y-123812811D01*
X159013702Y-123860431D01*
X158108940Y-122622335D02*
X158108940Y-122527097D01*
X158156560Y-122431859D01*
X158204179Y-122384240D01*
X158299417Y-122336621D01*
X158489893Y-122289002D01*
X158727988Y-122289002D01*
X158918464Y-122336621D01*
X159013702Y-122384240D01*
X159061321Y-122431859D01*
X159108940Y-122527097D01*
X159108940Y-122622335D01*
X159061321Y-122717573D01*
X159013702Y-122765192D01*
X158918464Y-122812811D01*
X158727988Y-122860431D01*
X158489893Y-122860431D01*
X158299417Y-122812811D01*
X158204179Y-122765192D01*
X158156560Y-122717573D01*
X158108940Y-122622335D01*
X158108940Y-121955669D02*
X158108940Y-121336621D01*
X158489893Y-121669954D01*
X158489893Y-121527097D01*
X158537512Y-121431859D01*
X158585131Y-121384240D01*
X158680369Y-121336621D01*
X158918464Y-121336621D01*
X159013702Y-121384240D01*
X159061321Y-121431859D01*
X159108940Y-121527097D01*
X159108940Y-121812811D01*
X159061321Y-121908050D01*
X159013702Y-121955669D01*
X155513702Y-127050907D02*
X155561321Y-127098526D01*
X155608940Y-127241383D01*
X155608940Y-127336621D01*
X155561321Y-127479478D01*
X155466083Y-127574716D01*
X155370845Y-127622335D01*
X155180369Y-127669954D01*
X155037512Y-127669954D01*
X154847036Y-127622335D01*
X154751798Y-127574716D01*
X154656560Y-127479478D01*
X154608940Y-127336621D01*
X154608940Y-127241383D01*
X154656560Y-127098526D01*
X154704179Y-127050907D01*
X154608940Y-126431859D02*
X154608940Y-126241383D01*
X154656560Y-126146145D01*
X154751798Y-126050907D01*
X154942274Y-126003288D01*
X155275607Y-126003288D01*
X155466083Y-126050907D01*
X155561321Y-126146145D01*
X155608940Y-126241383D01*
X155608940Y-126431859D01*
X155561321Y-126527097D01*
X155466083Y-126622335D01*
X155275607Y-126669954D01*
X154942274Y-126669954D01*
X154751798Y-126622335D01*
X154656560Y-126527097D01*
X154608940Y-126431859D01*
X154608940Y-125574716D02*
X155418464Y-125574716D01*
X155513702Y-125527097D01*
X155561321Y-125479478D01*
X155608940Y-125384240D01*
X155608940Y-125193764D01*
X155561321Y-125098526D01*
X155513702Y-125050907D01*
X155418464Y-125003288D01*
X154608940Y-125003288D01*
X154608940Y-124669954D02*
X154608940Y-124098526D01*
X155608940Y-124384240D02*
X154608940Y-124384240D01*
X154608940Y-123860431D02*
X154608940Y-123241383D01*
X154989893Y-123574716D01*
X154989893Y-123431859D01*
X155037512Y-123336621D01*
X155085131Y-123289002D01*
X155180369Y-123241383D01*
X155418464Y-123241383D01*
X155513702Y-123289002D01*
X155561321Y-123336621D01*
X155608940Y-123431859D01*
X155608940Y-123717573D01*
X155561321Y-123812811D01*
X155513702Y-123860431D01*
X154608940Y-122622335D02*
X154608940Y-122527097D01*
X154656560Y-122431859D01*
X154704179Y-122384240D01*
X154799417Y-122336621D01*
X154989893Y-122289002D01*
X155227988Y-122289002D01*
X155418464Y-122336621D01*
X155513702Y-122384240D01*
X155561321Y-122431859D01*
X155608940Y-122527097D01*
X155608940Y-122622335D01*
X155561321Y-122717573D01*
X155513702Y-122765192D01*
X155418464Y-122812811D01*
X155227988Y-122860431D01*
X154989893Y-122860431D01*
X154799417Y-122812811D01*
X154704179Y-122765192D01*
X154656560Y-122717573D01*
X154608940Y-122622335D01*
X154704179Y-121908050D02*
X154656560Y-121860431D01*
X154608940Y-121765192D01*
X154608940Y-121527097D01*
X154656560Y-121431859D01*
X154704179Y-121384240D01*
X154799417Y-121336621D01*
X154894655Y-121336621D01*
X155037512Y-121384240D01*
X155608940Y-121955669D01*
X155608940Y-121336621D01*
X162051060Y-126779508D02*
X161574870Y-127112841D01*
X162051060Y-127350936D02*
X161051060Y-127350936D01*
X161051060Y-126969984D01*
X161098680Y-126874746D01*
X161146299Y-126827127D01*
X161241537Y-126779508D01*
X161384394Y-126779508D01*
X161479632Y-126827127D01*
X161527251Y-126874746D01*
X161574870Y-126969984D01*
X161574870Y-127350936D01*
X161527251Y-126017603D02*
X161527251Y-126350936D01*
X162051060Y-126350936D02*
X161051060Y-126350936D01*
X161051060Y-125874746D01*
X161527251Y-125160460D02*
X161574870Y-125017603D01*
X161622489Y-124969984D01*
X161717727Y-124922365D01*
X161860584Y-124922365D01*
X161955822Y-124969984D01*
X162003441Y-125017603D01*
X162051060Y-125112841D01*
X162051060Y-125493793D01*
X161051060Y-125493793D01*
X161051060Y-125160460D01*
X161098680Y-125065222D01*
X161146299Y-125017603D01*
X161241537Y-124969984D01*
X161336775Y-124969984D01*
X161432013Y-125017603D01*
X161479632Y-125065222D01*
X161527251Y-125160460D01*
X161527251Y-125493793D01*
X161051060Y-124589032D02*
X161051060Y-123969984D01*
X161432013Y-124303317D01*
X161432013Y-124160460D01*
X161479632Y-124065222D01*
X161527251Y-124017603D01*
X161622489Y-123969984D01*
X161860584Y-123969984D01*
X161955822Y-124017603D01*
X162003441Y-124065222D01*
X162051060Y-124160460D01*
X162051060Y-124446174D01*
X162003441Y-124541412D01*
X161955822Y-124589032D01*
X161051060Y-123350936D02*
X161051060Y-123255698D01*
X161098680Y-123160460D01*
X161146299Y-123112841D01*
X161241537Y-123065222D01*
X161432013Y-123017603D01*
X161670108Y-123017603D01*
X161860584Y-123065222D01*
X161955822Y-123112841D01*
X162003441Y-123160460D01*
X162051060Y-123255698D01*
X162051060Y-123350936D01*
X162003441Y-123446174D01*
X161955822Y-123493793D01*
X161860584Y-123541412D01*
X161670108Y-123589032D01*
X161432013Y-123589032D01*
X161241537Y-123541412D01*
X161146299Y-123493793D01*
X161098680Y-123446174D01*
X161051060Y-123350936D01*
X162051060Y-122065222D02*
X162051060Y-122636651D01*
X162051060Y-122350936D02*
X161051060Y-122350936D01*
X161193918Y-122446174D01*
X161289156Y-122541412D01*
X161336775Y-122636651D01*
X182542857Y-130907023D02*
X182495238Y-130859404D01*
X182447619Y-130716547D01*
X182447619Y-130621309D01*
X182495238Y-130478452D01*
X182590476Y-130383214D01*
X182685714Y-130335595D01*
X182876190Y-130287976D01*
X183019047Y-130287976D01*
X183209523Y-130335595D01*
X183304761Y-130383214D01*
X183400000Y-130478452D01*
X183447619Y-130621309D01*
X183447619Y-130716547D01*
X183400000Y-130859404D01*
X183352380Y-130907023D01*
X182495238Y-131287976D02*
X182447619Y-131430833D01*
X182447619Y-131668928D01*
X182495238Y-131764166D01*
X182542857Y-131811785D01*
X182638095Y-131859404D01*
X182733333Y-131859404D01*
X182828571Y-131811785D01*
X182876190Y-131764166D01*
X182923809Y-131668928D01*
X182971428Y-131478452D01*
X183019047Y-131383214D01*
X183066666Y-131335595D01*
X183161904Y-131287976D01*
X183257142Y-131287976D01*
X183352380Y-131335595D01*
X183400000Y-131383214D01*
X183447619Y-131478452D01*
X183447619Y-131716547D01*
X183400000Y-131859404D01*
X182971428Y-132287976D02*
X182971428Y-132621309D01*
X182447619Y-132764166D02*
X182447619Y-132287976D01*
X183447619Y-132287976D01*
X183447619Y-132764166D01*
X182447619Y-133192738D02*
X183447619Y-133192738D01*
X183447619Y-133573690D01*
X183400000Y-133668928D01*
X183352380Y-133716547D01*
X183257142Y-133764166D01*
X183114285Y-133764166D01*
X183019047Y-133716547D01*
X182971428Y-133668928D01*
X182923809Y-133573690D01*
X182923809Y-133192738D01*
X183447619Y-134097500D02*
X183447619Y-134716547D01*
X183066666Y-134383214D01*
X183066666Y-134526071D01*
X183019047Y-134621309D01*
X182971428Y-134668928D01*
X182876190Y-134716547D01*
X182638095Y-134716547D01*
X182542857Y-134668928D01*
X182495238Y-134621309D01*
X182447619Y-134526071D01*
X182447619Y-134240357D01*
X182495238Y-134145119D01*
X182542857Y-134097500D01*
X183447619Y-135335595D02*
X183447619Y-135430833D01*
X183400000Y-135526071D01*
X183352380Y-135573690D01*
X183257142Y-135621309D01*
X183066666Y-135668928D01*
X182828571Y-135668928D01*
X182638095Y-135621309D01*
X182542857Y-135573690D01*
X182495238Y-135526071D01*
X182447619Y-135430833D01*
X182447619Y-135335595D01*
X182495238Y-135240357D01*
X182542857Y-135192738D01*
X182638095Y-135145119D01*
X182828571Y-135097500D01*
X183066666Y-135097500D01*
X183257142Y-135145119D01*
X183352380Y-135192738D01*
X183400000Y-135240357D01*
X183447619Y-135335595D01*
X183352380Y-136049880D02*
X183400000Y-136097500D01*
X183447619Y-136192738D01*
X183447619Y-136430833D01*
X183400000Y-136526071D01*
X183352380Y-136573690D01*
X183257142Y-136621309D01*
X183161904Y-136621309D01*
X183019047Y-136573690D01*
X182447619Y-136002261D01*
X182447619Y-136621309D01*
X176257142Y-135742976D02*
X176304761Y-135790595D01*
X176352380Y-135933452D01*
X176352380Y-136028690D01*
X176304761Y-136171547D01*
X176209523Y-136266785D01*
X176114285Y-136314404D01*
X175923809Y-136362023D01*
X175780952Y-136362023D01*
X175590476Y-136314404D01*
X175495238Y-136266785D01*
X175400000Y-136171547D01*
X175352380Y-136028690D01*
X175352380Y-135933452D01*
X175400000Y-135790595D01*
X175447619Y-135742976D01*
X176304761Y-135362023D02*
X176352380Y-135219166D01*
X176352380Y-134981071D01*
X176304761Y-134885833D01*
X176257142Y-134838214D01*
X176161904Y-134790595D01*
X176066666Y-134790595D01*
X175971428Y-134838214D01*
X175923809Y-134885833D01*
X175876190Y-134981071D01*
X175828571Y-135171547D01*
X175780952Y-135266785D01*
X175733333Y-135314404D01*
X175638095Y-135362023D01*
X175542857Y-135362023D01*
X175447619Y-135314404D01*
X175400000Y-135266785D01*
X175352380Y-135171547D01*
X175352380Y-134933452D01*
X175400000Y-134790595D01*
X175828571Y-134362023D02*
X175828571Y-134028690D01*
X176352380Y-133885833D02*
X176352380Y-134362023D01*
X175352380Y-134362023D01*
X175352380Y-133885833D01*
X176352380Y-133457261D02*
X175352380Y-133457261D01*
X175352380Y-133076309D01*
X175400000Y-132981071D01*
X175447619Y-132933452D01*
X175542857Y-132885833D01*
X175685714Y-132885833D01*
X175780952Y-132933452D01*
X175828571Y-132981071D01*
X175876190Y-133076309D01*
X175876190Y-133457261D01*
X175352380Y-132552500D02*
X175352380Y-131933452D01*
X175733333Y-132266785D01*
X175733333Y-132123928D01*
X175780952Y-132028690D01*
X175828571Y-131981071D01*
X175923809Y-131933452D01*
X176161904Y-131933452D01*
X176257142Y-131981071D01*
X176304761Y-132028690D01*
X176352380Y-132123928D01*
X176352380Y-132409642D01*
X176304761Y-132504880D01*
X176257142Y-132552500D01*
X175352380Y-131314404D02*
X175352380Y-131219166D01*
X175400000Y-131123928D01*
X175447619Y-131076309D01*
X175542857Y-131028690D01*
X175733333Y-130981071D01*
X175971428Y-130981071D01*
X176161904Y-131028690D01*
X176257142Y-131076309D01*
X176304761Y-131123928D01*
X176352380Y-131219166D01*
X176352380Y-131314404D01*
X176304761Y-131409642D01*
X176257142Y-131457261D01*
X176161904Y-131504880D01*
X175971428Y-131552500D01*
X175733333Y-131552500D01*
X175542857Y-131504880D01*
X175447619Y-131457261D01*
X175400000Y-131409642D01*
X175352380Y-131314404D01*
X176352380Y-130028690D02*
X176352380Y-130600119D01*
X176352380Y-130314404D02*
X175352380Y-130314404D01*
X175495238Y-130409642D01*
X175590476Y-130504880D01*
X175638095Y-130600119D01*
X166805703Y-124538912D02*
X166472370Y-124062722D01*
X166234275Y-124538912D02*
X166234275Y-123538912D01*
X166615227Y-123538912D01*
X166710465Y-123586532D01*
X166758084Y-123634151D01*
X166805703Y-123729389D01*
X166805703Y-123872246D01*
X166758084Y-123967484D01*
X166710465Y-124015103D01*
X166615227Y-124062722D01*
X166234275Y-124062722D01*
X167567608Y-124015103D02*
X167234275Y-124015103D01*
X167234275Y-124538912D02*
X167234275Y-123538912D01*
X167710465Y-123538912D01*
X168424751Y-124015103D02*
X168567608Y-124062722D01*
X168615227Y-124110341D01*
X168662846Y-124205579D01*
X168662846Y-124348436D01*
X168615227Y-124443674D01*
X168567608Y-124491293D01*
X168472370Y-124538912D01*
X168091418Y-124538912D01*
X168091418Y-123538912D01*
X168424751Y-123538912D01*
X168519989Y-123586532D01*
X168567608Y-123634151D01*
X168615227Y-123729389D01*
X168615227Y-123824627D01*
X168567608Y-123919865D01*
X168519989Y-123967484D01*
X168424751Y-124015103D01*
X168091418Y-124015103D01*
X168996180Y-123538912D02*
X169615227Y-123538912D01*
X169281894Y-123919865D01*
X169424751Y-123919865D01*
X169519989Y-123967484D01*
X169567608Y-124015103D01*
X169615227Y-124110341D01*
X169615227Y-124348436D01*
X169567608Y-124443674D01*
X169519989Y-124491293D01*
X169424751Y-124538912D01*
X169139037Y-124538912D01*
X169043799Y-124491293D01*
X168996180Y-124443674D01*
X170234275Y-123538912D02*
X170329513Y-123538912D01*
X170424751Y-123586532D01*
X170472370Y-123634151D01*
X170519989Y-123729389D01*
X170567608Y-123919865D01*
X170567608Y-124157960D01*
X170519989Y-124348436D01*
X170472370Y-124443674D01*
X170424751Y-124491293D01*
X170329513Y-124538912D01*
X170234275Y-124538912D01*
X170139037Y-124491293D01*
X170091418Y-124443674D01*
X170043799Y-124348436D01*
X169996180Y-124157960D01*
X169996180Y-123919865D01*
X170043799Y-123729389D01*
X170091418Y-123634151D01*
X170139037Y-123586532D01*
X170234275Y-123538912D01*
X170948560Y-123634151D02*
X170996180Y-123586532D01*
X171091418Y-123538912D01*
X171329513Y-123538912D01*
X171424751Y-123586532D01*
X171472370Y-123634151D01*
X171519989Y-123729389D01*
X171519989Y-123824627D01*
X171472370Y-123967484D01*
X170900941Y-124538912D01*
X171519989Y-124538912D01*
X182197619Y-124335595D02*
X183197619Y-124335595D01*
X182483333Y-124668928D01*
X183197619Y-125002261D01*
X182197619Y-125002261D01*
X183197619Y-125383214D02*
X183197619Y-126002261D01*
X182816666Y-125668928D01*
X182816666Y-125811785D01*
X182769047Y-125907023D01*
X182721428Y-125954642D01*
X182626190Y-126002261D01*
X182388095Y-126002261D01*
X182292857Y-125954642D01*
X182245238Y-125907023D01*
X182197619Y-125811785D01*
X182197619Y-125526071D01*
X182245238Y-125430833D01*
X182292857Y-125383214D01*
X183197619Y-126621309D02*
X183197619Y-126716547D01*
X183150000Y-126811785D01*
X183102380Y-126859404D01*
X183007142Y-126907023D01*
X182816666Y-126954642D01*
X182578571Y-126954642D01*
X182388095Y-126907023D01*
X182292857Y-126859404D01*
X182245238Y-126811785D01*
X182197619Y-126716547D01*
X182197619Y-126621309D01*
X182245238Y-126526071D01*
X182292857Y-126478452D01*
X182388095Y-126430833D01*
X182578571Y-126383214D01*
X182816666Y-126383214D01*
X183007142Y-126430833D01*
X183102380Y-126478452D01*
X183150000Y-126526071D01*
X183197619Y-126621309D01*
X182197619Y-127907023D02*
X182197619Y-127335595D01*
X182197619Y-127621309D02*
X183197619Y-127621309D01*
X183054761Y-127526071D01*
X182959523Y-127430833D01*
X182911904Y-127335595D01*
X167809523Y-130102380D02*
X167809523Y-129102380D01*
X168047619Y-129102380D01*
X168190476Y-129150000D01*
X168285714Y-129245238D01*
X168333333Y-129340476D01*
X168380952Y-129530952D01*
X168380952Y-129673809D01*
X168333333Y-129864285D01*
X168285714Y-129959523D01*
X168190476Y-130054761D01*
X168047619Y-130102380D01*
X167809523Y-130102380D01*
X168714285Y-129102380D02*
X169333333Y-129102380D01*
X169000000Y-129483333D01*
X169142857Y-129483333D01*
X169238095Y-129530952D01*
X169285714Y-129578571D01*
X169333333Y-129673809D01*
X169333333Y-129911904D01*
X169285714Y-130007142D01*
X169238095Y-130054761D01*
X169142857Y-130102380D01*
X168857142Y-130102380D01*
X168761904Y-130054761D01*
X168714285Y-130007142D01*
X169952380Y-129102380D02*
X170047619Y-129102380D01*
X170142857Y-129150000D01*
X170190476Y-129197619D01*
X170238095Y-129292857D01*
X170285714Y-129483333D01*
X170285714Y-129721428D01*
X170238095Y-129911904D01*
X170190476Y-130007142D01*
X170142857Y-130054761D01*
X170047619Y-130102380D01*
X169952380Y-130102380D01*
X169857142Y-130054761D01*
X169809523Y-130007142D01*
X169761904Y-129911904D01*
X169714285Y-129721428D01*
X169714285Y-129483333D01*
X169761904Y-129292857D01*
X169809523Y-129197619D01*
X169857142Y-129150000D01*
X169952380Y-129102380D01*
X171238095Y-130102380D02*
X170666666Y-130102380D01*
X170952380Y-130102380D02*
X170952380Y-129102380D01*
X170857142Y-129245238D01*
X170761904Y-129340476D01*
X170666666Y-129388095D01*
X188384394Y-124743674D02*
X188336775Y-124791293D01*
X188193918Y-124838912D01*
X188098680Y-124838912D01*
X187955822Y-124791293D01*
X187860584Y-124696055D01*
X187812965Y-124600817D01*
X187765346Y-124410341D01*
X187765346Y-124267484D01*
X187812965Y-124077008D01*
X187860584Y-123981770D01*
X187955822Y-123886532D01*
X188098680Y-123838912D01*
X188193918Y-123838912D01*
X188336775Y-123886532D01*
X188384394Y-123934151D01*
X188812965Y-124838912D02*
X188812965Y-123838912D01*
X189241537Y-124838912D02*
X189241537Y-124315103D01*
X189193918Y-124219865D01*
X189098680Y-124172246D01*
X188955822Y-124172246D01*
X188860584Y-124219865D01*
X188812965Y-124267484D01*
X190146299Y-124838912D02*
X190146299Y-124315103D01*
X190098680Y-124219865D01*
X190003441Y-124172246D01*
X189812965Y-124172246D01*
X189717727Y-124219865D01*
X190146299Y-124791293D02*
X190051060Y-124838912D01*
X189812965Y-124838912D01*
X189717727Y-124791293D01*
X189670108Y-124696055D01*
X189670108Y-124600817D01*
X189717727Y-124505579D01*
X189812965Y-124457960D01*
X190051060Y-124457960D01*
X190146299Y-124410341D01*
X190622489Y-124838912D02*
X190622489Y-124172246D01*
X190622489Y-124362722D02*
X190670108Y-124267484D01*
X190717727Y-124219865D01*
X190812965Y-124172246D01*
X190908203Y-124172246D01*
X191670108Y-124172246D02*
X191670108Y-124981770D01*
X191622489Y-125077008D01*
X191574870Y-125124627D01*
X191479632Y-125172246D01*
X191336775Y-125172246D01*
X191241537Y-125124627D01*
X191670108Y-124791293D02*
X191574870Y-124838912D01*
X191384394Y-124838912D01*
X191289156Y-124791293D01*
X191241537Y-124743674D01*
X191193918Y-124648436D01*
X191193918Y-124362722D01*
X191241537Y-124267484D01*
X191289156Y-124219865D01*
X191384394Y-124172246D01*
X191574870Y-124172246D01*
X191670108Y-124219865D01*
X192527251Y-124791293D02*
X192432013Y-124838912D01*
X192241537Y-124838912D01*
X192146299Y-124791293D01*
X192098680Y-124696055D01*
X192098680Y-124315103D01*
X192146299Y-124219865D01*
X192241537Y-124172246D01*
X192432013Y-124172246D01*
X192527251Y-124219865D01*
X192574870Y-124315103D01*
X192574870Y-124410341D01*
X192098680Y-124505579D01*
X193003441Y-124838912D02*
X193003441Y-124172246D01*
X193003441Y-124362722D02*
X193051060Y-124267484D01*
X193098680Y-124219865D01*
X193193918Y-124172246D01*
X193289156Y-124172246D01*
X193622489Y-124457960D02*
X194384394Y-124457960D01*
X194003441Y-124838912D02*
X194003441Y-124077008D01*
M02*
