G04 #@! TF.GenerationSoftware,KiCad,Pcbnew,(5.1.5)-3*
G04 #@! TF.CreationDate,2020-06-29T02:19:28-04:00*
G04 #@! TF.ProjectId,PowerBoth,506f7765-7242-46f7-9468-2e6b69636164,rev?*
G04 #@! TF.SameCoordinates,Original*
G04 #@! TF.FileFunction,Soldermask,Bot*
G04 #@! TF.FilePolarity,Negative*
%FSLAX46Y46*%
G04 Gerber Fmt 4.6, Leading zero omitted, Abs format (unit mm)*
G04 Created by KiCad (PCBNEW (5.1.5)-3) date 2020-06-29 02:19:28*
%MOMM*%
%LPD*%
G04 APERTURE LIST*
%ADD10C,0.500000*%
%ADD11C,0.100000*%
G04 APERTURE END LIST*
D10*
X273000000Y-144500000D02*
G75*
G02X272250000Y-143750000I0J750000D01*
G01*
X273750000Y-143750000D02*
G75*
G02X273000000Y-144500000I-750000J0D01*
G01*
X273000000Y-143000000D02*
G75*
G02X273750000Y-143750000I0J-750000D01*
G01*
X272250000Y-143750000D02*
G75*
G02X273000000Y-143000000I750000J0D01*
G01*
X272250000Y-125500000D02*
G75*
G02X273000000Y-124750000I750000J0D01*
G01*
X273000000Y-124750000D02*
G75*
G02X273750000Y-125500000I0J-750000D01*
G01*
X273750000Y-125500000D02*
G75*
G02X273000000Y-126250000I-750000J0D01*
G01*
X273000000Y-126250000D02*
G75*
G02X272250000Y-125500000I0J750000D01*
G01*
X140750000Y-133750000D02*
G75*
G02X140000000Y-133000000I0J750000D01*
G01*
X141500000Y-133000000D02*
G75*
G02X140750000Y-133750000I-750000J0D01*
G01*
X140750000Y-132250000D02*
G75*
G02X141500000Y-133000000I0J-750000D01*
G01*
X140000000Y-133000000D02*
G75*
G02X140750000Y-132250000I750000J0D01*
G01*
D11*
G36*
X263730191Y-141547499D02*
G01*
X263792728Y-141566470D01*
X263855263Y-141585439D01*
X263855265Y-141585440D01*
X263970527Y-141647049D01*
X264071561Y-141729964D01*
X264154475Y-141830996D01*
X264216084Y-141946258D01*
X264254025Y-142071332D01*
X264263625Y-142168804D01*
X264263625Y-143333994D01*
X264254025Y-143431469D01*
X264247116Y-143454243D01*
X264242335Y-143478276D01*
X264242335Y-143502780D01*
X264247115Y-143526814D01*
X264256492Y-143549452D01*
X264270106Y-143569827D01*
X264287433Y-143587154D01*
X264307807Y-143600768D01*
X264330446Y-143610145D01*
X264354479Y-143614926D01*
X264378983Y-143614926D01*
X264403017Y-143610146D01*
X264425655Y-143600769D01*
X264446030Y-143587155D01*
X264463357Y-143569828D01*
X264470665Y-143559975D01*
X264472960Y-143556540D01*
X264567122Y-143415616D01*
X264734407Y-143248331D01*
X264931113Y-143116897D01*
X264931115Y-143116896D01*
X265149682Y-143026362D01*
X265381710Y-142980209D01*
X265618290Y-142980209D01*
X265850318Y-143026362D01*
X266068885Y-143116896D01*
X266068887Y-143116897D01*
X266265593Y-143248331D01*
X266432878Y-143415616D01*
X266562857Y-143610145D01*
X266564313Y-143612324D01*
X266654847Y-143830891D01*
X266701000Y-144062919D01*
X266701000Y-144299499D01*
X266654847Y-144531527D01*
X266569043Y-144738674D01*
X266564312Y-144750096D01*
X266432878Y-144946802D01*
X266265593Y-145114087D01*
X266068887Y-145245521D01*
X266068886Y-145245522D01*
X266068885Y-145245522D01*
X265850318Y-145336056D01*
X265618290Y-145382209D01*
X265381710Y-145382209D01*
X265149682Y-145336056D01*
X264931115Y-145245522D01*
X264931114Y-145245522D01*
X264931113Y-145245521D01*
X264734407Y-145114087D01*
X264567122Y-144946802D01*
X264435688Y-144750096D01*
X264430957Y-144738674D01*
X264345153Y-144531527D01*
X264299000Y-144299499D01*
X264299000Y-144062919D01*
X264345154Y-143830888D01*
X264350037Y-143819098D01*
X264357150Y-143795649D01*
X264359552Y-143771263D01*
X264357150Y-143746877D01*
X264350037Y-143723428D01*
X264338485Y-143701817D01*
X264322940Y-143682876D01*
X264303998Y-143667330D01*
X264282387Y-143655780D01*
X264258938Y-143648667D01*
X264234552Y-143646265D01*
X264210166Y-143648667D01*
X264186717Y-143655780D01*
X264165106Y-143667332D01*
X264137927Y-143691966D01*
X264071561Y-143772835D01*
X263970528Y-143855749D01*
X263855266Y-143917358D01*
X263855264Y-143917359D01*
X263792729Y-143936328D01*
X263730192Y-143955299D01*
X263600125Y-143968109D01*
X263470059Y-143955299D01*
X263407522Y-143936328D01*
X263344987Y-143917359D01*
X263344985Y-143917358D01*
X263229723Y-143855749D01*
X263128690Y-143772835D01*
X263045776Y-143671802D01*
X262984167Y-143556540D01*
X262978982Y-143539446D01*
X262960426Y-143478276D01*
X262946226Y-143431466D01*
X262936626Y-143333994D01*
X262936625Y-142168805D01*
X262946225Y-142071333D01*
X262984166Y-141946259D01*
X263045775Y-141830997D01*
X263128690Y-141729963D01*
X263229722Y-141647049D01*
X263344984Y-141585440D01*
X263344986Y-141585439D01*
X263407521Y-141566470D01*
X263470058Y-141547499D01*
X263600125Y-141534689D01*
X263730191Y-141547499D01*
G37*
G36*
X190701000Y-145001000D02*
G01*
X188299000Y-145001000D01*
X188299000Y-141399000D01*
X190701000Y-141399000D01*
X190701000Y-145001000D01*
G37*
G36*
X174588674Y-143653465D02*
G01*
X174626367Y-143664899D01*
X174661103Y-143683466D01*
X174691548Y-143708452D01*
X174716534Y-143738897D01*
X174735101Y-143773633D01*
X174746535Y-143811326D01*
X174751000Y-143856661D01*
X174751000Y-144693339D01*
X174746535Y-144738674D01*
X174735101Y-144776367D01*
X174716534Y-144811103D01*
X174691548Y-144841548D01*
X174661103Y-144866534D01*
X174626367Y-144885101D01*
X174588674Y-144896535D01*
X174543339Y-144901000D01*
X173456661Y-144901000D01*
X173411326Y-144896535D01*
X173373633Y-144885101D01*
X173338897Y-144866534D01*
X173308452Y-144841548D01*
X173283466Y-144811103D01*
X173264899Y-144776367D01*
X173253465Y-144738674D01*
X173249000Y-144693339D01*
X173249000Y-143856661D01*
X173253465Y-143811326D01*
X173264899Y-143773633D01*
X173283466Y-143738897D01*
X173308452Y-143708452D01*
X173338897Y-143683466D01*
X173373633Y-143664899D01*
X173411326Y-143653465D01*
X173456661Y-143649000D01*
X174543339Y-143649000D01*
X174588674Y-143653465D01*
G37*
G36*
X172588674Y-143653465D02*
G01*
X172626367Y-143664899D01*
X172661103Y-143683466D01*
X172691548Y-143708452D01*
X172716534Y-143738897D01*
X172735101Y-143773633D01*
X172746535Y-143811326D01*
X172751000Y-143856661D01*
X172751000Y-144693339D01*
X172746535Y-144738674D01*
X172735101Y-144776367D01*
X172716534Y-144811103D01*
X172691548Y-144841548D01*
X172661103Y-144866534D01*
X172626367Y-144885101D01*
X172588674Y-144896535D01*
X172543339Y-144901000D01*
X171456661Y-144901000D01*
X171411326Y-144896535D01*
X171373633Y-144885101D01*
X171338897Y-144866534D01*
X171308452Y-144841548D01*
X171283466Y-144811103D01*
X171264899Y-144776367D01*
X171253465Y-144738674D01*
X171249000Y-144693339D01*
X171249000Y-143856661D01*
X171253465Y-143811326D01*
X171264899Y-143773633D01*
X171283466Y-143738897D01*
X171308452Y-143708452D01*
X171338897Y-143683466D01*
X171373633Y-143664899D01*
X171411326Y-143653465D01*
X171456661Y-143649000D01*
X172543339Y-143649000D01*
X172588674Y-143653465D01*
G37*
G36*
X273107457Y-143209782D02*
G01*
X273210783Y-143241126D01*
X273306009Y-143292026D01*
X273389475Y-143360525D01*
X273457974Y-143443991D01*
X273508874Y-143539217D01*
X273540218Y-143642543D01*
X273550801Y-143749999D01*
X273550801Y-143750001D01*
X273540218Y-143857457D01*
X273508874Y-143960783D01*
X273457974Y-144056009D01*
X273389475Y-144139475D01*
X273306009Y-144207974D01*
X273210783Y-144258874D01*
X273107457Y-144290218D01*
X273000001Y-144300801D01*
X272999999Y-144300801D01*
X272892543Y-144290218D01*
X272789217Y-144258874D01*
X272693991Y-144207974D01*
X272610525Y-144139475D01*
X272542026Y-144056009D01*
X272491126Y-143960783D01*
X272459782Y-143857457D01*
X272449199Y-143750001D01*
X272449199Y-143749999D01*
X272459782Y-143642543D01*
X272491126Y-143539217D01*
X272542026Y-143443991D01*
X272610525Y-143360525D01*
X272693991Y-143292026D01*
X272789217Y-143241126D01*
X272892543Y-143209782D01*
X272999999Y-143199199D01*
X273000001Y-143199199D01*
X273107457Y-143209782D01*
G37*
G36*
X253830191Y-141547499D02*
G01*
X253892728Y-141566470D01*
X253955263Y-141585439D01*
X253955265Y-141585440D01*
X254070527Y-141647049D01*
X254171561Y-141729964D01*
X254254475Y-141830996D01*
X254316084Y-141946258D01*
X254354025Y-142071332D01*
X254363625Y-142168804D01*
X254363625Y-143333994D01*
X254354025Y-143431466D01*
X254339825Y-143478276D01*
X254321270Y-143539446D01*
X254316084Y-143556540D01*
X254254475Y-143671802D01*
X254171561Y-143772835D01*
X254070528Y-143855749D01*
X253955266Y-143917358D01*
X253955264Y-143917359D01*
X253892729Y-143936328D01*
X253830192Y-143955299D01*
X253700125Y-143968109D01*
X253570059Y-143955299D01*
X253507522Y-143936328D01*
X253444987Y-143917359D01*
X253444985Y-143917358D01*
X253329723Y-143855749D01*
X253228690Y-143772835D01*
X253145776Y-143671802D01*
X253084167Y-143556540D01*
X253078982Y-143539446D01*
X253060426Y-143478276D01*
X253046226Y-143431466D01*
X253036626Y-143333994D01*
X253036625Y-142168805D01*
X253046225Y-142071333D01*
X253084166Y-141946259D01*
X253145775Y-141830997D01*
X253228690Y-141729963D01*
X253329722Y-141647049D01*
X253444984Y-141585440D01*
X253444986Y-141585439D01*
X253507521Y-141566470D01*
X253570058Y-141547499D01*
X253700125Y-141534689D01*
X253830191Y-141547499D01*
G37*
G36*
X148923060Y-143158501D02*
G01*
X147676060Y-143158501D01*
X147676060Y-141201501D01*
X148923060Y-141201501D01*
X148923060Y-143158501D01*
G37*
G36*
X150923060Y-143158501D02*
G01*
X149676060Y-143158501D01*
X149676060Y-141201501D01*
X150923060Y-141201501D01*
X150923060Y-143158501D01*
G37*
G36*
X152923060Y-143158501D02*
G01*
X151676060Y-143158501D01*
X151676060Y-141201501D01*
X152923060Y-141201501D01*
X152923060Y-143158501D01*
G37*
G36*
X160923060Y-143158501D02*
G01*
X159676060Y-143158501D01*
X159676060Y-141201501D01*
X160923060Y-141201501D01*
X160923060Y-143158501D01*
G37*
G36*
X166923060Y-143158501D02*
G01*
X165676060Y-143158501D01*
X165676060Y-141201501D01*
X166923060Y-141201501D01*
X166923060Y-143158501D01*
G37*
G36*
X156923060Y-143158501D02*
G01*
X155676060Y-143158501D01*
X155676060Y-141201501D01*
X156923060Y-141201501D01*
X156923060Y-143158501D01*
G37*
G36*
X164923060Y-143158501D02*
G01*
X163676060Y-143158501D01*
X163676060Y-141201501D01*
X164923060Y-141201501D01*
X164923060Y-143158501D01*
G37*
G36*
X158923060Y-143158501D02*
G01*
X157676060Y-143158501D01*
X157676060Y-141201501D01*
X158923060Y-141201501D01*
X158923060Y-143158501D01*
G37*
G36*
X154923060Y-143158501D02*
G01*
X153676060Y-143158501D01*
X153676060Y-141201501D01*
X154923060Y-141201501D01*
X154923060Y-143158501D01*
G37*
G36*
X162923060Y-143158501D02*
G01*
X161676060Y-143158501D01*
X161676060Y-141201501D01*
X162923060Y-141201501D01*
X162923060Y-143158501D01*
G37*
G36*
X257779612Y-140500395D02*
G01*
X257990145Y-140587601D01*
X258016380Y-140598468D01*
X258124933Y-140671001D01*
X258229464Y-140740846D01*
X258410678Y-140922060D01*
X258553057Y-141135146D01*
X258651129Y-141371912D01*
X258701125Y-141623260D01*
X258701125Y-141879538D01*
X258651129Y-142130886D01*
X258553057Y-142367652D01*
X258553056Y-142367654D01*
X258410678Y-142580738D01*
X258229464Y-142761952D01*
X258016380Y-142904330D01*
X258016379Y-142904331D01*
X258016378Y-142904331D01*
X257779612Y-143002403D01*
X257528264Y-143052399D01*
X257271986Y-143052399D01*
X257020638Y-143002403D01*
X256783872Y-142904331D01*
X256783871Y-142904331D01*
X256783870Y-142904330D01*
X256570786Y-142761952D01*
X256389572Y-142580738D01*
X256247194Y-142367654D01*
X256247193Y-142367652D01*
X256149121Y-142130886D01*
X256099125Y-141879538D01*
X256099125Y-141623260D01*
X256149121Y-141371912D01*
X256247193Y-141135146D01*
X256389572Y-140922060D01*
X256570786Y-140740846D01*
X256675317Y-140671001D01*
X256783870Y-140598468D01*
X256810105Y-140587601D01*
X257020638Y-140500395D01*
X257271986Y-140450399D01*
X257528264Y-140450399D01*
X257779612Y-140500395D01*
G37*
G36*
X172588674Y-141603465D02*
G01*
X172626367Y-141614899D01*
X172661103Y-141633466D01*
X172691548Y-141658452D01*
X172716534Y-141688897D01*
X172735101Y-141723633D01*
X172746535Y-141761326D01*
X172751000Y-141806661D01*
X172751000Y-142643339D01*
X172746535Y-142688674D01*
X172735101Y-142726367D01*
X172716534Y-142761103D01*
X172691548Y-142791548D01*
X172661103Y-142816534D01*
X172626367Y-142835101D01*
X172588674Y-142846535D01*
X172543339Y-142851000D01*
X171456661Y-142851000D01*
X171411326Y-142846535D01*
X171373633Y-142835101D01*
X171338897Y-142816534D01*
X171308452Y-142791548D01*
X171283466Y-142761103D01*
X171264899Y-142726367D01*
X171253465Y-142688674D01*
X171249000Y-142643339D01*
X171249000Y-141806661D01*
X171253465Y-141761326D01*
X171264899Y-141723633D01*
X171283466Y-141688897D01*
X171308452Y-141658452D01*
X171338897Y-141633466D01*
X171373633Y-141614899D01*
X171411326Y-141603465D01*
X171456661Y-141599000D01*
X172543339Y-141599000D01*
X172588674Y-141603465D01*
G37*
G36*
X174588674Y-141603465D02*
G01*
X174626367Y-141614899D01*
X174661103Y-141633466D01*
X174691548Y-141658452D01*
X174716534Y-141688897D01*
X174735101Y-141723633D01*
X174746535Y-141761326D01*
X174751000Y-141806661D01*
X174751000Y-142643339D01*
X174746535Y-142688674D01*
X174735101Y-142726367D01*
X174716534Y-142761103D01*
X174691548Y-142791548D01*
X174661103Y-142816534D01*
X174626367Y-142835101D01*
X174588674Y-142846535D01*
X174543339Y-142851000D01*
X173456661Y-142851000D01*
X173411326Y-142846535D01*
X173373633Y-142835101D01*
X173338897Y-142816534D01*
X173308452Y-142791548D01*
X173283466Y-142761103D01*
X173264899Y-142726367D01*
X173253465Y-142688674D01*
X173249000Y-142643339D01*
X173249000Y-141806661D01*
X173253465Y-141761326D01*
X173264899Y-141723633D01*
X173283466Y-141688897D01*
X173308452Y-141658452D01*
X173338897Y-141633466D01*
X173373633Y-141614899D01*
X173411326Y-141603465D01*
X173456661Y-141599000D01*
X174543339Y-141599000D01*
X174588674Y-141603465D01*
G37*
G36*
X265953055Y-140534072D02*
G01*
X266031507Y-140541799D01*
X266132166Y-140572334D01*
X266182497Y-140587601D01*
X266321649Y-140661980D01*
X266443617Y-140762076D01*
X266543713Y-140884044D01*
X266618092Y-141023196D01*
X266618092Y-141023197D01*
X266663894Y-141174186D01*
X266679359Y-141331209D01*
X266663894Y-141488232D01*
X266645915Y-141547500D01*
X266618092Y-141639222D01*
X266543713Y-141778374D01*
X266443617Y-141900342D01*
X266321649Y-142000438D01*
X266182497Y-142074817D01*
X266132166Y-142090084D01*
X266031507Y-142120619D01*
X265953055Y-142128346D01*
X265913830Y-142132209D01*
X265310654Y-142132209D01*
X265271429Y-142128346D01*
X265192977Y-142120619D01*
X265092318Y-142090084D01*
X265041987Y-142074817D01*
X264902835Y-142000438D01*
X264780867Y-141900342D01*
X264680771Y-141778374D01*
X264606392Y-141639222D01*
X264578569Y-141547500D01*
X264560590Y-141488232D01*
X264545125Y-141331209D01*
X264560590Y-141174186D01*
X264606392Y-141023197D01*
X264606392Y-141023196D01*
X264680771Y-140884044D01*
X264780867Y-140762076D01*
X264902835Y-140661980D01*
X265041987Y-140587601D01*
X265092318Y-140572334D01*
X265192977Y-140541799D01*
X265271429Y-140534072D01*
X265310654Y-140530209D01*
X265913830Y-140530209D01*
X265953055Y-140534072D01*
G37*
G36*
X186801000Y-142101000D02*
G01*
X183999000Y-142101000D01*
X183999000Y-138399000D01*
X186801000Y-138399000D01*
X186801000Y-142101000D01*
G37*
G36*
X178501000Y-142101000D02*
G01*
X175699000Y-142101000D01*
X175699000Y-138399000D01*
X178501000Y-138399000D01*
X178501000Y-142101000D01*
G37*
G36*
X268499915Y-141382209D02*
G01*
X267172915Y-141382209D01*
X267172915Y-140055209D01*
X268499915Y-140055209D01*
X268499915Y-141382209D01*
G37*
G36*
X149430081Y-139382209D02*
G01*
X149489450Y-139394018D01*
X149607924Y-139443092D01*
X149714548Y-139514336D01*
X149805225Y-139605013D01*
X149876469Y-139711637D01*
X149925543Y-139830111D01*
X149950560Y-139955883D01*
X149950560Y-140084119D01*
X149925543Y-140209891D01*
X149876469Y-140328365D01*
X149805225Y-140434989D01*
X149714548Y-140525666D01*
X149607924Y-140596910D01*
X149607923Y-140596911D01*
X149607922Y-140596911D01*
X149489450Y-140645984D01*
X149363679Y-140671001D01*
X149235441Y-140671001D01*
X149109670Y-140645984D01*
X148991198Y-140596911D01*
X148991197Y-140596911D01*
X148991196Y-140596910D01*
X148884572Y-140525666D01*
X148793895Y-140434989D01*
X148722651Y-140328365D01*
X148673577Y-140209891D01*
X148648560Y-140084119D01*
X148648560Y-139955883D01*
X148673577Y-139830111D01*
X148722651Y-139711637D01*
X148793895Y-139605013D01*
X148884572Y-139514336D01*
X148991196Y-139443092D01*
X149109670Y-139394018D01*
X149169039Y-139382209D01*
X149235441Y-139369001D01*
X149363679Y-139369001D01*
X149430081Y-139382209D01*
G37*
G36*
X165430081Y-139382209D02*
G01*
X165489450Y-139394018D01*
X165607924Y-139443092D01*
X165714548Y-139514336D01*
X165805225Y-139605013D01*
X165876469Y-139711637D01*
X165925543Y-139830111D01*
X165950560Y-139955883D01*
X165950560Y-140084119D01*
X165925543Y-140209891D01*
X165876469Y-140328365D01*
X165805225Y-140434989D01*
X165714548Y-140525666D01*
X165607924Y-140596910D01*
X165607923Y-140596911D01*
X165607922Y-140596911D01*
X165489450Y-140645984D01*
X165363679Y-140671001D01*
X165235441Y-140671001D01*
X165109670Y-140645984D01*
X164991198Y-140596911D01*
X164991197Y-140596911D01*
X164991196Y-140596910D01*
X164884572Y-140525666D01*
X164793895Y-140434989D01*
X164722651Y-140328365D01*
X164673577Y-140209891D01*
X164648560Y-140084119D01*
X164648560Y-139955883D01*
X164673577Y-139830111D01*
X164722651Y-139711637D01*
X164793895Y-139605013D01*
X164884572Y-139514336D01*
X164991196Y-139443092D01*
X165109670Y-139394018D01*
X165169039Y-139382209D01*
X165235441Y-139369001D01*
X165363679Y-139369001D01*
X165430081Y-139382209D01*
G37*
G36*
X190701000Y-139601000D02*
G01*
X188299000Y-139601000D01*
X188299000Y-135999000D01*
X190701000Y-135999000D01*
X190701000Y-139601000D01*
G37*
G36*
X267965857Y-138067958D02*
G01*
X268029951Y-138080707D01*
X268150700Y-138130723D01*
X268259371Y-138203335D01*
X268351789Y-138295753D01*
X268424401Y-138404424D01*
X268474417Y-138525173D01*
X268499915Y-138653360D01*
X268499915Y-138784058D01*
X268474417Y-138912245D01*
X268424401Y-139032994D01*
X268351789Y-139141665D01*
X268259371Y-139234083D01*
X268150700Y-139306695D01*
X268029951Y-139356711D01*
X267968165Y-139369001D01*
X267901765Y-139382209D01*
X267771065Y-139382209D01*
X267704665Y-139369001D01*
X267642879Y-139356711D01*
X267522130Y-139306695D01*
X267413459Y-139234083D01*
X267321041Y-139141665D01*
X267248429Y-139032994D01*
X267198413Y-138912245D01*
X267172915Y-138784058D01*
X267172915Y-138653360D01*
X267198413Y-138525173D01*
X267248429Y-138404424D01*
X267321041Y-138295753D01*
X267413459Y-138203335D01*
X267522130Y-138130723D01*
X267642879Y-138080707D01*
X267706973Y-138067958D01*
X267771065Y-138055209D01*
X267901765Y-138055209D01*
X267965857Y-138067958D01*
G37*
G36*
X148923060Y-138838501D02*
G01*
X147676060Y-138838501D01*
X147676060Y-136881501D01*
X148923060Y-136881501D01*
X148923060Y-138838501D01*
G37*
G36*
X164923060Y-138838501D02*
G01*
X163676060Y-138838501D01*
X163676060Y-136881501D01*
X164923060Y-136881501D01*
X164923060Y-138838501D01*
G37*
G36*
X162923060Y-138838501D02*
G01*
X161676060Y-138838501D01*
X161676060Y-136881501D01*
X162923060Y-136881501D01*
X162923060Y-138838501D01*
G37*
G36*
X160923060Y-138838501D02*
G01*
X159676060Y-138838501D01*
X159676060Y-136881501D01*
X160923060Y-136881501D01*
X160923060Y-138838501D01*
G37*
G36*
X158923060Y-138838501D02*
G01*
X157676060Y-138838501D01*
X157676060Y-136881501D01*
X158923060Y-136881501D01*
X158923060Y-138838501D01*
G37*
G36*
X154923060Y-138838501D02*
G01*
X153676060Y-138838501D01*
X153676060Y-136881501D01*
X154923060Y-136881501D01*
X154923060Y-138838501D01*
G37*
G36*
X152923060Y-138838501D02*
G01*
X151676060Y-138838501D01*
X151676060Y-136881501D01*
X152923060Y-136881501D01*
X152923060Y-138838501D01*
G37*
G36*
X150923060Y-138838501D02*
G01*
X149676060Y-138838501D01*
X149676060Y-136881501D01*
X150923060Y-136881501D01*
X150923060Y-138838501D01*
G37*
G36*
X166923060Y-138838501D02*
G01*
X165676060Y-138838501D01*
X165676060Y-136881501D01*
X166923060Y-136881501D01*
X166923060Y-138838501D01*
G37*
G36*
X156923060Y-138838501D02*
G01*
X155676060Y-138838501D01*
X155676060Y-136881501D01*
X156923060Y-136881501D01*
X156923060Y-138838501D01*
G37*
G36*
X267965857Y-136067958D02*
G01*
X268029951Y-136080707D01*
X268150700Y-136130723D01*
X268259371Y-136203335D01*
X268351789Y-136295753D01*
X268424401Y-136404424D01*
X268474417Y-136525173D01*
X268499915Y-136653360D01*
X268499915Y-136784058D01*
X268474417Y-136912245D01*
X268424401Y-137032994D01*
X268351789Y-137141665D01*
X268259371Y-137234083D01*
X268150700Y-137306695D01*
X268029951Y-137356711D01*
X267965857Y-137369460D01*
X267901765Y-137382209D01*
X267771065Y-137382209D01*
X267706973Y-137369460D01*
X267642879Y-137356711D01*
X267522130Y-137306695D01*
X267413459Y-137234083D01*
X267321041Y-137141665D01*
X267248429Y-137032994D01*
X267198413Y-136912245D01*
X267172915Y-136784058D01*
X267172915Y-136653360D01*
X267198413Y-136525173D01*
X267248429Y-136404424D01*
X267321041Y-136295753D01*
X267413459Y-136203335D01*
X267522130Y-136130723D01*
X267642879Y-136080707D01*
X267706973Y-136067958D01*
X267771065Y-136055209D01*
X267901765Y-136055209D01*
X267965857Y-136067958D01*
G37*
G36*
X262845300Y-134248262D02*
G01*
X262859599Y-134249670D01*
X262936271Y-134272929D01*
X263012943Y-134296187D01*
X263154267Y-134371726D01*
X263278140Y-134473384D01*
X263379798Y-134597256D01*
X263455337Y-134738580D01*
X263469133Y-134784058D01*
X263500081Y-134886078D01*
X263501854Y-134891925D01*
X263513625Y-135011437D01*
X263513625Y-135891361D01*
X263506803Y-135960624D01*
X263502242Y-136006939D01*
X263501854Y-136010873D01*
X263455337Y-136164218D01*
X263379798Y-136305542D01*
X263278140Y-136429414D01*
X263154268Y-136531072D01*
X263012944Y-136606611D01*
X262936271Y-136629870D01*
X262859600Y-136653128D01*
X262845301Y-136654536D01*
X262700125Y-136668835D01*
X262542997Y-136653359D01*
X262540651Y-136653128D01*
X262463980Y-136629870D01*
X262387307Y-136606611D01*
X262245983Y-136531072D01*
X262122111Y-136429414D01*
X262020453Y-136305542D01*
X261944914Y-136164218D01*
X261898397Y-136010873D01*
X261897228Y-135999000D01*
X261894919Y-135975562D01*
X261886625Y-135891361D01*
X261886625Y-135011438D01*
X261898396Y-134891926D01*
X261898397Y-134891924D01*
X261942500Y-134746535D01*
X261944913Y-134738581D01*
X262020452Y-134597257D01*
X262122110Y-134473384D01*
X262245982Y-134371726D01*
X262387306Y-134296187D01*
X262463978Y-134272929D01*
X262540650Y-134249670D01*
X262554949Y-134248262D01*
X262700125Y-134233963D01*
X262845300Y-134248262D01*
G37*
G36*
X257645300Y-134248262D02*
G01*
X257659599Y-134249670D01*
X257736271Y-134272929D01*
X257812943Y-134296187D01*
X257954267Y-134371726D01*
X258078140Y-134473384D01*
X258179798Y-134597256D01*
X258255337Y-134738580D01*
X258269133Y-134784058D01*
X258300081Y-134886078D01*
X258301854Y-134891925D01*
X258313625Y-135011437D01*
X258313625Y-135891361D01*
X258306803Y-135960624D01*
X258302242Y-136006939D01*
X258301854Y-136010873D01*
X258255337Y-136164218D01*
X258179798Y-136305542D01*
X258078140Y-136429414D01*
X257954268Y-136531072D01*
X257812944Y-136606611D01*
X257736271Y-136629870D01*
X257659600Y-136653128D01*
X257645301Y-136654536D01*
X257500125Y-136668835D01*
X257342997Y-136653359D01*
X257340651Y-136653128D01*
X257263980Y-136629870D01*
X257187307Y-136606611D01*
X257045983Y-136531072D01*
X256922111Y-136429414D01*
X256820453Y-136305542D01*
X256744914Y-136164218D01*
X256698397Y-136010873D01*
X256697228Y-135999000D01*
X256694919Y-135975562D01*
X256686625Y-135891361D01*
X256686625Y-135011438D01*
X256698396Y-134891926D01*
X256698397Y-134891924D01*
X256742500Y-134746535D01*
X256744913Y-134738581D01*
X256820452Y-134597257D01*
X256922110Y-134473384D01*
X257045982Y-134371726D01*
X257187306Y-134296187D01*
X257263978Y-134272929D01*
X257340650Y-134249670D01*
X257354949Y-134248262D01*
X257500125Y-134233963D01*
X257645300Y-134248262D01*
G37*
G36*
X254245300Y-134248262D02*
G01*
X254259599Y-134249670D01*
X254336271Y-134272929D01*
X254412943Y-134296187D01*
X254554267Y-134371726D01*
X254678140Y-134473384D01*
X254779798Y-134597256D01*
X254855337Y-134738580D01*
X254869133Y-134784058D01*
X254900081Y-134886078D01*
X254901854Y-134891925D01*
X254913625Y-135011437D01*
X254913625Y-135891361D01*
X254906803Y-135960624D01*
X254902242Y-136006939D01*
X254901854Y-136010873D01*
X254855337Y-136164218D01*
X254779798Y-136305542D01*
X254678140Y-136429414D01*
X254554268Y-136531072D01*
X254412944Y-136606611D01*
X254336271Y-136629870D01*
X254259600Y-136653128D01*
X254245301Y-136654536D01*
X254100125Y-136668835D01*
X253942997Y-136653359D01*
X253940651Y-136653128D01*
X253863980Y-136629870D01*
X253787307Y-136606611D01*
X253645983Y-136531072D01*
X253522111Y-136429414D01*
X253420453Y-136305542D01*
X253344914Y-136164218D01*
X253298397Y-136010873D01*
X253297228Y-135999000D01*
X253294919Y-135975562D01*
X253286625Y-135891361D01*
X253286625Y-135011438D01*
X253298396Y-134891926D01*
X253298397Y-134891924D01*
X253342500Y-134746535D01*
X253344913Y-134738581D01*
X253420452Y-134597257D01*
X253522110Y-134473384D01*
X253645982Y-134371726D01*
X253787306Y-134296187D01*
X253863978Y-134272929D01*
X253940650Y-134249670D01*
X253954949Y-134248262D01*
X254100125Y-134233963D01*
X254245300Y-134248262D01*
G37*
G36*
X157125562Y-133378181D02*
G01*
X157160481Y-133388774D01*
X157192663Y-133405976D01*
X157220873Y-133429127D01*
X157244024Y-133457337D01*
X157261226Y-133489519D01*
X157271819Y-133524438D01*
X157276000Y-133566895D01*
X157276000Y-135933105D01*
X157271819Y-135975562D01*
X157261226Y-136010481D01*
X157244024Y-136042663D01*
X157220873Y-136070873D01*
X157192663Y-136094024D01*
X157160481Y-136111226D01*
X157125562Y-136121819D01*
X157083105Y-136126000D01*
X155941895Y-136126000D01*
X155899438Y-136121819D01*
X155864519Y-136111226D01*
X155832337Y-136094024D01*
X155804127Y-136070873D01*
X155780976Y-136042663D01*
X155763774Y-136010481D01*
X155753181Y-135975562D01*
X155749000Y-135933105D01*
X155749000Y-133566895D01*
X155753181Y-133524438D01*
X155763774Y-133489519D01*
X155780976Y-133457337D01*
X155804127Y-133429127D01*
X155832337Y-133405976D01*
X155864519Y-133388774D01*
X155899438Y-133378181D01*
X155941895Y-133374000D01*
X157083105Y-133374000D01*
X157125562Y-133378181D01*
G37*
G36*
X160100562Y-133378181D02*
G01*
X160135481Y-133388774D01*
X160167663Y-133405976D01*
X160195873Y-133429127D01*
X160219024Y-133457337D01*
X160236226Y-133489519D01*
X160246819Y-133524438D01*
X160251000Y-133566895D01*
X160251000Y-135933105D01*
X160246819Y-135975562D01*
X160236226Y-136010481D01*
X160219024Y-136042663D01*
X160195873Y-136070873D01*
X160167663Y-136094024D01*
X160135481Y-136111226D01*
X160100562Y-136121819D01*
X160058105Y-136126000D01*
X158916895Y-136126000D01*
X158874438Y-136121819D01*
X158839519Y-136111226D01*
X158807337Y-136094024D01*
X158779127Y-136070873D01*
X158755976Y-136042663D01*
X158738774Y-136010481D01*
X158728181Y-135975562D01*
X158724000Y-135933105D01*
X158724000Y-133566895D01*
X158728181Y-133524438D01*
X158738774Y-133489519D01*
X158755976Y-133457337D01*
X158779127Y-133429127D01*
X158807337Y-133405976D01*
X158839519Y-133388774D01*
X158874438Y-133378181D01*
X158916895Y-133374000D01*
X160058105Y-133374000D01*
X160100562Y-133378181D01*
G37*
G36*
X136748228Y-133983965D02*
G01*
X136903100Y-134048115D01*
X137042481Y-134141247D01*
X137161015Y-134259781D01*
X137254147Y-134399162D01*
X137318297Y-134554034D01*
X137351000Y-134718446D01*
X137351000Y-134886078D01*
X137318297Y-135050490D01*
X137254147Y-135205362D01*
X137161015Y-135344743D01*
X137042481Y-135463277D01*
X136903100Y-135556409D01*
X136748228Y-135620559D01*
X136583816Y-135653262D01*
X136416184Y-135653262D01*
X136251772Y-135620559D01*
X136096900Y-135556409D01*
X135957519Y-135463277D01*
X135838985Y-135344743D01*
X135745853Y-135205362D01*
X135681703Y-135050490D01*
X135649000Y-134886078D01*
X135649000Y-134718446D01*
X135681703Y-134554034D01*
X135745853Y-134399162D01*
X135838985Y-134259781D01*
X135957519Y-134141247D01*
X136096900Y-134048115D01*
X136251772Y-133983965D01*
X136416184Y-133951262D01*
X136583816Y-133951262D01*
X136748228Y-133983965D01*
G37*
G36*
X172938674Y-134003465D02*
G01*
X172976367Y-134014899D01*
X173011103Y-134033466D01*
X173041548Y-134058452D01*
X173066534Y-134088897D01*
X173085101Y-134123633D01*
X173096535Y-134161326D01*
X173101000Y-134206661D01*
X173101000Y-135293339D01*
X173096535Y-135338674D01*
X173085101Y-135376367D01*
X173066534Y-135411103D01*
X173041548Y-135441548D01*
X173011103Y-135466534D01*
X172976367Y-135485101D01*
X172938674Y-135496535D01*
X172893339Y-135501000D01*
X172056661Y-135501000D01*
X172011326Y-135496535D01*
X171973633Y-135485101D01*
X171938897Y-135466534D01*
X171908452Y-135441548D01*
X171883466Y-135411103D01*
X171864899Y-135376367D01*
X171853465Y-135338674D01*
X171849000Y-135293339D01*
X171849000Y-134206661D01*
X171853465Y-134161326D01*
X171864899Y-134123633D01*
X171883466Y-134088897D01*
X171908452Y-134058452D01*
X171938897Y-134033466D01*
X171973633Y-134014899D01*
X172011326Y-134003465D01*
X172056661Y-133999000D01*
X172893339Y-133999000D01*
X172938674Y-134003465D01*
G37*
G36*
X174988674Y-134003465D02*
G01*
X175026367Y-134014899D01*
X175061103Y-134033466D01*
X175091548Y-134058452D01*
X175116534Y-134088897D01*
X175135101Y-134123633D01*
X175146535Y-134161326D01*
X175151000Y-134206661D01*
X175151000Y-135293339D01*
X175146535Y-135338674D01*
X175135101Y-135376367D01*
X175116534Y-135411103D01*
X175091548Y-135441548D01*
X175061103Y-135466534D01*
X175026367Y-135485101D01*
X174988674Y-135496535D01*
X174943339Y-135501000D01*
X174106661Y-135501000D01*
X174061326Y-135496535D01*
X174023633Y-135485101D01*
X173988897Y-135466534D01*
X173958452Y-135441548D01*
X173933466Y-135411103D01*
X173914899Y-135376367D01*
X173903465Y-135338674D01*
X173899000Y-135293339D01*
X173899000Y-134206661D01*
X173903465Y-134161326D01*
X173914899Y-134123633D01*
X173933466Y-134088897D01*
X173958452Y-134058452D01*
X173988897Y-134033466D01*
X174023633Y-134014899D01*
X174061326Y-134003465D01*
X174106661Y-133999000D01*
X174943339Y-133999000D01*
X174988674Y-134003465D01*
G37*
G36*
X267918068Y-134058452D02*
G01*
X268029951Y-134080707D01*
X268150700Y-134130723D01*
X268259371Y-134203335D01*
X268351789Y-134295753D01*
X268424401Y-134404424D01*
X268474417Y-134525173D01*
X268499915Y-134653360D01*
X268499915Y-134784058D01*
X268474417Y-134912245D01*
X268424401Y-135032994D01*
X268351789Y-135141665D01*
X268259371Y-135234083D01*
X268150700Y-135306695D01*
X268029951Y-135356711D01*
X267901765Y-135382209D01*
X267771065Y-135382209D01*
X267642879Y-135356711D01*
X267522130Y-135306695D01*
X267413459Y-135234083D01*
X267321041Y-135141665D01*
X267248429Y-135032994D01*
X267198413Y-134912245D01*
X267172915Y-134784058D01*
X267172915Y-134653360D01*
X267198413Y-134525173D01*
X267248429Y-134404424D01*
X267321041Y-134295753D01*
X267413459Y-134203335D01*
X267522130Y-134130723D01*
X267642879Y-134080707D01*
X267754762Y-134058452D01*
X267771065Y-134055209D01*
X267901765Y-134055209D01*
X267918068Y-134058452D01*
G37*
G36*
X190488674Y-133253465D02*
G01*
X190526367Y-133264899D01*
X190561103Y-133283466D01*
X190591548Y-133308452D01*
X190616534Y-133338897D01*
X190635101Y-133373633D01*
X190646535Y-133411326D01*
X190651000Y-133456661D01*
X190651000Y-134543339D01*
X190646535Y-134588674D01*
X190635101Y-134626367D01*
X190616534Y-134661103D01*
X190591548Y-134691548D01*
X190561103Y-134716534D01*
X190526367Y-134735101D01*
X190488674Y-134746535D01*
X190443339Y-134751000D01*
X189606661Y-134751000D01*
X189561326Y-134746535D01*
X189523633Y-134735101D01*
X189488897Y-134716534D01*
X189458452Y-134691548D01*
X189433466Y-134661103D01*
X189414899Y-134626367D01*
X189403465Y-134588674D01*
X189399000Y-134543339D01*
X189399000Y-133456661D01*
X189403465Y-133411326D01*
X189414899Y-133373633D01*
X189433466Y-133338897D01*
X189458452Y-133308452D01*
X189488897Y-133283466D01*
X189523633Y-133264899D01*
X189561326Y-133253465D01*
X189606661Y-133249000D01*
X190443339Y-133249000D01*
X190488674Y-133253465D01*
G37*
G36*
X188438674Y-133253465D02*
G01*
X188476367Y-133264899D01*
X188511103Y-133283466D01*
X188541548Y-133308452D01*
X188566534Y-133338897D01*
X188585101Y-133373633D01*
X188596535Y-133411326D01*
X188601000Y-133456661D01*
X188601000Y-134543339D01*
X188596535Y-134588674D01*
X188585101Y-134626367D01*
X188566534Y-134661103D01*
X188541548Y-134691548D01*
X188511103Y-134716534D01*
X188476367Y-134735101D01*
X188438674Y-134746535D01*
X188393339Y-134751000D01*
X187556661Y-134751000D01*
X187511326Y-134746535D01*
X187473633Y-134735101D01*
X187438897Y-134716534D01*
X187408452Y-134691548D01*
X187383466Y-134661103D01*
X187364899Y-134626367D01*
X187353465Y-134588674D01*
X187349000Y-134543339D01*
X187349000Y-133456661D01*
X187353465Y-133411326D01*
X187364899Y-133373633D01*
X187383466Y-133338897D01*
X187408452Y-133308452D01*
X187438897Y-133283466D01*
X187473633Y-133264899D01*
X187511326Y-133253465D01*
X187556661Y-133249000D01*
X188393339Y-133249000D01*
X188438674Y-133253465D01*
G37*
G36*
X178561000Y-130174001D02*
G01*
X178563402Y-130198387D01*
X178570515Y-130221836D01*
X178582066Y-130243447D01*
X178597611Y-130262389D01*
X178616553Y-130277934D01*
X178638164Y-130289485D01*
X178661613Y-130296598D01*
X178685999Y-130299000D01*
X181314001Y-130299000D01*
X181338387Y-130296598D01*
X181361836Y-130289485D01*
X181383447Y-130277934D01*
X181402389Y-130262389D01*
X181417934Y-130243447D01*
X181429485Y-130221836D01*
X181436598Y-130198387D01*
X181439000Y-130174001D01*
X181439000Y-129744000D01*
X183511000Y-129744000D01*
X183511000Y-130446000D01*
X181380999Y-130446000D01*
X181356613Y-130448402D01*
X181333164Y-130455515D01*
X181311553Y-130467066D01*
X181292611Y-130482611D01*
X181277066Y-130501553D01*
X181265515Y-130523164D01*
X181258402Y-130546613D01*
X181256000Y-130570999D01*
X181256000Y-130889001D01*
X181258402Y-130913387D01*
X181265515Y-130936836D01*
X181277066Y-130958447D01*
X181292611Y-130977389D01*
X181311553Y-130992934D01*
X181333164Y-131004485D01*
X181356613Y-131011598D01*
X181380999Y-131014000D01*
X183511000Y-131014000D01*
X183511000Y-131716000D01*
X181380999Y-131716000D01*
X181356613Y-131718402D01*
X181333164Y-131725515D01*
X181311553Y-131737066D01*
X181292611Y-131752611D01*
X181277066Y-131771553D01*
X181265515Y-131793164D01*
X181258402Y-131816613D01*
X181256000Y-131840999D01*
X181256000Y-132159001D01*
X181258402Y-132183387D01*
X181265515Y-132206836D01*
X181277066Y-132228447D01*
X181292611Y-132247389D01*
X181311553Y-132262934D01*
X181333164Y-132274485D01*
X181356613Y-132281598D01*
X181380999Y-132284000D01*
X183511000Y-132284000D01*
X183511000Y-132986000D01*
X181380999Y-132986000D01*
X181356613Y-132988402D01*
X181333164Y-132995515D01*
X181311553Y-133007066D01*
X181292611Y-133022611D01*
X181277066Y-133041553D01*
X181265515Y-133063164D01*
X181258402Y-133086613D01*
X181256000Y-133110999D01*
X181256000Y-133429001D01*
X181258402Y-133453387D01*
X181265515Y-133476836D01*
X181277066Y-133498447D01*
X181292611Y-133517389D01*
X181311553Y-133532934D01*
X181333164Y-133544485D01*
X181356613Y-133551598D01*
X181380999Y-133554000D01*
X183511000Y-133554000D01*
X183511000Y-134256000D01*
X181439000Y-134256000D01*
X181439000Y-133825999D01*
X181436598Y-133801613D01*
X181429485Y-133778164D01*
X181417934Y-133756553D01*
X181402389Y-133737611D01*
X181383447Y-133722066D01*
X181361836Y-133710515D01*
X181338387Y-133703402D01*
X181314001Y-133701000D01*
X178685999Y-133701000D01*
X178661613Y-133703402D01*
X178638164Y-133710515D01*
X178616553Y-133722066D01*
X178597611Y-133737611D01*
X178582066Y-133756553D01*
X178570515Y-133778164D01*
X178563402Y-133801613D01*
X178561000Y-133825999D01*
X178561000Y-134256000D01*
X176489000Y-134256000D01*
X176489000Y-133554000D01*
X178619001Y-133554000D01*
X178643387Y-133551598D01*
X178666836Y-133544485D01*
X178688447Y-133532934D01*
X178707389Y-133517389D01*
X178722934Y-133498447D01*
X178734485Y-133476836D01*
X178741598Y-133453387D01*
X178744000Y-133429001D01*
X178744000Y-133110999D01*
X178741598Y-133086613D01*
X178734485Y-133063164D01*
X178722934Y-133041553D01*
X178707389Y-133022611D01*
X178688447Y-133007066D01*
X178666836Y-132995515D01*
X178643387Y-132988402D01*
X178619001Y-132986000D01*
X176489000Y-132986000D01*
X176489000Y-132284000D01*
X178619001Y-132284000D01*
X178643387Y-132281598D01*
X178666836Y-132274485D01*
X178688447Y-132262934D01*
X178707389Y-132247389D01*
X178722934Y-132228447D01*
X178734485Y-132206836D01*
X178741598Y-132183387D01*
X178744000Y-132159001D01*
X178744000Y-131840999D01*
X178741598Y-131816613D01*
X178734485Y-131793164D01*
X178722934Y-131771553D01*
X178707389Y-131752611D01*
X178688447Y-131737066D01*
X178666836Y-131725515D01*
X178643387Y-131718402D01*
X178619001Y-131716000D01*
X176489000Y-131716000D01*
X176489000Y-131014000D01*
X178619001Y-131014000D01*
X178643387Y-131011598D01*
X178666836Y-131004485D01*
X178688447Y-130992934D01*
X178707389Y-130977389D01*
X178722934Y-130958447D01*
X178734485Y-130936836D01*
X178741598Y-130913387D01*
X178744000Y-130889001D01*
X178744000Y-130570999D01*
X178741598Y-130546613D01*
X178734485Y-130523164D01*
X178722934Y-130501553D01*
X178707389Y-130482611D01*
X178688447Y-130467066D01*
X178666836Y-130455515D01*
X178643387Y-130448402D01*
X178619001Y-130446000D01*
X176489000Y-130446000D01*
X176489000Y-129744000D01*
X178561000Y-129744000D01*
X178561000Y-130174001D01*
G37*
G36*
X140857457Y-132459782D02*
G01*
X140960783Y-132491126D01*
X141056009Y-132542026D01*
X141139475Y-132610525D01*
X141207974Y-132693991D01*
X141258874Y-132789217D01*
X141290218Y-132892543D01*
X141300801Y-132999999D01*
X141300801Y-133000001D01*
X141290218Y-133107457D01*
X141258874Y-133210783D01*
X141207974Y-133306009D01*
X141139475Y-133389475D01*
X141056009Y-133457974D01*
X140960783Y-133508874D01*
X140857457Y-133540218D01*
X140750001Y-133550801D01*
X140749999Y-133550801D01*
X140642543Y-133540218D01*
X140539217Y-133508874D01*
X140443991Y-133457974D01*
X140360525Y-133389475D01*
X140292026Y-133306009D01*
X140241126Y-133210783D01*
X140209782Y-133107457D01*
X140199199Y-133000001D01*
X140199199Y-132999999D01*
X140209782Y-132892543D01*
X140241126Y-132789217D01*
X140292026Y-132693991D01*
X140360525Y-132610525D01*
X140443991Y-132542026D01*
X140539217Y-132491126D01*
X140642543Y-132459782D01*
X140749999Y-132449199D01*
X140750001Y-132449199D01*
X140857457Y-132459782D01*
G37*
G36*
X136850318Y-131077415D02*
G01*
X137068885Y-131167949D01*
X137068887Y-131167950D01*
X137265593Y-131299384D01*
X137432878Y-131466669D01*
X137541228Y-131628827D01*
X137564313Y-131663377D01*
X137654847Y-131881944D01*
X137701000Y-132113972D01*
X137701000Y-132350552D01*
X137654847Y-132582580D01*
X137569160Y-132789446D01*
X137564312Y-132801149D01*
X137432878Y-132997855D01*
X137265593Y-133165140D01*
X137068887Y-133296574D01*
X137068886Y-133296575D01*
X137068885Y-133296575D01*
X136850318Y-133387109D01*
X136618290Y-133433262D01*
X136381710Y-133433262D01*
X136149682Y-133387109D01*
X135931115Y-133296575D01*
X135931114Y-133296575D01*
X135931113Y-133296574D01*
X135734407Y-133165140D01*
X135567122Y-132997855D01*
X135435688Y-132801149D01*
X135430840Y-132789446D01*
X135345153Y-132582580D01*
X135299000Y-132350552D01*
X135299000Y-132113972D01*
X135345153Y-131881944D01*
X135435687Y-131663377D01*
X135458772Y-131628827D01*
X135567122Y-131466669D01*
X135734407Y-131299384D01*
X135931113Y-131167950D01*
X135931115Y-131167949D01*
X136149682Y-131077415D01*
X136381710Y-131031262D01*
X136618290Y-131031262D01*
X136850318Y-131077415D01*
G37*
G36*
X267961127Y-132067017D02*
G01*
X268029951Y-132080707D01*
X268150700Y-132130723D01*
X268259371Y-132203335D01*
X268351789Y-132295753D01*
X268424401Y-132404424D01*
X268474417Y-132525173D01*
X268475385Y-132530038D01*
X268499915Y-132653359D01*
X268499915Y-132784059D01*
X268492592Y-132820873D01*
X268481627Y-132876000D01*
X268474417Y-132912244D01*
X268425626Y-133030038D01*
X268424401Y-133032994D01*
X268351789Y-133141665D01*
X268259371Y-133234083D01*
X268150700Y-133306695D01*
X268150699Y-133306696D01*
X268150698Y-133306696D01*
X268115332Y-133321345D01*
X268029951Y-133356711D01*
X267965857Y-133369460D01*
X267901765Y-133382209D01*
X267771065Y-133382209D01*
X267706973Y-133369460D01*
X267642879Y-133356711D01*
X267557498Y-133321345D01*
X267522132Y-133306696D01*
X267522131Y-133306696D01*
X267522130Y-133306695D01*
X267413459Y-133234083D01*
X267321041Y-133141665D01*
X267248429Y-133032994D01*
X267247205Y-133030038D01*
X267198413Y-132912244D01*
X267191204Y-132876000D01*
X267180238Y-132820873D01*
X267172915Y-132784059D01*
X267172915Y-132653359D01*
X267197445Y-132530038D01*
X267198413Y-132525173D01*
X267248429Y-132404424D01*
X267321041Y-132295753D01*
X267413459Y-132203335D01*
X267522130Y-132130723D01*
X267642879Y-132080707D01*
X267711703Y-132067017D01*
X267771065Y-132055209D01*
X267901765Y-132055209D01*
X267961127Y-132067017D01*
G37*
G36*
X175588674Y-131903465D02*
G01*
X175626367Y-131914899D01*
X175661103Y-131933466D01*
X175691548Y-131958452D01*
X175716534Y-131988897D01*
X175735101Y-132023633D01*
X175746535Y-132061326D01*
X175751000Y-132106661D01*
X175751000Y-132943339D01*
X175746535Y-132988674D01*
X175735101Y-133026367D01*
X175716534Y-133061103D01*
X175691548Y-133091548D01*
X175661103Y-133116534D01*
X175626367Y-133135101D01*
X175588674Y-133146535D01*
X175543339Y-133151000D01*
X174456661Y-133151000D01*
X174411326Y-133146535D01*
X174373633Y-133135101D01*
X174338897Y-133116534D01*
X174308452Y-133091548D01*
X174283466Y-133061103D01*
X174264899Y-133026367D01*
X174253465Y-132988674D01*
X174249000Y-132943339D01*
X174249000Y-132106661D01*
X174253465Y-132061326D01*
X174264899Y-132023633D01*
X174283466Y-131988897D01*
X174308452Y-131958452D01*
X174338897Y-131933466D01*
X174373633Y-131914899D01*
X174411326Y-131903465D01*
X174456661Y-131899000D01*
X175543339Y-131899000D01*
X175588674Y-131903465D01*
G37*
G36*
X173588674Y-131903465D02*
G01*
X173626367Y-131914899D01*
X173661103Y-131933466D01*
X173691548Y-131958452D01*
X173716534Y-131988897D01*
X173735101Y-132023633D01*
X173746535Y-132061326D01*
X173751000Y-132106661D01*
X173751000Y-132943339D01*
X173746535Y-132988674D01*
X173735101Y-133026367D01*
X173716534Y-133061103D01*
X173691548Y-133091548D01*
X173661103Y-133116534D01*
X173626367Y-133135101D01*
X173588674Y-133146535D01*
X173543339Y-133151000D01*
X172456661Y-133151000D01*
X172411326Y-133146535D01*
X172373633Y-133135101D01*
X172338897Y-133116534D01*
X172308452Y-133091548D01*
X172283466Y-133061103D01*
X172264899Y-133026367D01*
X172253465Y-132988674D01*
X172249000Y-132943339D01*
X172249000Y-132106661D01*
X172253465Y-132061326D01*
X172264899Y-132023633D01*
X172283466Y-131988897D01*
X172308452Y-131958452D01*
X172338897Y-131933466D01*
X172373633Y-131914899D01*
X172411326Y-131903465D01*
X172456661Y-131899000D01*
X173543339Y-131899000D01*
X173588674Y-131903465D01*
G37*
G36*
X157125562Y-130128181D02*
G01*
X157160481Y-130138774D01*
X157192663Y-130155976D01*
X157220873Y-130179127D01*
X157244024Y-130207337D01*
X157261226Y-130239519D01*
X157271819Y-130274438D01*
X157276000Y-130316895D01*
X157276000Y-132683105D01*
X157271819Y-132725562D01*
X157261226Y-132760481D01*
X157244024Y-132792663D01*
X157220873Y-132820873D01*
X157192663Y-132844024D01*
X157160481Y-132861226D01*
X157125562Y-132871819D01*
X157083105Y-132876000D01*
X155941895Y-132876000D01*
X155899438Y-132871819D01*
X155864519Y-132861226D01*
X155832337Y-132844024D01*
X155804127Y-132820873D01*
X155780976Y-132792663D01*
X155763774Y-132760481D01*
X155753181Y-132725562D01*
X155749000Y-132683105D01*
X155749000Y-130316895D01*
X155753181Y-130274438D01*
X155763774Y-130239519D01*
X155780976Y-130207337D01*
X155804127Y-130179127D01*
X155832337Y-130155976D01*
X155864519Y-130138774D01*
X155899438Y-130128181D01*
X155941895Y-130124000D01*
X157083105Y-130124000D01*
X157125562Y-130128181D01*
G37*
G36*
X160100562Y-130128181D02*
G01*
X160135481Y-130138774D01*
X160167663Y-130155976D01*
X160195873Y-130179127D01*
X160219024Y-130207337D01*
X160236226Y-130239519D01*
X160246819Y-130274438D01*
X160251000Y-130316895D01*
X160251000Y-132683105D01*
X160246819Y-132725562D01*
X160236226Y-132760481D01*
X160219024Y-132792663D01*
X160195873Y-132820873D01*
X160167663Y-132844024D01*
X160135481Y-132861226D01*
X160100562Y-132871819D01*
X160058105Y-132876000D01*
X158916895Y-132876000D01*
X158874438Y-132871819D01*
X158839519Y-132861226D01*
X158807337Y-132844024D01*
X158779127Y-132820873D01*
X158755976Y-132792663D01*
X158738774Y-132760481D01*
X158728181Y-132725562D01*
X158724000Y-132683105D01*
X158724000Y-130316895D01*
X158728181Y-130274438D01*
X158738774Y-130239519D01*
X158755976Y-130207337D01*
X158779127Y-130179127D01*
X158807337Y-130155976D01*
X158839519Y-130138774D01*
X158874438Y-130128181D01*
X158916895Y-130124000D01*
X160058105Y-130124000D01*
X160100562Y-130128181D01*
G37*
G36*
X171088674Y-131403465D02*
G01*
X171126367Y-131414899D01*
X171161103Y-131433466D01*
X171191548Y-131458452D01*
X171216534Y-131488897D01*
X171235101Y-131523633D01*
X171246535Y-131561326D01*
X171251000Y-131606661D01*
X171251000Y-132443339D01*
X171246535Y-132488674D01*
X171235101Y-132526367D01*
X171216534Y-132561103D01*
X171191548Y-132591548D01*
X171161103Y-132616534D01*
X171126367Y-132635101D01*
X171088674Y-132646535D01*
X171043339Y-132651000D01*
X169956661Y-132651000D01*
X169911326Y-132646535D01*
X169873633Y-132635101D01*
X169838897Y-132616534D01*
X169808452Y-132591548D01*
X169783466Y-132561103D01*
X169764899Y-132526367D01*
X169753465Y-132488674D01*
X169749000Y-132443339D01*
X169749000Y-131606661D01*
X169753465Y-131561326D01*
X169764899Y-131523633D01*
X169783466Y-131488897D01*
X169808452Y-131458452D01*
X169838897Y-131433466D01*
X169873633Y-131414899D01*
X169911326Y-131403465D01*
X169956661Y-131399000D01*
X171043339Y-131399000D01*
X171088674Y-131403465D01*
G37*
G36*
X168838674Y-131403465D02*
G01*
X168876367Y-131414899D01*
X168911103Y-131433466D01*
X168941548Y-131458452D01*
X168966534Y-131488897D01*
X168985101Y-131523633D01*
X168996535Y-131561326D01*
X169001000Y-131606661D01*
X169001000Y-132443339D01*
X168996535Y-132488674D01*
X168985101Y-132526367D01*
X168966534Y-132561103D01*
X168941548Y-132591548D01*
X168911103Y-132616534D01*
X168876367Y-132635101D01*
X168838674Y-132646535D01*
X168793339Y-132651000D01*
X167706661Y-132651000D01*
X167661326Y-132646535D01*
X167623633Y-132635101D01*
X167588897Y-132616534D01*
X167558452Y-132591548D01*
X167533466Y-132561103D01*
X167514899Y-132526367D01*
X167503465Y-132488674D01*
X167499000Y-132443339D01*
X167499000Y-131606661D01*
X167503465Y-131561326D01*
X167514899Y-131523633D01*
X167533466Y-131488897D01*
X167558452Y-131458452D01*
X167588897Y-131433466D01*
X167623633Y-131414899D01*
X167661326Y-131403465D01*
X167706661Y-131399000D01*
X168793339Y-131399000D01*
X168838674Y-131403465D01*
G37*
G36*
X154910200Y-132616900D02*
G01*
X152141600Y-132616900D01*
X152141600Y-128883100D01*
X154910200Y-128883100D01*
X154910200Y-132616900D01*
G37*
G36*
X146858400Y-132616900D02*
G01*
X144089800Y-132616900D01*
X144089800Y-128883100D01*
X146858400Y-128883100D01*
X146858400Y-132616900D01*
G37*
G36*
X185838674Y-130653465D02*
G01*
X185876367Y-130664899D01*
X185911103Y-130683466D01*
X185941548Y-130708452D01*
X185966534Y-130738897D01*
X185985101Y-130773633D01*
X185996535Y-130811326D01*
X186001000Y-130856661D01*
X186001000Y-131693339D01*
X185996535Y-131738674D01*
X185985101Y-131776367D01*
X185966534Y-131811103D01*
X185941548Y-131841548D01*
X185911103Y-131866534D01*
X185876367Y-131885101D01*
X185838674Y-131896535D01*
X185793339Y-131901000D01*
X184706661Y-131901000D01*
X184661326Y-131896535D01*
X184623633Y-131885101D01*
X184588897Y-131866534D01*
X184558452Y-131841548D01*
X184533466Y-131811103D01*
X184514899Y-131776367D01*
X184503465Y-131738674D01*
X184499000Y-131693339D01*
X184499000Y-130856661D01*
X184503465Y-130811326D01*
X184514899Y-130773633D01*
X184533466Y-130738897D01*
X184558452Y-130708452D01*
X184588897Y-130683466D01*
X184623633Y-130664899D01*
X184661326Y-130653465D01*
X184706661Y-130649000D01*
X185793339Y-130649000D01*
X185838674Y-130653465D01*
G37*
G36*
X187838674Y-130653465D02*
G01*
X187876367Y-130664899D01*
X187911103Y-130683466D01*
X187941548Y-130708452D01*
X187966534Y-130738897D01*
X187985101Y-130773633D01*
X187996535Y-130811326D01*
X188001000Y-130856661D01*
X188001000Y-131693339D01*
X187996535Y-131738674D01*
X187985101Y-131776367D01*
X187966534Y-131811103D01*
X187941548Y-131841548D01*
X187911103Y-131866534D01*
X187876367Y-131885101D01*
X187838674Y-131896535D01*
X187793339Y-131901000D01*
X186706661Y-131901000D01*
X186661326Y-131896535D01*
X186623633Y-131885101D01*
X186588897Y-131866534D01*
X186558452Y-131841548D01*
X186533466Y-131811103D01*
X186514899Y-131776367D01*
X186503465Y-131738674D01*
X186499000Y-131693339D01*
X186499000Y-130856661D01*
X186503465Y-130811326D01*
X186514899Y-130773633D01*
X186533466Y-130738897D01*
X186558452Y-130708452D01*
X186588897Y-130683466D01*
X186623633Y-130664899D01*
X186661326Y-130653465D01*
X186706661Y-130649000D01*
X187793339Y-130649000D01*
X187838674Y-130653465D01*
G37*
G36*
X227167025Y-131861599D02*
G01*
X223433225Y-131861599D01*
X223433225Y-129092999D01*
X227167025Y-129092999D01*
X227167025Y-131861599D01*
G37*
G36*
X173588674Y-129853465D02*
G01*
X173626367Y-129864899D01*
X173661103Y-129883466D01*
X173691548Y-129908452D01*
X173716534Y-129938897D01*
X173735101Y-129973633D01*
X173746535Y-130011326D01*
X173751000Y-130056661D01*
X173751000Y-130893339D01*
X173746535Y-130938674D01*
X173735101Y-130976367D01*
X173716534Y-131011103D01*
X173691548Y-131041548D01*
X173661103Y-131066534D01*
X173626367Y-131085101D01*
X173588674Y-131096535D01*
X173543339Y-131101000D01*
X172456661Y-131101000D01*
X172411326Y-131096535D01*
X172373633Y-131085101D01*
X172338897Y-131066534D01*
X172308452Y-131041548D01*
X172283466Y-131011103D01*
X172264899Y-130976367D01*
X172253465Y-130938674D01*
X172249000Y-130893339D01*
X172249000Y-130056661D01*
X172253465Y-130011326D01*
X172264899Y-129973633D01*
X172283466Y-129938897D01*
X172308452Y-129908452D01*
X172338897Y-129883466D01*
X172373633Y-129864899D01*
X172411326Y-129853465D01*
X172456661Y-129849000D01*
X173543339Y-129849000D01*
X173588674Y-129853465D01*
G37*
G36*
X175588674Y-129853465D02*
G01*
X175626367Y-129864899D01*
X175661103Y-129883466D01*
X175691548Y-129908452D01*
X175716534Y-129938897D01*
X175735101Y-129973633D01*
X175746535Y-130011326D01*
X175751000Y-130056661D01*
X175751000Y-130893339D01*
X175746535Y-130938674D01*
X175735101Y-130976367D01*
X175716534Y-131011103D01*
X175691548Y-131041548D01*
X175661103Y-131066534D01*
X175626367Y-131085101D01*
X175588674Y-131096535D01*
X175543339Y-131101000D01*
X174456661Y-131101000D01*
X174411326Y-131096535D01*
X174373633Y-131085101D01*
X174338897Y-131066534D01*
X174308452Y-131041548D01*
X174283466Y-131011103D01*
X174264899Y-130976367D01*
X174253465Y-130938674D01*
X174249000Y-130893339D01*
X174249000Y-130056661D01*
X174253465Y-130011326D01*
X174264899Y-129973633D01*
X174283466Y-129938897D01*
X174308452Y-129908452D01*
X174338897Y-129883466D01*
X174373633Y-129864899D01*
X174411326Y-129853465D01*
X174456661Y-129849000D01*
X175543339Y-129849000D01*
X175588674Y-129853465D01*
G37*
G36*
X168838674Y-129353465D02*
G01*
X168876367Y-129364899D01*
X168911103Y-129383466D01*
X168941548Y-129408452D01*
X168966534Y-129438897D01*
X168985101Y-129473633D01*
X168996535Y-129511326D01*
X169001000Y-129556661D01*
X169001000Y-130393339D01*
X168996535Y-130438674D01*
X168985101Y-130476367D01*
X168966534Y-130511103D01*
X168941548Y-130541548D01*
X168911103Y-130566534D01*
X168876367Y-130585101D01*
X168838674Y-130596535D01*
X168793339Y-130601000D01*
X167706661Y-130601000D01*
X167661326Y-130596535D01*
X167623633Y-130585101D01*
X167588897Y-130566534D01*
X167558452Y-130541548D01*
X167533466Y-130511103D01*
X167514899Y-130476367D01*
X167503465Y-130438674D01*
X167499000Y-130393339D01*
X167499000Y-129556661D01*
X167503465Y-129511326D01*
X167514899Y-129473633D01*
X167533466Y-129438897D01*
X167558452Y-129408452D01*
X167588897Y-129383466D01*
X167623633Y-129364899D01*
X167661326Y-129353465D01*
X167706661Y-129349000D01*
X168793339Y-129349000D01*
X168838674Y-129353465D01*
G37*
G36*
X171088674Y-129353465D02*
G01*
X171126367Y-129364899D01*
X171161103Y-129383466D01*
X171191548Y-129408452D01*
X171216534Y-129438897D01*
X171235101Y-129473633D01*
X171246535Y-129511326D01*
X171251000Y-129556661D01*
X171251000Y-130393339D01*
X171246535Y-130438674D01*
X171235101Y-130476367D01*
X171216534Y-130511103D01*
X171191548Y-130541548D01*
X171161103Y-130566534D01*
X171126367Y-130585101D01*
X171088674Y-130596535D01*
X171043339Y-130601000D01*
X169956661Y-130601000D01*
X169911326Y-130596535D01*
X169873633Y-130585101D01*
X169838897Y-130566534D01*
X169808452Y-130541548D01*
X169783466Y-130511103D01*
X169764899Y-130476367D01*
X169753465Y-130438674D01*
X169749000Y-130393339D01*
X169749000Y-129556661D01*
X169753465Y-129511326D01*
X169764899Y-129473633D01*
X169783466Y-129438897D01*
X169808452Y-129408452D01*
X169838897Y-129383466D01*
X169873633Y-129364899D01*
X169911326Y-129353465D01*
X169956661Y-129349000D01*
X171043339Y-129349000D01*
X171088674Y-129353465D01*
G37*
G36*
X185838674Y-128603465D02*
G01*
X185876367Y-128614899D01*
X185911103Y-128633466D01*
X185941548Y-128658452D01*
X185966534Y-128688897D01*
X185985101Y-128723633D01*
X185996535Y-128761326D01*
X186001000Y-128806661D01*
X186001000Y-129643339D01*
X185996535Y-129688674D01*
X185985101Y-129726367D01*
X185966534Y-129761103D01*
X185941548Y-129791548D01*
X185911103Y-129816534D01*
X185876367Y-129835101D01*
X185838674Y-129846535D01*
X185793339Y-129851000D01*
X184706661Y-129851000D01*
X184661326Y-129846535D01*
X184623633Y-129835101D01*
X184588897Y-129816534D01*
X184558452Y-129791548D01*
X184533466Y-129761103D01*
X184514899Y-129726367D01*
X184503465Y-129688674D01*
X184499000Y-129643339D01*
X184499000Y-128806661D01*
X184503465Y-128761326D01*
X184514899Y-128723633D01*
X184533466Y-128688897D01*
X184558452Y-128658452D01*
X184588897Y-128633466D01*
X184623633Y-128614899D01*
X184661326Y-128603465D01*
X184706661Y-128599000D01*
X185793339Y-128599000D01*
X185838674Y-128603465D01*
G37*
G36*
X187838674Y-128603465D02*
G01*
X187876367Y-128614899D01*
X187911103Y-128633466D01*
X187941548Y-128658452D01*
X187966534Y-128688897D01*
X187985101Y-128723633D01*
X187996535Y-128761326D01*
X188001000Y-128806661D01*
X188001000Y-129643339D01*
X187996535Y-129688674D01*
X187985101Y-129726367D01*
X187966534Y-129761103D01*
X187941548Y-129791548D01*
X187911103Y-129816534D01*
X187876367Y-129835101D01*
X187838674Y-129846535D01*
X187793339Y-129851000D01*
X186706661Y-129851000D01*
X186661326Y-129846535D01*
X186623633Y-129835101D01*
X186588897Y-129816534D01*
X186558452Y-129791548D01*
X186533466Y-129761103D01*
X186514899Y-129726367D01*
X186503465Y-129688674D01*
X186499000Y-129643339D01*
X186499000Y-128806661D01*
X186503465Y-128761326D01*
X186514899Y-128723633D01*
X186533466Y-128688897D01*
X186558452Y-128658452D01*
X186588897Y-128633466D01*
X186623633Y-128614899D01*
X186661326Y-128603465D01*
X186706661Y-128599000D01*
X187793339Y-128599000D01*
X187838674Y-128603465D01*
G37*
G36*
X265896188Y-124027373D02*
G01*
X266424136Y-124246056D01*
X266424138Y-124246057D01*
X266899279Y-124563536D01*
X267303353Y-124967610D01*
X267620832Y-125442751D01*
X267620833Y-125442753D01*
X267839516Y-125970701D01*
X267950999Y-126531165D01*
X267950999Y-127102615D01*
X267839516Y-127663079D01*
X267629659Y-128169718D01*
X267620832Y-128191029D01*
X267303353Y-128666170D01*
X266899279Y-129070244D01*
X266424138Y-129387723D01*
X266424137Y-129387724D01*
X266424136Y-129387724D01*
X265896188Y-129606407D01*
X265335724Y-129717890D01*
X264764274Y-129717890D01*
X264203810Y-129606407D01*
X263675862Y-129387724D01*
X263675861Y-129387724D01*
X263675860Y-129387723D01*
X263200719Y-129070244D01*
X262796645Y-128666170D01*
X262479166Y-128191029D01*
X262470339Y-128169718D01*
X262260482Y-127663079D01*
X262148999Y-127102615D01*
X262148999Y-126531165D01*
X262260482Y-125970701D01*
X262479165Y-125442753D01*
X262479166Y-125442751D01*
X262796645Y-124967610D01*
X263200719Y-124563536D01*
X263675860Y-124246057D01*
X263675862Y-124246056D01*
X264203810Y-124027373D01*
X264764274Y-123915890D01*
X265335724Y-123915890D01*
X265896188Y-124027373D01*
G37*
G36*
X160088674Y-128153465D02*
G01*
X160126367Y-128164899D01*
X160161103Y-128183466D01*
X160191548Y-128208452D01*
X160216534Y-128238897D01*
X160235101Y-128273633D01*
X160246535Y-128311326D01*
X160251000Y-128356661D01*
X160251000Y-129443339D01*
X160246535Y-129488674D01*
X160235101Y-129526367D01*
X160216534Y-129561103D01*
X160191548Y-129591548D01*
X160161103Y-129616534D01*
X160126367Y-129635101D01*
X160088674Y-129646535D01*
X160043339Y-129651000D01*
X159206661Y-129651000D01*
X159161326Y-129646535D01*
X159123633Y-129635101D01*
X159088897Y-129616534D01*
X159058452Y-129591548D01*
X159033466Y-129561103D01*
X159014899Y-129526367D01*
X159003465Y-129488674D01*
X158999000Y-129443339D01*
X158999000Y-128356661D01*
X159003465Y-128311326D01*
X159014899Y-128273633D01*
X159033466Y-128238897D01*
X159058452Y-128208452D01*
X159088897Y-128183466D01*
X159123633Y-128164899D01*
X159161326Y-128153465D01*
X159206661Y-128149000D01*
X160043339Y-128149000D01*
X160088674Y-128153465D01*
G37*
G36*
X158038674Y-128153465D02*
G01*
X158076367Y-128164899D01*
X158111103Y-128183466D01*
X158141548Y-128208452D01*
X158166534Y-128238897D01*
X158185101Y-128273633D01*
X158196535Y-128311326D01*
X158201000Y-128356661D01*
X158201000Y-129443339D01*
X158196535Y-129488674D01*
X158185101Y-129526367D01*
X158166534Y-129561103D01*
X158141548Y-129591548D01*
X158111103Y-129616534D01*
X158076367Y-129635101D01*
X158038674Y-129646535D01*
X157993339Y-129651000D01*
X157156661Y-129651000D01*
X157111326Y-129646535D01*
X157073633Y-129635101D01*
X157038897Y-129616534D01*
X157008452Y-129591548D01*
X156983466Y-129561103D01*
X156964899Y-129526367D01*
X156953465Y-129488674D01*
X156949000Y-129443339D01*
X156949000Y-128356661D01*
X156953465Y-128311326D01*
X156964899Y-128273633D01*
X156983466Y-128238897D01*
X157008452Y-128208452D01*
X157038897Y-128183466D01*
X157073633Y-128164899D01*
X157111326Y-128153465D01*
X157156661Y-128149000D01*
X157993339Y-128149000D01*
X158038674Y-128153465D01*
G37*
G36*
X175588674Y-127903465D02*
G01*
X175626367Y-127914899D01*
X175661103Y-127933466D01*
X175691548Y-127958452D01*
X175716534Y-127988897D01*
X175735101Y-128023633D01*
X175746535Y-128061326D01*
X175751000Y-128106661D01*
X175751000Y-128943339D01*
X175746535Y-128988674D01*
X175735101Y-129026367D01*
X175716534Y-129061103D01*
X175691548Y-129091548D01*
X175661103Y-129116534D01*
X175626367Y-129135101D01*
X175588674Y-129146535D01*
X175543339Y-129151000D01*
X174456661Y-129151000D01*
X174411326Y-129146535D01*
X174373633Y-129135101D01*
X174338897Y-129116534D01*
X174308452Y-129091548D01*
X174283466Y-129061103D01*
X174264899Y-129026367D01*
X174253465Y-128988674D01*
X174249000Y-128943339D01*
X174249000Y-128106661D01*
X174253465Y-128061326D01*
X174264899Y-128023633D01*
X174283466Y-127988897D01*
X174308452Y-127958452D01*
X174338897Y-127933466D01*
X174373633Y-127914899D01*
X174411326Y-127903465D01*
X174456661Y-127899000D01*
X175543339Y-127899000D01*
X175588674Y-127903465D01*
G37*
G36*
X163838674Y-127653465D02*
G01*
X163876367Y-127664899D01*
X163911103Y-127683466D01*
X163941548Y-127708452D01*
X163966534Y-127738897D01*
X163985101Y-127773633D01*
X163996535Y-127811326D01*
X164001000Y-127856661D01*
X164001000Y-128693339D01*
X163996535Y-128738674D01*
X163985101Y-128776367D01*
X163966534Y-128811103D01*
X163941548Y-128841548D01*
X163911103Y-128866534D01*
X163876367Y-128885101D01*
X163838674Y-128896535D01*
X163793339Y-128901000D01*
X162706661Y-128901000D01*
X162661326Y-128896535D01*
X162623633Y-128885101D01*
X162588897Y-128866534D01*
X162558452Y-128841548D01*
X162533466Y-128811103D01*
X162514899Y-128776367D01*
X162503465Y-128738674D01*
X162499000Y-128693339D01*
X162499000Y-127856661D01*
X162503465Y-127811326D01*
X162514899Y-127773633D01*
X162533466Y-127738897D01*
X162558452Y-127708452D01*
X162588897Y-127683466D01*
X162623633Y-127664899D01*
X162661326Y-127653465D01*
X162706661Y-127649000D01*
X163793339Y-127649000D01*
X163838674Y-127653465D01*
G37*
G36*
X165838674Y-127628465D02*
G01*
X165876367Y-127639899D01*
X165911103Y-127658466D01*
X165941548Y-127683452D01*
X165966534Y-127713897D01*
X165985101Y-127748633D01*
X165996535Y-127786326D01*
X166001000Y-127831661D01*
X166001000Y-128668339D01*
X165996535Y-128713674D01*
X165985101Y-128751367D01*
X165966534Y-128786103D01*
X165941548Y-128816548D01*
X165911103Y-128841534D01*
X165876367Y-128860101D01*
X165838674Y-128871535D01*
X165793339Y-128876000D01*
X164706661Y-128876000D01*
X164661326Y-128871535D01*
X164623633Y-128860101D01*
X164588897Y-128841534D01*
X164558452Y-128816548D01*
X164533466Y-128786103D01*
X164514899Y-128751367D01*
X164503465Y-128713674D01*
X164499000Y-128668339D01*
X164499000Y-127831661D01*
X164503465Y-127786326D01*
X164514899Y-127748633D01*
X164533466Y-127713897D01*
X164558452Y-127683452D01*
X164588897Y-127658466D01*
X164623633Y-127639899D01*
X164661326Y-127628465D01*
X164706661Y-127624000D01*
X165793339Y-127624000D01*
X165838674Y-127628465D01*
G37*
G36*
X182463674Y-127253465D02*
G01*
X182501367Y-127264899D01*
X182536103Y-127283466D01*
X182566548Y-127308452D01*
X182591534Y-127338897D01*
X182610101Y-127373633D01*
X182621535Y-127411326D01*
X182626000Y-127456661D01*
X182626000Y-128543339D01*
X182621535Y-128588674D01*
X182610101Y-128626367D01*
X182591534Y-128661103D01*
X182566548Y-128691548D01*
X182536103Y-128716534D01*
X182501367Y-128735101D01*
X182463674Y-128746535D01*
X182418339Y-128751000D01*
X181581661Y-128751000D01*
X181536326Y-128746535D01*
X181498633Y-128735101D01*
X181463897Y-128716534D01*
X181433452Y-128691548D01*
X181408466Y-128661103D01*
X181389899Y-128626367D01*
X181378465Y-128588674D01*
X181374000Y-128543339D01*
X181374000Y-127456661D01*
X181378465Y-127411326D01*
X181389899Y-127373633D01*
X181408466Y-127338897D01*
X181433452Y-127308452D01*
X181463897Y-127283466D01*
X181498633Y-127264899D01*
X181536326Y-127253465D01*
X181581661Y-127249000D01*
X182418339Y-127249000D01*
X182463674Y-127253465D01*
G37*
G36*
X180413674Y-127253465D02*
G01*
X180451367Y-127264899D01*
X180486103Y-127283466D01*
X180516548Y-127308452D01*
X180541534Y-127338897D01*
X180560101Y-127373633D01*
X180571535Y-127411326D01*
X180576000Y-127456661D01*
X180576000Y-128543339D01*
X180571535Y-128588674D01*
X180560101Y-128626367D01*
X180541534Y-128661103D01*
X180516548Y-128691548D01*
X180486103Y-128716534D01*
X180451367Y-128735101D01*
X180413674Y-128746535D01*
X180368339Y-128751000D01*
X179531661Y-128751000D01*
X179486326Y-128746535D01*
X179448633Y-128735101D01*
X179413897Y-128716534D01*
X179383452Y-128691548D01*
X179358466Y-128661103D01*
X179339899Y-128626367D01*
X179328465Y-128588674D01*
X179324000Y-128543339D01*
X179324000Y-127456661D01*
X179328465Y-127411326D01*
X179339899Y-127373633D01*
X179358466Y-127338897D01*
X179383452Y-127308452D01*
X179413897Y-127283466D01*
X179448633Y-127264899D01*
X179486326Y-127253465D01*
X179531661Y-127249000D01*
X180368339Y-127249000D01*
X180413674Y-127253465D01*
G37*
G36*
X178088674Y-127378465D02*
G01*
X178126367Y-127389899D01*
X178161103Y-127408466D01*
X178191548Y-127433452D01*
X178216534Y-127463897D01*
X178235101Y-127498633D01*
X178246535Y-127536326D01*
X178251000Y-127581661D01*
X178251000Y-128418339D01*
X178246535Y-128463674D01*
X178235101Y-128501367D01*
X178216534Y-128536103D01*
X178191548Y-128566548D01*
X178161103Y-128591534D01*
X178126367Y-128610101D01*
X178088674Y-128621535D01*
X178043339Y-128626000D01*
X176956661Y-128626000D01*
X176911326Y-128621535D01*
X176873633Y-128610101D01*
X176838897Y-128591534D01*
X176808452Y-128566548D01*
X176783466Y-128536103D01*
X176764899Y-128501367D01*
X176753465Y-128463674D01*
X176749000Y-128418339D01*
X176749000Y-127581661D01*
X176753465Y-127536326D01*
X176764899Y-127498633D01*
X176783466Y-127463897D01*
X176808452Y-127433452D01*
X176838897Y-127408466D01*
X176873633Y-127389899D01*
X176911326Y-127378465D01*
X176956661Y-127374000D01*
X178043339Y-127374000D01*
X178088674Y-127378465D01*
G37*
G36*
X156819052Y-122078539D02*
G01*
X156861411Y-122091388D01*
X156900449Y-122112254D01*
X156934666Y-122140335D01*
X156962747Y-122174552D01*
X156983613Y-122213590D01*
X156984508Y-122216540D01*
X156987391Y-122221934D01*
X156989760Y-122227654D01*
X157003373Y-122248029D01*
X157020700Y-122265356D01*
X157041074Y-122278970D01*
X157063712Y-122288348D01*
X157087746Y-122293129D01*
X157112250Y-122293129D01*
X157136283Y-122288349D01*
X157158922Y-122278972D01*
X157179297Y-122265359D01*
X157196624Y-122248032D01*
X157210238Y-122227658D01*
X157212608Y-122221936D01*
X157215492Y-122216540D01*
X157216387Y-122213590D01*
X157237253Y-122174552D01*
X157265334Y-122140335D01*
X157299551Y-122112254D01*
X157338589Y-122091388D01*
X157380948Y-122078539D01*
X157424999Y-122074200D01*
X157425001Y-122074200D01*
X157469052Y-122078539D01*
X157511411Y-122091388D01*
X157550449Y-122112254D01*
X157584666Y-122140335D01*
X157612747Y-122174552D01*
X157633613Y-122213590D01*
X157634508Y-122216540D01*
X157637391Y-122221934D01*
X157639760Y-122227654D01*
X157653373Y-122248029D01*
X157670700Y-122265356D01*
X157691074Y-122278970D01*
X157713712Y-122288348D01*
X157737746Y-122293129D01*
X157762250Y-122293129D01*
X157786283Y-122288349D01*
X157808922Y-122278972D01*
X157829297Y-122265359D01*
X157846624Y-122248032D01*
X157860238Y-122227658D01*
X157862608Y-122221936D01*
X157865492Y-122216540D01*
X157866387Y-122213590D01*
X157887253Y-122174552D01*
X157915334Y-122140335D01*
X157949551Y-122112254D01*
X157988589Y-122091388D01*
X158030948Y-122078539D01*
X158074999Y-122074200D01*
X158075001Y-122074200D01*
X158119052Y-122078539D01*
X158161411Y-122091388D01*
X158200449Y-122112254D01*
X158234666Y-122140335D01*
X158262747Y-122174552D01*
X158283613Y-122213590D01*
X158284508Y-122216540D01*
X158287391Y-122221934D01*
X158289760Y-122227654D01*
X158303373Y-122248029D01*
X158320700Y-122265356D01*
X158341074Y-122278970D01*
X158363712Y-122288348D01*
X158387746Y-122293129D01*
X158412250Y-122293129D01*
X158436283Y-122288349D01*
X158458922Y-122278972D01*
X158479297Y-122265359D01*
X158496624Y-122248032D01*
X158510238Y-122227658D01*
X158512608Y-122221936D01*
X158515492Y-122216540D01*
X158516387Y-122213590D01*
X158537253Y-122174552D01*
X158565334Y-122140335D01*
X158599551Y-122112254D01*
X158638589Y-122091388D01*
X158680948Y-122078539D01*
X158724999Y-122074200D01*
X158725001Y-122074200D01*
X158769052Y-122078539D01*
X158811411Y-122091388D01*
X158850449Y-122112254D01*
X158884666Y-122140335D01*
X158912747Y-122174552D01*
X158933613Y-122213590D01*
X158946462Y-122255949D01*
X158950801Y-122300000D01*
X158950801Y-123000000D01*
X158946462Y-123044051D01*
X158933613Y-123086410D01*
X158912747Y-123125448D01*
X158892583Y-123150019D01*
X158882388Y-123165276D01*
X158873011Y-123187914D01*
X158868230Y-123211948D01*
X158868230Y-123236452D01*
X158873010Y-123260485D01*
X158882387Y-123283124D01*
X158896001Y-123303498D01*
X158913327Y-123320826D01*
X158933702Y-123334440D01*
X158956340Y-123343817D01*
X158980374Y-123348598D01*
X158992627Y-123349200D01*
X159150800Y-123349200D01*
X159150800Y-123507373D01*
X159153202Y-123531759D01*
X159160315Y-123555208D01*
X159171866Y-123576819D01*
X159187411Y-123595761D01*
X159206353Y-123611306D01*
X159227964Y-123622857D01*
X159251413Y-123629970D01*
X159275799Y-123632372D01*
X159300185Y-123629970D01*
X159323634Y-123622857D01*
X159345240Y-123611309D01*
X159374552Y-123587253D01*
X159413590Y-123566387D01*
X159455949Y-123553538D01*
X159500000Y-123549199D01*
X160200000Y-123549199D01*
X160244051Y-123553538D01*
X160286410Y-123566387D01*
X160325448Y-123587253D01*
X160359665Y-123615334D01*
X160387746Y-123649551D01*
X160408612Y-123688589D01*
X160421461Y-123730948D01*
X160425800Y-123774999D01*
X160425800Y-123775001D01*
X160421461Y-123819052D01*
X160408612Y-123861411D01*
X160387746Y-123900449D01*
X160359665Y-123934666D01*
X160325448Y-123962747D01*
X160286410Y-123983613D01*
X160283460Y-123984508D01*
X160278066Y-123987391D01*
X160272346Y-123989760D01*
X160251971Y-124003373D01*
X160234644Y-124020700D01*
X160221030Y-124041074D01*
X160211652Y-124063712D01*
X160206871Y-124087746D01*
X160206871Y-124112250D01*
X160211651Y-124136283D01*
X160221028Y-124158922D01*
X160234641Y-124179297D01*
X160251968Y-124196624D01*
X160272342Y-124210238D01*
X160278064Y-124212608D01*
X160283460Y-124215492D01*
X160286410Y-124216387D01*
X160325448Y-124237253D01*
X160359665Y-124265334D01*
X160387746Y-124299551D01*
X160408612Y-124338589D01*
X160421461Y-124380948D01*
X160425800Y-124424999D01*
X160425800Y-124425001D01*
X160421461Y-124469052D01*
X160408612Y-124511411D01*
X160387746Y-124550449D01*
X160359665Y-124584666D01*
X160325448Y-124612747D01*
X160286410Y-124633613D01*
X160283460Y-124634508D01*
X160278066Y-124637391D01*
X160272346Y-124639760D01*
X160251971Y-124653373D01*
X160234644Y-124670700D01*
X160221030Y-124691074D01*
X160211652Y-124713712D01*
X160206871Y-124737746D01*
X160206871Y-124762250D01*
X160211651Y-124786283D01*
X160221028Y-124808922D01*
X160234641Y-124829297D01*
X160251968Y-124846624D01*
X160272342Y-124860238D01*
X160278064Y-124862608D01*
X160283460Y-124865492D01*
X160286410Y-124866387D01*
X160325448Y-124887253D01*
X160359665Y-124915334D01*
X160387746Y-124949551D01*
X160408612Y-124988589D01*
X160421461Y-125030948D01*
X160425800Y-125074999D01*
X160425800Y-125075001D01*
X160421461Y-125119052D01*
X160408612Y-125161411D01*
X160387746Y-125200449D01*
X160359665Y-125234666D01*
X160325448Y-125262747D01*
X160286410Y-125283613D01*
X160283460Y-125284508D01*
X160278066Y-125287391D01*
X160272346Y-125289760D01*
X160251971Y-125303373D01*
X160234644Y-125320700D01*
X160221030Y-125341074D01*
X160211652Y-125363712D01*
X160206871Y-125387746D01*
X160206871Y-125412250D01*
X160211651Y-125436283D01*
X160221028Y-125458922D01*
X160234641Y-125479297D01*
X160251968Y-125496624D01*
X160272342Y-125510238D01*
X160278064Y-125512608D01*
X160283460Y-125515492D01*
X160286410Y-125516387D01*
X160325448Y-125537253D01*
X160359665Y-125565334D01*
X160387746Y-125599551D01*
X160408612Y-125638589D01*
X160421461Y-125680948D01*
X160425800Y-125724999D01*
X160425800Y-125725001D01*
X160421461Y-125769052D01*
X160408612Y-125811411D01*
X160387746Y-125850449D01*
X160359665Y-125884666D01*
X160325448Y-125912747D01*
X160286410Y-125933613D01*
X160244051Y-125946462D01*
X160200000Y-125950801D01*
X159500000Y-125950801D01*
X159455949Y-125946462D01*
X159413590Y-125933613D01*
X159374552Y-125912747D01*
X159349981Y-125892583D01*
X159334724Y-125882388D01*
X159312086Y-125873011D01*
X159288052Y-125868230D01*
X159263548Y-125868230D01*
X159239515Y-125873010D01*
X159216876Y-125882387D01*
X159196502Y-125896001D01*
X159179174Y-125913327D01*
X159165560Y-125933702D01*
X159156183Y-125956340D01*
X159151402Y-125980374D01*
X159150800Y-125992627D01*
X159150800Y-126150800D01*
X158992627Y-126150800D01*
X158968241Y-126153202D01*
X158944792Y-126160315D01*
X158923181Y-126171866D01*
X158904239Y-126187411D01*
X158888694Y-126206353D01*
X158877143Y-126227964D01*
X158870030Y-126251413D01*
X158867628Y-126275799D01*
X158870030Y-126300185D01*
X158877143Y-126323634D01*
X158888691Y-126345240D01*
X158912747Y-126374552D01*
X158933613Y-126413590D01*
X158946462Y-126455949D01*
X158950801Y-126500000D01*
X158950801Y-127200000D01*
X158946462Y-127244051D01*
X158933613Y-127286410D01*
X158912747Y-127325448D01*
X158884666Y-127359665D01*
X158850449Y-127387746D01*
X158811411Y-127408612D01*
X158769052Y-127421461D01*
X158725001Y-127425800D01*
X158724999Y-127425800D01*
X158680948Y-127421461D01*
X158638589Y-127408612D01*
X158599551Y-127387746D01*
X158565334Y-127359665D01*
X158537253Y-127325448D01*
X158516387Y-127286410D01*
X158515492Y-127283460D01*
X158512609Y-127278066D01*
X158510240Y-127272346D01*
X158496627Y-127251971D01*
X158479300Y-127234644D01*
X158458926Y-127221030D01*
X158436288Y-127211652D01*
X158412254Y-127206871D01*
X158387750Y-127206871D01*
X158363717Y-127211651D01*
X158341078Y-127221028D01*
X158320703Y-127234641D01*
X158303376Y-127251968D01*
X158289762Y-127272342D01*
X158287392Y-127278064D01*
X158284508Y-127283460D01*
X158283613Y-127286410D01*
X158262747Y-127325448D01*
X158234666Y-127359665D01*
X158200449Y-127387746D01*
X158161411Y-127408612D01*
X158119052Y-127421461D01*
X158075001Y-127425800D01*
X158074999Y-127425800D01*
X158030948Y-127421461D01*
X157988589Y-127408612D01*
X157949551Y-127387746D01*
X157915334Y-127359665D01*
X157887253Y-127325448D01*
X157866387Y-127286410D01*
X157865492Y-127283460D01*
X157862609Y-127278066D01*
X157860240Y-127272346D01*
X157846627Y-127251971D01*
X157829300Y-127234644D01*
X157808926Y-127221030D01*
X157786288Y-127211652D01*
X157762254Y-127206871D01*
X157737750Y-127206871D01*
X157713717Y-127211651D01*
X157691078Y-127221028D01*
X157670703Y-127234641D01*
X157653376Y-127251968D01*
X157639762Y-127272342D01*
X157637392Y-127278064D01*
X157634508Y-127283460D01*
X157633613Y-127286410D01*
X157612747Y-127325448D01*
X157584666Y-127359665D01*
X157550449Y-127387746D01*
X157511411Y-127408612D01*
X157469052Y-127421461D01*
X157425001Y-127425800D01*
X157424999Y-127425800D01*
X157380948Y-127421461D01*
X157338589Y-127408612D01*
X157299551Y-127387746D01*
X157265334Y-127359665D01*
X157237253Y-127325448D01*
X157216387Y-127286410D01*
X157215492Y-127283460D01*
X157212609Y-127278066D01*
X157210240Y-127272346D01*
X157196627Y-127251971D01*
X157179300Y-127234644D01*
X157158926Y-127221030D01*
X157136288Y-127211652D01*
X157112254Y-127206871D01*
X157087750Y-127206871D01*
X157063717Y-127211651D01*
X157041078Y-127221028D01*
X157020703Y-127234641D01*
X157003376Y-127251968D01*
X156989762Y-127272342D01*
X156987392Y-127278064D01*
X156984508Y-127283460D01*
X156983613Y-127286410D01*
X156962747Y-127325448D01*
X156934666Y-127359665D01*
X156900449Y-127387746D01*
X156861411Y-127408612D01*
X156819052Y-127421461D01*
X156775001Y-127425800D01*
X156774999Y-127425800D01*
X156730948Y-127421461D01*
X156688589Y-127408612D01*
X156649551Y-127387746D01*
X156615334Y-127359665D01*
X156587253Y-127325448D01*
X156566387Y-127286410D01*
X156553538Y-127244051D01*
X156549199Y-127200000D01*
X156549199Y-126500000D01*
X156553538Y-126455949D01*
X156566387Y-126413590D01*
X156587253Y-126374552D01*
X156607417Y-126349981D01*
X156617612Y-126334724D01*
X156626989Y-126312086D01*
X156631770Y-126288052D01*
X156631770Y-126275799D01*
X156917628Y-126275799D01*
X156920030Y-126300185D01*
X156927143Y-126323634D01*
X156938691Y-126345240D01*
X156962747Y-126374552D01*
X156983613Y-126413590D01*
X156984508Y-126416540D01*
X156987391Y-126421934D01*
X156989760Y-126427654D01*
X157003373Y-126448029D01*
X157020700Y-126465356D01*
X157041074Y-126478970D01*
X157063712Y-126488348D01*
X157087746Y-126493129D01*
X157112250Y-126493129D01*
X157136283Y-126488349D01*
X157158922Y-126478972D01*
X157179297Y-126465359D01*
X157196624Y-126448032D01*
X157210238Y-126427658D01*
X157212608Y-126421936D01*
X157215492Y-126416540D01*
X157216387Y-126413590D01*
X157237253Y-126374552D01*
X157257417Y-126349981D01*
X157267612Y-126334724D01*
X157276989Y-126312086D01*
X157281770Y-126288052D01*
X157281770Y-126275799D01*
X157567628Y-126275799D01*
X157570030Y-126300185D01*
X157577143Y-126323634D01*
X157588691Y-126345240D01*
X157612747Y-126374552D01*
X157633613Y-126413590D01*
X157634508Y-126416540D01*
X157637391Y-126421934D01*
X157639760Y-126427654D01*
X157653373Y-126448029D01*
X157670700Y-126465356D01*
X157691074Y-126478970D01*
X157713712Y-126488348D01*
X157737746Y-126493129D01*
X157762250Y-126493129D01*
X157786283Y-126488349D01*
X157808922Y-126478972D01*
X157829297Y-126465359D01*
X157846624Y-126448032D01*
X157860238Y-126427658D01*
X157862608Y-126421936D01*
X157865492Y-126416540D01*
X157866387Y-126413590D01*
X157887253Y-126374552D01*
X157907417Y-126349981D01*
X157917612Y-126334724D01*
X157926989Y-126312086D01*
X157931770Y-126288052D01*
X157931770Y-126275799D01*
X158217628Y-126275799D01*
X158220030Y-126300185D01*
X158227143Y-126323634D01*
X158238691Y-126345240D01*
X158262747Y-126374552D01*
X158283613Y-126413590D01*
X158284508Y-126416540D01*
X158287391Y-126421934D01*
X158289760Y-126427654D01*
X158303373Y-126448029D01*
X158320700Y-126465356D01*
X158341074Y-126478970D01*
X158363712Y-126488348D01*
X158387746Y-126493129D01*
X158412250Y-126493129D01*
X158436283Y-126488349D01*
X158458922Y-126478972D01*
X158479297Y-126465359D01*
X158496624Y-126448032D01*
X158510238Y-126427658D01*
X158512608Y-126421936D01*
X158515492Y-126416540D01*
X158516387Y-126413590D01*
X158537253Y-126374552D01*
X158557417Y-126349981D01*
X158567612Y-126334724D01*
X158576989Y-126312086D01*
X158581770Y-126288052D01*
X158581770Y-126263548D01*
X158576990Y-126239515D01*
X158567613Y-126216876D01*
X158553999Y-126196502D01*
X158536673Y-126179174D01*
X158516298Y-126165560D01*
X158493660Y-126156183D01*
X158469626Y-126151402D01*
X158457373Y-126150800D01*
X158342627Y-126150800D01*
X158318241Y-126153202D01*
X158294792Y-126160315D01*
X158273181Y-126171866D01*
X158254239Y-126187411D01*
X158238694Y-126206353D01*
X158227143Y-126227964D01*
X158220030Y-126251413D01*
X158217628Y-126275799D01*
X157931770Y-126275799D01*
X157931770Y-126263548D01*
X157926990Y-126239515D01*
X157917613Y-126216876D01*
X157903999Y-126196502D01*
X157886673Y-126179174D01*
X157866298Y-126165560D01*
X157843660Y-126156183D01*
X157819626Y-126151402D01*
X157807373Y-126150800D01*
X157692627Y-126150800D01*
X157668241Y-126153202D01*
X157644792Y-126160315D01*
X157623181Y-126171866D01*
X157604239Y-126187411D01*
X157588694Y-126206353D01*
X157577143Y-126227964D01*
X157570030Y-126251413D01*
X157567628Y-126275799D01*
X157281770Y-126275799D01*
X157281770Y-126263548D01*
X157276990Y-126239515D01*
X157267613Y-126216876D01*
X157253999Y-126196502D01*
X157236673Y-126179174D01*
X157216298Y-126165560D01*
X157193660Y-126156183D01*
X157169626Y-126151402D01*
X157157373Y-126150800D01*
X157042627Y-126150800D01*
X157018241Y-126153202D01*
X156994792Y-126160315D01*
X156973181Y-126171866D01*
X156954239Y-126187411D01*
X156938694Y-126206353D01*
X156927143Y-126227964D01*
X156920030Y-126251413D01*
X156917628Y-126275799D01*
X156631770Y-126275799D01*
X156631770Y-126263548D01*
X156626990Y-126239515D01*
X156617613Y-126216876D01*
X156603999Y-126196502D01*
X156586673Y-126179174D01*
X156566298Y-126165560D01*
X156543660Y-126156183D01*
X156519626Y-126151402D01*
X156507373Y-126150800D01*
X156349200Y-126150800D01*
X156349200Y-125992627D01*
X156346798Y-125968241D01*
X156339685Y-125944792D01*
X156328134Y-125923181D01*
X156312589Y-125904239D01*
X156293647Y-125888694D01*
X156272036Y-125877143D01*
X156248587Y-125870030D01*
X156224201Y-125867628D01*
X156199815Y-125870030D01*
X156176366Y-125877143D01*
X156154760Y-125888691D01*
X156125448Y-125912747D01*
X156086410Y-125933613D01*
X156044051Y-125946462D01*
X156000000Y-125950801D01*
X155300000Y-125950801D01*
X155255949Y-125946462D01*
X155213590Y-125933613D01*
X155174552Y-125912747D01*
X155140335Y-125884666D01*
X155112254Y-125850449D01*
X155091388Y-125811411D01*
X155078539Y-125769052D01*
X155074200Y-125725001D01*
X155074200Y-125724999D01*
X155078539Y-125680948D01*
X155091388Y-125638589D01*
X155112254Y-125599551D01*
X155140335Y-125565334D01*
X155174552Y-125537253D01*
X155213590Y-125516387D01*
X155216540Y-125515492D01*
X155221934Y-125512609D01*
X155227654Y-125510240D01*
X155248029Y-125496627D01*
X155265356Y-125479300D01*
X155278970Y-125458926D01*
X155288348Y-125436288D01*
X155293129Y-125412254D01*
X155293129Y-125387750D01*
X155293129Y-125387746D01*
X156006871Y-125387746D01*
X156006871Y-125412250D01*
X156011651Y-125436283D01*
X156021028Y-125458922D01*
X156034641Y-125479297D01*
X156051968Y-125496624D01*
X156072342Y-125510238D01*
X156078064Y-125512608D01*
X156083460Y-125515492D01*
X156086410Y-125516387D01*
X156125448Y-125537253D01*
X156150019Y-125557417D01*
X156165276Y-125567612D01*
X156187914Y-125576989D01*
X156211948Y-125581770D01*
X156236452Y-125581770D01*
X156260485Y-125576990D01*
X156283124Y-125567613D01*
X156303498Y-125553999D01*
X156320826Y-125536673D01*
X156334440Y-125516298D01*
X156343817Y-125493660D01*
X156348598Y-125469626D01*
X156349200Y-125457373D01*
X156349200Y-125342627D01*
X159150800Y-125342627D01*
X159150800Y-125457373D01*
X159153202Y-125481759D01*
X159160315Y-125505208D01*
X159171866Y-125526819D01*
X159187411Y-125545761D01*
X159206353Y-125561306D01*
X159227964Y-125572857D01*
X159251413Y-125579970D01*
X159275799Y-125582372D01*
X159300185Y-125579970D01*
X159323634Y-125572857D01*
X159345240Y-125561309D01*
X159374552Y-125537253D01*
X159413590Y-125516387D01*
X159416540Y-125515492D01*
X159421934Y-125512609D01*
X159427654Y-125510240D01*
X159448029Y-125496627D01*
X159465356Y-125479300D01*
X159478970Y-125458926D01*
X159488348Y-125436288D01*
X159493129Y-125412254D01*
X159493129Y-125387750D01*
X159488349Y-125363717D01*
X159478972Y-125341078D01*
X159465359Y-125320703D01*
X159448032Y-125303376D01*
X159427658Y-125289762D01*
X159421936Y-125287392D01*
X159416540Y-125284508D01*
X159413590Y-125283613D01*
X159374552Y-125262747D01*
X159349981Y-125242583D01*
X159334724Y-125232388D01*
X159312086Y-125223011D01*
X159288052Y-125218230D01*
X159263548Y-125218230D01*
X159239515Y-125223010D01*
X159216876Y-125232387D01*
X159196502Y-125246001D01*
X159179174Y-125263327D01*
X159165560Y-125283702D01*
X159156183Y-125306340D01*
X159151402Y-125330374D01*
X159150800Y-125342627D01*
X156349200Y-125342627D01*
X156346798Y-125318241D01*
X156339685Y-125294792D01*
X156328134Y-125273181D01*
X156312589Y-125254239D01*
X156293647Y-125238694D01*
X156272036Y-125227143D01*
X156248587Y-125220030D01*
X156224201Y-125217628D01*
X156199815Y-125220030D01*
X156176366Y-125227143D01*
X156154760Y-125238691D01*
X156125448Y-125262747D01*
X156086410Y-125283613D01*
X156083460Y-125284508D01*
X156078066Y-125287391D01*
X156072346Y-125289760D01*
X156051971Y-125303373D01*
X156034644Y-125320700D01*
X156021030Y-125341074D01*
X156011652Y-125363712D01*
X156006871Y-125387746D01*
X155293129Y-125387746D01*
X155288349Y-125363717D01*
X155278972Y-125341078D01*
X155265359Y-125320703D01*
X155248032Y-125303376D01*
X155227658Y-125289762D01*
X155221936Y-125287392D01*
X155216540Y-125284508D01*
X155213590Y-125283613D01*
X155174552Y-125262747D01*
X155140335Y-125234666D01*
X155112254Y-125200449D01*
X155091388Y-125161411D01*
X155078539Y-125119052D01*
X155074200Y-125075001D01*
X155074200Y-125074999D01*
X155078539Y-125030948D01*
X155091388Y-124988589D01*
X155112254Y-124949551D01*
X155140335Y-124915334D01*
X155174552Y-124887253D01*
X155213590Y-124866387D01*
X155216540Y-124865492D01*
X155221934Y-124862609D01*
X155227654Y-124860240D01*
X155248029Y-124846627D01*
X155265356Y-124829300D01*
X155278970Y-124808926D01*
X155288348Y-124786288D01*
X155293129Y-124762254D01*
X155293129Y-124737750D01*
X155293129Y-124737746D01*
X156006871Y-124737746D01*
X156006871Y-124762250D01*
X156011651Y-124786283D01*
X156021028Y-124808922D01*
X156034641Y-124829297D01*
X156051968Y-124846624D01*
X156072342Y-124860238D01*
X156078064Y-124862608D01*
X156083460Y-124865492D01*
X156086410Y-124866387D01*
X156125448Y-124887253D01*
X156150019Y-124907417D01*
X156165276Y-124917612D01*
X156187914Y-124926989D01*
X156211948Y-124931770D01*
X156236452Y-124931770D01*
X156260485Y-124926990D01*
X156283124Y-124917613D01*
X156303498Y-124903999D01*
X156320826Y-124886673D01*
X156334440Y-124866298D01*
X156343817Y-124843660D01*
X156348598Y-124819626D01*
X156349200Y-124807373D01*
X156349200Y-124692627D01*
X159150800Y-124692627D01*
X159150800Y-124807373D01*
X159153202Y-124831759D01*
X159160315Y-124855208D01*
X159171866Y-124876819D01*
X159187411Y-124895761D01*
X159206353Y-124911306D01*
X159227964Y-124922857D01*
X159251413Y-124929970D01*
X159275799Y-124932372D01*
X159300185Y-124929970D01*
X159323634Y-124922857D01*
X159345240Y-124911309D01*
X159374552Y-124887253D01*
X159413590Y-124866387D01*
X159416540Y-124865492D01*
X159421934Y-124862609D01*
X159427654Y-124860240D01*
X159448029Y-124846627D01*
X159465356Y-124829300D01*
X159478970Y-124808926D01*
X159488348Y-124786288D01*
X159493129Y-124762254D01*
X159493129Y-124737750D01*
X159488349Y-124713717D01*
X159478972Y-124691078D01*
X159465359Y-124670703D01*
X159448032Y-124653376D01*
X159427658Y-124639762D01*
X159421936Y-124637392D01*
X159416540Y-124634508D01*
X159413590Y-124633613D01*
X159374552Y-124612747D01*
X159349981Y-124592583D01*
X159334724Y-124582388D01*
X159312086Y-124573011D01*
X159288052Y-124568230D01*
X159263548Y-124568230D01*
X159239515Y-124573010D01*
X159216876Y-124582387D01*
X159196502Y-124596001D01*
X159179174Y-124613327D01*
X159165560Y-124633702D01*
X159156183Y-124656340D01*
X159151402Y-124680374D01*
X159150800Y-124692627D01*
X156349200Y-124692627D01*
X156346798Y-124668241D01*
X156339685Y-124644792D01*
X156328134Y-124623181D01*
X156312589Y-124604239D01*
X156293647Y-124588694D01*
X156272036Y-124577143D01*
X156248587Y-124570030D01*
X156224201Y-124567628D01*
X156199815Y-124570030D01*
X156176366Y-124577143D01*
X156154760Y-124588691D01*
X156125448Y-124612747D01*
X156086410Y-124633613D01*
X156083460Y-124634508D01*
X156078066Y-124637391D01*
X156072346Y-124639760D01*
X156051971Y-124653373D01*
X156034644Y-124670700D01*
X156021030Y-124691074D01*
X156011652Y-124713712D01*
X156006871Y-124737746D01*
X155293129Y-124737746D01*
X155288349Y-124713717D01*
X155278972Y-124691078D01*
X155265359Y-124670703D01*
X155248032Y-124653376D01*
X155227658Y-124639762D01*
X155221936Y-124637392D01*
X155216540Y-124634508D01*
X155213590Y-124633613D01*
X155174552Y-124612747D01*
X155140335Y-124584666D01*
X155112254Y-124550449D01*
X155091388Y-124511411D01*
X155078539Y-124469052D01*
X155074200Y-124425001D01*
X155074200Y-124424999D01*
X155078539Y-124380948D01*
X155091388Y-124338589D01*
X155112254Y-124299551D01*
X155140335Y-124265334D01*
X155174552Y-124237253D01*
X155213590Y-124216387D01*
X155216540Y-124215492D01*
X155221934Y-124212609D01*
X155227654Y-124210240D01*
X155248029Y-124196627D01*
X155265356Y-124179300D01*
X155278970Y-124158926D01*
X155288348Y-124136288D01*
X155293129Y-124112254D01*
X155293129Y-124087750D01*
X155293129Y-124087746D01*
X156006871Y-124087746D01*
X156006871Y-124112250D01*
X156011651Y-124136283D01*
X156021028Y-124158922D01*
X156034641Y-124179297D01*
X156051968Y-124196624D01*
X156072342Y-124210238D01*
X156078064Y-124212608D01*
X156083460Y-124215492D01*
X156086410Y-124216387D01*
X156125448Y-124237253D01*
X156150019Y-124257417D01*
X156165276Y-124267612D01*
X156187914Y-124276989D01*
X156211948Y-124281770D01*
X156236452Y-124281770D01*
X156260485Y-124276990D01*
X156283124Y-124267613D01*
X156303498Y-124253999D01*
X156320826Y-124236673D01*
X156334440Y-124216298D01*
X156343817Y-124193660D01*
X156348598Y-124169626D01*
X156349200Y-124157373D01*
X156349200Y-124042627D01*
X159150800Y-124042627D01*
X159150800Y-124157373D01*
X159153202Y-124181759D01*
X159160315Y-124205208D01*
X159171866Y-124226819D01*
X159187411Y-124245761D01*
X159206353Y-124261306D01*
X159227964Y-124272857D01*
X159251413Y-124279970D01*
X159275799Y-124282372D01*
X159300185Y-124279970D01*
X159323634Y-124272857D01*
X159345240Y-124261309D01*
X159374552Y-124237253D01*
X159413590Y-124216387D01*
X159416540Y-124215492D01*
X159421934Y-124212609D01*
X159427654Y-124210240D01*
X159448029Y-124196627D01*
X159465356Y-124179300D01*
X159478970Y-124158926D01*
X159488348Y-124136288D01*
X159493129Y-124112254D01*
X159493129Y-124087750D01*
X159488349Y-124063717D01*
X159478972Y-124041078D01*
X159465359Y-124020703D01*
X159448032Y-124003376D01*
X159427658Y-123989762D01*
X159421936Y-123987392D01*
X159416540Y-123984508D01*
X159413590Y-123983613D01*
X159374552Y-123962747D01*
X159349981Y-123942583D01*
X159334724Y-123932388D01*
X159312086Y-123923011D01*
X159288052Y-123918230D01*
X159263548Y-123918230D01*
X159239515Y-123923010D01*
X159216876Y-123932387D01*
X159196502Y-123946001D01*
X159179174Y-123963327D01*
X159165560Y-123983702D01*
X159156183Y-124006340D01*
X159151402Y-124030374D01*
X159150800Y-124042627D01*
X156349200Y-124042627D01*
X156346798Y-124018241D01*
X156339685Y-123994792D01*
X156328134Y-123973181D01*
X156312589Y-123954239D01*
X156293647Y-123938694D01*
X156272036Y-123927143D01*
X156248587Y-123920030D01*
X156224201Y-123917628D01*
X156199815Y-123920030D01*
X156176366Y-123927143D01*
X156154760Y-123938691D01*
X156125448Y-123962747D01*
X156086410Y-123983613D01*
X156083460Y-123984508D01*
X156078066Y-123987391D01*
X156072346Y-123989760D01*
X156051971Y-124003373D01*
X156034644Y-124020700D01*
X156021030Y-124041074D01*
X156011652Y-124063712D01*
X156006871Y-124087746D01*
X155293129Y-124087746D01*
X155288349Y-124063717D01*
X155278972Y-124041078D01*
X155265359Y-124020703D01*
X155248032Y-124003376D01*
X155227658Y-123989762D01*
X155221936Y-123987392D01*
X155216540Y-123984508D01*
X155213590Y-123983613D01*
X155174552Y-123962747D01*
X155140335Y-123934666D01*
X155112254Y-123900449D01*
X155091388Y-123861411D01*
X155078539Y-123819052D01*
X155074200Y-123775001D01*
X155074200Y-123774999D01*
X155078539Y-123730948D01*
X155091388Y-123688589D01*
X155112254Y-123649551D01*
X155140335Y-123615334D01*
X155174552Y-123587253D01*
X155213590Y-123566387D01*
X155255949Y-123553538D01*
X155300000Y-123549199D01*
X156000000Y-123549199D01*
X156044051Y-123553538D01*
X156086410Y-123566387D01*
X156125448Y-123587253D01*
X156150019Y-123607417D01*
X156165276Y-123617612D01*
X156187914Y-123626989D01*
X156211948Y-123631770D01*
X156236452Y-123631770D01*
X156260485Y-123626990D01*
X156283124Y-123617613D01*
X156303498Y-123603999D01*
X156320826Y-123586673D01*
X156334440Y-123566298D01*
X156343817Y-123543660D01*
X156348598Y-123519626D01*
X156349200Y-123507373D01*
X156349200Y-123349200D01*
X156507373Y-123349200D01*
X156531759Y-123346798D01*
X156555208Y-123339685D01*
X156576819Y-123328134D01*
X156595761Y-123312589D01*
X156611306Y-123293647D01*
X156622857Y-123272036D01*
X156629970Y-123248587D01*
X156632372Y-123224201D01*
X156631166Y-123211948D01*
X156918230Y-123211948D01*
X156918230Y-123236452D01*
X156923010Y-123260485D01*
X156932387Y-123283124D01*
X156946001Y-123303498D01*
X156963327Y-123320826D01*
X156983702Y-123334440D01*
X157006340Y-123343817D01*
X157030374Y-123348598D01*
X157042627Y-123349200D01*
X157157373Y-123349200D01*
X157181759Y-123346798D01*
X157205208Y-123339685D01*
X157226819Y-123328134D01*
X157245761Y-123312589D01*
X157261306Y-123293647D01*
X157272857Y-123272036D01*
X157279970Y-123248587D01*
X157282372Y-123224201D01*
X157281166Y-123211948D01*
X157568230Y-123211948D01*
X157568230Y-123236452D01*
X157573010Y-123260485D01*
X157582387Y-123283124D01*
X157596001Y-123303498D01*
X157613327Y-123320826D01*
X157633702Y-123334440D01*
X157656340Y-123343817D01*
X157680374Y-123348598D01*
X157692627Y-123349200D01*
X157807373Y-123349200D01*
X157831759Y-123346798D01*
X157855208Y-123339685D01*
X157876819Y-123328134D01*
X157895761Y-123312589D01*
X157911306Y-123293647D01*
X157922857Y-123272036D01*
X157929970Y-123248587D01*
X157932372Y-123224201D01*
X157931166Y-123211948D01*
X158218230Y-123211948D01*
X158218230Y-123236452D01*
X158223010Y-123260485D01*
X158232387Y-123283124D01*
X158246001Y-123303498D01*
X158263327Y-123320826D01*
X158283702Y-123334440D01*
X158306340Y-123343817D01*
X158330374Y-123348598D01*
X158342627Y-123349200D01*
X158457373Y-123349200D01*
X158481759Y-123346798D01*
X158505208Y-123339685D01*
X158526819Y-123328134D01*
X158545761Y-123312589D01*
X158561306Y-123293647D01*
X158572857Y-123272036D01*
X158579970Y-123248587D01*
X158582372Y-123224201D01*
X158579970Y-123199815D01*
X158572857Y-123176366D01*
X158561309Y-123154760D01*
X158537253Y-123125448D01*
X158516387Y-123086410D01*
X158515492Y-123083460D01*
X158512609Y-123078066D01*
X158510240Y-123072346D01*
X158496627Y-123051971D01*
X158479300Y-123034644D01*
X158458926Y-123021030D01*
X158436288Y-123011652D01*
X158412254Y-123006871D01*
X158387750Y-123006871D01*
X158363717Y-123011651D01*
X158341078Y-123021028D01*
X158320703Y-123034641D01*
X158303376Y-123051968D01*
X158289762Y-123072342D01*
X158287392Y-123078064D01*
X158284508Y-123083460D01*
X158283613Y-123086410D01*
X158262747Y-123125448D01*
X158242583Y-123150019D01*
X158232388Y-123165276D01*
X158223011Y-123187914D01*
X158218230Y-123211948D01*
X157931166Y-123211948D01*
X157929970Y-123199815D01*
X157922857Y-123176366D01*
X157911309Y-123154760D01*
X157887253Y-123125448D01*
X157866387Y-123086410D01*
X157865492Y-123083460D01*
X157862609Y-123078066D01*
X157860240Y-123072346D01*
X157846627Y-123051971D01*
X157829300Y-123034644D01*
X157808926Y-123021030D01*
X157786288Y-123011652D01*
X157762254Y-123006871D01*
X157737750Y-123006871D01*
X157713717Y-123011651D01*
X157691078Y-123021028D01*
X157670703Y-123034641D01*
X157653376Y-123051968D01*
X157639762Y-123072342D01*
X157637392Y-123078064D01*
X157634508Y-123083460D01*
X157633613Y-123086410D01*
X157612747Y-123125448D01*
X157592583Y-123150019D01*
X157582388Y-123165276D01*
X157573011Y-123187914D01*
X157568230Y-123211948D01*
X157281166Y-123211948D01*
X157279970Y-123199815D01*
X157272857Y-123176366D01*
X157261309Y-123154760D01*
X157237253Y-123125448D01*
X157216387Y-123086410D01*
X157215492Y-123083460D01*
X157212609Y-123078066D01*
X157210240Y-123072346D01*
X157196627Y-123051971D01*
X157179300Y-123034644D01*
X157158926Y-123021030D01*
X157136288Y-123011652D01*
X157112254Y-123006871D01*
X157087750Y-123006871D01*
X157063717Y-123011651D01*
X157041078Y-123021028D01*
X157020703Y-123034641D01*
X157003376Y-123051968D01*
X156989762Y-123072342D01*
X156987392Y-123078064D01*
X156984508Y-123083460D01*
X156983613Y-123086410D01*
X156962747Y-123125448D01*
X156942583Y-123150019D01*
X156932388Y-123165276D01*
X156923011Y-123187914D01*
X156918230Y-123211948D01*
X156631166Y-123211948D01*
X156629970Y-123199815D01*
X156622857Y-123176366D01*
X156611309Y-123154760D01*
X156587253Y-123125448D01*
X156566387Y-123086410D01*
X156553538Y-123044051D01*
X156549199Y-123000000D01*
X156549199Y-122300000D01*
X156553538Y-122255949D01*
X156566387Y-122213590D01*
X156587253Y-122174552D01*
X156615334Y-122140335D01*
X156649551Y-122112254D01*
X156688589Y-122091388D01*
X156730948Y-122078539D01*
X156774999Y-122074200D01*
X156775001Y-122074200D01*
X156819052Y-122078539D01*
G37*
G36*
X175588674Y-125853465D02*
G01*
X175626367Y-125864899D01*
X175661103Y-125883466D01*
X175691548Y-125908452D01*
X175716534Y-125938897D01*
X175735101Y-125973633D01*
X175746535Y-126011326D01*
X175751000Y-126056661D01*
X175751000Y-126893339D01*
X175746535Y-126938674D01*
X175735101Y-126976367D01*
X175716534Y-127011103D01*
X175691548Y-127041548D01*
X175661103Y-127066534D01*
X175626367Y-127085101D01*
X175588674Y-127096535D01*
X175543339Y-127101000D01*
X174456661Y-127101000D01*
X174411326Y-127096535D01*
X174373633Y-127085101D01*
X174338897Y-127066534D01*
X174308452Y-127041548D01*
X174283466Y-127011103D01*
X174264899Y-126976367D01*
X174253465Y-126938674D01*
X174249000Y-126893339D01*
X174249000Y-126056661D01*
X174253465Y-126011326D01*
X174264899Y-125973633D01*
X174283466Y-125938897D01*
X174308452Y-125908452D01*
X174338897Y-125883466D01*
X174373633Y-125864899D01*
X174411326Y-125853465D01*
X174456661Y-125849000D01*
X175543339Y-125849000D01*
X175588674Y-125853465D01*
G37*
G36*
X163838674Y-125603465D02*
G01*
X163876367Y-125614899D01*
X163911103Y-125633466D01*
X163941548Y-125658452D01*
X163966534Y-125688897D01*
X163985101Y-125723633D01*
X163996535Y-125761326D01*
X164001000Y-125806661D01*
X164001000Y-126643339D01*
X163996535Y-126688674D01*
X163985101Y-126726367D01*
X163966534Y-126761103D01*
X163941548Y-126791548D01*
X163911103Y-126816534D01*
X163876367Y-126835101D01*
X163838674Y-126846535D01*
X163793339Y-126851000D01*
X162706661Y-126851000D01*
X162661326Y-126846535D01*
X162623633Y-126835101D01*
X162588897Y-126816534D01*
X162558452Y-126791548D01*
X162533466Y-126761103D01*
X162514899Y-126726367D01*
X162503465Y-126688674D01*
X162499000Y-126643339D01*
X162499000Y-125806661D01*
X162503465Y-125761326D01*
X162514899Y-125723633D01*
X162533466Y-125688897D01*
X162558452Y-125658452D01*
X162588897Y-125633466D01*
X162623633Y-125614899D01*
X162661326Y-125603465D01*
X162706661Y-125599000D01*
X163793339Y-125599000D01*
X163838674Y-125603465D01*
G37*
G36*
X165838674Y-125578465D02*
G01*
X165876367Y-125589899D01*
X165911103Y-125608466D01*
X165941548Y-125633452D01*
X165966534Y-125663897D01*
X165985101Y-125698633D01*
X165996535Y-125736326D01*
X166001000Y-125781661D01*
X166001000Y-126618339D01*
X165996535Y-126663674D01*
X165985101Y-126701367D01*
X165966534Y-126736103D01*
X165941548Y-126766548D01*
X165911103Y-126791534D01*
X165876367Y-126810101D01*
X165838674Y-126821535D01*
X165793339Y-126826000D01*
X164706661Y-126826000D01*
X164661326Y-126821535D01*
X164623633Y-126810101D01*
X164588897Y-126791534D01*
X164558452Y-126766548D01*
X164533466Y-126736103D01*
X164514899Y-126701367D01*
X164503465Y-126663674D01*
X164499000Y-126618339D01*
X164499000Y-125781661D01*
X164503465Y-125736326D01*
X164514899Y-125698633D01*
X164533466Y-125663897D01*
X164558452Y-125633452D01*
X164588897Y-125608466D01*
X164623633Y-125589899D01*
X164661326Y-125578465D01*
X164706661Y-125574000D01*
X165793339Y-125574000D01*
X165838674Y-125578465D01*
G37*
G36*
X178088674Y-125328465D02*
G01*
X178126367Y-125339899D01*
X178161103Y-125358466D01*
X178191548Y-125383452D01*
X178216534Y-125413897D01*
X178235101Y-125448633D01*
X178246535Y-125486326D01*
X178251000Y-125531661D01*
X178251000Y-126368339D01*
X178246535Y-126413674D01*
X178235101Y-126451367D01*
X178216534Y-126486103D01*
X178191548Y-126516548D01*
X178161103Y-126541534D01*
X178126367Y-126560101D01*
X178088674Y-126571535D01*
X178043339Y-126576000D01*
X176956661Y-126576000D01*
X176911326Y-126571535D01*
X176873633Y-126560101D01*
X176838897Y-126541534D01*
X176808452Y-126516548D01*
X176783466Y-126486103D01*
X176764899Y-126451367D01*
X176753465Y-126413674D01*
X176749000Y-126368339D01*
X176749000Y-125531661D01*
X176753465Y-125486326D01*
X176764899Y-125448633D01*
X176783466Y-125413897D01*
X176808452Y-125383452D01*
X176838897Y-125358466D01*
X176873633Y-125339899D01*
X176911326Y-125328465D01*
X176956661Y-125324000D01*
X178043339Y-125324000D01*
X178088674Y-125328465D01*
G37*
G36*
X181351000Y-126401000D02*
G01*
X180349000Y-126401000D01*
X180349000Y-125099000D01*
X181351000Y-125099000D01*
X181351000Y-126401000D01*
G37*
G36*
X184651000Y-126401000D02*
G01*
X183649000Y-126401000D01*
X183649000Y-125099000D01*
X184651000Y-125099000D01*
X184651000Y-126401000D01*
G37*
G36*
X273107457Y-124959782D02*
G01*
X273210783Y-124991126D01*
X273306009Y-125042026D01*
X273389475Y-125110525D01*
X273457974Y-125193991D01*
X273508874Y-125289217D01*
X273540218Y-125392543D01*
X273550801Y-125499999D01*
X273550801Y-125500001D01*
X273540218Y-125607457D01*
X273508874Y-125710783D01*
X273457974Y-125806009D01*
X273389475Y-125889475D01*
X273306009Y-125957974D01*
X273210783Y-126008874D01*
X273107457Y-126040218D01*
X273000001Y-126050801D01*
X272999999Y-126050801D01*
X272892543Y-126040218D01*
X272789217Y-126008874D01*
X272693991Y-125957974D01*
X272610525Y-125889475D01*
X272542026Y-125806009D01*
X272491126Y-125710783D01*
X272459782Y-125607457D01*
X272449199Y-125500001D01*
X272449199Y-125499999D01*
X272459782Y-125392543D01*
X272491126Y-125289217D01*
X272542026Y-125193991D01*
X272610525Y-125110525D01*
X272693991Y-125042026D01*
X272789217Y-124991126D01*
X272892543Y-124959782D01*
X272999999Y-124949199D01*
X273000001Y-124949199D01*
X273107457Y-124959782D01*
G37*
G36*
X251725562Y-124478181D02*
G01*
X251760481Y-124488774D01*
X251792663Y-124505976D01*
X251820873Y-124529127D01*
X251844024Y-124557337D01*
X251861226Y-124589519D01*
X251871819Y-124624438D01*
X251876000Y-124666895D01*
X251876000Y-125808105D01*
X251871819Y-125850562D01*
X251861226Y-125885481D01*
X251844024Y-125917663D01*
X251820873Y-125945873D01*
X251792663Y-125969024D01*
X251760481Y-125986226D01*
X251725562Y-125996819D01*
X251683105Y-126001000D01*
X249316895Y-126001000D01*
X249274438Y-125996819D01*
X249239519Y-125986226D01*
X249207337Y-125969024D01*
X249179127Y-125945873D01*
X249155976Y-125917663D01*
X249138774Y-125885481D01*
X249128181Y-125850562D01*
X249124000Y-125808105D01*
X249124000Y-124666895D01*
X249128181Y-124624438D01*
X249138774Y-124589519D01*
X249155976Y-124557337D01*
X249179127Y-124529127D01*
X249207337Y-124505976D01*
X249239519Y-124488774D01*
X249274438Y-124478181D01*
X249316895Y-124474000D01*
X251683105Y-124474000D01*
X251725562Y-124478181D01*
G37*
G36*
X163663674Y-123503465D02*
G01*
X163701367Y-123514899D01*
X163736103Y-123533466D01*
X163766548Y-123558452D01*
X163791534Y-123588897D01*
X163810101Y-123623633D01*
X163821535Y-123661326D01*
X163826000Y-123706661D01*
X163826000Y-124793339D01*
X163821535Y-124838674D01*
X163810101Y-124876367D01*
X163791534Y-124911103D01*
X163766548Y-124941548D01*
X163736103Y-124966534D01*
X163701367Y-124985101D01*
X163663674Y-124996535D01*
X163618339Y-125001000D01*
X162781661Y-125001000D01*
X162736326Y-124996535D01*
X162698633Y-124985101D01*
X162663897Y-124966534D01*
X162633452Y-124941548D01*
X162608466Y-124911103D01*
X162589899Y-124876367D01*
X162578465Y-124838674D01*
X162574000Y-124793339D01*
X162574000Y-123706661D01*
X162578465Y-123661326D01*
X162589899Y-123623633D01*
X162608466Y-123588897D01*
X162633452Y-123558452D01*
X162663897Y-123533466D01*
X162698633Y-123514899D01*
X162736326Y-123503465D01*
X162781661Y-123499000D01*
X163618339Y-123499000D01*
X163663674Y-123503465D01*
G37*
G36*
X165713674Y-123503465D02*
G01*
X165751367Y-123514899D01*
X165786103Y-123533466D01*
X165816548Y-123558452D01*
X165841534Y-123588897D01*
X165860101Y-123623633D01*
X165871535Y-123661326D01*
X165876000Y-123706661D01*
X165876000Y-124793339D01*
X165871535Y-124838674D01*
X165860101Y-124876367D01*
X165841534Y-124911103D01*
X165816548Y-124941548D01*
X165786103Y-124966534D01*
X165751367Y-124985101D01*
X165713674Y-124996535D01*
X165668339Y-125001000D01*
X164831661Y-125001000D01*
X164786326Y-124996535D01*
X164748633Y-124985101D01*
X164713897Y-124966534D01*
X164683452Y-124941548D01*
X164658466Y-124911103D01*
X164639899Y-124876367D01*
X164628465Y-124838674D01*
X164624000Y-124793339D01*
X164624000Y-123706661D01*
X164628465Y-123661326D01*
X164639899Y-123623633D01*
X164658466Y-123588897D01*
X164683452Y-123558452D01*
X164713897Y-123533466D01*
X164748633Y-123514899D01*
X164786326Y-123503465D01*
X164831661Y-123499000D01*
X165668339Y-123499000D01*
X165713674Y-123503465D01*
G37*
G36*
X153838674Y-123653465D02*
G01*
X153876367Y-123664899D01*
X153911103Y-123683466D01*
X153941548Y-123708452D01*
X153966534Y-123738897D01*
X153985101Y-123773633D01*
X153996535Y-123811326D01*
X154001000Y-123856661D01*
X154001000Y-124693339D01*
X153996535Y-124738674D01*
X153985101Y-124776367D01*
X153966534Y-124811103D01*
X153941548Y-124841548D01*
X153911103Y-124866534D01*
X153876367Y-124885101D01*
X153838674Y-124896535D01*
X153793339Y-124901000D01*
X152706661Y-124901000D01*
X152661326Y-124896535D01*
X152623633Y-124885101D01*
X152588897Y-124866534D01*
X152558452Y-124841548D01*
X152533466Y-124811103D01*
X152514899Y-124776367D01*
X152503465Y-124738674D01*
X152499000Y-124693339D01*
X152499000Y-123856661D01*
X152503465Y-123811326D01*
X152514899Y-123773633D01*
X152533466Y-123738897D01*
X152558452Y-123708452D01*
X152588897Y-123683466D01*
X152623633Y-123664899D01*
X152661326Y-123653465D01*
X152706661Y-123649000D01*
X153793339Y-123649000D01*
X153838674Y-123653465D01*
G37*
G36*
X151838674Y-123653465D02*
G01*
X151876367Y-123664899D01*
X151911103Y-123683466D01*
X151941548Y-123708452D01*
X151966534Y-123738897D01*
X151985101Y-123773633D01*
X151996535Y-123811326D01*
X152001000Y-123856661D01*
X152001000Y-124693339D01*
X151996535Y-124738674D01*
X151985101Y-124776367D01*
X151966534Y-124811103D01*
X151941548Y-124841548D01*
X151911103Y-124866534D01*
X151876367Y-124885101D01*
X151838674Y-124896535D01*
X151793339Y-124901000D01*
X150706661Y-124901000D01*
X150661326Y-124896535D01*
X150623633Y-124885101D01*
X150588897Y-124866534D01*
X150558452Y-124841548D01*
X150533466Y-124811103D01*
X150514899Y-124776367D01*
X150503465Y-124738674D01*
X150499000Y-124693339D01*
X150499000Y-123856661D01*
X150503465Y-123811326D01*
X150514899Y-123773633D01*
X150533466Y-123738897D01*
X150558452Y-123708452D01*
X150588897Y-123683466D01*
X150623633Y-123664899D01*
X150661326Y-123653465D01*
X150706661Y-123649000D01*
X151793339Y-123649000D01*
X151838674Y-123653465D01*
G37*
G36*
X227167025Y-123809799D02*
G01*
X223433225Y-123809799D01*
X223433225Y-121041199D01*
X227167025Y-121041199D01*
X227167025Y-123809799D01*
G37*
G36*
X251725562Y-121503181D02*
G01*
X251760481Y-121513774D01*
X251792663Y-121530976D01*
X251820873Y-121554127D01*
X251844024Y-121582337D01*
X251861226Y-121614519D01*
X251871819Y-121649438D01*
X251876000Y-121691895D01*
X251876000Y-122833105D01*
X251871819Y-122875562D01*
X251861226Y-122910481D01*
X251844024Y-122942663D01*
X251820873Y-122970873D01*
X251792663Y-122994024D01*
X251760481Y-123011226D01*
X251725562Y-123021819D01*
X251683105Y-123026000D01*
X249316895Y-123026000D01*
X249274438Y-123021819D01*
X249239519Y-123011226D01*
X249207337Y-122994024D01*
X249179127Y-122970873D01*
X249155976Y-122942663D01*
X249138774Y-122910481D01*
X249128181Y-122875562D01*
X249124000Y-122833105D01*
X249124000Y-121691895D01*
X249128181Y-121649438D01*
X249138774Y-121614519D01*
X249155976Y-121582337D01*
X249179127Y-121554127D01*
X249207337Y-121530976D01*
X249239519Y-121513774D01*
X249274438Y-121503181D01*
X249316895Y-121499000D01*
X251683105Y-121499000D01*
X251725562Y-121503181D01*
G37*
G36*
X163663674Y-121503465D02*
G01*
X163701367Y-121514899D01*
X163736103Y-121533466D01*
X163766548Y-121558452D01*
X163791534Y-121588897D01*
X163810101Y-121623633D01*
X163821535Y-121661326D01*
X163826000Y-121706661D01*
X163826000Y-122793339D01*
X163821535Y-122838674D01*
X163810101Y-122876367D01*
X163791534Y-122911103D01*
X163766548Y-122941548D01*
X163736103Y-122966534D01*
X163701367Y-122985101D01*
X163663674Y-122996535D01*
X163618339Y-123001000D01*
X162781661Y-123001000D01*
X162736326Y-122996535D01*
X162698633Y-122985101D01*
X162663897Y-122966534D01*
X162633452Y-122941548D01*
X162608466Y-122911103D01*
X162589899Y-122876367D01*
X162578465Y-122838674D01*
X162574000Y-122793339D01*
X162574000Y-121706661D01*
X162578465Y-121661326D01*
X162589899Y-121623633D01*
X162608466Y-121588897D01*
X162633452Y-121558452D01*
X162663897Y-121533466D01*
X162698633Y-121514899D01*
X162736326Y-121503465D01*
X162781661Y-121499000D01*
X163618339Y-121499000D01*
X163663674Y-121503465D01*
G37*
G36*
X165713674Y-121503465D02*
G01*
X165751367Y-121514899D01*
X165786103Y-121533466D01*
X165816548Y-121558452D01*
X165841534Y-121588897D01*
X165860101Y-121623633D01*
X165871535Y-121661326D01*
X165876000Y-121706661D01*
X165876000Y-122793339D01*
X165871535Y-122838674D01*
X165860101Y-122876367D01*
X165841534Y-122911103D01*
X165816548Y-122941548D01*
X165786103Y-122966534D01*
X165751367Y-122985101D01*
X165713674Y-122996535D01*
X165668339Y-123001000D01*
X164831661Y-123001000D01*
X164786326Y-122996535D01*
X164748633Y-122985101D01*
X164713897Y-122966534D01*
X164683452Y-122941548D01*
X164658466Y-122911103D01*
X164639899Y-122876367D01*
X164628465Y-122838674D01*
X164624000Y-122793339D01*
X164624000Y-121706661D01*
X164628465Y-121661326D01*
X164639899Y-121623633D01*
X164658466Y-121588897D01*
X164683452Y-121558452D01*
X164713897Y-121533466D01*
X164748633Y-121514899D01*
X164786326Y-121503465D01*
X164831661Y-121499000D01*
X165668339Y-121499000D01*
X165713674Y-121503465D01*
G37*
G36*
X153838674Y-121603465D02*
G01*
X153876367Y-121614899D01*
X153911103Y-121633466D01*
X153941548Y-121658452D01*
X153966534Y-121688897D01*
X153985101Y-121723633D01*
X153996535Y-121761326D01*
X154001000Y-121806661D01*
X154001000Y-122643339D01*
X153996535Y-122688674D01*
X153985101Y-122726367D01*
X153966534Y-122761103D01*
X153941548Y-122791548D01*
X153911103Y-122816534D01*
X153876367Y-122835101D01*
X153838674Y-122846535D01*
X153793339Y-122851000D01*
X152706661Y-122851000D01*
X152661326Y-122846535D01*
X152623633Y-122835101D01*
X152588897Y-122816534D01*
X152558452Y-122791548D01*
X152533466Y-122761103D01*
X152514899Y-122726367D01*
X152503465Y-122688674D01*
X152499000Y-122643339D01*
X152499000Y-121806661D01*
X152503465Y-121761326D01*
X152514899Y-121723633D01*
X152533466Y-121688897D01*
X152558452Y-121658452D01*
X152588897Y-121633466D01*
X152623633Y-121614899D01*
X152661326Y-121603465D01*
X152706661Y-121599000D01*
X153793339Y-121599000D01*
X153838674Y-121603465D01*
G37*
G36*
X151838674Y-121603465D02*
G01*
X151876367Y-121614899D01*
X151911103Y-121633466D01*
X151941548Y-121658452D01*
X151966534Y-121688897D01*
X151985101Y-121723633D01*
X151996535Y-121761326D01*
X152001000Y-121806661D01*
X152001000Y-122643339D01*
X151996535Y-122688674D01*
X151985101Y-122726367D01*
X151966534Y-122761103D01*
X151941548Y-122791548D01*
X151911103Y-122816534D01*
X151876367Y-122835101D01*
X151838674Y-122846535D01*
X151793339Y-122851000D01*
X150706661Y-122851000D01*
X150661326Y-122846535D01*
X150623633Y-122835101D01*
X150588897Y-122816534D01*
X150558452Y-122791548D01*
X150533466Y-122761103D01*
X150514899Y-122726367D01*
X150503465Y-122688674D01*
X150499000Y-122643339D01*
X150499000Y-121806661D01*
X150503465Y-121761326D01*
X150514899Y-121723633D01*
X150533466Y-121688897D01*
X150558452Y-121658452D01*
X150588897Y-121633466D01*
X150623633Y-121614899D01*
X150661326Y-121603465D01*
X150706661Y-121599000D01*
X151793339Y-121599000D01*
X151838674Y-121603465D01*
G37*
M02*
