G04 #@! TF.GenerationSoftware,KiCad,Pcbnew,(5.1.5)-3*
G04 #@! TF.CreationDate,2020-04-11T14:24:40-04:00*
G04 #@! TF.ProjectId,PowerBoth,506f7765-7242-46f7-9468-2e6b69636164,rev?*
G04 #@! TF.SameCoordinates,Original*
G04 #@! TF.FileFunction,Copper,L1,Top*
G04 #@! TF.FilePolarity,Positive*
%FSLAX46Y46*%
G04 Gerber Fmt 4.6, Leading zero omitted, Abs format (unit mm)*
G04 Created by KiCad (PCBNEW (5.1.5)-3) date 2020-04-11 14:24:40*
%MOMM*%
%LPD*%
G04 APERTURE LIST*
%ADD10O,1.500000X2.300000*%
%ADD11O,1.200000X2.300000*%
%ADD12C,1.200000*%
%ADD13R,1.200000X1.200000*%
%ADD14R,1.654900X0.582600*%
%ADD15R,2.200000X0.600000*%
%ADD16R,2.570000X1.650000*%
%ADD17R,1.803000X1.600000*%
%ADD18R,2.700000X1.600000*%
%ADD19R,1.100000X1.000000*%
%ADD20R,1.600000X1.803000*%
%ADD21C,0.100000*%
%ADD22R,1.800000X1.600000*%
%ADD23R,1.500000X1.300000*%
%ADD24R,0.600000X2.200000*%
%ADD25R,2.574000X3.220400*%
%ADD26C,0.752400*%
%ADD27C,0.800000*%
%ADD28C,2.000000*%
%ADD29C,1.000000*%
%ADD30C,0.400000*%
%ADD31C,2.000000*%
%ADD32C,1.000000*%
%ADD33C,0.250000*%
%ADD34C,0.500000*%
%ADD35C,0.050000*%
%ADD36C,0.254000*%
G04 APERTURE END LIST*
D10*
X262700125Y-135451399D03*
X257500125Y-135451399D03*
X254100125Y-135451399D03*
D11*
X253700125Y-142751399D03*
X263600125Y-142751399D03*
D12*
X267836415Y-132718709D03*
X267836415Y-134718709D03*
X267836415Y-136718709D03*
X267836415Y-138718709D03*
D13*
X267836415Y-140718709D03*
D14*
X240478775Y-125856399D03*
X240478775Y-124586399D03*
X240478775Y-123316399D03*
X240478775Y-122046399D03*
X246121475Y-122046399D03*
X246121475Y-123316399D03*
X246121475Y-124586399D03*
X246121475Y-125856399D03*
D15*
X240700125Y-127546399D03*
X240700125Y-128816399D03*
X240700125Y-131356399D03*
X245900125Y-127546399D03*
X245900125Y-128816399D03*
X245900125Y-131356399D03*
X240700125Y-130086399D03*
X245900125Y-130086399D03*
D16*
X254340000Y-131250000D03*
X257860000Y-131250000D03*
X232540125Y-130201399D03*
X236060125Y-130201399D03*
D17*
X237800125Y-122529399D03*
X237800125Y-125373399D03*
D18*
X250300125Y-130851399D03*
X250300125Y-128051399D03*
X252500000Y-122150000D03*
X252500000Y-124950000D03*
D19*
X250150125Y-126351399D03*
X248450125Y-126351399D03*
D17*
X249500000Y-121929399D03*
X249500000Y-124773399D03*
D20*
X226222000Y-122250000D03*
X223378000Y-122250000D03*
G04 #@! TA.AperFunction,SMDPad,CuDef*
D21*
G36*
X214499010Y-121502407D02*
G01*
X214547546Y-121509606D01*
X214595143Y-121521529D01*
X214641343Y-121538059D01*
X214685699Y-121559038D01*
X214727786Y-121584264D01*
X214767198Y-121613494D01*
X214803554Y-121646446D01*
X214836506Y-121682802D01*
X214865736Y-121722214D01*
X214890962Y-121764301D01*
X214911941Y-121808657D01*
X214928471Y-121854857D01*
X214940394Y-121902454D01*
X214947593Y-121950990D01*
X214950001Y-121999999D01*
X214950001Y-122000001D01*
X214947593Y-122049010D01*
X214940394Y-122097546D01*
X214928471Y-122145143D01*
X214911941Y-122191343D01*
X214890962Y-122235699D01*
X214865736Y-122277786D01*
X214836506Y-122317198D01*
X214803554Y-122353554D01*
X214767198Y-122386506D01*
X214727786Y-122415736D01*
X214685699Y-122440962D01*
X214641343Y-122461941D01*
X214595143Y-122478471D01*
X214547546Y-122490394D01*
X214499010Y-122497593D01*
X214450001Y-122500001D01*
X214449999Y-122500001D01*
X214400990Y-122497593D01*
X214352454Y-122490394D01*
X214304857Y-122478471D01*
X214258657Y-122461941D01*
X214214301Y-122440962D01*
X214172214Y-122415736D01*
X214132802Y-122386506D01*
X214096446Y-122353554D01*
X214063494Y-122317198D01*
X214034264Y-122277786D01*
X214009038Y-122235699D01*
X213988059Y-122191343D01*
X213971529Y-122145143D01*
X213959606Y-122097546D01*
X213952407Y-122049010D01*
X213949999Y-122000001D01*
X213949999Y-121999999D01*
X213952407Y-121950990D01*
X213959606Y-121902454D01*
X213971529Y-121854857D01*
X213988059Y-121808657D01*
X214009038Y-121764301D01*
X214034264Y-121722214D01*
X214063494Y-121682802D01*
X214096446Y-121646446D01*
X214132802Y-121613494D01*
X214172214Y-121584264D01*
X214214301Y-121559038D01*
X214258657Y-121538059D01*
X214304857Y-121521529D01*
X214352454Y-121509606D01*
X214400990Y-121502407D01*
X214449999Y-121499999D01*
X214450001Y-121499999D01*
X214499010Y-121502407D01*
G37*
G04 #@! TD.AperFunction*
G04 #@! TA.AperFunction,SMDPad,CuDef*
G36*
X209049010Y-123602407D02*
G01*
X209097546Y-123609606D01*
X209145143Y-123621529D01*
X209191343Y-123638059D01*
X209235699Y-123659038D01*
X209277786Y-123684264D01*
X209317198Y-123713494D01*
X209353554Y-123746446D01*
X209386506Y-123782802D01*
X209415736Y-123822214D01*
X209440962Y-123864301D01*
X209461941Y-123908657D01*
X209478471Y-123954857D01*
X209490394Y-124002454D01*
X209497593Y-124050990D01*
X209500001Y-124099999D01*
X209500001Y-124100001D01*
X209497593Y-124149010D01*
X209490394Y-124197546D01*
X209478471Y-124245143D01*
X209461941Y-124291343D01*
X209440962Y-124335699D01*
X209415736Y-124377786D01*
X209386506Y-124417198D01*
X209353554Y-124453554D01*
X209317198Y-124486506D01*
X209277786Y-124515736D01*
X209235699Y-124540962D01*
X209191343Y-124561941D01*
X209145143Y-124578471D01*
X209097546Y-124590394D01*
X209049010Y-124597593D01*
X209000001Y-124600001D01*
X208999999Y-124600001D01*
X208950990Y-124597593D01*
X208902454Y-124590394D01*
X208854857Y-124578471D01*
X208808657Y-124561941D01*
X208764301Y-124540962D01*
X208722214Y-124515736D01*
X208682802Y-124486506D01*
X208646446Y-124453554D01*
X208613494Y-124417198D01*
X208584264Y-124377786D01*
X208559038Y-124335699D01*
X208538059Y-124291343D01*
X208521529Y-124245143D01*
X208509606Y-124197546D01*
X208502407Y-124149010D01*
X208499999Y-124100001D01*
X208499999Y-124099999D01*
X208502407Y-124050990D01*
X208509606Y-124002454D01*
X208521529Y-123954857D01*
X208538059Y-123908657D01*
X208559038Y-123864301D01*
X208584264Y-123822214D01*
X208613494Y-123782802D01*
X208646446Y-123746446D01*
X208682802Y-123713494D01*
X208722214Y-123684264D01*
X208764301Y-123659038D01*
X208808657Y-123638059D01*
X208854857Y-123621529D01*
X208902454Y-123609606D01*
X208950990Y-123602407D01*
X208999999Y-123599999D01*
X209000001Y-123599999D01*
X209049010Y-123602407D01*
G37*
G04 #@! TD.AperFunction*
D22*
X153099560Y-129187931D03*
X153099560Y-131987931D03*
X159099560Y-129187931D03*
X159099560Y-131987931D03*
X156099560Y-129187931D03*
X156099560Y-131987931D03*
D17*
X162099560Y-129165931D03*
X162099560Y-132009931D03*
D23*
X181099560Y-132237931D03*
X181099560Y-133937931D03*
X177599560Y-132237931D03*
X177599560Y-133937931D03*
D20*
X169521560Y-127587931D03*
X166677560Y-127587931D03*
D24*
X177194560Y-128687931D03*
X178464560Y-128687931D03*
X181004560Y-128687931D03*
X177194560Y-123487931D03*
X178464560Y-123487931D03*
X181004560Y-123487931D03*
X179734560Y-128687931D03*
X179734560Y-123487931D03*
D25*
X172626560Y-133587931D03*
X166572560Y-133587931D03*
G04 #@! TA.AperFunction,SMDPad,CuDef*
D21*
G36*
X191648570Y-128090338D02*
G01*
X191697106Y-128097537D01*
X191744703Y-128109460D01*
X191790903Y-128125990D01*
X191835259Y-128146969D01*
X191877346Y-128172195D01*
X191916758Y-128201425D01*
X191953114Y-128234377D01*
X191986066Y-128270733D01*
X192015296Y-128310145D01*
X192040522Y-128352232D01*
X192061501Y-128396588D01*
X192078031Y-128442788D01*
X192089954Y-128490385D01*
X192097153Y-128538921D01*
X192099561Y-128587930D01*
X192099561Y-128587932D01*
X192097153Y-128636941D01*
X192089954Y-128685477D01*
X192078031Y-128733074D01*
X192061501Y-128779274D01*
X192040522Y-128823630D01*
X192015296Y-128865717D01*
X191986066Y-128905129D01*
X191953114Y-128941485D01*
X191916758Y-128974437D01*
X191877346Y-129003667D01*
X191835259Y-129028893D01*
X191790903Y-129049872D01*
X191744703Y-129066402D01*
X191697106Y-129078325D01*
X191648570Y-129085524D01*
X191599561Y-129087932D01*
X191599559Y-129087932D01*
X191550550Y-129085524D01*
X191502014Y-129078325D01*
X191454417Y-129066402D01*
X191408217Y-129049872D01*
X191363861Y-129028893D01*
X191321774Y-129003667D01*
X191282362Y-128974437D01*
X191246006Y-128941485D01*
X191213054Y-128905129D01*
X191183824Y-128865717D01*
X191158598Y-128823630D01*
X191137619Y-128779274D01*
X191121089Y-128733074D01*
X191109166Y-128685477D01*
X191101967Y-128636941D01*
X191099559Y-128587932D01*
X191099559Y-128587930D01*
X191101967Y-128538921D01*
X191109166Y-128490385D01*
X191121089Y-128442788D01*
X191137619Y-128396588D01*
X191158598Y-128352232D01*
X191183824Y-128310145D01*
X191213054Y-128270733D01*
X191246006Y-128234377D01*
X191282362Y-128201425D01*
X191321774Y-128172195D01*
X191363861Y-128146969D01*
X191408217Y-128125990D01*
X191454417Y-128109460D01*
X191502014Y-128097537D01*
X191550550Y-128090338D01*
X191599559Y-128087930D01*
X191599561Y-128087930D01*
X191648570Y-128090338D01*
G37*
G04 #@! TD.AperFunction*
D26*
X264300125Y-121551399D03*
X265300125Y-121551399D03*
X266300125Y-122551399D03*
X259300125Y-121551399D03*
X260300125Y-121551399D03*
X261300125Y-121551399D03*
X262300125Y-121551399D03*
X263300125Y-121551399D03*
X263300125Y-122551399D03*
X262300125Y-122551399D03*
X261300125Y-122551399D03*
X260300125Y-122551399D03*
X259300125Y-122551399D03*
X266300125Y-121551399D03*
X264300125Y-122551399D03*
X265300125Y-122551399D03*
X204650000Y-121950000D03*
X203450000Y-121951399D03*
X202100000Y-121950000D03*
X205600000Y-121950000D03*
X206700000Y-121950000D03*
X207600125Y-121951399D03*
X148599560Y-144587931D03*
X169599560Y-144587931D03*
X173798680Y-140086532D03*
X172099560Y-127587931D03*
X187599560Y-121587931D03*
X184099560Y-124087931D03*
X183099560Y-143587931D03*
X191099560Y-143087931D03*
X187599560Y-144587931D03*
X188049560Y-123087931D03*
X179099560Y-144587931D03*
X150599560Y-121587931D03*
X185099560Y-126087931D03*
X174599560Y-144587931D03*
X162599560Y-144587931D03*
X155099560Y-144587931D03*
X139599560Y-128087931D03*
X135599560Y-128087931D03*
X143099560Y-128087931D03*
X152498680Y-122386532D03*
X148099560Y-131087931D03*
X149099560Y-123587931D03*
X147498680Y-135486532D03*
X145099560Y-134587931D03*
X146599560Y-128087931D03*
X145099560Y-131087931D03*
X142099560Y-134587931D03*
X151099560Y-126087931D03*
X142099560Y-131087931D03*
X139099560Y-131087931D03*
X139099560Y-134587931D03*
X145099560Y-123587931D03*
X144999560Y-126187931D03*
X247700000Y-122200000D03*
X234000000Y-126600000D03*
X232750000Y-126650000D03*
X231250000Y-126750000D03*
X230000000Y-126600000D03*
X228450000Y-126650000D03*
X227250000Y-126250000D03*
X151649560Y-140587931D03*
X152649560Y-140587931D03*
X153649560Y-140587931D03*
X154649560Y-140587931D03*
X155649560Y-140587931D03*
X156649560Y-140587931D03*
X157649560Y-140587931D03*
X158649560Y-140587931D03*
X159649560Y-140587931D03*
X160649560Y-140587931D03*
X242300125Y-122451399D03*
X242900000Y-121650000D03*
X243400000Y-122450000D03*
X242900000Y-123150000D03*
X235250125Y-125051399D03*
X217500000Y-122800000D03*
X210150000Y-124100000D03*
D27*
X171150000Y-139050000D03*
D26*
X177099560Y-130587931D03*
X178099560Y-130587931D03*
X179099560Y-130587931D03*
X180099560Y-130587931D03*
X181099560Y-130587931D03*
X179299560Y-131887931D03*
X176599560Y-136087931D03*
X177599560Y-136087931D03*
X178599560Y-136087931D03*
X179599560Y-136087931D03*
X180599560Y-136087931D03*
X181599560Y-136087931D03*
X179399560Y-134787931D03*
X237200125Y-128251399D03*
D28*
X206075000Y-130310000D03*
D29*
X221550000Y-128950000D03*
D26*
X238200125Y-131250000D03*
X239100000Y-129350000D03*
X242400000Y-131250000D03*
X242800125Y-130451399D03*
X242800125Y-129451399D03*
X242800125Y-128451399D03*
X242800125Y-127451399D03*
X235300125Y-126951399D03*
X170599560Y-142587931D03*
X242050000Y-124650000D03*
X171099560Y-138087931D03*
X234550125Y-122001399D03*
X235600125Y-122001399D03*
X234550125Y-123051399D03*
X233500125Y-122001399D03*
X233500125Y-123051399D03*
X235600125Y-123051399D03*
X164599560Y-127087931D03*
X174199560Y-125287931D03*
X175199560Y-125287931D03*
X176199560Y-125287931D03*
X173199560Y-125287931D03*
X165099560Y-129087931D03*
D30*
X249383000Y-122046399D02*
X249500000Y-121929399D01*
D31*
X257860000Y-130310000D02*
X252500000Y-124950000D01*
X257860000Y-131250000D02*
X257860000Y-130310000D01*
D32*
X228994397Y-125051399D02*
X235250125Y-125051399D01*
X220300000Y-122800000D02*
X220321591Y-122778409D01*
X222076399Y-123778501D02*
X227721499Y-123778501D01*
X220321591Y-122778409D02*
X221900000Y-122778409D01*
X217500000Y-122800000D02*
X220300000Y-122800000D01*
X221900000Y-122778409D02*
X221900000Y-123602102D01*
X227721499Y-123778501D02*
X228994397Y-125051399D01*
X221900000Y-123602102D02*
X222076399Y-123778501D01*
D33*
X209000000Y-124100000D02*
X210150000Y-124100000D01*
X184776729Y-139050000D02*
X171150000Y-139050000D01*
X187174560Y-136652169D02*
X184776729Y-139050000D01*
X193985921Y-124100000D02*
X193950000Y-124135921D01*
X209000000Y-124100000D02*
X193985921Y-124100000D01*
X188657636Y-124135921D02*
X187174561Y-125618996D01*
X193950000Y-124135921D02*
X188657636Y-124135921D01*
X187174561Y-125618996D02*
X187174560Y-136652169D01*
D34*
X249100125Y-124773399D02*
X249422125Y-124773399D01*
X249422125Y-124773399D02*
X250100125Y-125451399D01*
X250100125Y-125451399D02*
X250100125Y-126301399D01*
X250100125Y-126301399D02*
X250150125Y-126351399D01*
X246121475Y-125856399D02*
X247205125Y-125856399D01*
X247205125Y-125856399D02*
X247800125Y-126451399D01*
X247800125Y-126451399D02*
X248350125Y-126451399D01*
X248350125Y-126451399D02*
X248450125Y-126351399D01*
D31*
X254340000Y-135211524D02*
X254100125Y-135451399D01*
X254340000Y-131250000D02*
X254340000Y-135211524D01*
D32*
X224088127Y-128251399D02*
X237200125Y-128251399D01*
D31*
X201472560Y-130087931D02*
X197599560Y-130087931D01*
X197599560Y-130087931D02*
X196099560Y-128587931D01*
X196099560Y-128587931D02*
X191599560Y-128587931D01*
X201694629Y-130310000D02*
X206075000Y-130310000D01*
X201472560Y-130087931D02*
X201694629Y-130310000D01*
D32*
X222955707Y-128251399D02*
X224088127Y-128251399D01*
X222257106Y-128950000D02*
X222955707Y-128251399D01*
X221550000Y-128950000D02*
X222257106Y-128950000D01*
D34*
X240700125Y-127546399D02*
X242705125Y-127546399D01*
X242705125Y-127546399D02*
X242800125Y-127451399D01*
X242800125Y-128451399D02*
X242800125Y-127451399D01*
X242800125Y-128451399D02*
X242800125Y-129451399D01*
X242800125Y-129451399D02*
X242800125Y-130451399D01*
D30*
X170599560Y-142587931D02*
X185099560Y-142587931D01*
X189599560Y-124587931D02*
X198099560Y-124587931D01*
X198099560Y-124587931D02*
X198599560Y-125087931D01*
D33*
X187551570Y-140135921D02*
X185099560Y-142587931D01*
X187551570Y-125775159D02*
X187551570Y-140135921D01*
X189599560Y-124587931D02*
X188738798Y-124587931D01*
X188738798Y-124587931D02*
X187551570Y-125775159D01*
X234752135Y-127499389D02*
X235300125Y-126951399D01*
X222699389Y-127499389D02*
X234752135Y-127499389D01*
X220370000Y-125170000D02*
X222699389Y-127499389D01*
X198599560Y-125087931D02*
X198681629Y-125170000D01*
X198681629Y-125170000D02*
X220370000Y-125170000D01*
D30*
X240478775Y-125856399D02*
X241895125Y-125856399D01*
D33*
X241895125Y-125856399D02*
X242150000Y-125601524D01*
X242050000Y-125501524D02*
X242050000Y-124650000D01*
X242150000Y-125601524D02*
X242050000Y-125501524D01*
D30*
X223378125Y-121951399D02*
X217001399Y-121951399D01*
X217001399Y-121951399D02*
X217000000Y-121950000D01*
X216952798Y-122000000D02*
X214450000Y-122000000D01*
X217001399Y-121951399D02*
X216952798Y-122000000D01*
D33*
X214803554Y-122353554D02*
X214450000Y-122000000D01*
X214450000Y-122000000D02*
X213400000Y-122000000D01*
X213400000Y-122000000D02*
X212600000Y-122800000D01*
X207450000Y-122800000D02*
X206527010Y-123722990D01*
X212600000Y-122800000D02*
X207450000Y-122800000D01*
X188537397Y-123722990D02*
X186797552Y-125462835D01*
X206527010Y-123722990D02*
X188537397Y-123722990D01*
X186797552Y-125462835D02*
X186797552Y-136496005D01*
X185205626Y-138087931D02*
X171099560Y-138087931D01*
X186797552Y-136496005D02*
X185205626Y-138087931D01*
D34*
X240478775Y-124586399D02*
X239165125Y-124586399D01*
X239165125Y-124586399D02*
X238300125Y-125451399D01*
X238300125Y-125451399D02*
X237878125Y-125451399D01*
X237878125Y-125451399D02*
X237800125Y-125373399D01*
D33*
X245805125Y-127451399D02*
X245900125Y-127546399D01*
X245042024Y-123318400D02*
X245044025Y-123316399D01*
X245044025Y-123316399D02*
X246121475Y-123316399D01*
X245042024Y-127488298D02*
X245042024Y-123318400D01*
X245100125Y-127546399D02*
X245042024Y-127488298D01*
X245900125Y-127546399D02*
X245100125Y-127546399D01*
D30*
X177194560Y-123487931D02*
X168199560Y-123487931D01*
X168199560Y-123487931D02*
X164599560Y-127087931D01*
X240400125Y-121967749D02*
X240478775Y-122046399D01*
D33*
X240176186Y-121202510D02*
X240478775Y-121505099D01*
X228319490Y-121202510D02*
X240176186Y-121202510D01*
X227272000Y-122250000D02*
X228319490Y-121202510D01*
X240478775Y-121505099D02*
X240478775Y-122046399D01*
X226222000Y-122250000D02*
X227272000Y-122250000D01*
D30*
X166677560Y-127587931D02*
X166099560Y-128087931D01*
X166099560Y-128087931D02*
X165099560Y-129087931D01*
X162099560Y-129165931D02*
X165021560Y-129165931D01*
X165021560Y-129165931D02*
X165099560Y-129087931D01*
D35*
G36*
X256825125Y-128976399D02*
G01*
X248350125Y-128976399D01*
X248345248Y-128976879D01*
X248340558Y-128978302D01*
X248336236Y-128980612D01*
X248332447Y-128983721D01*
X248329338Y-128987510D01*
X248327028Y-128991832D01*
X248325605Y-128996522D01*
X248325130Y-129001908D01*
X248374485Y-131425000D01*
X243824595Y-131425000D01*
X243775538Y-128426399D01*
X247450125Y-128426399D01*
X247455002Y-128425919D01*
X247459692Y-128424496D01*
X247464014Y-128422186D01*
X247467803Y-128419077D01*
X247470912Y-128415288D01*
X247473222Y-128410966D01*
X247474645Y-128406276D01*
X247475125Y-128401399D01*
X247475125Y-127126399D01*
X256825125Y-127126399D01*
X256825125Y-128976399D01*
G37*
X256825125Y-128976399D02*
X248350125Y-128976399D01*
X248345248Y-128976879D01*
X248340558Y-128978302D01*
X248336236Y-128980612D01*
X248332447Y-128983721D01*
X248329338Y-128987510D01*
X248327028Y-128991832D01*
X248325605Y-128996522D01*
X248325130Y-129001908D01*
X248374485Y-131425000D01*
X243824595Y-131425000D01*
X243775538Y-128426399D01*
X247450125Y-128426399D01*
X247455002Y-128425919D01*
X247459692Y-128424496D01*
X247464014Y-128422186D01*
X247467803Y-128419077D01*
X247470912Y-128415288D01*
X247473222Y-128410966D01*
X247474645Y-128406276D01*
X247475125Y-128401399D01*
X247475125Y-127126399D01*
X256825125Y-127126399D01*
X256825125Y-128976399D01*
G36*
X250803157Y-123619077D02*
G01*
X250806946Y-123622186D01*
X250811268Y-123624496D01*
X250815958Y-123625919D01*
X250820835Y-123626399D01*
X256010480Y-123626399D01*
X256825125Y-124441044D01*
X256825125Y-127476399D01*
X250775125Y-127476399D01*
X250775125Y-126983661D01*
X250784980Y-126978394D01*
X250808125Y-126959399D01*
X250827120Y-126936254D01*
X250841234Y-126909848D01*
X250849925Y-126881196D01*
X250852860Y-126851399D01*
X250852860Y-125851399D01*
X250849925Y-125821602D01*
X250841234Y-125792950D01*
X250827120Y-125766544D01*
X250808125Y-125743399D01*
X250784980Y-125724404D01*
X250775125Y-125719137D01*
X250775125Y-124472109D01*
X250774645Y-124467232D01*
X250773222Y-124462542D01*
X250770912Y-124458220D01*
X250767803Y-124454431D01*
X250554235Y-124240863D01*
X250554235Y-123973399D01*
X250551300Y-123943602D01*
X250542609Y-123914950D01*
X250528495Y-123888544D01*
X250509500Y-123865399D01*
X250486355Y-123846404D01*
X250459949Y-123832290D01*
X250431297Y-123823599D01*
X250401500Y-123820664D01*
X250134036Y-123820664D01*
X250097093Y-123783721D01*
X250093304Y-123780612D01*
X250088982Y-123778302D01*
X250084292Y-123776879D01*
X250079415Y-123776399D01*
X248220835Y-123776399D01*
X248215958Y-123776879D01*
X248211268Y-123778302D01*
X248206946Y-123780612D01*
X248203157Y-123783721D01*
X247832447Y-124154431D01*
X247829338Y-124158220D01*
X247827028Y-124162542D01*
X247825605Y-124167232D01*
X247825125Y-124172109D01*
X247825125Y-124961754D01*
X247710480Y-125076399D01*
X245319024Y-125076399D01*
X245319024Y-124126399D01*
X246779415Y-124126399D01*
X246784292Y-124125919D01*
X246788982Y-124124496D01*
X246793304Y-124122186D01*
X246797093Y-124119077D01*
X247989770Y-122926399D01*
X250110480Y-122926399D01*
X250803157Y-123619077D01*
G37*
X250803157Y-123619077D02*
X250806946Y-123622186D01*
X250811268Y-123624496D01*
X250815958Y-123625919D01*
X250820835Y-123626399D01*
X256010480Y-123626399D01*
X256825125Y-124441044D01*
X256825125Y-127476399D01*
X250775125Y-127476399D01*
X250775125Y-126983661D01*
X250784980Y-126978394D01*
X250808125Y-126959399D01*
X250827120Y-126936254D01*
X250841234Y-126909848D01*
X250849925Y-126881196D01*
X250852860Y-126851399D01*
X250852860Y-125851399D01*
X250849925Y-125821602D01*
X250841234Y-125792950D01*
X250827120Y-125766544D01*
X250808125Y-125743399D01*
X250784980Y-125724404D01*
X250775125Y-125719137D01*
X250775125Y-124472109D01*
X250774645Y-124467232D01*
X250773222Y-124462542D01*
X250770912Y-124458220D01*
X250767803Y-124454431D01*
X250554235Y-124240863D01*
X250554235Y-123973399D01*
X250551300Y-123943602D01*
X250542609Y-123914950D01*
X250528495Y-123888544D01*
X250509500Y-123865399D01*
X250486355Y-123846404D01*
X250459949Y-123832290D01*
X250431297Y-123823599D01*
X250401500Y-123820664D01*
X250134036Y-123820664D01*
X250097093Y-123783721D01*
X250093304Y-123780612D01*
X250088982Y-123778302D01*
X250084292Y-123776879D01*
X250079415Y-123776399D01*
X248220835Y-123776399D01*
X248215958Y-123776879D01*
X248211268Y-123778302D01*
X248206946Y-123780612D01*
X248203157Y-123783721D01*
X247832447Y-124154431D01*
X247829338Y-124158220D01*
X247827028Y-124162542D01*
X247825605Y-124167232D01*
X247825125Y-124172109D01*
X247825125Y-124961754D01*
X247710480Y-125076399D01*
X245319024Y-125076399D01*
X245319024Y-124126399D01*
X246779415Y-124126399D01*
X246784292Y-124125919D01*
X246788982Y-124124496D01*
X246793304Y-124122186D01*
X246797093Y-124119077D01*
X247989770Y-122926399D01*
X250110480Y-122926399D01*
X250803157Y-123619077D01*
G36*
X243064003Y-126927558D02*
G01*
X243066313Y-126931880D01*
X243069422Y-126935669D01*
X243073211Y-126938778D01*
X243077533Y-126941088D01*
X243510976Y-127120626D01*
X243525125Y-128851277D01*
X243525125Y-131480551D01*
X243292861Y-131625000D01*
X236044738Y-131625000D01*
X235973775Y-131586425D01*
X235825003Y-131244799D01*
X235826209Y-129176399D01*
X238565080Y-129176399D01*
X238569957Y-129175919D01*
X238574647Y-129174496D01*
X238578969Y-129172186D01*
X238583522Y-129168277D01*
X238968027Y-128748142D01*
X239267803Y-128448367D01*
X239270912Y-128444578D01*
X239273222Y-128440256D01*
X239274645Y-128435566D01*
X239275125Y-128430689D01*
X239275125Y-127709451D01*
X239464917Y-127251252D01*
X239789770Y-126926399D01*
X243063651Y-126926399D01*
X243064003Y-126927558D01*
G37*
X243064003Y-126927558D02*
X243066313Y-126931880D01*
X243069422Y-126935669D01*
X243073211Y-126938778D01*
X243077533Y-126941088D01*
X243510976Y-127120626D01*
X243525125Y-128851277D01*
X243525125Y-131480551D01*
X243292861Y-131625000D01*
X236044738Y-131625000D01*
X235973775Y-131586425D01*
X235825003Y-131244799D01*
X235826209Y-129176399D01*
X238565080Y-129176399D01*
X238569957Y-129175919D01*
X238574647Y-129174496D01*
X238578969Y-129172186D01*
X238583522Y-129168277D01*
X238968027Y-128748142D01*
X239267803Y-128448367D01*
X239270912Y-128444578D01*
X239273222Y-128440256D01*
X239274645Y-128435566D01*
X239275125Y-128430689D01*
X239275125Y-127709451D01*
X239464917Y-127251252D01*
X239789770Y-126926399D01*
X243063651Y-126926399D01*
X243064003Y-126927558D01*
G36*
X236575125Y-121491044D02*
G01*
X236575125Y-123430689D01*
X236575605Y-123435566D01*
X236577028Y-123440256D01*
X236579338Y-123444578D01*
X236582447Y-123448367D01*
X237053157Y-123919077D01*
X237056946Y-123922186D01*
X237061268Y-123924496D01*
X237065958Y-123925919D01*
X237070835Y-123926399D01*
X238310480Y-123926399D01*
X238775125Y-124391044D01*
X238775125Y-126211754D01*
X238660480Y-126326399D01*
X236589770Y-126326399D01*
X236425125Y-126161754D01*
X236425125Y-125422109D01*
X236424645Y-125417232D01*
X236423222Y-125412542D01*
X236420912Y-125408220D01*
X236417803Y-125404431D01*
X235873415Y-124860043D01*
X235855408Y-124800682D01*
X235794866Y-124687415D01*
X235713389Y-124588135D01*
X235614109Y-124506658D01*
X235500842Y-124446116D01*
X235377939Y-124408834D01*
X235282147Y-124399399D01*
X233162770Y-124399399D01*
X232775125Y-124011754D01*
X232775125Y-121479510D01*
X236563591Y-121479510D01*
X236575125Y-121491044D01*
G37*
X236575125Y-121491044D02*
X236575125Y-123430689D01*
X236575605Y-123435566D01*
X236577028Y-123440256D01*
X236579338Y-123444578D01*
X236582447Y-123448367D01*
X237053157Y-123919077D01*
X237056946Y-123922186D01*
X237061268Y-123924496D01*
X237065958Y-123925919D01*
X237070835Y-123926399D01*
X238310480Y-123926399D01*
X238775125Y-124391044D01*
X238775125Y-126211754D01*
X238660480Y-126326399D01*
X236589770Y-126326399D01*
X236425125Y-126161754D01*
X236425125Y-125422109D01*
X236424645Y-125417232D01*
X236423222Y-125412542D01*
X236420912Y-125408220D01*
X236417803Y-125404431D01*
X235873415Y-124860043D01*
X235855408Y-124800682D01*
X235794866Y-124687415D01*
X235713389Y-124588135D01*
X235614109Y-124506658D01*
X235500842Y-124446116D01*
X235377939Y-124408834D01*
X235282147Y-124399399D01*
X233162770Y-124399399D01*
X232775125Y-124011754D01*
X232775125Y-121479510D01*
X236563591Y-121479510D01*
X236575125Y-121491044D01*
G36*
X215399804Y-122774999D02*
G01*
X213599805Y-122775001D01*
X213587730Y-121230871D01*
X215387729Y-121230869D01*
X215399804Y-122774999D01*
G37*
X215399804Y-122774999D02*
X213599805Y-122775001D01*
X213587730Y-121230871D01*
X215387729Y-121230869D01*
X215399804Y-122774999D01*
G36*
X243825123Y-123576399D02*
G01*
X237025125Y-123576399D01*
X237025125Y-121926399D01*
X238925125Y-121926399D01*
X238925125Y-122501399D01*
X238925605Y-122506276D01*
X238927028Y-122510966D01*
X238929338Y-122515288D01*
X238932447Y-122519077D01*
X238936236Y-122522186D01*
X238940558Y-122524496D01*
X238945248Y-122525919D01*
X238950125Y-122526399D01*
X241750125Y-122526399D01*
X241755002Y-122525919D01*
X241759692Y-122524496D01*
X241764014Y-122522186D01*
X241767803Y-122519077D01*
X241770912Y-122515288D01*
X241773222Y-122510966D01*
X241774645Y-122506276D01*
X241775125Y-122501396D01*
X241775003Y-121625000D01*
X243825002Y-121625000D01*
X243825123Y-123576399D01*
G37*
X243825123Y-123576399D02*
X237025125Y-123576399D01*
X237025125Y-121926399D01*
X238925125Y-121926399D01*
X238925125Y-122501399D01*
X238925605Y-122506276D01*
X238927028Y-122510966D01*
X238929338Y-122515288D01*
X238932447Y-122519077D01*
X238936236Y-122522186D01*
X238940558Y-122524496D01*
X238945248Y-122525919D01*
X238950125Y-122526399D01*
X241750125Y-122526399D01*
X241755002Y-122525919D01*
X241759692Y-122524496D01*
X241764014Y-122522186D01*
X241767803Y-122519077D01*
X241770912Y-122515288D01*
X241773222Y-122510966D01*
X241774645Y-122506276D01*
X241775125Y-122501396D01*
X241775003Y-121625000D01*
X243825002Y-121625000D01*
X243825123Y-123576399D01*
G36*
X210033553Y-124793837D02*
G01*
X208233554Y-124793839D01*
X208221479Y-123249709D01*
X210021478Y-123249707D01*
X210033553Y-124793837D01*
G37*
X210033553Y-124793837D02*
X208233554Y-124793839D01*
X208221479Y-123249709D01*
X210021478Y-123249707D01*
X210033553Y-124793837D01*
G36*
X193287689Y-125685373D02*
G01*
X193517516Y-125755090D01*
X193729321Y-125868302D01*
X193914971Y-126020662D01*
X194067331Y-126206312D01*
X194181130Y-126419217D01*
X194273680Y-126884492D01*
X194273680Y-129988177D01*
X194248339Y-130245475D01*
X194172933Y-130494052D01*
X194050477Y-130723151D01*
X193885682Y-130923955D01*
X193684878Y-131088750D01*
X193454684Y-131211791D01*
X192951141Y-131311953D01*
X189547278Y-131311953D01*
X189298308Y-131283901D01*
X189060493Y-131200685D01*
X188847157Y-131066639D01*
X188668994Y-130888476D01*
X188534186Y-130673928D01*
X188423680Y-130189771D01*
X188423680Y-126985729D01*
X188449021Y-126728431D01*
X188524427Y-126479854D01*
X188646883Y-126250755D01*
X188811678Y-126049951D01*
X189012482Y-125885156D01*
X189242676Y-125762115D01*
X189746219Y-125661953D01*
X193049904Y-125661953D01*
X193287689Y-125685373D01*
G37*
X193287689Y-125685373D02*
X193517516Y-125755090D01*
X193729321Y-125868302D01*
X193914971Y-126020662D01*
X194067331Y-126206312D01*
X194181130Y-126419217D01*
X194273680Y-126884492D01*
X194273680Y-129988177D01*
X194248339Y-130245475D01*
X194172933Y-130494052D01*
X194050477Y-130723151D01*
X193885682Y-130923955D01*
X193684878Y-131088750D01*
X193454684Y-131211791D01*
X192951141Y-131311953D01*
X189547278Y-131311953D01*
X189298308Y-131283901D01*
X189060493Y-131200685D01*
X188847157Y-131066639D01*
X188668994Y-130888476D01*
X188534186Y-130673928D01*
X188423680Y-130189771D01*
X188423680Y-126985729D01*
X188449021Y-126728431D01*
X188524427Y-126479854D01*
X188646883Y-126250755D01*
X188811678Y-126049951D01*
X189012482Y-125885156D01*
X189242676Y-125762115D01*
X189746219Y-125661953D01*
X193049904Y-125661953D01*
X193287689Y-125685373D01*
G36*
X181624560Y-126112931D02*
G01*
X172574560Y-126112931D01*
X172574560Y-124562931D01*
X176624560Y-124562931D01*
X176624560Y-125037931D01*
X176625040Y-125042808D01*
X176626463Y-125047498D01*
X176628773Y-125051820D01*
X176631882Y-125055609D01*
X176635671Y-125058718D01*
X176639993Y-125061028D01*
X176644683Y-125062451D01*
X176649560Y-125062931D01*
X178049560Y-125062931D01*
X178054437Y-125062451D01*
X178059127Y-125061028D01*
X178063449Y-125058718D01*
X178067238Y-125055609D01*
X178070347Y-125051820D01*
X178072657Y-125047498D01*
X178074080Y-125042808D01*
X178074560Y-125037931D01*
X178074560Y-122062931D01*
X181624560Y-122062931D01*
X181624560Y-126112931D01*
G37*
X181624560Y-126112931D02*
X172574560Y-126112931D01*
X172574560Y-124562931D01*
X176624560Y-124562931D01*
X176624560Y-125037931D01*
X176625040Y-125042808D01*
X176626463Y-125047498D01*
X176628773Y-125051820D01*
X176631882Y-125055609D01*
X176635671Y-125058718D01*
X176639993Y-125061028D01*
X176644683Y-125062451D01*
X176649560Y-125062931D01*
X178049560Y-125062931D01*
X178054437Y-125062451D01*
X178059127Y-125061028D01*
X178063449Y-125058718D01*
X178067238Y-125055609D01*
X178070347Y-125051820D01*
X178072657Y-125047498D01*
X178074080Y-125042808D01*
X178074560Y-125037931D01*
X178074560Y-122062931D01*
X181624560Y-122062931D01*
X181624560Y-126112931D01*
G36*
X182124560Y-132612931D02*
G01*
X176574560Y-132612931D01*
X176574560Y-127562931D01*
X182124560Y-127562931D01*
X182124560Y-132612931D01*
G37*
X182124560Y-132612931D02*
X176574560Y-132612931D01*
X176574560Y-127562931D01*
X182124560Y-127562931D01*
X182124560Y-132612931D01*
G36*
X176124560Y-133537931D02*
G01*
X176125040Y-133542808D01*
X176126463Y-133547498D01*
X176128773Y-133551820D01*
X176131882Y-133555609D01*
X176135671Y-133558718D01*
X176139993Y-133561028D01*
X176144683Y-133562451D01*
X176149560Y-133562931D01*
X182124560Y-133562931D01*
X182124560Y-136612931D01*
X171074560Y-136612931D01*
X171074560Y-132062931D01*
X176124560Y-132062931D01*
X176124560Y-133537931D01*
G37*
X176124560Y-133537931D02*
X176125040Y-133542808D01*
X176126463Y-133547498D01*
X176128773Y-133551820D01*
X176131882Y-133555609D01*
X176135671Y-133558718D01*
X176139993Y-133561028D01*
X176144683Y-133562451D01*
X176149560Y-133562931D01*
X182124560Y-133562931D01*
X182124560Y-136612931D01*
X171074560Y-136612931D01*
X171074560Y-132062931D01*
X176124560Y-132062931D01*
X176124560Y-133537931D01*
G36*
X168124560Y-136112931D02*
G01*
X151574560Y-136112931D01*
X151574560Y-131062931D01*
X168124560Y-131062931D01*
X168124560Y-136112931D01*
G37*
X168124560Y-136112931D02*
X151574560Y-136112931D01*
X151574560Y-131062931D01*
X168124560Y-131062931D01*
X168124560Y-136112931D01*
G36*
X161624560Y-143612931D02*
G01*
X148574560Y-143612931D01*
X148574560Y-139961202D01*
X148702560Y-139961202D01*
X148702560Y-140078800D01*
X148725502Y-140194140D01*
X148770505Y-140302787D01*
X148835840Y-140400567D01*
X148918994Y-140483721D01*
X149016774Y-140549056D01*
X149125421Y-140594059D01*
X149240761Y-140617001D01*
X149358359Y-140617001D01*
X149473699Y-140594059D01*
X149582346Y-140549056D01*
X149680126Y-140483721D01*
X149763280Y-140400567D01*
X149828615Y-140302787D01*
X149873618Y-140194140D01*
X149896560Y-140078800D01*
X149896560Y-139961202D01*
X149873618Y-139845862D01*
X149828615Y-139737215D01*
X149763280Y-139639435D01*
X149680126Y-139556281D01*
X149582346Y-139490946D01*
X149473699Y-139445943D01*
X149358359Y-139423001D01*
X149240761Y-139423001D01*
X149125421Y-139445943D01*
X149016774Y-139490946D01*
X148918994Y-139556281D01*
X148835840Y-139639435D01*
X148770505Y-139737215D01*
X148725502Y-139845862D01*
X148702560Y-139961202D01*
X148574560Y-139961202D01*
X148574560Y-135562931D01*
X161624560Y-135562931D01*
X161624560Y-143612931D01*
G37*
X161624560Y-143612931D02*
X148574560Y-143612931D01*
X148574560Y-139961202D01*
X148702560Y-139961202D01*
X148702560Y-140078800D01*
X148725502Y-140194140D01*
X148770505Y-140302787D01*
X148835840Y-140400567D01*
X148918994Y-140483721D01*
X149016774Y-140549056D01*
X149125421Y-140594059D01*
X149240761Y-140617001D01*
X149358359Y-140617001D01*
X149473699Y-140594059D01*
X149582346Y-140549056D01*
X149680126Y-140483721D01*
X149763280Y-140400567D01*
X149828615Y-140302787D01*
X149873618Y-140194140D01*
X149896560Y-140078800D01*
X149896560Y-139961202D01*
X149873618Y-139845862D01*
X149828615Y-139737215D01*
X149763280Y-139639435D01*
X149680126Y-139556281D01*
X149582346Y-139490946D01*
X149473699Y-139445943D01*
X149358359Y-139423001D01*
X149240761Y-139423001D01*
X149125421Y-139445943D01*
X149016774Y-139490946D01*
X148918994Y-139556281D01*
X148835840Y-139639435D01*
X148770505Y-139737215D01*
X148725502Y-139845862D01*
X148702560Y-139961202D01*
X148574560Y-139961202D01*
X148574560Y-135562931D01*
X161624560Y-135562931D01*
X161624560Y-143612931D01*
D36*
G36*
X248321500Y-121837149D02*
G01*
X248390750Y-121906399D01*
X249477000Y-121906399D01*
X249477000Y-121886399D01*
X249523000Y-121886399D01*
X249523000Y-121906399D01*
X250609250Y-121906399D01*
X250678500Y-121837149D01*
X250679654Y-121227500D01*
X250901391Y-121227500D01*
X250892847Y-121243484D01*
X250877008Y-121295699D01*
X250871660Y-121350000D01*
X250873000Y-122057750D01*
X250942250Y-122127000D01*
X252477000Y-122127000D01*
X252477000Y-122107000D01*
X252523000Y-122107000D01*
X252523000Y-122127000D01*
X254057750Y-122127000D01*
X254127000Y-122057750D01*
X254128340Y-121350000D01*
X254122992Y-121295699D01*
X254107153Y-121243484D01*
X254098609Y-121227500D01*
X268322501Y-121227500D01*
X268322500Y-122336375D01*
X268321158Y-122350000D01*
X268326516Y-122404399D01*
X268342384Y-122456708D01*
X268351851Y-122474420D01*
X268368151Y-122504916D01*
X268402829Y-122547171D01*
X268445084Y-122581849D01*
X268493292Y-122607616D01*
X268545601Y-122623484D01*
X268600000Y-122628842D01*
X268613625Y-122627500D01*
X275622500Y-122627500D01*
X275622499Y-145572500D01*
X252477499Y-145572500D01*
X252477499Y-142158321D01*
X252823125Y-142158321D01*
X252823126Y-143344478D01*
X252835816Y-143473321D01*
X252885964Y-143638636D01*
X252967399Y-143790991D01*
X253076993Y-143924532D01*
X253210534Y-144034126D01*
X253362889Y-144115561D01*
X253528204Y-144165709D01*
X253700125Y-144182642D01*
X253872047Y-144165709D01*
X254037362Y-144115561D01*
X254189717Y-144034126D01*
X254323258Y-143924532D01*
X254432852Y-143790991D01*
X254514287Y-143638636D01*
X254564435Y-143473321D01*
X254577125Y-143344478D01*
X254577125Y-142158320D01*
X254564435Y-142029477D01*
X254514287Y-141864162D01*
X254432852Y-141711807D01*
X254341918Y-141601003D01*
X255873125Y-141601003D01*
X255873125Y-141901795D01*
X255931806Y-142196809D01*
X256046915Y-142474705D01*
X256214026Y-142724805D01*
X256426719Y-142937498D01*
X256676819Y-143104609D01*
X256954715Y-143219718D01*
X257249729Y-143278399D01*
X257550521Y-143278399D01*
X257845535Y-143219718D01*
X258123431Y-143104609D01*
X258373531Y-142937498D01*
X258586224Y-142724805D01*
X258753335Y-142474705D01*
X258868444Y-142196809D01*
X258876099Y-142158321D01*
X262723125Y-142158321D01*
X262723126Y-143344478D01*
X262735816Y-143473321D01*
X262785964Y-143638636D01*
X262867399Y-143790991D01*
X262976993Y-143924532D01*
X263110534Y-144034126D01*
X263262889Y-144115561D01*
X263428204Y-144165709D01*
X263600125Y-144182642D01*
X263772047Y-144165709D01*
X263937362Y-144115561D01*
X264073000Y-144043061D01*
X264073000Y-144071756D01*
X264127838Y-144347450D01*
X264235409Y-144607147D01*
X264391576Y-144840869D01*
X264590340Y-145039633D01*
X264824062Y-145195800D01*
X265083759Y-145303371D01*
X265359453Y-145358209D01*
X265640547Y-145358209D01*
X265916241Y-145303371D01*
X266175938Y-145195800D01*
X266409660Y-145039633D01*
X266608424Y-144840869D01*
X266764591Y-144607147D01*
X266872162Y-144347450D01*
X266927000Y-144071756D01*
X266927000Y-143790662D01*
X266872162Y-143514968D01*
X266764591Y-143255271D01*
X266608424Y-143021549D01*
X266409660Y-142822785D01*
X266175938Y-142666618D01*
X265916241Y-142559047D01*
X265640547Y-142504209D01*
X265359453Y-142504209D01*
X265083759Y-142559047D01*
X264824062Y-142666618D01*
X264590340Y-142822785D01*
X264477125Y-142936000D01*
X264477125Y-142158320D01*
X264464435Y-142029477D01*
X264414287Y-141864162D01*
X264332852Y-141711807D01*
X264223258Y-141578266D01*
X264089716Y-141468672D01*
X263937361Y-141387237D01*
X263772046Y-141337089D01*
X263712347Y-141331209D01*
X264318031Y-141331209D01*
X264337860Y-141532536D01*
X264396585Y-141726126D01*
X264491949Y-141904540D01*
X264620288Y-142060921D01*
X264776669Y-142189260D01*
X264955083Y-142284624D01*
X265148673Y-142343349D01*
X265299549Y-142358209D01*
X265924935Y-142358209D01*
X266075811Y-142343349D01*
X266269401Y-142284624D01*
X266447815Y-142189260D01*
X266604196Y-142060921D01*
X266732535Y-141904540D01*
X266827899Y-141726126D01*
X266886624Y-141532536D01*
X266906453Y-141331209D01*
X266905222Y-141318709D01*
X266958075Y-141318709D01*
X266963423Y-141373010D01*
X266979262Y-141425225D01*
X267004984Y-141473346D01*
X267039599Y-141515525D01*
X267081778Y-141550140D01*
X267129899Y-141575862D01*
X267182114Y-141591701D01*
X267236415Y-141597049D01*
X267744165Y-141595709D01*
X267813415Y-141526459D01*
X267813415Y-140741709D01*
X267859415Y-140741709D01*
X267859415Y-141526459D01*
X267928665Y-141595709D01*
X268436415Y-141597049D01*
X268490716Y-141591701D01*
X268542931Y-141575862D01*
X268591052Y-141550140D01*
X268633231Y-141515525D01*
X268667846Y-141473346D01*
X268693568Y-141425225D01*
X268709407Y-141373010D01*
X268714755Y-141318709D01*
X268713415Y-140810959D01*
X268644165Y-140741709D01*
X267859415Y-140741709D01*
X267813415Y-140741709D01*
X267028665Y-140741709D01*
X266959415Y-140810959D01*
X266958075Y-141318709D01*
X266905222Y-141318709D01*
X266886624Y-141129882D01*
X266827899Y-140936292D01*
X266732535Y-140757878D01*
X266604196Y-140601497D01*
X266447815Y-140473158D01*
X266269401Y-140377794D01*
X266075811Y-140319069D01*
X265924935Y-140304209D01*
X265299549Y-140304209D01*
X265148673Y-140319069D01*
X264955083Y-140377794D01*
X264776669Y-140473158D01*
X264620288Y-140601497D01*
X264491949Y-140757878D01*
X264396585Y-140936292D01*
X264337860Y-141129882D01*
X264318031Y-141331209D01*
X263712347Y-141331209D01*
X263600125Y-141320156D01*
X263428203Y-141337089D01*
X263262888Y-141387237D01*
X263110533Y-141468672D01*
X262976992Y-141578266D01*
X262867398Y-141711808D01*
X262785963Y-141864163D01*
X262735815Y-142029478D01*
X262723125Y-142158321D01*
X258876099Y-142158321D01*
X258927125Y-141901795D01*
X258927125Y-141601003D01*
X258868444Y-141305989D01*
X258753335Y-141028093D01*
X258586224Y-140777993D01*
X258373531Y-140565300D01*
X258123431Y-140398189D01*
X257845535Y-140283080D01*
X257550521Y-140224399D01*
X257249729Y-140224399D01*
X256954715Y-140283080D01*
X256676819Y-140398189D01*
X256426719Y-140565300D01*
X256214026Y-140777993D01*
X256046915Y-141028093D01*
X255931806Y-141305989D01*
X255873125Y-141601003D01*
X254341918Y-141601003D01*
X254323258Y-141578266D01*
X254189716Y-141468672D01*
X254037361Y-141387237D01*
X253872046Y-141337089D01*
X253700125Y-141320156D01*
X253528203Y-141337089D01*
X253362888Y-141387237D01*
X253210533Y-141468672D01*
X253076992Y-141578266D01*
X252967398Y-141711808D01*
X252885963Y-141864163D01*
X252835815Y-142029478D01*
X252823125Y-142158321D01*
X252477499Y-142158321D01*
X252477499Y-140118709D01*
X266958075Y-140118709D01*
X266959415Y-140626459D01*
X267028665Y-140695709D01*
X267813415Y-140695709D01*
X267813415Y-139910959D01*
X267859415Y-139910959D01*
X267859415Y-140695709D01*
X268644165Y-140695709D01*
X268713415Y-140626459D01*
X268714755Y-140118709D01*
X268709407Y-140064408D01*
X268693568Y-140012193D01*
X268667846Y-139964072D01*
X268633231Y-139921893D01*
X268591052Y-139887278D01*
X268542931Y-139861556D01*
X268490716Y-139845717D01*
X268436415Y-139840369D01*
X267928665Y-139841709D01*
X267859415Y-139910959D01*
X267813415Y-139910959D01*
X267744165Y-139841709D01*
X267236415Y-139840369D01*
X267182114Y-139845717D01*
X267129899Y-139861556D01*
X267081778Y-139887278D01*
X267039599Y-139921893D01*
X267004984Y-139964072D01*
X266979262Y-140012193D01*
X266963423Y-140064408D01*
X266958075Y-140118709D01*
X252477499Y-140118709D01*
X252477499Y-139308908D01*
X267278743Y-139308908D01*
X267337217Y-139444926D01*
X267488487Y-139528360D01*
X267653128Y-139580680D01*
X267824812Y-139599875D01*
X267996942Y-139585208D01*
X268162903Y-139537240D01*
X268316317Y-139457818D01*
X268335613Y-139444926D01*
X268394087Y-139308908D01*
X267836415Y-138751236D01*
X267278743Y-139308908D01*
X252477499Y-139308908D01*
X252477499Y-138707106D01*
X266955249Y-138707106D01*
X266969916Y-138879236D01*
X267017884Y-139045197D01*
X267097306Y-139198611D01*
X267110198Y-139217907D01*
X267246216Y-139276381D01*
X267803888Y-138718709D01*
X267868942Y-138718709D01*
X268426614Y-139276381D01*
X268562632Y-139217907D01*
X268646066Y-139066637D01*
X268698386Y-138901996D01*
X268717581Y-138730312D01*
X268702914Y-138558182D01*
X268654946Y-138392221D01*
X268575524Y-138238807D01*
X268562632Y-138219511D01*
X268426614Y-138161037D01*
X267868942Y-138718709D01*
X267803888Y-138718709D01*
X267246216Y-138161037D01*
X267110198Y-138219511D01*
X267026764Y-138370781D01*
X266974444Y-138535422D01*
X266955249Y-138707106D01*
X252477499Y-138707106D01*
X252477499Y-138128510D01*
X267278743Y-138128510D01*
X267836415Y-138686182D01*
X268394087Y-138128510D01*
X268335613Y-137992492D01*
X268184343Y-137909058D01*
X268019702Y-137856738D01*
X267848018Y-137837543D01*
X267675888Y-137852210D01*
X267509927Y-137900178D01*
X267356513Y-137979600D01*
X267337217Y-137992492D01*
X267278743Y-138128510D01*
X252477499Y-138128510D01*
X252477499Y-131963625D01*
X252478841Y-131950000D01*
X252473483Y-131895601D01*
X252457615Y-131843292D01*
X252431848Y-131795084D01*
X252397170Y-131752829D01*
X252354915Y-131718151D01*
X252306707Y-131692384D01*
X252254398Y-131676516D01*
X252213624Y-131672500D01*
X252199999Y-131671158D01*
X252186374Y-131672500D01*
X251926387Y-131672500D01*
X251928465Y-131651399D01*
X251927125Y-130943649D01*
X251857875Y-130874399D01*
X250323125Y-130874399D01*
X250323125Y-130894399D01*
X250277125Y-130894399D01*
X250277125Y-130874399D01*
X248742375Y-130874399D01*
X248673125Y-130943649D01*
X248672582Y-131230273D01*
X248648570Y-130051399D01*
X248671785Y-130051399D01*
X248673125Y-130759149D01*
X248742375Y-130828399D01*
X250277125Y-130828399D01*
X250277125Y-129843649D01*
X250323125Y-129843649D01*
X250323125Y-130828399D01*
X251857875Y-130828399D01*
X251927125Y-130759149D01*
X251927757Y-130425000D01*
X252776660Y-130425000D01*
X252776660Y-132075000D01*
X252782008Y-132129301D01*
X252797847Y-132181516D01*
X252823569Y-132229637D01*
X252858184Y-132271816D01*
X252900363Y-132306431D01*
X252948484Y-132332153D01*
X253000699Y-132347992D01*
X253055000Y-132353340D01*
X253063000Y-132353340D01*
X253063001Y-134702194D01*
X253033202Y-134738504D01*
X252914624Y-134960348D01*
X252841603Y-135201064D01*
X252816947Y-135451399D01*
X252841603Y-135701734D01*
X252914624Y-135942450D01*
X253033202Y-136164294D01*
X253192782Y-136358742D01*
X253217761Y-136379242D01*
X253242075Y-136424730D01*
X253370414Y-136581111D01*
X253526795Y-136709450D01*
X253705209Y-136804814D01*
X253898799Y-136863539D01*
X254100125Y-136883368D01*
X254301452Y-136863539D01*
X254495042Y-136804814D01*
X254673456Y-136709450D01*
X254829837Y-136581111D01*
X254958176Y-136424730D01*
X254987379Y-136370095D01*
X255198615Y-136158859D01*
X255247344Y-136118868D01*
X255406924Y-135924420D01*
X255525502Y-135702575D01*
X255598522Y-135461860D01*
X255617000Y-135274250D01*
X255617000Y-135274243D01*
X255623177Y-135211525D01*
X255617000Y-135148806D01*
X255617000Y-135000949D01*
X256473125Y-135000949D01*
X256473125Y-135901850D01*
X256487986Y-136052726D01*
X256546711Y-136246316D01*
X256642075Y-136424730D01*
X256770414Y-136581111D01*
X256926795Y-136709450D01*
X257105209Y-136804814D01*
X257298799Y-136863539D01*
X257500125Y-136883368D01*
X257701452Y-136863539D01*
X257895042Y-136804814D01*
X258073456Y-136709450D01*
X258229837Y-136581111D01*
X258358176Y-136424730D01*
X258453540Y-136246316D01*
X258512265Y-136052725D01*
X258527125Y-135901849D01*
X258527125Y-135474399D01*
X261673125Y-135474399D01*
X261673125Y-135874399D01*
X261697346Y-136074315D01*
X261760103Y-136265664D01*
X261858984Y-136441093D01*
X261990190Y-136593861D01*
X262148678Y-136718096D01*
X262328358Y-136809025D01*
X262516790Y-136861902D01*
X262677125Y-136808873D01*
X262677125Y-135474399D01*
X262723125Y-135474399D01*
X262723125Y-136808873D01*
X262883460Y-136861902D01*
X263071892Y-136809025D01*
X263251572Y-136718096D01*
X263360982Y-136632332D01*
X266959415Y-136632332D01*
X266959415Y-136805086D01*
X266993118Y-136974520D01*
X267059228Y-137134124D01*
X267155205Y-137277764D01*
X267277360Y-137399919D01*
X267421000Y-137495896D01*
X267580604Y-137562006D01*
X267750038Y-137595709D01*
X267922792Y-137595709D01*
X268092226Y-137562006D01*
X268251830Y-137495896D01*
X268395470Y-137399919D01*
X268517625Y-137277764D01*
X268613602Y-137134124D01*
X268679712Y-136974520D01*
X268713415Y-136805086D01*
X268713415Y-136632332D01*
X268679712Y-136462898D01*
X268613602Y-136303294D01*
X268517625Y-136159654D01*
X268395470Y-136037499D01*
X268251830Y-135941522D01*
X268092226Y-135875412D01*
X267922792Y-135841709D01*
X267750038Y-135841709D01*
X267580604Y-135875412D01*
X267421000Y-135941522D01*
X267277360Y-136037499D01*
X267155205Y-136159654D01*
X267059228Y-136303294D01*
X266993118Y-136462898D01*
X266959415Y-136632332D01*
X263360982Y-136632332D01*
X263410060Y-136593861D01*
X263541266Y-136441093D01*
X263640147Y-136265664D01*
X263702904Y-136074315D01*
X263727125Y-135874399D01*
X263727125Y-135474399D01*
X262723125Y-135474399D01*
X262677125Y-135474399D01*
X261673125Y-135474399D01*
X258527125Y-135474399D01*
X258527125Y-135028399D01*
X261673125Y-135028399D01*
X261673125Y-135428399D01*
X262677125Y-135428399D01*
X262677125Y-134093925D01*
X262723125Y-134093925D01*
X262723125Y-135428399D01*
X263727125Y-135428399D01*
X263727125Y-135028399D01*
X263702904Y-134828483D01*
X263640147Y-134637134D01*
X263637441Y-134632332D01*
X266959415Y-134632332D01*
X266959415Y-134805086D01*
X266993118Y-134974520D01*
X267059228Y-135134124D01*
X267155205Y-135277764D01*
X267277360Y-135399919D01*
X267421000Y-135495896D01*
X267580604Y-135562006D01*
X267750038Y-135595709D01*
X267922792Y-135595709D01*
X268092226Y-135562006D01*
X268251830Y-135495896D01*
X268395470Y-135399919D01*
X268517625Y-135277764D01*
X268613602Y-135134124D01*
X268679712Y-134974520D01*
X268713415Y-134805086D01*
X268713415Y-134632332D01*
X268679712Y-134462898D01*
X268613602Y-134303294D01*
X268517625Y-134159654D01*
X268395470Y-134037499D01*
X268251830Y-133941522D01*
X268092226Y-133875412D01*
X267922792Y-133841709D01*
X267750038Y-133841709D01*
X267580604Y-133875412D01*
X267421000Y-133941522D01*
X267277360Y-134037499D01*
X267155205Y-134159654D01*
X267059228Y-134303294D01*
X266993118Y-134462898D01*
X266959415Y-134632332D01*
X263637441Y-134632332D01*
X263541266Y-134461705D01*
X263410060Y-134308937D01*
X263251572Y-134184702D01*
X263071892Y-134093773D01*
X262883460Y-134040896D01*
X262723125Y-134093925D01*
X262677125Y-134093925D01*
X262516790Y-134040896D01*
X262328358Y-134093773D01*
X262148678Y-134184702D01*
X261990190Y-134308937D01*
X261858984Y-134461705D01*
X261760103Y-134637134D01*
X261697346Y-134828483D01*
X261673125Y-135028399D01*
X258527125Y-135028399D01*
X258527125Y-135000948D01*
X258512265Y-134850072D01*
X258453540Y-134656482D01*
X258358176Y-134478068D01*
X258229837Y-134321687D01*
X258073456Y-134193348D01*
X257895041Y-134097984D01*
X257701451Y-134039259D01*
X257500125Y-134019430D01*
X257298798Y-134039259D01*
X257105208Y-134097984D01*
X256926794Y-134193348D01*
X256770413Y-134321687D01*
X256642074Y-134478068D01*
X256546710Y-134656483D01*
X256487985Y-134850073D01*
X256473125Y-135000949D01*
X255617000Y-135000949D01*
X255617000Y-132632332D01*
X266959415Y-132632332D01*
X266959415Y-132805086D01*
X266993118Y-132974520D01*
X267059228Y-133134124D01*
X267155205Y-133277764D01*
X267277360Y-133399919D01*
X267421000Y-133495896D01*
X267580604Y-133562006D01*
X267750038Y-133595709D01*
X267922792Y-133595709D01*
X268092226Y-133562006D01*
X268251830Y-133495896D01*
X268395470Y-133399919D01*
X268517625Y-133277764D01*
X268613602Y-133134124D01*
X268679712Y-132974520D01*
X268713415Y-132805086D01*
X268713415Y-132632332D01*
X268679712Y-132462898D01*
X268613602Y-132303294D01*
X268517625Y-132159654D01*
X268395470Y-132037499D01*
X268251830Y-131941522D01*
X268092226Y-131875412D01*
X267922792Y-131841709D01*
X267750038Y-131841709D01*
X267580604Y-131875412D01*
X267421000Y-131941522D01*
X267277360Y-132037499D01*
X267155205Y-132159654D01*
X267059228Y-132303294D01*
X266993118Y-132462898D01*
X266959415Y-132632332D01*
X255617000Y-132632332D01*
X255617000Y-132353340D01*
X255625000Y-132353340D01*
X255679301Y-132347992D01*
X255731516Y-132332153D01*
X255779637Y-132306431D01*
X255821816Y-132271816D01*
X255856431Y-132229637D01*
X255882153Y-132181516D01*
X255897992Y-132129301D01*
X255903340Y-132075000D01*
X255903340Y-130425000D01*
X255897992Y-130370699D01*
X255882153Y-130318484D01*
X255856431Y-130270363D01*
X255821816Y-130228184D01*
X255779637Y-130193569D01*
X255731516Y-130167847D01*
X255679301Y-130152008D01*
X255625000Y-130146660D01*
X254984765Y-130146660D01*
X254831050Y-130064498D01*
X254590335Y-129991478D01*
X254340000Y-129966822D01*
X254089664Y-129991478D01*
X253848949Y-130064498D01*
X253695234Y-130146660D01*
X253055000Y-130146660D01*
X253000699Y-130152008D01*
X252948484Y-130167847D01*
X252900363Y-130193569D01*
X252858184Y-130228184D01*
X252823569Y-130270363D01*
X252797847Y-130318484D01*
X252782008Y-130370699D01*
X252776660Y-130425000D01*
X251927757Y-130425000D01*
X251928465Y-130051399D01*
X251923117Y-129997098D01*
X251907278Y-129944883D01*
X251881556Y-129896762D01*
X251846941Y-129854583D01*
X251804762Y-129819968D01*
X251756641Y-129794246D01*
X251704426Y-129778407D01*
X251650125Y-129773059D01*
X250392375Y-129774399D01*
X250323125Y-129843649D01*
X250277125Y-129843649D01*
X250207875Y-129774399D01*
X248950125Y-129773059D01*
X248895824Y-129778407D01*
X248843609Y-129794246D01*
X248795488Y-129819968D01*
X248753309Y-129854583D01*
X248718694Y-129896762D01*
X248692972Y-129944883D01*
X248677133Y-129997098D01*
X248671785Y-130051399D01*
X248648570Y-130051399D01*
X248632825Y-129278399D01*
X255022448Y-129278399D01*
X256296660Y-130552611D01*
X256296660Y-132075000D01*
X256302008Y-132129301D01*
X256317847Y-132181516D01*
X256343569Y-132229637D01*
X256378184Y-132271816D01*
X256420363Y-132306431D01*
X256468484Y-132332153D01*
X256520699Y-132347992D01*
X256575000Y-132353340D01*
X257215234Y-132353340D01*
X257368949Y-132435502D01*
X257609664Y-132508522D01*
X257860000Y-132533178D01*
X258110335Y-132508522D01*
X258351050Y-132435502D01*
X258504765Y-132353340D01*
X259145000Y-132353340D01*
X259199301Y-132347992D01*
X259251516Y-132332153D01*
X259299637Y-132306431D01*
X259341816Y-132271816D01*
X259376431Y-132229637D01*
X259402153Y-132181516D01*
X259417992Y-132129301D01*
X259423340Y-132075000D01*
X259423340Y-130425000D01*
X259417992Y-130370699D01*
X259402153Y-130318484D01*
X259376431Y-130270363D01*
X259341816Y-130228184D01*
X259299637Y-130193569D01*
X259251516Y-130167847D01*
X259199301Y-130152008D01*
X259145000Y-130146660D01*
X259127091Y-130146660D01*
X259118523Y-130059664D01*
X259045502Y-129818949D01*
X259032298Y-129794246D01*
X258926924Y-129597104D01*
X258767344Y-129402656D01*
X258718620Y-129362669D01*
X257127125Y-127771174D01*
X257127125Y-126508907D01*
X261922999Y-126508907D01*
X261922999Y-127124873D01*
X262043168Y-127729002D01*
X262278888Y-128298080D01*
X262621100Y-128810236D01*
X263056653Y-129245789D01*
X263568809Y-129588001D01*
X264137887Y-129823721D01*
X264742016Y-129943890D01*
X265357982Y-129943890D01*
X265962111Y-129823721D01*
X266531189Y-129588001D01*
X267043345Y-129245789D01*
X267478898Y-128810236D01*
X267821110Y-128298080D01*
X268056830Y-127729002D01*
X268176999Y-127124873D01*
X268176999Y-126508907D01*
X268056830Y-125904778D01*
X267821110Y-125335700D01*
X267478898Y-124823544D01*
X267043345Y-124387991D01*
X266531189Y-124045779D01*
X265962111Y-123810059D01*
X265357982Y-123689890D01*
X264742016Y-123689890D01*
X264137887Y-123810059D01*
X263568809Y-124045779D01*
X263056653Y-124387991D01*
X262621100Y-124823544D01*
X262278888Y-125335700D01*
X262043168Y-125904778D01*
X261922999Y-126508907D01*
X257127125Y-126508907D01*
X257127125Y-124430688D01*
X257121803Y-124376648D01*
X257106040Y-124324685D01*
X257080442Y-124276795D01*
X257045994Y-124234819D01*
X256216705Y-123405530D01*
X256174729Y-123371082D01*
X256126839Y-123345484D01*
X256074876Y-123329721D01*
X256020836Y-123324399D01*
X250935572Y-123324399D01*
X250564852Y-122953678D01*
X250569333Y-122950000D01*
X250871660Y-122950000D01*
X250877008Y-123004301D01*
X250892847Y-123056516D01*
X250918569Y-123104637D01*
X250953184Y-123146816D01*
X250995363Y-123181431D01*
X251043484Y-123207153D01*
X251095699Y-123222992D01*
X251150000Y-123228340D01*
X252407750Y-123227000D01*
X252477000Y-123157750D01*
X252477000Y-122173000D01*
X252523000Y-122173000D01*
X252523000Y-123157750D01*
X252592250Y-123227000D01*
X253850000Y-123228340D01*
X253904301Y-123222992D01*
X253956516Y-123207153D01*
X254004637Y-123181431D01*
X254046816Y-123146816D01*
X254081431Y-123104637D01*
X254107153Y-123056516D01*
X254122992Y-123004301D01*
X254128340Y-122950000D01*
X254127000Y-122242250D01*
X254057750Y-122173000D01*
X252523000Y-122173000D01*
X252477000Y-122173000D01*
X250942250Y-122173000D01*
X250873000Y-122242250D01*
X250871660Y-122950000D01*
X250569333Y-122950000D01*
X250598316Y-122926215D01*
X250632931Y-122884036D01*
X250658653Y-122835915D01*
X250674492Y-122783700D01*
X250679840Y-122729399D01*
X250678500Y-122021649D01*
X250609250Y-121952399D01*
X249523000Y-121952399D01*
X249523000Y-121972399D01*
X249477000Y-121972399D01*
X249477000Y-121952399D01*
X248390750Y-121952399D01*
X248321500Y-122021649D01*
X248320359Y-122624399D01*
X247979414Y-122624399D01*
X247925374Y-122629721D01*
X247873411Y-122645484D01*
X247825521Y-122671082D01*
X247783545Y-122705531D01*
X247227265Y-123261811D01*
X247227265Y-123025099D01*
X247221917Y-122970798D01*
X247206078Y-122918583D01*
X247180356Y-122870462D01*
X247145741Y-122828283D01*
X247103562Y-122793668D01*
X247055441Y-122767946D01*
X247003226Y-122752107D01*
X246948925Y-122746759D01*
X245294025Y-122746759D01*
X245239724Y-122752107D01*
X245187509Y-122767946D01*
X245139388Y-122793668D01*
X245097209Y-122828283D01*
X245062594Y-122870462D01*
X245039932Y-122912858D01*
X245024286Y-122914399D01*
X245024278Y-122914399D01*
X244965219Y-122920216D01*
X244889442Y-122943202D01*
X244819605Y-122980531D01*
X244758393Y-123030767D01*
X244757489Y-123031869D01*
X244756393Y-123032768D01*
X244743807Y-123048104D01*
X244743804Y-123048107D01*
X244736903Y-123056516D01*
X244706157Y-123093980D01*
X244683768Y-123135867D01*
X244668828Y-123163817D01*
X244645841Y-123239595D01*
X244638080Y-123318400D01*
X244640025Y-123338149D01*
X244640024Y-127019452D01*
X244603309Y-127049583D01*
X244568694Y-127091762D01*
X244542972Y-127139883D01*
X244527133Y-127192098D01*
X244521785Y-127246399D01*
X244521785Y-127846399D01*
X244527133Y-127900700D01*
X244542972Y-127952915D01*
X244568694Y-128001036D01*
X244603309Y-128043215D01*
X244645488Y-128077830D01*
X244693609Y-128103552D01*
X244745824Y-128119391D01*
X244796673Y-128124399D01*
X243821193Y-128124399D01*
X243812831Y-127101601D01*
X243807518Y-127049825D01*
X243791755Y-126997862D01*
X243766157Y-126949972D01*
X243731709Y-126907996D01*
X243689733Y-126873548D01*
X243641843Y-126847950D01*
X243267640Y-126692950D01*
X243240993Y-126671082D01*
X243193103Y-126645484D01*
X243141140Y-126629721D01*
X243087100Y-126624399D01*
X239779414Y-126624399D01*
X239725374Y-126629721D01*
X239673411Y-126645484D01*
X239625521Y-126671082D01*
X239583545Y-126705530D01*
X239247855Y-127041220D01*
X239213407Y-127083196D01*
X239187809Y-127131086D01*
X238994210Y-127598475D01*
X238978447Y-127650438D01*
X238973125Y-127704478D01*
X238973125Y-128315952D01*
X238754106Y-128534970D01*
X238745632Y-128543827D01*
X238443094Y-128874399D01*
X237665788Y-128874399D01*
X237752205Y-128803479D01*
X237849302Y-128685165D01*
X237921452Y-128550183D01*
X237965882Y-128403718D01*
X237980884Y-128251399D01*
X237965882Y-128099080D01*
X237921452Y-127952615D01*
X237849302Y-127817633D01*
X237752205Y-127699319D01*
X237633891Y-127602222D01*
X237498909Y-127530072D01*
X237352444Y-127485642D01*
X237238291Y-127474399D01*
X235693130Y-127474399D01*
X235716516Y-127458773D01*
X235807499Y-127367790D01*
X235878984Y-127260805D01*
X235928223Y-127141931D01*
X235953325Y-127015734D01*
X235953325Y-126887064D01*
X235928223Y-126760867D01*
X235878984Y-126641993D01*
X235807499Y-126535008D01*
X235716516Y-126444025D01*
X235609531Y-126372540D01*
X235490657Y-126323301D01*
X235364460Y-126298199D01*
X235235790Y-126298199D01*
X235109593Y-126323301D01*
X234990719Y-126372540D01*
X234883734Y-126444025D01*
X234792751Y-126535008D01*
X234721266Y-126641993D01*
X234672027Y-126760867D01*
X234646925Y-126887064D01*
X234646925Y-127015734D01*
X234650302Y-127032709D01*
X234585622Y-127097389D01*
X222865903Y-127097389D01*
X220668223Y-124899710D01*
X220655632Y-124884368D01*
X220594420Y-124834132D01*
X220524583Y-124796803D01*
X220448806Y-124773817D01*
X220389747Y-124768000D01*
X220389739Y-124768000D01*
X220370000Y-124766056D01*
X220350261Y-124768000D01*
X210335360Y-124768000D01*
X210335057Y-124729187D01*
X210340532Y-124728098D01*
X210459406Y-124678859D01*
X210566391Y-124607374D01*
X210657374Y-124516391D01*
X210728859Y-124409406D01*
X210778098Y-124290532D01*
X210803200Y-124164335D01*
X210803200Y-124035665D01*
X210778098Y-123909468D01*
X210728859Y-123790594D01*
X210657374Y-123683609D01*
X210566391Y-123592626D01*
X210459406Y-123521141D01*
X210340532Y-123471902D01*
X210325201Y-123468853D01*
X210323275Y-123222541D01*
X210321170Y-123202000D01*
X212580261Y-123202000D01*
X212600000Y-123203944D01*
X212619739Y-123202000D01*
X212619747Y-123202000D01*
X212678806Y-123196183D01*
X212754583Y-123173197D01*
X212824420Y-123135868D01*
X212885632Y-123085632D01*
X212898223Y-123070290D01*
X213296986Y-122671527D01*
X213298008Y-122802167D01*
X213303323Y-122854041D01*
X213319085Y-122906005D01*
X213344683Y-122953894D01*
X213379132Y-122995870D01*
X213421107Y-123030318D01*
X213468997Y-123055916D01*
X213520960Y-123071679D01*
X213575000Y-123077001D01*
X215425000Y-123076999D01*
X215481163Y-123071246D01*
X215533001Y-123055077D01*
X215580689Y-123029106D01*
X215622394Y-122994330D01*
X215656513Y-122952086D01*
X215681736Y-122903998D01*
X215697092Y-122851913D01*
X215701992Y-122797833D01*
X215699483Y-122477000D01*
X216791617Y-122477000D01*
X216778673Y-122501216D01*
X216734243Y-122647681D01*
X216719241Y-122800000D01*
X216734243Y-122952319D01*
X216778673Y-123098784D01*
X216850823Y-123233766D01*
X216947920Y-123352080D01*
X217066234Y-123449177D01*
X217201216Y-123521327D01*
X217347681Y-123565757D01*
X217461834Y-123577000D01*
X220261837Y-123577000D01*
X220300000Y-123580759D01*
X220338163Y-123577000D01*
X220338166Y-123577000D01*
X220452319Y-123565757D01*
X220486432Y-123555409D01*
X221123000Y-123555409D01*
X221123000Y-123563939D01*
X221119241Y-123602102D01*
X221123000Y-123640265D01*
X221123000Y-123640268D01*
X221134244Y-123754421D01*
X221141549Y-123778501D01*
X221178673Y-123900885D01*
X221250823Y-124035868D01*
X221312426Y-124110931D01*
X221347921Y-124154182D01*
X221377565Y-124178510D01*
X221499986Y-124300931D01*
X221524319Y-124330581D01*
X221642633Y-124427678D01*
X221777615Y-124499828D01*
X221924080Y-124544258D01*
X222038233Y-124555501D01*
X222038235Y-124555501D01*
X222076399Y-124559260D01*
X222114562Y-124555501D01*
X227399656Y-124555501D01*
X228417989Y-125573835D01*
X228442317Y-125603479D01*
X228471961Y-125627807D01*
X228471962Y-125627808D01*
X228560631Y-125700577D01*
X228643523Y-125744883D01*
X228695613Y-125772726D01*
X228842078Y-125817156D01*
X228956231Y-125828399D01*
X228956233Y-125828399D01*
X228994397Y-125832158D01*
X229032560Y-125828399D01*
X235288291Y-125828399D01*
X235402444Y-125817156D01*
X235548909Y-125772726D01*
X235683891Y-125700576D01*
X235802205Y-125603479D01*
X235899302Y-125485165D01*
X235959264Y-125372986D01*
X236123125Y-125536847D01*
X236123125Y-126172110D01*
X236128447Y-126226150D01*
X236144210Y-126278113D01*
X236169808Y-126326003D01*
X236204256Y-126367979D01*
X236383545Y-126547268D01*
X236425521Y-126581716D01*
X236473411Y-126607314D01*
X236525374Y-126623077D01*
X236579414Y-126628399D01*
X238670836Y-126628399D01*
X238724876Y-126623077D01*
X238776839Y-126607314D01*
X238824729Y-126581716D01*
X238866705Y-126547268D01*
X238995994Y-126417979D01*
X239030442Y-126376003D01*
X239056040Y-126328113D01*
X239071803Y-126276150D01*
X239077125Y-126222110D01*
X239077125Y-125419689D01*
X239383416Y-125113399D01*
X239504674Y-125113399D01*
X239544809Y-125134852D01*
X239597024Y-125150691D01*
X239651325Y-125156039D01*
X241306225Y-125156039D01*
X241360526Y-125150691D01*
X241412741Y-125134852D01*
X241460862Y-125109130D01*
X241503041Y-125074515D01*
X241527853Y-125044281D01*
X241542626Y-125066391D01*
X241633609Y-125157374D01*
X241648000Y-125166990D01*
X241648000Y-125379399D01*
X241512164Y-125379399D01*
X241503041Y-125368283D01*
X241460862Y-125333668D01*
X241412741Y-125307946D01*
X241360526Y-125292107D01*
X241306225Y-125286759D01*
X239651325Y-125286759D01*
X239597024Y-125292107D01*
X239544809Y-125307946D01*
X239496688Y-125333668D01*
X239454509Y-125368283D01*
X239419894Y-125410462D01*
X239394172Y-125458583D01*
X239378333Y-125510798D01*
X239372985Y-125565099D01*
X239372985Y-126147699D01*
X239378333Y-126202000D01*
X239394172Y-126254215D01*
X239419894Y-126302336D01*
X239454509Y-126344515D01*
X239496688Y-126379130D01*
X239544809Y-126404852D01*
X239597024Y-126420691D01*
X239651325Y-126426039D01*
X241306225Y-126426039D01*
X241360526Y-126420691D01*
X241412741Y-126404852D01*
X241460862Y-126379130D01*
X241503041Y-126344515D01*
X241512164Y-126333399D01*
X241918548Y-126333399D01*
X241988633Y-126326496D01*
X242078548Y-126299221D01*
X242161414Y-126254928D01*
X242234046Y-126195320D01*
X242293654Y-126122688D01*
X242337947Y-126039822D01*
X242363085Y-125956952D01*
X242420300Y-125899737D01*
X242435631Y-125887155D01*
X242448213Y-125871824D01*
X242448220Y-125871817D01*
X242485868Y-125825944D01*
X242523197Y-125756108D01*
X242546183Y-125680330D01*
X242553944Y-125601524D01*
X242550567Y-125567237D01*
X242546183Y-125522718D01*
X242537479Y-125494026D01*
X242523197Y-125446941D01*
X242485868Y-125377105D01*
X242452000Y-125335837D01*
X242452000Y-125166990D01*
X242466391Y-125157374D01*
X242557374Y-125066391D01*
X242628859Y-124959406D01*
X242678098Y-124840532D01*
X242703200Y-124714335D01*
X242703200Y-124585665D01*
X242678098Y-124459468D01*
X242628859Y-124340594D01*
X242557374Y-124233609D01*
X242466391Y-124142626D01*
X242359406Y-124071141D01*
X242240532Y-124021902D01*
X242114335Y-123996800D01*
X241985665Y-123996800D01*
X241859468Y-124021902D01*
X241740594Y-124071141D01*
X241633609Y-124142626D01*
X241569028Y-124207207D01*
X241563378Y-124188583D01*
X241537656Y-124140462D01*
X241503041Y-124098283D01*
X241460862Y-124063668D01*
X241412741Y-124037946D01*
X241360526Y-124022107D01*
X241306225Y-124016759D01*
X239651325Y-124016759D01*
X239597024Y-124022107D01*
X239544809Y-124037946D01*
X239504674Y-124059399D01*
X239191006Y-124059399D01*
X239165125Y-124056850D01*
X239139244Y-124059399D01*
X239061815Y-124067025D01*
X238962475Y-124097160D01*
X238927193Y-124116018D01*
X238689574Y-123878399D01*
X239589468Y-123878399D01*
X239597024Y-123880691D01*
X239651325Y-123886039D01*
X241306225Y-123886039D01*
X241360526Y-123880691D01*
X241368082Y-123878399D01*
X243850125Y-123878399D01*
X243904182Y-123873073D01*
X243956144Y-123857307D01*
X244004032Y-123831706D01*
X244046006Y-123797255D01*
X244080452Y-123755278D01*
X244106046Y-123707386D01*
X244121806Y-123655422D01*
X244127125Y-123601382D01*
X244127047Y-122337699D01*
X245015685Y-122337699D01*
X245021033Y-122392000D01*
X245036872Y-122444215D01*
X245062594Y-122492336D01*
X245097209Y-122534515D01*
X245139388Y-122569130D01*
X245187509Y-122594852D01*
X245239724Y-122610691D01*
X245294025Y-122616039D01*
X246029225Y-122614699D01*
X246098475Y-122545449D01*
X246098475Y-122069399D01*
X246144475Y-122069399D01*
X246144475Y-122545449D01*
X246213725Y-122614699D01*
X246948925Y-122616039D01*
X247003226Y-122610691D01*
X247055441Y-122594852D01*
X247103562Y-122569130D01*
X247145741Y-122534515D01*
X247180356Y-122492336D01*
X247206078Y-122444215D01*
X247221917Y-122392000D01*
X247227265Y-122337699D01*
X247225925Y-122138649D01*
X247156675Y-122069399D01*
X246144475Y-122069399D01*
X246098475Y-122069399D01*
X245086275Y-122069399D01*
X245017025Y-122138649D01*
X245015685Y-122337699D01*
X244127047Y-122337699D01*
X244127010Y-121755099D01*
X245015685Y-121755099D01*
X245017025Y-121954149D01*
X245086275Y-122023399D01*
X246098475Y-122023399D01*
X246098475Y-121547349D01*
X246144475Y-121547349D01*
X246144475Y-122023399D01*
X247156675Y-122023399D01*
X247225925Y-121954149D01*
X247227265Y-121755099D01*
X247221917Y-121700798D01*
X247206078Y-121648583D01*
X247180356Y-121600462D01*
X247145741Y-121558283D01*
X247103562Y-121523668D01*
X247055441Y-121497946D01*
X247003226Y-121482107D01*
X246948925Y-121476759D01*
X246213725Y-121478099D01*
X246144475Y-121547349D01*
X246098475Y-121547349D01*
X246029225Y-121478099D01*
X245294025Y-121476759D01*
X245239724Y-121482107D01*
X245187509Y-121497946D01*
X245139388Y-121523668D01*
X245097209Y-121558283D01*
X245062594Y-121600462D01*
X245036872Y-121648583D01*
X245021033Y-121700798D01*
X245015685Y-121755099D01*
X244127010Y-121755099D01*
X244127000Y-121599983D01*
X244121678Y-121545960D01*
X244105915Y-121493997D01*
X244080317Y-121446107D01*
X244045869Y-121404131D01*
X244003893Y-121369683D01*
X243956003Y-121344085D01*
X243904040Y-121328322D01*
X243850000Y-121323000D01*
X243467103Y-121323000D01*
X243407374Y-121233609D01*
X243401265Y-121227500D01*
X248320346Y-121227500D01*
X248321500Y-121837149D01*
G37*
X248321500Y-121837149D02*
X248390750Y-121906399D01*
X249477000Y-121906399D01*
X249477000Y-121886399D01*
X249523000Y-121886399D01*
X249523000Y-121906399D01*
X250609250Y-121906399D01*
X250678500Y-121837149D01*
X250679654Y-121227500D01*
X250901391Y-121227500D01*
X250892847Y-121243484D01*
X250877008Y-121295699D01*
X250871660Y-121350000D01*
X250873000Y-122057750D01*
X250942250Y-122127000D01*
X252477000Y-122127000D01*
X252477000Y-122107000D01*
X252523000Y-122107000D01*
X252523000Y-122127000D01*
X254057750Y-122127000D01*
X254127000Y-122057750D01*
X254128340Y-121350000D01*
X254122992Y-121295699D01*
X254107153Y-121243484D01*
X254098609Y-121227500D01*
X268322501Y-121227500D01*
X268322500Y-122336375D01*
X268321158Y-122350000D01*
X268326516Y-122404399D01*
X268342384Y-122456708D01*
X268351851Y-122474420D01*
X268368151Y-122504916D01*
X268402829Y-122547171D01*
X268445084Y-122581849D01*
X268493292Y-122607616D01*
X268545601Y-122623484D01*
X268600000Y-122628842D01*
X268613625Y-122627500D01*
X275622500Y-122627500D01*
X275622499Y-145572500D01*
X252477499Y-145572500D01*
X252477499Y-142158321D01*
X252823125Y-142158321D01*
X252823126Y-143344478D01*
X252835816Y-143473321D01*
X252885964Y-143638636D01*
X252967399Y-143790991D01*
X253076993Y-143924532D01*
X253210534Y-144034126D01*
X253362889Y-144115561D01*
X253528204Y-144165709D01*
X253700125Y-144182642D01*
X253872047Y-144165709D01*
X254037362Y-144115561D01*
X254189717Y-144034126D01*
X254323258Y-143924532D01*
X254432852Y-143790991D01*
X254514287Y-143638636D01*
X254564435Y-143473321D01*
X254577125Y-143344478D01*
X254577125Y-142158320D01*
X254564435Y-142029477D01*
X254514287Y-141864162D01*
X254432852Y-141711807D01*
X254341918Y-141601003D01*
X255873125Y-141601003D01*
X255873125Y-141901795D01*
X255931806Y-142196809D01*
X256046915Y-142474705D01*
X256214026Y-142724805D01*
X256426719Y-142937498D01*
X256676819Y-143104609D01*
X256954715Y-143219718D01*
X257249729Y-143278399D01*
X257550521Y-143278399D01*
X257845535Y-143219718D01*
X258123431Y-143104609D01*
X258373531Y-142937498D01*
X258586224Y-142724805D01*
X258753335Y-142474705D01*
X258868444Y-142196809D01*
X258876099Y-142158321D01*
X262723125Y-142158321D01*
X262723126Y-143344478D01*
X262735816Y-143473321D01*
X262785964Y-143638636D01*
X262867399Y-143790991D01*
X262976993Y-143924532D01*
X263110534Y-144034126D01*
X263262889Y-144115561D01*
X263428204Y-144165709D01*
X263600125Y-144182642D01*
X263772047Y-144165709D01*
X263937362Y-144115561D01*
X264073000Y-144043061D01*
X264073000Y-144071756D01*
X264127838Y-144347450D01*
X264235409Y-144607147D01*
X264391576Y-144840869D01*
X264590340Y-145039633D01*
X264824062Y-145195800D01*
X265083759Y-145303371D01*
X265359453Y-145358209D01*
X265640547Y-145358209D01*
X265916241Y-145303371D01*
X266175938Y-145195800D01*
X266409660Y-145039633D01*
X266608424Y-144840869D01*
X266764591Y-144607147D01*
X266872162Y-144347450D01*
X266927000Y-144071756D01*
X266927000Y-143790662D01*
X266872162Y-143514968D01*
X266764591Y-143255271D01*
X266608424Y-143021549D01*
X266409660Y-142822785D01*
X266175938Y-142666618D01*
X265916241Y-142559047D01*
X265640547Y-142504209D01*
X265359453Y-142504209D01*
X265083759Y-142559047D01*
X264824062Y-142666618D01*
X264590340Y-142822785D01*
X264477125Y-142936000D01*
X264477125Y-142158320D01*
X264464435Y-142029477D01*
X264414287Y-141864162D01*
X264332852Y-141711807D01*
X264223258Y-141578266D01*
X264089716Y-141468672D01*
X263937361Y-141387237D01*
X263772046Y-141337089D01*
X263712347Y-141331209D01*
X264318031Y-141331209D01*
X264337860Y-141532536D01*
X264396585Y-141726126D01*
X264491949Y-141904540D01*
X264620288Y-142060921D01*
X264776669Y-142189260D01*
X264955083Y-142284624D01*
X265148673Y-142343349D01*
X265299549Y-142358209D01*
X265924935Y-142358209D01*
X266075811Y-142343349D01*
X266269401Y-142284624D01*
X266447815Y-142189260D01*
X266604196Y-142060921D01*
X266732535Y-141904540D01*
X266827899Y-141726126D01*
X266886624Y-141532536D01*
X266906453Y-141331209D01*
X266905222Y-141318709D01*
X266958075Y-141318709D01*
X266963423Y-141373010D01*
X266979262Y-141425225D01*
X267004984Y-141473346D01*
X267039599Y-141515525D01*
X267081778Y-141550140D01*
X267129899Y-141575862D01*
X267182114Y-141591701D01*
X267236415Y-141597049D01*
X267744165Y-141595709D01*
X267813415Y-141526459D01*
X267813415Y-140741709D01*
X267859415Y-140741709D01*
X267859415Y-141526459D01*
X267928665Y-141595709D01*
X268436415Y-141597049D01*
X268490716Y-141591701D01*
X268542931Y-141575862D01*
X268591052Y-141550140D01*
X268633231Y-141515525D01*
X268667846Y-141473346D01*
X268693568Y-141425225D01*
X268709407Y-141373010D01*
X268714755Y-141318709D01*
X268713415Y-140810959D01*
X268644165Y-140741709D01*
X267859415Y-140741709D01*
X267813415Y-140741709D01*
X267028665Y-140741709D01*
X266959415Y-140810959D01*
X266958075Y-141318709D01*
X266905222Y-141318709D01*
X266886624Y-141129882D01*
X266827899Y-140936292D01*
X266732535Y-140757878D01*
X266604196Y-140601497D01*
X266447815Y-140473158D01*
X266269401Y-140377794D01*
X266075811Y-140319069D01*
X265924935Y-140304209D01*
X265299549Y-140304209D01*
X265148673Y-140319069D01*
X264955083Y-140377794D01*
X264776669Y-140473158D01*
X264620288Y-140601497D01*
X264491949Y-140757878D01*
X264396585Y-140936292D01*
X264337860Y-141129882D01*
X264318031Y-141331209D01*
X263712347Y-141331209D01*
X263600125Y-141320156D01*
X263428203Y-141337089D01*
X263262888Y-141387237D01*
X263110533Y-141468672D01*
X262976992Y-141578266D01*
X262867398Y-141711808D01*
X262785963Y-141864163D01*
X262735815Y-142029478D01*
X262723125Y-142158321D01*
X258876099Y-142158321D01*
X258927125Y-141901795D01*
X258927125Y-141601003D01*
X258868444Y-141305989D01*
X258753335Y-141028093D01*
X258586224Y-140777993D01*
X258373531Y-140565300D01*
X258123431Y-140398189D01*
X257845535Y-140283080D01*
X257550521Y-140224399D01*
X257249729Y-140224399D01*
X256954715Y-140283080D01*
X256676819Y-140398189D01*
X256426719Y-140565300D01*
X256214026Y-140777993D01*
X256046915Y-141028093D01*
X255931806Y-141305989D01*
X255873125Y-141601003D01*
X254341918Y-141601003D01*
X254323258Y-141578266D01*
X254189716Y-141468672D01*
X254037361Y-141387237D01*
X253872046Y-141337089D01*
X253700125Y-141320156D01*
X253528203Y-141337089D01*
X253362888Y-141387237D01*
X253210533Y-141468672D01*
X253076992Y-141578266D01*
X252967398Y-141711808D01*
X252885963Y-141864163D01*
X252835815Y-142029478D01*
X252823125Y-142158321D01*
X252477499Y-142158321D01*
X252477499Y-140118709D01*
X266958075Y-140118709D01*
X266959415Y-140626459D01*
X267028665Y-140695709D01*
X267813415Y-140695709D01*
X267813415Y-139910959D01*
X267859415Y-139910959D01*
X267859415Y-140695709D01*
X268644165Y-140695709D01*
X268713415Y-140626459D01*
X268714755Y-140118709D01*
X268709407Y-140064408D01*
X268693568Y-140012193D01*
X268667846Y-139964072D01*
X268633231Y-139921893D01*
X268591052Y-139887278D01*
X268542931Y-139861556D01*
X268490716Y-139845717D01*
X268436415Y-139840369D01*
X267928665Y-139841709D01*
X267859415Y-139910959D01*
X267813415Y-139910959D01*
X267744165Y-139841709D01*
X267236415Y-139840369D01*
X267182114Y-139845717D01*
X267129899Y-139861556D01*
X267081778Y-139887278D01*
X267039599Y-139921893D01*
X267004984Y-139964072D01*
X266979262Y-140012193D01*
X266963423Y-140064408D01*
X266958075Y-140118709D01*
X252477499Y-140118709D01*
X252477499Y-139308908D01*
X267278743Y-139308908D01*
X267337217Y-139444926D01*
X267488487Y-139528360D01*
X267653128Y-139580680D01*
X267824812Y-139599875D01*
X267996942Y-139585208D01*
X268162903Y-139537240D01*
X268316317Y-139457818D01*
X268335613Y-139444926D01*
X268394087Y-139308908D01*
X267836415Y-138751236D01*
X267278743Y-139308908D01*
X252477499Y-139308908D01*
X252477499Y-138707106D01*
X266955249Y-138707106D01*
X266969916Y-138879236D01*
X267017884Y-139045197D01*
X267097306Y-139198611D01*
X267110198Y-139217907D01*
X267246216Y-139276381D01*
X267803888Y-138718709D01*
X267868942Y-138718709D01*
X268426614Y-139276381D01*
X268562632Y-139217907D01*
X268646066Y-139066637D01*
X268698386Y-138901996D01*
X268717581Y-138730312D01*
X268702914Y-138558182D01*
X268654946Y-138392221D01*
X268575524Y-138238807D01*
X268562632Y-138219511D01*
X268426614Y-138161037D01*
X267868942Y-138718709D01*
X267803888Y-138718709D01*
X267246216Y-138161037D01*
X267110198Y-138219511D01*
X267026764Y-138370781D01*
X266974444Y-138535422D01*
X266955249Y-138707106D01*
X252477499Y-138707106D01*
X252477499Y-138128510D01*
X267278743Y-138128510D01*
X267836415Y-138686182D01*
X268394087Y-138128510D01*
X268335613Y-137992492D01*
X268184343Y-137909058D01*
X268019702Y-137856738D01*
X267848018Y-137837543D01*
X267675888Y-137852210D01*
X267509927Y-137900178D01*
X267356513Y-137979600D01*
X267337217Y-137992492D01*
X267278743Y-138128510D01*
X252477499Y-138128510D01*
X252477499Y-131963625D01*
X252478841Y-131950000D01*
X252473483Y-131895601D01*
X252457615Y-131843292D01*
X252431848Y-131795084D01*
X252397170Y-131752829D01*
X252354915Y-131718151D01*
X252306707Y-131692384D01*
X252254398Y-131676516D01*
X252213624Y-131672500D01*
X252199999Y-131671158D01*
X252186374Y-131672500D01*
X251926387Y-131672500D01*
X251928465Y-131651399D01*
X251927125Y-130943649D01*
X251857875Y-130874399D01*
X250323125Y-130874399D01*
X250323125Y-130894399D01*
X250277125Y-130894399D01*
X250277125Y-130874399D01*
X248742375Y-130874399D01*
X248673125Y-130943649D01*
X248672582Y-131230273D01*
X248648570Y-130051399D01*
X248671785Y-130051399D01*
X248673125Y-130759149D01*
X248742375Y-130828399D01*
X250277125Y-130828399D01*
X250277125Y-129843649D01*
X250323125Y-129843649D01*
X250323125Y-130828399D01*
X251857875Y-130828399D01*
X251927125Y-130759149D01*
X251927757Y-130425000D01*
X252776660Y-130425000D01*
X252776660Y-132075000D01*
X252782008Y-132129301D01*
X252797847Y-132181516D01*
X252823569Y-132229637D01*
X252858184Y-132271816D01*
X252900363Y-132306431D01*
X252948484Y-132332153D01*
X253000699Y-132347992D01*
X253055000Y-132353340D01*
X253063000Y-132353340D01*
X253063001Y-134702194D01*
X253033202Y-134738504D01*
X252914624Y-134960348D01*
X252841603Y-135201064D01*
X252816947Y-135451399D01*
X252841603Y-135701734D01*
X252914624Y-135942450D01*
X253033202Y-136164294D01*
X253192782Y-136358742D01*
X253217761Y-136379242D01*
X253242075Y-136424730D01*
X253370414Y-136581111D01*
X253526795Y-136709450D01*
X253705209Y-136804814D01*
X253898799Y-136863539D01*
X254100125Y-136883368D01*
X254301452Y-136863539D01*
X254495042Y-136804814D01*
X254673456Y-136709450D01*
X254829837Y-136581111D01*
X254958176Y-136424730D01*
X254987379Y-136370095D01*
X255198615Y-136158859D01*
X255247344Y-136118868D01*
X255406924Y-135924420D01*
X255525502Y-135702575D01*
X255598522Y-135461860D01*
X255617000Y-135274250D01*
X255617000Y-135274243D01*
X255623177Y-135211525D01*
X255617000Y-135148806D01*
X255617000Y-135000949D01*
X256473125Y-135000949D01*
X256473125Y-135901850D01*
X256487986Y-136052726D01*
X256546711Y-136246316D01*
X256642075Y-136424730D01*
X256770414Y-136581111D01*
X256926795Y-136709450D01*
X257105209Y-136804814D01*
X257298799Y-136863539D01*
X257500125Y-136883368D01*
X257701452Y-136863539D01*
X257895042Y-136804814D01*
X258073456Y-136709450D01*
X258229837Y-136581111D01*
X258358176Y-136424730D01*
X258453540Y-136246316D01*
X258512265Y-136052725D01*
X258527125Y-135901849D01*
X258527125Y-135474399D01*
X261673125Y-135474399D01*
X261673125Y-135874399D01*
X261697346Y-136074315D01*
X261760103Y-136265664D01*
X261858984Y-136441093D01*
X261990190Y-136593861D01*
X262148678Y-136718096D01*
X262328358Y-136809025D01*
X262516790Y-136861902D01*
X262677125Y-136808873D01*
X262677125Y-135474399D01*
X262723125Y-135474399D01*
X262723125Y-136808873D01*
X262883460Y-136861902D01*
X263071892Y-136809025D01*
X263251572Y-136718096D01*
X263360982Y-136632332D01*
X266959415Y-136632332D01*
X266959415Y-136805086D01*
X266993118Y-136974520D01*
X267059228Y-137134124D01*
X267155205Y-137277764D01*
X267277360Y-137399919D01*
X267421000Y-137495896D01*
X267580604Y-137562006D01*
X267750038Y-137595709D01*
X267922792Y-137595709D01*
X268092226Y-137562006D01*
X268251830Y-137495896D01*
X268395470Y-137399919D01*
X268517625Y-137277764D01*
X268613602Y-137134124D01*
X268679712Y-136974520D01*
X268713415Y-136805086D01*
X268713415Y-136632332D01*
X268679712Y-136462898D01*
X268613602Y-136303294D01*
X268517625Y-136159654D01*
X268395470Y-136037499D01*
X268251830Y-135941522D01*
X268092226Y-135875412D01*
X267922792Y-135841709D01*
X267750038Y-135841709D01*
X267580604Y-135875412D01*
X267421000Y-135941522D01*
X267277360Y-136037499D01*
X267155205Y-136159654D01*
X267059228Y-136303294D01*
X266993118Y-136462898D01*
X266959415Y-136632332D01*
X263360982Y-136632332D01*
X263410060Y-136593861D01*
X263541266Y-136441093D01*
X263640147Y-136265664D01*
X263702904Y-136074315D01*
X263727125Y-135874399D01*
X263727125Y-135474399D01*
X262723125Y-135474399D01*
X262677125Y-135474399D01*
X261673125Y-135474399D01*
X258527125Y-135474399D01*
X258527125Y-135028399D01*
X261673125Y-135028399D01*
X261673125Y-135428399D01*
X262677125Y-135428399D01*
X262677125Y-134093925D01*
X262723125Y-134093925D01*
X262723125Y-135428399D01*
X263727125Y-135428399D01*
X263727125Y-135028399D01*
X263702904Y-134828483D01*
X263640147Y-134637134D01*
X263637441Y-134632332D01*
X266959415Y-134632332D01*
X266959415Y-134805086D01*
X266993118Y-134974520D01*
X267059228Y-135134124D01*
X267155205Y-135277764D01*
X267277360Y-135399919D01*
X267421000Y-135495896D01*
X267580604Y-135562006D01*
X267750038Y-135595709D01*
X267922792Y-135595709D01*
X268092226Y-135562006D01*
X268251830Y-135495896D01*
X268395470Y-135399919D01*
X268517625Y-135277764D01*
X268613602Y-135134124D01*
X268679712Y-134974520D01*
X268713415Y-134805086D01*
X268713415Y-134632332D01*
X268679712Y-134462898D01*
X268613602Y-134303294D01*
X268517625Y-134159654D01*
X268395470Y-134037499D01*
X268251830Y-133941522D01*
X268092226Y-133875412D01*
X267922792Y-133841709D01*
X267750038Y-133841709D01*
X267580604Y-133875412D01*
X267421000Y-133941522D01*
X267277360Y-134037499D01*
X267155205Y-134159654D01*
X267059228Y-134303294D01*
X266993118Y-134462898D01*
X266959415Y-134632332D01*
X263637441Y-134632332D01*
X263541266Y-134461705D01*
X263410060Y-134308937D01*
X263251572Y-134184702D01*
X263071892Y-134093773D01*
X262883460Y-134040896D01*
X262723125Y-134093925D01*
X262677125Y-134093925D01*
X262516790Y-134040896D01*
X262328358Y-134093773D01*
X262148678Y-134184702D01*
X261990190Y-134308937D01*
X261858984Y-134461705D01*
X261760103Y-134637134D01*
X261697346Y-134828483D01*
X261673125Y-135028399D01*
X258527125Y-135028399D01*
X258527125Y-135000948D01*
X258512265Y-134850072D01*
X258453540Y-134656482D01*
X258358176Y-134478068D01*
X258229837Y-134321687D01*
X258073456Y-134193348D01*
X257895041Y-134097984D01*
X257701451Y-134039259D01*
X257500125Y-134019430D01*
X257298798Y-134039259D01*
X257105208Y-134097984D01*
X256926794Y-134193348D01*
X256770413Y-134321687D01*
X256642074Y-134478068D01*
X256546710Y-134656483D01*
X256487985Y-134850073D01*
X256473125Y-135000949D01*
X255617000Y-135000949D01*
X255617000Y-132632332D01*
X266959415Y-132632332D01*
X266959415Y-132805086D01*
X266993118Y-132974520D01*
X267059228Y-133134124D01*
X267155205Y-133277764D01*
X267277360Y-133399919D01*
X267421000Y-133495896D01*
X267580604Y-133562006D01*
X267750038Y-133595709D01*
X267922792Y-133595709D01*
X268092226Y-133562006D01*
X268251830Y-133495896D01*
X268395470Y-133399919D01*
X268517625Y-133277764D01*
X268613602Y-133134124D01*
X268679712Y-132974520D01*
X268713415Y-132805086D01*
X268713415Y-132632332D01*
X268679712Y-132462898D01*
X268613602Y-132303294D01*
X268517625Y-132159654D01*
X268395470Y-132037499D01*
X268251830Y-131941522D01*
X268092226Y-131875412D01*
X267922792Y-131841709D01*
X267750038Y-131841709D01*
X267580604Y-131875412D01*
X267421000Y-131941522D01*
X267277360Y-132037499D01*
X267155205Y-132159654D01*
X267059228Y-132303294D01*
X266993118Y-132462898D01*
X266959415Y-132632332D01*
X255617000Y-132632332D01*
X255617000Y-132353340D01*
X255625000Y-132353340D01*
X255679301Y-132347992D01*
X255731516Y-132332153D01*
X255779637Y-132306431D01*
X255821816Y-132271816D01*
X255856431Y-132229637D01*
X255882153Y-132181516D01*
X255897992Y-132129301D01*
X255903340Y-132075000D01*
X255903340Y-130425000D01*
X255897992Y-130370699D01*
X255882153Y-130318484D01*
X255856431Y-130270363D01*
X255821816Y-130228184D01*
X255779637Y-130193569D01*
X255731516Y-130167847D01*
X255679301Y-130152008D01*
X255625000Y-130146660D01*
X254984765Y-130146660D01*
X254831050Y-130064498D01*
X254590335Y-129991478D01*
X254340000Y-129966822D01*
X254089664Y-129991478D01*
X253848949Y-130064498D01*
X253695234Y-130146660D01*
X253055000Y-130146660D01*
X253000699Y-130152008D01*
X252948484Y-130167847D01*
X252900363Y-130193569D01*
X252858184Y-130228184D01*
X252823569Y-130270363D01*
X252797847Y-130318484D01*
X252782008Y-130370699D01*
X252776660Y-130425000D01*
X251927757Y-130425000D01*
X251928465Y-130051399D01*
X251923117Y-129997098D01*
X251907278Y-129944883D01*
X251881556Y-129896762D01*
X251846941Y-129854583D01*
X251804762Y-129819968D01*
X251756641Y-129794246D01*
X251704426Y-129778407D01*
X251650125Y-129773059D01*
X250392375Y-129774399D01*
X250323125Y-129843649D01*
X250277125Y-129843649D01*
X250207875Y-129774399D01*
X248950125Y-129773059D01*
X248895824Y-129778407D01*
X248843609Y-129794246D01*
X248795488Y-129819968D01*
X248753309Y-129854583D01*
X248718694Y-129896762D01*
X248692972Y-129944883D01*
X248677133Y-129997098D01*
X248671785Y-130051399D01*
X248648570Y-130051399D01*
X248632825Y-129278399D01*
X255022448Y-129278399D01*
X256296660Y-130552611D01*
X256296660Y-132075000D01*
X256302008Y-132129301D01*
X256317847Y-132181516D01*
X256343569Y-132229637D01*
X256378184Y-132271816D01*
X256420363Y-132306431D01*
X256468484Y-132332153D01*
X256520699Y-132347992D01*
X256575000Y-132353340D01*
X257215234Y-132353340D01*
X257368949Y-132435502D01*
X257609664Y-132508522D01*
X257860000Y-132533178D01*
X258110335Y-132508522D01*
X258351050Y-132435502D01*
X258504765Y-132353340D01*
X259145000Y-132353340D01*
X259199301Y-132347992D01*
X259251516Y-132332153D01*
X259299637Y-132306431D01*
X259341816Y-132271816D01*
X259376431Y-132229637D01*
X259402153Y-132181516D01*
X259417992Y-132129301D01*
X259423340Y-132075000D01*
X259423340Y-130425000D01*
X259417992Y-130370699D01*
X259402153Y-130318484D01*
X259376431Y-130270363D01*
X259341816Y-130228184D01*
X259299637Y-130193569D01*
X259251516Y-130167847D01*
X259199301Y-130152008D01*
X259145000Y-130146660D01*
X259127091Y-130146660D01*
X259118523Y-130059664D01*
X259045502Y-129818949D01*
X259032298Y-129794246D01*
X258926924Y-129597104D01*
X258767344Y-129402656D01*
X258718620Y-129362669D01*
X257127125Y-127771174D01*
X257127125Y-126508907D01*
X261922999Y-126508907D01*
X261922999Y-127124873D01*
X262043168Y-127729002D01*
X262278888Y-128298080D01*
X262621100Y-128810236D01*
X263056653Y-129245789D01*
X263568809Y-129588001D01*
X264137887Y-129823721D01*
X264742016Y-129943890D01*
X265357982Y-129943890D01*
X265962111Y-129823721D01*
X266531189Y-129588001D01*
X267043345Y-129245789D01*
X267478898Y-128810236D01*
X267821110Y-128298080D01*
X268056830Y-127729002D01*
X268176999Y-127124873D01*
X268176999Y-126508907D01*
X268056830Y-125904778D01*
X267821110Y-125335700D01*
X267478898Y-124823544D01*
X267043345Y-124387991D01*
X266531189Y-124045779D01*
X265962111Y-123810059D01*
X265357982Y-123689890D01*
X264742016Y-123689890D01*
X264137887Y-123810059D01*
X263568809Y-124045779D01*
X263056653Y-124387991D01*
X262621100Y-124823544D01*
X262278888Y-125335700D01*
X262043168Y-125904778D01*
X261922999Y-126508907D01*
X257127125Y-126508907D01*
X257127125Y-124430688D01*
X257121803Y-124376648D01*
X257106040Y-124324685D01*
X257080442Y-124276795D01*
X257045994Y-124234819D01*
X256216705Y-123405530D01*
X256174729Y-123371082D01*
X256126839Y-123345484D01*
X256074876Y-123329721D01*
X256020836Y-123324399D01*
X250935572Y-123324399D01*
X250564852Y-122953678D01*
X250569333Y-122950000D01*
X250871660Y-122950000D01*
X250877008Y-123004301D01*
X250892847Y-123056516D01*
X250918569Y-123104637D01*
X250953184Y-123146816D01*
X250995363Y-123181431D01*
X251043484Y-123207153D01*
X251095699Y-123222992D01*
X251150000Y-123228340D01*
X252407750Y-123227000D01*
X252477000Y-123157750D01*
X252477000Y-122173000D01*
X252523000Y-122173000D01*
X252523000Y-123157750D01*
X252592250Y-123227000D01*
X253850000Y-123228340D01*
X253904301Y-123222992D01*
X253956516Y-123207153D01*
X254004637Y-123181431D01*
X254046816Y-123146816D01*
X254081431Y-123104637D01*
X254107153Y-123056516D01*
X254122992Y-123004301D01*
X254128340Y-122950000D01*
X254127000Y-122242250D01*
X254057750Y-122173000D01*
X252523000Y-122173000D01*
X252477000Y-122173000D01*
X250942250Y-122173000D01*
X250873000Y-122242250D01*
X250871660Y-122950000D01*
X250569333Y-122950000D01*
X250598316Y-122926215D01*
X250632931Y-122884036D01*
X250658653Y-122835915D01*
X250674492Y-122783700D01*
X250679840Y-122729399D01*
X250678500Y-122021649D01*
X250609250Y-121952399D01*
X249523000Y-121952399D01*
X249523000Y-121972399D01*
X249477000Y-121972399D01*
X249477000Y-121952399D01*
X248390750Y-121952399D01*
X248321500Y-122021649D01*
X248320359Y-122624399D01*
X247979414Y-122624399D01*
X247925374Y-122629721D01*
X247873411Y-122645484D01*
X247825521Y-122671082D01*
X247783545Y-122705531D01*
X247227265Y-123261811D01*
X247227265Y-123025099D01*
X247221917Y-122970798D01*
X247206078Y-122918583D01*
X247180356Y-122870462D01*
X247145741Y-122828283D01*
X247103562Y-122793668D01*
X247055441Y-122767946D01*
X247003226Y-122752107D01*
X246948925Y-122746759D01*
X245294025Y-122746759D01*
X245239724Y-122752107D01*
X245187509Y-122767946D01*
X245139388Y-122793668D01*
X245097209Y-122828283D01*
X245062594Y-122870462D01*
X245039932Y-122912858D01*
X245024286Y-122914399D01*
X245024278Y-122914399D01*
X244965219Y-122920216D01*
X244889442Y-122943202D01*
X244819605Y-122980531D01*
X244758393Y-123030767D01*
X244757489Y-123031869D01*
X244756393Y-123032768D01*
X244743807Y-123048104D01*
X244743804Y-123048107D01*
X244736903Y-123056516D01*
X244706157Y-123093980D01*
X244683768Y-123135867D01*
X244668828Y-123163817D01*
X244645841Y-123239595D01*
X244638080Y-123318400D01*
X244640025Y-123338149D01*
X244640024Y-127019452D01*
X244603309Y-127049583D01*
X244568694Y-127091762D01*
X244542972Y-127139883D01*
X244527133Y-127192098D01*
X244521785Y-127246399D01*
X244521785Y-127846399D01*
X244527133Y-127900700D01*
X244542972Y-127952915D01*
X244568694Y-128001036D01*
X244603309Y-128043215D01*
X244645488Y-128077830D01*
X244693609Y-128103552D01*
X244745824Y-128119391D01*
X244796673Y-128124399D01*
X243821193Y-128124399D01*
X243812831Y-127101601D01*
X243807518Y-127049825D01*
X243791755Y-126997862D01*
X243766157Y-126949972D01*
X243731709Y-126907996D01*
X243689733Y-126873548D01*
X243641843Y-126847950D01*
X243267640Y-126692950D01*
X243240993Y-126671082D01*
X243193103Y-126645484D01*
X243141140Y-126629721D01*
X243087100Y-126624399D01*
X239779414Y-126624399D01*
X239725374Y-126629721D01*
X239673411Y-126645484D01*
X239625521Y-126671082D01*
X239583545Y-126705530D01*
X239247855Y-127041220D01*
X239213407Y-127083196D01*
X239187809Y-127131086D01*
X238994210Y-127598475D01*
X238978447Y-127650438D01*
X238973125Y-127704478D01*
X238973125Y-128315952D01*
X238754106Y-128534970D01*
X238745632Y-128543827D01*
X238443094Y-128874399D01*
X237665788Y-128874399D01*
X237752205Y-128803479D01*
X237849302Y-128685165D01*
X237921452Y-128550183D01*
X237965882Y-128403718D01*
X237980884Y-128251399D01*
X237965882Y-128099080D01*
X237921452Y-127952615D01*
X237849302Y-127817633D01*
X237752205Y-127699319D01*
X237633891Y-127602222D01*
X237498909Y-127530072D01*
X237352444Y-127485642D01*
X237238291Y-127474399D01*
X235693130Y-127474399D01*
X235716516Y-127458773D01*
X235807499Y-127367790D01*
X235878984Y-127260805D01*
X235928223Y-127141931D01*
X235953325Y-127015734D01*
X235953325Y-126887064D01*
X235928223Y-126760867D01*
X235878984Y-126641993D01*
X235807499Y-126535008D01*
X235716516Y-126444025D01*
X235609531Y-126372540D01*
X235490657Y-126323301D01*
X235364460Y-126298199D01*
X235235790Y-126298199D01*
X235109593Y-126323301D01*
X234990719Y-126372540D01*
X234883734Y-126444025D01*
X234792751Y-126535008D01*
X234721266Y-126641993D01*
X234672027Y-126760867D01*
X234646925Y-126887064D01*
X234646925Y-127015734D01*
X234650302Y-127032709D01*
X234585622Y-127097389D01*
X222865903Y-127097389D01*
X220668223Y-124899710D01*
X220655632Y-124884368D01*
X220594420Y-124834132D01*
X220524583Y-124796803D01*
X220448806Y-124773817D01*
X220389747Y-124768000D01*
X220389739Y-124768000D01*
X220370000Y-124766056D01*
X220350261Y-124768000D01*
X210335360Y-124768000D01*
X210335057Y-124729187D01*
X210340532Y-124728098D01*
X210459406Y-124678859D01*
X210566391Y-124607374D01*
X210657374Y-124516391D01*
X210728859Y-124409406D01*
X210778098Y-124290532D01*
X210803200Y-124164335D01*
X210803200Y-124035665D01*
X210778098Y-123909468D01*
X210728859Y-123790594D01*
X210657374Y-123683609D01*
X210566391Y-123592626D01*
X210459406Y-123521141D01*
X210340532Y-123471902D01*
X210325201Y-123468853D01*
X210323275Y-123222541D01*
X210321170Y-123202000D01*
X212580261Y-123202000D01*
X212600000Y-123203944D01*
X212619739Y-123202000D01*
X212619747Y-123202000D01*
X212678806Y-123196183D01*
X212754583Y-123173197D01*
X212824420Y-123135868D01*
X212885632Y-123085632D01*
X212898223Y-123070290D01*
X213296986Y-122671527D01*
X213298008Y-122802167D01*
X213303323Y-122854041D01*
X213319085Y-122906005D01*
X213344683Y-122953894D01*
X213379132Y-122995870D01*
X213421107Y-123030318D01*
X213468997Y-123055916D01*
X213520960Y-123071679D01*
X213575000Y-123077001D01*
X215425000Y-123076999D01*
X215481163Y-123071246D01*
X215533001Y-123055077D01*
X215580689Y-123029106D01*
X215622394Y-122994330D01*
X215656513Y-122952086D01*
X215681736Y-122903998D01*
X215697092Y-122851913D01*
X215701992Y-122797833D01*
X215699483Y-122477000D01*
X216791617Y-122477000D01*
X216778673Y-122501216D01*
X216734243Y-122647681D01*
X216719241Y-122800000D01*
X216734243Y-122952319D01*
X216778673Y-123098784D01*
X216850823Y-123233766D01*
X216947920Y-123352080D01*
X217066234Y-123449177D01*
X217201216Y-123521327D01*
X217347681Y-123565757D01*
X217461834Y-123577000D01*
X220261837Y-123577000D01*
X220300000Y-123580759D01*
X220338163Y-123577000D01*
X220338166Y-123577000D01*
X220452319Y-123565757D01*
X220486432Y-123555409D01*
X221123000Y-123555409D01*
X221123000Y-123563939D01*
X221119241Y-123602102D01*
X221123000Y-123640265D01*
X221123000Y-123640268D01*
X221134244Y-123754421D01*
X221141549Y-123778501D01*
X221178673Y-123900885D01*
X221250823Y-124035868D01*
X221312426Y-124110931D01*
X221347921Y-124154182D01*
X221377565Y-124178510D01*
X221499986Y-124300931D01*
X221524319Y-124330581D01*
X221642633Y-124427678D01*
X221777615Y-124499828D01*
X221924080Y-124544258D01*
X222038233Y-124555501D01*
X222038235Y-124555501D01*
X222076399Y-124559260D01*
X222114562Y-124555501D01*
X227399656Y-124555501D01*
X228417989Y-125573835D01*
X228442317Y-125603479D01*
X228471961Y-125627807D01*
X228471962Y-125627808D01*
X228560631Y-125700577D01*
X228643523Y-125744883D01*
X228695613Y-125772726D01*
X228842078Y-125817156D01*
X228956231Y-125828399D01*
X228956233Y-125828399D01*
X228994397Y-125832158D01*
X229032560Y-125828399D01*
X235288291Y-125828399D01*
X235402444Y-125817156D01*
X235548909Y-125772726D01*
X235683891Y-125700576D01*
X235802205Y-125603479D01*
X235899302Y-125485165D01*
X235959264Y-125372986D01*
X236123125Y-125536847D01*
X236123125Y-126172110D01*
X236128447Y-126226150D01*
X236144210Y-126278113D01*
X236169808Y-126326003D01*
X236204256Y-126367979D01*
X236383545Y-126547268D01*
X236425521Y-126581716D01*
X236473411Y-126607314D01*
X236525374Y-126623077D01*
X236579414Y-126628399D01*
X238670836Y-126628399D01*
X238724876Y-126623077D01*
X238776839Y-126607314D01*
X238824729Y-126581716D01*
X238866705Y-126547268D01*
X238995994Y-126417979D01*
X239030442Y-126376003D01*
X239056040Y-126328113D01*
X239071803Y-126276150D01*
X239077125Y-126222110D01*
X239077125Y-125419689D01*
X239383416Y-125113399D01*
X239504674Y-125113399D01*
X239544809Y-125134852D01*
X239597024Y-125150691D01*
X239651325Y-125156039D01*
X241306225Y-125156039D01*
X241360526Y-125150691D01*
X241412741Y-125134852D01*
X241460862Y-125109130D01*
X241503041Y-125074515D01*
X241527853Y-125044281D01*
X241542626Y-125066391D01*
X241633609Y-125157374D01*
X241648000Y-125166990D01*
X241648000Y-125379399D01*
X241512164Y-125379399D01*
X241503041Y-125368283D01*
X241460862Y-125333668D01*
X241412741Y-125307946D01*
X241360526Y-125292107D01*
X241306225Y-125286759D01*
X239651325Y-125286759D01*
X239597024Y-125292107D01*
X239544809Y-125307946D01*
X239496688Y-125333668D01*
X239454509Y-125368283D01*
X239419894Y-125410462D01*
X239394172Y-125458583D01*
X239378333Y-125510798D01*
X239372985Y-125565099D01*
X239372985Y-126147699D01*
X239378333Y-126202000D01*
X239394172Y-126254215D01*
X239419894Y-126302336D01*
X239454509Y-126344515D01*
X239496688Y-126379130D01*
X239544809Y-126404852D01*
X239597024Y-126420691D01*
X239651325Y-126426039D01*
X241306225Y-126426039D01*
X241360526Y-126420691D01*
X241412741Y-126404852D01*
X241460862Y-126379130D01*
X241503041Y-126344515D01*
X241512164Y-126333399D01*
X241918548Y-126333399D01*
X241988633Y-126326496D01*
X242078548Y-126299221D01*
X242161414Y-126254928D01*
X242234046Y-126195320D01*
X242293654Y-126122688D01*
X242337947Y-126039822D01*
X242363085Y-125956952D01*
X242420300Y-125899737D01*
X242435631Y-125887155D01*
X242448213Y-125871824D01*
X242448220Y-125871817D01*
X242485868Y-125825944D01*
X242523197Y-125756108D01*
X242546183Y-125680330D01*
X242553944Y-125601524D01*
X242550567Y-125567237D01*
X242546183Y-125522718D01*
X242537479Y-125494026D01*
X242523197Y-125446941D01*
X242485868Y-125377105D01*
X242452000Y-125335837D01*
X242452000Y-125166990D01*
X242466391Y-125157374D01*
X242557374Y-125066391D01*
X242628859Y-124959406D01*
X242678098Y-124840532D01*
X242703200Y-124714335D01*
X242703200Y-124585665D01*
X242678098Y-124459468D01*
X242628859Y-124340594D01*
X242557374Y-124233609D01*
X242466391Y-124142626D01*
X242359406Y-124071141D01*
X242240532Y-124021902D01*
X242114335Y-123996800D01*
X241985665Y-123996800D01*
X241859468Y-124021902D01*
X241740594Y-124071141D01*
X241633609Y-124142626D01*
X241569028Y-124207207D01*
X241563378Y-124188583D01*
X241537656Y-124140462D01*
X241503041Y-124098283D01*
X241460862Y-124063668D01*
X241412741Y-124037946D01*
X241360526Y-124022107D01*
X241306225Y-124016759D01*
X239651325Y-124016759D01*
X239597024Y-124022107D01*
X239544809Y-124037946D01*
X239504674Y-124059399D01*
X239191006Y-124059399D01*
X239165125Y-124056850D01*
X239139244Y-124059399D01*
X239061815Y-124067025D01*
X238962475Y-124097160D01*
X238927193Y-124116018D01*
X238689574Y-123878399D01*
X239589468Y-123878399D01*
X239597024Y-123880691D01*
X239651325Y-123886039D01*
X241306225Y-123886039D01*
X241360526Y-123880691D01*
X241368082Y-123878399D01*
X243850125Y-123878399D01*
X243904182Y-123873073D01*
X243956144Y-123857307D01*
X244004032Y-123831706D01*
X244046006Y-123797255D01*
X244080452Y-123755278D01*
X244106046Y-123707386D01*
X244121806Y-123655422D01*
X244127125Y-123601382D01*
X244127047Y-122337699D01*
X245015685Y-122337699D01*
X245021033Y-122392000D01*
X245036872Y-122444215D01*
X245062594Y-122492336D01*
X245097209Y-122534515D01*
X245139388Y-122569130D01*
X245187509Y-122594852D01*
X245239724Y-122610691D01*
X245294025Y-122616039D01*
X246029225Y-122614699D01*
X246098475Y-122545449D01*
X246098475Y-122069399D01*
X246144475Y-122069399D01*
X246144475Y-122545449D01*
X246213725Y-122614699D01*
X246948925Y-122616039D01*
X247003226Y-122610691D01*
X247055441Y-122594852D01*
X247103562Y-122569130D01*
X247145741Y-122534515D01*
X247180356Y-122492336D01*
X247206078Y-122444215D01*
X247221917Y-122392000D01*
X247227265Y-122337699D01*
X247225925Y-122138649D01*
X247156675Y-122069399D01*
X246144475Y-122069399D01*
X246098475Y-122069399D01*
X245086275Y-122069399D01*
X245017025Y-122138649D01*
X245015685Y-122337699D01*
X244127047Y-122337699D01*
X244127010Y-121755099D01*
X245015685Y-121755099D01*
X245017025Y-121954149D01*
X245086275Y-122023399D01*
X246098475Y-122023399D01*
X246098475Y-121547349D01*
X246144475Y-121547349D01*
X246144475Y-122023399D01*
X247156675Y-122023399D01*
X247225925Y-121954149D01*
X247227265Y-121755099D01*
X247221917Y-121700798D01*
X247206078Y-121648583D01*
X247180356Y-121600462D01*
X247145741Y-121558283D01*
X247103562Y-121523668D01*
X247055441Y-121497946D01*
X247003226Y-121482107D01*
X246948925Y-121476759D01*
X246213725Y-121478099D01*
X246144475Y-121547349D01*
X246098475Y-121547349D01*
X246029225Y-121478099D01*
X245294025Y-121476759D01*
X245239724Y-121482107D01*
X245187509Y-121497946D01*
X245139388Y-121523668D01*
X245097209Y-121558283D01*
X245062594Y-121600462D01*
X245036872Y-121648583D01*
X245021033Y-121700798D01*
X245015685Y-121755099D01*
X244127010Y-121755099D01*
X244127000Y-121599983D01*
X244121678Y-121545960D01*
X244105915Y-121493997D01*
X244080317Y-121446107D01*
X244045869Y-121404131D01*
X244003893Y-121369683D01*
X243956003Y-121344085D01*
X243904040Y-121328322D01*
X243850000Y-121323000D01*
X243467103Y-121323000D01*
X243407374Y-121233609D01*
X243401265Y-121227500D01*
X248320346Y-121227500D01*
X248321500Y-121837149D01*
G36*
X213288714Y-121613669D02*
G01*
X213245417Y-121626803D01*
X213238179Y-121630672D01*
X213175580Y-121664132D01*
X213141632Y-121691993D01*
X213114368Y-121714368D01*
X213101781Y-121729705D01*
X212433487Y-122398000D01*
X207469739Y-122398000D01*
X207450000Y-122396056D01*
X207430260Y-122398000D01*
X207430253Y-122398000D01*
X207371194Y-122403817D01*
X207295417Y-122426803D01*
X207225580Y-122464132D01*
X207193336Y-122490594D01*
X207180394Y-122501216D01*
X207164368Y-122514368D01*
X207151781Y-122529705D01*
X206360497Y-123320990D01*
X188557136Y-123320990D01*
X188537396Y-123319046D01*
X188517657Y-123320990D01*
X188517650Y-123320990D01*
X188458591Y-123326807D01*
X188382814Y-123349793D01*
X188312977Y-123387122D01*
X188251765Y-123437358D01*
X188239174Y-123452700D01*
X186527262Y-125164612D01*
X186511920Y-125177203D01*
X186461684Y-125238416D01*
X186424355Y-125308253D01*
X186401369Y-125384030D01*
X186395552Y-125443089D01*
X186395552Y-125443096D01*
X186393608Y-125462835D01*
X186395552Y-125482574D01*
X186395553Y-136329491D01*
X185039113Y-137685931D01*
X171616550Y-137685931D01*
X171606934Y-137671540D01*
X171515951Y-137580557D01*
X171408966Y-137509072D01*
X171290092Y-137459833D01*
X171163895Y-137434731D01*
X171035225Y-137434731D01*
X170909028Y-137459833D01*
X170790154Y-137509072D01*
X170683169Y-137580557D01*
X170592186Y-137671540D01*
X170520701Y-137778525D01*
X170471462Y-137897399D01*
X170446360Y-138023596D01*
X170446360Y-138152266D01*
X170471462Y-138278463D01*
X170520701Y-138397337D01*
X170592186Y-138504322D01*
X170665221Y-138577357D01*
X170624140Y-138618437D01*
X170550050Y-138729320D01*
X170499016Y-138852526D01*
X170473000Y-138983321D01*
X170473000Y-139116679D01*
X170499016Y-139247474D01*
X170550050Y-139370680D01*
X170624140Y-139481563D01*
X170718437Y-139575860D01*
X170829320Y-139649950D01*
X170952526Y-139700984D01*
X171083321Y-139727000D01*
X171216679Y-139727000D01*
X171347474Y-139700984D01*
X171470680Y-139649950D01*
X171581563Y-139575860D01*
X171675860Y-139481563D01*
X171695613Y-139452000D01*
X184756990Y-139452000D01*
X184776729Y-139453944D01*
X184796468Y-139452000D01*
X184796476Y-139452000D01*
X184855535Y-139446183D01*
X184931312Y-139423197D01*
X185001149Y-139385868D01*
X185062361Y-139335632D01*
X185074952Y-139320290D01*
X187149571Y-137245672D01*
X187149571Y-139969406D01*
X185008047Y-142110931D01*
X171046325Y-142110931D01*
X171015951Y-142080557D01*
X170908966Y-142009072D01*
X170790092Y-141959833D01*
X170663895Y-141934731D01*
X170535225Y-141934731D01*
X170409028Y-141959833D01*
X170290154Y-142009072D01*
X170183169Y-142080557D01*
X170092186Y-142171540D01*
X170020701Y-142278525D01*
X169971462Y-142397399D01*
X169946360Y-142523596D01*
X169946360Y-142652266D01*
X169971462Y-142778463D01*
X170020701Y-142897337D01*
X170092186Y-143004322D01*
X170183169Y-143095305D01*
X170290154Y-143166790D01*
X170409028Y-143216029D01*
X170535225Y-143241131D01*
X170663895Y-143241131D01*
X170790092Y-143216029D01*
X170908966Y-143166790D01*
X171015951Y-143095305D01*
X171046325Y-143064931D01*
X185122983Y-143064931D01*
X185193068Y-143058028D01*
X185282983Y-143030753D01*
X185365849Y-142986460D01*
X185438481Y-142926852D01*
X185498089Y-142854220D01*
X185542382Y-142771354D01*
X185567520Y-142688484D01*
X187821865Y-140434140D01*
X187837202Y-140421553D01*
X187887438Y-140360341D01*
X187924767Y-140290504D01*
X187947753Y-140214727D01*
X187953570Y-140155668D01*
X187953570Y-140155661D01*
X187955514Y-140135921D01*
X187953570Y-140116182D01*
X187953570Y-126984497D01*
X188121680Y-126984497D01*
X188121680Y-130192587D01*
X188128625Y-130254225D01*
X188240703Y-130745271D01*
X188251971Y-130782416D01*
X188276215Y-130831005D01*
X188414783Y-131051536D01*
X188453457Y-131100033D01*
X188635600Y-131282176D01*
X188684097Y-131320850D01*
X188902205Y-131457895D01*
X188958089Y-131484807D01*
X189201223Y-131569884D01*
X189261697Y-131583687D01*
X189514858Y-131612211D01*
X189545872Y-131613953D01*
X192953605Y-131613953D01*
X193007645Y-131608630D01*
X193517237Y-131507265D01*
X193593773Y-131479880D01*
X193829410Y-131353930D01*
X193874561Y-131323762D01*
X194079172Y-131155842D01*
X194117569Y-131117445D01*
X194285489Y-130912834D01*
X194315658Y-130867683D01*
X194440433Y-130634244D01*
X194461212Y-130584078D01*
X194538050Y-130330782D01*
X194548644Y-130277522D01*
X194574346Y-130016559D01*
X194575680Y-129989409D01*
X194575680Y-129864931D01*
X195570610Y-129864931D01*
X196652229Y-130946551D01*
X196692216Y-130995275D01*
X196886664Y-131154855D01*
X197108509Y-131273433D01*
X197349224Y-131346453D01*
X197536834Y-131364931D01*
X197536841Y-131364931D01*
X197599559Y-131371108D01*
X197662278Y-131364931D01*
X200967120Y-131364931D01*
X200981733Y-131376924D01*
X201203578Y-131495502D01*
X201444293Y-131568522D01*
X201631903Y-131587000D01*
X201694629Y-131593178D01*
X201757355Y-131587000D01*
X206200774Y-131587000D01*
X206262611Y-131574700D01*
X206325336Y-131568522D01*
X206385649Y-131550226D01*
X206447487Y-131537926D01*
X206505737Y-131513798D01*
X206566051Y-131495502D01*
X206621639Y-131465790D01*
X206679886Y-131441663D01*
X206732305Y-131406638D01*
X206787896Y-131376924D01*
X206836621Y-131336936D01*
X206889040Y-131301911D01*
X206933622Y-131257329D01*
X206982344Y-131217344D01*
X207022331Y-131168620D01*
X207066911Y-131124040D01*
X207101936Y-131071621D01*
X207139049Y-131026399D01*
X230976785Y-131026399D01*
X230982133Y-131080700D01*
X230997972Y-131132915D01*
X231023694Y-131181036D01*
X231058309Y-131223215D01*
X231100488Y-131257830D01*
X231148609Y-131283552D01*
X231200824Y-131299391D01*
X231255125Y-131304739D01*
X232447875Y-131303399D01*
X232517125Y-131234149D01*
X232517125Y-130224399D01*
X232563125Y-130224399D01*
X232563125Y-131234149D01*
X232632375Y-131303399D01*
X233825125Y-131304739D01*
X233879426Y-131299391D01*
X233931641Y-131283552D01*
X233979762Y-131257830D01*
X234021941Y-131223215D01*
X234056556Y-131181036D01*
X234082278Y-131132915D01*
X234098117Y-131080700D01*
X234103465Y-131026399D01*
X234102125Y-130293649D01*
X234032875Y-130224399D01*
X232563125Y-130224399D01*
X232517125Y-130224399D01*
X231047375Y-130224399D01*
X230978125Y-130293649D01*
X230976785Y-131026399D01*
X207139049Y-131026399D01*
X207141924Y-131022896D01*
X207171638Y-130967305D01*
X207206663Y-130914886D01*
X207230790Y-130856639D01*
X207260502Y-130801051D01*
X207278798Y-130740737D01*
X207302926Y-130682487D01*
X207315226Y-130620649D01*
X207333522Y-130560336D01*
X207339700Y-130497611D01*
X207352000Y-130435774D01*
X207352000Y-130372726D01*
X207358178Y-130310000D01*
X207352000Y-130247274D01*
X207352000Y-130184226D01*
X207339700Y-130122389D01*
X207333522Y-130059664D01*
X207315226Y-129999351D01*
X207302926Y-129937513D01*
X207278798Y-129879263D01*
X207260502Y-129818949D01*
X207230790Y-129763361D01*
X207206663Y-129705114D01*
X207171638Y-129652695D01*
X207141924Y-129597104D01*
X207101936Y-129548379D01*
X207066911Y-129495960D01*
X207022329Y-129451378D01*
X206982344Y-129402656D01*
X206933620Y-129362669D01*
X206889040Y-129318089D01*
X206836621Y-129283064D01*
X206787896Y-129243076D01*
X206732305Y-129213362D01*
X206679886Y-129178337D01*
X206621639Y-129154210D01*
X206566051Y-129124498D01*
X206505737Y-129106202D01*
X206447487Y-129082074D01*
X206385649Y-129069774D01*
X206325336Y-129051478D01*
X206262611Y-129045300D01*
X206200774Y-129033000D01*
X202200069Y-129033000D01*
X202185456Y-129021007D01*
X201963611Y-128902429D01*
X201722896Y-128829409D01*
X201535286Y-128810931D01*
X201472560Y-128804753D01*
X201409834Y-128810931D01*
X198128511Y-128810931D01*
X197046895Y-127729316D01*
X197006904Y-127680587D01*
X196812456Y-127521007D01*
X196590611Y-127402429D01*
X196349896Y-127329409D01*
X196162286Y-127310931D01*
X196099560Y-127304753D01*
X196036834Y-127310931D01*
X194575680Y-127310931D01*
X194575680Y-126882028D01*
X194570357Y-126827988D01*
X194476604Y-126356664D01*
X194449220Y-126280128D01*
X194332512Y-126061780D01*
X194302342Y-126016628D01*
X194146857Y-125827171D01*
X194108462Y-125788776D01*
X193919005Y-125633291D01*
X193873853Y-125603122D01*
X193657703Y-125487588D01*
X193607536Y-125466808D01*
X193372999Y-125395662D01*
X193319741Y-125385068D01*
X193078287Y-125361287D01*
X193051136Y-125359953D01*
X189743755Y-125359953D01*
X189689715Y-125365276D01*
X189180123Y-125466641D01*
X189103587Y-125494026D01*
X188867950Y-125619976D01*
X188822799Y-125650144D01*
X188618188Y-125818064D01*
X188579791Y-125856461D01*
X188411871Y-126061072D01*
X188381702Y-126106223D01*
X188256927Y-126339662D01*
X188236148Y-126389828D01*
X188159310Y-126643124D01*
X188148716Y-126696384D01*
X188123014Y-126957347D01*
X188121680Y-126984497D01*
X187953570Y-126984497D01*
X187953570Y-125941672D01*
X188905312Y-124989931D01*
X189339765Y-124989931D01*
X189416137Y-125030753D01*
X189506052Y-125058028D01*
X189576137Y-125064931D01*
X197901981Y-125064931D01*
X198278832Y-125441783D01*
X198333271Y-125486460D01*
X198416137Y-125530753D01*
X198506052Y-125558028D01*
X198599560Y-125567237D01*
X198606542Y-125566549D01*
X198661882Y-125572000D01*
X198661889Y-125572000D01*
X198681628Y-125573944D01*
X198701368Y-125572000D01*
X220203487Y-125572000D01*
X222369874Y-127738388D01*
X221935263Y-128173000D01*
X221473472Y-128173000D01*
X221435846Y-128180484D01*
X221397681Y-128184243D01*
X221360987Y-128195374D01*
X221323357Y-128202859D01*
X221287908Y-128217543D01*
X221251216Y-128228673D01*
X221217402Y-128246747D01*
X221181952Y-128261431D01*
X221150045Y-128282750D01*
X221116234Y-128300823D01*
X221086598Y-128325144D01*
X221054691Y-128346464D01*
X221027558Y-128373597D01*
X220997920Y-128397920D01*
X220973597Y-128427558D01*
X220946464Y-128454691D01*
X220925144Y-128486598D01*
X220900823Y-128516234D01*
X220882750Y-128550045D01*
X220861431Y-128581952D01*
X220846747Y-128617402D01*
X220828673Y-128651216D01*
X220817543Y-128687908D01*
X220802859Y-128723357D01*
X220795374Y-128760987D01*
X220784243Y-128797681D01*
X220780484Y-128835846D01*
X220773000Y-128873472D01*
X220773000Y-128911834D01*
X220769241Y-128950000D01*
X220773000Y-128988166D01*
X220773000Y-129026528D01*
X220780484Y-129064154D01*
X220784243Y-129102319D01*
X220795374Y-129139013D01*
X220802859Y-129176643D01*
X220817543Y-129212092D01*
X220828673Y-129248784D01*
X220846747Y-129282598D01*
X220861431Y-129318048D01*
X220882750Y-129349955D01*
X220900823Y-129383766D01*
X220925144Y-129413402D01*
X220946464Y-129445309D01*
X220973597Y-129472442D01*
X220997920Y-129502080D01*
X221027558Y-129526403D01*
X221054691Y-129553536D01*
X221086598Y-129574856D01*
X221116234Y-129599177D01*
X221150045Y-129617250D01*
X221181952Y-129638569D01*
X221217402Y-129653253D01*
X221251216Y-129671327D01*
X221287908Y-129682457D01*
X221323357Y-129697141D01*
X221360987Y-129704626D01*
X221397681Y-129715757D01*
X221435846Y-129719516D01*
X221473472Y-129727000D01*
X222218943Y-129727000D01*
X222257106Y-129730759D01*
X222295269Y-129727000D01*
X222295272Y-129727000D01*
X222409425Y-129715757D01*
X222555890Y-129671327D01*
X222690872Y-129599177D01*
X222809186Y-129502080D01*
X222833518Y-129472431D01*
X222929550Y-129376399D01*
X230976785Y-129376399D01*
X230978125Y-130109149D01*
X231047375Y-130178399D01*
X232517125Y-130178399D01*
X232517125Y-129168649D01*
X232563125Y-129168649D01*
X232563125Y-130178399D01*
X234032875Y-130178399D01*
X234102125Y-130109149D01*
X234103465Y-129376399D01*
X234098117Y-129322098D01*
X234082278Y-129269883D01*
X234056556Y-129221762D01*
X234021941Y-129179583D01*
X233979762Y-129144968D01*
X233931641Y-129119246D01*
X233879426Y-129103407D01*
X233825125Y-129098059D01*
X232632375Y-129099399D01*
X232563125Y-129168649D01*
X232517125Y-129168649D01*
X232447875Y-129099399D01*
X231255125Y-129098059D01*
X231200824Y-129103407D01*
X231148609Y-129119246D01*
X231100488Y-129144968D01*
X231058309Y-129179583D01*
X231023694Y-129221762D01*
X230997972Y-129269883D01*
X230982133Y-129322098D01*
X230976785Y-129376399D01*
X222929550Y-129376399D01*
X223277551Y-129028399D01*
X235554389Y-129028399D01*
X235545371Y-129045246D01*
X235529578Y-129097201D01*
X235529493Y-129098059D01*
X234775125Y-129098059D01*
X234720824Y-129103407D01*
X234668609Y-129119246D01*
X234620488Y-129144968D01*
X234578309Y-129179583D01*
X234543694Y-129221762D01*
X234517972Y-129269883D01*
X234502133Y-129322098D01*
X234496785Y-129376399D01*
X234496785Y-131026399D01*
X234502133Y-131080700D01*
X234517972Y-131132915D01*
X234543694Y-131181036D01*
X234578309Y-131223215D01*
X234620488Y-131257830D01*
X234668609Y-131283552D01*
X234720824Y-131299391D01*
X234775125Y-131304739D01*
X235528891Y-131304739D01*
X235529340Y-131308925D01*
X235546037Y-131360596D01*
X235681865Y-131672500D01*
X192013625Y-131672500D01*
X192000000Y-131671158D01*
X191986375Y-131672500D01*
X191945601Y-131676516D01*
X191893292Y-131692384D01*
X191845084Y-131718151D01*
X191802829Y-131752829D01*
X191768151Y-131795084D01*
X191742384Y-131843292D01*
X191726516Y-131895601D01*
X191721158Y-131950000D01*
X191722501Y-131963635D01*
X191722500Y-145572500D01*
X146477500Y-145572500D01*
X146477500Y-136863625D01*
X146478842Y-136850000D01*
X146473484Y-136795601D01*
X146457616Y-136743292D01*
X146431849Y-136695084D01*
X146397171Y-136652829D01*
X146354916Y-136618151D01*
X146306708Y-136592384D01*
X146254399Y-136576516D01*
X146213625Y-136572500D01*
X146200000Y-136571158D01*
X146186375Y-136572500D01*
X134377500Y-136572500D01*
X134377500Y-134701111D01*
X135473000Y-134701111D01*
X135473000Y-134903413D01*
X135512467Y-135101827D01*
X135589885Y-135288729D01*
X135702277Y-135456936D01*
X135845326Y-135599985D01*
X136013533Y-135712377D01*
X136200435Y-135789795D01*
X136398849Y-135829262D01*
X136601151Y-135829262D01*
X136799565Y-135789795D01*
X136986467Y-135712377D01*
X137154674Y-135599985D01*
X137216728Y-135537931D01*
X148272560Y-135537931D01*
X148272560Y-143637931D01*
X148277882Y-143691971D01*
X148293645Y-143743934D01*
X148319243Y-143791824D01*
X148353691Y-143833800D01*
X148395667Y-143868248D01*
X148443557Y-143893846D01*
X148495520Y-143909609D01*
X148549560Y-143914931D01*
X161649560Y-143914931D01*
X161703600Y-143909609D01*
X161755563Y-143893846D01*
X161803453Y-143868248D01*
X161845429Y-143833800D01*
X161879877Y-143791824D01*
X161905475Y-143743934D01*
X161921238Y-143691971D01*
X161926560Y-143637931D01*
X161926560Y-139948890D01*
X164577560Y-139948890D01*
X164577560Y-140091112D01*
X164605306Y-140230601D01*
X164659732Y-140361996D01*
X164738746Y-140480249D01*
X164839312Y-140580815D01*
X164957565Y-140659829D01*
X165088960Y-140714255D01*
X165228449Y-140742001D01*
X165370671Y-140742001D01*
X165510160Y-140714255D01*
X165641555Y-140659829D01*
X165759808Y-140580815D01*
X165860374Y-140480249D01*
X165939388Y-140361996D01*
X165993814Y-140230601D01*
X166021560Y-140091112D01*
X166021560Y-139948890D01*
X165993814Y-139809401D01*
X165939388Y-139678006D01*
X165860374Y-139559753D01*
X165759808Y-139459187D01*
X165641555Y-139380173D01*
X165510160Y-139325747D01*
X165370671Y-139298001D01*
X165228449Y-139298001D01*
X165088960Y-139325747D01*
X164957565Y-139380173D01*
X164839312Y-139459187D01*
X164738746Y-139559753D01*
X164659732Y-139678006D01*
X164605306Y-139809401D01*
X164577560Y-139948890D01*
X161926560Y-139948890D01*
X161926560Y-136414931D01*
X168149560Y-136414931D01*
X168203600Y-136409609D01*
X168255563Y-136393846D01*
X168303453Y-136368248D01*
X168345429Y-136333800D01*
X168379877Y-136291824D01*
X168405475Y-136243934D01*
X168421238Y-136191971D01*
X168426560Y-136137931D01*
X168426560Y-132037931D01*
X170772560Y-132037931D01*
X170772560Y-136637931D01*
X170777882Y-136691971D01*
X170793645Y-136743934D01*
X170819243Y-136791824D01*
X170853691Y-136833800D01*
X170895667Y-136868248D01*
X170943557Y-136893846D01*
X170995520Y-136909609D01*
X171049560Y-136914931D01*
X182149560Y-136914931D01*
X182203600Y-136909609D01*
X182255563Y-136893846D01*
X182303453Y-136868248D01*
X182345429Y-136833800D01*
X182379877Y-136791824D01*
X182405475Y-136743934D01*
X182421238Y-136691971D01*
X182426560Y-136637931D01*
X182426560Y-133537931D01*
X182421238Y-133483891D01*
X182405475Y-133431928D01*
X182379877Y-133384038D01*
X182345429Y-133342062D01*
X182303453Y-133307614D01*
X182255563Y-133282016D01*
X182203600Y-133266253D01*
X182149560Y-133260931D01*
X182125241Y-133260931D01*
X182122552Y-133233630D01*
X182106713Y-133181415D01*
X182080991Y-133133294D01*
X182046376Y-133091115D01*
X182042496Y-133087931D01*
X182046376Y-133084747D01*
X182080991Y-133042568D01*
X182106713Y-132994447D01*
X182122552Y-132942232D01*
X182125241Y-132914931D01*
X182149560Y-132914931D01*
X182203600Y-132909609D01*
X182255563Y-132893846D01*
X182303453Y-132868248D01*
X182345429Y-132833800D01*
X182379877Y-132791824D01*
X182405475Y-132743934D01*
X182421238Y-132691971D01*
X182426560Y-132637931D01*
X182426560Y-127537931D01*
X182421238Y-127483891D01*
X182405475Y-127431928D01*
X182379877Y-127384038D01*
X182345429Y-127342062D01*
X182303453Y-127307614D01*
X182255563Y-127282016D01*
X182203600Y-127266253D01*
X182149560Y-127260931D01*
X176549560Y-127260931D01*
X176495520Y-127266253D01*
X176443557Y-127282016D01*
X176395667Y-127307614D01*
X176353691Y-127342062D01*
X176319243Y-127384038D01*
X176293645Y-127431928D01*
X176277882Y-127483891D01*
X176272560Y-127537931D01*
X176272560Y-131791101D01*
X176255563Y-131782016D01*
X176203600Y-131766253D01*
X176149560Y-131760931D01*
X174086025Y-131760931D01*
X174068197Y-131746300D01*
X174020076Y-131720578D01*
X173967861Y-131704739D01*
X173913560Y-131699391D01*
X171339560Y-131699391D01*
X171285259Y-131704739D01*
X171233044Y-131720578D01*
X171184923Y-131746300D01*
X171167095Y-131760931D01*
X171049560Y-131760931D01*
X170995520Y-131766253D01*
X170943557Y-131782016D01*
X170895667Y-131807614D01*
X170853691Y-131842062D01*
X170819243Y-131884038D01*
X170793645Y-131931928D01*
X170777882Y-131983891D01*
X170772560Y-132037931D01*
X168426560Y-132037931D01*
X168426560Y-131037931D01*
X168421238Y-130983891D01*
X168405475Y-130931928D01*
X168379877Y-130884038D01*
X168345429Y-130842062D01*
X168303453Y-130807614D01*
X168255563Y-130782016D01*
X168203600Y-130766253D01*
X168149560Y-130760931D01*
X151549560Y-130760931D01*
X151495520Y-130766253D01*
X151443557Y-130782016D01*
X151395667Y-130807614D01*
X151353691Y-130842062D01*
X151319243Y-130884038D01*
X151293645Y-130931928D01*
X151277882Y-130983891D01*
X151272560Y-131037931D01*
X151272560Y-135260931D01*
X148549560Y-135260931D01*
X148495520Y-135266253D01*
X148443557Y-135282016D01*
X148395667Y-135307614D01*
X148353691Y-135342062D01*
X148319243Y-135384038D01*
X148293645Y-135431928D01*
X148277882Y-135483891D01*
X148272560Y-135537931D01*
X137216728Y-135537931D01*
X137297723Y-135456936D01*
X137410115Y-135288729D01*
X137487533Y-135101827D01*
X137527000Y-134903413D01*
X137527000Y-134701111D01*
X137487533Y-134502697D01*
X137410115Y-134315795D01*
X137297723Y-134147588D01*
X137154674Y-134004539D01*
X136986467Y-133892147D01*
X136799565Y-133814729D01*
X136601151Y-133775262D01*
X136398849Y-133775262D01*
X136200435Y-133814729D01*
X136013533Y-133892147D01*
X135845326Y-134004539D01*
X135702277Y-134147588D01*
X135589885Y-134315795D01*
X135512467Y-134502697D01*
X135473000Y-134701111D01*
X134377500Y-134701111D01*
X134377500Y-131841715D01*
X135073000Y-131841715D01*
X135073000Y-132122809D01*
X135127838Y-132398503D01*
X135235409Y-132658200D01*
X135391576Y-132891922D01*
X135590340Y-133090686D01*
X135824062Y-133246853D01*
X136083759Y-133354424D01*
X136359453Y-133409262D01*
X136640547Y-133409262D01*
X136916241Y-133354424D01*
X137175938Y-133246853D01*
X137409660Y-133090686D01*
X137608424Y-132891922D01*
X137764591Y-132658200D01*
X137872162Y-132398503D01*
X137927000Y-132122809D01*
X137927000Y-131841715D01*
X137872162Y-131566021D01*
X137764591Y-131306324D01*
X137608424Y-131072602D01*
X137409660Y-130873838D01*
X137175938Y-130717671D01*
X136916241Y-130610100D01*
X136640547Y-130555262D01*
X136359453Y-130555262D01*
X136083759Y-130610100D01*
X135824062Y-130717671D01*
X135590340Y-130873838D01*
X135391576Y-131072602D01*
X135235409Y-131306324D01*
X135127838Y-131566021D01*
X135073000Y-131841715D01*
X134377500Y-131841715D01*
X134377500Y-129987931D01*
X151921220Y-129987931D01*
X151926568Y-130042232D01*
X151942407Y-130094447D01*
X151968129Y-130142568D01*
X152002744Y-130184747D01*
X152044923Y-130219362D01*
X152093044Y-130245084D01*
X152145259Y-130260923D01*
X152199560Y-130266271D01*
X153007310Y-130264931D01*
X153076560Y-130195681D01*
X153076560Y-129210931D01*
X153122560Y-129210931D01*
X153122560Y-130195681D01*
X153191810Y-130264931D01*
X153999560Y-130266271D01*
X154053861Y-130260923D01*
X154106076Y-130245084D01*
X154154197Y-130219362D01*
X154196376Y-130184747D01*
X154230991Y-130142568D01*
X154256713Y-130094447D01*
X154272552Y-130042232D01*
X154277900Y-129987931D01*
X154921220Y-129987931D01*
X154926568Y-130042232D01*
X154942407Y-130094447D01*
X154968129Y-130142568D01*
X155002744Y-130184747D01*
X155044923Y-130219362D01*
X155093044Y-130245084D01*
X155145259Y-130260923D01*
X155199560Y-130266271D01*
X156007310Y-130264931D01*
X156076560Y-130195681D01*
X156076560Y-129210931D01*
X156122560Y-129210931D01*
X156122560Y-130195681D01*
X156191810Y-130264931D01*
X156999560Y-130266271D01*
X157053861Y-130260923D01*
X157106076Y-130245084D01*
X157154197Y-130219362D01*
X157196376Y-130184747D01*
X157230991Y-130142568D01*
X157256713Y-130094447D01*
X157272552Y-130042232D01*
X157277900Y-129987931D01*
X157921220Y-129987931D01*
X157926568Y-130042232D01*
X157942407Y-130094447D01*
X157968129Y-130142568D01*
X158002744Y-130184747D01*
X158044923Y-130219362D01*
X158093044Y-130245084D01*
X158145259Y-130260923D01*
X158199560Y-130266271D01*
X159007310Y-130264931D01*
X159076560Y-130195681D01*
X159076560Y-129210931D01*
X159122560Y-129210931D01*
X159122560Y-130195681D01*
X159191810Y-130264931D01*
X159999560Y-130266271D01*
X160053861Y-130260923D01*
X160106076Y-130245084D01*
X160154197Y-130219362D01*
X160196376Y-130184747D01*
X160230991Y-130142568D01*
X160256713Y-130094447D01*
X160272552Y-130042232D01*
X160277900Y-129987931D01*
X160276560Y-129280181D01*
X160207310Y-129210931D01*
X159122560Y-129210931D01*
X159076560Y-129210931D01*
X157991810Y-129210931D01*
X157922560Y-129280181D01*
X157921220Y-129987931D01*
X157277900Y-129987931D01*
X157276560Y-129280181D01*
X157207310Y-129210931D01*
X156122560Y-129210931D01*
X156076560Y-129210931D01*
X154991810Y-129210931D01*
X154922560Y-129280181D01*
X154921220Y-129987931D01*
X154277900Y-129987931D01*
X154276560Y-129280181D01*
X154207310Y-129210931D01*
X153122560Y-129210931D01*
X153076560Y-129210931D01*
X151991810Y-129210931D01*
X151922560Y-129280181D01*
X151921220Y-129987931D01*
X134377500Y-129987931D01*
X134377500Y-128387931D01*
X151921220Y-128387931D01*
X151922560Y-129095681D01*
X151991810Y-129164931D01*
X153076560Y-129164931D01*
X153076560Y-128180181D01*
X153122560Y-128180181D01*
X153122560Y-129164931D01*
X154207310Y-129164931D01*
X154276560Y-129095681D01*
X154277900Y-128387931D01*
X154921220Y-128387931D01*
X154922560Y-129095681D01*
X154991810Y-129164931D01*
X156076560Y-129164931D01*
X156076560Y-128180181D01*
X156122560Y-128180181D01*
X156122560Y-129164931D01*
X157207310Y-129164931D01*
X157276560Y-129095681D01*
X157277900Y-128387931D01*
X157921220Y-128387931D01*
X157922560Y-129095681D01*
X157991810Y-129164931D01*
X159076560Y-129164931D01*
X159076560Y-128180181D01*
X159122560Y-128180181D01*
X159122560Y-129164931D01*
X160207310Y-129164931D01*
X160276560Y-129095681D01*
X160277900Y-128387931D01*
X160275734Y-128365931D01*
X160919720Y-128365931D01*
X160919720Y-129965931D01*
X160925068Y-130020232D01*
X160940907Y-130072447D01*
X160966629Y-130120568D01*
X161001244Y-130162747D01*
X161043423Y-130197362D01*
X161091544Y-130223084D01*
X161143759Y-130238923D01*
X161198060Y-130244271D01*
X163001060Y-130244271D01*
X163055361Y-130238923D01*
X163107576Y-130223084D01*
X163155697Y-130197362D01*
X163197876Y-130162747D01*
X163232491Y-130120568D01*
X163258213Y-130072447D01*
X163274052Y-130020232D01*
X163279400Y-129965931D01*
X163279400Y-129642931D01*
X164754446Y-129642931D01*
X164790154Y-129666790D01*
X164909028Y-129716029D01*
X165035225Y-129741131D01*
X165163895Y-129741131D01*
X165290092Y-129716029D01*
X165408966Y-129666790D01*
X165515951Y-129595305D01*
X165606934Y-129504322D01*
X165678419Y-129397337D01*
X165727658Y-129278463D01*
X165752760Y-129152266D01*
X165752760Y-129109310D01*
X166094300Y-128767771D01*
X167477560Y-128767771D01*
X167531861Y-128762423D01*
X167584076Y-128746584D01*
X167632197Y-128720862D01*
X167674376Y-128686247D01*
X167708991Y-128644068D01*
X167734713Y-128595947D01*
X167750552Y-128543732D01*
X167755900Y-128489431D01*
X168443220Y-128489431D01*
X168448568Y-128543732D01*
X168464407Y-128595947D01*
X168490129Y-128644068D01*
X168524744Y-128686247D01*
X168566923Y-128720862D01*
X168615044Y-128746584D01*
X168667259Y-128762423D01*
X168721560Y-128767771D01*
X169429310Y-128766431D01*
X169498560Y-128697181D01*
X169498560Y-127610931D01*
X169544560Y-127610931D01*
X169544560Y-128697181D01*
X169613810Y-128766431D01*
X170321560Y-128767771D01*
X170375861Y-128762423D01*
X170428076Y-128746584D01*
X170476197Y-128720862D01*
X170518376Y-128686247D01*
X170552991Y-128644068D01*
X170578713Y-128595947D01*
X170594552Y-128543732D01*
X170599900Y-128489431D01*
X170598560Y-127680181D01*
X170529310Y-127610931D01*
X169544560Y-127610931D01*
X169498560Y-127610931D01*
X168513810Y-127610931D01*
X168444560Y-127680181D01*
X168443220Y-128489431D01*
X167755900Y-128489431D01*
X167755900Y-126686431D01*
X168443220Y-126686431D01*
X168444560Y-127495681D01*
X168513810Y-127564931D01*
X169498560Y-127564931D01*
X169498560Y-126478681D01*
X169544560Y-126478681D01*
X169544560Y-127564931D01*
X170529310Y-127564931D01*
X170598560Y-127495681D01*
X170599900Y-126686431D01*
X170594552Y-126632130D01*
X170578713Y-126579915D01*
X170552991Y-126531794D01*
X170518376Y-126489615D01*
X170476197Y-126455000D01*
X170428076Y-126429278D01*
X170375861Y-126413439D01*
X170321560Y-126408091D01*
X169613810Y-126409431D01*
X169544560Y-126478681D01*
X169498560Y-126478681D01*
X169429310Y-126409431D01*
X168721560Y-126408091D01*
X168667259Y-126413439D01*
X168615044Y-126429278D01*
X168566923Y-126455000D01*
X168524744Y-126489615D01*
X168490129Y-126531794D01*
X168464407Y-126579915D01*
X168448568Y-126632130D01*
X168443220Y-126686431D01*
X167755900Y-126686431D01*
X167750552Y-126632130D01*
X167734713Y-126579915D01*
X167708991Y-126531794D01*
X167674376Y-126489615D01*
X167632197Y-126455000D01*
X167584076Y-126429278D01*
X167531861Y-126413439D01*
X167477560Y-126408091D01*
X165953979Y-126408091D01*
X168397140Y-123964931D01*
X176616220Y-123964931D01*
X176616220Y-124260931D01*
X172549560Y-124260931D01*
X172495520Y-124266253D01*
X172443557Y-124282016D01*
X172395667Y-124307614D01*
X172353691Y-124342062D01*
X172319243Y-124384038D01*
X172293645Y-124431928D01*
X172277882Y-124483891D01*
X172272560Y-124537931D01*
X172272560Y-126137931D01*
X172277882Y-126191971D01*
X172293645Y-126243934D01*
X172319243Y-126291824D01*
X172353691Y-126333800D01*
X172395667Y-126368248D01*
X172443557Y-126393846D01*
X172495520Y-126409609D01*
X172549560Y-126414931D01*
X181649560Y-126414931D01*
X181703600Y-126409609D01*
X181755563Y-126393846D01*
X181803453Y-126368248D01*
X181845429Y-126333800D01*
X181879877Y-126291824D01*
X181905475Y-126243934D01*
X181921238Y-126191971D01*
X181926560Y-126137931D01*
X181926560Y-122037931D01*
X181921238Y-121983891D01*
X181905475Y-121931928D01*
X181879877Y-121884038D01*
X181845429Y-121842062D01*
X181803453Y-121807614D01*
X181755563Y-121782016D01*
X181703600Y-121766253D01*
X181649560Y-121760931D01*
X178049560Y-121760931D01*
X177995520Y-121766253D01*
X177943557Y-121782016D01*
X177895667Y-121807614D01*
X177853691Y-121842062D01*
X177819243Y-121884038D01*
X177793645Y-121931928D01*
X177777882Y-121983891D01*
X177772560Y-122037931D01*
X177772560Y-122384479D01*
X177767552Y-122333630D01*
X177751713Y-122281415D01*
X177725991Y-122233294D01*
X177691376Y-122191115D01*
X177649197Y-122156500D01*
X177601076Y-122130778D01*
X177548861Y-122114939D01*
X177494560Y-122109591D01*
X176894560Y-122109591D01*
X176840259Y-122114939D01*
X176788044Y-122130778D01*
X176739923Y-122156500D01*
X176697744Y-122191115D01*
X176663129Y-122233294D01*
X176637407Y-122281415D01*
X176621568Y-122333630D01*
X176616220Y-122387931D01*
X176616220Y-123010931D01*
X168222975Y-123010931D01*
X168199560Y-123008625D01*
X168176145Y-123010931D01*
X168176137Y-123010931D01*
X168106052Y-123017834D01*
X168016137Y-123045109D01*
X167933271Y-123089402D01*
X167901186Y-123115734D01*
X167860639Y-123149010D01*
X167845709Y-123167202D01*
X164578181Y-126434731D01*
X164535225Y-126434731D01*
X164409028Y-126459833D01*
X164290154Y-126509072D01*
X164183169Y-126580557D01*
X164092186Y-126671540D01*
X164020701Y-126778525D01*
X163971462Y-126897399D01*
X163946360Y-127023596D01*
X163946360Y-127152266D01*
X163971462Y-127278463D01*
X164020701Y-127397337D01*
X164092186Y-127504322D01*
X164183169Y-127595305D01*
X164290154Y-127666790D01*
X164409028Y-127716029D01*
X164535225Y-127741131D01*
X164663895Y-127741131D01*
X164790092Y-127716029D01*
X164908966Y-127666790D01*
X165015951Y-127595305D01*
X165106934Y-127504322D01*
X165178419Y-127397337D01*
X165227658Y-127278463D01*
X165252760Y-127152266D01*
X165252760Y-127109310D01*
X165599220Y-126762850D01*
X165599220Y-127913691D01*
X165078181Y-128434731D01*
X165035225Y-128434731D01*
X164909028Y-128459833D01*
X164790154Y-128509072D01*
X164683169Y-128580557D01*
X164592186Y-128671540D01*
X164580566Y-128688931D01*
X163279400Y-128688931D01*
X163279400Y-128365931D01*
X163274052Y-128311630D01*
X163258213Y-128259415D01*
X163232491Y-128211294D01*
X163197876Y-128169115D01*
X163155697Y-128134500D01*
X163107576Y-128108778D01*
X163055361Y-128092939D01*
X163001060Y-128087591D01*
X161198060Y-128087591D01*
X161143759Y-128092939D01*
X161091544Y-128108778D01*
X161043423Y-128134500D01*
X161001244Y-128169115D01*
X160966629Y-128211294D01*
X160940907Y-128259415D01*
X160925068Y-128311630D01*
X160919720Y-128365931D01*
X160275734Y-128365931D01*
X160272552Y-128333630D01*
X160256713Y-128281415D01*
X160230991Y-128233294D01*
X160196376Y-128191115D01*
X160154197Y-128156500D01*
X160106076Y-128130778D01*
X160053861Y-128114939D01*
X159999560Y-128109591D01*
X159191810Y-128110931D01*
X159122560Y-128180181D01*
X159076560Y-128180181D01*
X159007310Y-128110931D01*
X158199560Y-128109591D01*
X158145259Y-128114939D01*
X158093044Y-128130778D01*
X158044923Y-128156500D01*
X158002744Y-128191115D01*
X157968129Y-128233294D01*
X157942407Y-128281415D01*
X157926568Y-128333630D01*
X157921220Y-128387931D01*
X157277900Y-128387931D01*
X157272552Y-128333630D01*
X157256713Y-128281415D01*
X157230991Y-128233294D01*
X157196376Y-128191115D01*
X157154197Y-128156500D01*
X157106076Y-128130778D01*
X157053861Y-128114939D01*
X156999560Y-128109591D01*
X156191810Y-128110931D01*
X156122560Y-128180181D01*
X156076560Y-128180181D01*
X156007310Y-128110931D01*
X155199560Y-128109591D01*
X155145259Y-128114939D01*
X155093044Y-128130778D01*
X155044923Y-128156500D01*
X155002744Y-128191115D01*
X154968129Y-128233294D01*
X154942407Y-128281415D01*
X154926568Y-128333630D01*
X154921220Y-128387931D01*
X154277900Y-128387931D01*
X154272552Y-128333630D01*
X154256713Y-128281415D01*
X154230991Y-128233294D01*
X154196376Y-128191115D01*
X154154197Y-128156500D01*
X154106076Y-128130778D01*
X154053861Y-128114939D01*
X153999560Y-128109591D01*
X153191810Y-128110931D01*
X153122560Y-128180181D01*
X153076560Y-128180181D01*
X153007310Y-128110931D01*
X152199560Y-128109591D01*
X152145259Y-128114939D01*
X152093044Y-128130778D01*
X152044923Y-128156500D01*
X152002744Y-128191115D01*
X151968129Y-128233294D01*
X151942407Y-128281415D01*
X151926568Y-128333630D01*
X151921220Y-128387931D01*
X134377500Y-128387931D01*
X134377500Y-127627500D01*
X143586375Y-127627500D01*
X143600000Y-127628842D01*
X143613625Y-127627500D01*
X143654399Y-127623484D01*
X143706708Y-127607616D01*
X143754916Y-127581849D01*
X143797171Y-127547171D01*
X143831849Y-127504916D01*
X143857616Y-127456708D01*
X143873484Y-127404399D01*
X143878842Y-127350000D01*
X143877500Y-127336375D01*
X143877500Y-122627500D01*
X146186375Y-122627500D01*
X146200000Y-122628842D01*
X146213625Y-122627500D01*
X146227931Y-122626091D01*
X146254399Y-122623484D01*
X146306708Y-122607616D01*
X146354916Y-122581849D01*
X146397171Y-122547171D01*
X146431849Y-122504916D01*
X146457616Y-122456708D01*
X146473484Y-122404399D01*
X146477500Y-122363625D01*
X146477500Y-122363624D01*
X146478842Y-122350000D01*
X146477500Y-122336375D01*
X146477500Y-121227500D01*
X213285694Y-121227500D01*
X213288714Y-121613669D01*
G37*
X213288714Y-121613669D02*
X213245417Y-121626803D01*
X213238179Y-121630672D01*
X213175580Y-121664132D01*
X213141632Y-121691993D01*
X213114368Y-121714368D01*
X213101781Y-121729705D01*
X212433487Y-122398000D01*
X207469739Y-122398000D01*
X207450000Y-122396056D01*
X207430260Y-122398000D01*
X207430253Y-122398000D01*
X207371194Y-122403817D01*
X207295417Y-122426803D01*
X207225580Y-122464132D01*
X207193336Y-122490594D01*
X207180394Y-122501216D01*
X207164368Y-122514368D01*
X207151781Y-122529705D01*
X206360497Y-123320990D01*
X188557136Y-123320990D01*
X188537396Y-123319046D01*
X188517657Y-123320990D01*
X188517650Y-123320990D01*
X188458591Y-123326807D01*
X188382814Y-123349793D01*
X188312977Y-123387122D01*
X188251765Y-123437358D01*
X188239174Y-123452700D01*
X186527262Y-125164612D01*
X186511920Y-125177203D01*
X186461684Y-125238416D01*
X186424355Y-125308253D01*
X186401369Y-125384030D01*
X186395552Y-125443089D01*
X186395552Y-125443096D01*
X186393608Y-125462835D01*
X186395552Y-125482574D01*
X186395553Y-136329491D01*
X185039113Y-137685931D01*
X171616550Y-137685931D01*
X171606934Y-137671540D01*
X171515951Y-137580557D01*
X171408966Y-137509072D01*
X171290092Y-137459833D01*
X171163895Y-137434731D01*
X171035225Y-137434731D01*
X170909028Y-137459833D01*
X170790154Y-137509072D01*
X170683169Y-137580557D01*
X170592186Y-137671540D01*
X170520701Y-137778525D01*
X170471462Y-137897399D01*
X170446360Y-138023596D01*
X170446360Y-138152266D01*
X170471462Y-138278463D01*
X170520701Y-138397337D01*
X170592186Y-138504322D01*
X170665221Y-138577357D01*
X170624140Y-138618437D01*
X170550050Y-138729320D01*
X170499016Y-138852526D01*
X170473000Y-138983321D01*
X170473000Y-139116679D01*
X170499016Y-139247474D01*
X170550050Y-139370680D01*
X170624140Y-139481563D01*
X170718437Y-139575860D01*
X170829320Y-139649950D01*
X170952526Y-139700984D01*
X171083321Y-139727000D01*
X171216679Y-139727000D01*
X171347474Y-139700984D01*
X171470680Y-139649950D01*
X171581563Y-139575860D01*
X171675860Y-139481563D01*
X171695613Y-139452000D01*
X184756990Y-139452000D01*
X184776729Y-139453944D01*
X184796468Y-139452000D01*
X184796476Y-139452000D01*
X184855535Y-139446183D01*
X184931312Y-139423197D01*
X185001149Y-139385868D01*
X185062361Y-139335632D01*
X185074952Y-139320290D01*
X187149571Y-137245672D01*
X187149571Y-139969406D01*
X185008047Y-142110931D01*
X171046325Y-142110931D01*
X171015951Y-142080557D01*
X170908966Y-142009072D01*
X170790092Y-141959833D01*
X170663895Y-141934731D01*
X170535225Y-141934731D01*
X170409028Y-141959833D01*
X170290154Y-142009072D01*
X170183169Y-142080557D01*
X170092186Y-142171540D01*
X170020701Y-142278525D01*
X169971462Y-142397399D01*
X169946360Y-142523596D01*
X169946360Y-142652266D01*
X169971462Y-142778463D01*
X170020701Y-142897337D01*
X170092186Y-143004322D01*
X170183169Y-143095305D01*
X170290154Y-143166790D01*
X170409028Y-143216029D01*
X170535225Y-143241131D01*
X170663895Y-143241131D01*
X170790092Y-143216029D01*
X170908966Y-143166790D01*
X171015951Y-143095305D01*
X171046325Y-143064931D01*
X185122983Y-143064931D01*
X185193068Y-143058028D01*
X185282983Y-143030753D01*
X185365849Y-142986460D01*
X185438481Y-142926852D01*
X185498089Y-142854220D01*
X185542382Y-142771354D01*
X185567520Y-142688484D01*
X187821865Y-140434140D01*
X187837202Y-140421553D01*
X187887438Y-140360341D01*
X187924767Y-140290504D01*
X187947753Y-140214727D01*
X187953570Y-140155668D01*
X187953570Y-140155661D01*
X187955514Y-140135921D01*
X187953570Y-140116182D01*
X187953570Y-126984497D01*
X188121680Y-126984497D01*
X188121680Y-130192587D01*
X188128625Y-130254225D01*
X188240703Y-130745271D01*
X188251971Y-130782416D01*
X188276215Y-130831005D01*
X188414783Y-131051536D01*
X188453457Y-131100033D01*
X188635600Y-131282176D01*
X188684097Y-131320850D01*
X188902205Y-131457895D01*
X188958089Y-131484807D01*
X189201223Y-131569884D01*
X189261697Y-131583687D01*
X189514858Y-131612211D01*
X189545872Y-131613953D01*
X192953605Y-131613953D01*
X193007645Y-131608630D01*
X193517237Y-131507265D01*
X193593773Y-131479880D01*
X193829410Y-131353930D01*
X193874561Y-131323762D01*
X194079172Y-131155842D01*
X194117569Y-131117445D01*
X194285489Y-130912834D01*
X194315658Y-130867683D01*
X194440433Y-130634244D01*
X194461212Y-130584078D01*
X194538050Y-130330782D01*
X194548644Y-130277522D01*
X194574346Y-130016559D01*
X194575680Y-129989409D01*
X194575680Y-129864931D01*
X195570610Y-129864931D01*
X196652229Y-130946551D01*
X196692216Y-130995275D01*
X196886664Y-131154855D01*
X197108509Y-131273433D01*
X197349224Y-131346453D01*
X197536834Y-131364931D01*
X197536841Y-131364931D01*
X197599559Y-131371108D01*
X197662278Y-131364931D01*
X200967120Y-131364931D01*
X200981733Y-131376924D01*
X201203578Y-131495502D01*
X201444293Y-131568522D01*
X201631903Y-131587000D01*
X201694629Y-131593178D01*
X201757355Y-131587000D01*
X206200774Y-131587000D01*
X206262611Y-131574700D01*
X206325336Y-131568522D01*
X206385649Y-131550226D01*
X206447487Y-131537926D01*
X206505737Y-131513798D01*
X206566051Y-131495502D01*
X206621639Y-131465790D01*
X206679886Y-131441663D01*
X206732305Y-131406638D01*
X206787896Y-131376924D01*
X206836621Y-131336936D01*
X206889040Y-131301911D01*
X206933622Y-131257329D01*
X206982344Y-131217344D01*
X207022331Y-131168620D01*
X207066911Y-131124040D01*
X207101936Y-131071621D01*
X207139049Y-131026399D01*
X230976785Y-131026399D01*
X230982133Y-131080700D01*
X230997972Y-131132915D01*
X231023694Y-131181036D01*
X231058309Y-131223215D01*
X231100488Y-131257830D01*
X231148609Y-131283552D01*
X231200824Y-131299391D01*
X231255125Y-131304739D01*
X232447875Y-131303399D01*
X232517125Y-131234149D01*
X232517125Y-130224399D01*
X232563125Y-130224399D01*
X232563125Y-131234149D01*
X232632375Y-131303399D01*
X233825125Y-131304739D01*
X233879426Y-131299391D01*
X233931641Y-131283552D01*
X233979762Y-131257830D01*
X234021941Y-131223215D01*
X234056556Y-131181036D01*
X234082278Y-131132915D01*
X234098117Y-131080700D01*
X234103465Y-131026399D01*
X234102125Y-130293649D01*
X234032875Y-130224399D01*
X232563125Y-130224399D01*
X232517125Y-130224399D01*
X231047375Y-130224399D01*
X230978125Y-130293649D01*
X230976785Y-131026399D01*
X207139049Y-131026399D01*
X207141924Y-131022896D01*
X207171638Y-130967305D01*
X207206663Y-130914886D01*
X207230790Y-130856639D01*
X207260502Y-130801051D01*
X207278798Y-130740737D01*
X207302926Y-130682487D01*
X207315226Y-130620649D01*
X207333522Y-130560336D01*
X207339700Y-130497611D01*
X207352000Y-130435774D01*
X207352000Y-130372726D01*
X207358178Y-130310000D01*
X207352000Y-130247274D01*
X207352000Y-130184226D01*
X207339700Y-130122389D01*
X207333522Y-130059664D01*
X207315226Y-129999351D01*
X207302926Y-129937513D01*
X207278798Y-129879263D01*
X207260502Y-129818949D01*
X207230790Y-129763361D01*
X207206663Y-129705114D01*
X207171638Y-129652695D01*
X207141924Y-129597104D01*
X207101936Y-129548379D01*
X207066911Y-129495960D01*
X207022329Y-129451378D01*
X206982344Y-129402656D01*
X206933620Y-129362669D01*
X206889040Y-129318089D01*
X206836621Y-129283064D01*
X206787896Y-129243076D01*
X206732305Y-129213362D01*
X206679886Y-129178337D01*
X206621639Y-129154210D01*
X206566051Y-129124498D01*
X206505737Y-129106202D01*
X206447487Y-129082074D01*
X206385649Y-129069774D01*
X206325336Y-129051478D01*
X206262611Y-129045300D01*
X206200774Y-129033000D01*
X202200069Y-129033000D01*
X202185456Y-129021007D01*
X201963611Y-128902429D01*
X201722896Y-128829409D01*
X201535286Y-128810931D01*
X201472560Y-128804753D01*
X201409834Y-128810931D01*
X198128511Y-128810931D01*
X197046895Y-127729316D01*
X197006904Y-127680587D01*
X196812456Y-127521007D01*
X196590611Y-127402429D01*
X196349896Y-127329409D01*
X196162286Y-127310931D01*
X196099560Y-127304753D01*
X196036834Y-127310931D01*
X194575680Y-127310931D01*
X194575680Y-126882028D01*
X194570357Y-126827988D01*
X194476604Y-126356664D01*
X194449220Y-126280128D01*
X194332512Y-126061780D01*
X194302342Y-126016628D01*
X194146857Y-125827171D01*
X194108462Y-125788776D01*
X193919005Y-125633291D01*
X193873853Y-125603122D01*
X193657703Y-125487588D01*
X193607536Y-125466808D01*
X193372999Y-125395662D01*
X193319741Y-125385068D01*
X193078287Y-125361287D01*
X193051136Y-125359953D01*
X189743755Y-125359953D01*
X189689715Y-125365276D01*
X189180123Y-125466641D01*
X189103587Y-125494026D01*
X188867950Y-125619976D01*
X188822799Y-125650144D01*
X188618188Y-125818064D01*
X188579791Y-125856461D01*
X188411871Y-126061072D01*
X188381702Y-126106223D01*
X188256927Y-126339662D01*
X188236148Y-126389828D01*
X188159310Y-126643124D01*
X188148716Y-126696384D01*
X188123014Y-126957347D01*
X188121680Y-126984497D01*
X187953570Y-126984497D01*
X187953570Y-125941672D01*
X188905312Y-124989931D01*
X189339765Y-124989931D01*
X189416137Y-125030753D01*
X189506052Y-125058028D01*
X189576137Y-125064931D01*
X197901981Y-125064931D01*
X198278832Y-125441783D01*
X198333271Y-125486460D01*
X198416137Y-125530753D01*
X198506052Y-125558028D01*
X198599560Y-125567237D01*
X198606542Y-125566549D01*
X198661882Y-125572000D01*
X198661889Y-125572000D01*
X198681628Y-125573944D01*
X198701368Y-125572000D01*
X220203487Y-125572000D01*
X222369874Y-127738388D01*
X221935263Y-128173000D01*
X221473472Y-128173000D01*
X221435846Y-128180484D01*
X221397681Y-128184243D01*
X221360987Y-128195374D01*
X221323357Y-128202859D01*
X221287908Y-128217543D01*
X221251216Y-128228673D01*
X221217402Y-128246747D01*
X221181952Y-128261431D01*
X221150045Y-128282750D01*
X221116234Y-128300823D01*
X221086598Y-128325144D01*
X221054691Y-128346464D01*
X221027558Y-128373597D01*
X220997920Y-128397920D01*
X220973597Y-128427558D01*
X220946464Y-128454691D01*
X220925144Y-128486598D01*
X220900823Y-128516234D01*
X220882750Y-128550045D01*
X220861431Y-128581952D01*
X220846747Y-128617402D01*
X220828673Y-128651216D01*
X220817543Y-128687908D01*
X220802859Y-128723357D01*
X220795374Y-128760987D01*
X220784243Y-128797681D01*
X220780484Y-128835846D01*
X220773000Y-128873472D01*
X220773000Y-128911834D01*
X220769241Y-128950000D01*
X220773000Y-128988166D01*
X220773000Y-129026528D01*
X220780484Y-129064154D01*
X220784243Y-129102319D01*
X220795374Y-129139013D01*
X220802859Y-129176643D01*
X220817543Y-129212092D01*
X220828673Y-129248784D01*
X220846747Y-129282598D01*
X220861431Y-129318048D01*
X220882750Y-129349955D01*
X220900823Y-129383766D01*
X220925144Y-129413402D01*
X220946464Y-129445309D01*
X220973597Y-129472442D01*
X220997920Y-129502080D01*
X221027558Y-129526403D01*
X221054691Y-129553536D01*
X221086598Y-129574856D01*
X221116234Y-129599177D01*
X221150045Y-129617250D01*
X221181952Y-129638569D01*
X221217402Y-129653253D01*
X221251216Y-129671327D01*
X221287908Y-129682457D01*
X221323357Y-129697141D01*
X221360987Y-129704626D01*
X221397681Y-129715757D01*
X221435846Y-129719516D01*
X221473472Y-129727000D01*
X222218943Y-129727000D01*
X222257106Y-129730759D01*
X222295269Y-129727000D01*
X222295272Y-129727000D01*
X222409425Y-129715757D01*
X222555890Y-129671327D01*
X222690872Y-129599177D01*
X222809186Y-129502080D01*
X222833518Y-129472431D01*
X222929550Y-129376399D01*
X230976785Y-129376399D01*
X230978125Y-130109149D01*
X231047375Y-130178399D01*
X232517125Y-130178399D01*
X232517125Y-129168649D01*
X232563125Y-129168649D01*
X232563125Y-130178399D01*
X234032875Y-130178399D01*
X234102125Y-130109149D01*
X234103465Y-129376399D01*
X234098117Y-129322098D01*
X234082278Y-129269883D01*
X234056556Y-129221762D01*
X234021941Y-129179583D01*
X233979762Y-129144968D01*
X233931641Y-129119246D01*
X233879426Y-129103407D01*
X233825125Y-129098059D01*
X232632375Y-129099399D01*
X232563125Y-129168649D01*
X232517125Y-129168649D01*
X232447875Y-129099399D01*
X231255125Y-129098059D01*
X231200824Y-129103407D01*
X231148609Y-129119246D01*
X231100488Y-129144968D01*
X231058309Y-129179583D01*
X231023694Y-129221762D01*
X230997972Y-129269883D01*
X230982133Y-129322098D01*
X230976785Y-129376399D01*
X222929550Y-129376399D01*
X223277551Y-129028399D01*
X235554389Y-129028399D01*
X235545371Y-129045246D01*
X235529578Y-129097201D01*
X235529493Y-129098059D01*
X234775125Y-129098059D01*
X234720824Y-129103407D01*
X234668609Y-129119246D01*
X234620488Y-129144968D01*
X234578309Y-129179583D01*
X234543694Y-129221762D01*
X234517972Y-129269883D01*
X234502133Y-129322098D01*
X234496785Y-129376399D01*
X234496785Y-131026399D01*
X234502133Y-131080700D01*
X234517972Y-131132915D01*
X234543694Y-131181036D01*
X234578309Y-131223215D01*
X234620488Y-131257830D01*
X234668609Y-131283552D01*
X234720824Y-131299391D01*
X234775125Y-131304739D01*
X235528891Y-131304739D01*
X235529340Y-131308925D01*
X235546037Y-131360596D01*
X235681865Y-131672500D01*
X192013625Y-131672500D01*
X192000000Y-131671158D01*
X191986375Y-131672500D01*
X191945601Y-131676516D01*
X191893292Y-131692384D01*
X191845084Y-131718151D01*
X191802829Y-131752829D01*
X191768151Y-131795084D01*
X191742384Y-131843292D01*
X191726516Y-131895601D01*
X191721158Y-131950000D01*
X191722501Y-131963635D01*
X191722500Y-145572500D01*
X146477500Y-145572500D01*
X146477500Y-136863625D01*
X146478842Y-136850000D01*
X146473484Y-136795601D01*
X146457616Y-136743292D01*
X146431849Y-136695084D01*
X146397171Y-136652829D01*
X146354916Y-136618151D01*
X146306708Y-136592384D01*
X146254399Y-136576516D01*
X146213625Y-136572500D01*
X146200000Y-136571158D01*
X146186375Y-136572500D01*
X134377500Y-136572500D01*
X134377500Y-134701111D01*
X135473000Y-134701111D01*
X135473000Y-134903413D01*
X135512467Y-135101827D01*
X135589885Y-135288729D01*
X135702277Y-135456936D01*
X135845326Y-135599985D01*
X136013533Y-135712377D01*
X136200435Y-135789795D01*
X136398849Y-135829262D01*
X136601151Y-135829262D01*
X136799565Y-135789795D01*
X136986467Y-135712377D01*
X137154674Y-135599985D01*
X137216728Y-135537931D01*
X148272560Y-135537931D01*
X148272560Y-143637931D01*
X148277882Y-143691971D01*
X148293645Y-143743934D01*
X148319243Y-143791824D01*
X148353691Y-143833800D01*
X148395667Y-143868248D01*
X148443557Y-143893846D01*
X148495520Y-143909609D01*
X148549560Y-143914931D01*
X161649560Y-143914931D01*
X161703600Y-143909609D01*
X161755563Y-143893846D01*
X161803453Y-143868248D01*
X161845429Y-143833800D01*
X161879877Y-143791824D01*
X161905475Y-143743934D01*
X161921238Y-143691971D01*
X161926560Y-143637931D01*
X161926560Y-139948890D01*
X164577560Y-139948890D01*
X164577560Y-140091112D01*
X164605306Y-140230601D01*
X164659732Y-140361996D01*
X164738746Y-140480249D01*
X164839312Y-140580815D01*
X164957565Y-140659829D01*
X165088960Y-140714255D01*
X165228449Y-140742001D01*
X165370671Y-140742001D01*
X165510160Y-140714255D01*
X165641555Y-140659829D01*
X165759808Y-140580815D01*
X165860374Y-140480249D01*
X165939388Y-140361996D01*
X165993814Y-140230601D01*
X166021560Y-140091112D01*
X166021560Y-139948890D01*
X165993814Y-139809401D01*
X165939388Y-139678006D01*
X165860374Y-139559753D01*
X165759808Y-139459187D01*
X165641555Y-139380173D01*
X165510160Y-139325747D01*
X165370671Y-139298001D01*
X165228449Y-139298001D01*
X165088960Y-139325747D01*
X164957565Y-139380173D01*
X164839312Y-139459187D01*
X164738746Y-139559753D01*
X164659732Y-139678006D01*
X164605306Y-139809401D01*
X164577560Y-139948890D01*
X161926560Y-139948890D01*
X161926560Y-136414931D01*
X168149560Y-136414931D01*
X168203600Y-136409609D01*
X168255563Y-136393846D01*
X168303453Y-136368248D01*
X168345429Y-136333800D01*
X168379877Y-136291824D01*
X168405475Y-136243934D01*
X168421238Y-136191971D01*
X168426560Y-136137931D01*
X168426560Y-132037931D01*
X170772560Y-132037931D01*
X170772560Y-136637931D01*
X170777882Y-136691971D01*
X170793645Y-136743934D01*
X170819243Y-136791824D01*
X170853691Y-136833800D01*
X170895667Y-136868248D01*
X170943557Y-136893846D01*
X170995520Y-136909609D01*
X171049560Y-136914931D01*
X182149560Y-136914931D01*
X182203600Y-136909609D01*
X182255563Y-136893846D01*
X182303453Y-136868248D01*
X182345429Y-136833800D01*
X182379877Y-136791824D01*
X182405475Y-136743934D01*
X182421238Y-136691971D01*
X182426560Y-136637931D01*
X182426560Y-133537931D01*
X182421238Y-133483891D01*
X182405475Y-133431928D01*
X182379877Y-133384038D01*
X182345429Y-133342062D01*
X182303453Y-133307614D01*
X182255563Y-133282016D01*
X182203600Y-133266253D01*
X182149560Y-133260931D01*
X182125241Y-133260931D01*
X182122552Y-133233630D01*
X182106713Y-133181415D01*
X182080991Y-133133294D01*
X182046376Y-133091115D01*
X182042496Y-133087931D01*
X182046376Y-133084747D01*
X182080991Y-133042568D01*
X182106713Y-132994447D01*
X182122552Y-132942232D01*
X182125241Y-132914931D01*
X182149560Y-132914931D01*
X182203600Y-132909609D01*
X182255563Y-132893846D01*
X182303453Y-132868248D01*
X182345429Y-132833800D01*
X182379877Y-132791824D01*
X182405475Y-132743934D01*
X182421238Y-132691971D01*
X182426560Y-132637931D01*
X182426560Y-127537931D01*
X182421238Y-127483891D01*
X182405475Y-127431928D01*
X182379877Y-127384038D01*
X182345429Y-127342062D01*
X182303453Y-127307614D01*
X182255563Y-127282016D01*
X182203600Y-127266253D01*
X182149560Y-127260931D01*
X176549560Y-127260931D01*
X176495520Y-127266253D01*
X176443557Y-127282016D01*
X176395667Y-127307614D01*
X176353691Y-127342062D01*
X176319243Y-127384038D01*
X176293645Y-127431928D01*
X176277882Y-127483891D01*
X176272560Y-127537931D01*
X176272560Y-131791101D01*
X176255563Y-131782016D01*
X176203600Y-131766253D01*
X176149560Y-131760931D01*
X174086025Y-131760931D01*
X174068197Y-131746300D01*
X174020076Y-131720578D01*
X173967861Y-131704739D01*
X173913560Y-131699391D01*
X171339560Y-131699391D01*
X171285259Y-131704739D01*
X171233044Y-131720578D01*
X171184923Y-131746300D01*
X171167095Y-131760931D01*
X171049560Y-131760931D01*
X170995520Y-131766253D01*
X170943557Y-131782016D01*
X170895667Y-131807614D01*
X170853691Y-131842062D01*
X170819243Y-131884038D01*
X170793645Y-131931928D01*
X170777882Y-131983891D01*
X170772560Y-132037931D01*
X168426560Y-132037931D01*
X168426560Y-131037931D01*
X168421238Y-130983891D01*
X168405475Y-130931928D01*
X168379877Y-130884038D01*
X168345429Y-130842062D01*
X168303453Y-130807614D01*
X168255563Y-130782016D01*
X168203600Y-130766253D01*
X168149560Y-130760931D01*
X151549560Y-130760931D01*
X151495520Y-130766253D01*
X151443557Y-130782016D01*
X151395667Y-130807614D01*
X151353691Y-130842062D01*
X151319243Y-130884038D01*
X151293645Y-130931928D01*
X151277882Y-130983891D01*
X151272560Y-131037931D01*
X151272560Y-135260931D01*
X148549560Y-135260931D01*
X148495520Y-135266253D01*
X148443557Y-135282016D01*
X148395667Y-135307614D01*
X148353691Y-135342062D01*
X148319243Y-135384038D01*
X148293645Y-135431928D01*
X148277882Y-135483891D01*
X148272560Y-135537931D01*
X137216728Y-135537931D01*
X137297723Y-135456936D01*
X137410115Y-135288729D01*
X137487533Y-135101827D01*
X137527000Y-134903413D01*
X137527000Y-134701111D01*
X137487533Y-134502697D01*
X137410115Y-134315795D01*
X137297723Y-134147588D01*
X137154674Y-134004539D01*
X136986467Y-133892147D01*
X136799565Y-133814729D01*
X136601151Y-133775262D01*
X136398849Y-133775262D01*
X136200435Y-133814729D01*
X136013533Y-133892147D01*
X135845326Y-134004539D01*
X135702277Y-134147588D01*
X135589885Y-134315795D01*
X135512467Y-134502697D01*
X135473000Y-134701111D01*
X134377500Y-134701111D01*
X134377500Y-131841715D01*
X135073000Y-131841715D01*
X135073000Y-132122809D01*
X135127838Y-132398503D01*
X135235409Y-132658200D01*
X135391576Y-132891922D01*
X135590340Y-133090686D01*
X135824062Y-133246853D01*
X136083759Y-133354424D01*
X136359453Y-133409262D01*
X136640547Y-133409262D01*
X136916241Y-133354424D01*
X137175938Y-133246853D01*
X137409660Y-133090686D01*
X137608424Y-132891922D01*
X137764591Y-132658200D01*
X137872162Y-132398503D01*
X137927000Y-132122809D01*
X137927000Y-131841715D01*
X137872162Y-131566021D01*
X137764591Y-131306324D01*
X137608424Y-131072602D01*
X137409660Y-130873838D01*
X137175938Y-130717671D01*
X136916241Y-130610100D01*
X136640547Y-130555262D01*
X136359453Y-130555262D01*
X136083759Y-130610100D01*
X135824062Y-130717671D01*
X135590340Y-130873838D01*
X135391576Y-131072602D01*
X135235409Y-131306324D01*
X135127838Y-131566021D01*
X135073000Y-131841715D01*
X134377500Y-131841715D01*
X134377500Y-129987931D01*
X151921220Y-129987931D01*
X151926568Y-130042232D01*
X151942407Y-130094447D01*
X151968129Y-130142568D01*
X152002744Y-130184747D01*
X152044923Y-130219362D01*
X152093044Y-130245084D01*
X152145259Y-130260923D01*
X152199560Y-130266271D01*
X153007310Y-130264931D01*
X153076560Y-130195681D01*
X153076560Y-129210931D01*
X153122560Y-129210931D01*
X153122560Y-130195681D01*
X153191810Y-130264931D01*
X153999560Y-130266271D01*
X154053861Y-130260923D01*
X154106076Y-130245084D01*
X154154197Y-130219362D01*
X154196376Y-130184747D01*
X154230991Y-130142568D01*
X154256713Y-130094447D01*
X154272552Y-130042232D01*
X154277900Y-129987931D01*
X154921220Y-129987931D01*
X154926568Y-130042232D01*
X154942407Y-130094447D01*
X154968129Y-130142568D01*
X155002744Y-130184747D01*
X155044923Y-130219362D01*
X155093044Y-130245084D01*
X155145259Y-130260923D01*
X155199560Y-130266271D01*
X156007310Y-130264931D01*
X156076560Y-130195681D01*
X156076560Y-129210931D01*
X156122560Y-129210931D01*
X156122560Y-130195681D01*
X156191810Y-130264931D01*
X156999560Y-130266271D01*
X157053861Y-130260923D01*
X157106076Y-130245084D01*
X157154197Y-130219362D01*
X157196376Y-130184747D01*
X157230991Y-130142568D01*
X157256713Y-130094447D01*
X157272552Y-130042232D01*
X157277900Y-129987931D01*
X157921220Y-129987931D01*
X157926568Y-130042232D01*
X157942407Y-130094447D01*
X157968129Y-130142568D01*
X158002744Y-130184747D01*
X158044923Y-130219362D01*
X158093044Y-130245084D01*
X158145259Y-130260923D01*
X158199560Y-130266271D01*
X159007310Y-130264931D01*
X159076560Y-130195681D01*
X159076560Y-129210931D01*
X159122560Y-129210931D01*
X159122560Y-130195681D01*
X159191810Y-130264931D01*
X159999560Y-130266271D01*
X160053861Y-130260923D01*
X160106076Y-130245084D01*
X160154197Y-130219362D01*
X160196376Y-130184747D01*
X160230991Y-130142568D01*
X160256713Y-130094447D01*
X160272552Y-130042232D01*
X160277900Y-129987931D01*
X160276560Y-129280181D01*
X160207310Y-129210931D01*
X159122560Y-129210931D01*
X159076560Y-129210931D01*
X157991810Y-129210931D01*
X157922560Y-129280181D01*
X157921220Y-129987931D01*
X157277900Y-129987931D01*
X157276560Y-129280181D01*
X157207310Y-129210931D01*
X156122560Y-129210931D01*
X156076560Y-129210931D01*
X154991810Y-129210931D01*
X154922560Y-129280181D01*
X154921220Y-129987931D01*
X154277900Y-129987931D01*
X154276560Y-129280181D01*
X154207310Y-129210931D01*
X153122560Y-129210931D01*
X153076560Y-129210931D01*
X151991810Y-129210931D01*
X151922560Y-129280181D01*
X151921220Y-129987931D01*
X134377500Y-129987931D01*
X134377500Y-128387931D01*
X151921220Y-128387931D01*
X151922560Y-129095681D01*
X151991810Y-129164931D01*
X153076560Y-129164931D01*
X153076560Y-128180181D01*
X153122560Y-128180181D01*
X153122560Y-129164931D01*
X154207310Y-129164931D01*
X154276560Y-129095681D01*
X154277900Y-128387931D01*
X154921220Y-128387931D01*
X154922560Y-129095681D01*
X154991810Y-129164931D01*
X156076560Y-129164931D01*
X156076560Y-128180181D01*
X156122560Y-128180181D01*
X156122560Y-129164931D01*
X157207310Y-129164931D01*
X157276560Y-129095681D01*
X157277900Y-128387931D01*
X157921220Y-128387931D01*
X157922560Y-129095681D01*
X157991810Y-129164931D01*
X159076560Y-129164931D01*
X159076560Y-128180181D01*
X159122560Y-128180181D01*
X159122560Y-129164931D01*
X160207310Y-129164931D01*
X160276560Y-129095681D01*
X160277900Y-128387931D01*
X160275734Y-128365931D01*
X160919720Y-128365931D01*
X160919720Y-129965931D01*
X160925068Y-130020232D01*
X160940907Y-130072447D01*
X160966629Y-130120568D01*
X161001244Y-130162747D01*
X161043423Y-130197362D01*
X161091544Y-130223084D01*
X161143759Y-130238923D01*
X161198060Y-130244271D01*
X163001060Y-130244271D01*
X163055361Y-130238923D01*
X163107576Y-130223084D01*
X163155697Y-130197362D01*
X163197876Y-130162747D01*
X163232491Y-130120568D01*
X163258213Y-130072447D01*
X163274052Y-130020232D01*
X163279400Y-129965931D01*
X163279400Y-129642931D01*
X164754446Y-129642931D01*
X164790154Y-129666790D01*
X164909028Y-129716029D01*
X165035225Y-129741131D01*
X165163895Y-129741131D01*
X165290092Y-129716029D01*
X165408966Y-129666790D01*
X165515951Y-129595305D01*
X165606934Y-129504322D01*
X165678419Y-129397337D01*
X165727658Y-129278463D01*
X165752760Y-129152266D01*
X165752760Y-129109310D01*
X166094300Y-128767771D01*
X167477560Y-128767771D01*
X167531861Y-128762423D01*
X167584076Y-128746584D01*
X167632197Y-128720862D01*
X167674376Y-128686247D01*
X167708991Y-128644068D01*
X167734713Y-128595947D01*
X167750552Y-128543732D01*
X167755900Y-128489431D01*
X168443220Y-128489431D01*
X168448568Y-128543732D01*
X168464407Y-128595947D01*
X168490129Y-128644068D01*
X168524744Y-128686247D01*
X168566923Y-128720862D01*
X168615044Y-128746584D01*
X168667259Y-128762423D01*
X168721560Y-128767771D01*
X169429310Y-128766431D01*
X169498560Y-128697181D01*
X169498560Y-127610931D01*
X169544560Y-127610931D01*
X169544560Y-128697181D01*
X169613810Y-128766431D01*
X170321560Y-128767771D01*
X170375861Y-128762423D01*
X170428076Y-128746584D01*
X170476197Y-128720862D01*
X170518376Y-128686247D01*
X170552991Y-128644068D01*
X170578713Y-128595947D01*
X170594552Y-128543732D01*
X170599900Y-128489431D01*
X170598560Y-127680181D01*
X170529310Y-127610931D01*
X169544560Y-127610931D01*
X169498560Y-127610931D01*
X168513810Y-127610931D01*
X168444560Y-127680181D01*
X168443220Y-128489431D01*
X167755900Y-128489431D01*
X167755900Y-126686431D01*
X168443220Y-126686431D01*
X168444560Y-127495681D01*
X168513810Y-127564931D01*
X169498560Y-127564931D01*
X169498560Y-126478681D01*
X169544560Y-126478681D01*
X169544560Y-127564931D01*
X170529310Y-127564931D01*
X170598560Y-127495681D01*
X170599900Y-126686431D01*
X170594552Y-126632130D01*
X170578713Y-126579915D01*
X170552991Y-126531794D01*
X170518376Y-126489615D01*
X170476197Y-126455000D01*
X170428076Y-126429278D01*
X170375861Y-126413439D01*
X170321560Y-126408091D01*
X169613810Y-126409431D01*
X169544560Y-126478681D01*
X169498560Y-126478681D01*
X169429310Y-126409431D01*
X168721560Y-126408091D01*
X168667259Y-126413439D01*
X168615044Y-126429278D01*
X168566923Y-126455000D01*
X168524744Y-126489615D01*
X168490129Y-126531794D01*
X168464407Y-126579915D01*
X168448568Y-126632130D01*
X168443220Y-126686431D01*
X167755900Y-126686431D01*
X167750552Y-126632130D01*
X167734713Y-126579915D01*
X167708991Y-126531794D01*
X167674376Y-126489615D01*
X167632197Y-126455000D01*
X167584076Y-126429278D01*
X167531861Y-126413439D01*
X167477560Y-126408091D01*
X165953979Y-126408091D01*
X168397140Y-123964931D01*
X176616220Y-123964931D01*
X176616220Y-124260931D01*
X172549560Y-124260931D01*
X172495520Y-124266253D01*
X172443557Y-124282016D01*
X172395667Y-124307614D01*
X172353691Y-124342062D01*
X172319243Y-124384038D01*
X172293645Y-124431928D01*
X172277882Y-124483891D01*
X172272560Y-124537931D01*
X172272560Y-126137931D01*
X172277882Y-126191971D01*
X172293645Y-126243934D01*
X172319243Y-126291824D01*
X172353691Y-126333800D01*
X172395667Y-126368248D01*
X172443557Y-126393846D01*
X172495520Y-126409609D01*
X172549560Y-126414931D01*
X181649560Y-126414931D01*
X181703600Y-126409609D01*
X181755563Y-126393846D01*
X181803453Y-126368248D01*
X181845429Y-126333800D01*
X181879877Y-126291824D01*
X181905475Y-126243934D01*
X181921238Y-126191971D01*
X181926560Y-126137931D01*
X181926560Y-122037931D01*
X181921238Y-121983891D01*
X181905475Y-121931928D01*
X181879877Y-121884038D01*
X181845429Y-121842062D01*
X181803453Y-121807614D01*
X181755563Y-121782016D01*
X181703600Y-121766253D01*
X181649560Y-121760931D01*
X178049560Y-121760931D01*
X177995520Y-121766253D01*
X177943557Y-121782016D01*
X177895667Y-121807614D01*
X177853691Y-121842062D01*
X177819243Y-121884038D01*
X177793645Y-121931928D01*
X177777882Y-121983891D01*
X177772560Y-122037931D01*
X177772560Y-122384479D01*
X177767552Y-122333630D01*
X177751713Y-122281415D01*
X177725991Y-122233294D01*
X177691376Y-122191115D01*
X177649197Y-122156500D01*
X177601076Y-122130778D01*
X177548861Y-122114939D01*
X177494560Y-122109591D01*
X176894560Y-122109591D01*
X176840259Y-122114939D01*
X176788044Y-122130778D01*
X176739923Y-122156500D01*
X176697744Y-122191115D01*
X176663129Y-122233294D01*
X176637407Y-122281415D01*
X176621568Y-122333630D01*
X176616220Y-122387931D01*
X176616220Y-123010931D01*
X168222975Y-123010931D01*
X168199560Y-123008625D01*
X168176145Y-123010931D01*
X168176137Y-123010931D01*
X168106052Y-123017834D01*
X168016137Y-123045109D01*
X167933271Y-123089402D01*
X167901186Y-123115734D01*
X167860639Y-123149010D01*
X167845709Y-123167202D01*
X164578181Y-126434731D01*
X164535225Y-126434731D01*
X164409028Y-126459833D01*
X164290154Y-126509072D01*
X164183169Y-126580557D01*
X164092186Y-126671540D01*
X164020701Y-126778525D01*
X163971462Y-126897399D01*
X163946360Y-127023596D01*
X163946360Y-127152266D01*
X163971462Y-127278463D01*
X164020701Y-127397337D01*
X164092186Y-127504322D01*
X164183169Y-127595305D01*
X164290154Y-127666790D01*
X164409028Y-127716029D01*
X164535225Y-127741131D01*
X164663895Y-127741131D01*
X164790092Y-127716029D01*
X164908966Y-127666790D01*
X165015951Y-127595305D01*
X165106934Y-127504322D01*
X165178419Y-127397337D01*
X165227658Y-127278463D01*
X165252760Y-127152266D01*
X165252760Y-127109310D01*
X165599220Y-126762850D01*
X165599220Y-127913691D01*
X165078181Y-128434731D01*
X165035225Y-128434731D01*
X164909028Y-128459833D01*
X164790154Y-128509072D01*
X164683169Y-128580557D01*
X164592186Y-128671540D01*
X164580566Y-128688931D01*
X163279400Y-128688931D01*
X163279400Y-128365931D01*
X163274052Y-128311630D01*
X163258213Y-128259415D01*
X163232491Y-128211294D01*
X163197876Y-128169115D01*
X163155697Y-128134500D01*
X163107576Y-128108778D01*
X163055361Y-128092939D01*
X163001060Y-128087591D01*
X161198060Y-128087591D01*
X161143759Y-128092939D01*
X161091544Y-128108778D01*
X161043423Y-128134500D01*
X161001244Y-128169115D01*
X160966629Y-128211294D01*
X160940907Y-128259415D01*
X160925068Y-128311630D01*
X160919720Y-128365931D01*
X160275734Y-128365931D01*
X160272552Y-128333630D01*
X160256713Y-128281415D01*
X160230991Y-128233294D01*
X160196376Y-128191115D01*
X160154197Y-128156500D01*
X160106076Y-128130778D01*
X160053861Y-128114939D01*
X159999560Y-128109591D01*
X159191810Y-128110931D01*
X159122560Y-128180181D01*
X159076560Y-128180181D01*
X159007310Y-128110931D01*
X158199560Y-128109591D01*
X158145259Y-128114939D01*
X158093044Y-128130778D01*
X158044923Y-128156500D01*
X158002744Y-128191115D01*
X157968129Y-128233294D01*
X157942407Y-128281415D01*
X157926568Y-128333630D01*
X157921220Y-128387931D01*
X157277900Y-128387931D01*
X157272552Y-128333630D01*
X157256713Y-128281415D01*
X157230991Y-128233294D01*
X157196376Y-128191115D01*
X157154197Y-128156500D01*
X157106076Y-128130778D01*
X157053861Y-128114939D01*
X156999560Y-128109591D01*
X156191810Y-128110931D01*
X156122560Y-128180181D01*
X156076560Y-128180181D01*
X156007310Y-128110931D01*
X155199560Y-128109591D01*
X155145259Y-128114939D01*
X155093044Y-128130778D01*
X155044923Y-128156500D01*
X155002744Y-128191115D01*
X154968129Y-128233294D01*
X154942407Y-128281415D01*
X154926568Y-128333630D01*
X154921220Y-128387931D01*
X154277900Y-128387931D01*
X154272552Y-128333630D01*
X154256713Y-128281415D01*
X154230991Y-128233294D01*
X154196376Y-128191115D01*
X154154197Y-128156500D01*
X154106076Y-128130778D01*
X154053861Y-128114939D01*
X153999560Y-128109591D01*
X153191810Y-128110931D01*
X153122560Y-128180181D01*
X153076560Y-128180181D01*
X153007310Y-128110931D01*
X152199560Y-128109591D01*
X152145259Y-128114939D01*
X152093044Y-128130778D01*
X152044923Y-128156500D01*
X152002744Y-128191115D01*
X151968129Y-128233294D01*
X151942407Y-128281415D01*
X151926568Y-128333630D01*
X151921220Y-128387931D01*
X134377500Y-128387931D01*
X134377500Y-127627500D01*
X143586375Y-127627500D01*
X143600000Y-127628842D01*
X143613625Y-127627500D01*
X143654399Y-127623484D01*
X143706708Y-127607616D01*
X143754916Y-127581849D01*
X143797171Y-127547171D01*
X143831849Y-127504916D01*
X143857616Y-127456708D01*
X143873484Y-127404399D01*
X143878842Y-127350000D01*
X143877500Y-127336375D01*
X143877500Y-122627500D01*
X146186375Y-122627500D01*
X146200000Y-122628842D01*
X146213625Y-122627500D01*
X146227931Y-122626091D01*
X146254399Y-122623484D01*
X146306708Y-122607616D01*
X146354916Y-122581849D01*
X146397171Y-122547171D01*
X146431849Y-122504916D01*
X146457616Y-122456708D01*
X146473484Y-122404399D01*
X146477500Y-122363625D01*
X146477500Y-122363624D01*
X146478842Y-122350000D01*
X146477500Y-122336375D01*
X146477500Y-121227500D01*
X213285694Y-121227500D01*
X213288714Y-121613669D01*
M02*
