G04 #@! TF.GenerationSoftware,KiCad,Pcbnew,(5.1.5)-3*
G04 #@! TF.CreationDate,2020-06-07T00:53:48-04:00*
G04 #@! TF.ProjectId,PowerBoth,506f7765-7242-46f7-9468-2e6b69636164,rev?*
G04 #@! TF.SameCoordinates,Original*
G04 #@! TF.FileFunction,Soldermask,Top*
G04 #@! TF.FilePolarity,Negative*
%FSLAX46Y46*%
G04 Gerber Fmt 4.6, Leading zero omitted, Abs format (unit mm)*
G04 Created by KiCad (PCBNEW (5.1.5)-3) date 2020-06-07 00:53:48*
%MOMM*%
%LPD*%
G04 APERTURE LIST*
%ADD10C,0.100000*%
G04 APERTURE END LIST*
D10*
G36*
X219600000Y-125750000D02*
G01*
X220100000Y-126050000D01*
X220400000Y-126450000D01*
X220600000Y-126950000D01*
X220600000Y-130050000D01*
X220400000Y-130550000D01*
X219900000Y-131050000D01*
X219500000Y-131250000D01*
X216000000Y-131250000D01*
X215500000Y-131050000D01*
X215100000Y-130650000D01*
X214900000Y-130250000D01*
X214900000Y-126950000D01*
X215000000Y-126550000D01*
X215100000Y-126350000D01*
X215500000Y-125950000D01*
X215800000Y-125750000D01*
X216400000Y-125650000D01*
X219200000Y-125650000D01*
X219600000Y-125750000D01*
G37*
X219600000Y-125750000D02*
X220100000Y-126050000D01*
X220400000Y-126450000D01*
X220600000Y-126950000D01*
X220600000Y-130050000D01*
X220400000Y-130550000D01*
X219900000Y-131050000D01*
X219500000Y-131250000D01*
X216000000Y-131250000D01*
X215500000Y-131050000D01*
X215100000Y-130650000D01*
X214900000Y-130250000D01*
X214900000Y-126950000D01*
X215000000Y-126550000D01*
X215100000Y-126350000D01*
X215500000Y-125950000D01*
X215800000Y-125750000D01*
X216400000Y-125650000D01*
X219200000Y-125650000D01*
X219600000Y-125750000D01*
G36*
X193298680Y-125786532D02*
G01*
X193598680Y-125986532D01*
X193998680Y-126386532D01*
X194098680Y-126786532D01*
X194098680Y-130086532D01*
X193998680Y-130486532D01*
X193798680Y-130786532D01*
X193598680Y-130986532D01*
X193098680Y-131186532D01*
X192798680Y-131286532D01*
X189898680Y-131286532D01*
X189398680Y-131186532D01*
X188998680Y-130986532D01*
X188698680Y-130686532D01*
X188498680Y-130286532D01*
X188398680Y-129886532D01*
X188398680Y-126986532D01*
X188598680Y-126386532D01*
X188998680Y-125986532D01*
X189298680Y-125786532D01*
X189698680Y-125686532D01*
X192998680Y-125686532D01*
X193298680Y-125786532D01*
G37*
X193298680Y-125786532D02*
X193598680Y-125986532D01*
X193998680Y-126386532D01*
X194098680Y-126786532D01*
X194098680Y-130086532D01*
X193998680Y-130486532D01*
X193798680Y-130786532D01*
X193598680Y-130986532D01*
X193098680Y-131186532D01*
X192798680Y-131286532D01*
X189898680Y-131286532D01*
X189398680Y-131186532D01*
X188998680Y-130986532D01*
X188698680Y-130686532D01*
X188498680Y-130286532D01*
X188398680Y-129886532D01*
X188398680Y-126986532D01*
X188598680Y-126386532D01*
X188998680Y-125986532D01*
X189298680Y-125786532D01*
X189698680Y-125686532D01*
X192998680Y-125686532D01*
X193298680Y-125786532D01*
G36*
X263730191Y-141547499D02*
G01*
X263792728Y-141566470D01*
X263855263Y-141585439D01*
X263855265Y-141585440D01*
X263970527Y-141647049D01*
X264071561Y-141729964D01*
X264154475Y-141830996D01*
X264216084Y-141946258D01*
X264254025Y-142071332D01*
X264263625Y-142168804D01*
X264263625Y-143207766D01*
X264266027Y-143232152D01*
X264273140Y-143255601D01*
X264284691Y-143277212D01*
X264300236Y-143296154D01*
X264319178Y-143311699D01*
X264340789Y-143323250D01*
X264364238Y-143330363D01*
X264388624Y-143332765D01*
X264413010Y-143330363D01*
X264436459Y-143323250D01*
X264458070Y-143311699D01*
X264477012Y-143296154D01*
X264492557Y-143277211D01*
X264567120Y-143165619D01*
X264567122Y-143165616D01*
X264734407Y-142998331D01*
X264931113Y-142866897D01*
X264931115Y-142866896D01*
X265149682Y-142776362D01*
X265381710Y-142730209D01*
X265618290Y-142730209D01*
X265850318Y-142776362D01*
X266068885Y-142866896D01*
X266068887Y-142866897D01*
X266265593Y-142998331D01*
X266432878Y-143165616D01*
X266545381Y-143333990D01*
X266564313Y-143362324D01*
X266654847Y-143580891D01*
X266701000Y-143812919D01*
X266701000Y-144049499D01*
X266654847Y-144281527D01*
X266564313Y-144500094D01*
X266564312Y-144500096D01*
X266432878Y-144696802D01*
X266265593Y-144864087D01*
X266068887Y-144995521D01*
X266068886Y-144995522D01*
X266068885Y-144995522D01*
X265850318Y-145086056D01*
X265618290Y-145132209D01*
X265381710Y-145132209D01*
X265149682Y-145086056D01*
X264931115Y-144995522D01*
X264931114Y-144995522D01*
X264931113Y-144995521D01*
X264734407Y-144864087D01*
X264567122Y-144696802D01*
X264435688Y-144500096D01*
X264435687Y-144500094D01*
X264345153Y-144281527D01*
X264299000Y-144049499D01*
X264299000Y-143845048D01*
X264296598Y-143820662D01*
X264289485Y-143797213D01*
X264277934Y-143775602D01*
X264262389Y-143756660D01*
X264243447Y-143741115D01*
X264221836Y-143729564D01*
X264198387Y-143722451D01*
X264174001Y-143720049D01*
X264149615Y-143722451D01*
X264126166Y-143729564D01*
X264104555Y-143741115D01*
X264077376Y-143765749D01*
X264071562Y-143772834D01*
X263970528Y-143855749D01*
X263855266Y-143917358D01*
X263855264Y-143917359D01*
X263792729Y-143936328D01*
X263730192Y-143955299D01*
X263600125Y-143968109D01*
X263470059Y-143955299D01*
X263407522Y-143936328D01*
X263344987Y-143917359D01*
X263344985Y-143917358D01*
X263229723Y-143855749D01*
X263128690Y-143772835D01*
X263045776Y-143671802D01*
X262984167Y-143556540D01*
X262946226Y-143431466D01*
X262936626Y-143333994D01*
X262936625Y-142168805D01*
X262946225Y-142071333D01*
X262984166Y-141946259D01*
X263045775Y-141830997D01*
X263128690Y-141729963D01*
X263229722Y-141647049D01*
X263344984Y-141585440D01*
X263344986Y-141585439D01*
X263407521Y-141566470D01*
X263470058Y-141547499D01*
X263600125Y-141534689D01*
X263730191Y-141547499D01*
G37*
G36*
X253830191Y-141547499D02*
G01*
X253892728Y-141566470D01*
X253955263Y-141585439D01*
X253955265Y-141585440D01*
X254070527Y-141647049D01*
X254171561Y-141729964D01*
X254254475Y-141830996D01*
X254316084Y-141946258D01*
X254354025Y-142071332D01*
X254363625Y-142168804D01*
X254363625Y-143333994D01*
X254354025Y-143431466D01*
X254316084Y-143556540D01*
X254254475Y-143671802D01*
X254171561Y-143772835D01*
X254070528Y-143855749D01*
X253955266Y-143917358D01*
X253955264Y-143917359D01*
X253892729Y-143936328D01*
X253830192Y-143955299D01*
X253700125Y-143968109D01*
X253570059Y-143955299D01*
X253507522Y-143936328D01*
X253444987Y-143917359D01*
X253444985Y-143917358D01*
X253329723Y-143855749D01*
X253228690Y-143772835D01*
X253145776Y-143671802D01*
X253084167Y-143556540D01*
X253046226Y-143431466D01*
X253036626Y-143333994D01*
X253036625Y-142168805D01*
X253046225Y-142071333D01*
X253084166Y-141946259D01*
X253145775Y-141830997D01*
X253228690Y-141729963D01*
X253329722Y-141647049D01*
X253444984Y-141585440D01*
X253444986Y-141585439D01*
X253507521Y-141566470D01*
X253570058Y-141547499D01*
X253700125Y-141534689D01*
X253830191Y-141547499D01*
G37*
G36*
X257779612Y-140500395D02*
G01*
X257990145Y-140587601D01*
X258016380Y-140598468D01*
X258124933Y-140671001D01*
X258229464Y-140740846D01*
X258410678Y-140922060D01*
X258553057Y-141135146D01*
X258651129Y-141371912D01*
X258701125Y-141623260D01*
X258701125Y-141879538D01*
X258651129Y-142130886D01*
X258553057Y-142367652D01*
X258553056Y-142367654D01*
X258410678Y-142580738D01*
X258229464Y-142761952D01*
X258016380Y-142904330D01*
X258016379Y-142904331D01*
X258016378Y-142904331D01*
X257779612Y-143002403D01*
X257528264Y-143052399D01*
X257271986Y-143052399D01*
X257020638Y-143002403D01*
X256783872Y-142904331D01*
X256783871Y-142904331D01*
X256783870Y-142904330D01*
X256570786Y-142761952D01*
X256389572Y-142580738D01*
X256247194Y-142367654D01*
X256247193Y-142367652D01*
X256149121Y-142130886D01*
X256099125Y-141879538D01*
X256099125Y-141623260D01*
X256149121Y-141371912D01*
X256247193Y-141135146D01*
X256389572Y-140922060D01*
X256570786Y-140740846D01*
X256675317Y-140671001D01*
X256783870Y-140598468D01*
X256810105Y-140587601D01*
X257020638Y-140500395D01*
X257271986Y-140450399D01*
X257528264Y-140450399D01*
X257779612Y-140500395D01*
G37*
G36*
X265953055Y-140534072D02*
G01*
X266031507Y-140541799D01*
X266132166Y-140572334D01*
X266182497Y-140587601D01*
X266321649Y-140661980D01*
X266443617Y-140762076D01*
X266543713Y-140884044D01*
X266618092Y-141023196D01*
X266618092Y-141023197D01*
X266663894Y-141174186D01*
X266679359Y-141331209D01*
X266663894Y-141488232D01*
X266645915Y-141547500D01*
X266618092Y-141639222D01*
X266543713Y-141778374D01*
X266443617Y-141900342D01*
X266321649Y-142000438D01*
X266182497Y-142074817D01*
X266132166Y-142090084D01*
X266031507Y-142120619D01*
X265953055Y-142128346D01*
X265913830Y-142132209D01*
X265310654Y-142132209D01*
X265271429Y-142128346D01*
X265192977Y-142120619D01*
X265092318Y-142090084D01*
X265041987Y-142074817D01*
X264902835Y-142000438D01*
X264780867Y-141900342D01*
X264680771Y-141778374D01*
X264606392Y-141639222D01*
X264578569Y-141547500D01*
X264560590Y-141488232D01*
X264545125Y-141331209D01*
X264560590Y-141174186D01*
X264606392Y-141023197D01*
X264606392Y-141023196D01*
X264680771Y-140884044D01*
X264780867Y-140762076D01*
X264902835Y-140661980D01*
X265041987Y-140587601D01*
X265092318Y-140572334D01*
X265192977Y-140541799D01*
X265271429Y-140534072D01*
X265310654Y-140530209D01*
X265913830Y-140530209D01*
X265953055Y-140534072D01*
G37*
G36*
X268499915Y-141382209D02*
G01*
X267172915Y-141382209D01*
X267172915Y-140055209D01*
X268499915Y-140055209D01*
X268499915Y-141382209D01*
G37*
G36*
X149430081Y-139382209D02*
G01*
X149489450Y-139394018D01*
X149607924Y-139443092D01*
X149714548Y-139514336D01*
X149805225Y-139605013D01*
X149876469Y-139711637D01*
X149925543Y-139830111D01*
X149950560Y-139955883D01*
X149950560Y-140084119D01*
X149925543Y-140209891D01*
X149876469Y-140328365D01*
X149805225Y-140434989D01*
X149714548Y-140525666D01*
X149607924Y-140596910D01*
X149607923Y-140596911D01*
X149607922Y-140596911D01*
X149489450Y-140645984D01*
X149363679Y-140671001D01*
X149235441Y-140671001D01*
X149109670Y-140645984D01*
X148991198Y-140596911D01*
X148991197Y-140596911D01*
X148991196Y-140596910D01*
X148884572Y-140525666D01*
X148793895Y-140434989D01*
X148722651Y-140328365D01*
X148673577Y-140209891D01*
X148648560Y-140084119D01*
X148648560Y-139955883D01*
X148673577Y-139830111D01*
X148722651Y-139711637D01*
X148793895Y-139605013D01*
X148884572Y-139514336D01*
X148991196Y-139443092D01*
X149109670Y-139394018D01*
X149169039Y-139382209D01*
X149235441Y-139369001D01*
X149363679Y-139369001D01*
X149430081Y-139382209D01*
G37*
G36*
X165430081Y-139382209D02*
G01*
X165489450Y-139394018D01*
X165607924Y-139443092D01*
X165714548Y-139514336D01*
X165805225Y-139605013D01*
X165876469Y-139711637D01*
X165925543Y-139830111D01*
X165950560Y-139955883D01*
X165950560Y-140084119D01*
X165925543Y-140209891D01*
X165876469Y-140328365D01*
X165805225Y-140434989D01*
X165714548Y-140525666D01*
X165607924Y-140596910D01*
X165607923Y-140596911D01*
X165607922Y-140596911D01*
X165489450Y-140645984D01*
X165363679Y-140671001D01*
X165235441Y-140671001D01*
X165109670Y-140645984D01*
X164991198Y-140596911D01*
X164991197Y-140596911D01*
X164991196Y-140596910D01*
X164884572Y-140525666D01*
X164793895Y-140434989D01*
X164722651Y-140328365D01*
X164673577Y-140209891D01*
X164648560Y-140084119D01*
X164648560Y-139955883D01*
X164673577Y-139830111D01*
X164722651Y-139711637D01*
X164793895Y-139605013D01*
X164884572Y-139514336D01*
X164991196Y-139443092D01*
X165109670Y-139394018D01*
X165169039Y-139382209D01*
X165235441Y-139369001D01*
X165363679Y-139369001D01*
X165430081Y-139382209D01*
G37*
G36*
X267965857Y-138067958D02*
G01*
X268029951Y-138080707D01*
X268150700Y-138130723D01*
X268259371Y-138203335D01*
X268351789Y-138295753D01*
X268424401Y-138404424D01*
X268474417Y-138525173D01*
X268499915Y-138653360D01*
X268499915Y-138784058D01*
X268474417Y-138912245D01*
X268424401Y-139032994D01*
X268351789Y-139141665D01*
X268259371Y-139234083D01*
X268150700Y-139306695D01*
X268029951Y-139356711D01*
X267968165Y-139369001D01*
X267901765Y-139382209D01*
X267771065Y-139382209D01*
X267704665Y-139369001D01*
X267642879Y-139356711D01*
X267522130Y-139306695D01*
X267413459Y-139234083D01*
X267321041Y-139141665D01*
X267248429Y-139032994D01*
X267198413Y-138912245D01*
X267172915Y-138784058D01*
X267172915Y-138653360D01*
X267198413Y-138525173D01*
X267248429Y-138404424D01*
X267321041Y-138295753D01*
X267413459Y-138203335D01*
X267522130Y-138130723D01*
X267642879Y-138080707D01*
X267706973Y-138067958D01*
X267771065Y-138055209D01*
X267901765Y-138055209D01*
X267965857Y-138067958D01*
G37*
G36*
X162838674Y-137153465D02*
G01*
X162876367Y-137164899D01*
X162911103Y-137183466D01*
X162941548Y-137208452D01*
X162966534Y-137238897D01*
X162985101Y-137273633D01*
X162996535Y-137311326D01*
X163001000Y-137356661D01*
X163001000Y-138193339D01*
X162996535Y-138238674D01*
X162985101Y-138276367D01*
X162966534Y-138311103D01*
X162941548Y-138341548D01*
X162911103Y-138366534D01*
X162876367Y-138385101D01*
X162838674Y-138396535D01*
X162793339Y-138401000D01*
X161706661Y-138401000D01*
X161661326Y-138396535D01*
X161623633Y-138385101D01*
X161588897Y-138366534D01*
X161558452Y-138341548D01*
X161533466Y-138311103D01*
X161514899Y-138276367D01*
X161503465Y-138238674D01*
X161499000Y-138193339D01*
X161499000Y-137356661D01*
X161503465Y-137311326D01*
X161514899Y-137273633D01*
X161533466Y-137238897D01*
X161558452Y-137208452D01*
X161588897Y-137183466D01*
X161623633Y-137164899D01*
X161661326Y-137153465D01*
X161706661Y-137149000D01*
X162793339Y-137149000D01*
X162838674Y-137153465D01*
G37*
G36*
X267965857Y-136067958D02*
G01*
X268029951Y-136080707D01*
X268150700Y-136130723D01*
X268259371Y-136203335D01*
X268351789Y-136295753D01*
X268424401Y-136404424D01*
X268474417Y-136525173D01*
X268499915Y-136653360D01*
X268499915Y-136784058D01*
X268474417Y-136912245D01*
X268424401Y-137032994D01*
X268351789Y-137141665D01*
X268259371Y-137234083D01*
X268150700Y-137306695D01*
X268029951Y-137356711D01*
X267972820Y-137368075D01*
X267901765Y-137382209D01*
X267771065Y-137382209D01*
X267700010Y-137368075D01*
X267642879Y-137356711D01*
X267522130Y-137306695D01*
X267413459Y-137234083D01*
X267321041Y-137141665D01*
X267248429Y-137032994D01*
X267198413Y-136912245D01*
X267172915Y-136784058D01*
X267172915Y-136653360D01*
X267198413Y-136525173D01*
X267248429Y-136404424D01*
X267321041Y-136295753D01*
X267413459Y-136203335D01*
X267522130Y-136130723D01*
X267642879Y-136080707D01*
X267706973Y-136067958D01*
X267771065Y-136055209D01*
X267901765Y-136055209D01*
X267965857Y-136067958D01*
G37*
G36*
X262845300Y-134248262D02*
G01*
X262859599Y-134249670D01*
X262936271Y-134272929D01*
X263012943Y-134296187D01*
X263154267Y-134371726D01*
X263278140Y-134473384D01*
X263379798Y-134597256D01*
X263455337Y-134738580D01*
X263501854Y-134891925D01*
X263513625Y-135011437D01*
X263513625Y-135891361D01*
X263501854Y-136010873D01*
X263455337Y-136164218D01*
X263379798Y-136305542D01*
X263278140Y-136429414D01*
X263154268Y-136531072D01*
X263012944Y-136606611D01*
X262936271Y-136629870D01*
X262859600Y-136653128D01*
X262845301Y-136654536D01*
X262700125Y-136668835D01*
X262542997Y-136653359D01*
X262540651Y-136653128D01*
X262463980Y-136629870D01*
X262387307Y-136606611D01*
X262245983Y-136531072D01*
X262122111Y-136429414D01*
X262020453Y-136305542D01*
X261944914Y-136164218D01*
X261898397Y-136010873D01*
X261886625Y-135891361D01*
X261886625Y-135011438D01*
X261898396Y-134891926D01*
X261898397Y-134891924D01*
X261944913Y-134738582D01*
X261944913Y-134738581D01*
X262020452Y-134597257D01*
X262122110Y-134473384D01*
X262245982Y-134371726D01*
X262387306Y-134296187D01*
X262463978Y-134272929D01*
X262540650Y-134249670D01*
X262554949Y-134248262D01*
X262700125Y-134233963D01*
X262845300Y-134248262D01*
G37*
G36*
X254245300Y-134248262D02*
G01*
X254259599Y-134249670D01*
X254336271Y-134272929D01*
X254412943Y-134296187D01*
X254554267Y-134371726D01*
X254678140Y-134473384D01*
X254779798Y-134597256D01*
X254855337Y-134738580D01*
X254901854Y-134891925D01*
X254913625Y-135011437D01*
X254913625Y-135891361D01*
X254901854Y-136010873D01*
X254855337Y-136164218D01*
X254779798Y-136305542D01*
X254678140Y-136429414D01*
X254554268Y-136531072D01*
X254412944Y-136606611D01*
X254336271Y-136629870D01*
X254259600Y-136653128D01*
X254245301Y-136654536D01*
X254100125Y-136668835D01*
X253942997Y-136653359D01*
X253940651Y-136653128D01*
X253863980Y-136629870D01*
X253787307Y-136606611D01*
X253645983Y-136531072D01*
X253522111Y-136429414D01*
X253420453Y-136305542D01*
X253344914Y-136164218D01*
X253298397Y-136010873D01*
X253286625Y-135891361D01*
X253286625Y-135011438D01*
X253298396Y-134891926D01*
X253298397Y-134891924D01*
X253344913Y-134738582D01*
X253344913Y-134738581D01*
X253420452Y-134597257D01*
X253522110Y-134473384D01*
X253645982Y-134371726D01*
X253787306Y-134296187D01*
X253863978Y-134272929D01*
X253940650Y-134249670D01*
X253954949Y-134248262D01*
X254100125Y-134233963D01*
X254245300Y-134248262D01*
G37*
G36*
X257645300Y-134248262D02*
G01*
X257659599Y-134249670D01*
X257736271Y-134272929D01*
X257812943Y-134296187D01*
X257954267Y-134371726D01*
X258078140Y-134473384D01*
X258179798Y-134597256D01*
X258255337Y-134738580D01*
X258301854Y-134891925D01*
X258313625Y-135011437D01*
X258313625Y-135891361D01*
X258301854Y-136010873D01*
X258255337Y-136164218D01*
X258179798Y-136305542D01*
X258078140Y-136429414D01*
X257954268Y-136531072D01*
X257812944Y-136606611D01*
X257736271Y-136629870D01*
X257659600Y-136653128D01*
X257645301Y-136654536D01*
X257500125Y-136668835D01*
X257342997Y-136653359D01*
X257340651Y-136653128D01*
X257263980Y-136629870D01*
X257187307Y-136606611D01*
X257045983Y-136531072D01*
X256922111Y-136429414D01*
X256820453Y-136305542D01*
X256744914Y-136164218D01*
X256698397Y-136010873D01*
X256686625Y-135891361D01*
X256686625Y-135011438D01*
X256698396Y-134891926D01*
X256698397Y-134891924D01*
X256744913Y-134738582D01*
X256744913Y-134738581D01*
X256820452Y-134597257D01*
X256922110Y-134473384D01*
X257045982Y-134371726D01*
X257187306Y-134296187D01*
X257263978Y-134272929D01*
X257340650Y-134249670D01*
X257354949Y-134248262D01*
X257500125Y-134233963D01*
X257645300Y-134248262D01*
G37*
G36*
X162838674Y-135103465D02*
G01*
X162876367Y-135114899D01*
X162911103Y-135133466D01*
X162941548Y-135158452D01*
X162966534Y-135188897D01*
X162985101Y-135223633D01*
X162996535Y-135261326D01*
X163001000Y-135306661D01*
X163001000Y-136143339D01*
X162996535Y-136188674D01*
X162985101Y-136226367D01*
X162966534Y-136261103D01*
X162941548Y-136291548D01*
X162911103Y-136316534D01*
X162876367Y-136335101D01*
X162838674Y-136346535D01*
X162793339Y-136351000D01*
X161706661Y-136351000D01*
X161661326Y-136346535D01*
X161623633Y-136335101D01*
X161588897Y-136316534D01*
X161558452Y-136291548D01*
X161533466Y-136261103D01*
X161514899Y-136226367D01*
X161503465Y-136188674D01*
X161499000Y-136143339D01*
X161499000Y-135306661D01*
X161503465Y-135261326D01*
X161514899Y-135223633D01*
X161533466Y-135188897D01*
X161558452Y-135158452D01*
X161588897Y-135133466D01*
X161623633Y-135114899D01*
X161661326Y-135103465D01*
X161706661Y-135099000D01*
X162793339Y-135099000D01*
X162838674Y-135103465D01*
G37*
G36*
X136733642Y-134032043D02*
G01*
X136879414Y-134092424D01*
X136879416Y-134092425D01*
X137010608Y-134180084D01*
X137122178Y-134291654D01*
X137175680Y-134371726D01*
X137209838Y-134422848D01*
X137270219Y-134568620D01*
X137301000Y-134723369D01*
X137301000Y-134881155D01*
X137270219Y-135035904D01*
X137211063Y-135178718D01*
X137209837Y-135181678D01*
X137122178Y-135312870D01*
X137010608Y-135424440D01*
X136879416Y-135512099D01*
X136879415Y-135512100D01*
X136879414Y-135512100D01*
X136733642Y-135572481D01*
X136578893Y-135603262D01*
X136421107Y-135603262D01*
X136266358Y-135572481D01*
X136120586Y-135512100D01*
X136120585Y-135512100D01*
X136120584Y-135512099D01*
X135989392Y-135424440D01*
X135877822Y-135312870D01*
X135790163Y-135181678D01*
X135788937Y-135178718D01*
X135729781Y-135035904D01*
X135699000Y-134881155D01*
X135699000Y-134723369D01*
X135729781Y-134568620D01*
X135790162Y-134422848D01*
X135824320Y-134371726D01*
X135877822Y-134291654D01*
X135989392Y-134180084D01*
X136120584Y-134092425D01*
X136120586Y-134092424D01*
X136266358Y-134032043D01*
X136421107Y-134001262D01*
X136578893Y-134001262D01*
X136733642Y-134032043D01*
G37*
G36*
X268029951Y-134080707D02*
G01*
X268150700Y-134130723D01*
X268259371Y-134203335D01*
X268351789Y-134295753D01*
X268424402Y-134404426D01*
X268439051Y-134439792D01*
X268474417Y-134525173D01*
X268499915Y-134653360D01*
X268499915Y-134784058D01*
X268474417Y-134912245D01*
X268424401Y-135032994D01*
X268351789Y-135141665D01*
X268259371Y-135234083D01*
X268150700Y-135306695D01*
X268150699Y-135306696D01*
X268150698Y-135306696D01*
X268123226Y-135318075D01*
X268029951Y-135356711D01*
X267901765Y-135382209D01*
X267771065Y-135382209D01*
X267642879Y-135356711D01*
X267549604Y-135318075D01*
X267522132Y-135306696D01*
X267522131Y-135306696D01*
X267522130Y-135306695D01*
X267413459Y-135234083D01*
X267321041Y-135141665D01*
X267248429Y-135032994D01*
X267198413Y-134912245D01*
X267172915Y-134784058D01*
X267172915Y-134653360D01*
X267198413Y-134525173D01*
X267233779Y-134439792D01*
X267248428Y-134404426D01*
X267321041Y-134295753D01*
X267413459Y-134203335D01*
X267522130Y-134130723D01*
X267642879Y-134080707D01*
X267771065Y-134055209D01*
X267901765Y-134055209D01*
X268029951Y-134080707D01*
G37*
G36*
X267965857Y-132067958D02*
G01*
X268029951Y-132080707D01*
X268150700Y-132130723D01*
X268259371Y-132203335D01*
X268351789Y-132295753D01*
X268424401Y-132404424D01*
X268474417Y-132525173D01*
X268499915Y-132653360D01*
X268499915Y-132784058D01*
X268474417Y-132912245D01*
X268424401Y-133032994D01*
X268351789Y-133141665D01*
X268259371Y-133234083D01*
X268150700Y-133306695D01*
X268029951Y-133356711D01*
X267965857Y-133369460D01*
X267901765Y-133382209D01*
X267771065Y-133382209D01*
X267706973Y-133369460D01*
X267642879Y-133356711D01*
X267522130Y-133306695D01*
X267413459Y-133234083D01*
X267321041Y-133141665D01*
X267248429Y-133032994D01*
X267198413Y-132912245D01*
X267172915Y-132784058D01*
X267172915Y-132653360D01*
X267198413Y-132525173D01*
X267248429Y-132404424D01*
X267321041Y-132295753D01*
X267413459Y-132203335D01*
X267522130Y-132130723D01*
X267642879Y-132080707D01*
X267706973Y-132067958D01*
X267771065Y-132055209D01*
X267901765Y-132055209D01*
X267965857Y-132067958D01*
G37*
G36*
X136850318Y-130827415D02*
G01*
X137068885Y-130917949D01*
X137068887Y-130917950D01*
X137265593Y-131049384D01*
X137432878Y-131216669D01*
X137564312Y-131413375D01*
X137564313Y-131413377D01*
X137654847Y-131631944D01*
X137701000Y-131863972D01*
X137701000Y-132100552D01*
X137654847Y-132332580D01*
X137625088Y-132404424D01*
X137564312Y-132551149D01*
X137432878Y-132747855D01*
X137265593Y-132915140D01*
X137068887Y-133046574D01*
X137068886Y-133046575D01*
X137068885Y-133046575D01*
X136850318Y-133137109D01*
X136618290Y-133183262D01*
X136381710Y-133183262D01*
X136149682Y-133137109D01*
X135931115Y-133046575D01*
X135931114Y-133046575D01*
X135931113Y-133046574D01*
X135734407Y-132915140D01*
X135567122Y-132747855D01*
X135435688Y-132551149D01*
X135374912Y-132404424D01*
X135345153Y-132332580D01*
X135299000Y-132100552D01*
X135299000Y-131863972D01*
X135345153Y-131631944D01*
X135435687Y-131413377D01*
X135435688Y-131413375D01*
X135567122Y-131216669D01*
X135734407Y-131049384D01*
X135931113Y-130917950D01*
X135931115Y-130917949D01*
X136149682Y-130827415D01*
X136381710Y-130781262D01*
X136618290Y-130781262D01*
X136850318Y-130827415D01*
G37*
G36*
X259208500Y-132138500D02*
G01*
X256511500Y-132138500D01*
X256511500Y-130361500D01*
X259208500Y-130361500D01*
X259208500Y-132138500D01*
G37*
G36*
X255688500Y-132138500D02*
G01*
X252991500Y-132138500D01*
X252991500Y-130361500D01*
X255688500Y-130361500D01*
X255688500Y-132138500D01*
G37*
G36*
X247063625Y-131719899D02*
G01*
X244736625Y-131719899D01*
X244736625Y-130992899D01*
X247063625Y-130992899D01*
X247063625Y-131719899D01*
G37*
G36*
X241863625Y-131719899D02*
G01*
X239536625Y-131719899D01*
X239536625Y-130992899D01*
X241863625Y-130992899D01*
X241863625Y-131719899D01*
G37*
G36*
X233888625Y-131089899D02*
G01*
X231191625Y-131089899D01*
X231191625Y-129312899D01*
X233888625Y-129312899D01*
X233888625Y-131089899D01*
G37*
G36*
X237408625Y-131089899D02*
G01*
X234711625Y-131089899D01*
X234711625Y-129312899D01*
X237408625Y-129312899D01*
X237408625Y-131089899D01*
G37*
G36*
X247063625Y-130449899D02*
G01*
X244736625Y-130449899D01*
X244736625Y-129722899D01*
X247063625Y-129722899D01*
X247063625Y-130449899D01*
G37*
G36*
X241863625Y-130449899D02*
G01*
X239536625Y-130449899D01*
X239536625Y-129722899D01*
X241863625Y-129722899D01*
X241863625Y-130449899D01*
G37*
G36*
X250988674Y-128753465D02*
G01*
X251026367Y-128764899D01*
X251061103Y-128783466D01*
X251091548Y-128808452D01*
X251116534Y-128838897D01*
X251135101Y-128873633D01*
X251146535Y-128911326D01*
X251151000Y-128956661D01*
X251151000Y-130043339D01*
X251146535Y-130088674D01*
X251135101Y-130126367D01*
X251116534Y-130161103D01*
X251091548Y-130191548D01*
X251061103Y-130216534D01*
X251026367Y-130235101D01*
X250988674Y-130246535D01*
X250943339Y-130251000D01*
X250106661Y-130251000D01*
X250061326Y-130246535D01*
X250023633Y-130235101D01*
X249988897Y-130216534D01*
X249958452Y-130191548D01*
X249933466Y-130161103D01*
X249914899Y-130126367D01*
X249903465Y-130088674D01*
X249899000Y-130043339D01*
X249899000Y-128956661D01*
X249903465Y-128911326D01*
X249914899Y-128873633D01*
X249933466Y-128838897D01*
X249958452Y-128808452D01*
X249988897Y-128783466D01*
X250023633Y-128764899D01*
X250061326Y-128753465D01*
X250106661Y-128749000D01*
X250943339Y-128749000D01*
X250988674Y-128753465D01*
G37*
G36*
X248938674Y-128753465D02*
G01*
X248976367Y-128764899D01*
X249011103Y-128783466D01*
X249041548Y-128808452D01*
X249066534Y-128838897D01*
X249085101Y-128873633D01*
X249096535Y-128911326D01*
X249101000Y-128956661D01*
X249101000Y-130043339D01*
X249096535Y-130088674D01*
X249085101Y-130126367D01*
X249066534Y-130161103D01*
X249041548Y-130191548D01*
X249011103Y-130216534D01*
X248976367Y-130235101D01*
X248938674Y-130246535D01*
X248893339Y-130251000D01*
X248056661Y-130251000D01*
X248011326Y-130246535D01*
X247973633Y-130235101D01*
X247938897Y-130216534D01*
X247908452Y-130191548D01*
X247883466Y-130161103D01*
X247864899Y-130126367D01*
X247853465Y-130088674D01*
X247849000Y-130043339D01*
X247849000Y-128956661D01*
X247853465Y-128911326D01*
X247864899Y-128873633D01*
X247883466Y-128838897D01*
X247908452Y-128808452D01*
X247938897Y-128783466D01*
X247973633Y-128764899D01*
X248011326Y-128753465D01*
X248056661Y-128749000D01*
X248893339Y-128749000D01*
X248938674Y-128753465D01*
G37*
G36*
X265896188Y-124027373D02*
G01*
X266414595Y-124242104D01*
X266424138Y-124246057D01*
X266899279Y-124563536D01*
X267303353Y-124967610D01*
X267544298Y-125328210D01*
X267620833Y-125442753D01*
X267839516Y-125970701D01*
X267950999Y-126531165D01*
X267950999Y-127102615D01*
X267839516Y-127663079D01*
X267839515Y-127663081D01*
X267620832Y-128191029D01*
X267303353Y-128666170D01*
X266899279Y-129070244D01*
X266424138Y-129387723D01*
X266424137Y-129387724D01*
X266424136Y-129387724D01*
X265896188Y-129606407D01*
X265335724Y-129717890D01*
X264764274Y-129717890D01*
X264203810Y-129606407D01*
X263675862Y-129387724D01*
X263675861Y-129387724D01*
X263675860Y-129387723D01*
X263200719Y-129070244D01*
X262796645Y-128666170D01*
X262479166Y-128191029D01*
X262260483Y-127663081D01*
X262260482Y-127663079D01*
X262148999Y-127102615D01*
X262148999Y-126531165D01*
X262260482Y-125970701D01*
X262479165Y-125442753D01*
X262555700Y-125328210D01*
X262796645Y-124967610D01*
X263200719Y-124563536D01*
X263675860Y-124246057D01*
X263685403Y-124242104D01*
X264203810Y-124027373D01*
X264764274Y-123915890D01*
X265335724Y-123915890D01*
X265896188Y-124027373D01*
G37*
G36*
X247063625Y-129179899D02*
G01*
X244736625Y-129179899D01*
X244736625Y-128452899D01*
X247063625Y-128452899D01*
X247063625Y-129179899D01*
G37*
G36*
X241863625Y-129179899D02*
G01*
X239536625Y-129179899D01*
X239536625Y-128452899D01*
X241863625Y-128452899D01*
X241863625Y-129179899D01*
G37*
G36*
X247063625Y-127909899D02*
G01*
X244736625Y-127909899D01*
X244736625Y-127182899D01*
X247063625Y-127182899D01*
X247063625Y-127909899D01*
G37*
G36*
X241863625Y-127909899D02*
G01*
X239536625Y-127909899D01*
X239536625Y-127182899D01*
X241863625Y-127182899D01*
X241863625Y-127909899D01*
G37*
G36*
X248839624Y-126228445D02*
G01*
X248877120Y-126239820D01*
X248911679Y-126258292D01*
X248941972Y-126283153D01*
X248966833Y-126313446D01*
X248985305Y-126348005D01*
X248996680Y-126385501D01*
X249001125Y-126430638D01*
X249001125Y-127069362D01*
X248996680Y-127114499D01*
X248985305Y-127151995D01*
X248966833Y-127186554D01*
X248941972Y-127216847D01*
X248911679Y-127241708D01*
X248877120Y-127260180D01*
X248839624Y-127271555D01*
X248794487Y-127276000D01*
X248055763Y-127276000D01*
X248010626Y-127271555D01*
X247973130Y-127260180D01*
X247938571Y-127241708D01*
X247908278Y-127216847D01*
X247883417Y-127186554D01*
X247864945Y-127151995D01*
X247853570Y-127114499D01*
X247849125Y-127069362D01*
X247849125Y-126430638D01*
X247853570Y-126385501D01*
X247864945Y-126348005D01*
X247883417Y-126313446D01*
X247908278Y-126283153D01*
X247938571Y-126258292D01*
X247973130Y-126239820D01*
X248010626Y-126228445D01*
X248055763Y-126224000D01*
X248794487Y-126224000D01*
X248839624Y-126228445D01*
G37*
G36*
X250589624Y-126228445D02*
G01*
X250627120Y-126239820D01*
X250661679Y-126258292D01*
X250691972Y-126283153D01*
X250716833Y-126313446D01*
X250735305Y-126348005D01*
X250746680Y-126385501D01*
X250751125Y-126430638D01*
X250751125Y-127069362D01*
X250746680Y-127114499D01*
X250735305Y-127151995D01*
X250716833Y-127186554D01*
X250691972Y-127216847D01*
X250661679Y-127241708D01*
X250627120Y-127260180D01*
X250589624Y-127271555D01*
X250544487Y-127276000D01*
X249805763Y-127276000D01*
X249760626Y-127271555D01*
X249723130Y-127260180D01*
X249688571Y-127241708D01*
X249658278Y-127216847D01*
X249633417Y-127186554D01*
X249614945Y-127151995D01*
X249603570Y-127114499D01*
X249599125Y-127069362D01*
X249599125Y-126430638D01*
X249603570Y-126385501D01*
X249614945Y-126348005D01*
X249633417Y-126313446D01*
X249658278Y-126283153D01*
X249688571Y-126258292D01*
X249723130Y-126239820D01*
X249760626Y-126228445D01*
X249805763Y-126224000D01*
X250544487Y-126224000D01*
X250589624Y-126228445D01*
G37*
G36*
X238765125Y-126236899D02*
G01*
X236835125Y-126236899D01*
X236835125Y-124509899D01*
X238765125Y-124509899D01*
X238765125Y-126236899D01*
G37*
G36*
X247012425Y-126211199D02*
G01*
X245230525Y-126211199D01*
X245230525Y-125501599D01*
X247012425Y-125501599D01*
X247012425Y-126211199D01*
G37*
G36*
X241369725Y-126211199D02*
G01*
X239587825Y-126211199D01*
X239587825Y-125501599D01*
X241369725Y-125501599D01*
X241369725Y-126211199D01*
G37*
G36*
X203182228Y-125151666D02*
G01*
X203247245Y-125164599D01*
X203339113Y-125202652D01*
X203421792Y-125257896D01*
X203492104Y-125328208D01*
X203547348Y-125410887D01*
X203585401Y-125502755D01*
X203604800Y-125600281D01*
X203604800Y-125699719D01*
X203585401Y-125797245D01*
X203547348Y-125889113D01*
X203492104Y-125971792D01*
X203421792Y-126042104D01*
X203339113Y-126097348D01*
X203247245Y-126135401D01*
X203182228Y-126148334D01*
X203149720Y-126154800D01*
X203050280Y-126154800D01*
X203017772Y-126148334D01*
X202952755Y-126135401D01*
X202860887Y-126097348D01*
X202778208Y-126042104D01*
X202707896Y-125971792D01*
X202652652Y-125889113D01*
X202614599Y-125797245D01*
X202595200Y-125699719D01*
X202595200Y-125600281D01*
X202614599Y-125502755D01*
X202652652Y-125410887D01*
X202707896Y-125328208D01*
X202778208Y-125257896D01*
X202860887Y-125202652D01*
X202952755Y-125164599D01*
X203017772Y-125151666D01*
X203050280Y-125145200D01*
X203149720Y-125145200D01*
X203182228Y-125151666D01*
G37*
G36*
X204982228Y-125151666D02*
G01*
X205047245Y-125164599D01*
X205139113Y-125202652D01*
X205221792Y-125257896D01*
X205292104Y-125328208D01*
X205347348Y-125410887D01*
X205385401Y-125502755D01*
X205404800Y-125600281D01*
X205404800Y-125699719D01*
X205385401Y-125797245D01*
X205347348Y-125889113D01*
X205292104Y-125971792D01*
X205221792Y-126042104D01*
X205139113Y-126097348D01*
X205047245Y-126135401D01*
X204982228Y-126148334D01*
X204949720Y-126154800D01*
X204850280Y-126154800D01*
X204817772Y-126148334D01*
X204752755Y-126135401D01*
X204660887Y-126097348D01*
X204578208Y-126042104D01*
X204507896Y-125971792D01*
X204452652Y-125889113D01*
X204414599Y-125797245D01*
X204395200Y-125699719D01*
X204395200Y-125600281D01*
X204414599Y-125502755D01*
X204452652Y-125410887D01*
X204507896Y-125328208D01*
X204578208Y-125257896D01*
X204660887Y-125202652D01*
X204752755Y-125164599D01*
X204817772Y-125151666D01*
X204850280Y-125145200D01*
X204949720Y-125145200D01*
X204982228Y-125151666D01*
G37*
G36*
X250465000Y-125636899D02*
G01*
X248535000Y-125636899D01*
X248535000Y-123909899D01*
X250465000Y-123909899D01*
X250465000Y-125636899D01*
G37*
G36*
X204082228Y-124251666D02*
G01*
X204147245Y-124264599D01*
X204239113Y-124302652D01*
X204321792Y-124357896D01*
X204392104Y-124428208D01*
X204447348Y-124510887D01*
X204485401Y-124602755D01*
X204504800Y-124700281D01*
X204504800Y-124799719D01*
X204485401Y-124897245D01*
X204447348Y-124989113D01*
X204392104Y-125071792D01*
X204321792Y-125142104D01*
X204239113Y-125197348D01*
X204147245Y-125235401D01*
X204082228Y-125248334D01*
X204049720Y-125254800D01*
X203950280Y-125254800D01*
X203917772Y-125248334D01*
X203852755Y-125235401D01*
X203760887Y-125197348D01*
X203678208Y-125142104D01*
X203607896Y-125071792D01*
X203552652Y-124989113D01*
X203514599Y-124897245D01*
X203495200Y-124799719D01*
X203495200Y-124700281D01*
X203514599Y-124602755D01*
X203552652Y-124510887D01*
X203607896Y-124428208D01*
X203678208Y-124357896D01*
X203760887Y-124302652D01*
X203852755Y-124264599D01*
X203917772Y-124251666D01*
X203950280Y-124245200D01*
X204049720Y-124245200D01*
X204082228Y-124251666D01*
G37*
G36*
X253588674Y-123928465D02*
G01*
X253626367Y-123939899D01*
X253661103Y-123958466D01*
X253691548Y-123983452D01*
X253716534Y-124013897D01*
X253735101Y-124048633D01*
X253746535Y-124086326D01*
X253751000Y-124131661D01*
X253751000Y-124968339D01*
X253746535Y-125013674D01*
X253735101Y-125051367D01*
X253716534Y-125086103D01*
X253691548Y-125116548D01*
X253661103Y-125141534D01*
X253626367Y-125160101D01*
X253588674Y-125171535D01*
X253543339Y-125176000D01*
X252456661Y-125176000D01*
X252411326Y-125171535D01*
X252373633Y-125160101D01*
X252338897Y-125141534D01*
X252308452Y-125116548D01*
X252283466Y-125086103D01*
X252264899Y-125051367D01*
X252253465Y-125013674D01*
X252249000Y-124968339D01*
X252249000Y-124131661D01*
X252253465Y-124086326D01*
X252264899Y-124048633D01*
X252283466Y-124013897D01*
X252308452Y-123983452D01*
X252338897Y-123958466D01*
X252373633Y-123939899D01*
X252411326Y-123928465D01*
X252456661Y-123924000D01*
X253543339Y-123924000D01*
X253588674Y-123928465D01*
G37*
G36*
X247012425Y-124941199D02*
G01*
X245230525Y-124941199D01*
X245230525Y-124231599D01*
X247012425Y-124231599D01*
X247012425Y-124941199D01*
G37*
G36*
X241369725Y-124941199D02*
G01*
X239587825Y-124941199D01*
X239587825Y-124231599D01*
X241369725Y-124231599D01*
X241369725Y-124941199D01*
G37*
G36*
X204982228Y-123351666D02*
G01*
X205047245Y-123364599D01*
X205139113Y-123402652D01*
X205221792Y-123457896D01*
X205292104Y-123528208D01*
X205347348Y-123610887D01*
X205385401Y-123702755D01*
X205385401Y-123702757D01*
X205404800Y-123800280D01*
X205404800Y-123899720D01*
X205399970Y-123924000D01*
X205385401Y-123997245D01*
X205347348Y-124089113D01*
X205292104Y-124171792D01*
X205221792Y-124242104D01*
X205139113Y-124297348D01*
X205047245Y-124335401D01*
X204982228Y-124348334D01*
X204949720Y-124354800D01*
X204850280Y-124354800D01*
X204817772Y-124348334D01*
X204752755Y-124335401D01*
X204660887Y-124297348D01*
X204578208Y-124242104D01*
X204507896Y-124171792D01*
X204452652Y-124089113D01*
X204414599Y-123997245D01*
X204400030Y-123924000D01*
X204395200Y-123899720D01*
X204395200Y-123800280D01*
X204414599Y-123702757D01*
X204414599Y-123702755D01*
X204452652Y-123610887D01*
X204507896Y-123528208D01*
X204578208Y-123457896D01*
X204660887Y-123402652D01*
X204752755Y-123364599D01*
X204817772Y-123351666D01*
X204850280Y-123345200D01*
X204949720Y-123345200D01*
X204982228Y-123351666D01*
G37*
G36*
X203182228Y-123351666D02*
G01*
X203247245Y-123364599D01*
X203339113Y-123402652D01*
X203421792Y-123457896D01*
X203492104Y-123528208D01*
X203547348Y-123610887D01*
X203585401Y-123702755D01*
X203585401Y-123702757D01*
X203604800Y-123800280D01*
X203604800Y-123899720D01*
X203599970Y-123924000D01*
X203585401Y-123997245D01*
X203547348Y-124089113D01*
X203492104Y-124171792D01*
X203421792Y-124242104D01*
X203339113Y-124297348D01*
X203247245Y-124335401D01*
X203182228Y-124348334D01*
X203149720Y-124354800D01*
X203050280Y-124354800D01*
X203017772Y-124348334D01*
X202952755Y-124335401D01*
X202860887Y-124297348D01*
X202778208Y-124242104D01*
X202707896Y-124171792D01*
X202652652Y-124089113D01*
X202614599Y-123997245D01*
X202600030Y-123924000D01*
X202595200Y-123899720D01*
X202595200Y-123800280D01*
X202614599Y-123702757D01*
X202614599Y-123702755D01*
X202652652Y-123610887D01*
X202707896Y-123528208D01*
X202778208Y-123457896D01*
X202860887Y-123402652D01*
X202952755Y-123364599D01*
X203017772Y-123351666D01*
X203050280Y-123345200D01*
X203149720Y-123345200D01*
X203182228Y-123351666D01*
G37*
G36*
X247012425Y-123671199D02*
G01*
X245230525Y-123671199D01*
X245230525Y-122961599D01*
X247012425Y-122961599D01*
X247012425Y-123671199D01*
G37*
G36*
X241369725Y-123671199D02*
G01*
X239587825Y-123671199D01*
X239587825Y-122961599D01*
X241369725Y-122961599D01*
X241369725Y-123671199D01*
G37*
G36*
X238765125Y-123392899D02*
G01*
X236835125Y-123392899D01*
X236835125Y-121665899D01*
X238765125Y-121665899D01*
X238765125Y-123392899D01*
G37*
G36*
X253588674Y-121878465D02*
G01*
X253626367Y-121889899D01*
X253661103Y-121908466D01*
X253691548Y-121933452D01*
X253716534Y-121963897D01*
X253735101Y-121998633D01*
X253746535Y-122036326D01*
X253751000Y-122081661D01*
X253751000Y-122918339D01*
X253746535Y-122963674D01*
X253735101Y-123001367D01*
X253716534Y-123036103D01*
X253691548Y-123066548D01*
X253661103Y-123091534D01*
X253626367Y-123110101D01*
X253588674Y-123121535D01*
X253543339Y-123126000D01*
X252456661Y-123126000D01*
X252411326Y-123121535D01*
X252373633Y-123110101D01*
X252338897Y-123091534D01*
X252308452Y-123066548D01*
X252283466Y-123036103D01*
X252264899Y-123001367D01*
X252253465Y-122963674D01*
X252249000Y-122918339D01*
X252249000Y-122081661D01*
X252253465Y-122036326D01*
X252264899Y-121998633D01*
X252283466Y-121963897D01*
X252308452Y-121933452D01*
X252338897Y-121908466D01*
X252373633Y-121889899D01*
X252411326Y-121878465D01*
X252456661Y-121874000D01*
X253543339Y-121874000D01*
X253588674Y-121878465D01*
G37*
G36*
X250465000Y-122792899D02*
G01*
X248535000Y-122792899D01*
X248535000Y-121065899D01*
X250465000Y-121065899D01*
X250465000Y-122792899D01*
G37*
G36*
X247012425Y-122401199D02*
G01*
X245230525Y-122401199D01*
X245230525Y-121691599D01*
X247012425Y-121691599D01*
X247012425Y-122401199D01*
G37*
G36*
X241369725Y-122401199D02*
G01*
X239587825Y-122401199D01*
X239587825Y-121691599D01*
X241369725Y-121691599D01*
X241369725Y-122401199D01*
G37*
M02*
