G04 #@! TF.GenerationSoftware,KiCad,Pcbnew,(5.1.5)-3*
G04 #@! TF.CreationDate,2020-05-18T23:19:19-04:00*
G04 #@! TF.ProjectId,CPU,4350552e-6b69-4636-9164-5f7063625858,rev?*
G04 #@! TF.SameCoordinates,Original*
G04 #@! TF.FileFunction,Profile,NP*
%FSLAX46Y46*%
G04 Gerber Fmt 4.6, Leading zero omitted, Abs format (unit mm)*
G04 Created by KiCad (PCBNEW (5.1.5)-3) date 2020-05-18 23:19:19*
%MOMM*%
%LPD*%
G04 APERTURE LIST*
%ADD10C,0.200000*%
G04 APERTURE END LIST*
D10*
X68400000Y-66500000D02*
G75*
G02X64400000Y-62500000I0J4000000D01*
G01*
X64400000Y-107000000D02*
G75*
G02X68400000Y-103000000I4000000J0D01*
G01*
X64400000Y-107000000D02*
X64400000Y-111518289D01*
X68400000Y-66500000D02*
X74400000Y-66500000D01*
X74400000Y-103000000D02*
X74400000Y-66500000D01*
X68400000Y-103000000D02*
X74400000Y-103000000D01*
X52244649Y-123177944D02*
X52244646Y-123883125D01*
X46898289Y-123190046D02*
X46898285Y-123882453D01*
X52244647Y-123883125D02*
G75*
G02X46898285Y-123882453I-2673181J2669D01*
G01*
X185538834Y-68822551D02*
G75*
G03X185538834Y-68822551I-1224946J0D01*
G01*
X38469241Y-125524140D02*
G75*
G03X38469241Y-125524140I-1224951J0D01*
G01*
X181466748Y-82983385D02*
X187478540Y-82983385D01*
X167126117Y-130830029D02*
X167126117Y-129330029D01*
X168341069Y-46546121D02*
X156126882Y-46546121D01*
X50668263Y-45546121D02*
X50668263Y-46046121D01*
X141229982Y-46046121D02*
X131597110Y-46046121D01*
X141369330Y-130830029D02*
X167126117Y-130830029D01*
X187482521Y-125838725D02*
G75*
G02X182482498Y-130830029I-5000023J8727D01*
G01*
X78130974Y-46046121D02*
X78130974Y-45546121D01*
X102931438Y-46046121D02*
G75*
G02X97510304Y-46046121I-2710567J0D01*
G01*
X46898289Y-123190046D02*
G75*
G02X52244649Y-123177944I2673180J6051D01*
G01*
X64400000Y-62500000D02*
X64400000Y-58000000D01*
X87083876Y-130830029D02*
X131015605Y-130830029D01*
X183983318Y-73559215D02*
G75*
G03X183983318Y-73559215I-1224953J0D01*
G01*
X167126116Y-129330029D02*
G75*
G02X172548670Y-129330029I2711277J0D01*
G01*
X131597110Y-46046121D02*
X131597110Y-45546121D01*
X135929376Y-130330029D02*
X135929376Y-129330029D01*
X97510304Y-46046121D02*
X97510304Y-45546121D01*
X87083876Y-130330029D02*
X87083876Y-130830029D01*
X135929376Y-129330029D02*
G75*
G02X141369330Y-129330029I2719977J0D01*
G01*
X47519831Y-58000498D02*
X47519831Y-111518787D01*
X172550041Y-65926567D02*
G75*
G03X172550041Y-65926567I-2834227J0D01*
G01*
X43020813Y-125524141D02*
G75*
G03X43020813Y-125524141I-1224952J0D01*
G01*
X156126882Y-46546121D02*
X156126882Y-45546121D01*
X182483907Y-45546096D02*
G75*
G02X187478540Y-50540729I0J-4994633D01*
G01*
X35598495Y-45546121D02*
X30420000Y-50727572D01*
X45247085Y-45546121D02*
X35598495Y-45546121D01*
X141229982Y-45546121D02*
X141229982Y-46046121D01*
X30420000Y-125654611D02*
X30420000Y-50727572D01*
X184123315Y-78379762D02*
G75*
G03X184123315Y-78379762I-1224949J0D01*
G01*
X181466748Y-92772064D02*
X181466748Y-82983385D01*
X50668263Y-46046121D02*
G75*
G02X45247085Y-46046121I-2710589J0D01*
G01*
X77720563Y-130833102D02*
X35598496Y-130833102D01*
X102931437Y-45546121D02*
X102931437Y-46046121D01*
X47519831Y-58000498D02*
X64400000Y-58000000D01*
X187482526Y-125835155D02*
X187482526Y-92772064D01*
X187482526Y-92772064D02*
X181466748Y-92772064D01*
X172548670Y-130830029D02*
X182482498Y-130830029D01*
X50783461Y-128366098D02*
G75*
G03X50783461Y-128366098I-1224948J0D01*
G01*
X172548670Y-129330029D02*
X172548670Y-130830029D01*
X64400000Y-111518289D02*
X47519831Y-111518787D01*
X101220871Y-50498121D02*
G75*
G03X101220871Y-50498121I-1000000J0D01*
G01*
X168341069Y-45546098D02*
X168341069Y-46546121D01*
X141369330Y-129330029D02*
X141369330Y-130830029D01*
X131015605Y-130830029D02*
X131015605Y-130330029D01*
X30420000Y-125654611D02*
X35598496Y-130833102D01*
X45247085Y-46046121D02*
X45247085Y-45546121D01*
X78130974Y-45546121D02*
X50668263Y-45546121D01*
X87665858Y-46046121D02*
X78130974Y-46046121D01*
X87665858Y-45546121D02*
X87665858Y-46046121D01*
X182482413Y-45546098D02*
X168341069Y-45546098D01*
X77720563Y-130330029D02*
X87083876Y-130330029D01*
X97510304Y-45546121D02*
X87665858Y-45546121D01*
X131597110Y-45546121D02*
X102931437Y-45546121D01*
X156126882Y-45546121D02*
X141229982Y-45546121D01*
X187478540Y-82983385D02*
X187478540Y-50540729D01*
X131015605Y-130330029D02*
X135929376Y-130330029D01*
X77720563Y-130833102D02*
X77720563Y-130330029D01*
M02*
