G04 #@! TF.GenerationSoftware,KiCad,Pcbnew,(5.1.5)-3*
G04 #@! TF.CreationDate,2020-05-18T23:19:19-04:00*
G04 #@! TF.ProjectId,CPU,4350552e-6b69-4636-9164-5f7063625858,rev?*
G04 #@! TF.SameCoordinates,Original*
G04 #@! TF.FileFunction,Paste,Bot*
G04 #@! TF.FilePolarity,Positive*
%FSLAX46Y46*%
G04 Gerber Fmt 4.6, Leading zero omitted, Abs format (unit mm)*
G04 Created by KiCad (PCBNEW (5.1.5)-3) date 2020-05-18 23:19:19*
%MOMM*%
%LPD*%
G04 APERTURE LIST*
%ADD10R,3.150000X1.000000*%
%ADD11R,3.200000X0.400000*%
%ADD12C,0.100000*%
%ADD13R,0.800000X0.800000*%
%ADD14R,1.100000X2.000000*%
%ADD15R,0.600000X1.400000*%
%ADD16R,1.000000X1.400000*%
%ADD17R,1.000000X2.580000*%
%ADD18R,0.700000X1.500000*%
%ADD19R,1.000000X0.800000*%
%ADD20R,1.524000X3.048000*%
%ADD21R,1.600000X0.550000*%
%ADD22R,0.550000X1.600000*%
G04 APERTURE END LIST*
D10*
X141970000Y-67970000D03*
X137230000Y-67970000D03*
X141970000Y-70510000D03*
X137230000Y-70510000D03*
X141970000Y-73050000D03*
X137230000Y-73050000D03*
X141970000Y-75590000D03*
X137230000Y-75590000D03*
X141970000Y-78130000D03*
X137230000Y-78130000D03*
X141970000Y-80670000D03*
X137230000Y-80670000D03*
X141970000Y-83210000D03*
X137230000Y-83210000D03*
X141970000Y-85750000D03*
X137230000Y-85750000D03*
X141970000Y-88290000D03*
X137230000Y-88290000D03*
X141970000Y-90830000D03*
X137230000Y-90830000D03*
X141970000Y-93370000D03*
X137230000Y-93370000D03*
X141970000Y-95910000D03*
X137230000Y-95910000D03*
X141970000Y-98450000D03*
X137230000Y-98450000D03*
X141970000Y-100990000D03*
X137230000Y-100990000D03*
X141970000Y-103530000D03*
X137230000Y-103530000D03*
X141970000Y-106070000D03*
X137230000Y-106070000D03*
X141970000Y-108610000D03*
X137230000Y-108610000D03*
X141970000Y-111150000D03*
X137230000Y-111150000D03*
X141970000Y-113690000D03*
X137230000Y-113690000D03*
X141970000Y-116230000D03*
X137230000Y-116230000D03*
D11*
X179070000Y-103300000D03*
X179070000Y-104500000D03*
X179070000Y-105700000D03*
D12*
G36*
X157064703Y-115295722D02*
G01*
X157079264Y-115297882D01*
X157093543Y-115301459D01*
X157107403Y-115306418D01*
X157120710Y-115312712D01*
X157133336Y-115320280D01*
X157145159Y-115329048D01*
X157156066Y-115338934D01*
X157165952Y-115349841D01*
X157174720Y-115361664D01*
X157182288Y-115374290D01*
X157188582Y-115387597D01*
X157193541Y-115401457D01*
X157197118Y-115415736D01*
X157199278Y-115430297D01*
X157200000Y-115445000D01*
X157200000Y-115745000D01*
X157199278Y-115759703D01*
X157197118Y-115774264D01*
X157193541Y-115788543D01*
X157188582Y-115802403D01*
X157182288Y-115815710D01*
X157174720Y-115828336D01*
X157165952Y-115840159D01*
X157156066Y-115851066D01*
X157145159Y-115860952D01*
X157133336Y-115869720D01*
X157120710Y-115877288D01*
X157107403Y-115883582D01*
X157093543Y-115888541D01*
X157079264Y-115892118D01*
X157064703Y-115894278D01*
X157050000Y-115895000D01*
X155600000Y-115895000D01*
X155585297Y-115894278D01*
X155570736Y-115892118D01*
X155556457Y-115888541D01*
X155542597Y-115883582D01*
X155529290Y-115877288D01*
X155516664Y-115869720D01*
X155504841Y-115860952D01*
X155493934Y-115851066D01*
X155484048Y-115840159D01*
X155475280Y-115828336D01*
X155467712Y-115815710D01*
X155461418Y-115802403D01*
X155456459Y-115788543D01*
X155452882Y-115774264D01*
X155450722Y-115759703D01*
X155450000Y-115745000D01*
X155450000Y-115445000D01*
X155450722Y-115430297D01*
X155452882Y-115415736D01*
X155456459Y-115401457D01*
X155461418Y-115387597D01*
X155467712Y-115374290D01*
X155475280Y-115361664D01*
X155484048Y-115349841D01*
X155493934Y-115338934D01*
X155504841Y-115329048D01*
X155516664Y-115320280D01*
X155529290Y-115312712D01*
X155542597Y-115306418D01*
X155556457Y-115301459D01*
X155570736Y-115297882D01*
X155585297Y-115295722D01*
X155600000Y-115295000D01*
X157050000Y-115295000D01*
X157064703Y-115295722D01*
G37*
G36*
X157064703Y-116565722D02*
G01*
X157079264Y-116567882D01*
X157093543Y-116571459D01*
X157107403Y-116576418D01*
X157120710Y-116582712D01*
X157133336Y-116590280D01*
X157145159Y-116599048D01*
X157156066Y-116608934D01*
X157165952Y-116619841D01*
X157174720Y-116631664D01*
X157182288Y-116644290D01*
X157188582Y-116657597D01*
X157193541Y-116671457D01*
X157197118Y-116685736D01*
X157199278Y-116700297D01*
X157200000Y-116715000D01*
X157200000Y-117015000D01*
X157199278Y-117029703D01*
X157197118Y-117044264D01*
X157193541Y-117058543D01*
X157188582Y-117072403D01*
X157182288Y-117085710D01*
X157174720Y-117098336D01*
X157165952Y-117110159D01*
X157156066Y-117121066D01*
X157145159Y-117130952D01*
X157133336Y-117139720D01*
X157120710Y-117147288D01*
X157107403Y-117153582D01*
X157093543Y-117158541D01*
X157079264Y-117162118D01*
X157064703Y-117164278D01*
X157050000Y-117165000D01*
X155600000Y-117165000D01*
X155585297Y-117164278D01*
X155570736Y-117162118D01*
X155556457Y-117158541D01*
X155542597Y-117153582D01*
X155529290Y-117147288D01*
X155516664Y-117139720D01*
X155504841Y-117130952D01*
X155493934Y-117121066D01*
X155484048Y-117110159D01*
X155475280Y-117098336D01*
X155467712Y-117085710D01*
X155461418Y-117072403D01*
X155456459Y-117058543D01*
X155452882Y-117044264D01*
X155450722Y-117029703D01*
X155450000Y-117015000D01*
X155450000Y-116715000D01*
X155450722Y-116700297D01*
X155452882Y-116685736D01*
X155456459Y-116671457D01*
X155461418Y-116657597D01*
X155467712Y-116644290D01*
X155475280Y-116631664D01*
X155484048Y-116619841D01*
X155493934Y-116608934D01*
X155504841Y-116599048D01*
X155516664Y-116590280D01*
X155529290Y-116582712D01*
X155542597Y-116576418D01*
X155556457Y-116571459D01*
X155570736Y-116567882D01*
X155585297Y-116565722D01*
X155600000Y-116565000D01*
X157050000Y-116565000D01*
X157064703Y-116565722D01*
G37*
G36*
X157064703Y-117835722D02*
G01*
X157079264Y-117837882D01*
X157093543Y-117841459D01*
X157107403Y-117846418D01*
X157120710Y-117852712D01*
X157133336Y-117860280D01*
X157145159Y-117869048D01*
X157156066Y-117878934D01*
X157165952Y-117889841D01*
X157174720Y-117901664D01*
X157182288Y-117914290D01*
X157188582Y-117927597D01*
X157193541Y-117941457D01*
X157197118Y-117955736D01*
X157199278Y-117970297D01*
X157200000Y-117985000D01*
X157200000Y-118285000D01*
X157199278Y-118299703D01*
X157197118Y-118314264D01*
X157193541Y-118328543D01*
X157188582Y-118342403D01*
X157182288Y-118355710D01*
X157174720Y-118368336D01*
X157165952Y-118380159D01*
X157156066Y-118391066D01*
X157145159Y-118400952D01*
X157133336Y-118409720D01*
X157120710Y-118417288D01*
X157107403Y-118423582D01*
X157093543Y-118428541D01*
X157079264Y-118432118D01*
X157064703Y-118434278D01*
X157050000Y-118435000D01*
X155600000Y-118435000D01*
X155585297Y-118434278D01*
X155570736Y-118432118D01*
X155556457Y-118428541D01*
X155542597Y-118423582D01*
X155529290Y-118417288D01*
X155516664Y-118409720D01*
X155504841Y-118400952D01*
X155493934Y-118391066D01*
X155484048Y-118380159D01*
X155475280Y-118368336D01*
X155467712Y-118355710D01*
X155461418Y-118342403D01*
X155456459Y-118328543D01*
X155452882Y-118314264D01*
X155450722Y-118299703D01*
X155450000Y-118285000D01*
X155450000Y-117985000D01*
X155450722Y-117970297D01*
X155452882Y-117955736D01*
X155456459Y-117941457D01*
X155461418Y-117927597D01*
X155467712Y-117914290D01*
X155475280Y-117901664D01*
X155484048Y-117889841D01*
X155493934Y-117878934D01*
X155504841Y-117869048D01*
X155516664Y-117860280D01*
X155529290Y-117852712D01*
X155542597Y-117846418D01*
X155556457Y-117841459D01*
X155570736Y-117837882D01*
X155585297Y-117835722D01*
X155600000Y-117835000D01*
X157050000Y-117835000D01*
X157064703Y-117835722D01*
G37*
G36*
X157064703Y-119105722D02*
G01*
X157079264Y-119107882D01*
X157093543Y-119111459D01*
X157107403Y-119116418D01*
X157120710Y-119122712D01*
X157133336Y-119130280D01*
X157145159Y-119139048D01*
X157156066Y-119148934D01*
X157165952Y-119159841D01*
X157174720Y-119171664D01*
X157182288Y-119184290D01*
X157188582Y-119197597D01*
X157193541Y-119211457D01*
X157197118Y-119225736D01*
X157199278Y-119240297D01*
X157200000Y-119255000D01*
X157200000Y-119555000D01*
X157199278Y-119569703D01*
X157197118Y-119584264D01*
X157193541Y-119598543D01*
X157188582Y-119612403D01*
X157182288Y-119625710D01*
X157174720Y-119638336D01*
X157165952Y-119650159D01*
X157156066Y-119661066D01*
X157145159Y-119670952D01*
X157133336Y-119679720D01*
X157120710Y-119687288D01*
X157107403Y-119693582D01*
X157093543Y-119698541D01*
X157079264Y-119702118D01*
X157064703Y-119704278D01*
X157050000Y-119705000D01*
X155600000Y-119705000D01*
X155585297Y-119704278D01*
X155570736Y-119702118D01*
X155556457Y-119698541D01*
X155542597Y-119693582D01*
X155529290Y-119687288D01*
X155516664Y-119679720D01*
X155504841Y-119670952D01*
X155493934Y-119661066D01*
X155484048Y-119650159D01*
X155475280Y-119638336D01*
X155467712Y-119625710D01*
X155461418Y-119612403D01*
X155456459Y-119598543D01*
X155452882Y-119584264D01*
X155450722Y-119569703D01*
X155450000Y-119555000D01*
X155450000Y-119255000D01*
X155450722Y-119240297D01*
X155452882Y-119225736D01*
X155456459Y-119211457D01*
X155461418Y-119197597D01*
X155467712Y-119184290D01*
X155475280Y-119171664D01*
X155484048Y-119159841D01*
X155493934Y-119148934D01*
X155504841Y-119139048D01*
X155516664Y-119130280D01*
X155529290Y-119122712D01*
X155542597Y-119116418D01*
X155556457Y-119111459D01*
X155570736Y-119107882D01*
X155585297Y-119105722D01*
X155600000Y-119105000D01*
X157050000Y-119105000D01*
X157064703Y-119105722D01*
G37*
G36*
X151914703Y-119105722D02*
G01*
X151929264Y-119107882D01*
X151943543Y-119111459D01*
X151957403Y-119116418D01*
X151970710Y-119122712D01*
X151983336Y-119130280D01*
X151995159Y-119139048D01*
X152006066Y-119148934D01*
X152015952Y-119159841D01*
X152024720Y-119171664D01*
X152032288Y-119184290D01*
X152038582Y-119197597D01*
X152043541Y-119211457D01*
X152047118Y-119225736D01*
X152049278Y-119240297D01*
X152050000Y-119255000D01*
X152050000Y-119555000D01*
X152049278Y-119569703D01*
X152047118Y-119584264D01*
X152043541Y-119598543D01*
X152038582Y-119612403D01*
X152032288Y-119625710D01*
X152024720Y-119638336D01*
X152015952Y-119650159D01*
X152006066Y-119661066D01*
X151995159Y-119670952D01*
X151983336Y-119679720D01*
X151970710Y-119687288D01*
X151957403Y-119693582D01*
X151943543Y-119698541D01*
X151929264Y-119702118D01*
X151914703Y-119704278D01*
X151900000Y-119705000D01*
X150450000Y-119705000D01*
X150435297Y-119704278D01*
X150420736Y-119702118D01*
X150406457Y-119698541D01*
X150392597Y-119693582D01*
X150379290Y-119687288D01*
X150366664Y-119679720D01*
X150354841Y-119670952D01*
X150343934Y-119661066D01*
X150334048Y-119650159D01*
X150325280Y-119638336D01*
X150317712Y-119625710D01*
X150311418Y-119612403D01*
X150306459Y-119598543D01*
X150302882Y-119584264D01*
X150300722Y-119569703D01*
X150300000Y-119555000D01*
X150300000Y-119255000D01*
X150300722Y-119240297D01*
X150302882Y-119225736D01*
X150306459Y-119211457D01*
X150311418Y-119197597D01*
X150317712Y-119184290D01*
X150325280Y-119171664D01*
X150334048Y-119159841D01*
X150343934Y-119148934D01*
X150354841Y-119139048D01*
X150366664Y-119130280D01*
X150379290Y-119122712D01*
X150392597Y-119116418D01*
X150406457Y-119111459D01*
X150420736Y-119107882D01*
X150435297Y-119105722D01*
X150450000Y-119105000D01*
X151900000Y-119105000D01*
X151914703Y-119105722D01*
G37*
G36*
X151914703Y-117835722D02*
G01*
X151929264Y-117837882D01*
X151943543Y-117841459D01*
X151957403Y-117846418D01*
X151970710Y-117852712D01*
X151983336Y-117860280D01*
X151995159Y-117869048D01*
X152006066Y-117878934D01*
X152015952Y-117889841D01*
X152024720Y-117901664D01*
X152032288Y-117914290D01*
X152038582Y-117927597D01*
X152043541Y-117941457D01*
X152047118Y-117955736D01*
X152049278Y-117970297D01*
X152050000Y-117985000D01*
X152050000Y-118285000D01*
X152049278Y-118299703D01*
X152047118Y-118314264D01*
X152043541Y-118328543D01*
X152038582Y-118342403D01*
X152032288Y-118355710D01*
X152024720Y-118368336D01*
X152015952Y-118380159D01*
X152006066Y-118391066D01*
X151995159Y-118400952D01*
X151983336Y-118409720D01*
X151970710Y-118417288D01*
X151957403Y-118423582D01*
X151943543Y-118428541D01*
X151929264Y-118432118D01*
X151914703Y-118434278D01*
X151900000Y-118435000D01*
X150450000Y-118435000D01*
X150435297Y-118434278D01*
X150420736Y-118432118D01*
X150406457Y-118428541D01*
X150392597Y-118423582D01*
X150379290Y-118417288D01*
X150366664Y-118409720D01*
X150354841Y-118400952D01*
X150343934Y-118391066D01*
X150334048Y-118380159D01*
X150325280Y-118368336D01*
X150317712Y-118355710D01*
X150311418Y-118342403D01*
X150306459Y-118328543D01*
X150302882Y-118314264D01*
X150300722Y-118299703D01*
X150300000Y-118285000D01*
X150300000Y-117985000D01*
X150300722Y-117970297D01*
X150302882Y-117955736D01*
X150306459Y-117941457D01*
X150311418Y-117927597D01*
X150317712Y-117914290D01*
X150325280Y-117901664D01*
X150334048Y-117889841D01*
X150343934Y-117878934D01*
X150354841Y-117869048D01*
X150366664Y-117860280D01*
X150379290Y-117852712D01*
X150392597Y-117846418D01*
X150406457Y-117841459D01*
X150420736Y-117837882D01*
X150435297Y-117835722D01*
X150450000Y-117835000D01*
X151900000Y-117835000D01*
X151914703Y-117835722D01*
G37*
G36*
X151914703Y-116565722D02*
G01*
X151929264Y-116567882D01*
X151943543Y-116571459D01*
X151957403Y-116576418D01*
X151970710Y-116582712D01*
X151983336Y-116590280D01*
X151995159Y-116599048D01*
X152006066Y-116608934D01*
X152015952Y-116619841D01*
X152024720Y-116631664D01*
X152032288Y-116644290D01*
X152038582Y-116657597D01*
X152043541Y-116671457D01*
X152047118Y-116685736D01*
X152049278Y-116700297D01*
X152050000Y-116715000D01*
X152050000Y-117015000D01*
X152049278Y-117029703D01*
X152047118Y-117044264D01*
X152043541Y-117058543D01*
X152038582Y-117072403D01*
X152032288Y-117085710D01*
X152024720Y-117098336D01*
X152015952Y-117110159D01*
X152006066Y-117121066D01*
X151995159Y-117130952D01*
X151983336Y-117139720D01*
X151970710Y-117147288D01*
X151957403Y-117153582D01*
X151943543Y-117158541D01*
X151929264Y-117162118D01*
X151914703Y-117164278D01*
X151900000Y-117165000D01*
X150450000Y-117165000D01*
X150435297Y-117164278D01*
X150420736Y-117162118D01*
X150406457Y-117158541D01*
X150392597Y-117153582D01*
X150379290Y-117147288D01*
X150366664Y-117139720D01*
X150354841Y-117130952D01*
X150343934Y-117121066D01*
X150334048Y-117110159D01*
X150325280Y-117098336D01*
X150317712Y-117085710D01*
X150311418Y-117072403D01*
X150306459Y-117058543D01*
X150302882Y-117044264D01*
X150300722Y-117029703D01*
X150300000Y-117015000D01*
X150300000Y-116715000D01*
X150300722Y-116700297D01*
X150302882Y-116685736D01*
X150306459Y-116671457D01*
X150311418Y-116657597D01*
X150317712Y-116644290D01*
X150325280Y-116631664D01*
X150334048Y-116619841D01*
X150343934Y-116608934D01*
X150354841Y-116599048D01*
X150366664Y-116590280D01*
X150379290Y-116582712D01*
X150392597Y-116576418D01*
X150406457Y-116571459D01*
X150420736Y-116567882D01*
X150435297Y-116565722D01*
X150450000Y-116565000D01*
X151900000Y-116565000D01*
X151914703Y-116565722D01*
G37*
G36*
X151914703Y-115295722D02*
G01*
X151929264Y-115297882D01*
X151943543Y-115301459D01*
X151957403Y-115306418D01*
X151970710Y-115312712D01*
X151983336Y-115320280D01*
X151995159Y-115329048D01*
X152006066Y-115338934D01*
X152015952Y-115349841D01*
X152024720Y-115361664D01*
X152032288Y-115374290D01*
X152038582Y-115387597D01*
X152043541Y-115401457D01*
X152047118Y-115415736D01*
X152049278Y-115430297D01*
X152050000Y-115445000D01*
X152050000Y-115745000D01*
X152049278Y-115759703D01*
X152047118Y-115774264D01*
X152043541Y-115788543D01*
X152038582Y-115802403D01*
X152032288Y-115815710D01*
X152024720Y-115828336D01*
X152015952Y-115840159D01*
X152006066Y-115851066D01*
X151995159Y-115860952D01*
X151983336Y-115869720D01*
X151970710Y-115877288D01*
X151957403Y-115883582D01*
X151943543Y-115888541D01*
X151929264Y-115892118D01*
X151914703Y-115894278D01*
X151900000Y-115895000D01*
X150450000Y-115895000D01*
X150435297Y-115894278D01*
X150420736Y-115892118D01*
X150406457Y-115888541D01*
X150392597Y-115883582D01*
X150379290Y-115877288D01*
X150366664Y-115869720D01*
X150354841Y-115860952D01*
X150343934Y-115851066D01*
X150334048Y-115840159D01*
X150325280Y-115828336D01*
X150317712Y-115815710D01*
X150311418Y-115802403D01*
X150306459Y-115788543D01*
X150302882Y-115774264D01*
X150300722Y-115759703D01*
X150300000Y-115745000D01*
X150300000Y-115445000D01*
X150300722Y-115430297D01*
X150302882Y-115415736D01*
X150306459Y-115401457D01*
X150311418Y-115387597D01*
X150317712Y-115374290D01*
X150325280Y-115361664D01*
X150334048Y-115349841D01*
X150343934Y-115338934D01*
X150354841Y-115329048D01*
X150366664Y-115320280D01*
X150379290Y-115312712D01*
X150392597Y-115306418D01*
X150406457Y-115301459D01*
X150420736Y-115297882D01*
X150435297Y-115295722D01*
X150450000Y-115295000D01*
X151900000Y-115295000D01*
X151914703Y-115295722D01*
G37*
G36*
X168974505Y-72651204D02*
G01*
X168998773Y-72654804D01*
X169022572Y-72660765D01*
X169045671Y-72669030D01*
X169067850Y-72679520D01*
X169088893Y-72692132D01*
X169108599Y-72706747D01*
X169126777Y-72723223D01*
X169143253Y-72741401D01*
X169157868Y-72761107D01*
X169170480Y-72782150D01*
X169180970Y-72804329D01*
X169189235Y-72827428D01*
X169195196Y-72851227D01*
X169198796Y-72875495D01*
X169200000Y-72899999D01*
X169200000Y-73550001D01*
X169198796Y-73574505D01*
X169195196Y-73598773D01*
X169189235Y-73622572D01*
X169180970Y-73645671D01*
X169170480Y-73667850D01*
X169157868Y-73688893D01*
X169143253Y-73708599D01*
X169126777Y-73726777D01*
X169108599Y-73743253D01*
X169088893Y-73757868D01*
X169067850Y-73770480D01*
X169045671Y-73780970D01*
X169022572Y-73789235D01*
X168998773Y-73795196D01*
X168974505Y-73798796D01*
X168950001Y-73800000D01*
X168049999Y-73800000D01*
X168025495Y-73798796D01*
X168001227Y-73795196D01*
X167977428Y-73789235D01*
X167954329Y-73780970D01*
X167932150Y-73770480D01*
X167911107Y-73757868D01*
X167891401Y-73743253D01*
X167873223Y-73726777D01*
X167856747Y-73708599D01*
X167842132Y-73688893D01*
X167829520Y-73667850D01*
X167819030Y-73645671D01*
X167810765Y-73622572D01*
X167804804Y-73598773D01*
X167801204Y-73574505D01*
X167800000Y-73550001D01*
X167800000Y-72899999D01*
X167801204Y-72875495D01*
X167804804Y-72851227D01*
X167810765Y-72827428D01*
X167819030Y-72804329D01*
X167829520Y-72782150D01*
X167842132Y-72761107D01*
X167856747Y-72741401D01*
X167873223Y-72723223D01*
X167891401Y-72706747D01*
X167911107Y-72692132D01*
X167932150Y-72679520D01*
X167954329Y-72669030D01*
X167977428Y-72660765D01*
X168001227Y-72654804D01*
X168025495Y-72651204D01*
X168049999Y-72650000D01*
X168950001Y-72650000D01*
X168974505Y-72651204D01*
G37*
G36*
X168974505Y-70601204D02*
G01*
X168998773Y-70604804D01*
X169022572Y-70610765D01*
X169045671Y-70619030D01*
X169067850Y-70629520D01*
X169088893Y-70642132D01*
X169108599Y-70656747D01*
X169126777Y-70673223D01*
X169143253Y-70691401D01*
X169157868Y-70711107D01*
X169170480Y-70732150D01*
X169180970Y-70754329D01*
X169189235Y-70777428D01*
X169195196Y-70801227D01*
X169198796Y-70825495D01*
X169200000Y-70849999D01*
X169200000Y-71500001D01*
X169198796Y-71524505D01*
X169195196Y-71548773D01*
X169189235Y-71572572D01*
X169180970Y-71595671D01*
X169170480Y-71617850D01*
X169157868Y-71638893D01*
X169143253Y-71658599D01*
X169126777Y-71676777D01*
X169108599Y-71693253D01*
X169088893Y-71707868D01*
X169067850Y-71720480D01*
X169045671Y-71730970D01*
X169022572Y-71739235D01*
X168998773Y-71745196D01*
X168974505Y-71748796D01*
X168950001Y-71750000D01*
X168049999Y-71750000D01*
X168025495Y-71748796D01*
X168001227Y-71745196D01*
X167977428Y-71739235D01*
X167954329Y-71730970D01*
X167932150Y-71720480D01*
X167911107Y-71707868D01*
X167891401Y-71693253D01*
X167873223Y-71676777D01*
X167856747Y-71658599D01*
X167842132Y-71638893D01*
X167829520Y-71617850D01*
X167819030Y-71595671D01*
X167810765Y-71572572D01*
X167804804Y-71548773D01*
X167801204Y-71524505D01*
X167800000Y-71500001D01*
X167800000Y-70849999D01*
X167801204Y-70825495D01*
X167804804Y-70801227D01*
X167810765Y-70777428D01*
X167819030Y-70754329D01*
X167829520Y-70732150D01*
X167842132Y-70711107D01*
X167856747Y-70691401D01*
X167873223Y-70673223D01*
X167891401Y-70656747D01*
X167911107Y-70642132D01*
X167932150Y-70629520D01*
X167954329Y-70619030D01*
X167977428Y-70610765D01*
X168001227Y-70604804D01*
X168025495Y-70601204D01*
X168049999Y-70600000D01*
X168950001Y-70600000D01*
X168974505Y-70601204D01*
G37*
G36*
X170974505Y-70601204D02*
G01*
X170998773Y-70604804D01*
X171022572Y-70610765D01*
X171045671Y-70619030D01*
X171067850Y-70629520D01*
X171088893Y-70642132D01*
X171108599Y-70656747D01*
X171126777Y-70673223D01*
X171143253Y-70691401D01*
X171157868Y-70711107D01*
X171170480Y-70732150D01*
X171180970Y-70754329D01*
X171189235Y-70777428D01*
X171195196Y-70801227D01*
X171198796Y-70825495D01*
X171200000Y-70849999D01*
X171200000Y-71500001D01*
X171198796Y-71524505D01*
X171195196Y-71548773D01*
X171189235Y-71572572D01*
X171180970Y-71595671D01*
X171170480Y-71617850D01*
X171157868Y-71638893D01*
X171143253Y-71658599D01*
X171126777Y-71676777D01*
X171108599Y-71693253D01*
X171088893Y-71707868D01*
X171067850Y-71720480D01*
X171045671Y-71730970D01*
X171022572Y-71739235D01*
X170998773Y-71745196D01*
X170974505Y-71748796D01*
X170950001Y-71750000D01*
X170049999Y-71750000D01*
X170025495Y-71748796D01*
X170001227Y-71745196D01*
X169977428Y-71739235D01*
X169954329Y-71730970D01*
X169932150Y-71720480D01*
X169911107Y-71707868D01*
X169891401Y-71693253D01*
X169873223Y-71676777D01*
X169856747Y-71658599D01*
X169842132Y-71638893D01*
X169829520Y-71617850D01*
X169819030Y-71595671D01*
X169810765Y-71572572D01*
X169804804Y-71548773D01*
X169801204Y-71524505D01*
X169800000Y-71500001D01*
X169800000Y-70849999D01*
X169801204Y-70825495D01*
X169804804Y-70801227D01*
X169810765Y-70777428D01*
X169819030Y-70754329D01*
X169829520Y-70732150D01*
X169842132Y-70711107D01*
X169856747Y-70691401D01*
X169873223Y-70673223D01*
X169891401Y-70656747D01*
X169911107Y-70642132D01*
X169932150Y-70629520D01*
X169954329Y-70619030D01*
X169977428Y-70610765D01*
X170001227Y-70604804D01*
X170025495Y-70601204D01*
X170049999Y-70600000D01*
X170950001Y-70600000D01*
X170974505Y-70601204D01*
G37*
G36*
X170974505Y-72651204D02*
G01*
X170998773Y-72654804D01*
X171022572Y-72660765D01*
X171045671Y-72669030D01*
X171067850Y-72679520D01*
X171088893Y-72692132D01*
X171108599Y-72706747D01*
X171126777Y-72723223D01*
X171143253Y-72741401D01*
X171157868Y-72761107D01*
X171170480Y-72782150D01*
X171180970Y-72804329D01*
X171189235Y-72827428D01*
X171195196Y-72851227D01*
X171198796Y-72875495D01*
X171200000Y-72899999D01*
X171200000Y-73550001D01*
X171198796Y-73574505D01*
X171195196Y-73598773D01*
X171189235Y-73622572D01*
X171180970Y-73645671D01*
X171170480Y-73667850D01*
X171157868Y-73688893D01*
X171143253Y-73708599D01*
X171126777Y-73726777D01*
X171108599Y-73743253D01*
X171088893Y-73757868D01*
X171067850Y-73770480D01*
X171045671Y-73780970D01*
X171022572Y-73789235D01*
X170998773Y-73795196D01*
X170974505Y-73798796D01*
X170950001Y-73800000D01*
X170049999Y-73800000D01*
X170025495Y-73798796D01*
X170001227Y-73795196D01*
X169977428Y-73789235D01*
X169954329Y-73780970D01*
X169932150Y-73770480D01*
X169911107Y-73757868D01*
X169891401Y-73743253D01*
X169873223Y-73726777D01*
X169856747Y-73708599D01*
X169842132Y-73688893D01*
X169829520Y-73667850D01*
X169819030Y-73645671D01*
X169810765Y-73622572D01*
X169804804Y-73598773D01*
X169801204Y-73574505D01*
X169800000Y-73550001D01*
X169800000Y-72899999D01*
X169801204Y-72875495D01*
X169804804Y-72851227D01*
X169810765Y-72827428D01*
X169819030Y-72804329D01*
X169829520Y-72782150D01*
X169842132Y-72761107D01*
X169856747Y-72741401D01*
X169873223Y-72723223D01*
X169891401Y-72706747D01*
X169911107Y-72692132D01*
X169932150Y-72679520D01*
X169954329Y-72669030D01*
X169977428Y-72660765D01*
X170001227Y-72654804D01*
X170025495Y-72651204D01*
X170049999Y-72650000D01*
X170950001Y-72650000D01*
X170974505Y-72651204D01*
G37*
G36*
X161574505Y-63451204D02*
G01*
X161598773Y-63454804D01*
X161622572Y-63460765D01*
X161645671Y-63469030D01*
X161667850Y-63479520D01*
X161688893Y-63492132D01*
X161708599Y-63506747D01*
X161726777Y-63523223D01*
X161743253Y-63541401D01*
X161757868Y-63561107D01*
X161770480Y-63582150D01*
X161780970Y-63604329D01*
X161789235Y-63627428D01*
X161795196Y-63651227D01*
X161798796Y-63675495D01*
X161800000Y-63699999D01*
X161800000Y-64350001D01*
X161798796Y-64374505D01*
X161795196Y-64398773D01*
X161789235Y-64422572D01*
X161780970Y-64445671D01*
X161770480Y-64467850D01*
X161757868Y-64488893D01*
X161743253Y-64508599D01*
X161726777Y-64526777D01*
X161708599Y-64543253D01*
X161688893Y-64557868D01*
X161667850Y-64570480D01*
X161645671Y-64580970D01*
X161622572Y-64589235D01*
X161598773Y-64595196D01*
X161574505Y-64598796D01*
X161550001Y-64600000D01*
X160649999Y-64600000D01*
X160625495Y-64598796D01*
X160601227Y-64595196D01*
X160577428Y-64589235D01*
X160554329Y-64580970D01*
X160532150Y-64570480D01*
X160511107Y-64557868D01*
X160491401Y-64543253D01*
X160473223Y-64526777D01*
X160456747Y-64508599D01*
X160442132Y-64488893D01*
X160429520Y-64467850D01*
X160419030Y-64445671D01*
X160410765Y-64422572D01*
X160404804Y-64398773D01*
X160401204Y-64374505D01*
X160400000Y-64350001D01*
X160400000Y-63699999D01*
X160401204Y-63675495D01*
X160404804Y-63651227D01*
X160410765Y-63627428D01*
X160419030Y-63604329D01*
X160429520Y-63582150D01*
X160442132Y-63561107D01*
X160456747Y-63541401D01*
X160473223Y-63523223D01*
X160491401Y-63506747D01*
X160511107Y-63492132D01*
X160532150Y-63479520D01*
X160554329Y-63469030D01*
X160577428Y-63460765D01*
X160601227Y-63454804D01*
X160625495Y-63451204D01*
X160649999Y-63450000D01*
X161550001Y-63450000D01*
X161574505Y-63451204D01*
G37*
G36*
X161574505Y-61401204D02*
G01*
X161598773Y-61404804D01*
X161622572Y-61410765D01*
X161645671Y-61419030D01*
X161667850Y-61429520D01*
X161688893Y-61442132D01*
X161708599Y-61456747D01*
X161726777Y-61473223D01*
X161743253Y-61491401D01*
X161757868Y-61511107D01*
X161770480Y-61532150D01*
X161780970Y-61554329D01*
X161789235Y-61577428D01*
X161795196Y-61601227D01*
X161798796Y-61625495D01*
X161800000Y-61649999D01*
X161800000Y-62300001D01*
X161798796Y-62324505D01*
X161795196Y-62348773D01*
X161789235Y-62372572D01*
X161780970Y-62395671D01*
X161770480Y-62417850D01*
X161757868Y-62438893D01*
X161743253Y-62458599D01*
X161726777Y-62476777D01*
X161708599Y-62493253D01*
X161688893Y-62507868D01*
X161667850Y-62520480D01*
X161645671Y-62530970D01*
X161622572Y-62539235D01*
X161598773Y-62545196D01*
X161574505Y-62548796D01*
X161550001Y-62550000D01*
X160649999Y-62550000D01*
X160625495Y-62548796D01*
X160601227Y-62545196D01*
X160577428Y-62539235D01*
X160554329Y-62530970D01*
X160532150Y-62520480D01*
X160511107Y-62507868D01*
X160491401Y-62493253D01*
X160473223Y-62476777D01*
X160456747Y-62458599D01*
X160442132Y-62438893D01*
X160429520Y-62417850D01*
X160419030Y-62395671D01*
X160410765Y-62372572D01*
X160404804Y-62348773D01*
X160401204Y-62324505D01*
X160400000Y-62300001D01*
X160400000Y-61649999D01*
X160401204Y-61625495D01*
X160404804Y-61601227D01*
X160410765Y-61577428D01*
X160419030Y-61554329D01*
X160429520Y-61532150D01*
X160442132Y-61511107D01*
X160456747Y-61491401D01*
X160473223Y-61473223D01*
X160491401Y-61456747D01*
X160511107Y-61442132D01*
X160532150Y-61429520D01*
X160554329Y-61419030D01*
X160577428Y-61410765D01*
X160601227Y-61404804D01*
X160625495Y-61401204D01*
X160649999Y-61400000D01*
X161550001Y-61400000D01*
X161574505Y-61401204D01*
G37*
D13*
X40700000Y-118960000D03*
D14*
X40700000Y-117060000D03*
D15*
X164650000Y-63900000D03*
X162750000Y-63900000D03*
D16*
X163700000Y-61700000D03*
X175500000Y-113700000D03*
D15*
X176450000Y-111500000D03*
X174550000Y-111500000D03*
D17*
X52740000Y-50462520D03*
X52740000Y-54632520D03*
X54740000Y-50462520D03*
X54740000Y-54632520D03*
X56740000Y-50462520D03*
X56740000Y-54632520D03*
X58740000Y-50462520D03*
X58740000Y-54632520D03*
X60740000Y-50462520D03*
X60740000Y-54632520D03*
X62740000Y-50462520D03*
X62740000Y-54632520D03*
X64740000Y-50462520D03*
X64740000Y-54632520D03*
X66740000Y-50462520D03*
X66740000Y-54632520D03*
X68740000Y-50462520D03*
X68740000Y-54632520D03*
X70740000Y-50462520D03*
X70740000Y-54632520D03*
D12*
G36*
X38074505Y-51476204D02*
G01*
X38098773Y-51479804D01*
X38122572Y-51485765D01*
X38145671Y-51494030D01*
X38167850Y-51504520D01*
X38188893Y-51517132D01*
X38208599Y-51531747D01*
X38226777Y-51548223D01*
X38243253Y-51566401D01*
X38257868Y-51586107D01*
X38270480Y-51607150D01*
X38280970Y-51629329D01*
X38289235Y-51652428D01*
X38295196Y-51676227D01*
X38298796Y-51700495D01*
X38300000Y-51724999D01*
X38300000Y-52375001D01*
X38298796Y-52399505D01*
X38295196Y-52423773D01*
X38289235Y-52447572D01*
X38280970Y-52470671D01*
X38270480Y-52492850D01*
X38257868Y-52513893D01*
X38243253Y-52533599D01*
X38226777Y-52551777D01*
X38208599Y-52568253D01*
X38188893Y-52582868D01*
X38167850Y-52595480D01*
X38145671Y-52605970D01*
X38122572Y-52614235D01*
X38098773Y-52620196D01*
X38074505Y-52623796D01*
X38050001Y-52625000D01*
X37149999Y-52625000D01*
X37125495Y-52623796D01*
X37101227Y-52620196D01*
X37077428Y-52614235D01*
X37054329Y-52605970D01*
X37032150Y-52595480D01*
X37011107Y-52582868D01*
X36991401Y-52568253D01*
X36973223Y-52551777D01*
X36956747Y-52533599D01*
X36942132Y-52513893D01*
X36929520Y-52492850D01*
X36919030Y-52470671D01*
X36910765Y-52447572D01*
X36904804Y-52423773D01*
X36901204Y-52399505D01*
X36900000Y-52375001D01*
X36900000Y-51724999D01*
X36901204Y-51700495D01*
X36904804Y-51676227D01*
X36910765Y-51652428D01*
X36919030Y-51629329D01*
X36929520Y-51607150D01*
X36942132Y-51586107D01*
X36956747Y-51566401D01*
X36973223Y-51548223D01*
X36991401Y-51531747D01*
X37011107Y-51517132D01*
X37032150Y-51504520D01*
X37054329Y-51494030D01*
X37077428Y-51485765D01*
X37101227Y-51479804D01*
X37125495Y-51476204D01*
X37149999Y-51475000D01*
X38050001Y-51475000D01*
X38074505Y-51476204D01*
G37*
G36*
X38074505Y-53526204D02*
G01*
X38098773Y-53529804D01*
X38122572Y-53535765D01*
X38145671Y-53544030D01*
X38167850Y-53554520D01*
X38188893Y-53567132D01*
X38208599Y-53581747D01*
X38226777Y-53598223D01*
X38243253Y-53616401D01*
X38257868Y-53636107D01*
X38270480Y-53657150D01*
X38280970Y-53679329D01*
X38289235Y-53702428D01*
X38295196Y-53726227D01*
X38298796Y-53750495D01*
X38300000Y-53774999D01*
X38300000Y-54425001D01*
X38298796Y-54449505D01*
X38295196Y-54473773D01*
X38289235Y-54497572D01*
X38280970Y-54520671D01*
X38270480Y-54542850D01*
X38257868Y-54563893D01*
X38243253Y-54583599D01*
X38226777Y-54601777D01*
X38208599Y-54618253D01*
X38188893Y-54632868D01*
X38167850Y-54645480D01*
X38145671Y-54655970D01*
X38122572Y-54664235D01*
X38098773Y-54670196D01*
X38074505Y-54673796D01*
X38050001Y-54675000D01*
X37149999Y-54675000D01*
X37125495Y-54673796D01*
X37101227Y-54670196D01*
X37077428Y-54664235D01*
X37054329Y-54655970D01*
X37032150Y-54645480D01*
X37011107Y-54632868D01*
X36991401Y-54618253D01*
X36973223Y-54601777D01*
X36956747Y-54583599D01*
X36942132Y-54563893D01*
X36929520Y-54542850D01*
X36919030Y-54520671D01*
X36910765Y-54497572D01*
X36904804Y-54473773D01*
X36901204Y-54449505D01*
X36900000Y-54425001D01*
X36900000Y-53774999D01*
X36901204Y-53750495D01*
X36904804Y-53726227D01*
X36910765Y-53702428D01*
X36919030Y-53679329D01*
X36929520Y-53657150D01*
X36942132Y-53636107D01*
X36956747Y-53616401D01*
X36973223Y-53598223D01*
X36991401Y-53581747D01*
X37011107Y-53567132D01*
X37032150Y-53554520D01*
X37054329Y-53544030D01*
X37077428Y-53535765D01*
X37101227Y-53529804D01*
X37125495Y-53526204D01*
X37149999Y-53525000D01*
X38050001Y-53525000D01*
X38074505Y-53526204D01*
G37*
G36*
X37924505Y-68551204D02*
G01*
X37948773Y-68554804D01*
X37972572Y-68560765D01*
X37995671Y-68569030D01*
X38017850Y-68579520D01*
X38038893Y-68592132D01*
X38058599Y-68606747D01*
X38076777Y-68623223D01*
X38093253Y-68641401D01*
X38107868Y-68661107D01*
X38120480Y-68682150D01*
X38130970Y-68704329D01*
X38139235Y-68727428D01*
X38145196Y-68751227D01*
X38148796Y-68775495D01*
X38150000Y-68799999D01*
X38150000Y-69450001D01*
X38148796Y-69474505D01*
X38145196Y-69498773D01*
X38139235Y-69522572D01*
X38130970Y-69545671D01*
X38120480Y-69567850D01*
X38107868Y-69588893D01*
X38093253Y-69608599D01*
X38076777Y-69626777D01*
X38058599Y-69643253D01*
X38038893Y-69657868D01*
X38017850Y-69670480D01*
X37995671Y-69680970D01*
X37972572Y-69689235D01*
X37948773Y-69695196D01*
X37924505Y-69698796D01*
X37900001Y-69700000D01*
X36999999Y-69700000D01*
X36975495Y-69698796D01*
X36951227Y-69695196D01*
X36927428Y-69689235D01*
X36904329Y-69680970D01*
X36882150Y-69670480D01*
X36861107Y-69657868D01*
X36841401Y-69643253D01*
X36823223Y-69626777D01*
X36806747Y-69608599D01*
X36792132Y-69588893D01*
X36779520Y-69567850D01*
X36769030Y-69545671D01*
X36760765Y-69522572D01*
X36754804Y-69498773D01*
X36751204Y-69474505D01*
X36750000Y-69450001D01*
X36750000Y-68799999D01*
X36751204Y-68775495D01*
X36754804Y-68751227D01*
X36760765Y-68727428D01*
X36769030Y-68704329D01*
X36779520Y-68682150D01*
X36792132Y-68661107D01*
X36806747Y-68641401D01*
X36823223Y-68623223D01*
X36841401Y-68606747D01*
X36861107Y-68592132D01*
X36882150Y-68579520D01*
X36904329Y-68569030D01*
X36927428Y-68560765D01*
X36951227Y-68554804D01*
X36975495Y-68551204D01*
X36999999Y-68550000D01*
X37900001Y-68550000D01*
X37924505Y-68551204D01*
G37*
G36*
X37924505Y-66501204D02*
G01*
X37948773Y-66504804D01*
X37972572Y-66510765D01*
X37995671Y-66519030D01*
X38017850Y-66529520D01*
X38038893Y-66542132D01*
X38058599Y-66556747D01*
X38076777Y-66573223D01*
X38093253Y-66591401D01*
X38107868Y-66611107D01*
X38120480Y-66632150D01*
X38130970Y-66654329D01*
X38139235Y-66677428D01*
X38145196Y-66701227D01*
X38148796Y-66725495D01*
X38150000Y-66749999D01*
X38150000Y-67400001D01*
X38148796Y-67424505D01*
X38145196Y-67448773D01*
X38139235Y-67472572D01*
X38130970Y-67495671D01*
X38120480Y-67517850D01*
X38107868Y-67538893D01*
X38093253Y-67558599D01*
X38076777Y-67576777D01*
X38058599Y-67593253D01*
X38038893Y-67607868D01*
X38017850Y-67620480D01*
X37995671Y-67630970D01*
X37972572Y-67639235D01*
X37948773Y-67645196D01*
X37924505Y-67648796D01*
X37900001Y-67650000D01*
X36999999Y-67650000D01*
X36975495Y-67648796D01*
X36951227Y-67645196D01*
X36927428Y-67639235D01*
X36904329Y-67630970D01*
X36882150Y-67620480D01*
X36861107Y-67607868D01*
X36841401Y-67593253D01*
X36823223Y-67576777D01*
X36806747Y-67558599D01*
X36792132Y-67538893D01*
X36779520Y-67517850D01*
X36769030Y-67495671D01*
X36760765Y-67472572D01*
X36754804Y-67448773D01*
X36751204Y-67424505D01*
X36750000Y-67400001D01*
X36750000Y-66749999D01*
X36751204Y-66725495D01*
X36754804Y-66701227D01*
X36760765Y-66677428D01*
X36769030Y-66654329D01*
X36779520Y-66632150D01*
X36792132Y-66611107D01*
X36806747Y-66591401D01*
X36823223Y-66573223D01*
X36841401Y-66556747D01*
X36861107Y-66542132D01*
X36882150Y-66529520D01*
X36904329Y-66519030D01*
X36927428Y-66510765D01*
X36951227Y-66504804D01*
X36975495Y-66501204D01*
X36999999Y-66500000D01*
X37900001Y-66500000D01*
X37924505Y-66501204D01*
G37*
G36*
X38024505Y-92501204D02*
G01*
X38048773Y-92504804D01*
X38072572Y-92510765D01*
X38095671Y-92519030D01*
X38117850Y-92529520D01*
X38138893Y-92542132D01*
X38158599Y-92556747D01*
X38176777Y-92573223D01*
X38193253Y-92591401D01*
X38207868Y-92611107D01*
X38220480Y-92632150D01*
X38230970Y-92654329D01*
X38239235Y-92677428D01*
X38245196Y-92701227D01*
X38248796Y-92725495D01*
X38250000Y-92749999D01*
X38250000Y-93400001D01*
X38248796Y-93424505D01*
X38245196Y-93448773D01*
X38239235Y-93472572D01*
X38230970Y-93495671D01*
X38220480Y-93517850D01*
X38207868Y-93538893D01*
X38193253Y-93558599D01*
X38176777Y-93576777D01*
X38158599Y-93593253D01*
X38138893Y-93607868D01*
X38117850Y-93620480D01*
X38095671Y-93630970D01*
X38072572Y-93639235D01*
X38048773Y-93645196D01*
X38024505Y-93648796D01*
X38000001Y-93650000D01*
X37099999Y-93650000D01*
X37075495Y-93648796D01*
X37051227Y-93645196D01*
X37027428Y-93639235D01*
X37004329Y-93630970D01*
X36982150Y-93620480D01*
X36961107Y-93607868D01*
X36941401Y-93593253D01*
X36923223Y-93576777D01*
X36906747Y-93558599D01*
X36892132Y-93538893D01*
X36879520Y-93517850D01*
X36869030Y-93495671D01*
X36860765Y-93472572D01*
X36854804Y-93448773D01*
X36851204Y-93424505D01*
X36850000Y-93400001D01*
X36850000Y-92749999D01*
X36851204Y-92725495D01*
X36854804Y-92701227D01*
X36860765Y-92677428D01*
X36869030Y-92654329D01*
X36879520Y-92632150D01*
X36892132Y-92611107D01*
X36906747Y-92591401D01*
X36923223Y-92573223D01*
X36941401Y-92556747D01*
X36961107Y-92542132D01*
X36982150Y-92529520D01*
X37004329Y-92519030D01*
X37027428Y-92510765D01*
X37051227Y-92504804D01*
X37075495Y-92501204D01*
X37099999Y-92500000D01*
X38000001Y-92500000D01*
X38024505Y-92501204D01*
G37*
G36*
X38024505Y-94551204D02*
G01*
X38048773Y-94554804D01*
X38072572Y-94560765D01*
X38095671Y-94569030D01*
X38117850Y-94579520D01*
X38138893Y-94592132D01*
X38158599Y-94606747D01*
X38176777Y-94623223D01*
X38193253Y-94641401D01*
X38207868Y-94661107D01*
X38220480Y-94682150D01*
X38230970Y-94704329D01*
X38239235Y-94727428D01*
X38245196Y-94751227D01*
X38248796Y-94775495D01*
X38250000Y-94799999D01*
X38250000Y-95450001D01*
X38248796Y-95474505D01*
X38245196Y-95498773D01*
X38239235Y-95522572D01*
X38230970Y-95545671D01*
X38220480Y-95567850D01*
X38207868Y-95588893D01*
X38193253Y-95608599D01*
X38176777Y-95626777D01*
X38158599Y-95643253D01*
X38138893Y-95657868D01*
X38117850Y-95670480D01*
X38095671Y-95680970D01*
X38072572Y-95689235D01*
X38048773Y-95695196D01*
X38024505Y-95698796D01*
X38000001Y-95700000D01*
X37099999Y-95700000D01*
X37075495Y-95698796D01*
X37051227Y-95695196D01*
X37027428Y-95689235D01*
X37004329Y-95680970D01*
X36982150Y-95670480D01*
X36961107Y-95657868D01*
X36941401Y-95643253D01*
X36923223Y-95626777D01*
X36906747Y-95608599D01*
X36892132Y-95588893D01*
X36879520Y-95567850D01*
X36869030Y-95545671D01*
X36860765Y-95522572D01*
X36854804Y-95498773D01*
X36851204Y-95474505D01*
X36850000Y-95450001D01*
X36850000Y-94799999D01*
X36851204Y-94775495D01*
X36854804Y-94751227D01*
X36860765Y-94727428D01*
X36869030Y-94704329D01*
X36879520Y-94682150D01*
X36892132Y-94661107D01*
X36906747Y-94641401D01*
X36923223Y-94623223D01*
X36941401Y-94606747D01*
X36961107Y-94592132D01*
X36982150Y-94579520D01*
X37004329Y-94569030D01*
X37027428Y-94560765D01*
X37051227Y-94554804D01*
X37075495Y-94551204D01*
X37099999Y-94550000D01*
X38000001Y-94550000D01*
X38024505Y-94551204D01*
G37*
G36*
X71274505Y-124351204D02*
G01*
X71298773Y-124354804D01*
X71322572Y-124360765D01*
X71345671Y-124369030D01*
X71367850Y-124379520D01*
X71388893Y-124392132D01*
X71408599Y-124406747D01*
X71426777Y-124423223D01*
X71443253Y-124441401D01*
X71457868Y-124461107D01*
X71470480Y-124482150D01*
X71480970Y-124504329D01*
X71489235Y-124527428D01*
X71495196Y-124551227D01*
X71498796Y-124575495D01*
X71500000Y-124599999D01*
X71500000Y-125500001D01*
X71498796Y-125524505D01*
X71495196Y-125548773D01*
X71489235Y-125572572D01*
X71480970Y-125595671D01*
X71470480Y-125617850D01*
X71457868Y-125638893D01*
X71443253Y-125658599D01*
X71426777Y-125676777D01*
X71408599Y-125693253D01*
X71388893Y-125707868D01*
X71367850Y-125720480D01*
X71345671Y-125730970D01*
X71322572Y-125739235D01*
X71298773Y-125745196D01*
X71274505Y-125748796D01*
X71250001Y-125750000D01*
X70599999Y-125750000D01*
X70575495Y-125748796D01*
X70551227Y-125745196D01*
X70527428Y-125739235D01*
X70504329Y-125730970D01*
X70482150Y-125720480D01*
X70461107Y-125707868D01*
X70441401Y-125693253D01*
X70423223Y-125676777D01*
X70406747Y-125658599D01*
X70392132Y-125638893D01*
X70379520Y-125617850D01*
X70369030Y-125595671D01*
X70360765Y-125572572D01*
X70354804Y-125548773D01*
X70351204Y-125524505D01*
X70350000Y-125500001D01*
X70350000Y-124599999D01*
X70351204Y-124575495D01*
X70354804Y-124551227D01*
X70360765Y-124527428D01*
X70369030Y-124504329D01*
X70379520Y-124482150D01*
X70392132Y-124461107D01*
X70406747Y-124441401D01*
X70423223Y-124423223D01*
X70441401Y-124406747D01*
X70461107Y-124392132D01*
X70482150Y-124379520D01*
X70504329Y-124369030D01*
X70527428Y-124360765D01*
X70551227Y-124354804D01*
X70575495Y-124351204D01*
X70599999Y-124350000D01*
X71250001Y-124350000D01*
X71274505Y-124351204D01*
G37*
G36*
X69224505Y-124351204D02*
G01*
X69248773Y-124354804D01*
X69272572Y-124360765D01*
X69295671Y-124369030D01*
X69317850Y-124379520D01*
X69338893Y-124392132D01*
X69358599Y-124406747D01*
X69376777Y-124423223D01*
X69393253Y-124441401D01*
X69407868Y-124461107D01*
X69420480Y-124482150D01*
X69430970Y-124504329D01*
X69439235Y-124527428D01*
X69445196Y-124551227D01*
X69448796Y-124575495D01*
X69450000Y-124599999D01*
X69450000Y-125500001D01*
X69448796Y-125524505D01*
X69445196Y-125548773D01*
X69439235Y-125572572D01*
X69430970Y-125595671D01*
X69420480Y-125617850D01*
X69407868Y-125638893D01*
X69393253Y-125658599D01*
X69376777Y-125676777D01*
X69358599Y-125693253D01*
X69338893Y-125707868D01*
X69317850Y-125720480D01*
X69295671Y-125730970D01*
X69272572Y-125739235D01*
X69248773Y-125745196D01*
X69224505Y-125748796D01*
X69200001Y-125750000D01*
X68549999Y-125750000D01*
X68525495Y-125748796D01*
X68501227Y-125745196D01*
X68477428Y-125739235D01*
X68454329Y-125730970D01*
X68432150Y-125720480D01*
X68411107Y-125707868D01*
X68391401Y-125693253D01*
X68373223Y-125676777D01*
X68356747Y-125658599D01*
X68342132Y-125638893D01*
X68329520Y-125617850D01*
X68319030Y-125595671D01*
X68310765Y-125572572D01*
X68304804Y-125548773D01*
X68301204Y-125524505D01*
X68300000Y-125500001D01*
X68300000Y-124599999D01*
X68301204Y-124575495D01*
X68304804Y-124551227D01*
X68310765Y-124527428D01*
X68319030Y-124504329D01*
X68329520Y-124482150D01*
X68342132Y-124461107D01*
X68356747Y-124441401D01*
X68373223Y-124423223D01*
X68391401Y-124406747D01*
X68411107Y-124392132D01*
X68432150Y-124379520D01*
X68454329Y-124369030D01*
X68477428Y-124360765D01*
X68501227Y-124354804D01*
X68525495Y-124351204D01*
X68549999Y-124350000D01*
X69200001Y-124350000D01*
X69224505Y-124351204D01*
G37*
G36*
X93274505Y-124201204D02*
G01*
X93298773Y-124204804D01*
X93322572Y-124210765D01*
X93345671Y-124219030D01*
X93367850Y-124229520D01*
X93388893Y-124242132D01*
X93408599Y-124256747D01*
X93426777Y-124273223D01*
X93443253Y-124291401D01*
X93457868Y-124311107D01*
X93470480Y-124332150D01*
X93480970Y-124354329D01*
X93489235Y-124377428D01*
X93495196Y-124401227D01*
X93498796Y-124425495D01*
X93500000Y-124449999D01*
X93500000Y-125350001D01*
X93498796Y-125374505D01*
X93495196Y-125398773D01*
X93489235Y-125422572D01*
X93480970Y-125445671D01*
X93470480Y-125467850D01*
X93457868Y-125488893D01*
X93443253Y-125508599D01*
X93426777Y-125526777D01*
X93408599Y-125543253D01*
X93388893Y-125557868D01*
X93367850Y-125570480D01*
X93345671Y-125580970D01*
X93322572Y-125589235D01*
X93298773Y-125595196D01*
X93274505Y-125598796D01*
X93250001Y-125600000D01*
X92599999Y-125600000D01*
X92575495Y-125598796D01*
X92551227Y-125595196D01*
X92527428Y-125589235D01*
X92504329Y-125580970D01*
X92482150Y-125570480D01*
X92461107Y-125557868D01*
X92441401Y-125543253D01*
X92423223Y-125526777D01*
X92406747Y-125508599D01*
X92392132Y-125488893D01*
X92379520Y-125467850D01*
X92369030Y-125445671D01*
X92360765Y-125422572D01*
X92354804Y-125398773D01*
X92351204Y-125374505D01*
X92350000Y-125350001D01*
X92350000Y-124449999D01*
X92351204Y-124425495D01*
X92354804Y-124401227D01*
X92360765Y-124377428D01*
X92369030Y-124354329D01*
X92379520Y-124332150D01*
X92392132Y-124311107D01*
X92406747Y-124291401D01*
X92423223Y-124273223D01*
X92441401Y-124256747D01*
X92461107Y-124242132D01*
X92482150Y-124229520D01*
X92504329Y-124219030D01*
X92527428Y-124210765D01*
X92551227Y-124204804D01*
X92575495Y-124201204D01*
X92599999Y-124200000D01*
X93250001Y-124200000D01*
X93274505Y-124201204D01*
G37*
G36*
X95324505Y-124201204D02*
G01*
X95348773Y-124204804D01*
X95372572Y-124210765D01*
X95395671Y-124219030D01*
X95417850Y-124229520D01*
X95438893Y-124242132D01*
X95458599Y-124256747D01*
X95476777Y-124273223D01*
X95493253Y-124291401D01*
X95507868Y-124311107D01*
X95520480Y-124332150D01*
X95530970Y-124354329D01*
X95539235Y-124377428D01*
X95545196Y-124401227D01*
X95548796Y-124425495D01*
X95550000Y-124449999D01*
X95550000Y-125350001D01*
X95548796Y-125374505D01*
X95545196Y-125398773D01*
X95539235Y-125422572D01*
X95530970Y-125445671D01*
X95520480Y-125467850D01*
X95507868Y-125488893D01*
X95493253Y-125508599D01*
X95476777Y-125526777D01*
X95458599Y-125543253D01*
X95438893Y-125557868D01*
X95417850Y-125570480D01*
X95395671Y-125580970D01*
X95372572Y-125589235D01*
X95348773Y-125595196D01*
X95324505Y-125598796D01*
X95300001Y-125600000D01*
X94649999Y-125600000D01*
X94625495Y-125598796D01*
X94601227Y-125595196D01*
X94577428Y-125589235D01*
X94554329Y-125580970D01*
X94532150Y-125570480D01*
X94511107Y-125557868D01*
X94491401Y-125543253D01*
X94473223Y-125526777D01*
X94456747Y-125508599D01*
X94442132Y-125488893D01*
X94429520Y-125467850D01*
X94419030Y-125445671D01*
X94410765Y-125422572D01*
X94404804Y-125398773D01*
X94401204Y-125374505D01*
X94400000Y-125350001D01*
X94400000Y-124449999D01*
X94401204Y-124425495D01*
X94404804Y-124401227D01*
X94410765Y-124377428D01*
X94419030Y-124354329D01*
X94429520Y-124332150D01*
X94442132Y-124311107D01*
X94456747Y-124291401D01*
X94473223Y-124273223D01*
X94491401Y-124256747D01*
X94511107Y-124242132D01*
X94532150Y-124229520D01*
X94554329Y-124219030D01*
X94577428Y-124210765D01*
X94601227Y-124204804D01*
X94625495Y-124201204D01*
X94649999Y-124200000D01*
X95300001Y-124200000D01*
X95324505Y-124201204D01*
G37*
G36*
X117674505Y-126551204D02*
G01*
X117698773Y-126554804D01*
X117722572Y-126560765D01*
X117745671Y-126569030D01*
X117767850Y-126579520D01*
X117788893Y-126592132D01*
X117808599Y-126606747D01*
X117826777Y-126623223D01*
X117843253Y-126641401D01*
X117857868Y-126661107D01*
X117870480Y-126682150D01*
X117880970Y-126704329D01*
X117889235Y-126727428D01*
X117895196Y-126751227D01*
X117898796Y-126775495D01*
X117900000Y-126799999D01*
X117900000Y-127700001D01*
X117898796Y-127724505D01*
X117895196Y-127748773D01*
X117889235Y-127772572D01*
X117880970Y-127795671D01*
X117870480Y-127817850D01*
X117857868Y-127838893D01*
X117843253Y-127858599D01*
X117826777Y-127876777D01*
X117808599Y-127893253D01*
X117788893Y-127907868D01*
X117767850Y-127920480D01*
X117745671Y-127930970D01*
X117722572Y-127939235D01*
X117698773Y-127945196D01*
X117674505Y-127948796D01*
X117650001Y-127950000D01*
X116999999Y-127950000D01*
X116975495Y-127948796D01*
X116951227Y-127945196D01*
X116927428Y-127939235D01*
X116904329Y-127930970D01*
X116882150Y-127920480D01*
X116861107Y-127907868D01*
X116841401Y-127893253D01*
X116823223Y-127876777D01*
X116806747Y-127858599D01*
X116792132Y-127838893D01*
X116779520Y-127817850D01*
X116769030Y-127795671D01*
X116760765Y-127772572D01*
X116754804Y-127748773D01*
X116751204Y-127724505D01*
X116750000Y-127700001D01*
X116750000Y-126799999D01*
X116751204Y-126775495D01*
X116754804Y-126751227D01*
X116760765Y-126727428D01*
X116769030Y-126704329D01*
X116779520Y-126682150D01*
X116792132Y-126661107D01*
X116806747Y-126641401D01*
X116823223Y-126623223D01*
X116841401Y-126606747D01*
X116861107Y-126592132D01*
X116882150Y-126579520D01*
X116904329Y-126569030D01*
X116927428Y-126560765D01*
X116951227Y-126554804D01*
X116975495Y-126551204D01*
X116999999Y-126550000D01*
X117650001Y-126550000D01*
X117674505Y-126551204D01*
G37*
G36*
X119724505Y-126551204D02*
G01*
X119748773Y-126554804D01*
X119772572Y-126560765D01*
X119795671Y-126569030D01*
X119817850Y-126579520D01*
X119838893Y-126592132D01*
X119858599Y-126606747D01*
X119876777Y-126623223D01*
X119893253Y-126641401D01*
X119907868Y-126661107D01*
X119920480Y-126682150D01*
X119930970Y-126704329D01*
X119939235Y-126727428D01*
X119945196Y-126751227D01*
X119948796Y-126775495D01*
X119950000Y-126799999D01*
X119950000Y-127700001D01*
X119948796Y-127724505D01*
X119945196Y-127748773D01*
X119939235Y-127772572D01*
X119930970Y-127795671D01*
X119920480Y-127817850D01*
X119907868Y-127838893D01*
X119893253Y-127858599D01*
X119876777Y-127876777D01*
X119858599Y-127893253D01*
X119838893Y-127907868D01*
X119817850Y-127920480D01*
X119795671Y-127930970D01*
X119772572Y-127939235D01*
X119748773Y-127945196D01*
X119724505Y-127948796D01*
X119700001Y-127950000D01*
X119049999Y-127950000D01*
X119025495Y-127948796D01*
X119001227Y-127945196D01*
X118977428Y-127939235D01*
X118954329Y-127930970D01*
X118932150Y-127920480D01*
X118911107Y-127907868D01*
X118891401Y-127893253D01*
X118873223Y-127876777D01*
X118856747Y-127858599D01*
X118842132Y-127838893D01*
X118829520Y-127817850D01*
X118819030Y-127795671D01*
X118810765Y-127772572D01*
X118804804Y-127748773D01*
X118801204Y-127724505D01*
X118800000Y-127700001D01*
X118800000Y-126799999D01*
X118801204Y-126775495D01*
X118804804Y-126751227D01*
X118810765Y-126727428D01*
X118819030Y-126704329D01*
X118829520Y-126682150D01*
X118842132Y-126661107D01*
X118856747Y-126641401D01*
X118873223Y-126623223D01*
X118891401Y-126606747D01*
X118911107Y-126592132D01*
X118932150Y-126579520D01*
X118954329Y-126569030D01*
X118977428Y-126560765D01*
X119001227Y-126554804D01*
X119025495Y-126551204D01*
X119049999Y-126550000D01*
X119700001Y-126550000D01*
X119724505Y-126551204D01*
G37*
G36*
X143724505Y-51601204D02*
G01*
X143748773Y-51604804D01*
X143772572Y-51610765D01*
X143795671Y-51619030D01*
X143817850Y-51629520D01*
X143838893Y-51642132D01*
X143858599Y-51656747D01*
X143876777Y-51673223D01*
X143893253Y-51691401D01*
X143907868Y-51711107D01*
X143920480Y-51732150D01*
X143930970Y-51754329D01*
X143939235Y-51777428D01*
X143945196Y-51801227D01*
X143948796Y-51825495D01*
X143950000Y-51849999D01*
X143950000Y-52500001D01*
X143948796Y-52524505D01*
X143945196Y-52548773D01*
X143939235Y-52572572D01*
X143930970Y-52595671D01*
X143920480Y-52617850D01*
X143907868Y-52638893D01*
X143893253Y-52658599D01*
X143876777Y-52676777D01*
X143858599Y-52693253D01*
X143838893Y-52707868D01*
X143817850Y-52720480D01*
X143795671Y-52730970D01*
X143772572Y-52739235D01*
X143748773Y-52745196D01*
X143724505Y-52748796D01*
X143700001Y-52750000D01*
X142799999Y-52750000D01*
X142775495Y-52748796D01*
X142751227Y-52745196D01*
X142727428Y-52739235D01*
X142704329Y-52730970D01*
X142682150Y-52720480D01*
X142661107Y-52707868D01*
X142641401Y-52693253D01*
X142623223Y-52676777D01*
X142606747Y-52658599D01*
X142592132Y-52638893D01*
X142579520Y-52617850D01*
X142569030Y-52595671D01*
X142560765Y-52572572D01*
X142554804Y-52548773D01*
X142551204Y-52524505D01*
X142550000Y-52500001D01*
X142550000Y-51849999D01*
X142551204Y-51825495D01*
X142554804Y-51801227D01*
X142560765Y-51777428D01*
X142569030Y-51754329D01*
X142579520Y-51732150D01*
X142592132Y-51711107D01*
X142606747Y-51691401D01*
X142623223Y-51673223D01*
X142641401Y-51656747D01*
X142661107Y-51642132D01*
X142682150Y-51629520D01*
X142704329Y-51619030D01*
X142727428Y-51610765D01*
X142751227Y-51604804D01*
X142775495Y-51601204D01*
X142799999Y-51600000D01*
X143700001Y-51600000D01*
X143724505Y-51601204D01*
G37*
G36*
X143724505Y-53651204D02*
G01*
X143748773Y-53654804D01*
X143772572Y-53660765D01*
X143795671Y-53669030D01*
X143817850Y-53679520D01*
X143838893Y-53692132D01*
X143858599Y-53706747D01*
X143876777Y-53723223D01*
X143893253Y-53741401D01*
X143907868Y-53761107D01*
X143920480Y-53782150D01*
X143930970Y-53804329D01*
X143939235Y-53827428D01*
X143945196Y-53851227D01*
X143948796Y-53875495D01*
X143950000Y-53899999D01*
X143950000Y-54550001D01*
X143948796Y-54574505D01*
X143945196Y-54598773D01*
X143939235Y-54622572D01*
X143930970Y-54645671D01*
X143920480Y-54667850D01*
X143907868Y-54688893D01*
X143893253Y-54708599D01*
X143876777Y-54726777D01*
X143858599Y-54743253D01*
X143838893Y-54757868D01*
X143817850Y-54770480D01*
X143795671Y-54780970D01*
X143772572Y-54789235D01*
X143748773Y-54795196D01*
X143724505Y-54798796D01*
X143700001Y-54800000D01*
X142799999Y-54800000D01*
X142775495Y-54798796D01*
X142751227Y-54795196D01*
X142727428Y-54789235D01*
X142704329Y-54780970D01*
X142682150Y-54770480D01*
X142661107Y-54757868D01*
X142641401Y-54743253D01*
X142623223Y-54726777D01*
X142606747Y-54708599D01*
X142592132Y-54688893D01*
X142579520Y-54667850D01*
X142569030Y-54645671D01*
X142560765Y-54622572D01*
X142554804Y-54598773D01*
X142551204Y-54574505D01*
X142550000Y-54550001D01*
X142550000Y-53899999D01*
X142551204Y-53875495D01*
X142554804Y-53851227D01*
X142560765Y-53827428D01*
X142569030Y-53804329D01*
X142579520Y-53782150D01*
X142592132Y-53761107D01*
X142606747Y-53741401D01*
X142623223Y-53723223D01*
X142641401Y-53706747D01*
X142661107Y-53692132D01*
X142682150Y-53679520D01*
X142704329Y-53669030D01*
X142727428Y-53660765D01*
X142751227Y-53654804D01*
X142775495Y-53651204D01*
X142799999Y-53650000D01*
X143700001Y-53650000D01*
X143724505Y-53651204D01*
G37*
G36*
X166374505Y-53451204D02*
G01*
X166398773Y-53454804D01*
X166422572Y-53460765D01*
X166445671Y-53469030D01*
X166467850Y-53479520D01*
X166488893Y-53492132D01*
X166508599Y-53506747D01*
X166526777Y-53523223D01*
X166543253Y-53541401D01*
X166557868Y-53561107D01*
X166570480Y-53582150D01*
X166580970Y-53604329D01*
X166589235Y-53627428D01*
X166595196Y-53651227D01*
X166598796Y-53675495D01*
X166600000Y-53699999D01*
X166600000Y-54350001D01*
X166598796Y-54374505D01*
X166595196Y-54398773D01*
X166589235Y-54422572D01*
X166580970Y-54445671D01*
X166570480Y-54467850D01*
X166557868Y-54488893D01*
X166543253Y-54508599D01*
X166526777Y-54526777D01*
X166508599Y-54543253D01*
X166488893Y-54557868D01*
X166467850Y-54570480D01*
X166445671Y-54580970D01*
X166422572Y-54589235D01*
X166398773Y-54595196D01*
X166374505Y-54598796D01*
X166350001Y-54600000D01*
X165449999Y-54600000D01*
X165425495Y-54598796D01*
X165401227Y-54595196D01*
X165377428Y-54589235D01*
X165354329Y-54580970D01*
X165332150Y-54570480D01*
X165311107Y-54557868D01*
X165291401Y-54543253D01*
X165273223Y-54526777D01*
X165256747Y-54508599D01*
X165242132Y-54488893D01*
X165229520Y-54467850D01*
X165219030Y-54445671D01*
X165210765Y-54422572D01*
X165204804Y-54398773D01*
X165201204Y-54374505D01*
X165200000Y-54350001D01*
X165200000Y-53699999D01*
X165201204Y-53675495D01*
X165204804Y-53651227D01*
X165210765Y-53627428D01*
X165219030Y-53604329D01*
X165229520Y-53582150D01*
X165242132Y-53561107D01*
X165256747Y-53541401D01*
X165273223Y-53523223D01*
X165291401Y-53506747D01*
X165311107Y-53492132D01*
X165332150Y-53479520D01*
X165354329Y-53469030D01*
X165377428Y-53460765D01*
X165401227Y-53454804D01*
X165425495Y-53451204D01*
X165449999Y-53450000D01*
X166350001Y-53450000D01*
X166374505Y-53451204D01*
G37*
G36*
X166374505Y-51401204D02*
G01*
X166398773Y-51404804D01*
X166422572Y-51410765D01*
X166445671Y-51419030D01*
X166467850Y-51429520D01*
X166488893Y-51442132D01*
X166508599Y-51456747D01*
X166526777Y-51473223D01*
X166543253Y-51491401D01*
X166557868Y-51511107D01*
X166570480Y-51532150D01*
X166580970Y-51554329D01*
X166589235Y-51577428D01*
X166595196Y-51601227D01*
X166598796Y-51625495D01*
X166600000Y-51649999D01*
X166600000Y-52300001D01*
X166598796Y-52324505D01*
X166595196Y-52348773D01*
X166589235Y-52372572D01*
X166580970Y-52395671D01*
X166570480Y-52417850D01*
X166557868Y-52438893D01*
X166543253Y-52458599D01*
X166526777Y-52476777D01*
X166508599Y-52493253D01*
X166488893Y-52507868D01*
X166467850Y-52520480D01*
X166445671Y-52530970D01*
X166422572Y-52539235D01*
X166398773Y-52545196D01*
X166374505Y-52548796D01*
X166350001Y-52550000D01*
X165449999Y-52550000D01*
X165425495Y-52548796D01*
X165401227Y-52545196D01*
X165377428Y-52539235D01*
X165354329Y-52530970D01*
X165332150Y-52520480D01*
X165311107Y-52507868D01*
X165291401Y-52493253D01*
X165273223Y-52476777D01*
X165256747Y-52458599D01*
X165242132Y-52438893D01*
X165229520Y-52417850D01*
X165219030Y-52395671D01*
X165210765Y-52372572D01*
X165204804Y-52348773D01*
X165201204Y-52324505D01*
X165200000Y-52300001D01*
X165200000Y-51649999D01*
X165201204Y-51625495D01*
X165204804Y-51601227D01*
X165210765Y-51577428D01*
X165219030Y-51554329D01*
X165229520Y-51532150D01*
X165242132Y-51511107D01*
X165256747Y-51491401D01*
X165273223Y-51473223D01*
X165291401Y-51456747D01*
X165311107Y-51442132D01*
X165332150Y-51429520D01*
X165354329Y-51419030D01*
X165377428Y-51410765D01*
X165401227Y-51404804D01*
X165425495Y-51401204D01*
X165449999Y-51400000D01*
X166350001Y-51400000D01*
X166374505Y-51401204D01*
G37*
G36*
X181274505Y-51301204D02*
G01*
X181298773Y-51304804D01*
X181322572Y-51310765D01*
X181345671Y-51319030D01*
X181367850Y-51329520D01*
X181388893Y-51342132D01*
X181408599Y-51356747D01*
X181426777Y-51373223D01*
X181443253Y-51391401D01*
X181457868Y-51411107D01*
X181470480Y-51432150D01*
X181480970Y-51454329D01*
X181489235Y-51477428D01*
X181495196Y-51501227D01*
X181498796Y-51525495D01*
X181500000Y-51549999D01*
X181500000Y-52200001D01*
X181498796Y-52224505D01*
X181495196Y-52248773D01*
X181489235Y-52272572D01*
X181480970Y-52295671D01*
X181470480Y-52317850D01*
X181457868Y-52338893D01*
X181443253Y-52358599D01*
X181426777Y-52376777D01*
X181408599Y-52393253D01*
X181388893Y-52407868D01*
X181367850Y-52420480D01*
X181345671Y-52430970D01*
X181322572Y-52439235D01*
X181298773Y-52445196D01*
X181274505Y-52448796D01*
X181250001Y-52450000D01*
X180349999Y-52450000D01*
X180325495Y-52448796D01*
X180301227Y-52445196D01*
X180277428Y-52439235D01*
X180254329Y-52430970D01*
X180232150Y-52420480D01*
X180211107Y-52407868D01*
X180191401Y-52393253D01*
X180173223Y-52376777D01*
X180156747Y-52358599D01*
X180142132Y-52338893D01*
X180129520Y-52317850D01*
X180119030Y-52295671D01*
X180110765Y-52272572D01*
X180104804Y-52248773D01*
X180101204Y-52224505D01*
X180100000Y-52200001D01*
X180100000Y-51549999D01*
X180101204Y-51525495D01*
X180104804Y-51501227D01*
X180110765Y-51477428D01*
X180119030Y-51454329D01*
X180129520Y-51432150D01*
X180142132Y-51411107D01*
X180156747Y-51391401D01*
X180173223Y-51373223D01*
X180191401Y-51356747D01*
X180211107Y-51342132D01*
X180232150Y-51329520D01*
X180254329Y-51319030D01*
X180277428Y-51310765D01*
X180301227Y-51304804D01*
X180325495Y-51301204D01*
X180349999Y-51300000D01*
X181250001Y-51300000D01*
X181274505Y-51301204D01*
G37*
G36*
X181274505Y-53351204D02*
G01*
X181298773Y-53354804D01*
X181322572Y-53360765D01*
X181345671Y-53369030D01*
X181367850Y-53379520D01*
X181388893Y-53392132D01*
X181408599Y-53406747D01*
X181426777Y-53423223D01*
X181443253Y-53441401D01*
X181457868Y-53461107D01*
X181470480Y-53482150D01*
X181480970Y-53504329D01*
X181489235Y-53527428D01*
X181495196Y-53551227D01*
X181498796Y-53575495D01*
X181500000Y-53599999D01*
X181500000Y-54250001D01*
X181498796Y-54274505D01*
X181495196Y-54298773D01*
X181489235Y-54322572D01*
X181480970Y-54345671D01*
X181470480Y-54367850D01*
X181457868Y-54388893D01*
X181443253Y-54408599D01*
X181426777Y-54426777D01*
X181408599Y-54443253D01*
X181388893Y-54457868D01*
X181367850Y-54470480D01*
X181345671Y-54480970D01*
X181322572Y-54489235D01*
X181298773Y-54495196D01*
X181274505Y-54498796D01*
X181250001Y-54500000D01*
X180349999Y-54500000D01*
X180325495Y-54498796D01*
X180301227Y-54495196D01*
X180277428Y-54489235D01*
X180254329Y-54480970D01*
X180232150Y-54470480D01*
X180211107Y-54457868D01*
X180191401Y-54443253D01*
X180173223Y-54426777D01*
X180156747Y-54408599D01*
X180142132Y-54388893D01*
X180129520Y-54367850D01*
X180119030Y-54345671D01*
X180110765Y-54322572D01*
X180104804Y-54298773D01*
X180101204Y-54274505D01*
X180100000Y-54250001D01*
X180100000Y-53599999D01*
X180101204Y-53575495D01*
X180104804Y-53551227D01*
X180110765Y-53527428D01*
X180119030Y-53504329D01*
X180129520Y-53482150D01*
X180142132Y-53461107D01*
X180156747Y-53441401D01*
X180173223Y-53423223D01*
X180191401Y-53406747D01*
X180211107Y-53392132D01*
X180232150Y-53379520D01*
X180254329Y-53369030D01*
X180277428Y-53360765D01*
X180301227Y-53354804D01*
X180325495Y-53351204D01*
X180349999Y-53350000D01*
X181250001Y-53350000D01*
X181274505Y-53351204D01*
G37*
G36*
X161474505Y-90651204D02*
G01*
X161498773Y-90654804D01*
X161522572Y-90660765D01*
X161545671Y-90669030D01*
X161567850Y-90679520D01*
X161588893Y-90692132D01*
X161608599Y-90706747D01*
X161626777Y-90723223D01*
X161643253Y-90741401D01*
X161657868Y-90761107D01*
X161670480Y-90782150D01*
X161680970Y-90804329D01*
X161689235Y-90827428D01*
X161695196Y-90851227D01*
X161698796Y-90875495D01*
X161700000Y-90899999D01*
X161700000Y-91800001D01*
X161698796Y-91824505D01*
X161695196Y-91848773D01*
X161689235Y-91872572D01*
X161680970Y-91895671D01*
X161670480Y-91917850D01*
X161657868Y-91938893D01*
X161643253Y-91958599D01*
X161626777Y-91976777D01*
X161608599Y-91993253D01*
X161588893Y-92007868D01*
X161567850Y-92020480D01*
X161545671Y-92030970D01*
X161522572Y-92039235D01*
X161498773Y-92045196D01*
X161474505Y-92048796D01*
X161450001Y-92050000D01*
X160799999Y-92050000D01*
X160775495Y-92048796D01*
X160751227Y-92045196D01*
X160727428Y-92039235D01*
X160704329Y-92030970D01*
X160682150Y-92020480D01*
X160661107Y-92007868D01*
X160641401Y-91993253D01*
X160623223Y-91976777D01*
X160606747Y-91958599D01*
X160592132Y-91938893D01*
X160579520Y-91917850D01*
X160569030Y-91895671D01*
X160560765Y-91872572D01*
X160554804Y-91848773D01*
X160551204Y-91824505D01*
X160550000Y-91800001D01*
X160550000Y-90899999D01*
X160551204Y-90875495D01*
X160554804Y-90851227D01*
X160560765Y-90827428D01*
X160569030Y-90804329D01*
X160579520Y-90782150D01*
X160592132Y-90761107D01*
X160606747Y-90741401D01*
X160623223Y-90723223D01*
X160641401Y-90706747D01*
X160661107Y-90692132D01*
X160682150Y-90679520D01*
X160704329Y-90669030D01*
X160727428Y-90660765D01*
X160751227Y-90654804D01*
X160775495Y-90651204D01*
X160799999Y-90650000D01*
X161450001Y-90650000D01*
X161474505Y-90651204D01*
G37*
G36*
X163524505Y-90651204D02*
G01*
X163548773Y-90654804D01*
X163572572Y-90660765D01*
X163595671Y-90669030D01*
X163617850Y-90679520D01*
X163638893Y-90692132D01*
X163658599Y-90706747D01*
X163676777Y-90723223D01*
X163693253Y-90741401D01*
X163707868Y-90761107D01*
X163720480Y-90782150D01*
X163730970Y-90804329D01*
X163739235Y-90827428D01*
X163745196Y-90851227D01*
X163748796Y-90875495D01*
X163750000Y-90899999D01*
X163750000Y-91800001D01*
X163748796Y-91824505D01*
X163745196Y-91848773D01*
X163739235Y-91872572D01*
X163730970Y-91895671D01*
X163720480Y-91917850D01*
X163707868Y-91938893D01*
X163693253Y-91958599D01*
X163676777Y-91976777D01*
X163658599Y-91993253D01*
X163638893Y-92007868D01*
X163617850Y-92020480D01*
X163595671Y-92030970D01*
X163572572Y-92039235D01*
X163548773Y-92045196D01*
X163524505Y-92048796D01*
X163500001Y-92050000D01*
X162849999Y-92050000D01*
X162825495Y-92048796D01*
X162801227Y-92045196D01*
X162777428Y-92039235D01*
X162754329Y-92030970D01*
X162732150Y-92020480D01*
X162711107Y-92007868D01*
X162691401Y-91993253D01*
X162673223Y-91976777D01*
X162656747Y-91958599D01*
X162642132Y-91938893D01*
X162629520Y-91917850D01*
X162619030Y-91895671D01*
X162610765Y-91872572D01*
X162604804Y-91848773D01*
X162601204Y-91824505D01*
X162600000Y-91800001D01*
X162600000Y-90899999D01*
X162601204Y-90875495D01*
X162604804Y-90851227D01*
X162610765Y-90827428D01*
X162619030Y-90804329D01*
X162629520Y-90782150D01*
X162642132Y-90761107D01*
X162656747Y-90741401D01*
X162673223Y-90723223D01*
X162691401Y-90706747D01*
X162711107Y-90692132D01*
X162732150Y-90679520D01*
X162754329Y-90669030D01*
X162777428Y-90660765D01*
X162801227Y-90654804D01*
X162825495Y-90651204D01*
X162849999Y-90650000D01*
X163500001Y-90650000D01*
X163524505Y-90651204D01*
G37*
G36*
X176424505Y-126401204D02*
G01*
X176448773Y-126404804D01*
X176472572Y-126410765D01*
X176495671Y-126419030D01*
X176517850Y-126429520D01*
X176538893Y-126442132D01*
X176558599Y-126456747D01*
X176576777Y-126473223D01*
X176593253Y-126491401D01*
X176607868Y-126511107D01*
X176620480Y-126532150D01*
X176630970Y-126554329D01*
X176639235Y-126577428D01*
X176645196Y-126601227D01*
X176648796Y-126625495D01*
X176650000Y-126649999D01*
X176650000Y-127550001D01*
X176648796Y-127574505D01*
X176645196Y-127598773D01*
X176639235Y-127622572D01*
X176630970Y-127645671D01*
X176620480Y-127667850D01*
X176607868Y-127688893D01*
X176593253Y-127708599D01*
X176576777Y-127726777D01*
X176558599Y-127743253D01*
X176538893Y-127757868D01*
X176517850Y-127770480D01*
X176495671Y-127780970D01*
X176472572Y-127789235D01*
X176448773Y-127795196D01*
X176424505Y-127798796D01*
X176400001Y-127800000D01*
X175749999Y-127800000D01*
X175725495Y-127798796D01*
X175701227Y-127795196D01*
X175677428Y-127789235D01*
X175654329Y-127780970D01*
X175632150Y-127770480D01*
X175611107Y-127757868D01*
X175591401Y-127743253D01*
X175573223Y-127726777D01*
X175556747Y-127708599D01*
X175542132Y-127688893D01*
X175529520Y-127667850D01*
X175519030Y-127645671D01*
X175510765Y-127622572D01*
X175504804Y-127598773D01*
X175501204Y-127574505D01*
X175500000Y-127550001D01*
X175500000Y-126649999D01*
X175501204Y-126625495D01*
X175504804Y-126601227D01*
X175510765Y-126577428D01*
X175519030Y-126554329D01*
X175529520Y-126532150D01*
X175542132Y-126511107D01*
X175556747Y-126491401D01*
X175573223Y-126473223D01*
X175591401Y-126456747D01*
X175611107Y-126442132D01*
X175632150Y-126429520D01*
X175654329Y-126419030D01*
X175677428Y-126410765D01*
X175701227Y-126404804D01*
X175725495Y-126401204D01*
X175749999Y-126400000D01*
X176400001Y-126400000D01*
X176424505Y-126401204D01*
G37*
G36*
X178474505Y-126401204D02*
G01*
X178498773Y-126404804D01*
X178522572Y-126410765D01*
X178545671Y-126419030D01*
X178567850Y-126429520D01*
X178588893Y-126442132D01*
X178608599Y-126456747D01*
X178626777Y-126473223D01*
X178643253Y-126491401D01*
X178657868Y-126511107D01*
X178670480Y-126532150D01*
X178680970Y-126554329D01*
X178689235Y-126577428D01*
X178695196Y-126601227D01*
X178698796Y-126625495D01*
X178700000Y-126649999D01*
X178700000Y-127550001D01*
X178698796Y-127574505D01*
X178695196Y-127598773D01*
X178689235Y-127622572D01*
X178680970Y-127645671D01*
X178670480Y-127667850D01*
X178657868Y-127688893D01*
X178643253Y-127708599D01*
X178626777Y-127726777D01*
X178608599Y-127743253D01*
X178588893Y-127757868D01*
X178567850Y-127770480D01*
X178545671Y-127780970D01*
X178522572Y-127789235D01*
X178498773Y-127795196D01*
X178474505Y-127798796D01*
X178450001Y-127800000D01*
X177799999Y-127800000D01*
X177775495Y-127798796D01*
X177751227Y-127795196D01*
X177727428Y-127789235D01*
X177704329Y-127780970D01*
X177682150Y-127770480D01*
X177661107Y-127757868D01*
X177641401Y-127743253D01*
X177623223Y-127726777D01*
X177606747Y-127708599D01*
X177592132Y-127688893D01*
X177579520Y-127667850D01*
X177569030Y-127645671D01*
X177560765Y-127622572D01*
X177554804Y-127598773D01*
X177551204Y-127574505D01*
X177550000Y-127550001D01*
X177550000Y-126649999D01*
X177551204Y-126625495D01*
X177554804Y-126601227D01*
X177560765Y-126577428D01*
X177569030Y-126554329D01*
X177579520Y-126532150D01*
X177592132Y-126511107D01*
X177606747Y-126491401D01*
X177623223Y-126473223D01*
X177641401Y-126456747D01*
X177661107Y-126442132D01*
X177682150Y-126429520D01*
X177704329Y-126419030D01*
X177727428Y-126410765D01*
X177751227Y-126404804D01*
X177775495Y-126401204D01*
X177799999Y-126400000D01*
X178450001Y-126400000D01*
X178474505Y-126401204D01*
G37*
G36*
X44474505Y-47251204D02*
G01*
X44498773Y-47254804D01*
X44522572Y-47260765D01*
X44545671Y-47269030D01*
X44567850Y-47279520D01*
X44588893Y-47292132D01*
X44608599Y-47306747D01*
X44626777Y-47323223D01*
X44643253Y-47341401D01*
X44657868Y-47361107D01*
X44670480Y-47382150D01*
X44680970Y-47404329D01*
X44689235Y-47427428D01*
X44695196Y-47451227D01*
X44698796Y-47475495D01*
X44700000Y-47499999D01*
X44700000Y-48400001D01*
X44698796Y-48424505D01*
X44695196Y-48448773D01*
X44689235Y-48472572D01*
X44680970Y-48495671D01*
X44670480Y-48517850D01*
X44657868Y-48538893D01*
X44643253Y-48558599D01*
X44626777Y-48576777D01*
X44608599Y-48593253D01*
X44588893Y-48607868D01*
X44567850Y-48620480D01*
X44545671Y-48630970D01*
X44522572Y-48639235D01*
X44498773Y-48645196D01*
X44474505Y-48648796D01*
X44450001Y-48650000D01*
X43799999Y-48650000D01*
X43775495Y-48648796D01*
X43751227Y-48645196D01*
X43727428Y-48639235D01*
X43704329Y-48630970D01*
X43682150Y-48620480D01*
X43661107Y-48607868D01*
X43641401Y-48593253D01*
X43623223Y-48576777D01*
X43606747Y-48558599D01*
X43592132Y-48538893D01*
X43579520Y-48517850D01*
X43569030Y-48495671D01*
X43560765Y-48472572D01*
X43554804Y-48448773D01*
X43551204Y-48424505D01*
X43550000Y-48400001D01*
X43550000Y-47499999D01*
X43551204Y-47475495D01*
X43554804Y-47451227D01*
X43560765Y-47427428D01*
X43569030Y-47404329D01*
X43579520Y-47382150D01*
X43592132Y-47361107D01*
X43606747Y-47341401D01*
X43623223Y-47323223D01*
X43641401Y-47306747D01*
X43661107Y-47292132D01*
X43682150Y-47279520D01*
X43704329Y-47269030D01*
X43727428Y-47260765D01*
X43751227Y-47254804D01*
X43775495Y-47251204D01*
X43799999Y-47250000D01*
X44450001Y-47250000D01*
X44474505Y-47251204D01*
G37*
G36*
X42424505Y-47251204D02*
G01*
X42448773Y-47254804D01*
X42472572Y-47260765D01*
X42495671Y-47269030D01*
X42517850Y-47279520D01*
X42538893Y-47292132D01*
X42558599Y-47306747D01*
X42576777Y-47323223D01*
X42593253Y-47341401D01*
X42607868Y-47361107D01*
X42620480Y-47382150D01*
X42630970Y-47404329D01*
X42639235Y-47427428D01*
X42645196Y-47451227D01*
X42648796Y-47475495D01*
X42650000Y-47499999D01*
X42650000Y-48400001D01*
X42648796Y-48424505D01*
X42645196Y-48448773D01*
X42639235Y-48472572D01*
X42630970Y-48495671D01*
X42620480Y-48517850D01*
X42607868Y-48538893D01*
X42593253Y-48558599D01*
X42576777Y-48576777D01*
X42558599Y-48593253D01*
X42538893Y-48607868D01*
X42517850Y-48620480D01*
X42495671Y-48630970D01*
X42472572Y-48639235D01*
X42448773Y-48645196D01*
X42424505Y-48648796D01*
X42400001Y-48650000D01*
X41749999Y-48650000D01*
X41725495Y-48648796D01*
X41701227Y-48645196D01*
X41677428Y-48639235D01*
X41654329Y-48630970D01*
X41632150Y-48620480D01*
X41611107Y-48607868D01*
X41591401Y-48593253D01*
X41573223Y-48576777D01*
X41556747Y-48558599D01*
X41542132Y-48538893D01*
X41529520Y-48517850D01*
X41519030Y-48495671D01*
X41510765Y-48472572D01*
X41504804Y-48448773D01*
X41501204Y-48424505D01*
X41500000Y-48400001D01*
X41500000Y-47499999D01*
X41501204Y-47475495D01*
X41504804Y-47451227D01*
X41510765Y-47427428D01*
X41519030Y-47404329D01*
X41529520Y-47382150D01*
X41542132Y-47361107D01*
X41556747Y-47341401D01*
X41573223Y-47323223D01*
X41591401Y-47306747D01*
X41611107Y-47292132D01*
X41632150Y-47279520D01*
X41654329Y-47269030D01*
X41677428Y-47260765D01*
X41701227Y-47254804D01*
X41725495Y-47251204D01*
X41749999Y-47250000D01*
X42400001Y-47250000D01*
X42424505Y-47251204D01*
G37*
D16*
X172700000Y-92550000D03*
D15*
X173650000Y-90350000D03*
X171750000Y-90350000D03*
X167100000Y-90350000D03*
X169000000Y-90350000D03*
D16*
X168050000Y-92550000D03*
D18*
X155750000Y-125500000D03*
X152750000Y-125500000D03*
X151250000Y-125500000D03*
D19*
X157150000Y-126150000D03*
X157150000Y-128350000D03*
X149850000Y-128350000D03*
X149850000Y-126150000D03*
D20*
X133340000Y-119951000D03*
X133340000Y-124269000D03*
X130800000Y-119951000D03*
X130800000Y-124269000D03*
X128260000Y-124269000D03*
X128260000Y-119951000D03*
X125720000Y-124269000D03*
X125720000Y-119951000D03*
X123180000Y-124269000D03*
X123180000Y-119951000D03*
X120640000Y-124269000D03*
X120640000Y-119951000D03*
X118100000Y-124269000D03*
X118100000Y-119951000D03*
X115560000Y-124269000D03*
X115560000Y-119951000D03*
X113020000Y-124269000D03*
X113020000Y-119951000D03*
X110480000Y-124269000D03*
X110480000Y-119951000D03*
X107940000Y-124269000D03*
X107940000Y-119951000D03*
X105400000Y-124269000D03*
X105400000Y-119951000D03*
X102860000Y-124269000D03*
X102860000Y-119951000D03*
X100320000Y-124269000D03*
X100320000Y-119951000D03*
D12*
G36*
X78724505Y-48801204D02*
G01*
X78748773Y-48804804D01*
X78772572Y-48810765D01*
X78795671Y-48819030D01*
X78817850Y-48829520D01*
X78838893Y-48842132D01*
X78858599Y-48856747D01*
X78876777Y-48873223D01*
X78893253Y-48891401D01*
X78907868Y-48911107D01*
X78920480Y-48932150D01*
X78930970Y-48954329D01*
X78939235Y-48977428D01*
X78945196Y-49001227D01*
X78948796Y-49025495D01*
X78950000Y-49049999D01*
X78950000Y-49950001D01*
X78948796Y-49974505D01*
X78945196Y-49998773D01*
X78939235Y-50022572D01*
X78930970Y-50045671D01*
X78920480Y-50067850D01*
X78907868Y-50088893D01*
X78893253Y-50108599D01*
X78876777Y-50126777D01*
X78858599Y-50143253D01*
X78838893Y-50157868D01*
X78817850Y-50170480D01*
X78795671Y-50180970D01*
X78772572Y-50189235D01*
X78748773Y-50195196D01*
X78724505Y-50198796D01*
X78700001Y-50200000D01*
X78049999Y-50200000D01*
X78025495Y-50198796D01*
X78001227Y-50195196D01*
X77977428Y-50189235D01*
X77954329Y-50180970D01*
X77932150Y-50170480D01*
X77911107Y-50157868D01*
X77891401Y-50143253D01*
X77873223Y-50126777D01*
X77856747Y-50108599D01*
X77842132Y-50088893D01*
X77829520Y-50067850D01*
X77819030Y-50045671D01*
X77810765Y-50022572D01*
X77804804Y-49998773D01*
X77801204Y-49974505D01*
X77800000Y-49950001D01*
X77800000Y-49049999D01*
X77801204Y-49025495D01*
X77804804Y-49001227D01*
X77810765Y-48977428D01*
X77819030Y-48954329D01*
X77829520Y-48932150D01*
X77842132Y-48911107D01*
X77856747Y-48891401D01*
X77873223Y-48873223D01*
X77891401Y-48856747D01*
X77911107Y-48842132D01*
X77932150Y-48829520D01*
X77954329Y-48819030D01*
X77977428Y-48810765D01*
X78001227Y-48804804D01*
X78025495Y-48801204D01*
X78049999Y-48800000D01*
X78700001Y-48800000D01*
X78724505Y-48801204D01*
G37*
G36*
X80774505Y-48801204D02*
G01*
X80798773Y-48804804D01*
X80822572Y-48810765D01*
X80845671Y-48819030D01*
X80867850Y-48829520D01*
X80888893Y-48842132D01*
X80908599Y-48856747D01*
X80926777Y-48873223D01*
X80943253Y-48891401D01*
X80957868Y-48911107D01*
X80970480Y-48932150D01*
X80980970Y-48954329D01*
X80989235Y-48977428D01*
X80995196Y-49001227D01*
X80998796Y-49025495D01*
X81000000Y-49049999D01*
X81000000Y-49950001D01*
X80998796Y-49974505D01*
X80995196Y-49998773D01*
X80989235Y-50022572D01*
X80980970Y-50045671D01*
X80970480Y-50067850D01*
X80957868Y-50088893D01*
X80943253Y-50108599D01*
X80926777Y-50126777D01*
X80908599Y-50143253D01*
X80888893Y-50157868D01*
X80867850Y-50170480D01*
X80845671Y-50180970D01*
X80822572Y-50189235D01*
X80798773Y-50195196D01*
X80774505Y-50198796D01*
X80750001Y-50200000D01*
X80099999Y-50200000D01*
X80075495Y-50198796D01*
X80051227Y-50195196D01*
X80027428Y-50189235D01*
X80004329Y-50180970D01*
X79982150Y-50170480D01*
X79961107Y-50157868D01*
X79941401Y-50143253D01*
X79923223Y-50126777D01*
X79906747Y-50108599D01*
X79892132Y-50088893D01*
X79879520Y-50067850D01*
X79869030Y-50045671D01*
X79860765Y-50022572D01*
X79854804Y-49998773D01*
X79851204Y-49974505D01*
X79850000Y-49950001D01*
X79850000Y-49049999D01*
X79851204Y-49025495D01*
X79854804Y-49001227D01*
X79860765Y-48977428D01*
X79869030Y-48954329D01*
X79879520Y-48932150D01*
X79892132Y-48911107D01*
X79906747Y-48891401D01*
X79923223Y-48873223D01*
X79941401Y-48856747D01*
X79961107Y-48842132D01*
X79982150Y-48829520D01*
X80004329Y-48819030D01*
X80027428Y-48810765D01*
X80051227Y-48804804D01*
X80075495Y-48801204D01*
X80099999Y-48800000D01*
X80750001Y-48800000D01*
X80774505Y-48801204D01*
G37*
G36*
X156049505Y-51886204D02*
G01*
X156073773Y-51889804D01*
X156097572Y-51895765D01*
X156120671Y-51904030D01*
X156142850Y-51914520D01*
X156163893Y-51927132D01*
X156183599Y-51941747D01*
X156201777Y-51958223D01*
X156218253Y-51976401D01*
X156232868Y-51996107D01*
X156245480Y-52017150D01*
X156255970Y-52039329D01*
X156264235Y-52062428D01*
X156270196Y-52086227D01*
X156273796Y-52110495D01*
X156275000Y-52134999D01*
X156275000Y-52785001D01*
X156273796Y-52809505D01*
X156270196Y-52833773D01*
X156264235Y-52857572D01*
X156255970Y-52880671D01*
X156245480Y-52902850D01*
X156232868Y-52923893D01*
X156218253Y-52943599D01*
X156201777Y-52961777D01*
X156183599Y-52978253D01*
X156163893Y-52992868D01*
X156142850Y-53005480D01*
X156120671Y-53015970D01*
X156097572Y-53024235D01*
X156073773Y-53030196D01*
X156049505Y-53033796D01*
X156025001Y-53035000D01*
X155124999Y-53035000D01*
X155100495Y-53033796D01*
X155076227Y-53030196D01*
X155052428Y-53024235D01*
X155029329Y-53015970D01*
X155007150Y-53005480D01*
X154986107Y-52992868D01*
X154966401Y-52978253D01*
X154948223Y-52961777D01*
X154931747Y-52943599D01*
X154917132Y-52923893D01*
X154904520Y-52902850D01*
X154894030Y-52880671D01*
X154885765Y-52857572D01*
X154879804Y-52833773D01*
X154876204Y-52809505D01*
X154875000Y-52785001D01*
X154875000Y-52134999D01*
X154876204Y-52110495D01*
X154879804Y-52086227D01*
X154885765Y-52062428D01*
X154894030Y-52039329D01*
X154904520Y-52017150D01*
X154917132Y-51996107D01*
X154931747Y-51976401D01*
X154948223Y-51958223D01*
X154966401Y-51941747D01*
X154986107Y-51927132D01*
X155007150Y-51914520D01*
X155029329Y-51904030D01*
X155052428Y-51895765D01*
X155076227Y-51889804D01*
X155100495Y-51886204D01*
X155124999Y-51885000D01*
X156025001Y-51885000D01*
X156049505Y-51886204D01*
G37*
G36*
X156049505Y-49836204D02*
G01*
X156073773Y-49839804D01*
X156097572Y-49845765D01*
X156120671Y-49854030D01*
X156142850Y-49864520D01*
X156163893Y-49877132D01*
X156183599Y-49891747D01*
X156201777Y-49908223D01*
X156218253Y-49926401D01*
X156232868Y-49946107D01*
X156245480Y-49967150D01*
X156255970Y-49989329D01*
X156264235Y-50012428D01*
X156270196Y-50036227D01*
X156273796Y-50060495D01*
X156275000Y-50084999D01*
X156275000Y-50735001D01*
X156273796Y-50759505D01*
X156270196Y-50783773D01*
X156264235Y-50807572D01*
X156255970Y-50830671D01*
X156245480Y-50852850D01*
X156232868Y-50873893D01*
X156218253Y-50893599D01*
X156201777Y-50911777D01*
X156183599Y-50928253D01*
X156163893Y-50942868D01*
X156142850Y-50955480D01*
X156120671Y-50965970D01*
X156097572Y-50974235D01*
X156073773Y-50980196D01*
X156049505Y-50983796D01*
X156025001Y-50985000D01*
X155124999Y-50985000D01*
X155100495Y-50983796D01*
X155076227Y-50980196D01*
X155052428Y-50974235D01*
X155029329Y-50965970D01*
X155007150Y-50955480D01*
X154986107Y-50942868D01*
X154966401Y-50928253D01*
X154948223Y-50911777D01*
X154931747Y-50893599D01*
X154917132Y-50873893D01*
X154904520Y-50852850D01*
X154894030Y-50830671D01*
X154885765Y-50807572D01*
X154879804Y-50783773D01*
X154876204Y-50759505D01*
X154875000Y-50735001D01*
X154875000Y-50084999D01*
X154876204Y-50060495D01*
X154879804Y-50036227D01*
X154885765Y-50012428D01*
X154894030Y-49989329D01*
X154904520Y-49967150D01*
X154917132Y-49946107D01*
X154931747Y-49926401D01*
X154948223Y-49908223D01*
X154966401Y-49891747D01*
X154986107Y-49877132D01*
X155007150Y-49864520D01*
X155029329Y-49854030D01*
X155052428Y-49845765D01*
X155076227Y-49839804D01*
X155100495Y-49836204D01*
X155124999Y-49835000D01*
X156025001Y-49835000D01*
X156049505Y-49836204D01*
G37*
G36*
X159224505Y-51886204D02*
G01*
X159248773Y-51889804D01*
X159272572Y-51895765D01*
X159295671Y-51904030D01*
X159317850Y-51914520D01*
X159338893Y-51927132D01*
X159358599Y-51941747D01*
X159376777Y-51958223D01*
X159393253Y-51976401D01*
X159407868Y-51996107D01*
X159420480Y-52017150D01*
X159430970Y-52039329D01*
X159439235Y-52062428D01*
X159445196Y-52086227D01*
X159448796Y-52110495D01*
X159450000Y-52134999D01*
X159450000Y-52785001D01*
X159448796Y-52809505D01*
X159445196Y-52833773D01*
X159439235Y-52857572D01*
X159430970Y-52880671D01*
X159420480Y-52902850D01*
X159407868Y-52923893D01*
X159393253Y-52943599D01*
X159376777Y-52961777D01*
X159358599Y-52978253D01*
X159338893Y-52992868D01*
X159317850Y-53005480D01*
X159295671Y-53015970D01*
X159272572Y-53024235D01*
X159248773Y-53030196D01*
X159224505Y-53033796D01*
X159200001Y-53035000D01*
X158299999Y-53035000D01*
X158275495Y-53033796D01*
X158251227Y-53030196D01*
X158227428Y-53024235D01*
X158204329Y-53015970D01*
X158182150Y-53005480D01*
X158161107Y-52992868D01*
X158141401Y-52978253D01*
X158123223Y-52961777D01*
X158106747Y-52943599D01*
X158092132Y-52923893D01*
X158079520Y-52902850D01*
X158069030Y-52880671D01*
X158060765Y-52857572D01*
X158054804Y-52833773D01*
X158051204Y-52809505D01*
X158050000Y-52785001D01*
X158050000Y-52134999D01*
X158051204Y-52110495D01*
X158054804Y-52086227D01*
X158060765Y-52062428D01*
X158069030Y-52039329D01*
X158079520Y-52017150D01*
X158092132Y-51996107D01*
X158106747Y-51976401D01*
X158123223Y-51958223D01*
X158141401Y-51941747D01*
X158161107Y-51927132D01*
X158182150Y-51914520D01*
X158204329Y-51904030D01*
X158227428Y-51895765D01*
X158251227Y-51889804D01*
X158275495Y-51886204D01*
X158299999Y-51885000D01*
X159200001Y-51885000D01*
X159224505Y-51886204D01*
G37*
G36*
X159224505Y-49836204D02*
G01*
X159248773Y-49839804D01*
X159272572Y-49845765D01*
X159295671Y-49854030D01*
X159317850Y-49864520D01*
X159338893Y-49877132D01*
X159358599Y-49891747D01*
X159376777Y-49908223D01*
X159393253Y-49926401D01*
X159407868Y-49946107D01*
X159420480Y-49967150D01*
X159430970Y-49989329D01*
X159439235Y-50012428D01*
X159445196Y-50036227D01*
X159448796Y-50060495D01*
X159450000Y-50084999D01*
X159450000Y-50735001D01*
X159448796Y-50759505D01*
X159445196Y-50783773D01*
X159439235Y-50807572D01*
X159430970Y-50830671D01*
X159420480Y-50852850D01*
X159407868Y-50873893D01*
X159393253Y-50893599D01*
X159376777Y-50911777D01*
X159358599Y-50928253D01*
X159338893Y-50942868D01*
X159317850Y-50955480D01*
X159295671Y-50965970D01*
X159272572Y-50974235D01*
X159248773Y-50980196D01*
X159224505Y-50983796D01*
X159200001Y-50985000D01*
X158299999Y-50985000D01*
X158275495Y-50983796D01*
X158251227Y-50980196D01*
X158227428Y-50974235D01*
X158204329Y-50965970D01*
X158182150Y-50955480D01*
X158161107Y-50942868D01*
X158141401Y-50928253D01*
X158123223Y-50911777D01*
X158106747Y-50893599D01*
X158092132Y-50873893D01*
X158079520Y-50852850D01*
X158069030Y-50830671D01*
X158060765Y-50807572D01*
X158054804Y-50783773D01*
X158051204Y-50759505D01*
X158050000Y-50735001D01*
X158050000Y-50084999D01*
X158051204Y-50060495D01*
X158054804Y-50036227D01*
X158060765Y-50012428D01*
X158069030Y-49989329D01*
X158079520Y-49967150D01*
X158092132Y-49946107D01*
X158106747Y-49926401D01*
X158123223Y-49908223D01*
X158141401Y-49891747D01*
X158161107Y-49877132D01*
X158182150Y-49864520D01*
X158204329Y-49854030D01*
X158227428Y-49845765D01*
X158251227Y-49839804D01*
X158275495Y-49836204D01*
X158299999Y-49835000D01*
X159200001Y-49835000D01*
X159224505Y-49836204D01*
G37*
G36*
X169774505Y-50551204D02*
G01*
X169798773Y-50554804D01*
X169822572Y-50560765D01*
X169845671Y-50569030D01*
X169867850Y-50579520D01*
X169888893Y-50592132D01*
X169908599Y-50606747D01*
X169926777Y-50623223D01*
X169943253Y-50641401D01*
X169957868Y-50661107D01*
X169970480Y-50682150D01*
X169980970Y-50704329D01*
X169989235Y-50727428D01*
X169995196Y-50751227D01*
X169998796Y-50775495D01*
X170000000Y-50799999D01*
X170000000Y-51450001D01*
X169998796Y-51474505D01*
X169995196Y-51498773D01*
X169989235Y-51522572D01*
X169980970Y-51545671D01*
X169970480Y-51567850D01*
X169957868Y-51588893D01*
X169943253Y-51608599D01*
X169926777Y-51626777D01*
X169908599Y-51643253D01*
X169888893Y-51657868D01*
X169867850Y-51670480D01*
X169845671Y-51680970D01*
X169822572Y-51689235D01*
X169798773Y-51695196D01*
X169774505Y-51698796D01*
X169750001Y-51700000D01*
X168849999Y-51700000D01*
X168825495Y-51698796D01*
X168801227Y-51695196D01*
X168777428Y-51689235D01*
X168754329Y-51680970D01*
X168732150Y-51670480D01*
X168711107Y-51657868D01*
X168691401Y-51643253D01*
X168673223Y-51626777D01*
X168656747Y-51608599D01*
X168642132Y-51588893D01*
X168629520Y-51567850D01*
X168619030Y-51545671D01*
X168610765Y-51522572D01*
X168604804Y-51498773D01*
X168601204Y-51474505D01*
X168600000Y-51450001D01*
X168600000Y-50799999D01*
X168601204Y-50775495D01*
X168604804Y-50751227D01*
X168610765Y-50727428D01*
X168619030Y-50704329D01*
X168629520Y-50682150D01*
X168642132Y-50661107D01*
X168656747Y-50641401D01*
X168673223Y-50623223D01*
X168691401Y-50606747D01*
X168711107Y-50592132D01*
X168732150Y-50579520D01*
X168754329Y-50569030D01*
X168777428Y-50560765D01*
X168801227Y-50554804D01*
X168825495Y-50551204D01*
X168849999Y-50550000D01*
X169750001Y-50550000D01*
X169774505Y-50551204D01*
G37*
G36*
X169774505Y-52601204D02*
G01*
X169798773Y-52604804D01*
X169822572Y-52610765D01*
X169845671Y-52619030D01*
X169867850Y-52629520D01*
X169888893Y-52642132D01*
X169908599Y-52656747D01*
X169926777Y-52673223D01*
X169943253Y-52691401D01*
X169957868Y-52711107D01*
X169970480Y-52732150D01*
X169980970Y-52754329D01*
X169989235Y-52777428D01*
X169995196Y-52801227D01*
X169998796Y-52825495D01*
X170000000Y-52849999D01*
X170000000Y-53500001D01*
X169998796Y-53524505D01*
X169995196Y-53548773D01*
X169989235Y-53572572D01*
X169980970Y-53595671D01*
X169970480Y-53617850D01*
X169957868Y-53638893D01*
X169943253Y-53658599D01*
X169926777Y-53676777D01*
X169908599Y-53693253D01*
X169888893Y-53707868D01*
X169867850Y-53720480D01*
X169845671Y-53730970D01*
X169822572Y-53739235D01*
X169798773Y-53745196D01*
X169774505Y-53748796D01*
X169750001Y-53750000D01*
X168849999Y-53750000D01*
X168825495Y-53748796D01*
X168801227Y-53745196D01*
X168777428Y-53739235D01*
X168754329Y-53730970D01*
X168732150Y-53720480D01*
X168711107Y-53707868D01*
X168691401Y-53693253D01*
X168673223Y-53676777D01*
X168656747Y-53658599D01*
X168642132Y-53638893D01*
X168629520Y-53617850D01*
X168619030Y-53595671D01*
X168610765Y-53572572D01*
X168604804Y-53548773D01*
X168601204Y-53524505D01*
X168600000Y-53500001D01*
X168600000Y-52849999D01*
X168601204Y-52825495D01*
X168604804Y-52801227D01*
X168610765Y-52777428D01*
X168619030Y-52754329D01*
X168629520Y-52732150D01*
X168642132Y-52711107D01*
X168656747Y-52691401D01*
X168673223Y-52673223D01*
X168691401Y-52656747D01*
X168711107Y-52642132D01*
X168732150Y-52629520D01*
X168754329Y-52619030D01*
X168777428Y-52610765D01*
X168801227Y-52604804D01*
X168825495Y-52601204D01*
X168849999Y-52600000D01*
X169750001Y-52600000D01*
X169774505Y-52601204D01*
G37*
D21*
X173750000Y-98900000D03*
X173750000Y-99700000D03*
X173750000Y-100500000D03*
X173750000Y-101300000D03*
X173750000Y-102100000D03*
X173750000Y-102900000D03*
X173750000Y-103700000D03*
X173750000Y-104500000D03*
D22*
X172300000Y-105950000D03*
X171500000Y-105950000D03*
X170700000Y-105950000D03*
X169900000Y-105950000D03*
X169100000Y-105950000D03*
X168300000Y-105950000D03*
X167500000Y-105950000D03*
X166700000Y-105950000D03*
D21*
X165250000Y-104500000D03*
X165250000Y-103700000D03*
X165250000Y-102900000D03*
X165250000Y-102100000D03*
X165250000Y-101300000D03*
X165250000Y-100500000D03*
X165250000Y-99700000D03*
X165250000Y-98900000D03*
D22*
X166700000Y-97450000D03*
X167500000Y-97450000D03*
X168300000Y-97450000D03*
X169100000Y-97450000D03*
X169900000Y-97450000D03*
X170700000Y-97450000D03*
X171500000Y-97450000D03*
X172300000Y-97450000D03*
D12*
G36*
X179274505Y-100051204D02*
G01*
X179298773Y-100054804D01*
X179322572Y-100060765D01*
X179345671Y-100069030D01*
X179367850Y-100079520D01*
X179388893Y-100092132D01*
X179408599Y-100106747D01*
X179426777Y-100123223D01*
X179443253Y-100141401D01*
X179457868Y-100161107D01*
X179470480Y-100182150D01*
X179480970Y-100204329D01*
X179489235Y-100227428D01*
X179495196Y-100251227D01*
X179498796Y-100275495D01*
X179500000Y-100299999D01*
X179500000Y-100950001D01*
X179498796Y-100974505D01*
X179495196Y-100998773D01*
X179489235Y-101022572D01*
X179480970Y-101045671D01*
X179470480Y-101067850D01*
X179457868Y-101088893D01*
X179443253Y-101108599D01*
X179426777Y-101126777D01*
X179408599Y-101143253D01*
X179388893Y-101157868D01*
X179367850Y-101170480D01*
X179345671Y-101180970D01*
X179322572Y-101189235D01*
X179298773Y-101195196D01*
X179274505Y-101198796D01*
X179250001Y-101200000D01*
X178349999Y-101200000D01*
X178325495Y-101198796D01*
X178301227Y-101195196D01*
X178277428Y-101189235D01*
X178254329Y-101180970D01*
X178232150Y-101170480D01*
X178211107Y-101157868D01*
X178191401Y-101143253D01*
X178173223Y-101126777D01*
X178156747Y-101108599D01*
X178142132Y-101088893D01*
X178129520Y-101067850D01*
X178119030Y-101045671D01*
X178110765Y-101022572D01*
X178104804Y-100998773D01*
X178101204Y-100974505D01*
X178100000Y-100950001D01*
X178100000Y-100299999D01*
X178101204Y-100275495D01*
X178104804Y-100251227D01*
X178110765Y-100227428D01*
X178119030Y-100204329D01*
X178129520Y-100182150D01*
X178142132Y-100161107D01*
X178156747Y-100141401D01*
X178173223Y-100123223D01*
X178191401Y-100106747D01*
X178211107Y-100092132D01*
X178232150Y-100079520D01*
X178254329Y-100069030D01*
X178277428Y-100060765D01*
X178301227Y-100054804D01*
X178325495Y-100051204D01*
X178349999Y-100050000D01*
X179250001Y-100050000D01*
X179274505Y-100051204D01*
G37*
G36*
X179274505Y-98001204D02*
G01*
X179298773Y-98004804D01*
X179322572Y-98010765D01*
X179345671Y-98019030D01*
X179367850Y-98029520D01*
X179388893Y-98042132D01*
X179408599Y-98056747D01*
X179426777Y-98073223D01*
X179443253Y-98091401D01*
X179457868Y-98111107D01*
X179470480Y-98132150D01*
X179480970Y-98154329D01*
X179489235Y-98177428D01*
X179495196Y-98201227D01*
X179498796Y-98225495D01*
X179500000Y-98249999D01*
X179500000Y-98900001D01*
X179498796Y-98924505D01*
X179495196Y-98948773D01*
X179489235Y-98972572D01*
X179480970Y-98995671D01*
X179470480Y-99017850D01*
X179457868Y-99038893D01*
X179443253Y-99058599D01*
X179426777Y-99076777D01*
X179408599Y-99093253D01*
X179388893Y-99107868D01*
X179367850Y-99120480D01*
X179345671Y-99130970D01*
X179322572Y-99139235D01*
X179298773Y-99145196D01*
X179274505Y-99148796D01*
X179250001Y-99150000D01*
X178349999Y-99150000D01*
X178325495Y-99148796D01*
X178301227Y-99145196D01*
X178277428Y-99139235D01*
X178254329Y-99130970D01*
X178232150Y-99120480D01*
X178211107Y-99107868D01*
X178191401Y-99093253D01*
X178173223Y-99076777D01*
X178156747Y-99058599D01*
X178142132Y-99038893D01*
X178129520Y-99017850D01*
X178119030Y-98995671D01*
X178110765Y-98972572D01*
X178104804Y-98948773D01*
X178101204Y-98924505D01*
X178100000Y-98900001D01*
X178100000Y-98249999D01*
X178101204Y-98225495D01*
X178104804Y-98201227D01*
X178110765Y-98177428D01*
X178119030Y-98154329D01*
X178129520Y-98132150D01*
X178142132Y-98111107D01*
X178156747Y-98091401D01*
X178173223Y-98073223D01*
X178191401Y-98056747D01*
X178211107Y-98042132D01*
X178232150Y-98029520D01*
X178254329Y-98019030D01*
X178277428Y-98010765D01*
X178301227Y-98004804D01*
X178325495Y-98001204D01*
X178349999Y-98000000D01*
X179250001Y-98000000D01*
X179274505Y-98001204D01*
G37*
G36*
X181474505Y-98001204D02*
G01*
X181498773Y-98004804D01*
X181522572Y-98010765D01*
X181545671Y-98019030D01*
X181567850Y-98029520D01*
X181588893Y-98042132D01*
X181608599Y-98056747D01*
X181626777Y-98073223D01*
X181643253Y-98091401D01*
X181657868Y-98111107D01*
X181670480Y-98132150D01*
X181680970Y-98154329D01*
X181689235Y-98177428D01*
X181695196Y-98201227D01*
X181698796Y-98225495D01*
X181700000Y-98249999D01*
X181700000Y-98900001D01*
X181698796Y-98924505D01*
X181695196Y-98948773D01*
X181689235Y-98972572D01*
X181680970Y-98995671D01*
X181670480Y-99017850D01*
X181657868Y-99038893D01*
X181643253Y-99058599D01*
X181626777Y-99076777D01*
X181608599Y-99093253D01*
X181588893Y-99107868D01*
X181567850Y-99120480D01*
X181545671Y-99130970D01*
X181522572Y-99139235D01*
X181498773Y-99145196D01*
X181474505Y-99148796D01*
X181450001Y-99150000D01*
X180549999Y-99150000D01*
X180525495Y-99148796D01*
X180501227Y-99145196D01*
X180477428Y-99139235D01*
X180454329Y-99130970D01*
X180432150Y-99120480D01*
X180411107Y-99107868D01*
X180391401Y-99093253D01*
X180373223Y-99076777D01*
X180356747Y-99058599D01*
X180342132Y-99038893D01*
X180329520Y-99017850D01*
X180319030Y-98995671D01*
X180310765Y-98972572D01*
X180304804Y-98948773D01*
X180301204Y-98924505D01*
X180300000Y-98900001D01*
X180300000Y-98249999D01*
X180301204Y-98225495D01*
X180304804Y-98201227D01*
X180310765Y-98177428D01*
X180319030Y-98154329D01*
X180329520Y-98132150D01*
X180342132Y-98111107D01*
X180356747Y-98091401D01*
X180373223Y-98073223D01*
X180391401Y-98056747D01*
X180411107Y-98042132D01*
X180432150Y-98029520D01*
X180454329Y-98019030D01*
X180477428Y-98010765D01*
X180501227Y-98004804D01*
X180525495Y-98001204D01*
X180549999Y-98000000D01*
X181450001Y-98000000D01*
X181474505Y-98001204D01*
G37*
G36*
X181474505Y-100051204D02*
G01*
X181498773Y-100054804D01*
X181522572Y-100060765D01*
X181545671Y-100069030D01*
X181567850Y-100079520D01*
X181588893Y-100092132D01*
X181608599Y-100106747D01*
X181626777Y-100123223D01*
X181643253Y-100141401D01*
X181657868Y-100161107D01*
X181670480Y-100182150D01*
X181680970Y-100204329D01*
X181689235Y-100227428D01*
X181695196Y-100251227D01*
X181698796Y-100275495D01*
X181700000Y-100299999D01*
X181700000Y-100950001D01*
X181698796Y-100974505D01*
X181695196Y-100998773D01*
X181689235Y-101022572D01*
X181680970Y-101045671D01*
X181670480Y-101067850D01*
X181657868Y-101088893D01*
X181643253Y-101108599D01*
X181626777Y-101126777D01*
X181608599Y-101143253D01*
X181588893Y-101157868D01*
X181567850Y-101170480D01*
X181545671Y-101180970D01*
X181522572Y-101189235D01*
X181498773Y-101195196D01*
X181474505Y-101198796D01*
X181450001Y-101200000D01*
X180549999Y-101200000D01*
X180525495Y-101198796D01*
X180501227Y-101195196D01*
X180477428Y-101189235D01*
X180454329Y-101180970D01*
X180432150Y-101170480D01*
X180411107Y-101157868D01*
X180391401Y-101143253D01*
X180373223Y-101126777D01*
X180356747Y-101108599D01*
X180342132Y-101088893D01*
X180329520Y-101067850D01*
X180319030Y-101045671D01*
X180310765Y-101022572D01*
X180304804Y-100998773D01*
X180301204Y-100974505D01*
X180300000Y-100950001D01*
X180300000Y-100299999D01*
X180301204Y-100275495D01*
X180304804Y-100251227D01*
X180310765Y-100227428D01*
X180319030Y-100204329D01*
X180329520Y-100182150D01*
X180342132Y-100161107D01*
X180356747Y-100141401D01*
X180373223Y-100123223D01*
X180391401Y-100106747D01*
X180411107Y-100092132D01*
X180432150Y-100079520D01*
X180454329Y-100069030D01*
X180477428Y-100060765D01*
X180501227Y-100054804D01*
X180525495Y-100051204D01*
X180549999Y-100050000D01*
X181450001Y-100050000D01*
X181474505Y-100051204D01*
G37*
G36*
X77944505Y-52766204D02*
G01*
X77968773Y-52769804D01*
X77992572Y-52775765D01*
X78015671Y-52784030D01*
X78037850Y-52794520D01*
X78058893Y-52807132D01*
X78078599Y-52821747D01*
X78096777Y-52838223D01*
X78113253Y-52856401D01*
X78127868Y-52876107D01*
X78140480Y-52897150D01*
X78150970Y-52919329D01*
X78159235Y-52942428D01*
X78165196Y-52966227D01*
X78168796Y-52990495D01*
X78170000Y-53014999D01*
X78170000Y-53665001D01*
X78168796Y-53689505D01*
X78165196Y-53713773D01*
X78159235Y-53737572D01*
X78150970Y-53760671D01*
X78140480Y-53782850D01*
X78127868Y-53803893D01*
X78113253Y-53823599D01*
X78096777Y-53841777D01*
X78078599Y-53858253D01*
X78058893Y-53872868D01*
X78037850Y-53885480D01*
X78015671Y-53895970D01*
X77992572Y-53904235D01*
X77968773Y-53910196D01*
X77944505Y-53913796D01*
X77920001Y-53915000D01*
X77019999Y-53915000D01*
X76995495Y-53913796D01*
X76971227Y-53910196D01*
X76947428Y-53904235D01*
X76924329Y-53895970D01*
X76902150Y-53885480D01*
X76881107Y-53872868D01*
X76861401Y-53858253D01*
X76843223Y-53841777D01*
X76826747Y-53823599D01*
X76812132Y-53803893D01*
X76799520Y-53782850D01*
X76789030Y-53760671D01*
X76780765Y-53737572D01*
X76774804Y-53713773D01*
X76771204Y-53689505D01*
X76770000Y-53665001D01*
X76770000Y-53014999D01*
X76771204Y-52990495D01*
X76774804Y-52966227D01*
X76780765Y-52942428D01*
X76789030Y-52919329D01*
X76799520Y-52897150D01*
X76812132Y-52876107D01*
X76826747Y-52856401D01*
X76843223Y-52838223D01*
X76861401Y-52821747D01*
X76881107Y-52807132D01*
X76902150Y-52794520D01*
X76924329Y-52784030D01*
X76947428Y-52775765D01*
X76971227Y-52769804D01*
X76995495Y-52766204D01*
X77019999Y-52765000D01*
X77920001Y-52765000D01*
X77944505Y-52766204D01*
G37*
G36*
X77944505Y-54816204D02*
G01*
X77968773Y-54819804D01*
X77992572Y-54825765D01*
X78015671Y-54834030D01*
X78037850Y-54844520D01*
X78058893Y-54857132D01*
X78078599Y-54871747D01*
X78096777Y-54888223D01*
X78113253Y-54906401D01*
X78127868Y-54926107D01*
X78140480Y-54947150D01*
X78150970Y-54969329D01*
X78159235Y-54992428D01*
X78165196Y-55016227D01*
X78168796Y-55040495D01*
X78170000Y-55064999D01*
X78170000Y-55715001D01*
X78168796Y-55739505D01*
X78165196Y-55763773D01*
X78159235Y-55787572D01*
X78150970Y-55810671D01*
X78140480Y-55832850D01*
X78127868Y-55853893D01*
X78113253Y-55873599D01*
X78096777Y-55891777D01*
X78078599Y-55908253D01*
X78058893Y-55922868D01*
X78037850Y-55935480D01*
X78015671Y-55945970D01*
X77992572Y-55954235D01*
X77968773Y-55960196D01*
X77944505Y-55963796D01*
X77920001Y-55965000D01*
X77019999Y-55965000D01*
X76995495Y-55963796D01*
X76971227Y-55960196D01*
X76947428Y-55954235D01*
X76924329Y-55945970D01*
X76902150Y-55935480D01*
X76881107Y-55922868D01*
X76861401Y-55908253D01*
X76843223Y-55891777D01*
X76826747Y-55873599D01*
X76812132Y-55853893D01*
X76799520Y-55832850D01*
X76789030Y-55810671D01*
X76780765Y-55787572D01*
X76774804Y-55763773D01*
X76771204Y-55739505D01*
X76770000Y-55715001D01*
X76770000Y-55064999D01*
X76771204Y-55040495D01*
X76774804Y-55016227D01*
X76780765Y-54992428D01*
X76789030Y-54969329D01*
X76799520Y-54947150D01*
X76812132Y-54926107D01*
X76826747Y-54906401D01*
X76843223Y-54888223D01*
X76861401Y-54871747D01*
X76881107Y-54857132D01*
X76902150Y-54844520D01*
X76924329Y-54834030D01*
X76947428Y-54825765D01*
X76971227Y-54819804D01*
X76995495Y-54816204D01*
X77019999Y-54815000D01*
X77920001Y-54815000D01*
X77944505Y-54816204D01*
G37*
G36*
X75669505Y-52641204D02*
G01*
X75693773Y-52644804D01*
X75717572Y-52650765D01*
X75740671Y-52659030D01*
X75762850Y-52669520D01*
X75783893Y-52682132D01*
X75803599Y-52696747D01*
X75821777Y-52713223D01*
X75838253Y-52731401D01*
X75852868Y-52751107D01*
X75865480Y-52772150D01*
X75875970Y-52794329D01*
X75884235Y-52817428D01*
X75890196Y-52841227D01*
X75893796Y-52865495D01*
X75895000Y-52889999D01*
X75895000Y-53790001D01*
X75893796Y-53814505D01*
X75890196Y-53838773D01*
X75884235Y-53862572D01*
X75875970Y-53885671D01*
X75865480Y-53907850D01*
X75852868Y-53928893D01*
X75838253Y-53948599D01*
X75821777Y-53966777D01*
X75803599Y-53983253D01*
X75783893Y-53997868D01*
X75762850Y-54010480D01*
X75740671Y-54020970D01*
X75717572Y-54029235D01*
X75693773Y-54035196D01*
X75669505Y-54038796D01*
X75645001Y-54040000D01*
X74994999Y-54040000D01*
X74970495Y-54038796D01*
X74946227Y-54035196D01*
X74922428Y-54029235D01*
X74899329Y-54020970D01*
X74877150Y-54010480D01*
X74856107Y-53997868D01*
X74836401Y-53983253D01*
X74818223Y-53966777D01*
X74801747Y-53948599D01*
X74787132Y-53928893D01*
X74774520Y-53907850D01*
X74764030Y-53885671D01*
X74755765Y-53862572D01*
X74749804Y-53838773D01*
X74746204Y-53814505D01*
X74745000Y-53790001D01*
X74745000Y-52889999D01*
X74746204Y-52865495D01*
X74749804Y-52841227D01*
X74755765Y-52817428D01*
X74764030Y-52794329D01*
X74774520Y-52772150D01*
X74787132Y-52751107D01*
X74801747Y-52731401D01*
X74818223Y-52713223D01*
X74836401Y-52696747D01*
X74856107Y-52682132D01*
X74877150Y-52669520D01*
X74899329Y-52659030D01*
X74922428Y-52650765D01*
X74946227Y-52644804D01*
X74970495Y-52641204D01*
X74994999Y-52640000D01*
X75645001Y-52640000D01*
X75669505Y-52641204D01*
G37*
G36*
X73619505Y-52641204D02*
G01*
X73643773Y-52644804D01*
X73667572Y-52650765D01*
X73690671Y-52659030D01*
X73712850Y-52669520D01*
X73733893Y-52682132D01*
X73753599Y-52696747D01*
X73771777Y-52713223D01*
X73788253Y-52731401D01*
X73802868Y-52751107D01*
X73815480Y-52772150D01*
X73825970Y-52794329D01*
X73834235Y-52817428D01*
X73840196Y-52841227D01*
X73843796Y-52865495D01*
X73845000Y-52889999D01*
X73845000Y-53790001D01*
X73843796Y-53814505D01*
X73840196Y-53838773D01*
X73834235Y-53862572D01*
X73825970Y-53885671D01*
X73815480Y-53907850D01*
X73802868Y-53928893D01*
X73788253Y-53948599D01*
X73771777Y-53966777D01*
X73753599Y-53983253D01*
X73733893Y-53997868D01*
X73712850Y-54010480D01*
X73690671Y-54020970D01*
X73667572Y-54029235D01*
X73643773Y-54035196D01*
X73619505Y-54038796D01*
X73595001Y-54040000D01*
X72944999Y-54040000D01*
X72920495Y-54038796D01*
X72896227Y-54035196D01*
X72872428Y-54029235D01*
X72849329Y-54020970D01*
X72827150Y-54010480D01*
X72806107Y-53997868D01*
X72786401Y-53983253D01*
X72768223Y-53966777D01*
X72751747Y-53948599D01*
X72737132Y-53928893D01*
X72724520Y-53907850D01*
X72714030Y-53885671D01*
X72705765Y-53862572D01*
X72699804Y-53838773D01*
X72696204Y-53814505D01*
X72695000Y-53790001D01*
X72695000Y-52889999D01*
X72696204Y-52865495D01*
X72699804Y-52841227D01*
X72705765Y-52817428D01*
X72714030Y-52794329D01*
X72724520Y-52772150D01*
X72737132Y-52751107D01*
X72751747Y-52731401D01*
X72768223Y-52713223D01*
X72786401Y-52696747D01*
X72806107Y-52682132D01*
X72827150Y-52669520D01*
X72849329Y-52659030D01*
X72872428Y-52650765D01*
X72896227Y-52644804D01*
X72920495Y-52641204D01*
X72944999Y-52640000D01*
X73595001Y-52640000D01*
X73619505Y-52641204D01*
G37*
G36*
X82289505Y-53011204D02*
G01*
X82313773Y-53014804D01*
X82337572Y-53020765D01*
X82360671Y-53029030D01*
X82382850Y-53039520D01*
X82403893Y-53052132D01*
X82423599Y-53066747D01*
X82441777Y-53083223D01*
X82458253Y-53101401D01*
X82472868Y-53121107D01*
X82485480Y-53142150D01*
X82495970Y-53164329D01*
X82504235Y-53187428D01*
X82510196Y-53211227D01*
X82513796Y-53235495D01*
X82515000Y-53259999D01*
X82515000Y-53910001D01*
X82513796Y-53934505D01*
X82510196Y-53958773D01*
X82504235Y-53982572D01*
X82495970Y-54005671D01*
X82485480Y-54027850D01*
X82472868Y-54048893D01*
X82458253Y-54068599D01*
X82441777Y-54086777D01*
X82423599Y-54103253D01*
X82403893Y-54117868D01*
X82382850Y-54130480D01*
X82360671Y-54140970D01*
X82337572Y-54149235D01*
X82313773Y-54155196D01*
X82289505Y-54158796D01*
X82265001Y-54160000D01*
X81364999Y-54160000D01*
X81340495Y-54158796D01*
X81316227Y-54155196D01*
X81292428Y-54149235D01*
X81269329Y-54140970D01*
X81247150Y-54130480D01*
X81226107Y-54117868D01*
X81206401Y-54103253D01*
X81188223Y-54086777D01*
X81171747Y-54068599D01*
X81157132Y-54048893D01*
X81144520Y-54027850D01*
X81134030Y-54005671D01*
X81125765Y-53982572D01*
X81119804Y-53958773D01*
X81116204Y-53934505D01*
X81115000Y-53910001D01*
X81115000Y-53259999D01*
X81116204Y-53235495D01*
X81119804Y-53211227D01*
X81125765Y-53187428D01*
X81134030Y-53164329D01*
X81144520Y-53142150D01*
X81157132Y-53121107D01*
X81171747Y-53101401D01*
X81188223Y-53083223D01*
X81206401Y-53066747D01*
X81226107Y-53052132D01*
X81247150Y-53039520D01*
X81269329Y-53029030D01*
X81292428Y-53020765D01*
X81316227Y-53014804D01*
X81340495Y-53011204D01*
X81364999Y-53010000D01*
X82265001Y-53010000D01*
X82289505Y-53011204D01*
G37*
G36*
X82289505Y-55061204D02*
G01*
X82313773Y-55064804D01*
X82337572Y-55070765D01*
X82360671Y-55079030D01*
X82382850Y-55089520D01*
X82403893Y-55102132D01*
X82423599Y-55116747D01*
X82441777Y-55133223D01*
X82458253Y-55151401D01*
X82472868Y-55171107D01*
X82485480Y-55192150D01*
X82495970Y-55214329D01*
X82504235Y-55237428D01*
X82510196Y-55261227D01*
X82513796Y-55285495D01*
X82515000Y-55309999D01*
X82515000Y-55960001D01*
X82513796Y-55984505D01*
X82510196Y-56008773D01*
X82504235Y-56032572D01*
X82495970Y-56055671D01*
X82485480Y-56077850D01*
X82472868Y-56098893D01*
X82458253Y-56118599D01*
X82441777Y-56136777D01*
X82423599Y-56153253D01*
X82403893Y-56167868D01*
X82382850Y-56180480D01*
X82360671Y-56190970D01*
X82337572Y-56199235D01*
X82313773Y-56205196D01*
X82289505Y-56208796D01*
X82265001Y-56210000D01*
X81364999Y-56210000D01*
X81340495Y-56208796D01*
X81316227Y-56205196D01*
X81292428Y-56199235D01*
X81269329Y-56190970D01*
X81247150Y-56180480D01*
X81226107Y-56167868D01*
X81206401Y-56153253D01*
X81188223Y-56136777D01*
X81171747Y-56118599D01*
X81157132Y-56098893D01*
X81144520Y-56077850D01*
X81134030Y-56055671D01*
X81125765Y-56032572D01*
X81119804Y-56008773D01*
X81116204Y-55984505D01*
X81115000Y-55960001D01*
X81115000Y-55309999D01*
X81116204Y-55285495D01*
X81119804Y-55261227D01*
X81125765Y-55237428D01*
X81134030Y-55214329D01*
X81144520Y-55192150D01*
X81157132Y-55171107D01*
X81171747Y-55151401D01*
X81188223Y-55133223D01*
X81206401Y-55116747D01*
X81226107Y-55102132D01*
X81247150Y-55089520D01*
X81269329Y-55079030D01*
X81292428Y-55070765D01*
X81316227Y-55064804D01*
X81340495Y-55061204D01*
X81364999Y-55060000D01*
X82265001Y-55060000D01*
X82289505Y-55061204D01*
G37*
G36*
X84194505Y-53011204D02*
G01*
X84218773Y-53014804D01*
X84242572Y-53020765D01*
X84265671Y-53029030D01*
X84287850Y-53039520D01*
X84308893Y-53052132D01*
X84328599Y-53066747D01*
X84346777Y-53083223D01*
X84363253Y-53101401D01*
X84377868Y-53121107D01*
X84390480Y-53142150D01*
X84400970Y-53164329D01*
X84409235Y-53187428D01*
X84415196Y-53211227D01*
X84418796Y-53235495D01*
X84420000Y-53259999D01*
X84420000Y-53910001D01*
X84418796Y-53934505D01*
X84415196Y-53958773D01*
X84409235Y-53982572D01*
X84400970Y-54005671D01*
X84390480Y-54027850D01*
X84377868Y-54048893D01*
X84363253Y-54068599D01*
X84346777Y-54086777D01*
X84328599Y-54103253D01*
X84308893Y-54117868D01*
X84287850Y-54130480D01*
X84265671Y-54140970D01*
X84242572Y-54149235D01*
X84218773Y-54155196D01*
X84194505Y-54158796D01*
X84170001Y-54160000D01*
X83269999Y-54160000D01*
X83245495Y-54158796D01*
X83221227Y-54155196D01*
X83197428Y-54149235D01*
X83174329Y-54140970D01*
X83152150Y-54130480D01*
X83131107Y-54117868D01*
X83111401Y-54103253D01*
X83093223Y-54086777D01*
X83076747Y-54068599D01*
X83062132Y-54048893D01*
X83049520Y-54027850D01*
X83039030Y-54005671D01*
X83030765Y-53982572D01*
X83024804Y-53958773D01*
X83021204Y-53934505D01*
X83020000Y-53910001D01*
X83020000Y-53259999D01*
X83021204Y-53235495D01*
X83024804Y-53211227D01*
X83030765Y-53187428D01*
X83039030Y-53164329D01*
X83049520Y-53142150D01*
X83062132Y-53121107D01*
X83076747Y-53101401D01*
X83093223Y-53083223D01*
X83111401Y-53066747D01*
X83131107Y-53052132D01*
X83152150Y-53039520D01*
X83174329Y-53029030D01*
X83197428Y-53020765D01*
X83221227Y-53014804D01*
X83245495Y-53011204D01*
X83269999Y-53010000D01*
X84170001Y-53010000D01*
X84194505Y-53011204D01*
G37*
G36*
X84194505Y-55061204D02*
G01*
X84218773Y-55064804D01*
X84242572Y-55070765D01*
X84265671Y-55079030D01*
X84287850Y-55089520D01*
X84308893Y-55102132D01*
X84328599Y-55116747D01*
X84346777Y-55133223D01*
X84363253Y-55151401D01*
X84377868Y-55171107D01*
X84390480Y-55192150D01*
X84400970Y-55214329D01*
X84409235Y-55237428D01*
X84415196Y-55261227D01*
X84418796Y-55285495D01*
X84420000Y-55309999D01*
X84420000Y-55960001D01*
X84418796Y-55984505D01*
X84415196Y-56008773D01*
X84409235Y-56032572D01*
X84400970Y-56055671D01*
X84390480Y-56077850D01*
X84377868Y-56098893D01*
X84363253Y-56118599D01*
X84346777Y-56136777D01*
X84328599Y-56153253D01*
X84308893Y-56167868D01*
X84287850Y-56180480D01*
X84265671Y-56190970D01*
X84242572Y-56199235D01*
X84218773Y-56205196D01*
X84194505Y-56208796D01*
X84170001Y-56210000D01*
X83269999Y-56210000D01*
X83245495Y-56208796D01*
X83221227Y-56205196D01*
X83197428Y-56199235D01*
X83174329Y-56190970D01*
X83152150Y-56180480D01*
X83131107Y-56167868D01*
X83111401Y-56153253D01*
X83093223Y-56136777D01*
X83076747Y-56118599D01*
X83062132Y-56098893D01*
X83049520Y-56077850D01*
X83039030Y-56055671D01*
X83030765Y-56032572D01*
X83024804Y-56008773D01*
X83021204Y-55984505D01*
X83020000Y-55960001D01*
X83020000Y-55309999D01*
X83021204Y-55285495D01*
X83024804Y-55261227D01*
X83030765Y-55237428D01*
X83039030Y-55214329D01*
X83049520Y-55192150D01*
X83062132Y-55171107D01*
X83076747Y-55151401D01*
X83093223Y-55133223D01*
X83111401Y-55116747D01*
X83131107Y-55102132D01*
X83152150Y-55089520D01*
X83174329Y-55079030D01*
X83197428Y-55070765D01*
X83221227Y-55064804D01*
X83245495Y-55061204D01*
X83269999Y-55060000D01*
X84170001Y-55060000D01*
X84194505Y-55061204D01*
G37*
G36*
X75669505Y-54681204D02*
G01*
X75693773Y-54684804D01*
X75717572Y-54690765D01*
X75740671Y-54699030D01*
X75762850Y-54709520D01*
X75783893Y-54722132D01*
X75803599Y-54736747D01*
X75821777Y-54753223D01*
X75838253Y-54771401D01*
X75852868Y-54791107D01*
X75865480Y-54812150D01*
X75875970Y-54834329D01*
X75884235Y-54857428D01*
X75890196Y-54881227D01*
X75893796Y-54905495D01*
X75895000Y-54929999D01*
X75895000Y-55830001D01*
X75893796Y-55854505D01*
X75890196Y-55878773D01*
X75884235Y-55902572D01*
X75875970Y-55925671D01*
X75865480Y-55947850D01*
X75852868Y-55968893D01*
X75838253Y-55988599D01*
X75821777Y-56006777D01*
X75803599Y-56023253D01*
X75783893Y-56037868D01*
X75762850Y-56050480D01*
X75740671Y-56060970D01*
X75717572Y-56069235D01*
X75693773Y-56075196D01*
X75669505Y-56078796D01*
X75645001Y-56080000D01*
X74994999Y-56080000D01*
X74970495Y-56078796D01*
X74946227Y-56075196D01*
X74922428Y-56069235D01*
X74899329Y-56060970D01*
X74877150Y-56050480D01*
X74856107Y-56037868D01*
X74836401Y-56023253D01*
X74818223Y-56006777D01*
X74801747Y-55988599D01*
X74787132Y-55968893D01*
X74774520Y-55947850D01*
X74764030Y-55925671D01*
X74755765Y-55902572D01*
X74749804Y-55878773D01*
X74746204Y-55854505D01*
X74745000Y-55830001D01*
X74745000Y-54929999D01*
X74746204Y-54905495D01*
X74749804Y-54881227D01*
X74755765Y-54857428D01*
X74764030Y-54834329D01*
X74774520Y-54812150D01*
X74787132Y-54791107D01*
X74801747Y-54771401D01*
X74818223Y-54753223D01*
X74836401Y-54736747D01*
X74856107Y-54722132D01*
X74877150Y-54709520D01*
X74899329Y-54699030D01*
X74922428Y-54690765D01*
X74946227Y-54684804D01*
X74970495Y-54681204D01*
X74994999Y-54680000D01*
X75645001Y-54680000D01*
X75669505Y-54681204D01*
G37*
G36*
X73619505Y-54681204D02*
G01*
X73643773Y-54684804D01*
X73667572Y-54690765D01*
X73690671Y-54699030D01*
X73712850Y-54709520D01*
X73733893Y-54722132D01*
X73753599Y-54736747D01*
X73771777Y-54753223D01*
X73788253Y-54771401D01*
X73802868Y-54791107D01*
X73815480Y-54812150D01*
X73825970Y-54834329D01*
X73834235Y-54857428D01*
X73840196Y-54881227D01*
X73843796Y-54905495D01*
X73845000Y-54929999D01*
X73845000Y-55830001D01*
X73843796Y-55854505D01*
X73840196Y-55878773D01*
X73834235Y-55902572D01*
X73825970Y-55925671D01*
X73815480Y-55947850D01*
X73802868Y-55968893D01*
X73788253Y-55988599D01*
X73771777Y-56006777D01*
X73753599Y-56023253D01*
X73733893Y-56037868D01*
X73712850Y-56050480D01*
X73690671Y-56060970D01*
X73667572Y-56069235D01*
X73643773Y-56075196D01*
X73619505Y-56078796D01*
X73595001Y-56080000D01*
X72944999Y-56080000D01*
X72920495Y-56078796D01*
X72896227Y-56075196D01*
X72872428Y-56069235D01*
X72849329Y-56060970D01*
X72827150Y-56050480D01*
X72806107Y-56037868D01*
X72786401Y-56023253D01*
X72768223Y-56006777D01*
X72751747Y-55988599D01*
X72737132Y-55968893D01*
X72724520Y-55947850D01*
X72714030Y-55925671D01*
X72705765Y-55902572D01*
X72699804Y-55878773D01*
X72696204Y-55854505D01*
X72695000Y-55830001D01*
X72695000Y-54929999D01*
X72696204Y-54905495D01*
X72699804Y-54881227D01*
X72705765Y-54857428D01*
X72714030Y-54834329D01*
X72724520Y-54812150D01*
X72737132Y-54791107D01*
X72751747Y-54771401D01*
X72768223Y-54753223D01*
X72786401Y-54736747D01*
X72806107Y-54722132D01*
X72827150Y-54709520D01*
X72849329Y-54699030D01*
X72872428Y-54690765D01*
X72896227Y-54684804D01*
X72920495Y-54681204D01*
X72944999Y-54680000D01*
X73595001Y-54680000D01*
X73619505Y-54681204D01*
G37*
G36*
X176489505Y-108521204D02*
G01*
X176513773Y-108524804D01*
X176537572Y-108530765D01*
X176560671Y-108539030D01*
X176582850Y-108549520D01*
X176603893Y-108562132D01*
X176623599Y-108576747D01*
X176641777Y-108593223D01*
X176658253Y-108611401D01*
X176672868Y-108631107D01*
X176685480Y-108652150D01*
X176695970Y-108674329D01*
X176704235Y-108697428D01*
X176710196Y-108721227D01*
X176713796Y-108745495D01*
X176715000Y-108769999D01*
X176715000Y-109670001D01*
X176713796Y-109694505D01*
X176710196Y-109718773D01*
X176704235Y-109742572D01*
X176695970Y-109765671D01*
X176685480Y-109787850D01*
X176672868Y-109808893D01*
X176658253Y-109828599D01*
X176641777Y-109846777D01*
X176623599Y-109863253D01*
X176603893Y-109877868D01*
X176582850Y-109890480D01*
X176560671Y-109900970D01*
X176537572Y-109909235D01*
X176513773Y-109915196D01*
X176489505Y-109918796D01*
X176465001Y-109920000D01*
X175814999Y-109920000D01*
X175790495Y-109918796D01*
X175766227Y-109915196D01*
X175742428Y-109909235D01*
X175719329Y-109900970D01*
X175697150Y-109890480D01*
X175676107Y-109877868D01*
X175656401Y-109863253D01*
X175638223Y-109846777D01*
X175621747Y-109828599D01*
X175607132Y-109808893D01*
X175594520Y-109787850D01*
X175584030Y-109765671D01*
X175575765Y-109742572D01*
X175569804Y-109718773D01*
X175566204Y-109694505D01*
X175565000Y-109670001D01*
X175565000Y-108769999D01*
X175566204Y-108745495D01*
X175569804Y-108721227D01*
X175575765Y-108697428D01*
X175584030Y-108674329D01*
X175594520Y-108652150D01*
X175607132Y-108631107D01*
X175621747Y-108611401D01*
X175638223Y-108593223D01*
X175656401Y-108576747D01*
X175676107Y-108562132D01*
X175697150Y-108549520D01*
X175719329Y-108539030D01*
X175742428Y-108530765D01*
X175766227Y-108524804D01*
X175790495Y-108521204D01*
X175814999Y-108520000D01*
X176465001Y-108520000D01*
X176489505Y-108521204D01*
G37*
G36*
X178539505Y-108521204D02*
G01*
X178563773Y-108524804D01*
X178587572Y-108530765D01*
X178610671Y-108539030D01*
X178632850Y-108549520D01*
X178653893Y-108562132D01*
X178673599Y-108576747D01*
X178691777Y-108593223D01*
X178708253Y-108611401D01*
X178722868Y-108631107D01*
X178735480Y-108652150D01*
X178745970Y-108674329D01*
X178754235Y-108697428D01*
X178760196Y-108721227D01*
X178763796Y-108745495D01*
X178765000Y-108769999D01*
X178765000Y-109670001D01*
X178763796Y-109694505D01*
X178760196Y-109718773D01*
X178754235Y-109742572D01*
X178745970Y-109765671D01*
X178735480Y-109787850D01*
X178722868Y-109808893D01*
X178708253Y-109828599D01*
X178691777Y-109846777D01*
X178673599Y-109863253D01*
X178653893Y-109877868D01*
X178632850Y-109890480D01*
X178610671Y-109900970D01*
X178587572Y-109909235D01*
X178563773Y-109915196D01*
X178539505Y-109918796D01*
X178515001Y-109920000D01*
X177864999Y-109920000D01*
X177840495Y-109918796D01*
X177816227Y-109915196D01*
X177792428Y-109909235D01*
X177769329Y-109900970D01*
X177747150Y-109890480D01*
X177726107Y-109877868D01*
X177706401Y-109863253D01*
X177688223Y-109846777D01*
X177671747Y-109828599D01*
X177657132Y-109808893D01*
X177644520Y-109787850D01*
X177634030Y-109765671D01*
X177625765Y-109742572D01*
X177619804Y-109718773D01*
X177616204Y-109694505D01*
X177615000Y-109670001D01*
X177615000Y-108769999D01*
X177616204Y-108745495D01*
X177619804Y-108721227D01*
X177625765Y-108697428D01*
X177634030Y-108674329D01*
X177644520Y-108652150D01*
X177657132Y-108631107D01*
X177671747Y-108611401D01*
X177688223Y-108593223D01*
X177706401Y-108576747D01*
X177726107Y-108562132D01*
X177747150Y-108549520D01*
X177769329Y-108539030D01*
X177792428Y-108530765D01*
X177816227Y-108524804D01*
X177840495Y-108521204D01*
X177864999Y-108520000D01*
X178515001Y-108520000D01*
X178539505Y-108521204D01*
G37*
G36*
X174964703Y-72960722D02*
G01*
X174979264Y-72962882D01*
X174993543Y-72966459D01*
X175007403Y-72971418D01*
X175020710Y-72977712D01*
X175033336Y-72985280D01*
X175045159Y-72994048D01*
X175056066Y-73003934D01*
X175065952Y-73014841D01*
X175074720Y-73026664D01*
X175082288Y-73039290D01*
X175088582Y-73052597D01*
X175093541Y-73066457D01*
X175097118Y-73080736D01*
X175099278Y-73095297D01*
X175100000Y-73110000D01*
X175100000Y-73410000D01*
X175099278Y-73424703D01*
X175097118Y-73439264D01*
X175093541Y-73453543D01*
X175088582Y-73467403D01*
X175082288Y-73480710D01*
X175074720Y-73493336D01*
X175065952Y-73505159D01*
X175056066Y-73516066D01*
X175045159Y-73525952D01*
X175033336Y-73534720D01*
X175020710Y-73542288D01*
X175007403Y-73548582D01*
X174993543Y-73553541D01*
X174979264Y-73557118D01*
X174964703Y-73559278D01*
X174950000Y-73560000D01*
X173300000Y-73560000D01*
X173285297Y-73559278D01*
X173270736Y-73557118D01*
X173256457Y-73553541D01*
X173242597Y-73548582D01*
X173229290Y-73542288D01*
X173216664Y-73534720D01*
X173204841Y-73525952D01*
X173193934Y-73516066D01*
X173184048Y-73505159D01*
X173175280Y-73493336D01*
X173167712Y-73480710D01*
X173161418Y-73467403D01*
X173156459Y-73453543D01*
X173152882Y-73439264D01*
X173150722Y-73424703D01*
X173150000Y-73410000D01*
X173150000Y-73110000D01*
X173150722Y-73095297D01*
X173152882Y-73080736D01*
X173156459Y-73066457D01*
X173161418Y-73052597D01*
X173167712Y-73039290D01*
X173175280Y-73026664D01*
X173184048Y-73014841D01*
X173193934Y-73003934D01*
X173204841Y-72994048D01*
X173216664Y-72985280D01*
X173229290Y-72977712D01*
X173242597Y-72971418D01*
X173256457Y-72966459D01*
X173270736Y-72962882D01*
X173285297Y-72960722D01*
X173300000Y-72960000D01*
X174950000Y-72960000D01*
X174964703Y-72960722D01*
G37*
G36*
X174964703Y-71690722D02*
G01*
X174979264Y-71692882D01*
X174993543Y-71696459D01*
X175007403Y-71701418D01*
X175020710Y-71707712D01*
X175033336Y-71715280D01*
X175045159Y-71724048D01*
X175056066Y-71733934D01*
X175065952Y-71744841D01*
X175074720Y-71756664D01*
X175082288Y-71769290D01*
X175088582Y-71782597D01*
X175093541Y-71796457D01*
X175097118Y-71810736D01*
X175099278Y-71825297D01*
X175100000Y-71840000D01*
X175100000Y-72140000D01*
X175099278Y-72154703D01*
X175097118Y-72169264D01*
X175093541Y-72183543D01*
X175088582Y-72197403D01*
X175082288Y-72210710D01*
X175074720Y-72223336D01*
X175065952Y-72235159D01*
X175056066Y-72246066D01*
X175045159Y-72255952D01*
X175033336Y-72264720D01*
X175020710Y-72272288D01*
X175007403Y-72278582D01*
X174993543Y-72283541D01*
X174979264Y-72287118D01*
X174964703Y-72289278D01*
X174950000Y-72290000D01*
X173300000Y-72290000D01*
X173285297Y-72289278D01*
X173270736Y-72287118D01*
X173256457Y-72283541D01*
X173242597Y-72278582D01*
X173229290Y-72272288D01*
X173216664Y-72264720D01*
X173204841Y-72255952D01*
X173193934Y-72246066D01*
X173184048Y-72235159D01*
X173175280Y-72223336D01*
X173167712Y-72210710D01*
X173161418Y-72197403D01*
X173156459Y-72183543D01*
X173152882Y-72169264D01*
X173150722Y-72154703D01*
X173150000Y-72140000D01*
X173150000Y-71840000D01*
X173150722Y-71825297D01*
X173152882Y-71810736D01*
X173156459Y-71796457D01*
X173161418Y-71782597D01*
X173167712Y-71769290D01*
X173175280Y-71756664D01*
X173184048Y-71744841D01*
X173193934Y-71733934D01*
X173204841Y-71724048D01*
X173216664Y-71715280D01*
X173229290Y-71707712D01*
X173242597Y-71701418D01*
X173256457Y-71696459D01*
X173270736Y-71692882D01*
X173285297Y-71690722D01*
X173300000Y-71690000D01*
X174950000Y-71690000D01*
X174964703Y-71690722D01*
G37*
G36*
X174964703Y-70420722D02*
G01*
X174979264Y-70422882D01*
X174993543Y-70426459D01*
X175007403Y-70431418D01*
X175020710Y-70437712D01*
X175033336Y-70445280D01*
X175045159Y-70454048D01*
X175056066Y-70463934D01*
X175065952Y-70474841D01*
X175074720Y-70486664D01*
X175082288Y-70499290D01*
X175088582Y-70512597D01*
X175093541Y-70526457D01*
X175097118Y-70540736D01*
X175099278Y-70555297D01*
X175100000Y-70570000D01*
X175100000Y-70870000D01*
X175099278Y-70884703D01*
X175097118Y-70899264D01*
X175093541Y-70913543D01*
X175088582Y-70927403D01*
X175082288Y-70940710D01*
X175074720Y-70953336D01*
X175065952Y-70965159D01*
X175056066Y-70976066D01*
X175045159Y-70985952D01*
X175033336Y-70994720D01*
X175020710Y-71002288D01*
X175007403Y-71008582D01*
X174993543Y-71013541D01*
X174979264Y-71017118D01*
X174964703Y-71019278D01*
X174950000Y-71020000D01*
X173300000Y-71020000D01*
X173285297Y-71019278D01*
X173270736Y-71017118D01*
X173256457Y-71013541D01*
X173242597Y-71008582D01*
X173229290Y-71002288D01*
X173216664Y-70994720D01*
X173204841Y-70985952D01*
X173193934Y-70976066D01*
X173184048Y-70965159D01*
X173175280Y-70953336D01*
X173167712Y-70940710D01*
X173161418Y-70927403D01*
X173156459Y-70913543D01*
X173152882Y-70899264D01*
X173150722Y-70884703D01*
X173150000Y-70870000D01*
X173150000Y-70570000D01*
X173150722Y-70555297D01*
X173152882Y-70540736D01*
X173156459Y-70526457D01*
X173161418Y-70512597D01*
X173167712Y-70499290D01*
X173175280Y-70486664D01*
X173184048Y-70474841D01*
X173193934Y-70463934D01*
X173204841Y-70454048D01*
X173216664Y-70445280D01*
X173229290Y-70437712D01*
X173242597Y-70431418D01*
X173256457Y-70426459D01*
X173270736Y-70422882D01*
X173285297Y-70420722D01*
X173300000Y-70420000D01*
X174950000Y-70420000D01*
X174964703Y-70420722D01*
G37*
G36*
X174964703Y-69150722D02*
G01*
X174979264Y-69152882D01*
X174993543Y-69156459D01*
X175007403Y-69161418D01*
X175020710Y-69167712D01*
X175033336Y-69175280D01*
X175045159Y-69184048D01*
X175056066Y-69193934D01*
X175065952Y-69204841D01*
X175074720Y-69216664D01*
X175082288Y-69229290D01*
X175088582Y-69242597D01*
X175093541Y-69256457D01*
X175097118Y-69270736D01*
X175099278Y-69285297D01*
X175100000Y-69300000D01*
X175100000Y-69600000D01*
X175099278Y-69614703D01*
X175097118Y-69629264D01*
X175093541Y-69643543D01*
X175088582Y-69657403D01*
X175082288Y-69670710D01*
X175074720Y-69683336D01*
X175065952Y-69695159D01*
X175056066Y-69706066D01*
X175045159Y-69715952D01*
X175033336Y-69724720D01*
X175020710Y-69732288D01*
X175007403Y-69738582D01*
X174993543Y-69743541D01*
X174979264Y-69747118D01*
X174964703Y-69749278D01*
X174950000Y-69750000D01*
X173300000Y-69750000D01*
X173285297Y-69749278D01*
X173270736Y-69747118D01*
X173256457Y-69743541D01*
X173242597Y-69738582D01*
X173229290Y-69732288D01*
X173216664Y-69724720D01*
X173204841Y-69715952D01*
X173193934Y-69706066D01*
X173184048Y-69695159D01*
X173175280Y-69683336D01*
X173167712Y-69670710D01*
X173161418Y-69657403D01*
X173156459Y-69643543D01*
X173152882Y-69629264D01*
X173150722Y-69614703D01*
X173150000Y-69600000D01*
X173150000Y-69300000D01*
X173150722Y-69285297D01*
X173152882Y-69270736D01*
X173156459Y-69256457D01*
X173161418Y-69242597D01*
X173167712Y-69229290D01*
X173175280Y-69216664D01*
X173184048Y-69204841D01*
X173193934Y-69193934D01*
X173204841Y-69184048D01*
X173216664Y-69175280D01*
X173229290Y-69167712D01*
X173242597Y-69161418D01*
X173256457Y-69156459D01*
X173270736Y-69152882D01*
X173285297Y-69150722D01*
X173300000Y-69150000D01*
X174950000Y-69150000D01*
X174964703Y-69150722D01*
G37*
G36*
X174964703Y-67880722D02*
G01*
X174979264Y-67882882D01*
X174993543Y-67886459D01*
X175007403Y-67891418D01*
X175020710Y-67897712D01*
X175033336Y-67905280D01*
X175045159Y-67914048D01*
X175056066Y-67923934D01*
X175065952Y-67934841D01*
X175074720Y-67946664D01*
X175082288Y-67959290D01*
X175088582Y-67972597D01*
X175093541Y-67986457D01*
X175097118Y-68000736D01*
X175099278Y-68015297D01*
X175100000Y-68030000D01*
X175100000Y-68330000D01*
X175099278Y-68344703D01*
X175097118Y-68359264D01*
X175093541Y-68373543D01*
X175088582Y-68387403D01*
X175082288Y-68400710D01*
X175074720Y-68413336D01*
X175065952Y-68425159D01*
X175056066Y-68436066D01*
X175045159Y-68445952D01*
X175033336Y-68454720D01*
X175020710Y-68462288D01*
X175007403Y-68468582D01*
X174993543Y-68473541D01*
X174979264Y-68477118D01*
X174964703Y-68479278D01*
X174950000Y-68480000D01*
X173300000Y-68480000D01*
X173285297Y-68479278D01*
X173270736Y-68477118D01*
X173256457Y-68473541D01*
X173242597Y-68468582D01*
X173229290Y-68462288D01*
X173216664Y-68454720D01*
X173204841Y-68445952D01*
X173193934Y-68436066D01*
X173184048Y-68425159D01*
X173175280Y-68413336D01*
X173167712Y-68400710D01*
X173161418Y-68387403D01*
X173156459Y-68373543D01*
X173152882Y-68359264D01*
X173150722Y-68344703D01*
X173150000Y-68330000D01*
X173150000Y-68030000D01*
X173150722Y-68015297D01*
X173152882Y-68000736D01*
X173156459Y-67986457D01*
X173161418Y-67972597D01*
X173167712Y-67959290D01*
X173175280Y-67946664D01*
X173184048Y-67934841D01*
X173193934Y-67923934D01*
X173204841Y-67914048D01*
X173216664Y-67905280D01*
X173229290Y-67897712D01*
X173242597Y-67891418D01*
X173256457Y-67886459D01*
X173270736Y-67882882D01*
X173285297Y-67880722D01*
X173300000Y-67880000D01*
X174950000Y-67880000D01*
X174964703Y-67880722D01*
G37*
G36*
X174964703Y-66610722D02*
G01*
X174979264Y-66612882D01*
X174993543Y-66616459D01*
X175007403Y-66621418D01*
X175020710Y-66627712D01*
X175033336Y-66635280D01*
X175045159Y-66644048D01*
X175056066Y-66653934D01*
X175065952Y-66664841D01*
X175074720Y-66676664D01*
X175082288Y-66689290D01*
X175088582Y-66702597D01*
X175093541Y-66716457D01*
X175097118Y-66730736D01*
X175099278Y-66745297D01*
X175100000Y-66760000D01*
X175100000Y-67060000D01*
X175099278Y-67074703D01*
X175097118Y-67089264D01*
X175093541Y-67103543D01*
X175088582Y-67117403D01*
X175082288Y-67130710D01*
X175074720Y-67143336D01*
X175065952Y-67155159D01*
X175056066Y-67166066D01*
X175045159Y-67175952D01*
X175033336Y-67184720D01*
X175020710Y-67192288D01*
X175007403Y-67198582D01*
X174993543Y-67203541D01*
X174979264Y-67207118D01*
X174964703Y-67209278D01*
X174950000Y-67210000D01*
X173300000Y-67210000D01*
X173285297Y-67209278D01*
X173270736Y-67207118D01*
X173256457Y-67203541D01*
X173242597Y-67198582D01*
X173229290Y-67192288D01*
X173216664Y-67184720D01*
X173204841Y-67175952D01*
X173193934Y-67166066D01*
X173184048Y-67155159D01*
X173175280Y-67143336D01*
X173167712Y-67130710D01*
X173161418Y-67117403D01*
X173156459Y-67103543D01*
X173152882Y-67089264D01*
X173150722Y-67074703D01*
X173150000Y-67060000D01*
X173150000Y-66760000D01*
X173150722Y-66745297D01*
X173152882Y-66730736D01*
X173156459Y-66716457D01*
X173161418Y-66702597D01*
X173167712Y-66689290D01*
X173175280Y-66676664D01*
X173184048Y-66664841D01*
X173193934Y-66653934D01*
X173204841Y-66644048D01*
X173216664Y-66635280D01*
X173229290Y-66627712D01*
X173242597Y-66621418D01*
X173256457Y-66616459D01*
X173270736Y-66612882D01*
X173285297Y-66610722D01*
X173300000Y-66610000D01*
X174950000Y-66610000D01*
X174964703Y-66610722D01*
G37*
G36*
X174964703Y-65340722D02*
G01*
X174979264Y-65342882D01*
X174993543Y-65346459D01*
X175007403Y-65351418D01*
X175020710Y-65357712D01*
X175033336Y-65365280D01*
X175045159Y-65374048D01*
X175056066Y-65383934D01*
X175065952Y-65394841D01*
X175074720Y-65406664D01*
X175082288Y-65419290D01*
X175088582Y-65432597D01*
X175093541Y-65446457D01*
X175097118Y-65460736D01*
X175099278Y-65475297D01*
X175100000Y-65490000D01*
X175100000Y-65790000D01*
X175099278Y-65804703D01*
X175097118Y-65819264D01*
X175093541Y-65833543D01*
X175088582Y-65847403D01*
X175082288Y-65860710D01*
X175074720Y-65873336D01*
X175065952Y-65885159D01*
X175056066Y-65896066D01*
X175045159Y-65905952D01*
X175033336Y-65914720D01*
X175020710Y-65922288D01*
X175007403Y-65928582D01*
X174993543Y-65933541D01*
X174979264Y-65937118D01*
X174964703Y-65939278D01*
X174950000Y-65940000D01*
X173300000Y-65940000D01*
X173285297Y-65939278D01*
X173270736Y-65937118D01*
X173256457Y-65933541D01*
X173242597Y-65928582D01*
X173229290Y-65922288D01*
X173216664Y-65914720D01*
X173204841Y-65905952D01*
X173193934Y-65896066D01*
X173184048Y-65885159D01*
X173175280Y-65873336D01*
X173167712Y-65860710D01*
X173161418Y-65847403D01*
X173156459Y-65833543D01*
X173152882Y-65819264D01*
X173150722Y-65804703D01*
X173150000Y-65790000D01*
X173150000Y-65490000D01*
X173150722Y-65475297D01*
X173152882Y-65460736D01*
X173156459Y-65446457D01*
X173161418Y-65432597D01*
X173167712Y-65419290D01*
X173175280Y-65406664D01*
X173184048Y-65394841D01*
X173193934Y-65383934D01*
X173204841Y-65374048D01*
X173216664Y-65365280D01*
X173229290Y-65357712D01*
X173242597Y-65351418D01*
X173256457Y-65346459D01*
X173270736Y-65342882D01*
X173285297Y-65340722D01*
X173300000Y-65340000D01*
X174950000Y-65340000D01*
X174964703Y-65340722D01*
G37*
G36*
X179914703Y-65340722D02*
G01*
X179929264Y-65342882D01*
X179943543Y-65346459D01*
X179957403Y-65351418D01*
X179970710Y-65357712D01*
X179983336Y-65365280D01*
X179995159Y-65374048D01*
X180006066Y-65383934D01*
X180015952Y-65394841D01*
X180024720Y-65406664D01*
X180032288Y-65419290D01*
X180038582Y-65432597D01*
X180043541Y-65446457D01*
X180047118Y-65460736D01*
X180049278Y-65475297D01*
X180050000Y-65490000D01*
X180050000Y-65790000D01*
X180049278Y-65804703D01*
X180047118Y-65819264D01*
X180043541Y-65833543D01*
X180038582Y-65847403D01*
X180032288Y-65860710D01*
X180024720Y-65873336D01*
X180015952Y-65885159D01*
X180006066Y-65896066D01*
X179995159Y-65905952D01*
X179983336Y-65914720D01*
X179970710Y-65922288D01*
X179957403Y-65928582D01*
X179943543Y-65933541D01*
X179929264Y-65937118D01*
X179914703Y-65939278D01*
X179900000Y-65940000D01*
X178250000Y-65940000D01*
X178235297Y-65939278D01*
X178220736Y-65937118D01*
X178206457Y-65933541D01*
X178192597Y-65928582D01*
X178179290Y-65922288D01*
X178166664Y-65914720D01*
X178154841Y-65905952D01*
X178143934Y-65896066D01*
X178134048Y-65885159D01*
X178125280Y-65873336D01*
X178117712Y-65860710D01*
X178111418Y-65847403D01*
X178106459Y-65833543D01*
X178102882Y-65819264D01*
X178100722Y-65804703D01*
X178100000Y-65790000D01*
X178100000Y-65490000D01*
X178100722Y-65475297D01*
X178102882Y-65460736D01*
X178106459Y-65446457D01*
X178111418Y-65432597D01*
X178117712Y-65419290D01*
X178125280Y-65406664D01*
X178134048Y-65394841D01*
X178143934Y-65383934D01*
X178154841Y-65374048D01*
X178166664Y-65365280D01*
X178179290Y-65357712D01*
X178192597Y-65351418D01*
X178206457Y-65346459D01*
X178220736Y-65342882D01*
X178235297Y-65340722D01*
X178250000Y-65340000D01*
X179900000Y-65340000D01*
X179914703Y-65340722D01*
G37*
G36*
X179914703Y-66610722D02*
G01*
X179929264Y-66612882D01*
X179943543Y-66616459D01*
X179957403Y-66621418D01*
X179970710Y-66627712D01*
X179983336Y-66635280D01*
X179995159Y-66644048D01*
X180006066Y-66653934D01*
X180015952Y-66664841D01*
X180024720Y-66676664D01*
X180032288Y-66689290D01*
X180038582Y-66702597D01*
X180043541Y-66716457D01*
X180047118Y-66730736D01*
X180049278Y-66745297D01*
X180050000Y-66760000D01*
X180050000Y-67060000D01*
X180049278Y-67074703D01*
X180047118Y-67089264D01*
X180043541Y-67103543D01*
X180038582Y-67117403D01*
X180032288Y-67130710D01*
X180024720Y-67143336D01*
X180015952Y-67155159D01*
X180006066Y-67166066D01*
X179995159Y-67175952D01*
X179983336Y-67184720D01*
X179970710Y-67192288D01*
X179957403Y-67198582D01*
X179943543Y-67203541D01*
X179929264Y-67207118D01*
X179914703Y-67209278D01*
X179900000Y-67210000D01*
X178250000Y-67210000D01*
X178235297Y-67209278D01*
X178220736Y-67207118D01*
X178206457Y-67203541D01*
X178192597Y-67198582D01*
X178179290Y-67192288D01*
X178166664Y-67184720D01*
X178154841Y-67175952D01*
X178143934Y-67166066D01*
X178134048Y-67155159D01*
X178125280Y-67143336D01*
X178117712Y-67130710D01*
X178111418Y-67117403D01*
X178106459Y-67103543D01*
X178102882Y-67089264D01*
X178100722Y-67074703D01*
X178100000Y-67060000D01*
X178100000Y-66760000D01*
X178100722Y-66745297D01*
X178102882Y-66730736D01*
X178106459Y-66716457D01*
X178111418Y-66702597D01*
X178117712Y-66689290D01*
X178125280Y-66676664D01*
X178134048Y-66664841D01*
X178143934Y-66653934D01*
X178154841Y-66644048D01*
X178166664Y-66635280D01*
X178179290Y-66627712D01*
X178192597Y-66621418D01*
X178206457Y-66616459D01*
X178220736Y-66612882D01*
X178235297Y-66610722D01*
X178250000Y-66610000D01*
X179900000Y-66610000D01*
X179914703Y-66610722D01*
G37*
G36*
X179914703Y-67880722D02*
G01*
X179929264Y-67882882D01*
X179943543Y-67886459D01*
X179957403Y-67891418D01*
X179970710Y-67897712D01*
X179983336Y-67905280D01*
X179995159Y-67914048D01*
X180006066Y-67923934D01*
X180015952Y-67934841D01*
X180024720Y-67946664D01*
X180032288Y-67959290D01*
X180038582Y-67972597D01*
X180043541Y-67986457D01*
X180047118Y-68000736D01*
X180049278Y-68015297D01*
X180050000Y-68030000D01*
X180050000Y-68330000D01*
X180049278Y-68344703D01*
X180047118Y-68359264D01*
X180043541Y-68373543D01*
X180038582Y-68387403D01*
X180032288Y-68400710D01*
X180024720Y-68413336D01*
X180015952Y-68425159D01*
X180006066Y-68436066D01*
X179995159Y-68445952D01*
X179983336Y-68454720D01*
X179970710Y-68462288D01*
X179957403Y-68468582D01*
X179943543Y-68473541D01*
X179929264Y-68477118D01*
X179914703Y-68479278D01*
X179900000Y-68480000D01*
X178250000Y-68480000D01*
X178235297Y-68479278D01*
X178220736Y-68477118D01*
X178206457Y-68473541D01*
X178192597Y-68468582D01*
X178179290Y-68462288D01*
X178166664Y-68454720D01*
X178154841Y-68445952D01*
X178143934Y-68436066D01*
X178134048Y-68425159D01*
X178125280Y-68413336D01*
X178117712Y-68400710D01*
X178111418Y-68387403D01*
X178106459Y-68373543D01*
X178102882Y-68359264D01*
X178100722Y-68344703D01*
X178100000Y-68330000D01*
X178100000Y-68030000D01*
X178100722Y-68015297D01*
X178102882Y-68000736D01*
X178106459Y-67986457D01*
X178111418Y-67972597D01*
X178117712Y-67959290D01*
X178125280Y-67946664D01*
X178134048Y-67934841D01*
X178143934Y-67923934D01*
X178154841Y-67914048D01*
X178166664Y-67905280D01*
X178179290Y-67897712D01*
X178192597Y-67891418D01*
X178206457Y-67886459D01*
X178220736Y-67882882D01*
X178235297Y-67880722D01*
X178250000Y-67880000D01*
X179900000Y-67880000D01*
X179914703Y-67880722D01*
G37*
G36*
X179914703Y-69150722D02*
G01*
X179929264Y-69152882D01*
X179943543Y-69156459D01*
X179957403Y-69161418D01*
X179970710Y-69167712D01*
X179983336Y-69175280D01*
X179995159Y-69184048D01*
X180006066Y-69193934D01*
X180015952Y-69204841D01*
X180024720Y-69216664D01*
X180032288Y-69229290D01*
X180038582Y-69242597D01*
X180043541Y-69256457D01*
X180047118Y-69270736D01*
X180049278Y-69285297D01*
X180050000Y-69300000D01*
X180050000Y-69600000D01*
X180049278Y-69614703D01*
X180047118Y-69629264D01*
X180043541Y-69643543D01*
X180038582Y-69657403D01*
X180032288Y-69670710D01*
X180024720Y-69683336D01*
X180015952Y-69695159D01*
X180006066Y-69706066D01*
X179995159Y-69715952D01*
X179983336Y-69724720D01*
X179970710Y-69732288D01*
X179957403Y-69738582D01*
X179943543Y-69743541D01*
X179929264Y-69747118D01*
X179914703Y-69749278D01*
X179900000Y-69750000D01*
X178250000Y-69750000D01*
X178235297Y-69749278D01*
X178220736Y-69747118D01*
X178206457Y-69743541D01*
X178192597Y-69738582D01*
X178179290Y-69732288D01*
X178166664Y-69724720D01*
X178154841Y-69715952D01*
X178143934Y-69706066D01*
X178134048Y-69695159D01*
X178125280Y-69683336D01*
X178117712Y-69670710D01*
X178111418Y-69657403D01*
X178106459Y-69643543D01*
X178102882Y-69629264D01*
X178100722Y-69614703D01*
X178100000Y-69600000D01*
X178100000Y-69300000D01*
X178100722Y-69285297D01*
X178102882Y-69270736D01*
X178106459Y-69256457D01*
X178111418Y-69242597D01*
X178117712Y-69229290D01*
X178125280Y-69216664D01*
X178134048Y-69204841D01*
X178143934Y-69193934D01*
X178154841Y-69184048D01*
X178166664Y-69175280D01*
X178179290Y-69167712D01*
X178192597Y-69161418D01*
X178206457Y-69156459D01*
X178220736Y-69152882D01*
X178235297Y-69150722D01*
X178250000Y-69150000D01*
X179900000Y-69150000D01*
X179914703Y-69150722D01*
G37*
G36*
X179914703Y-70420722D02*
G01*
X179929264Y-70422882D01*
X179943543Y-70426459D01*
X179957403Y-70431418D01*
X179970710Y-70437712D01*
X179983336Y-70445280D01*
X179995159Y-70454048D01*
X180006066Y-70463934D01*
X180015952Y-70474841D01*
X180024720Y-70486664D01*
X180032288Y-70499290D01*
X180038582Y-70512597D01*
X180043541Y-70526457D01*
X180047118Y-70540736D01*
X180049278Y-70555297D01*
X180050000Y-70570000D01*
X180050000Y-70870000D01*
X180049278Y-70884703D01*
X180047118Y-70899264D01*
X180043541Y-70913543D01*
X180038582Y-70927403D01*
X180032288Y-70940710D01*
X180024720Y-70953336D01*
X180015952Y-70965159D01*
X180006066Y-70976066D01*
X179995159Y-70985952D01*
X179983336Y-70994720D01*
X179970710Y-71002288D01*
X179957403Y-71008582D01*
X179943543Y-71013541D01*
X179929264Y-71017118D01*
X179914703Y-71019278D01*
X179900000Y-71020000D01*
X178250000Y-71020000D01*
X178235297Y-71019278D01*
X178220736Y-71017118D01*
X178206457Y-71013541D01*
X178192597Y-71008582D01*
X178179290Y-71002288D01*
X178166664Y-70994720D01*
X178154841Y-70985952D01*
X178143934Y-70976066D01*
X178134048Y-70965159D01*
X178125280Y-70953336D01*
X178117712Y-70940710D01*
X178111418Y-70927403D01*
X178106459Y-70913543D01*
X178102882Y-70899264D01*
X178100722Y-70884703D01*
X178100000Y-70870000D01*
X178100000Y-70570000D01*
X178100722Y-70555297D01*
X178102882Y-70540736D01*
X178106459Y-70526457D01*
X178111418Y-70512597D01*
X178117712Y-70499290D01*
X178125280Y-70486664D01*
X178134048Y-70474841D01*
X178143934Y-70463934D01*
X178154841Y-70454048D01*
X178166664Y-70445280D01*
X178179290Y-70437712D01*
X178192597Y-70431418D01*
X178206457Y-70426459D01*
X178220736Y-70422882D01*
X178235297Y-70420722D01*
X178250000Y-70420000D01*
X179900000Y-70420000D01*
X179914703Y-70420722D01*
G37*
G36*
X179914703Y-71690722D02*
G01*
X179929264Y-71692882D01*
X179943543Y-71696459D01*
X179957403Y-71701418D01*
X179970710Y-71707712D01*
X179983336Y-71715280D01*
X179995159Y-71724048D01*
X180006066Y-71733934D01*
X180015952Y-71744841D01*
X180024720Y-71756664D01*
X180032288Y-71769290D01*
X180038582Y-71782597D01*
X180043541Y-71796457D01*
X180047118Y-71810736D01*
X180049278Y-71825297D01*
X180050000Y-71840000D01*
X180050000Y-72140000D01*
X180049278Y-72154703D01*
X180047118Y-72169264D01*
X180043541Y-72183543D01*
X180038582Y-72197403D01*
X180032288Y-72210710D01*
X180024720Y-72223336D01*
X180015952Y-72235159D01*
X180006066Y-72246066D01*
X179995159Y-72255952D01*
X179983336Y-72264720D01*
X179970710Y-72272288D01*
X179957403Y-72278582D01*
X179943543Y-72283541D01*
X179929264Y-72287118D01*
X179914703Y-72289278D01*
X179900000Y-72290000D01*
X178250000Y-72290000D01*
X178235297Y-72289278D01*
X178220736Y-72287118D01*
X178206457Y-72283541D01*
X178192597Y-72278582D01*
X178179290Y-72272288D01*
X178166664Y-72264720D01*
X178154841Y-72255952D01*
X178143934Y-72246066D01*
X178134048Y-72235159D01*
X178125280Y-72223336D01*
X178117712Y-72210710D01*
X178111418Y-72197403D01*
X178106459Y-72183543D01*
X178102882Y-72169264D01*
X178100722Y-72154703D01*
X178100000Y-72140000D01*
X178100000Y-71840000D01*
X178100722Y-71825297D01*
X178102882Y-71810736D01*
X178106459Y-71796457D01*
X178111418Y-71782597D01*
X178117712Y-71769290D01*
X178125280Y-71756664D01*
X178134048Y-71744841D01*
X178143934Y-71733934D01*
X178154841Y-71724048D01*
X178166664Y-71715280D01*
X178179290Y-71707712D01*
X178192597Y-71701418D01*
X178206457Y-71696459D01*
X178220736Y-71692882D01*
X178235297Y-71690722D01*
X178250000Y-71690000D01*
X179900000Y-71690000D01*
X179914703Y-71690722D01*
G37*
G36*
X179914703Y-72960722D02*
G01*
X179929264Y-72962882D01*
X179943543Y-72966459D01*
X179957403Y-72971418D01*
X179970710Y-72977712D01*
X179983336Y-72985280D01*
X179995159Y-72994048D01*
X180006066Y-73003934D01*
X180015952Y-73014841D01*
X180024720Y-73026664D01*
X180032288Y-73039290D01*
X180038582Y-73052597D01*
X180043541Y-73066457D01*
X180047118Y-73080736D01*
X180049278Y-73095297D01*
X180050000Y-73110000D01*
X180050000Y-73410000D01*
X180049278Y-73424703D01*
X180047118Y-73439264D01*
X180043541Y-73453543D01*
X180038582Y-73467403D01*
X180032288Y-73480710D01*
X180024720Y-73493336D01*
X180015952Y-73505159D01*
X180006066Y-73516066D01*
X179995159Y-73525952D01*
X179983336Y-73534720D01*
X179970710Y-73542288D01*
X179957403Y-73548582D01*
X179943543Y-73553541D01*
X179929264Y-73557118D01*
X179914703Y-73559278D01*
X179900000Y-73560000D01*
X178250000Y-73560000D01*
X178235297Y-73559278D01*
X178220736Y-73557118D01*
X178206457Y-73553541D01*
X178192597Y-73548582D01*
X178179290Y-73542288D01*
X178166664Y-73534720D01*
X178154841Y-73525952D01*
X178143934Y-73516066D01*
X178134048Y-73505159D01*
X178125280Y-73493336D01*
X178117712Y-73480710D01*
X178111418Y-73467403D01*
X178106459Y-73453543D01*
X178102882Y-73439264D01*
X178100722Y-73424703D01*
X178100000Y-73410000D01*
X178100000Y-73110000D01*
X178100722Y-73095297D01*
X178102882Y-73080736D01*
X178106459Y-73066457D01*
X178111418Y-73052597D01*
X178117712Y-73039290D01*
X178125280Y-73026664D01*
X178134048Y-73014841D01*
X178143934Y-73003934D01*
X178154841Y-72994048D01*
X178166664Y-72985280D01*
X178179290Y-72977712D01*
X178192597Y-72971418D01*
X178206457Y-72966459D01*
X178220736Y-72962882D01*
X178235297Y-72960722D01*
X178250000Y-72960000D01*
X179900000Y-72960000D01*
X179914703Y-72960722D01*
G37*
G36*
X172524505Y-75951204D02*
G01*
X172548773Y-75954804D01*
X172572572Y-75960765D01*
X172595671Y-75969030D01*
X172617850Y-75979520D01*
X172638893Y-75992132D01*
X172658599Y-76006747D01*
X172676777Y-76023223D01*
X172693253Y-76041401D01*
X172707868Y-76061107D01*
X172720480Y-76082150D01*
X172730970Y-76104329D01*
X172739235Y-76127428D01*
X172745196Y-76151227D01*
X172748796Y-76175495D01*
X172750000Y-76199999D01*
X172750000Y-76850001D01*
X172748796Y-76874505D01*
X172745196Y-76898773D01*
X172739235Y-76922572D01*
X172730970Y-76945671D01*
X172720480Y-76967850D01*
X172707868Y-76988893D01*
X172693253Y-77008599D01*
X172676777Y-77026777D01*
X172658599Y-77043253D01*
X172638893Y-77057868D01*
X172617850Y-77070480D01*
X172595671Y-77080970D01*
X172572572Y-77089235D01*
X172548773Y-77095196D01*
X172524505Y-77098796D01*
X172500001Y-77100000D01*
X171599999Y-77100000D01*
X171575495Y-77098796D01*
X171551227Y-77095196D01*
X171527428Y-77089235D01*
X171504329Y-77080970D01*
X171482150Y-77070480D01*
X171461107Y-77057868D01*
X171441401Y-77043253D01*
X171423223Y-77026777D01*
X171406747Y-77008599D01*
X171392132Y-76988893D01*
X171379520Y-76967850D01*
X171369030Y-76945671D01*
X171360765Y-76922572D01*
X171354804Y-76898773D01*
X171351204Y-76874505D01*
X171350000Y-76850001D01*
X171350000Y-76199999D01*
X171351204Y-76175495D01*
X171354804Y-76151227D01*
X171360765Y-76127428D01*
X171369030Y-76104329D01*
X171379520Y-76082150D01*
X171392132Y-76061107D01*
X171406747Y-76041401D01*
X171423223Y-76023223D01*
X171441401Y-76006747D01*
X171461107Y-75992132D01*
X171482150Y-75979520D01*
X171504329Y-75969030D01*
X171527428Y-75960765D01*
X171551227Y-75954804D01*
X171575495Y-75951204D01*
X171599999Y-75950000D01*
X172500001Y-75950000D01*
X172524505Y-75951204D01*
G37*
G36*
X172524505Y-78001204D02*
G01*
X172548773Y-78004804D01*
X172572572Y-78010765D01*
X172595671Y-78019030D01*
X172617850Y-78029520D01*
X172638893Y-78042132D01*
X172658599Y-78056747D01*
X172676777Y-78073223D01*
X172693253Y-78091401D01*
X172707868Y-78111107D01*
X172720480Y-78132150D01*
X172730970Y-78154329D01*
X172739235Y-78177428D01*
X172745196Y-78201227D01*
X172748796Y-78225495D01*
X172750000Y-78249999D01*
X172750000Y-78900001D01*
X172748796Y-78924505D01*
X172745196Y-78948773D01*
X172739235Y-78972572D01*
X172730970Y-78995671D01*
X172720480Y-79017850D01*
X172707868Y-79038893D01*
X172693253Y-79058599D01*
X172676777Y-79076777D01*
X172658599Y-79093253D01*
X172638893Y-79107868D01*
X172617850Y-79120480D01*
X172595671Y-79130970D01*
X172572572Y-79139235D01*
X172548773Y-79145196D01*
X172524505Y-79148796D01*
X172500001Y-79150000D01*
X171599999Y-79150000D01*
X171575495Y-79148796D01*
X171551227Y-79145196D01*
X171527428Y-79139235D01*
X171504329Y-79130970D01*
X171482150Y-79120480D01*
X171461107Y-79107868D01*
X171441401Y-79093253D01*
X171423223Y-79076777D01*
X171406747Y-79058599D01*
X171392132Y-79038893D01*
X171379520Y-79017850D01*
X171369030Y-78995671D01*
X171360765Y-78972572D01*
X171354804Y-78948773D01*
X171351204Y-78924505D01*
X171350000Y-78900001D01*
X171350000Y-78249999D01*
X171351204Y-78225495D01*
X171354804Y-78201227D01*
X171360765Y-78177428D01*
X171369030Y-78154329D01*
X171379520Y-78132150D01*
X171392132Y-78111107D01*
X171406747Y-78091401D01*
X171423223Y-78073223D01*
X171441401Y-78056747D01*
X171461107Y-78042132D01*
X171482150Y-78029520D01*
X171504329Y-78019030D01*
X171527428Y-78010765D01*
X171551227Y-78004804D01*
X171575495Y-78001204D01*
X171599999Y-78000000D01*
X172500001Y-78000000D01*
X172524505Y-78001204D01*
G37*
G36*
X168874505Y-75951204D02*
G01*
X168898773Y-75954804D01*
X168922572Y-75960765D01*
X168945671Y-75969030D01*
X168967850Y-75979520D01*
X168988893Y-75992132D01*
X169008599Y-76006747D01*
X169026777Y-76023223D01*
X169043253Y-76041401D01*
X169057868Y-76061107D01*
X169070480Y-76082150D01*
X169080970Y-76104329D01*
X169089235Y-76127428D01*
X169095196Y-76151227D01*
X169098796Y-76175495D01*
X169100000Y-76199999D01*
X169100000Y-76850001D01*
X169098796Y-76874505D01*
X169095196Y-76898773D01*
X169089235Y-76922572D01*
X169080970Y-76945671D01*
X169070480Y-76967850D01*
X169057868Y-76988893D01*
X169043253Y-77008599D01*
X169026777Y-77026777D01*
X169008599Y-77043253D01*
X168988893Y-77057868D01*
X168967850Y-77070480D01*
X168945671Y-77080970D01*
X168922572Y-77089235D01*
X168898773Y-77095196D01*
X168874505Y-77098796D01*
X168850001Y-77100000D01*
X167949999Y-77100000D01*
X167925495Y-77098796D01*
X167901227Y-77095196D01*
X167877428Y-77089235D01*
X167854329Y-77080970D01*
X167832150Y-77070480D01*
X167811107Y-77057868D01*
X167791401Y-77043253D01*
X167773223Y-77026777D01*
X167756747Y-77008599D01*
X167742132Y-76988893D01*
X167729520Y-76967850D01*
X167719030Y-76945671D01*
X167710765Y-76922572D01*
X167704804Y-76898773D01*
X167701204Y-76874505D01*
X167700000Y-76850001D01*
X167700000Y-76199999D01*
X167701204Y-76175495D01*
X167704804Y-76151227D01*
X167710765Y-76127428D01*
X167719030Y-76104329D01*
X167729520Y-76082150D01*
X167742132Y-76061107D01*
X167756747Y-76041401D01*
X167773223Y-76023223D01*
X167791401Y-76006747D01*
X167811107Y-75992132D01*
X167832150Y-75979520D01*
X167854329Y-75969030D01*
X167877428Y-75960765D01*
X167901227Y-75954804D01*
X167925495Y-75951204D01*
X167949999Y-75950000D01*
X168850001Y-75950000D01*
X168874505Y-75951204D01*
G37*
G36*
X168874505Y-78001204D02*
G01*
X168898773Y-78004804D01*
X168922572Y-78010765D01*
X168945671Y-78019030D01*
X168967850Y-78029520D01*
X168988893Y-78042132D01*
X169008599Y-78056747D01*
X169026777Y-78073223D01*
X169043253Y-78091401D01*
X169057868Y-78111107D01*
X169070480Y-78132150D01*
X169080970Y-78154329D01*
X169089235Y-78177428D01*
X169095196Y-78201227D01*
X169098796Y-78225495D01*
X169100000Y-78249999D01*
X169100000Y-78900001D01*
X169098796Y-78924505D01*
X169095196Y-78948773D01*
X169089235Y-78972572D01*
X169080970Y-78995671D01*
X169070480Y-79017850D01*
X169057868Y-79038893D01*
X169043253Y-79058599D01*
X169026777Y-79076777D01*
X169008599Y-79093253D01*
X168988893Y-79107868D01*
X168967850Y-79120480D01*
X168945671Y-79130970D01*
X168922572Y-79139235D01*
X168898773Y-79145196D01*
X168874505Y-79148796D01*
X168850001Y-79150000D01*
X167949999Y-79150000D01*
X167925495Y-79148796D01*
X167901227Y-79145196D01*
X167877428Y-79139235D01*
X167854329Y-79130970D01*
X167832150Y-79120480D01*
X167811107Y-79107868D01*
X167791401Y-79093253D01*
X167773223Y-79076777D01*
X167756747Y-79058599D01*
X167742132Y-79038893D01*
X167729520Y-79017850D01*
X167719030Y-78995671D01*
X167710765Y-78972572D01*
X167704804Y-78948773D01*
X167701204Y-78924505D01*
X167700000Y-78900001D01*
X167700000Y-78249999D01*
X167701204Y-78225495D01*
X167704804Y-78201227D01*
X167710765Y-78177428D01*
X167719030Y-78154329D01*
X167729520Y-78132150D01*
X167742132Y-78111107D01*
X167756747Y-78091401D01*
X167773223Y-78073223D01*
X167791401Y-78056747D01*
X167811107Y-78042132D01*
X167832150Y-78029520D01*
X167854329Y-78019030D01*
X167877428Y-78010765D01*
X167901227Y-78004804D01*
X167925495Y-78001204D01*
X167949999Y-78000000D01*
X168850001Y-78000000D01*
X168874505Y-78001204D01*
G37*
G36*
X173174505Y-83451204D02*
G01*
X173198773Y-83454804D01*
X173222572Y-83460765D01*
X173245671Y-83469030D01*
X173267850Y-83479520D01*
X173288893Y-83492132D01*
X173308599Y-83506747D01*
X173326777Y-83523223D01*
X173343253Y-83541401D01*
X173357868Y-83561107D01*
X173370480Y-83582150D01*
X173380970Y-83604329D01*
X173389235Y-83627428D01*
X173395196Y-83651227D01*
X173398796Y-83675495D01*
X173400000Y-83699999D01*
X173400000Y-84350001D01*
X173398796Y-84374505D01*
X173395196Y-84398773D01*
X173389235Y-84422572D01*
X173380970Y-84445671D01*
X173370480Y-84467850D01*
X173357868Y-84488893D01*
X173343253Y-84508599D01*
X173326777Y-84526777D01*
X173308599Y-84543253D01*
X173288893Y-84557868D01*
X173267850Y-84570480D01*
X173245671Y-84580970D01*
X173222572Y-84589235D01*
X173198773Y-84595196D01*
X173174505Y-84598796D01*
X173150001Y-84600000D01*
X172249999Y-84600000D01*
X172225495Y-84598796D01*
X172201227Y-84595196D01*
X172177428Y-84589235D01*
X172154329Y-84580970D01*
X172132150Y-84570480D01*
X172111107Y-84557868D01*
X172091401Y-84543253D01*
X172073223Y-84526777D01*
X172056747Y-84508599D01*
X172042132Y-84488893D01*
X172029520Y-84467850D01*
X172019030Y-84445671D01*
X172010765Y-84422572D01*
X172004804Y-84398773D01*
X172001204Y-84374505D01*
X172000000Y-84350001D01*
X172000000Y-83699999D01*
X172001204Y-83675495D01*
X172004804Y-83651227D01*
X172010765Y-83627428D01*
X172019030Y-83604329D01*
X172029520Y-83582150D01*
X172042132Y-83561107D01*
X172056747Y-83541401D01*
X172073223Y-83523223D01*
X172091401Y-83506747D01*
X172111107Y-83492132D01*
X172132150Y-83479520D01*
X172154329Y-83469030D01*
X172177428Y-83460765D01*
X172201227Y-83454804D01*
X172225495Y-83451204D01*
X172249999Y-83450000D01*
X173150001Y-83450000D01*
X173174505Y-83451204D01*
G37*
G36*
X173174505Y-85501204D02*
G01*
X173198773Y-85504804D01*
X173222572Y-85510765D01*
X173245671Y-85519030D01*
X173267850Y-85529520D01*
X173288893Y-85542132D01*
X173308599Y-85556747D01*
X173326777Y-85573223D01*
X173343253Y-85591401D01*
X173357868Y-85611107D01*
X173370480Y-85632150D01*
X173380970Y-85654329D01*
X173389235Y-85677428D01*
X173395196Y-85701227D01*
X173398796Y-85725495D01*
X173400000Y-85749999D01*
X173400000Y-86400001D01*
X173398796Y-86424505D01*
X173395196Y-86448773D01*
X173389235Y-86472572D01*
X173380970Y-86495671D01*
X173370480Y-86517850D01*
X173357868Y-86538893D01*
X173343253Y-86558599D01*
X173326777Y-86576777D01*
X173308599Y-86593253D01*
X173288893Y-86607868D01*
X173267850Y-86620480D01*
X173245671Y-86630970D01*
X173222572Y-86639235D01*
X173198773Y-86645196D01*
X173174505Y-86648796D01*
X173150001Y-86650000D01*
X172249999Y-86650000D01*
X172225495Y-86648796D01*
X172201227Y-86645196D01*
X172177428Y-86639235D01*
X172154329Y-86630970D01*
X172132150Y-86620480D01*
X172111107Y-86607868D01*
X172091401Y-86593253D01*
X172073223Y-86576777D01*
X172056747Y-86558599D01*
X172042132Y-86538893D01*
X172029520Y-86517850D01*
X172019030Y-86495671D01*
X172010765Y-86472572D01*
X172004804Y-86448773D01*
X172001204Y-86424505D01*
X172000000Y-86400001D01*
X172000000Y-85749999D01*
X172001204Y-85725495D01*
X172004804Y-85701227D01*
X172010765Y-85677428D01*
X172019030Y-85654329D01*
X172029520Y-85632150D01*
X172042132Y-85611107D01*
X172056747Y-85591401D01*
X172073223Y-85573223D01*
X172091401Y-85556747D01*
X172111107Y-85542132D01*
X172132150Y-85529520D01*
X172154329Y-85519030D01*
X172177428Y-85510765D01*
X172201227Y-85504804D01*
X172225495Y-85501204D01*
X172249999Y-85500000D01*
X173150001Y-85500000D01*
X173174505Y-85501204D01*
G37*
G36*
X168524505Y-83451204D02*
G01*
X168548773Y-83454804D01*
X168572572Y-83460765D01*
X168595671Y-83469030D01*
X168617850Y-83479520D01*
X168638893Y-83492132D01*
X168658599Y-83506747D01*
X168676777Y-83523223D01*
X168693253Y-83541401D01*
X168707868Y-83561107D01*
X168720480Y-83582150D01*
X168730970Y-83604329D01*
X168739235Y-83627428D01*
X168745196Y-83651227D01*
X168748796Y-83675495D01*
X168750000Y-83699999D01*
X168750000Y-84350001D01*
X168748796Y-84374505D01*
X168745196Y-84398773D01*
X168739235Y-84422572D01*
X168730970Y-84445671D01*
X168720480Y-84467850D01*
X168707868Y-84488893D01*
X168693253Y-84508599D01*
X168676777Y-84526777D01*
X168658599Y-84543253D01*
X168638893Y-84557868D01*
X168617850Y-84570480D01*
X168595671Y-84580970D01*
X168572572Y-84589235D01*
X168548773Y-84595196D01*
X168524505Y-84598796D01*
X168500001Y-84600000D01*
X167599999Y-84600000D01*
X167575495Y-84598796D01*
X167551227Y-84595196D01*
X167527428Y-84589235D01*
X167504329Y-84580970D01*
X167482150Y-84570480D01*
X167461107Y-84557868D01*
X167441401Y-84543253D01*
X167423223Y-84526777D01*
X167406747Y-84508599D01*
X167392132Y-84488893D01*
X167379520Y-84467850D01*
X167369030Y-84445671D01*
X167360765Y-84422572D01*
X167354804Y-84398773D01*
X167351204Y-84374505D01*
X167350000Y-84350001D01*
X167350000Y-83699999D01*
X167351204Y-83675495D01*
X167354804Y-83651227D01*
X167360765Y-83627428D01*
X167369030Y-83604329D01*
X167379520Y-83582150D01*
X167392132Y-83561107D01*
X167406747Y-83541401D01*
X167423223Y-83523223D01*
X167441401Y-83506747D01*
X167461107Y-83492132D01*
X167482150Y-83479520D01*
X167504329Y-83469030D01*
X167527428Y-83460765D01*
X167551227Y-83454804D01*
X167575495Y-83451204D01*
X167599999Y-83450000D01*
X168500001Y-83450000D01*
X168524505Y-83451204D01*
G37*
G36*
X168524505Y-85501204D02*
G01*
X168548773Y-85504804D01*
X168572572Y-85510765D01*
X168595671Y-85519030D01*
X168617850Y-85529520D01*
X168638893Y-85542132D01*
X168658599Y-85556747D01*
X168676777Y-85573223D01*
X168693253Y-85591401D01*
X168707868Y-85611107D01*
X168720480Y-85632150D01*
X168730970Y-85654329D01*
X168739235Y-85677428D01*
X168745196Y-85701227D01*
X168748796Y-85725495D01*
X168750000Y-85749999D01*
X168750000Y-86400001D01*
X168748796Y-86424505D01*
X168745196Y-86448773D01*
X168739235Y-86472572D01*
X168730970Y-86495671D01*
X168720480Y-86517850D01*
X168707868Y-86538893D01*
X168693253Y-86558599D01*
X168676777Y-86576777D01*
X168658599Y-86593253D01*
X168638893Y-86607868D01*
X168617850Y-86620480D01*
X168595671Y-86630970D01*
X168572572Y-86639235D01*
X168548773Y-86645196D01*
X168524505Y-86648796D01*
X168500001Y-86650000D01*
X167599999Y-86650000D01*
X167575495Y-86648796D01*
X167551227Y-86645196D01*
X167527428Y-86639235D01*
X167504329Y-86630970D01*
X167482150Y-86620480D01*
X167461107Y-86607868D01*
X167441401Y-86593253D01*
X167423223Y-86576777D01*
X167406747Y-86558599D01*
X167392132Y-86538893D01*
X167379520Y-86517850D01*
X167369030Y-86495671D01*
X167360765Y-86472572D01*
X167354804Y-86448773D01*
X167351204Y-86424505D01*
X167350000Y-86400001D01*
X167350000Y-85749999D01*
X167351204Y-85725495D01*
X167354804Y-85701227D01*
X167360765Y-85677428D01*
X167369030Y-85654329D01*
X167379520Y-85632150D01*
X167392132Y-85611107D01*
X167406747Y-85591401D01*
X167423223Y-85573223D01*
X167441401Y-85556747D01*
X167461107Y-85542132D01*
X167482150Y-85529520D01*
X167504329Y-85519030D01*
X167527428Y-85510765D01*
X167551227Y-85504804D01*
X167575495Y-85501204D01*
X167599999Y-85500000D01*
X168500001Y-85500000D01*
X168524505Y-85501204D01*
G37*
G36*
X161474505Y-127451204D02*
G01*
X161498773Y-127454804D01*
X161522572Y-127460765D01*
X161545671Y-127469030D01*
X161567850Y-127479520D01*
X161588893Y-127492132D01*
X161608599Y-127506747D01*
X161626777Y-127523223D01*
X161643253Y-127541401D01*
X161657868Y-127561107D01*
X161670480Y-127582150D01*
X161680970Y-127604329D01*
X161689235Y-127627428D01*
X161695196Y-127651227D01*
X161698796Y-127675495D01*
X161700000Y-127699999D01*
X161700000Y-128350001D01*
X161698796Y-128374505D01*
X161695196Y-128398773D01*
X161689235Y-128422572D01*
X161680970Y-128445671D01*
X161670480Y-128467850D01*
X161657868Y-128488893D01*
X161643253Y-128508599D01*
X161626777Y-128526777D01*
X161608599Y-128543253D01*
X161588893Y-128557868D01*
X161567850Y-128570480D01*
X161545671Y-128580970D01*
X161522572Y-128589235D01*
X161498773Y-128595196D01*
X161474505Y-128598796D01*
X161450001Y-128600000D01*
X160549999Y-128600000D01*
X160525495Y-128598796D01*
X160501227Y-128595196D01*
X160477428Y-128589235D01*
X160454329Y-128580970D01*
X160432150Y-128570480D01*
X160411107Y-128557868D01*
X160391401Y-128543253D01*
X160373223Y-128526777D01*
X160356747Y-128508599D01*
X160342132Y-128488893D01*
X160329520Y-128467850D01*
X160319030Y-128445671D01*
X160310765Y-128422572D01*
X160304804Y-128398773D01*
X160301204Y-128374505D01*
X160300000Y-128350001D01*
X160300000Y-127699999D01*
X160301204Y-127675495D01*
X160304804Y-127651227D01*
X160310765Y-127627428D01*
X160319030Y-127604329D01*
X160329520Y-127582150D01*
X160342132Y-127561107D01*
X160356747Y-127541401D01*
X160373223Y-127523223D01*
X160391401Y-127506747D01*
X160411107Y-127492132D01*
X160432150Y-127479520D01*
X160454329Y-127469030D01*
X160477428Y-127460765D01*
X160501227Y-127454804D01*
X160525495Y-127451204D01*
X160549999Y-127450000D01*
X161450001Y-127450000D01*
X161474505Y-127451204D01*
G37*
G36*
X161474505Y-125401204D02*
G01*
X161498773Y-125404804D01*
X161522572Y-125410765D01*
X161545671Y-125419030D01*
X161567850Y-125429520D01*
X161588893Y-125442132D01*
X161608599Y-125456747D01*
X161626777Y-125473223D01*
X161643253Y-125491401D01*
X161657868Y-125511107D01*
X161670480Y-125532150D01*
X161680970Y-125554329D01*
X161689235Y-125577428D01*
X161695196Y-125601227D01*
X161698796Y-125625495D01*
X161700000Y-125649999D01*
X161700000Y-126300001D01*
X161698796Y-126324505D01*
X161695196Y-126348773D01*
X161689235Y-126372572D01*
X161680970Y-126395671D01*
X161670480Y-126417850D01*
X161657868Y-126438893D01*
X161643253Y-126458599D01*
X161626777Y-126476777D01*
X161608599Y-126493253D01*
X161588893Y-126507868D01*
X161567850Y-126520480D01*
X161545671Y-126530970D01*
X161522572Y-126539235D01*
X161498773Y-126545196D01*
X161474505Y-126548796D01*
X161450001Y-126550000D01*
X160549999Y-126550000D01*
X160525495Y-126548796D01*
X160501227Y-126545196D01*
X160477428Y-126539235D01*
X160454329Y-126530970D01*
X160432150Y-126520480D01*
X160411107Y-126507868D01*
X160391401Y-126493253D01*
X160373223Y-126476777D01*
X160356747Y-126458599D01*
X160342132Y-126438893D01*
X160329520Y-126417850D01*
X160319030Y-126395671D01*
X160310765Y-126372572D01*
X160304804Y-126348773D01*
X160301204Y-126324505D01*
X160300000Y-126300001D01*
X160300000Y-125649999D01*
X160301204Y-125625495D01*
X160304804Y-125601227D01*
X160310765Y-125577428D01*
X160319030Y-125554329D01*
X160329520Y-125532150D01*
X160342132Y-125511107D01*
X160356747Y-125491401D01*
X160373223Y-125473223D01*
X160391401Y-125456747D01*
X160411107Y-125442132D01*
X160432150Y-125429520D01*
X160454329Y-125419030D01*
X160477428Y-125410765D01*
X160501227Y-125404804D01*
X160525495Y-125401204D01*
X160549999Y-125400000D01*
X161450001Y-125400000D01*
X161474505Y-125401204D01*
G37*
G36*
X156074505Y-112301204D02*
G01*
X156098773Y-112304804D01*
X156122572Y-112310765D01*
X156145671Y-112319030D01*
X156167850Y-112329520D01*
X156188893Y-112342132D01*
X156208599Y-112356747D01*
X156226777Y-112373223D01*
X156243253Y-112391401D01*
X156257868Y-112411107D01*
X156270480Y-112432150D01*
X156280970Y-112454329D01*
X156289235Y-112477428D01*
X156295196Y-112501227D01*
X156298796Y-112525495D01*
X156300000Y-112549999D01*
X156300000Y-113450001D01*
X156298796Y-113474505D01*
X156295196Y-113498773D01*
X156289235Y-113522572D01*
X156280970Y-113545671D01*
X156270480Y-113567850D01*
X156257868Y-113588893D01*
X156243253Y-113608599D01*
X156226777Y-113626777D01*
X156208599Y-113643253D01*
X156188893Y-113657868D01*
X156167850Y-113670480D01*
X156145671Y-113680970D01*
X156122572Y-113689235D01*
X156098773Y-113695196D01*
X156074505Y-113698796D01*
X156050001Y-113700000D01*
X155399999Y-113700000D01*
X155375495Y-113698796D01*
X155351227Y-113695196D01*
X155327428Y-113689235D01*
X155304329Y-113680970D01*
X155282150Y-113670480D01*
X155261107Y-113657868D01*
X155241401Y-113643253D01*
X155223223Y-113626777D01*
X155206747Y-113608599D01*
X155192132Y-113588893D01*
X155179520Y-113567850D01*
X155169030Y-113545671D01*
X155160765Y-113522572D01*
X155154804Y-113498773D01*
X155151204Y-113474505D01*
X155150000Y-113450001D01*
X155150000Y-112549999D01*
X155151204Y-112525495D01*
X155154804Y-112501227D01*
X155160765Y-112477428D01*
X155169030Y-112454329D01*
X155179520Y-112432150D01*
X155192132Y-112411107D01*
X155206747Y-112391401D01*
X155223223Y-112373223D01*
X155241401Y-112356747D01*
X155261107Y-112342132D01*
X155282150Y-112329520D01*
X155304329Y-112319030D01*
X155327428Y-112310765D01*
X155351227Y-112304804D01*
X155375495Y-112301204D01*
X155399999Y-112300000D01*
X156050001Y-112300000D01*
X156074505Y-112301204D01*
G37*
G36*
X158124505Y-112301204D02*
G01*
X158148773Y-112304804D01*
X158172572Y-112310765D01*
X158195671Y-112319030D01*
X158217850Y-112329520D01*
X158238893Y-112342132D01*
X158258599Y-112356747D01*
X158276777Y-112373223D01*
X158293253Y-112391401D01*
X158307868Y-112411107D01*
X158320480Y-112432150D01*
X158330970Y-112454329D01*
X158339235Y-112477428D01*
X158345196Y-112501227D01*
X158348796Y-112525495D01*
X158350000Y-112549999D01*
X158350000Y-113450001D01*
X158348796Y-113474505D01*
X158345196Y-113498773D01*
X158339235Y-113522572D01*
X158330970Y-113545671D01*
X158320480Y-113567850D01*
X158307868Y-113588893D01*
X158293253Y-113608599D01*
X158276777Y-113626777D01*
X158258599Y-113643253D01*
X158238893Y-113657868D01*
X158217850Y-113670480D01*
X158195671Y-113680970D01*
X158172572Y-113689235D01*
X158148773Y-113695196D01*
X158124505Y-113698796D01*
X158100001Y-113700000D01*
X157449999Y-113700000D01*
X157425495Y-113698796D01*
X157401227Y-113695196D01*
X157377428Y-113689235D01*
X157354329Y-113680970D01*
X157332150Y-113670480D01*
X157311107Y-113657868D01*
X157291401Y-113643253D01*
X157273223Y-113626777D01*
X157256747Y-113608599D01*
X157242132Y-113588893D01*
X157229520Y-113567850D01*
X157219030Y-113545671D01*
X157210765Y-113522572D01*
X157204804Y-113498773D01*
X157201204Y-113474505D01*
X157200000Y-113450001D01*
X157200000Y-112549999D01*
X157201204Y-112525495D01*
X157204804Y-112501227D01*
X157210765Y-112477428D01*
X157219030Y-112454329D01*
X157229520Y-112432150D01*
X157242132Y-112411107D01*
X157256747Y-112391401D01*
X157273223Y-112373223D01*
X157291401Y-112356747D01*
X157311107Y-112342132D01*
X157332150Y-112329520D01*
X157354329Y-112319030D01*
X157377428Y-112310765D01*
X157401227Y-112304804D01*
X157425495Y-112301204D01*
X157449999Y-112300000D01*
X158100001Y-112300000D01*
X158124505Y-112301204D01*
G37*
G36*
X41154505Y-58991204D02*
G01*
X41178773Y-58994804D01*
X41202572Y-59000765D01*
X41225671Y-59009030D01*
X41247850Y-59019520D01*
X41268893Y-59032132D01*
X41288599Y-59046747D01*
X41306777Y-59063223D01*
X41323253Y-59081401D01*
X41337868Y-59101107D01*
X41350480Y-59122150D01*
X41360970Y-59144329D01*
X41369235Y-59167428D01*
X41375196Y-59191227D01*
X41378796Y-59215495D01*
X41380000Y-59239999D01*
X41380000Y-60140001D01*
X41378796Y-60164505D01*
X41375196Y-60188773D01*
X41369235Y-60212572D01*
X41360970Y-60235671D01*
X41350480Y-60257850D01*
X41337868Y-60278893D01*
X41323253Y-60298599D01*
X41306777Y-60316777D01*
X41288599Y-60333253D01*
X41268893Y-60347868D01*
X41247850Y-60360480D01*
X41225671Y-60370970D01*
X41202572Y-60379235D01*
X41178773Y-60385196D01*
X41154505Y-60388796D01*
X41130001Y-60390000D01*
X40479999Y-60390000D01*
X40455495Y-60388796D01*
X40431227Y-60385196D01*
X40407428Y-60379235D01*
X40384329Y-60370970D01*
X40362150Y-60360480D01*
X40341107Y-60347868D01*
X40321401Y-60333253D01*
X40303223Y-60316777D01*
X40286747Y-60298599D01*
X40272132Y-60278893D01*
X40259520Y-60257850D01*
X40249030Y-60235671D01*
X40240765Y-60212572D01*
X40234804Y-60188773D01*
X40231204Y-60164505D01*
X40230000Y-60140001D01*
X40230000Y-59239999D01*
X40231204Y-59215495D01*
X40234804Y-59191227D01*
X40240765Y-59167428D01*
X40249030Y-59144329D01*
X40259520Y-59122150D01*
X40272132Y-59101107D01*
X40286747Y-59081401D01*
X40303223Y-59063223D01*
X40321401Y-59046747D01*
X40341107Y-59032132D01*
X40362150Y-59019520D01*
X40384329Y-59009030D01*
X40407428Y-59000765D01*
X40431227Y-58994804D01*
X40455495Y-58991204D01*
X40479999Y-58990000D01*
X41130001Y-58990000D01*
X41154505Y-58991204D01*
G37*
G36*
X43204505Y-58991204D02*
G01*
X43228773Y-58994804D01*
X43252572Y-59000765D01*
X43275671Y-59009030D01*
X43297850Y-59019520D01*
X43318893Y-59032132D01*
X43338599Y-59046747D01*
X43356777Y-59063223D01*
X43373253Y-59081401D01*
X43387868Y-59101107D01*
X43400480Y-59122150D01*
X43410970Y-59144329D01*
X43419235Y-59167428D01*
X43425196Y-59191227D01*
X43428796Y-59215495D01*
X43430000Y-59239999D01*
X43430000Y-60140001D01*
X43428796Y-60164505D01*
X43425196Y-60188773D01*
X43419235Y-60212572D01*
X43410970Y-60235671D01*
X43400480Y-60257850D01*
X43387868Y-60278893D01*
X43373253Y-60298599D01*
X43356777Y-60316777D01*
X43338599Y-60333253D01*
X43318893Y-60347868D01*
X43297850Y-60360480D01*
X43275671Y-60370970D01*
X43252572Y-60379235D01*
X43228773Y-60385196D01*
X43204505Y-60388796D01*
X43180001Y-60390000D01*
X42529999Y-60390000D01*
X42505495Y-60388796D01*
X42481227Y-60385196D01*
X42457428Y-60379235D01*
X42434329Y-60370970D01*
X42412150Y-60360480D01*
X42391107Y-60347868D01*
X42371401Y-60333253D01*
X42353223Y-60316777D01*
X42336747Y-60298599D01*
X42322132Y-60278893D01*
X42309520Y-60257850D01*
X42299030Y-60235671D01*
X42290765Y-60212572D01*
X42284804Y-60188773D01*
X42281204Y-60164505D01*
X42280000Y-60140001D01*
X42280000Y-59239999D01*
X42281204Y-59215495D01*
X42284804Y-59191227D01*
X42290765Y-59167428D01*
X42299030Y-59144329D01*
X42309520Y-59122150D01*
X42322132Y-59101107D01*
X42336747Y-59081401D01*
X42353223Y-59063223D01*
X42371401Y-59046747D01*
X42391107Y-59032132D01*
X42412150Y-59019520D01*
X42434329Y-59009030D01*
X42457428Y-59000765D01*
X42481227Y-58994804D01*
X42505495Y-58991204D01*
X42529999Y-58990000D01*
X43180001Y-58990000D01*
X43204505Y-58991204D01*
G37*
G36*
X42474505Y-73301204D02*
G01*
X42498773Y-73304804D01*
X42522572Y-73310765D01*
X42545671Y-73319030D01*
X42567850Y-73329520D01*
X42588893Y-73342132D01*
X42608599Y-73356747D01*
X42626777Y-73373223D01*
X42643253Y-73391401D01*
X42657868Y-73411107D01*
X42670480Y-73432150D01*
X42680970Y-73454329D01*
X42689235Y-73477428D01*
X42695196Y-73501227D01*
X42698796Y-73525495D01*
X42700000Y-73549999D01*
X42700000Y-74450001D01*
X42698796Y-74474505D01*
X42695196Y-74498773D01*
X42689235Y-74522572D01*
X42680970Y-74545671D01*
X42670480Y-74567850D01*
X42657868Y-74588893D01*
X42643253Y-74608599D01*
X42626777Y-74626777D01*
X42608599Y-74643253D01*
X42588893Y-74657868D01*
X42567850Y-74670480D01*
X42545671Y-74680970D01*
X42522572Y-74689235D01*
X42498773Y-74695196D01*
X42474505Y-74698796D01*
X42450001Y-74700000D01*
X41799999Y-74700000D01*
X41775495Y-74698796D01*
X41751227Y-74695196D01*
X41727428Y-74689235D01*
X41704329Y-74680970D01*
X41682150Y-74670480D01*
X41661107Y-74657868D01*
X41641401Y-74643253D01*
X41623223Y-74626777D01*
X41606747Y-74608599D01*
X41592132Y-74588893D01*
X41579520Y-74567850D01*
X41569030Y-74545671D01*
X41560765Y-74522572D01*
X41554804Y-74498773D01*
X41551204Y-74474505D01*
X41550000Y-74450001D01*
X41550000Y-73549999D01*
X41551204Y-73525495D01*
X41554804Y-73501227D01*
X41560765Y-73477428D01*
X41569030Y-73454329D01*
X41579520Y-73432150D01*
X41592132Y-73411107D01*
X41606747Y-73391401D01*
X41623223Y-73373223D01*
X41641401Y-73356747D01*
X41661107Y-73342132D01*
X41682150Y-73329520D01*
X41704329Y-73319030D01*
X41727428Y-73310765D01*
X41751227Y-73304804D01*
X41775495Y-73301204D01*
X41799999Y-73300000D01*
X42450001Y-73300000D01*
X42474505Y-73301204D01*
G37*
G36*
X40424505Y-73301204D02*
G01*
X40448773Y-73304804D01*
X40472572Y-73310765D01*
X40495671Y-73319030D01*
X40517850Y-73329520D01*
X40538893Y-73342132D01*
X40558599Y-73356747D01*
X40576777Y-73373223D01*
X40593253Y-73391401D01*
X40607868Y-73411107D01*
X40620480Y-73432150D01*
X40630970Y-73454329D01*
X40639235Y-73477428D01*
X40645196Y-73501227D01*
X40648796Y-73525495D01*
X40650000Y-73549999D01*
X40650000Y-74450001D01*
X40648796Y-74474505D01*
X40645196Y-74498773D01*
X40639235Y-74522572D01*
X40630970Y-74545671D01*
X40620480Y-74567850D01*
X40607868Y-74588893D01*
X40593253Y-74608599D01*
X40576777Y-74626777D01*
X40558599Y-74643253D01*
X40538893Y-74657868D01*
X40517850Y-74670480D01*
X40495671Y-74680970D01*
X40472572Y-74689235D01*
X40448773Y-74695196D01*
X40424505Y-74698796D01*
X40400001Y-74700000D01*
X39749999Y-74700000D01*
X39725495Y-74698796D01*
X39701227Y-74695196D01*
X39677428Y-74689235D01*
X39654329Y-74680970D01*
X39632150Y-74670480D01*
X39611107Y-74657868D01*
X39591401Y-74643253D01*
X39573223Y-74626777D01*
X39556747Y-74608599D01*
X39542132Y-74588893D01*
X39529520Y-74567850D01*
X39519030Y-74545671D01*
X39510765Y-74522572D01*
X39504804Y-74498773D01*
X39501204Y-74474505D01*
X39500000Y-74450001D01*
X39500000Y-73549999D01*
X39501204Y-73525495D01*
X39504804Y-73501227D01*
X39510765Y-73477428D01*
X39519030Y-73454329D01*
X39529520Y-73432150D01*
X39542132Y-73411107D01*
X39556747Y-73391401D01*
X39573223Y-73373223D01*
X39591401Y-73356747D01*
X39611107Y-73342132D01*
X39632150Y-73329520D01*
X39654329Y-73319030D01*
X39677428Y-73310765D01*
X39701227Y-73304804D01*
X39725495Y-73301204D01*
X39749999Y-73300000D01*
X40400001Y-73300000D01*
X40424505Y-73301204D01*
G37*
G36*
X40424505Y-99801204D02*
G01*
X40448773Y-99804804D01*
X40472572Y-99810765D01*
X40495671Y-99819030D01*
X40517850Y-99829520D01*
X40538893Y-99842132D01*
X40558599Y-99856747D01*
X40576777Y-99873223D01*
X40593253Y-99891401D01*
X40607868Y-99911107D01*
X40620480Y-99932150D01*
X40630970Y-99954329D01*
X40639235Y-99977428D01*
X40645196Y-100001227D01*
X40648796Y-100025495D01*
X40650000Y-100049999D01*
X40650000Y-100950001D01*
X40648796Y-100974505D01*
X40645196Y-100998773D01*
X40639235Y-101022572D01*
X40630970Y-101045671D01*
X40620480Y-101067850D01*
X40607868Y-101088893D01*
X40593253Y-101108599D01*
X40576777Y-101126777D01*
X40558599Y-101143253D01*
X40538893Y-101157868D01*
X40517850Y-101170480D01*
X40495671Y-101180970D01*
X40472572Y-101189235D01*
X40448773Y-101195196D01*
X40424505Y-101198796D01*
X40400001Y-101200000D01*
X39749999Y-101200000D01*
X39725495Y-101198796D01*
X39701227Y-101195196D01*
X39677428Y-101189235D01*
X39654329Y-101180970D01*
X39632150Y-101170480D01*
X39611107Y-101157868D01*
X39591401Y-101143253D01*
X39573223Y-101126777D01*
X39556747Y-101108599D01*
X39542132Y-101088893D01*
X39529520Y-101067850D01*
X39519030Y-101045671D01*
X39510765Y-101022572D01*
X39504804Y-100998773D01*
X39501204Y-100974505D01*
X39500000Y-100950001D01*
X39500000Y-100049999D01*
X39501204Y-100025495D01*
X39504804Y-100001227D01*
X39510765Y-99977428D01*
X39519030Y-99954329D01*
X39529520Y-99932150D01*
X39542132Y-99911107D01*
X39556747Y-99891401D01*
X39573223Y-99873223D01*
X39591401Y-99856747D01*
X39611107Y-99842132D01*
X39632150Y-99829520D01*
X39654329Y-99819030D01*
X39677428Y-99810765D01*
X39701227Y-99804804D01*
X39725495Y-99801204D01*
X39749999Y-99800000D01*
X40400001Y-99800000D01*
X40424505Y-99801204D01*
G37*
G36*
X42474505Y-99801204D02*
G01*
X42498773Y-99804804D01*
X42522572Y-99810765D01*
X42545671Y-99819030D01*
X42567850Y-99829520D01*
X42588893Y-99842132D01*
X42608599Y-99856747D01*
X42626777Y-99873223D01*
X42643253Y-99891401D01*
X42657868Y-99911107D01*
X42670480Y-99932150D01*
X42680970Y-99954329D01*
X42689235Y-99977428D01*
X42695196Y-100001227D01*
X42698796Y-100025495D01*
X42700000Y-100049999D01*
X42700000Y-100950001D01*
X42698796Y-100974505D01*
X42695196Y-100998773D01*
X42689235Y-101022572D01*
X42680970Y-101045671D01*
X42670480Y-101067850D01*
X42657868Y-101088893D01*
X42643253Y-101108599D01*
X42626777Y-101126777D01*
X42608599Y-101143253D01*
X42588893Y-101157868D01*
X42567850Y-101170480D01*
X42545671Y-101180970D01*
X42522572Y-101189235D01*
X42498773Y-101195196D01*
X42474505Y-101198796D01*
X42450001Y-101200000D01*
X41799999Y-101200000D01*
X41775495Y-101198796D01*
X41751227Y-101195196D01*
X41727428Y-101189235D01*
X41704329Y-101180970D01*
X41682150Y-101170480D01*
X41661107Y-101157868D01*
X41641401Y-101143253D01*
X41623223Y-101126777D01*
X41606747Y-101108599D01*
X41592132Y-101088893D01*
X41579520Y-101067850D01*
X41569030Y-101045671D01*
X41560765Y-101022572D01*
X41554804Y-100998773D01*
X41551204Y-100974505D01*
X41550000Y-100950001D01*
X41550000Y-100049999D01*
X41551204Y-100025495D01*
X41554804Y-100001227D01*
X41560765Y-99977428D01*
X41569030Y-99954329D01*
X41579520Y-99932150D01*
X41592132Y-99911107D01*
X41606747Y-99891401D01*
X41623223Y-99873223D01*
X41641401Y-99856747D01*
X41661107Y-99842132D01*
X41682150Y-99829520D01*
X41704329Y-99819030D01*
X41727428Y-99810765D01*
X41751227Y-99804804D01*
X41775495Y-99801204D01*
X41799999Y-99800000D01*
X42450001Y-99800000D01*
X42474505Y-99801204D01*
G37*
G36*
X148614505Y-116141204D02*
G01*
X148638773Y-116144804D01*
X148662572Y-116150765D01*
X148685671Y-116159030D01*
X148707850Y-116169520D01*
X148728893Y-116182132D01*
X148748599Y-116196747D01*
X148766777Y-116213223D01*
X148783253Y-116231401D01*
X148797868Y-116251107D01*
X148810480Y-116272150D01*
X148820970Y-116294329D01*
X148829235Y-116317428D01*
X148835196Y-116341227D01*
X148838796Y-116365495D01*
X148840000Y-116389999D01*
X148840000Y-117290001D01*
X148838796Y-117314505D01*
X148835196Y-117338773D01*
X148829235Y-117362572D01*
X148820970Y-117385671D01*
X148810480Y-117407850D01*
X148797868Y-117428893D01*
X148783253Y-117448599D01*
X148766777Y-117466777D01*
X148748599Y-117483253D01*
X148728893Y-117497868D01*
X148707850Y-117510480D01*
X148685671Y-117520970D01*
X148662572Y-117529235D01*
X148638773Y-117535196D01*
X148614505Y-117538796D01*
X148590001Y-117540000D01*
X147939999Y-117540000D01*
X147915495Y-117538796D01*
X147891227Y-117535196D01*
X147867428Y-117529235D01*
X147844329Y-117520970D01*
X147822150Y-117510480D01*
X147801107Y-117497868D01*
X147781401Y-117483253D01*
X147763223Y-117466777D01*
X147746747Y-117448599D01*
X147732132Y-117428893D01*
X147719520Y-117407850D01*
X147709030Y-117385671D01*
X147700765Y-117362572D01*
X147694804Y-117338773D01*
X147691204Y-117314505D01*
X147690000Y-117290001D01*
X147690000Y-116389999D01*
X147691204Y-116365495D01*
X147694804Y-116341227D01*
X147700765Y-116317428D01*
X147709030Y-116294329D01*
X147719520Y-116272150D01*
X147732132Y-116251107D01*
X147746747Y-116231401D01*
X147763223Y-116213223D01*
X147781401Y-116196747D01*
X147801107Y-116182132D01*
X147822150Y-116169520D01*
X147844329Y-116159030D01*
X147867428Y-116150765D01*
X147891227Y-116144804D01*
X147915495Y-116141204D01*
X147939999Y-116140000D01*
X148590001Y-116140000D01*
X148614505Y-116141204D01*
G37*
G36*
X146564505Y-116141204D02*
G01*
X146588773Y-116144804D01*
X146612572Y-116150765D01*
X146635671Y-116159030D01*
X146657850Y-116169520D01*
X146678893Y-116182132D01*
X146698599Y-116196747D01*
X146716777Y-116213223D01*
X146733253Y-116231401D01*
X146747868Y-116251107D01*
X146760480Y-116272150D01*
X146770970Y-116294329D01*
X146779235Y-116317428D01*
X146785196Y-116341227D01*
X146788796Y-116365495D01*
X146790000Y-116389999D01*
X146790000Y-117290001D01*
X146788796Y-117314505D01*
X146785196Y-117338773D01*
X146779235Y-117362572D01*
X146770970Y-117385671D01*
X146760480Y-117407850D01*
X146747868Y-117428893D01*
X146733253Y-117448599D01*
X146716777Y-117466777D01*
X146698599Y-117483253D01*
X146678893Y-117497868D01*
X146657850Y-117510480D01*
X146635671Y-117520970D01*
X146612572Y-117529235D01*
X146588773Y-117535196D01*
X146564505Y-117538796D01*
X146540001Y-117540000D01*
X145889999Y-117540000D01*
X145865495Y-117538796D01*
X145841227Y-117535196D01*
X145817428Y-117529235D01*
X145794329Y-117520970D01*
X145772150Y-117510480D01*
X145751107Y-117497868D01*
X145731401Y-117483253D01*
X145713223Y-117466777D01*
X145696747Y-117448599D01*
X145682132Y-117428893D01*
X145669520Y-117407850D01*
X145659030Y-117385671D01*
X145650765Y-117362572D01*
X145644804Y-117338773D01*
X145641204Y-117314505D01*
X145640000Y-117290001D01*
X145640000Y-116389999D01*
X145641204Y-116365495D01*
X145644804Y-116341227D01*
X145650765Y-116317428D01*
X145659030Y-116294329D01*
X145669520Y-116272150D01*
X145682132Y-116251107D01*
X145696747Y-116231401D01*
X145713223Y-116213223D01*
X145731401Y-116196747D01*
X145751107Y-116182132D01*
X145772150Y-116169520D01*
X145794329Y-116159030D01*
X145817428Y-116150765D01*
X145841227Y-116144804D01*
X145865495Y-116141204D01*
X145889999Y-116140000D01*
X146540001Y-116140000D01*
X146564505Y-116141204D01*
G37*
G36*
X171174505Y-118001204D02*
G01*
X171198773Y-118004804D01*
X171222572Y-118010765D01*
X171245671Y-118019030D01*
X171267850Y-118029520D01*
X171288893Y-118042132D01*
X171308599Y-118056747D01*
X171326777Y-118073223D01*
X171343253Y-118091401D01*
X171357868Y-118111107D01*
X171370480Y-118132150D01*
X171380970Y-118154329D01*
X171389235Y-118177428D01*
X171395196Y-118201227D01*
X171398796Y-118225495D01*
X171400000Y-118249999D01*
X171400000Y-119150001D01*
X171398796Y-119174505D01*
X171395196Y-119198773D01*
X171389235Y-119222572D01*
X171380970Y-119245671D01*
X171370480Y-119267850D01*
X171357868Y-119288893D01*
X171343253Y-119308599D01*
X171326777Y-119326777D01*
X171308599Y-119343253D01*
X171288893Y-119357868D01*
X171267850Y-119370480D01*
X171245671Y-119380970D01*
X171222572Y-119389235D01*
X171198773Y-119395196D01*
X171174505Y-119398796D01*
X171150001Y-119400000D01*
X170499999Y-119400000D01*
X170475495Y-119398796D01*
X170451227Y-119395196D01*
X170427428Y-119389235D01*
X170404329Y-119380970D01*
X170382150Y-119370480D01*
X170361107Y-119357868D01*
X170341401Y-119343253D01*
X170323223Y-119326777D01*
X170306747Y-119308599D01*
X170292132Y-119288893D01*
X170279520Y-119267850D01*
X170269030Y-119245671D01*
X170260765Y-119222572D01*
X170254804Y-119198773D01*
X170251204Y-119174505D01*
X170250000Y-119150001D01*
X170250000Y-118249999D01*
X170251204Y-118225495D01*
X170254804Y-118201227D01*
X170260765Y-118177428D01*
X170269030Y-118154329D01*
X170279520Y-118132150D01*
X170292132Y-118111107D01*
X170306747Y-118091401D01*
X170323223Y-118073223D01*
X170341401Y-118056747D01*
X170361107Y-118042132D01*
X170382150Y-118029520D01*
X170404329Y-118019030D01*
X170427428Y-118010765D01*
X170451227Y-118004804D01*
X170475495Y-118001204D01*
X170499999Y-118000000D01*
X171150001Y-118000000D01*
X171174505Y-118001204D01*
G37*
G36*
X169124505Y-118001204D02*
G01*
X169148773Y-118004804D01*
X169172572Y-118010765D01*
X169195671Y-118019030D01*
X169217850Y-118029520D01*
X169238893Y-118042132D01*
X169258599Y-118056747D01*
X169276777Y-118073223D01*
X169293253Y-118091401D01*
X169307868Y-118111107D01*
X169320480Y-118132150D01*
X169330970Y-118154329D01*
X169339235Y-118177428D01*
X169345196Y-118201227D01*
X169348796Y-118225495D01*
X169350000Y-118249999D01*
X169350000Y-119150001D01*
X169348796Y-119174505D01*
X169345196Y-119198773D01*
X169339235Y-119222572D01*
X169330970Y-119245671D01*
X169320480Y-119267850D01*
X169307868Y-119288893D01*
X169293253Y-119308599D01*
X169276777Y-119326777D01*
X169258599Y-119343253D01*
X169238893Y-119357868D01*
X169217850Y-119370480D01*
X169195671Y-119380970D01*
X169172572Y-119389235D01*
X169148773Y-119395196D01*
X169124505Y-119398796D01*
X169100001Y-119400000D01*
X168449999Y-119400000D01*
X168425495Y-119398796D01*
X168401227Y-119395196D01*
X168377428Y-119389235D01*
X168354329Y-119380970D01*
X168332150Y-119370480D01*
X168311107Y-119357868D01*
X168291401Y-119343253D01*
X168273223Y-119326777D01*
X168256747Y-119308599D01*
X168242132Y-119288893D01*
X168229520Y-119267850D01*
X168219030Y-119245671D01*
X168210765Y-119222572D01*
X168204804Y-119198773D01*
X168201204Y-119174505D01*
X168200000Y-119150001D01*
X168200000Y-118249999D01*
X168201204Y-118225495D01*
X168204804Y-118201227D01*
X168210765Y-118177428D01*
X168219030Y-118154329D01*
X168229520Y-118132150D01*
X168242132Y-118111107D01*
X168256747Y-118091401D01*
X168273223Y-118073223D01*
X168291401Y-118056747D01*
X168311107Y-118042132D01*
X168332150Y-118029520D01*
X168354329Y-118019030D01*
X168377428Y-118010765D01*
X168401227Y-118004804D01*
X168425495Y-118001204D01*
X168449999Y-118000000D01*
X169100001Y-118000000D01*
X169124505Y-118001204D01*
G37*
G36*
X178474505Y-116601204D02*
G01*
X178498773Y-116604804D01*
X178522572Y-116610765D01*
X178545671Y-116619030D01*
X178567850Y-116629520D01*
X178588893Y-116642132D01*
X178608599Y-116656747D01*
X178626777Y-116673223D01*
X178643253Y-116691401D01*
X178657868Y-116711107D01*
X178670480Y-116732150D01*
X178680970Y-116754329D01*
X178689235Y-116777428D01*
X178695196Y-116801227D01*
X178698796Y-116825495D01*
X178700000Y-116849999D01*
X178700000Y-117750001D01*
X178698796Y-117774505D01*
X178695196Y-117798773D01*
X178689235Y-117822572D01*
X178680970Y-117845671D01*
X178670480Y-117867850D01*
X178657868Y-117888893D01*
X178643253Y-117908599D01*
X178626777Y-117926777D01*
X178608599Y-117943253D01*
X178588893Y-117957868D01*
X178567850Y-117970480D01*
X178545671Y-117980970D01*
X178522572Y-117989235D01*
X178498773Y-117995196D01*
X178474505Y-117998796D01*
X178450001Y-118000000D01*
X177799999Y-118000000D01*
X177775495Y-117998796D01*
X177751227Y-117995196D01*
X177727428Y-117989235D01*
X177704329Y-117980970D01*
X177682150Y-117970480D01*
X177661107Y-117957868D01*
X177641401Y-117943253D01*
X177623223Y-117926777D01*
X177606747Y-117908599D01*
X177592132Y-117888893D01*
X177579520Y-117867850D01*
X177569030Y-117845671D01*
X177560765Y-117822572D01*
X177554804Y-117798773D01*
X177551204Y-117774505D01*
X177550000Y-117750001D01*
X177550000Y-116849999D01*
X177551204Y-116825495D01*
X177554804Y-116801227D01*
X177560765Y-116777428D01*
X177569030Y-116754329D01*
X177579520Y-116732150D01*
X177592132Y-116711107D01*
X177606747Y-116691401D01*
X177623223Y-116673223D01*
X177641401Y-116656747D01*
X177661107Y-116642132D01*
X177682150Y-116629520D01*
X177704329Y-116619030D01*
X177727428Y-116610765D01*
X177751227Y-116604804D01*
X177775495Y-116601204D01*
X177799999Y-116600000D01*
X178450001Y-116600000D01*
X178474505Y-116601204D01*
G37*
G36*
X176424505Y-116601204D02*
G01*
X176448773Y-116604804D01*
X176472572Y-116610765D01*
X176495671Y-116619030D01*
X176517850Y-116629520D01*
X176538893Y-116642132D01*
X176558599Y-116656747D01*
X176576777Y-116673223D01*
X176593253Y-116691401D01*
X176607868Y-116711107D01*
X176620480Y-116732150D01*
X176630970Y-116754329D01*
X176639235Y-116777428D01*
X176645196Y-116801227D01*
X176648796Y-116825495D01*
X176650000Y-116849999D01*
X176650000Y-117750001D01*
X176648796Y-117774505D01*
X176645196Y-117798773D01*
X176639235Y-117822572D01*
X176630970Y-117845671D01*
X176620480Y-117867850D01*
X176607868Y-117888893D01*
X176593253Y-117908599D01*
X176576777Y-117926777D01*
X176558599Y-117943253D01*
X176538893Y-117957868D01*
X176517850Y-117970480D01*
X176495671Y-117980970D01*
X176472572Y-117989235D01*
X176448773Y-117995196D01*
X176424505Y-117998796D01*
X176400001Y-118000000D01*
X175749999Y-118000000D01*
X175725495Y-117998796D01*
X175701227Y-117995196D01*
X175677428Y-117989235D01*
X175654329Y-117980970D01*
X175632150Y-117970480D01*
X175611107Y-117957868D01*
X175591401Y-117943253D01*
X175573223Y-117926777D01*
X175556747Y-117908599D01*
X175542132Y-117888893D01*
X175529520Y-117867850D01*
X175519030Y-117845671D01*
X175510765Y-117822572D01*
X175504804Y-117798773D01*
X175501204Y-117774505D01*
X175500000Y-117750001D01*
X175500000Y-116849999D01*
X175501204Y-116825495D01*
X175504804Y-116801227D01*
X175510765Y-116777428D01*
X175519030Y-116754329D01*
X175529520Y-116732150D01*
X175542132Y-116711107D01*
X175556747Y-116691401D01*
X175573223Y-116673223D01*
X175591401Y-116656747D01*
X175611107Y-116642132D01*
X175632150Y-116629520D01*
X175654329Y-116619030D01*
X175677428Y-116610765D01*
X175701227Y-116604804D01*
X175725495Y-116601204D01*
X175749999Y-116600000D01*
X176400001Y-116600000D01*
X176424505Y-116601204D01*
G37*
G36*
X148374505Y-52301204D02*
G01*
X148398773Y-52304804D01*
X148422572Y-52310765D01*
X148445671Y-52319030D01*
X148467850Y-52329520D01*
X148488893Y-52342132D01*
X148508599Y-52356747D01*
X148526777Y-52373223D01*
X148543253Y-52391401D01*
X148557868Y-52411107D01*
X148570480Y-52432150D01*
X148580970Y-52454329D01*
X148589235Y-52477428D01*
X148595196Y-52501227D01*
X148598796Y-52525495D01*
X148600000Y-52549999D01*
X148600000Y-53450001D01*
X148598796Y-53474505D01*
X148595196Y-53498773D01*
X148589235Y-53522572D01*
X148580970Y-53545671D01*
X148570480Y-53567850D01*
X148557868Y-53588893D01*
X148543253Y-53608599D01*
X148526777Y-53626777D01*
X148508599Y-53643253D01*
X148488893Y-53657868D01*
X148467850Y-53670480D01*
X148445671Y-53680970D01*
X148422572Y-53689235D01*
X148398773Y-53695196D01*
X148374505Y-53698796D01*
X148350001Y-53700000D01*
X147699999Y-53700000D01*
X147675495Y-53698796D01*
X147651227Y-53695196D01*
X147627428Y-53689235D01*
X147604329Y-53680970D01*
X147582150Y-53670480D01*
X147561107Y-53657868D01*
X147541401Y-53643253D01*
X147523223Y-53626777D01*
X147506747Y-53608599D01*
X147492132Y-53588893D01*
X147479520Y-53567850D01*
X147469030Y-53545671D01*
X147460765Y-53522572D01*
X147454804Y-53498773D01*
X147451204Y-53474505D01*
X147450000Y-53450001D01*
X147450000Y-52549999D01*
X147451204Y-52525495D01*
X147454804Y-52501227D01*
X147460765Y-52477428D01*
X147469030Y-52454329D01*
X147479520Y-52432150D01*
X147492132Y-52411107D01*
X147506747Y-52391401D01*
X147523223Y-52373223D01*
X147541401Y-52356747D01*
X147561107Y-52342132D01*
X147582150Y-52329520D01*
X147604329Y-52319030D01*
X147627428Y-52310765D01*
X147651227Y-52304804D01*
X147675495Y-52301204D01*
X147699999Y-52300000D01*
X148350001Y-52300000D01*
X148374505Y-52301204D01*
G37*
G36*
X146324505Y-52301204D02*
G01*
X146348773Y-52304804D01*
X146372572Y-52310765D01*
X146395671Y-52319030D01*
X146417850Y-52329520D01*
X146438893Y-52342132D01*
X146458599Y-52356747D01*
X146476777Y-52373223D01*
X146493253Y-52391401D01*
X146507868Y-52411107D01*
X146520480Y-52432150D01*
X146530970Y-52454329D01*
X146539235Y-52477428D01*
X146545196Y-52501227D01*
X146548796Y-52525495D01*
X146550000Y-52549999D01*
X146550000Y-53450001D01*
X146548796Y-53474505D01*
X146545196Y-53498773D01*
X146539235Y-53522572D01*
X146530970Y-53545671D01*
X146520480Y-53567850D01*
X146507868Y-53588893D01*
X146493253Y-53608599D01*
X146476777Y-53626777D01*
X146458599Y-53643253D01*
X146438893Y-53657868D01*
X146417850Y-53670480D01*
X146395671Y-53680970D01*
X146372572Y-53689235D01*
X146348773Y-53695196D01*
X146324505Y-53698796D01*
X146300001Y-53700000D01*
X145649999Y-53700000D01*
X145625495Y-53698796D01*
X145601227Y-53695196D01*
X145577428Y-53689235D01*
X145554329Y-53680970D01*
X145532150Y-53670480D01*
X145511107Y-53657868D01*
X145491401Y-53643253D01*
X145473223Y-53626777D01*
X145456747Y-53608599D01*
X145442132Y-53588893D01*
X145429520Y-53567850D01*
X145419030Y-53545671D01*
X145410765Y-53522572D01*
X145404804Y-53498773D01*
X145401204Y-53474505D01*
X145400000Y-53450001D01*
X145400000Y-52549999D01*
X145401204Y-52525495D01*
X145404804Y-52501227D01*
X145410765Y-52477428D01*
X145419030Y-52454329D01*
X145429520Y-52432150D01*
X145442132Y-52411107D01*
X145456747Y-52391401D01*
X145473223Y-52373223D01*
X145491401Y-52356747D01*
X145511107Y-52342132D01*
X145532150Y-52329520D01*
X145554329Y-52319030D01*
X145577428Y-52310765D01*
X145601227Y-52304804D01*
X145625495Y-52301204D01*
X145649999Y-52300000D01*
X146300001Y-52300000D01*
X146324505Y-52301204D01*
G37*
G36*
X166624505Y-56951204D02*
G01*
X166648773Y-56954804D01*
X166672572Y-56960765D01*
X166695671Y-56969030D01*
X166717850Y-56979520D01*
X166738893Y-56992132D01*
X166758599Y-57006747D01*
X166776777Y-57023223D01*
X166793253Y-57041401D01*
X166807868Y-57061107D01*
X166820480Y-57082150D01*
X166830970Y-57104329D01*
X166839235Y-57127428D01*
X166845196Y-57151227D01*
X166848796Y-57175495D01*
X166850000Y-57199999D01*
X166850000Y-58100001D01*
X166848796Y-58124505D01*
X166845196Y-58148773D01*
X166839235Y-58172572D01*
X166830970Y-58195671D01*
X166820480Y-58217850D01*
X166807868Y-58238893D01*
X166793253Y-58258599D01*
X166776777Y-58276777D01*
X166758599Y-58293253D01*
X166738893Y-58307868D01*
X166717850Y-58320480D01*
X166695671Y-58330970D01*
X166672572Y-58339235D01*
X166648773Y-58345196D01*
X166624505Y-58348796D01*
X166600001Y-58350000D01*
X165949999Y-58350000D01*
X165925495Y-58348796D01*
X165901227Y-58345196D01*
X165877428Y-58339235D01*
X165854329Y-58330970D01*
X165832150Y-58320480D01*
X165811107Y-58307868D01*
X165791401Y-58293253D01*
X165773223Y-58276777D01*
X165756747Y-58258599D01*
X165742132Y-58238893D01*
X165729520Y-58217850D01*
X165719030Y-58195671D01*
X165710765Y-58172572D01*
X165704804Y-58148773D01*
X165701204Y-58124505D01*
X165700000Y-58100001D01*
X165700000Y-57199999D01*
X165701204Y-57175495D01*
X165704804Y-57151227D01*
X165710765Y-57127428D01*
X165719030Y-57104329D01*
X165729520Y-57082150D01*
X165742132Y-57061107D01*
X165756747Y-57041401D01*
X165773223Y-57023223D01*
X165791401Y-57006747D01*
X165811107Y-56992132D01*
X165832150Y-56979520D01*
X165854329Y-56969030D01*
X165877428Y-56960765D01*
X165901227Y-56954804D01*
X165925495Y-56951204D01*
X165949999Y-56950000D01*
X166600001Y-56950000D01*
X166624505Y-56951204D01*
G37*
G36*
X168674505Y-56951204D02*
G01*
X168698773Y-56954804D01*
X168722572Y-56960765D01*
X168745671Y-56969030D01*
X168767850Y-56979520D01*
X168788893Y-56992132D01*
X168808599Y-57006747D01*
X168826777Y-57023223D01*
X168843253Y-57041401D01*
X168857868Y-57061107D01*
X168870480Y-57082150D01*
X168880970Y-57104329D01*
X168889235Y-57127428D01*
X168895196Y-57151227D01*
X168898796Y-57175495D01*
X168900000Y-57199999D01*
X168900000Y-58100001D01*
X168898796Y-58124505D01*
X168895196Y-58148773D01*
X168889235Y-58172572D01*
X168880970Y-58195671D01*
X168870480Y-58217850D01*
X168857868Y-58238893D01*
X168843253Y-58258599D01*
X168826777Y-58276777D01*
X168808599Y-58293253D01*
X168788893Y-58307868D01*
X168767850Y-58320480D01*
X168745671Y-58330970D01*
X168722572Y-58339235D01*
X168698773Y-58345196D01*
X168674505Y-58348796D01*
X168650001Y-58350000D01*
X167999999Y-58350000D01*
X167975495Y-58348796D01*
X167951227Y-58345196D01*
X167927428Y-58339235D01*
X167904329Y-58330970D01*
X167882150Y-58320480D01*
X167861107Y-58307868D01*
X167841401Y-58293253D01*
X167823223Y-58276777D01*
X167806747Y-58258599D01*
X167792132Y-58238893D01*
X167779520Y-58217850D01*
X167769030Y-58195671D01*
X167760765Y-58172572D01*
X167754804Y-58148773D01*
X167751204Y-58124505D01*
X167750000Y-58100001D01*
X167750000Y-57199999D01*
X167751204Y-57175495D01*
X167754804Y-57151227D01*
X167760765Y-57127428D01*
X167769030Y-57104329D01*
X167779520Y-57082150D01*
X167792132Y-57061107D01*
X167806747Y-57041401D01*
X167823223Y-57023223D01*
X167841401Y-57006747D01*
X167861107Y-56992132D01*
X167882150Y-56979520D01*
X167904329Y-56969030D01*
X167927428Y-56960765D01*
X167951227Y-56954804D01*
X167975495Y-56951204D01*
X167999999Y-56950000D01*
X168650001Y-56950000D01*
X168674505Y-56951204D01*
G37*
G36*
X182974505Y-59223204D02*
G01*
X182998773Y-59226804D01*
X183022572Y-59232765D01*
X183045671Y-59241030D01*
X183067850Y-59251520D01*
X183088893Y-59264132D01*
X183108599Y-59278747D01*
X183126777Y-59295223D01*
X183143253Y-59313401D01*
X183157868Y-59333107D01*
X183170480Y-59354150D01*
X183180970Y-59376329D01*
X183189235Y-59399428D01*
X183195196Y-59423227D01*
X183198796Y-59447495D01*
X183200000Y-59471999D01*
X183200000Y-60122001D01*
X183198796Y-60146505D01*
X183195196Y-60170773D01*
X183189235Y-60194572D01*
X183180970Y-60217671D01*
X183170480Y-60239850D01*
X183157868Y-60260893D01*
X183143253Y-60280599D01*
X183126777Y-60298777D01*
X183108599Y-60315253D01*
X183088893Y-60329868D01*
X183067850Y-60342480D01*
X183045671Y-60352970D01*
X183022572Y-60361235D01*
X182998773Y-60367196D01*
X182974505Y-60370796D01*
X182950001Y-60372000D01*
X182049999Y-60372000D01*
X182025495Y-60370796D01*
X182001227Y-60367196D01*
X181977428Y-60361235D01*
X181954329Y-60352970D01*
X181932150Y-60342480D01*
X181911107Y-60329868D01*
X181891401Y-60315253D01*
X181873223Y-60298777D01*
X181856747Y-60280599D01*
X181842132Y-60260893D01*
X181829520Y-60239850D01*
X181819030Y-60217671D01*
X181810765Y-60194572D01*
X181804804Y-60170773D01*
X181801204Y-60146505D01*
X181800000Y-60122001D01*
X181800000Y-59471999D01*
X181801204Y-59447495D01*
X181804804Y-59423227D01*
X181810765Y-59399428D01*
X181819030Y-59376329D01*
X181829520Y-59354150D01*
X181842132Y-59333107D01*
X181856747Y-59313401D01*
X181873223Y-59295223D01*
X181891401Y-59278747D01*
X181911107Y-59264132D01*
X181932150Y-59251520D01*
X181954329Y-59241030D01*
X181977428Y-59232765D01*
X182001227Y-59226804D01*
X182025495Y-59223204D01*
X182049999Y-59222000D01*
X182950001Y-59222000D01*
X182974505Y-59223204D01*
G37*
G36*
X182974505Y-57173204D02*
G01*
X182998773Y-57176804D01*
X183022572Y-57182765D01*
X183045671Y-57191030D01*
X183067850Y-57201520D01*
X183088893Y-57214132D01*
X183108599Y-57228747D01*
X183126777Y-57245223D01*
X183143253Y-57263401D01*
X183157868Y-57283107D01*
X183170480Y-57304150D01*
X183180970Y-57326329D01*
X183189235Y-57349428D01*
X183195196Y-57373227D01*
X183198796Y-57397495D01*
X183200000Y-57421999D01*
X183200000Y-58072001D01*
X183198796Y-58096505D01*
X183195196Y-58120773D01*
X183189235Y-58144572D01*
X183180970Y-58167671D01*
X183170480Y-58189850D01*
X183157868Y-58210893D01*
X183143253Y-58230599D01*
X183126777Y-58248777D01*
X183108599Y-58265253D01*
X183088893Y-58279868D01*
X183067850Y-58292480D01*
X183045671Y-58302970D01*
X183022572Y-58311235D01*
X182998773Y-58317196D01*
X182974505Y-58320796D01*
X182950001Y-58322000D01*
X182049999Y-58322000D01*
X182025495Y-58320796D01*
X182001227Y-58317196D01*
X181977428Y-58311235D01*
X181954329Y-58302970D01*
X181932150Y-58292480D01*
X181911107Y-58279868D01*
X181891401Y-58265253D01*
X181873223Y-58248777D01*
X181856747Y-58230599D01*
X181842132Y-58210893D01*
X181829520Y-58189850D01*
X181819030Y-58167671D01*
X181810765Y-58144572D01*
X181804804Y-58120773D01*
X181801204Y-58096505D01*
X181800000Y-58072001D01*
X181800000Y-57421999D01*
X181801204Y-57397495D01*
X181804804Y-57373227D01*
X181810765Y-57349428D01*
X181819030Y-57326329D01*
X181829520Y-57304150D01*
X181842132Y-57283107D01*
X181856747Y-57263401D01*
X181873223Y-57245223D01*
X181891401Y-57228747D01*
X181911107Y-57214132D01*
X181932150Y-57201520D01*
X181954329Y-57191030D01*
X181977428Y-57182765D01*
X182001227Y-57176804D01*
X182025495Y-57173204D01*
X182049999Y-57172000D01*
X182950001Y-57172000D01*
X182974505Y-57173204D01*
G37*
M02*
