G04 #@! TF.GenerationSoftware,KiCad,Pcbnew,(5.1.5)-3*
G04 #@! TF.CreationDate,2020-05-18T23:19:19-04:00*
G04 #@! TF.ProjectId,CPU,4350552e-6b69-4636-9164-5f7063625858,rev?*
G04 #@! TF.SameCoordinates,Original*
G04 #@! TF.FileFunction,Paste,Top*
G04 #@! TF.FilePolarity,Positive*
%FSLAX46Y46*%
G04 Gerber Fmt 4.6, Leading zero omitted, Abs format (unit mm)*
G04 Created by KiCad (PCBNEW (5.1.5)-3) date 2020-05-18 23:19:19*
%MOMM*%
%LPD*%
G04 APERTURE LIST*
%ADD10C,0.100000*%
%ADD11R,1.200000X0.600000*%
%ADD12R,1.350000X0.700000*%
%ADD13R,1.900000X1.500000*%
%ADD14R,0.800000X0.850000*%
G04 APERTURE END LIST*
D10*
G36*
X58310000Y-47735000D02*
G01*
X58310000Y-46485000D01*
X57690000Y-46485000D01*
X57690000Y-47735000D01*
X58310000Y-47735000D01*
G37*
G36*
X40887703Y-55900722D02*
G01*
X40902264Y-55902882D01*
X40916543Y-55906459D01*
X40930403Y-55911418D01*
X40943710Y-55917712D01*
X40956336Y-55925280D01*
X40968159Y-55934048D01*
X40979066Y-55943934D01*
X40988952Y-55954841D01*
X40997720Y-55966664D01*
X41005288Y-55979290D01*
X41011582Y-55992597D01*
X41016541Y-56006457D01*
X41020118Y-56020736D01*
X41022278Y-56035297D01*
X41023000Y-56050000D01*
X41023000Y-56750000D01*
X41022278Y-56764703D01*
X41020118Y-56779264D01*
X41016541Y-56793543D01*
X41011582Y-56807403D01*
X41005288Y-56820710D01*
X40997720Y-56833336D01*
X40988952Y-56845159D01*
X40979066Y-56856066D01*
X40968159Y-56865952D01*
X40956336Y-56874720D01*
X40943710Y-56882288D01*
X40930403Y-56888582D01*
X40916543Y-56893541D01*
X40902264Y-56897118D01*
X40887703Y-56899278D01*
X40873000Y-56900000D01*
X40173000Y-56900000D01*
X40158297Y-56899278D01*
X40143736Y-56897118D01*
X40129457Y-56893541D01*
X40115597Y-56888582D01*
X40102290Y-56882288D01*
X40089664Y-56874720D01*
X40077841Y-56865952D01*
X40066934Y-56856066D01*
X40057048Y-56845159D01*
X40048280Y-56833336D01*
X40040712Y-56820710D01*
X40034418Y-56807403D01*
X40029459Y-56793543D01*
X40025882Y-56779264D01*
X40023722Y-56764703D01*
X40023000Y-56750000D01*
X40023000Y-56050000D01*
X40023722Y-56035297D01*
X40025882Y-56020736D01*
X40029459Y-56006457D01*
X40034418Y-55992597D01*
X40040712Y-55979290D01*
X40048280Y-55966664D01*
X40057048Y-55954841D01*
X40066934Y-55943934D01*
X40077841Y-55934048D01*
X40089664Y-55925280D01*
X40102290Y-55917712D01*
X40115597Y-55911418D01*
X40129457Y-55906459D01*
X40143736Y-55902882D01*
X40158297Y-55900722D01*
X40173000Y-55900000D01*
X40873000Y-55900000D01*
X40887703Y-55900722D01*
G37*
G36*
X42641703Y-55900722D02*
G01*
X42656264Y-55902882D01*
X42670543Y-55906459D01*
X42684403Y-55911418D01*
X42697710Y-55917712D01*
X42710336Y-55925280D01*
X42722159Y-55934048D01*
X42733066Y-55943934D01*
X42742952Y-55954841D01*
X42751720Y-55966664D01*
X42759288Y-55979290D01*
X42765582Y-55992597D01*
X42770541Y-56006457D01*
X42774118Y-56020736D01*
X42776278Y-56035297D01*
X42777000Y-56050000D01*
X42777000Y-56750000D01*
X42776278Y-56764703D01*
X42774118Y-56779264D01*
X42770541Y-56793543D01*
X42765582Y-56807403D01*
X42759288Y-56820710D01*
X42751720Y-56833336D01*
X42742952Y-56845159D01*
X42733066Y-56856066D01*
X42722159Y-56865952D01*
X42710336Y-56874720D01*
X42697710Y-56882288D01*
X42684403Y-56888582D01*
X42670543Y-56893541D01*
X42656264Y-56897118D01*
X42641703Y-56899278D01*
X42627000Y-56900000D01*
X41927000Y-56900000D01*
X41912297Y-56899278D01*
X41897736Y-56897118D01*
X41883457Y-56893541D01*
X41869597Y-56888582D01*
X41856290Y-56882288D01*
X41843664Y-56874720D01*
X41831841Y-56865952D01*
X41820934Y-56856066D01*
X41811048Y-56845159D01*
X41802280Y-56833336D01*
X41794712Y-56820710D01*
X41788418Y-56807403D01*
X41783459Y-56793543D01*
X41779882Y-56779264D01*
X41777722Y-56764703D01*
X41777000Y-56750000D01*
X41777000Y-56050000D01*
X41777722Y-56035297D01*
X41779882Y-56020736D01*
X41783459Y-56006457D01*
X41788418Y-55992597D01*
X41794712Y-55979290D01*
X41802280Y-55966664D01*
X41811048Y-55954841D01*
X41820934Y-55943934D01*
X41831841Y-55934048D01*
X41843664Y-55925280D01*
X41856290Y-55917712D01*
X41869597Y-55911418D01*
X41883457Y-55906459D01*
X41897736Y-55902882D01*
X41912297Y-55900722D01*
X41927000Y-55900000D01*
X42627000Y-55900000D01*
X42641703Y-55900722D01*
G37*
D11*
X159100000Y-48075000D03*
X159100000Y-47125000D03*
X161400000Y-47125000D03*
X161400000Y-48075000D03*
D10*
G36*
X163406609Y-46886059D02*
G01*
X163427960Y-46889226D01*
X163448898Y-46894471D01*
X163469221Y-46901743D01*
X163488734Y-46910971D01*
X163507248Y-46922068D01*
X163524585Y-46934926D01*
X163540578Y-46949422D01*
X163555074Y-46965415D01*
X163567932Y-46982752D01*
X163579029Y-47001266D01*
X163588257Y-47020779D01*
X163595529Y-47041102D01*
X163600774Y-47062040D01*
X163603941Y-47083391D01*
X163605000Y-47104950D01*
X163605000Y-47495050D01*
X163603941Y-47516609D01*
X163600774Y-47537960D01*
X163595529Y-47558898D01*
X163588257Y-47579221D01*
X163579029Y-47598734D01*
X163567932Y-47617248D01*
X163555074Y-47634585D01*
X163540578Y-47650578D01*
X163524585Y-47665074D01*
X163507248Y-47677932D01*
X163488734Y-47689029D01*
X163469221Y-47698257D01*
X163448898Y-47705529D01*
X163427960Y-47710774D01*
X163406609Y-47713941D01*
X163385050Y-47715000D01*
X162914950Y-47715000D01*
X162893391Y-47713941D01*
X162872040Y-47710774D01*
X162851102Y-47705529D01*
X162830779Y-47698257D01*
X162811266Y-47689029D01*
X162792752Y-47677932D01*
X162775415Y-47665074D01*
X162759422Y-47650578D01*
X162744926Y-47634585D01*
X162732068Y-47617248D01*
X162720971Y-47598734D01*
X162711743Y-47579221D01*
X162704471Y-47558898D01*
X162699226Y-47537960D01*
X162696059Y-47516609D01*
X162695000Y-47495050D01*
X162695000Y-47104950D01*
X162696059Y-47083391D01*
X162699226Y-47062040D01*
X162704471Y-47041102D01*
X162711743Y-47020779D01*
X162720971Y-47001266D01*
X162732068Y-46982752D01*
X162744926Y-46965415D01*
X162759422Y-46949422D01*
X162775415Y-46934926D01*
X162792752Y-46922068D01*
X162811266Y-46910971D01*
X162830779Y-46901743D01*
X162851102Y-46894471D01*
X162872040Y-46889226D01*
X162893391Y-46886059D01*
X162914950Y-46885000D01*
X163385050Y-46885000D01*
X163406609Y-46886059D01*
G37*
G36*
X164906609Y-46886059D02*
G01*
X164927960Y-46889226D01*
X164948898Y-46894471D01*
X164969221Y-46901743D01*
X164988734Y-46910971D01*
X165007248Y-46922068D01*
X165024585Y-46934926D01*
X165040578Y-46949422D01*
X165055074Y-46965415D01*
X165067932Y-46982752D01*
X165079029Y-47001266D01*
X165088257Y-47020779D01*
X165095529Y-47041102D01*
X165100774Y-47062040D01*
X165103941Y-47083391D01*
X165105000Y-47104950D01*
X165105000Y-47495050D01*
X165103941Y-47516609D01*
X165100774Y-47537960D01*
X165095529Y-47558898D01*
X165088257Y-47579221D01*
X165079029Y-47598734D01*
X165067932Y-47617248D01*
X165055074Y-47634585D01*
X165040578Y-47650578D01*
X165024585Y-47665074D01*
X165007248Y-47677932D01*
X164988734Y-47689029D01*
X164969221Y-47698257D01*
X164948898Y-47705529D01*
X164927960Y-47710774D01*
X164906609Y-47713941D01*
X164885050Y-47715000D01*
X164414950Y-47715000D01*
X164393391Y-47713941D01*
X164372040Y-47710774D01*
X164351102Y-47705529D01*
X164330779Y-47698257D01*
X164311266Y-47689029D01*
X164292752Y-47677932D01*
X164275415Y-47665074D01*
X164259422Y-47650578D01*
X164244926Y-47634585D01*
X164232068Y-47617248D01*
X164220971Y-47598734D01*
X164211743Y-47579221D01*
X164204471Y-47558898D01*
X164199226Y-47537960D01*
X164196059Y-47516609D01*
X164195000Y-47495050D01*
X164195000Y-47104950D01*
X164196059Y-47083391D01*
X164199226Y-47062040D01*
X164204471Y-47041102D01*
X164211743Y-47020779D01*
X164220971Y-47001266D01*
X164232068Y-46982752D01*
X164244926Y-46965415D01*
X164259422Y-46949422D01*
X164275415Y-46934926D01*
X164292752Y-46922068D01*
X164311266Y-46910971D01*
X164330779Y-46901743D01*
X164351102Y-46894471D01*
X164372040Y-46889226D01*
X164393391Y-46886059D01*
X164414950Y-46885000D01*
X164885050Y-46885000D01*
X164906609Y-46886059D01*
G37*
G36*
X40922201Y-70620722D02*
G01*
X40936762Y-70622882D01*
X40951041Y-70626459D01*
X40964901Y-70631418D01*
X40978208Y-70637712D01*
X40990834Y-70645280D01*
X41002657Y-70654048D01*
X41013564Y-70663934D01*
X41023450Y-70674841D01*
X41032218Y-70686664D01*
X41039786Y-70699290D01*
X41046080Y-70712597D01*
X41051039Y-70726457D01*
X41054616Y-70740736D01*
X41056776Y-70755297D01*
X41057498Y-70770000D01*
X41057498Y-71470000D01*
X41056776Y-71484703D01*
X41054616Y-71499264D01*
X41051039Y-71513543D01*
X41046080Y-71527403D01*
X41039786Y-71540710D01*
X41032218Y-71553336D01*
X41023450Y-71565159D01*
X41013564Y-71576066D01*
X41002657Y-71585952D01*
X40990834Y-71594720D01*
X40978208Y-71602288D01*
X40964901Y-71608582D01*
X40951041Y-71613541D01*
X40936762Y-71617118D01*
X40922201Y-71619278D01*
X40907498Y-71620000D01*
X40207498Y-71620000D01*
X40192795Y-71619278D01*
X40178234Y-71617118D01*
X40163955Y-71613541D01*
X40150095Y-71608582D01*
X40136788Y-71602288D01*
X40124162Y-71594720D01*
X40112339Y-71585952D01*
X40101432Y-71576066D01*
X40091546Y-71565159D01*
X40082778Y-71553336D01*
X40075210Y-71540710D01*
X40068916Y-71527403D01*
X40063957Y-71513543D01*
X40060380Y-71499264D01*
X40058220Y-71484703D01*
X40057498Y-71470000D01*
X40057498Y-70770000D01*
X40058220Y-70755297D01*
X40060380Y-70740736D01*
X40063957Y-70726457D01*
X40068916Y-70712597D01*
X40075210Y-70699290D01*
X40082778Y-70686664D01*
X40091546Y-70674841D01*
X40101432Y-70663934D01*
X40112339Y-70654048D01*
X40124162Y-70645280D01*
X40136788Y-70637712D01*
X40150095Y-70631418D01*
X40163955Y-70626459D01*
X40178234Y-70622882D01*
X40192795Y-70620722D01*
X40207498Y-70620000D01*
X40907498Y-70620000D01*
X40922201Y-70620722D01*
G37*
G36*
X42676201Y-70620722D02*
G01*
X42690762Y-70622882D01*
X42705041Y-70626459D01*
X42718901Y-70631418D01*
X42732208Y-70637712D01*
X42744834Y-70645280D01*
X42756657Y-70654048D01*
X42767564Y-70663934D01*
X42777450Y-70674841D01*
X42786218Y-70686664D01*
X42793786Y-70699290D01*
X42800080Y-70712597D01*
X42805039Y-70726457D01*
X42808616Y-70740736D01*
X42810776Y-70755297D01*
X42811498Y-70770000D01*
X42811498Y-71470000D01*
X42810776Y-71484703D01*
X42808616Y-71499264D01*
X42805039Y-71513543D01*
X42800080Y-71527403D01*
X42793786Y-71540710D01*
X42786218Y-71553336D01*
X42777450Y-71565159D01*
X42767564Y-71576066D01*
X42756657Y-71585952D01*
X42744834Y-71594720D01*
X42732208Y-71602288D01*
X42718901Y-71608582D01*
X42705041Y-71613541D01*
X42690762Y-71617118D01*
X42676201Y-71619278D01*
X42661498Y-71620000D01*
X41961498Y-71620000D01*
X41946795Y-71619278D01*
X41932234Y-71617118D01*
X41917955Y-71613541D01*
X41904095Y-71608582D01*
X41890788Y-71602288D01*
X41878162Y-71594720D01*
X41866339Y-71585952D01*
X41855432Y-71576066D01*
X41845546Y-71565159D01*
X41836778Y-71553336D01*
X41829210Y-71540710D01*
X41822916Y-71527403D01*
X41817957Y-71513543D01*
X41814380Y-71499264D01*
X41812220Y-71484703D01*
X41811498Y-71470000D01*
X41811498Y-70770000D01*
X41812220Y-70755297D01*
X41814380Y-70740736D01*
X41817957Y-70726457D01*
X41822916Y-70712597D01*
X41829210Y-70699290D01*
X41836778Y-70686664D01*
X41845546Y-70674841D01*
X41855432Y-70663934D01*
X41866339Y-70654048D01*
X41878162Y-70645280D01*
X41890788Y-70637712D01*
X41904095Y-70631418D01*
X41917955Y-70626459D01*
X41932234Y-70622882D01*
X41946795Y-70620722D01*
X41961498Y-70620000D01*
X42661498Y-70620000D01*
X42676201Y-70620722D01*
G37*
G36*
X40987703Y-89800722D02*
G01*
X41002264Y-89802882D01*
X41016543Y-89806459D01*
X41030403Y-89811418D01*
X41043710Y-89817712D01*
X41056336Y-89825280D01*
X41068159Y-89834048D01*
X41079066Y-89843934D01*
X41088952Y-89854841D01*
X41097720Y-89866664D01*
X41105288Y-89879290D01*
X41111582Y-89892597D01*
X41116541Y-89906457D01*
X41120118Y-89920736D01*
X41122278Y-89935297D01*
X41123000Y-89950000D01*
X41123000Y-90650000D01*
X41122278Y-90664703D01*
X41120118Y-90679264D01*
X41116541Y-90693543D01*
X41111582Y-90707403D01*
X41105288Y-90720710D01*
X41097720Y-90733336D01*
X41088952Y-90745159D01*
X41079066Y-90756066D01*
X41068159Y-90765952D01*
X41056336Y-90774720D01*
X41043710Y-90782288D01*
X41030403Y-90788582D01*
X41016543Y-90793541D01*
X41002264Y-90797118D01*
X40987703Y-90799278D01*
X40973000Y-90800000D01*
X40273000Y-90800000D01*
X40258297Y-90799278D01*
X40243736Y-90797118D01*
X40229457Y-90793541D01*
X40215597Y-90788582D01*
X40202290Y-90782288D01*
X40189664Y-90774720D01*
X40177841Y-90765952D01*
X40166934Y-90756066D01*
X40157048Y-90745159D01*
X40148280Y-90733336D01*
X40140712Y-90720710D01*
X40134418Y-90707403D01*
X40129459Y-90693543D01*
X40125882Y-90679264D01*
X40123722Y-90664703D01*
X40123000Y-90650000D01*
X40123000Y-89950000D01*
X40123722Y-89935297D01*
X40125882Y-89920736D01*
X40129459Y-89906457D01*
X40134418Y-89892597D01*
X40140712Y-89879290D01*
X40148280Y-89866664D01*
X40157048Y-89854841D01*
X40166934Y-89843934D01*
X40177841Y-89834048D01*
X40189664Y-89825280D01*
X40202290Y-89817712D01*
X40215597Y-89811418D01*
X40229457Y-89806459D01*
X40243736Y-89802882D01*
X40258297Y-89800722D01*
X40273000Y-89800000D01*
X40973000Y-89800000D01*
X40987703Y-89800722D01*
G37*
G36*
X42741703Y-89800722D02*
G01*
X42756264Y-89802882D01*
X42770543Y-89806459D01*
X42784403Y-89811418D01*
X42797710Y-89817712D01*
X42810336Y-89825280D01*
X42822159Y-89834048D01*
X42833066Y-89843934D01*
X42842952Y-89854841D01*
X42851720Y-89866664D01*
X42859288Y-89879290D01*
X42865582Y-89892597D01*
X42870541Y-89906457D01*
X42874118Y-89920736D01*
X42876278Y-89935297D01*
X42877000Y-89950000D01*
X42877000Y-90650000D01*
X42876278Y-90664703D01*
X42874118Y-90679264D01*
X42870541Y-90693543D01*
X42865582Y-90707403D01*
X42859288Y-90720710D01*
X42851720Y-90733336D01*
X42842952Y-90745159D01*
X42833066Y-90756066D01*
X42822159Y-90765952D01*
X42810336Y-90774720D01*
X42797710Y-90782288D01*
X42784403Y-90788582D01*
X42770543Y-90793541D01*
X42756264Y-90797118D01*
X42741703Y-90799278D01*
X42727000Y-90800000D01*
X42027000Y-90800000D01*
X42012297Y-90799278D01*
X41997736Y-90797118D01*
X41983457Y-90793541D01*
X41969597Y-90788582D01*
X41956290Y-90782288D01*
X41943664Y-90774720D01*
X41931841Y-90765952D01*
X41920934Y-90756066D01*
X41911048Y-90745159D01*
X41902280Y-90733336D01*
X41894712Y-90720710D01*
X41888418Y-90707403D01*
X41883459Y-90693543D01*
X41879882Y-90679264D01*
X41877722Y-90664703D01*
X41877000Y-90650000D01*
X41877000Y-89950000D01*
X41877722Y-89935297D01*
X41879882Y-89920736D01*
X41883459Y-89906457D01*
X41888418Y-89892597D01*
X41894712Y-89879290D01*
X41902280Y-89866664D01*
X41911048Y-89854841D01*
X41920934Y-89843934D01*
X41931841Y-89834048D01*
X41943664Y-89825280D01*
X41956290Y-89817712D01*
X41969597Y-89811418D01*
X41983457Y-89806459D01*
X41997736Y-89802882D01*
X42012297Y-89800722D01*
X42027000Y-89800000D01*
X42727000Y-89800000D01*
X42741703Y-89800722D01*
G37*
G36*
X146595367Y-118880722D02*
G01*
X146609928Y-118882882D01*
X146624207Y-118886459D01*
X146638067Y-118891418D01*
X146651374Y-118897712D01*
X146664000Y-118905280D01*
X146675823Y-118914048D01*
X146686730Y-118923934D01*
X146696616Y-118934841D01*
X146705384Y-118946664D01*
X146712952Y-118959290D01*
X146719246Y-118972597D01*
X146724205Y-118986457D01*
X146727782Y-119000736D01*
X146729942Y-119015297D01*
X146730664Y-119030000D01*
X146730664Y-119730000D01*
X146729942Y-119744703D01*
X146727782Y-119759264D01*
X146724205Y-119773543D01*
X146719246Y-119787403D01*
X146712952Y-119800710D01*
X146705384Y-119813336D01*
X146696616Y-119825159D01*
X146686730Y-119836066D01*
X146675823Y-119845952D01*
X146664000Y-119854720D01*
X146651374Y-119862288D01*
X146638067Y-119868582D01*
X146624207Y-119873541D01*
X146609928Y-119877118D01*
X146595367Y-119879278D01*
X146580664Y-119880000D01*
X145880664Y-119880000D01*
X145865961Y-119879278D01*
X145851400Y-119877118D01*
X145837121Y-119873541D01*
X145823261Y-119868582D01*
X145809954Y-119862288D01*
X145797328Y-119854720D01*
X145785505Y-119845952D01*
X145774598Y-119836066D01*
X145764712Y-119825159D01*
X145755944Y-119813336D01*
X145748376Y-119800710D01*
X145742082Y-119787403D01*
X145737123Y-119773543D01*
X145733546Y-119759264D01*
X145731386Y-119744703D01*
X145730664Y-119730000D01*
X145730664Y-119030000D01*
X145731386Y-119015297D01*
X145733546Y-119000736D01*
X145737123Y-118986457D01*
X145742082Y-118972597D01*
X145748376Y-118959290D01*
X145755944Y-118946664D01*
X145764712Y-118934841D01*
X145774598Y-118923934D01*
X145785505Y-118914048D01*
X145797328Y-118905280D01*
X145809954Y-118897712D01*
X145823261Y-118891418D01*
X145837121Y-118886459D01*
X145851400Y-118882882D01*
X145865961Y-118880722D01*
X145880664Y-118880000D01*
X146580664Y-118880000D01*
X146595367Y-118880722D01*
G37*
G36*
X148349367Y-118880722D02*
G01*
X148363928Y-118882882D01*
X148378207Y-118886459D01*
X148392067Y-118891418D01*
X148405374Y-118897712D01*
X148418000Y-118905280D01*
X148429823Y-118914048D01*
X148440730Y-118923934D01*
X148450616Y-118934841D01*
X148459384Y-118946664D01*
X148466952Y-118959290D01*
X148473246Y-118972597D01*
X148478205Y-118986457D01*
X148481782Y-119000736D01*
X148483942Y-119015297D01*
X148484664Y-119030000D01*
X148484664Y-119730000D01*
X148483942Y-119744703D01*
X148481782Y-119759264D01*
X148478205Y-119773543D01*
X148473246Y-119787403D01*
X148466952Y-119800710D01*
X148459384Y-119813336D01*
X148450616Y-119825159D01*
X148440730Y-119836066D01*
X148429823Y-119845952D01*
X148418000Y-119854720D01*
X148405374Y-119862288D01*
X148392067Y-119868582D01*
X148378207Y-119873541D01*
X148363928Y-119877118D01*
X148349367Y-119879278D01*
X148334664Y-119880000D01*
X147634664Y-119880000D01*
X147619961Y-119879278D01*
X147605400Y-119877118D01*
X147591121Y-119873541D01*
X147577261Y-119868582D01*
X147563954Y-119862288D01*
X147551328Y-119854720D01*
X147539505Y-119845952D01*
X147528598Y-119836066D01*
X147518712Y-119825159D01*
X147509944Y-119813336D01*
X147502376Y-119800710D01*
X147496082Y-119787403D01*
X147491123Y-119773543D01*
X147487546Y-119759264D01*
X147485386Y-119744703D01*
X147484664Y-119730000D01*
X147484664Y-119030000D01*
X147485386Y-119015297D01*
X147487546Y-119000736D01*
X147491123Y-118986457D01*
X147496082Y-118972597D01*
X147502376Y-118959290D01*
X147509944Y-118946664D01*
X147518712Y-118934841D01*
X147528598Y-118923934D01*
X147539505Y-118914048D01*
X147551328Y-118905280D01*
X147563954Y-118897712D01*
X147577261Y-118891418D01*
X147591121Y-118886459D01*
X147605400Y-118882882D01*
X147619961Y-118880722D01*
X147634664Y-118880000D01*
X148334664Y-118880000D01*
X148349367Y-118880722D01*
G37*
G36*
X161636919Y-118880722D02*
G01*
X161651480Y-118882882D01*
X161665759Y-118886459D01*
X161679619Y-118891418D01*
X161692926Y-118897712D01*
X161705552Y-118905280D01*
X161717375Y-118914048D01*
X161728282Y-118923934D01*
X161738168Y-118934841D01*
X161746936Y-118946664D01*
X161754504Y-118959290D01*
X161760798Y-118972597D01*
X161765757Y-118986457D01*
X161769334Y-119000736D01*
X161771494Y-119015297D01*
X161772216Y-119030000D01*
X161772216Y-119730000D01*
X161771494Y-119744703D01*
X161769334Y-119759264D01*
X161765757Y-119773543D01*
X161760798Y-119787403D01*
X161754504Y-119800710D01*
X161746936Y-119813336D01*
X161738168Y-119825159D01*
X161728282Y-119836066D01*
X161717375Y-119845952D01*
X161705552Y-119854720D01*
X161692926Y-119862288D01*
X161679619Y-119868582D01*
X161665759Y-119873541D01*
X161651480Y-119877118D01*
X161636919Y-119879278D01*
X161622216Y-119880000D01*
X160922216Y-119880000D01*
X160907513Y-119879278D01*
X160892952Y-119877118D01*
X160878673Y-119873541D01*
X160864813Y-119868582D01*
X160851506Y-119862288D01*
X160838880Y-119854720D01*
X160827057Y-119845952D01*
X160816150Y-119836066D01*
X160806264Y-119825159D01*
X160797496Y-119813336D01*
X160789928Y-119800710D01*
X160783634Y-119787403D01*
X160778675Y-119773543D01*
X160775098Y-119759264D01*
X160772938Y-119744703D01*
X160772216Y-119730000D01*
X160772216Y-119030000D01*
X160772938Y-119015297D01*
X160775098Y-119000736D01*
X160778675Y-118986457D01*
X160783634Y-118972597D01*
X160789928Y-118959290D01*
X160797496Y-118946664D01*
X160806264Y-118934841D01*
X160816150Y-118923934D01*
X160827057Y-118914048D01*
X160838880Y-118905280D01*
X160851506Y-118897712D01*
X160864813Y-118891418D01*
X160878673Y-118886459D01*
X160892952Y-118882882D01*
X160907513Y-118880722D01*
X160922216Y-118880000D01*
X161622216Y-118880000D01*
X161636919Y-118880722D01*
G37*
G36*
X163390919Y-118880722D02*
G01*
X163405480Y-118882882D01*
X163419759Y-118886459D01*
X163433619Y-118891418D01*
X163446926Y-118897712D01*
X163459552Y-118905280D01*
X163471375Y-118914048D01*
X163482282Y-118923934D01*
X163492168Y-118934841D01*
X163500936Y-118946664D01*
X163508504Y-118959290D01*
X163514798Y-118972597D01*
X163519757Y-118986457D01*
X163523334Y-119000736D01*
X163525494Y-119015297D01*
X163526216Y-119030000D01*
X163526216Y-119730000D01*
X163525494Y-119744703D01*
X163523334Y-119759264D01*
X163519757Y-119773543D01*
X163514798Y-119787403D01*
X163508504Y-119800710D01*
X163500936Y-119813336D01*
X163492168Y-119825159D01*
X163482282Y-119836066D01*
X163471375Y-119845952D01*
X163459552Y-119854720D01*
X163446926Y-119862288D01*
X163433619Y-119868582D01*
X163419759Y-119873541D01*
X163405480Y-119877118D01*
X163390919Y-119879278D01*
X163376216Y-119880000D01*
X162676216Y-119880000D01*
X162661513Y-119879278D01*
X162646952Y-119877118D01*
X162632673Y-119873541D01*
X162618813Y-119868582D01*
X162605506Y-119862288D01*
X162592880Y-119854720D01*
X162581057Y-119845952D01*
X162570150Y-119836066D01*
X162560264Y-119825159D01*
X162551496Y-119813336D01*
X162543928Y-119800710D01*
X162537634Y-119787403D01*
X162532675Y-119773543D01*
X162529098Y-119759264D01*
X162526938Y-119744703D01*
X162526216Y-119730000D01*
X162526216Y-119030000D01*
X162526938Y-119015297D01*
X162529098Y-119000736D01*
X162532675Y-118986457D01*
X162537634Y-118972597D01*
X162543928Y-118959290D01*
X162551496Y-118946664D01*
X162560264Y-118934841D01*
X162570150Y-118923934D01*
X162581057Y-118914048D01*
X162592880Y-118905280D01*
X162605506Y-118897712D01*
X162618813Y-118891418D01*
X162632673Y-118886459D01*
X162646952Y-118882882D01*
X162661513Y-118880722D01*
X162676216Y-118880000D01*
X163376216Y-118880000D01*
X163390919Y-118880722D01*
G37*
G36*
X176678482Y-118880722D02*
G01*
X176693043Y-118882882D01*
X176707322Y-118886459D01*
X176721182Y-118891418D01*
X176734489Y-118897712D01*
X176747115Y-118905280D01*
X176758938Y-118914048D01*
X176769845Y-118923934D01*
X176779731Y-118934841D01*
X176788499Y-118946664D01*
X176796067Y-118959290D01*
X176802361Y-118972597D01*
X176807320Y-118986457D01*
X176810897Y-119000736D01*
X176813057Y-119015297D01*
X176813779Y-119030000D01*
X176813779Y-119730000D01*
X176813057Y-119744703D01*
X176810897Y-119759264D01*
X176807320Y-119773543D01*
X176802361Y-119787403D01*
X176796067Y-119800710D01*
X176788499Y-119813336D01*
X176779731Y-119825159D01*
X176769845Y-119836066D01*
X176758938Y-119845952D01*
X176747115Y-119854720D01*
X176734489Y-119862288D01*
X176721182Y-119868582D01*
X176707322Y-119873541D01*
X176693043Y-119877118D01*
X176678482Y-119879278D01*
X176663779Y-119880000D01*
X175963779Y-119880000D01*
X175949076Y-119879278D01*
X175934515Y-119877118D01*
X175920236Y-119873541D01*
X175906376Y-119868582D01*
X175893069Y-119862288D01*
X175880443Y-119854720D01*
X175868620Y-119845952D01*
X175857713Y-119836066D01*
X175847827Y-119825159D01*
X175839059Y-119813336D01*
X175831491Y-119800710D01*
X175825197Y-119787403D01*
X175820238Y-119773543D01*
X175816661Y-119759264D01*
X175814501Y-119744703D01*
X175813779Y-119730000D01*
X175813779Y-119030000D01*
X175814501Y-119015297D01*
X175816661Y-119000736D01*
X175820238Y-118986457D01*
X175825197Y-118972597D01*
X175831491Y-118959290D01*
X175839059Y-118946664D01*
X175847827Y-118934841D01*
X175857713Y-118923934D01*
X175868620Y-118914048D01*
X175880443Y-118905280D01*
X175893069Y-118897712D01*
X175906376Y-118891418D01*
X175920236Y-118886459D01*
X175934515Y-118882882D01*
X175949076Y-118880722D01*
X175963779Y-118880000D01*
X176663779Y-118880000D01*
X176678482Y-118880722D01*
G37*
G36*
X178432482Y-118880722D02*
G01*
X178447043Y-118882882D01*
X178461322Y-118886459D01*
X178475182Y-118891418D01*
X178488489Y-118897712D01*
X178501115Y-118905280D01*
X178512938Y-118914048D01*
X178523845Y-118923934D01*
X178533731Y-118934841D01*
X178542499Y-118946664D01*
X178550067Y-118959290D01*
X178556361Y-118972597D01*
X178561320Y-118986457D01*
X178564897Y-119000736D01*
X178567057Y-119015297D01*
X178567779Y-119030000D01*
X178567779Y-119730000D01*
X178567057Y-119744703D01*
X178564897Y-119759264D01*
X178561320Y-119773543D01*
X178556361Y-119787403D01*
X178550067Y-119800710D01*
X178542499Y-119813336D01*
X178533731Y-119825159D01*
X178523845Y-119836066D01*
X178512938Y-119845952D01*
X178501115Y-119854720D01*
X178488489Y-119862288D01*
X178475182Y-119868582D01*
X178461322Y-119873541D01*
X178447043Y-119877118D01*
X178432482Y-119879278D01*
X178417779Y-119880000D01*
X177717779Y-119880000D01*
X177703076Y-119879278D01*
X177688515Y-119877118D01*
X177674236Y-119873541D01*
X177660376Y-119868582D01*
X177647069Y-119862288D01*
X177634443Y-119854720D01*
X177622620Y-119845952D01*
X177611713Y-119836066D01*
X177601827Y-119825159D01*
X177593059Y-119813336D01*
X177585491Y-119800710D01*
X177579197Y-119787403D01*
X177574238Y-119773543D01*
X177570661Y-119759264D01*
X177568501Y-119744703D01*
X177567779Y-119730000D01*
X177567779Y-119030000D01*
X177568501Y-119015297D01*
X177570661Y-119000736D01*
X177574238Y-118986457D01*
X177579197Y-118972597D01*
X177585491Y-118959290D01*
X177593059Y-118946664D01*
X177601827Y-118934841D01*
X177611713Y-118923934D01*
X177622620Y-118914048D01*
X177634443Y-118905280D01*
X177647069Y-118897712D01*
X177660376Y-118891418D01*
X177674236Y-118886459D01*
X177688515Y-118882882D01*
X177703076Y-118880722D01*
X177717779Y-118880000D01*
X178417779Y-118880000D01*
X178432482Y-118880722D01*
G37*
G36*
X146637703Y-56350722D02*
G01*
X146652264Y-56352882D01*
X146666543Y-56356459D01*
X146680403Y-56361418D01*
X146693710Y-56367712D01*
X146706336Y-56375280D01*
X146718159Y-56384048D01*
X146729066Y-56393934D01*
X146738952Y-56404841D01*
X146747720Y-56416664D01*
X146755288Y-56429290D01*
X146761582Y-56442597D01*
X146766541Y-56456457D01*
X146770118Y-56470736D01*
X146772278Y-56485297D01*
X146773000Y-56500000D01*
X146773000Y-57200000D01*
X146772278Y-57214703D01*
X146770118Y-57229264D01*
X146766541Y-57243543D01*
X146761582Y-57257403D01*
X146755288Y-57270710D01*
X146747720Y-57283336D01*
X146738952Y-57295159D01*
X146729066Y-57306066D01*
X146718159Y-57315952D01*
X146706336Y-57324720D01*
X146693710Y-57332288D01*
X146680403Y-57338582D01*
X146666543Y-57343541D01*
X146652264Y-57347118D01*
X146637703Y-57349278D01*
X146623000Y-57350000D01*
X145923000Y-57350000D01*
X145908297Y-57349278D01*
X145893736Y-57347118D01*
X145879457Y-57343541D01*
X145865597Y-57338582D01*
X145852290Y-57332288D01*
X145839664Y-57324720D01*
X145827841Y-57315952D01*
X145816934Y-57306066D01*
X145807048Y-57295159D01*
X145798280Y-57283336D01*
X145790712Y-57270710D01*
X145784418Y-57257403D01*
X145779459Y-57243543D01*
X145775882Y-57229264D01*
X145773722Y-57214703D01*
X145773000Y-57200000D01*
X145773000Y-56500000D01*
X145773722Y-56485297D01*
X145775882Y-56470736D01*
X145779459Y-56456457D01*
X145784418Y-56442597D01*
X145790712Y-56429290D01*
X145798280Y-56416664D01*
X145807048Y-56404841D01*
X145816934Y-56393934D01*
X145827841Y-56384048D01*
X145839664Y-56375280D01*
X145852290Y-56367712D01*
X145865597Y-56361418D01*
X145879457Y-56356459D01*
X145893736Y-56352882D01*
X145908297Y-56350722D01*
X145923000Y-56350000D01*
X146623000Y-56350000D01*
X146637703Y-56350722D01*
G37*
G36*
X148391703Y-56350722D02*
G01*
X148406264Y-56352882D01*
X148420543Y-56356459D01*
X148434403Y-56361418D01*
X148447710Y-56367712D01*
X148460336Y-56375280D01*
X148472159Y-56384048D01*
X148483066Y-56393934D01*
X148492952Y-56404841D01*
X148501720Y-56416664D01*
X148509288Y-56429290D01*
X148515582Y-56442597D01*
X148520541Y-56456457D01*
X148524118Y-56470736D01*
X148526278Y-56485297D01*
X148527000Y-56500000D01*
X148527000Y-57200000D01*
X148526278Y-57214703D01*
X148524118Y-57229264D01*
X148520541Y-57243543D01*
X148515582Y-57257403D01*
X148509288Y-57270710D01*
X148501720Y-57283336D01*
X148492952Y-57295159D01*
X148483066Y-57306066D01*
X148472159Y-57315952D01*
X148460336Y-57324720D01*
X148447710Y-57332288D01*
X148434403Y-57338582D01*
X148420543Y-57343541D01*
X148406264Y-57347118D01*
X148391703Y-57349278D01*
X148377000Y-57350000D01*
X147677000Y-57350000D01*
X147662297Y-57349278D01*
X147647736Y-57347118D01*
X147633457Y-57343541D01*
X147619597Y-57338582D01*
X147606290Y-57332288D01*
X147593664Y-57324720D01*
X147581841Y-57315952D01*
X147570934Y-57306066D01*
X147561048Y-57295159D01*
X147552280Y-57283336D01*
X147544712Y-57270710D01*
X147538418Y-57257403D01*
X147533459Y-57243543D01*
X147529882Y-57229264D01*
X147527722Y-57214703D01*
X147527000Y-57200000D01*
X147527000Y-56500000D01*
X147527722Y-56485297D01*
X147529882Y-56470736D01*
X147533459Y-56456457D01*
X147538418Y-56442597D01*
X147544712Y-56429290D01*
X147552280Y-56416664D01*
X147561048Y-56404841D01*
X147570934Y-56393934D01*
X147581841Y-56384048D01*
X147593664Y-56375280D01*
X147606290Y-56367712D01*
X147619597Y-56361418D01*
X147633457Y-56356459D01*
X147647736Y-56352882D01*
X147662297Y-56350722D01*
X147677000Y-56350000D01*
X148377000Y-56350000D01*
X148391703Y-56350722D01*
G37*
G36*
X161637703Y-56350722D02*
G01*
X161652264Y-56352882D01*
X161666543Y-56356459D01*
X161680403Y-56361418D01*
X161693710Y-56367712D01*
X161706336Y-56375280D01*
X161718159Y-56384048D01*
X161729066Y-56393934D01*
X161738952Y-56404841D01*
X161747720Y-56416664D01*
X161755288Y-56429290D01*
X161761582Y-56442597D01*
X161766541Y-56456457D01*
X161770118Y-56470736D01*
X161772278Y-56485297D01*
X161773000Y-56500000D01*
X161773000Y-57200000D01*
X161772278Y-57214703D01*
X161770118Y-57229264D01*
X161766541Y-57243543D01*
X161761582Y-57257403D01*
X161755288Y-57270710D01*
X161747720Y-57283336D01*
X161738952Y-57295159D01*
X161729066Y-57306066D01*
X161718159Y-57315952D01*
X161706336Y-57324720D01*
X161693710Y-57332288D01*
X161680403Y-57338582D01*
X161666543Y-57343541D01*
X161652264Y-57347118D01*
X161637703Y-57349278D01*
X161623000Y-57350000D01*
X160923000Y-57350000D01*
X160908297Y-57349278D01*
X160893736Y-57347118D01*
X160879457Y-57343541D01*
X160865597Y-57338582D01*
X160852290Y-57332288D01*
X160839664Y-57324720D01*
X160827841Y-57315952D01*
X160816934Y-57306066D01*
X160807048Y-57295159D01*
X160798280Y-57283336D01*
X160790712Y-57270710D01*
X160784418Y-57257403D01*
X160779459Y-57243543D01*
X160775882Y-57229264D01*
X160773722Y-57214703D01*
X160773000Y-57200000D01*
X160773000Y-56500000D01*
X160773722Y-56485297D01*
X160775882Y-56470736D01*
X160779459Y-56456457D01*
X160784418Y-56442597D01*
X160790712Y-56429290D01*
X160798280Y-56416664D01*
X160807048Y-56404841D01*
X160816934Y-56393934D01*
X160827841Y-56384048D01*
X160839664Y-56375280D01*
X160852290Y-56367712D01*
X160865597Y-56361418D01*
X160879457Y-56356459D01*
X160893736Y-56352882D01*
X160908297Y-56350722D01*
X160923000Y-56350000D01*
X161623000Y-56350000D01*
X161637703Y-56350722D01*
G37*
G36*
X163391703Y-56350722D02*
G01*
X163406264Y-56352882D01*
X163420543Y-56356459D01*
X163434403Y-56361418D01*
X163447710Y-56367712D01*
X163460336Y-56375280D01*
X163472159Y-56384048D01*
X163483066Y-56393934D01*
X163492952Y-56404841D01*
X163501720Y-56416664D01*
X163509288Y-56429290D01*
X163515582Y-56442597D01*
X163520541Y-56456457D01*
X163524118Y-56470736D01*
X163526278Y-56485297D01*
X163527000Y-56500000D01*
X163527000Y-57200000D01*
X163526278Y-57214703D01*
X163524118Y-57229264D01*
X163520541Y-57243543D01*
X163515582Y-57257403D01*
X163509288Y-57270710D01*
X163501720Y-57283336D01*
X163492952Y-57295159D01*
X163483066Y-57306066D01*
X163472159Y-57315952D01*
X163460336Y-57324720D01*
X163447710Y-57332288D01*
X163434403Y-57338582D01*
X163420543Y-57343541D01*
X163406264Y-57347118D01*
X163391703Y-57349278D01*
X163377000Y-57350000D01*
X162677000Y-57350000D01*
X162662297Y-57349278D01*
X162647736Y-57347118D01*
X162633457Y-57343541D01*
X162619597Y-57338582D01*
X162606290Y-57332288D01*
X162593664Y-57324720D01*
X162581841Y-57315952D01*
X162570934Y-57306066D01*
X162561048Y-57295159D01*
X162552280Y-57283336D01*
X162544712Y-57270710D01*
X162538418Y-57257403D01*
X162533459Y-57243543D01*
X162529882Y-57229264D01*
X162527722Y-57214703D01*
X162527000Y-57200000D01*
X162527000Y-56500000D01*
X162527722Y-56485297D01*
X162529882Y-56470736D01*
X162533459Y-56456457D01*
X162538418Y-56442597D01*
X162544712Y-56429290D01*
X162552280Y-56416664D01*
X162561048Y-56404841D01*
X162570934Y-56393934D01*
X162581841Y-56384048D01*
X162593664Y-56375280D01*
X162606290Y-56367712D01*
X162619597Y-56361418D01*
X162633457Y-56356459D01*
X162647736Y-56352882D01*
X162662297Y-56350722D01*
X162677000Y-56350000D01*
X163377000Y-56350000D01*
X163391703Y-56350722D01*
G37*
G36*
X176678482Y-56350722D02*
G01*
X176693043Y-56352882D01*
X176707322Y-56356459D01*
X176721182Y-56361418D01*
X176734489Y-56367712D01*
X176747115Y-56375280D01*
X176758938Y-56384048D01*
X176769845Y-56393934D01*
X176779731Y-56404841D01*
X176788499Y-56416664D01*
X176796067Y-56429290D01*
X176802361Y-56442597D01*
X176807320Y-56456457D01*
X176810897Y-56470736D01*
X176813057Y-56485297D01*
X176813779Y-56500000D01*
X176813779Y-57200000D01*
X176813057Y-57214703D01*
X176810897Y-57229264D01*
X176807320Y-57243543D01*
X176802361Y-57257403D01*
X176796067Y-57270710D01*
X176788499Y-57283336D01*
X176779731Y-57295159D01*
X176769845Y-57306066D01*
X176758938Y-57315952D01*
X176747115Y-57324720D01*
X176734489Y-57332288D01*
X176721182Y-57338582D01*
X176707322Y-57343541D01*
X176693043Y-57347118D01*
X176678482Y-57349278D01*
X176663779Y-57350000D01*
X175963779Y-57350000D01*
X175949076Y-57349278D01*
X175934515Y-57347118D01*
X175920236Y-57343541D01*
X175906376Y-57338582D01*
X175893069Y-57332288D01*
X175880443Y-57324720D01*
X175868620Y-57315952D01*
X175857713Y-57306066D01*
X175847827Y-57295159D01*
X175839059Y-57283336D01*
X175831491Y-57270710D01*
X175825197Y-57257403D01*
X175820238Y-57243543D01*
X175816661Y-57229264D01*
X175814501Y-57214703D01*
X175813779Y-57200000D01*
X175813779Y-56500000D01*
X175814501Y-56485297D01*
X175816661Y-56470736D01*
X175820238Y-56456457D01*
X175825197Y-56442597D01*
X175831491Y-56429290D01*
X175839059Y-56416664D01*
X175847827Y-56404841D01*
X175857713Y-56393934D01*
X175868620Y-56384048D01*
X175880443Y-56375280D01*
X175893069Y-56367712D01*
X175906376Y-56361418D01*
X175920236Y-56356459D01*
X175934515Y-56352882D01*
X175949076Y-56350722D01*
X175963779Y-56350000D01*
X176663779Y-56350000D01*
X176678482Y-56350722D01*
G37*
G36*
X178432482Y-56350722D02*
G01*
X178447043Y-56352882D01*
X178461322Y-56356459D01*
X178475182Y-56361418D01*
X178488489Y-56367712D01*
X178501115Y-56375280D01*
X178512938Y-56384048D01*
X178523845Y-56393934D01*
X178533731Y-56404841D01*
X178542499Y-56416664D01*
X178550067Y-56429290D01*
X178556361Y-56442597D01*
X178561320Y-56456457D01*
X178564897Y-56470736D01*
X178567057Y-56485297D01*
X178567779Y-56500000D01*
X178567779Y-57200000D01*
X178567057Y-57214703D01*
X178564897Y-57229264D01*
X178561320Y-57243543D01*
X178556361Y-57257403D01*
X178550067Y-57270710D01*
X178542499Y-57283336D01*
X178533731Y-57295159D01*
X178523845Y-57306066D01*
X178512938Y-57315952D01*
X178501115Y-57324720D01*
X178488489Y-57332288D01*
X178475182Y-57338582D01*
X178461322Y-57343541D01*
X178447043Y-57347118D01*
X178432482Y-57349278D01*
X178417779Y-57350000D01*
X177717779Y-57350000D01*
X177703076Y-57349278D01*
X177688515Y-57347118D01*
X177674236Y-57343541D01*
X177660376Y-57338582D01*
X177647069Y-57332288D01*
X177634443Y-57324720D01*
X177622620Y-57315952D01*
X177611713Y-57306066D01*
X177601827Y-57295159D01*
X177593059Y-57283336D01*
X177585491Y-57270710D01*
X177579197Y-57257403D01*
X177574238Y-57243543D01*
X177570661Y-57229264D01*
X177568501Y-57214703D01*
X177567779Y-57200000D01*
X177567779Y-56500000D01*
X177568501Y-56485297D01*
X177570661Y-56470736D01*
X177574238Y-56456457D01*
X177579197Y-56442597D01*
X177585491Y-56429290D01*
X177593059Y-56416664D01*
X177601827Y-56404841D01*
X177611713Y-56393934D01*
X177622620Y-56384048D01*
X177634443Y-56375280D01*
X177647069Y-56367712D01*
X177660376Y-56361418D01*
X177674236Y-56356459D01*
X177688515Y-56352882D01*
X177703076Y-56350722D01*
X177717779Y-56350000D01*
X178417779Y-56350000D01*
X178432482Y-56350722D01*
G37*
D12*
X174950000Y-89472372D03*
X174950000Y-88472372D03*
X174950000Y-87472372D03*
X174950000Y-86472372D03*
D13*
X177725000Y-91372372D03*
X177725000Y-84572372D03*
D14*
X43084498Y-54540607D03*
X39784498Y-54540607D03*
X43084498Y-51590607D03*
X39784498Y-51590607D03*
X163799216Y-89381979D03*
X160499216Y-89381979D03*
X163799216Y-86431979D03*
X160499216Y-86431979D03*
X148757664Y-124679542D03*
X145457664Y-124679542D03*
X148757664Y-121729542D03*
X145457664Y-121729542D03*
X163799216Y-124679542D03*
X160499216Y-124679542D03*
X163799216Y-121729542D03*
X160499216Y-121729542D03*
X178840779Y-124679542D03*
X175540779Y-124679542D03*
X178840779Y-121729542D03*
X175540779Y-121729542D03*
X43084498Y-69461847D03*
X39784498Y-69461847D03*
X43084498Y-66511847D03*
X39784498Y-66511847D03*
X43084498Y-95503815D03*
X39784498Y-95503815D03*
X43084498Y-92553815D03*
X39784498Y-92553815D03*
X71544310Y-122756309D03*
X68244310Y-122756309D03*
X71544310Y-119806309D03*
X68244310Y-119806309D03*
X95620839Y-122756309D03*
X92320839Y-122756309D03*
X95620839Y-119806309D03*
X92320839Y-119806309D03*
X119697369Y-122756309D03*
X116397369Y-122756309D03*
X119697369Y-119806309D03*
X116397369Y-119806309D03*
X148757664Y-54528472D03*
X145457664Y-54528472D03*
X148757664Y-51578472D03*
X145457664Y-51578472D03*
X163799216Y-54528472D03*
X160499216Y-54528472D03*
X163799216Y-51578472D03*
X160499216Y-51578472D03*
X178840779Y-54528472D03*
X175540779Y-54528472D03*
X178840779Y-51578472D03*
X175540779Y-51578472D03*
D10*
G36*
X59087252Y-46335601D02*
G01*
X59099386Y-46337401D01*
X59111286Y-46340381D01*
X59122835Y-46344514D01*
X59133925Y-46349759D01*
X59144446Y-46356065D01*
X59154299Y-46363373D01*
X59163388Y-46371611D01*
X59171626Y-46380700D01*
X59178934Y-46390553D01*
X59185240Y-46401074D01*
X59190485Y-46412164D01*
X59194618Y-46423713D01*
X59197598Y-46435613D01*
X59199398Y-46447747D01*
X59200000Y-46459999D01*
X59200000Y-46460001D01*
X59199398Y-46472253D01*
X59197598Y-46484387D01*
X59194618Y-46496287D01*
X59190485Y-46507836D01*
X59185240Y-46518926D01*
X59178934Y-46529447D01*
X59171626Y-46539300D01*
X59163388Y-46548389D01*
X59154299Y-46556627D01*
X59144446Y-46563935D01*
X59133925Y-46570241D01*
X59122835Y-46575486D01*
X59111286Y-46579619D01*
X59099386Y-46582599D01*
X59087252Y-46584399D01*
X59075000Y-46585001D01*
X58825000Y-46585001D01*
X58812748Y-46584399D01*
X58800614Y-46582599D01*
X58788714Y-46579619D01*
X58777165Y-46575486D01*
X58766075Y-46570241D01*
X58755554Y-46563935D01*
X58745701Y-46556627D01*
X58736612Y-46548389D01*
X58728374Y-46539300D01*
X58721066Y-46529447D01*
X58714760Y-46518926D01*
X58709515Y-46507836D01*
X58705382Y-46496287D01*
X58702402Y-46484387D01*
X58700602Y-46472253D01*
X58700000Y-46460001D01*
X58700000Y-46459999D01*
X58700602Y-46447747D01*
X58702402Y-46435613D01*
X58705382Y-46423713D01*
X58709515Y-46412164D01*
X58714760Y-46401074D01*
X58721066Y-46390553D01*
X58728374Y-46380700D01*
X58736612Y-46371611D01*
X58745701Y-46363373D01*
X58755554Y-46356065D01*
X58766075Y-46349759D01*
X58777165Y-46344514D01*
X58788714Y-46340381D01*
X58800614Y-46337401D01*
X58812748Y-46335601D01*
X58825000Y-46334999D01*
X59075000Y-46334999D01*
X59087252Y-46335601D01*
G37*
G36*
X59087252Y-46985601D02*
G01*
X59099386Y-46987401D01*
X59111286Y-46990381D01*
X59122835Y-46994514D01*
X59133925Y-46999759D01*
X59144446Y-47006065D01*
X59154299Y-47013373D01*
X59163388Y-47021611D01*
X59171626Y-47030700D01*
X59178934Y-47040553D01*
X59185240Y-47051074D01*
X59190485Y-47062164D01*
X59194618Y-47073713D01*
X59197598Y-47085613D01*
X59199398Y-47097747D01*
X59200000Y-47109999D01*
X59200000Y-47110001D01*
X59199398Y-47122253D01*
X59197598Y-47134387D01*
X59194618Y-47146287D01*
X59190485Y-47157836D01*
X59185240Y-47168926D01*
X59178934Y-47179447D01*
X59171626Y-47189300D01*
X59163388Y-47198389D01*
X59154299Y-47206627D01*
X59144446Y-47213935D01*
X59133925Y-47220241D01*
X59122835Y-47225486D01*
X59111286Y-47229619D01*
X59099386Y-47232599D01*
X59087252Y-47234399D01*
X59075000Y-47235001D01*
X58825000Y-47235001D01*
X58812748Y-47234399D01*
X58800614Y-47232599D01*
X58788714Y-47229619D01*
X58777165Y-47225486D01*
X58766075Y-47220241D01*
X58755554Y-47213935D01*
X58745701Y-47206627D01*
X58736612Y-47198389D01*
X58728374Y-47189300D01*
X58721066Y-47179447D01*
X58714760Y-47168926D01*
X58709515Y-47157836D01*
X58705382Y-47146287D01*
X58702402Y-47134387D01*
X58700602Y-47122253D01*
X58700000Y-47110001D01*
X58700000Y-47109999D01*
X58700602Y-47097747D01*
X58702402Y-47085613D01*
X58705382Y-47073713D01*
X58709515Y-47062164D01*
X58714760Y-47051074D01*
X58721066Y-47040553D01*
X58728374Y-47030700D01*
X58736612Y-47021611D01*
X58745701Y-47013373D01*
X58755554Y-47006065D01*
X58766075Y-46999759D01*
X58777165Y-46994514D01*
X58788714Y-46990381D01*
X58800614Y-46987401D01*
X58812748Y-46985601D01*
X58825000Y-46984999D01*
X59075000Y-46984999D01*
X59087252Y-46985601D01*
G37*
G36*
X59087252Y-47635601D02*
G01*
X59099386Y-47637401D01*
X59111286Y-47640381D01*
X59122835Y-47644514D01*
X59133925Y-47649759D01*
X59144446Y-47656065D01*
X59154299Y-47663373D01*
X59163388Y-47671611D01*
X59171626Y-47680700D01*
X59178934Y-47690553D01*
X59185240Y-47701074D01*
X59190485Y-47712164D01*
X59194618Y-47723713D01*
X59197598Y-47735613D01*
X59199398Y-47747747D01*
X59200000Y-47759999D01*
X59200000Y-47760001D01*
X59199398Y-47772253D01*
X59197598Y-47784387D01*
X59194618Y-47796287D01*
X59190485Y-47807836D01*
X59185240Y-47818926D01*
X59178934Y-47829447D01*
X59171626Y-47839300D01*
X59163388Y-47848389D01*
X59154299Y-47856627D01*
X59144446Y-47863935D01*
X59133925Y-47870241D01*
X59122835Y-47875486D01*
X59111286Y-47879619D01*
X59099386Y-47882599D01*
X59087252Y-47884399D01*
X59075000Y-47885001D01*
X58825000Y-47885001D01*
X58812748Y-47884399D01*
X58800614Y-47882599D01*
X58788714Y-47879619D01*
X58777165Y-47875486D01*
X58766075Y-47870241D01*
X58755554Y-47863935D01*
X58745701Y-47856627D01*
X58736612Y-47848389D01*
X58728374Y-47839300D01*
X58721066Y-47829447D01*
X58714760Y-47818926D01*
X58709515Y-47807836D01*
X58705382Y-47796287D01*
X58702402Y-47784387D01*
X58700602Y-47772253D01*
X58700000Y-47760001D01*
X58700000Y-47759999D01*
X58700602Y-47747747D01*
X58702402Y-47735613D01*
X58705382Y-47723713D01*
X58709515Y-47712164D01*
X58714760Y-47701074D01*
X58721066Y-47690553D01*
X58728374Y-47680700D01*
X58736612Y-47671611D01*
X58745701Y-47663373D01*
X58755554Y-47656065D01*
X58766075Y-47649759D01*
X58777165Y-47644514D01*
X58788714Y-47640381D01*
X58800614Y-47637401D01*
X58812748Y-47635601D01*
X58825000Y-47634999D01*
X59075000Y-47634999D01*
X59087252Y-47635601D01*
G37*
G36*
X57187252Y-47640601D02*
G01*
X57199386Y-47642401D01*
X57211286Y-47645381D01*
X57222835Y-47649514D01*
X57233925Y-47654759D01*
X57244446Y-47661065D01*
X57254299Y-47668373D01*
X57263388Y-47676611D01*
X57271626Y-47685700D01*
X57278934Y-47695553D01*
X57285240Y-47706074D01*
X57290485Y-47717164D01*
X57294618Y-47728713D01*
X57297598Y-47740613D01*
X57299398Y-47752747D01*
X57300000Y-47764999D01*
X57300000Y-47765001D01*
X57299398Y-47777253D01*
X57297598Y-47789387D01*
X57294618Y-47801287D01*
X57290485Y-47812836D01*
X57285240Y-47823926D01*
X57278934Y-47834447D01*
X57271626Y-47844300D01*
X57263388Y-47853389D01*
X57254299Y-47861627D01*
X57244446Y-47868935D01*
X57233925Y-47875241D01*
X57222835Y-47880486D01*
X57211286Y-47884619D01*
X57199386Y-47887599D01*
X57187252Y-47889399D01*
X57175000Y-47890001D01*
X56925000Y-47890001D01*
X56912748Y-47889399D01*
X56900614Y-47887599D01*
X56888714Y-47884619D01*
X56877165Y-47880486D01*
X56866075Y-47875241D01*
X56855554Y-47868935D01*
X56845701Y-47861627D01*
X56836612Y-47853389D01*
X56828374Y-47844300D01*
X56821066Y-47834447D01*
X56814760Y-47823926D01*
X56809515Y-47812836D01*
X56805382Y-47801287D01*
X56802402Y-47789387D01*
X56800602Y-47777253D01*
X56800000Y-47765001D01*
X56800000Y-47764999D01*
X56800602Y-47752747D01*
X56802402Y-47740613D01*
X56805382Y-47728713D01*
X56809515Y-47717164D01*
X56814760Y-47706074D01*
X56821066Y-47695553D01*
X56828374Y-47685700D01*
X56836612Y-47676611D01*
X56845701Y-47668373D01*
X56855554Y-47661065D01*
X56866075Y-47654759D01*
X56877165Y-47649514D01*
X56888714Y-47645381D01*
X56900614Y-47642401D01*
X56912748Y-47640601D01*
X56925000Y-47639999D01*
X57175000Y-47639999D01*
X57187252Y-47640601D01*
G37*
G36*
X57187252Y-46985601D02*
G01*
X57199386Y-46987401D01*
X57211286Y-46990381D01*
X57222835Y-46994514D01*
X57233925Y-46999759D01*
X57244446Y-47006065D01*
X57254299Y-47013373D01*
X57263388Y-47021611D01*
X57271626Y-47030700D01*
X57278934Y-47040553D01*
X57285240Y-47051074D01*
X57290485Y-47062164D01*
X57294618Y-47073713D01*
X57297598Y-47085613D01*
X57299398Y-47097747D01*
X57300000Y-47109999D01*
X57300000Y-47110001D01*
X57299398Y-47122253D01*
X57297598Y-47134387D01*
X57294618Y-47146287D01*
X57290485Y-47157836D01*
X57285240Y-47168926D01*
X57278934Y-47179447D01*
X57271626Y-47189300D01*
X57263388Y-47198389D01*
X57254299Y-47206627D01*
X57244446Y-47213935D01*
X57233925Y-47220241D01*
X57222835Y-47225486D01*
X57211286Y-47229619D01*
X57199386Y-47232599D01*
X57187252Y-47234399D01*
X57175000Y-47235001D01*
X56925000Y-47235001D01*
X56912748Y-47234399D01*
X56900614Y-47232599D01*
X56888714Y-47229619D01*
X56877165Y-47225486D01*
X56866075Y-47220241D01*
X56855554Y-47213935D01*
X56845701Y-47206627D01*
X56836612Y-47198389D01*
X56828374Y-47189300D01*
X56821066Y-47179447D01*
X56814760Y-47168926D01*
X56809515Y-47157836D01*
X56805382Y-47146287D01*
X56802402Y-47134387D01*
X56800602Y-47122253D01*
X56800000Y-47110001D01*
X56800000Y-47109999D01*
X56800602Y-47097747D01*
X56802402Y-47085613D01*
X56805382Y-47073713D01*
X56809515Y-47062164D01*
X56814760Y-47051074D01*
X56821066Y-47040553D01*
X56828374Y-47030700D01*
X56836612Y-47021611D01*
X56845701Y-47013373D01*
X56855554Y-47006065D01*
X56866075Y-46999759D01*
X56877165Y-46994514D01*
X56888714Y-46990381D01*
X56900614Y-46987401D01*
X56912748Y-46985601D01*
X56925000Y-46984999D01*
X57175000Y-46984999D01*
X57187252Y-46985601D01*
G37*
G36*
X57187252Y-46335601D02*
G01*
X57199386Y-46337401D01*
X57211286Y-46340381D01*
X57222835Y-46344514D01*
X57233925Y-46349759D01*
X57244446Y-46356065D01*
X57254299Y-46363373D01*
X57263388Y-46371611D01*
X57271626Y-46380700D01*
X57278934Y-46390553D01*
X57285240Y-46401074D01*
X57290485Y-46412164D01*
X57294618Y-46423713D01*
X57297598Y-46435613D01*
X57299398Y-46447747D01*
X57300000Y-46459999D01*
X57300000Y-46460001D01*
X57299398Y-46472253D01*
X57297598Y-46484387D01*
X57294618Y-46496287D01*
X57290485Y-46507836D01*
X57285240Y-46518926D01*
X57278934Y-46529447D01*
X57271626Y-46539300D01*
X57263388Y-46548389D01*
X57254299Y-46556627D01*
X57244446Y-46563935D01*
X57233925Y-46570241D01*
X57222835Y-46575486D01*
X57211286Y-46579619D01*
X57199386Y-46582599D01*
X57187252Y-46584399D01*
X57175000Y-46585001D01*
X56925000Y-46585001D01*
X56912748Y-46584399D01*
X56900614Y-46582599D01*
X56888714Y-46579619D01*
X56877165Y-46575486D01*
X56866075Y-46570241D01*
X56855554Y-46563935D01*
X56845701Y-46556627D01*
X56836612Y-46548389D01*
X56828374Y-46539300D01*
X56821066Y-46529447D01*
X56814760Y-46518926D01*
X56809515Y-46507836D01*
X56805382Y-46496287D01*
X56802402Y-46484387D01*
X56800602Y-46472253D01*
X56800000Y-46460001D01*
X56800000Y-46459999D01*
X56800602Y-46447747D01*
X56802402Y-46435613D01*
X56805382Y-46423713D01*
X56809515Y-46412164D01*
X56814760Y-46401074D01*
X56821066Y-46390553D01*
X56828374Y-46380700D01*
X56836612Y-46371611D01*
X56845701Y-46363373D01*
X56855554Y-46356065D01*
X56866075Y-46349759D01*
X56877165Y-46344514D01*
X56888714Y-46340381D01*
X56900614Y-46337401D01*
X56912748Y-46335601D01*
X56925000Y-46334999D01*
X57175000Y-46334999D01*
X57187252Y-46335601D01*
G37*
G36*
X148224505Y-126301204D02*
G01*
X148248773Y-126304804D01*
X148272572Y-126310765D01*
X148295671Y-126319030D01*
X148317850Y-126329520D01*
X148338893Y-126342132D01*
X148358599Y-126356747D01*
X148376777Y-126373223D01*
X148393253Y-126391401D01*
X148407868Y-126411107D01*
X148420480Y-126432150D01*
X148430970Y-126454329D01*
X148439235Y-126477428D01*
X148445196Y-126501227D01*
X148448796Y-126525495D01*
X148450000Y-126549999D01*
X148450000Y-127450001D01*
X148448796Y-127474505D01*
X148445196Y-127498773D01*
X148439235Y-127522572D01*
X148430970Y-127545671D01*
X148420480Y-127567850D01*
X148407868Y-127588893D01*
X148393253Y-127608599D01*
X148376777Y-127626777D01*
X148358599Y-127643253D01*
X148338893Y-127657868D01*
X148317850Y-127670480D01*
X148295671Y-127680970D01*
X148272572Y-127689235D01*
X148248773Y-127695196D01*
X148224505Y-127698796D01*
X148200001Y-127700000D01*
X147549999Y-127700000D01*
X147525495Y-127698796D01*
X147501227Y-127695196D01*
X147477428Y-127689235D01*
X147454329Y-127680970D01*
X147432150Y-127670480D01*
X147411107Y-127657868D01*
X147391401Y-127643253D01*
X147373223Y-127626777D01*
X147356747Y-127608599D01*
X147342132Y-127588893D01*
X147329520Y-127567850D01*
X147319030Y-127545671D01*
X147310765Y-127522572D01*
X147304804Y-127498773D01*
X147301204Y-127474505D01*
X147300000Y-127450001D01*
X147300000Y-126549999D01*
X147301204Y-126525495D01*
X147304804Y-126501227D01*
X147310765Y-126477428D01*
X147319030Y-126454329D01*
X147329520Y-126432150D01*
X147342132Y-126411107D01*
X147356747Y-126391401D01*
X147373223Y-126373223D01*
X147391401Y-126356747D01*
X147411107Y-126342132D01*
X147432150Y-126329520D01*
X147454329Y-126319030D01*
X147477428Y-126310765D01*
X147501227Y-126304804D01*
X147525495Y-126301204D01*
X147549999Y-126300000D01*
X148200001Y-126300000D01*
X148224505Y-126301204D01*
G37*
G36*
X146174505Y-126301204D02*
G01*
X146198773Y-126304804D01*
X146222572Y-126310765D01*
X146245671Y-126319030D01*
X146267850Y-126329520D01*
X146288893Y-126342132D01*
X146308599Y-126356747D01*
X146326777Y-126373223D01*
X146343253Y-126391401D01*
X146357868Y-126411107D01*
X146370480Y-126432150D01*
X146380970Y-126454329D01*
X146389235Y-126477428D01*
X146395196Y-126501227D01*
X146398796Y-126525495D01*
X146400000Y-126549999D01*
X146400000Y-127450001D01*
X146398796Y-127474505D01*
X146395196Y-127498773D01*
X146389235Y-127522572D01*
X146380970Y-127545671D01*
X146370480Y-127567850D01*
X146357868Y-127588893D01*
X146343253Y-127608599D01*
X146326777Y-127626777D01*
X146308599Y-127643253D01*
X146288893Y-127657868D01*
X146267850Y-127670480D01*
X146245671Y-127680970D01*
X146222572Y-127689235D01*
X146198773Y-127695196D01*
X146174505Y-127698796D01*
X146150001Y-127700000D01*
X145499999Y-127700000D01*
X145475495Y-127698796D01*
X145451227Y-127695196D01*
X145427428Y-127689235D01*
X145404329Y-127680970D01*
X145382150Y-127670480D01*
X145361107Y-127657868D01*
X145341401Y-127643253D01*
X145323223Y-127626777D01*
X145306747Y-127608599D01*
X145292132Y-127588893D01*
X145279520Y-127567850D01*
X145269030Y-127545671D01*
X145260765Y-127522572D01*
X145254804Y-127498773D01*
X145251204Y-127474505D01*
X145250000Y-127450001D01*
X145250000Y-126549999D01*
X145251204Y-126525495D01*
X145254804Y-126501227D01*
X145260765Y-126477428D01*
X145269030Y-126454329D01*
X145279520Y-126432150D01*
X145292132Y-126411107D01*
X145306747Y-126391401D01*
X145323223Y-126373223D01*
X145341401Y-126356747D01*
X145361107Y-126342132D01*
X145382150Y-126329520D01*
X145404329Y-126319030D01*
X145427428Y-126310765D01*
X145451227Y-126304804D01*
X145475495Y-126301204D01*
X145499999Y-126300000D01*
X146150001Y-126300000D01*
X146174505Y-126301204D01*
G37*
G36*
X161824505Y-126301204D02*
G01*
X161848773Y-126304804D01*
X161872572Y-126310765D01*
X161895671Y-126319030D01*
X161917850Y-126329520D01*
X161938893Y-126342132D01*
X161958599Y-126356747D01*
X161976777Y-126373223D01*
X161993253Y-126391401D01*
X162007868Y-126411107D01*
X162020480Y-126432150D01*
X162030970Y-126454329D01*
X162039235Y-126477428D01*
X162045196Y-126501227D01*
X162048796Y-126525495D01*
X162050000Y-126549999D01*
X162050000Y-127450001D01*
X162048796Y-127474505D01*
X162045196Y-127498773D01*
X162039235Y-127522572D01*
X162030970Y-127545671D01*
X162020480Y-127567850D01*
X162007868Y-127588893D01*
X161993253Y-127608599D01*
X161976777Y-127626777D01*
X161958599Y-127643253D01*
X161938893Y-127657868D01*
X161917850Y-127670480D01*
X161895671Y-127680970D01*
X161872572Y-127689235D01*
X161848773Y-127695196D01*
X161824505Y-127698796D01*
X161800001Y-127700000D01*
X161149999Y-127700000D01*
X161125495Y-127698796D01*
X161101227Y-127695196D01*
X161077428Y-127689235D01*
X161054329Y-127680970D01*
X161032150Y-127670480D01*
X161011107Y-127657868D01*
X160991401Y-127643253D01*
X160973223Y-127626777D01*
X160956747Y-127608599D01*
X160942132Y-127588893D01*
X160929520Y-127567850D01*
X160919030Y-127545671D01*
X160910765Y-127522572D01*
X160904804Y-127498773D01*
X160901204Y-127474505D01*
X160900000Y-127450001D01*
X160900000Y-126549999D01*
X160901204Y-126525495D01*
X160904804Y-126501227D01*
X160910765Y-126477428D01*
X160919030Y-126454329D01*
X160929520Y-126432150D01*
X160942132Y-126411107D01*
X160956747Y-126391401D01*
X160973223Y-126373223D01*
X160991401Y-126356747D01*
X161011107Y-126342132D01*
X161032150Y-126329520D01*
X161054329Y-126319030D01*
X161077428Y-126310765D01*
X161101227Y-126304804D01*
X161125495Y-126301204D01*
X161149999Y-126300000D01*
X161800001Y-126300000D01*
X161824505Y-126301204D01*
G37*
G36*
X163874505Y-126301204D02*
G01*
X163898773Y-126304804D01*
X163922572Y-126310765D01*
X163945671Y-126319030D01*
X163967850Y-126329520D01*
X163988893Y-126342132D01*
X164008599Y-126356747D01*
X164026777Y-126373223D01*
X164043253Y-126391401D01*
X164057868Y-126411107D01*
X164070480Y-126432150D01*
X164080970Y-126454329D01*
X164089235Y-126477428D01*
X164095196Y-126501227D01*
X164098796Y-126525495D01*
X164100000Y-126549999D01*
X164100000Y-127450001D01*
X164098796Y-127474505D01*
X164095196Y-127498773D01*
X164089235Y-127522572D01*
X164080970Y-127545671D01*
X164070480Y-127567850D01*
X164057868Y-127588893D01*
X164043253Y-127608599D01*
X164026777Y-127626777D01*
X164008599Y-127643253D01*
X163988893Y-127657868D01*
X163967850Y-127670480D01*
X163945671Y-127680970D01*
X163922572Y-127689235D01*
X163898773Y-127695196D01*
X163874505Y-127698796D01*
X163850001Y-127700000D01*
X163199999Y-127700000D01*
X163175495Y-127698796D01*
X163151227Y-127695196D01*
X163127428Y-127689235D01*
X163104329Y-127680970D01*
X163082150Y-127670480D01*
X163061107Y-127657868D01*
X163041401Y-127643253D01*
X163023223Y-127626777D01*
X163006747Y-127608599D01*
X162992132Y-127588893D01*
X162979520Y-127567850D01*
X162969030Y-127545671D01*
X162960765Y-127522572D01*
X162954804Y-127498773D01*
X162951204Y-127474505D01*
X162950000Y-127450001D01*
X162950000Y-126549999D01*
X162951204Y-126525495D01*
X162954804Y-126501227D01*
X162960765Y-126477428D01*
X162969030Y-126454329D01*
X162979520Y-126432150D01*
X162992132Y-126411107D01*
X163006747Y-126391401D01*
X163023223Y-126373223D01*
X163041401Y-126356747D01*
X163061107Y-126342132D01*
X163082150Y-126329520D01*
X163104329Y-126319030D01*
X163127428Y-126310765D01*
X163151227Y-126304804D01*
X163175495Y-126301204D01*
X163199999Y-126300000D01*
X163850001Y-126300000D01*
X163874505Y-126301204D01*
G37*
G36*
X178124505Y-93801204D02*
G01*
X178148773Y-93804804D01*
X178172572Y-93810765D01*
X178195671Y-93819030D01*
X178217850Y-93829520D01*
X178238893Y-93842132D01*
X178258599Y-93856747D01*
X178276777Y-93873223D01*
X178293253Y-93891401D01*
X178307868Y-93911107D01*
X178320480Y-93932150D01*
X178330970Y-93954329D01*
X178339235Y-93977428D01*
X178345196Y-94001227D01*
X178348796Y-94025495D01*
X178350000Y-94049999D01*
X178350000Y-94950001D01*
X178348796Y-94974505D01*
X178345196Y-94998773D01*
X178339235Y-95022572D01*
X178330970Y-95045671D01*
X178320480Y-95067850D01*
X178307868Y-95088893D01*
X178293253Y-95108599D01*
X178276777Y-95126777D01*
X178258599Y-95143253D01*
X178238893Y-95157868D01*
X178217850Y-95170480D01*
X178195671Y-95180970D01*
X178172572Y-95189235D01*
X178148773Y-95195196D01*
X178124505Y-95198796D01*
X178100001Y-95200000D01*
X177449999Y-95200000D01*
X177425495Y-95198796D01*
X177401227Y-95195196D01*
X177377428Y-95189235D01*
X177354329Y-95180970D01*
X177332150Y-95170480D01*
X177311107Y-95157868D01*
X177291401Y-95143253D01*
X177273223Y-95126777D01*
X177256747Y-95108599D01*
X177242132Y-95088893D01*
X177229520Y-95067850D01*
X177219030Y-95045671D01*
X177210765Y-95022572D01*
X177204804Y-94998773D01*
X177201204Y-94974505D01*
X177200000Y-94950001D01*
X177200000Y-94049999D01*
X177201204Y-94025495D01*
X177204804Y-94001227D01*
X177210765Y-93977428D01*
X177219030Y-93954329D01*
X177229520Y-93932150D01*
X177242132Y-93911107D01*
X177256747Y-93891401D01*
X177273223Y-93873223D01*
X177291401Y-93856747D01*
X177311107Y-93842132D01*
X177332150Y-93829520D01*
X177354329Y-93819030D01*
X177377428Y-93810765D01*
X177401227Y-93804804D01*
X177425495Y-93801204D01*
X177449999Y-93800000D01*
X178100001Y-93800000D01*
X178124505Y-93801204D01*
G37*
G36*
X180174505Y-93801204D02*
G01*
X180198773Y-93804804D01*
X180222572Y-93810765D01*
X180245671Y-93819030D01*
X180267850Y-93829520D01*
X180288893Y-93842132D01*
X180308599Y-93856747D01*
X180326777Y-93873223D01*
X180343253Y-93891401D01*
X180357868Y-93911107D01*
X180370480Y-93932150D01*
X180380970Y-93954329D01*
X180389235Y-93977428D01*
X180395196Y-94001227D01*
X180398796Y-94025495D01*
X180400000Y-94049999D01*
X180400000Y-94950001D01*
X180398796Y-94974505D01*
X180395196Y-94998773D01*
X180389235Y-95022572D01*
X180380970Y-95045671D01*
X180370480Y-95067850D01*
X180357868Y-95088893D01*
X180343253Y-95108599D01*
X180326777Y-95126777D01*
X180308599Y-95143253D01*
X180288893Y-95157868D01*
X180267850Y-95170480D01*
X180245671Y-95180970D01*
X180222572Y-95189235D01*
X180198773Y-95195196D01*
X180174505Y-95198796D01*
X180150001Y-95200000D01*
X179499999Y-95200000D01*
X179475495Y-95198796D01*
X179451227Y-95195196D01*
X179427428Y-95189235D01*
X179404329Y-95180970D01*
X179382150Y-95170480D01*
X179361107Y-95157868D01*
X179341401Y-95143253D01*
X179323223Y-95126777D01*
X179306747Y-95108599D01*
X179292132Y-95088893D01*
X179279520Y-95067850D01*
X179269030Y-95045671D01*
X179260765Y-95022572D01*
X179254804Y-94998773D01*
X179251204Y-94974505D01*
X179250000Y-94950001D01*
X179250000Y-94049999D01*
X179251204Y-94025495D01*
X179254804Y-94001227D01*
X179260765Y-93977428D01*
X179269030Y-93954329D01*
X179279520Y-93932150D01*
X179292132Y-93911107D01*
X179306747Y-93891401D01*
X179323223Y-93873223D01*
X179341401Y-93856747D01*
X179361107Y-93842132D01*
X179382150Y-93829520D01*
X179404329Y-93819030D01*
X179427428Y-93810765D01*
X179451227Y-93804804D01*
X179475495Y-93801204D01*
X179499999Y-93800000D01*
X180150001Y-93800000D01*
X180174505Y-93801204D01*
G37*
G36*
X161639505Y-98996204D02*
G01*
X161663773Y-98999804D01*
X161687572Y-99005765D01*
X161710671Y-99014030D01*
X161732850Y-99024520D01*
X161753893Y-99037132D01*
X161773599Y-99051747D01*
X161791777Y-99068223D01*
X161808253Y-99086401D01*
X161822868Y-99106107D01*
X161835480Y-99127150D01*
X161845970Y-99149329D01*
X161854235Y-99172428D01*
X161860196Y-99196227D01*
X161863796Y-99220495D01*
X161865000Y-99244999D01*
X161865000Y-100145001D01*
X161863796Y-100169505D01*
X161860196Y-100193773D01*
X161854235Y-100217572D01*
X161845970Y-100240671D01*
X161835480Y-100262850D01*
X161822868Y-100283893D01*
X161808253Y-100303599D01*
X161791777Y-100321777D01*
X161773599Y-100338253D01*
X161753893Y-100352868D01*
X161732850Y-100365480D01*
X161710671Y-100375970D01*
X161687572Y-100384235D01*
X161663773Y-100390196D01*
X161639505Y-100393796D01*
X161615001Y-100395000D01*
X160964999Y-100395000D01*
X160940495Y-100393796D01*
X160916227Y-100390196D01*
X160892428Y-100384235D01*
X160869329Y-100375970D01*
X160847150Y-100365480D01*
X160826107Y-100352868D01*
X160806401Y-100338253D01*
X160788223Y-100321777D01*
X160771747Y-100303599D01*
X160757132Y-100283893D01*
X160744520Y-100262850D01*
X160734030Y-100240671D01*
X160725765Y-100217572D01*
X160719804Y-100193773D01*
X160716204Y-100169505D01*
X160715000Y-100145001D01*
X160715000Y-99244999D01*
X160716204Y-99220495D01*
X160719804Y-99196227D01*
X160725765Y-99172428D01*
X160734030Y-99149329D01*
X160744520Y-99127150D01*
X160757132Y-99106107D01*
X160771747Y-99086401D01*
X160788223Y-99068223D01*
X160806401Y-99051747D01*
X160826107Y-99037132D01*
X160847150Y-99024520D01*
X160869329Y-99014030D01*
X160892428Y-99005765D01*
X160916227Y-98999804D01*
X160940495Y-98996204D01*
X160964999Y-98995000D01*
X161615001Y-98995000D01*
X161639505Y-98996204D01*
G37*
G36*
X159589505Y-98996204D02*
G01*
X159613773Y-98999804D01*
X159637572Y-99005765D01*
X159660671Y-99014030D01*
X159682850Y-99024520D01*
X159703893Y-99037132D01*
X159723599Y-99051747D01*
X159741777Y-99068223D01*
X159758253Y-99086401D01*
X159772868Y-99106107D01*
X159785480Y-99127150D01*
X159795970Y-99149329D01*
X159804235Y-99172428D01*
X159810196Y-99196227D01*
X159813796Y-99220495D01*
X159815000Y-99244999D01*
X159815000Y-100145001D01*
X159813796Y-100169505D01*
X159810196Y-100193773D01*
X159804235Y-100217572D01*
X159795970Y-100240671D01*
X159785480Y-100262850D01*
X159772868Y-100283893D01*
X159758253Y-100303599D01*
X159741777Y-100321777D01*
X159723599Y-100338253D01*
X159703893Y-100352868D01*
X159682850Y-100365480D01*
X159660671Y-100375970D01*
X159637572Y-100384235D01*
X159613773Y-100390196D01*
X159589505Y-100393796D01*
X159565001Y-100395000D01*
X158914999Y-100395000D01*
X158890495Y-100393796D01*
X158866227Y-100390196D01*
X158842428Y-100384235D01*
X158819329Y-100375970D01*
X158797150Y-100365480D01*
X158776107Y-100352868D01*
X158756401Y-100338253D01*
X158738223Y-100321777D01*
X158721747Y-100303599D01*
X158707132Y-100283893D01*
X158694520Y-100262850D01*
X158684030Y-100240671D01*
X158675765Y-100217572D01*
X158669804Y-100193773D01*
X158666204Y-100169505D01*
X158665000Y-100145001D01*
X158665000Y-99244999D01*
X158666204Y-99220495D01*
X158669804Y-99196227D01*
X158675765Y-99172428D01*
X158684030Y-99149329D01*
X158694520Y-99127150D01*
X158707132Y-99106107D01*
X158721747Y-99086401D01*
X158738223Y-99068223D01*
X158756401Y-99051747D01*
X158776107Y-99037132D01*
X158797150Y-99024520D01*
X158819329Y-99014030D01*
X158842428Y-99005765D01*
X158866227Y-98999804D01*
X158890495Y-98996204D01*
X158914999Y-98995000D01*
X159565001Y-98995000D01*
X159589505Y-98996204D01*
G37*
M02*
