M48
; DRILL file {KiCad (5.1.5)-3} date 5/18/2020 11:19:22 PM
; FORMAT={-:-/ absolute / metric / decimal}
; #@! TF.CreationDate,2020-05-18T23:19:22-04:00
; #@! TF.GenerationSoftware,Kicad,Pcbnew,(5.1.5)-3
FMAT,2
METRIC
T1C0.400
T2C0.600
T3C0.800
T4C1.000
T5C0.900
T6C2.000
%
G90
G05
T1
X32.15Y-51.75
X32.15Y-56.75
X32.15Y-61.75
X32.15Y-66.75
X32.15Y-71.75
X32.15Y-76.75
X32.15Y-81.75
X32.15Y-81.75
X32.15Y-86.75
X32.15Y-86.75
X32.15Y-91.75
X32.15Y-91.75
X32.15Y-96.75
X32.15Y-101.75
X32.15Y-106.75
X32.15Y-106.75
X32.15Y-111.75
X32.15Y-111.75
X32.15Y-116.75
X32.15Y-121.75
X32.85Y-125.45
X34.7Y-90.3
X36.3Y-102.3
X36.4Y-57.15
X36.45Y-128.8
X36.65Y-47.4
X36.65Y-72.8
X37.15Y-111.75
X37.25Y-60.0
X37.25Y-63.35
X37.45Y-71.0
X37.55Y-96.8
X37.6Y-55.9
X37.9Y-91.05
X38.15Y-76.75
X38.15Y-81.75
X38.15Y-86.75
X39.1Y-108.85
X39.85Y-123.0
X39.95Y-128.5
X40.2Y-104.8
X40.9Y-46.4
X41.8Y-113.85
X42.85Y-63.5
X43.18Y-104.775
X43.18Y-108.585
X44.1Y-90.4
X44.15Y-76.75
X44.15Y-81.75
X44.15Y-86.75
X44.25Y-128.45
X44.45Y-57.8
X44.55Y-72.1
X44.9Y-91.6
X45.15Y-123.95
X45.5Y-61.95
X45.55Y-52.65
X45.8Y-114.65
X45.95Y-67.5
X46.45Y-56.9
X49.15Y-118.6
X49.35Y-52.6
X49.75Y-55.5
X50.3Y-114.9
X51.5Y-46.45
X51.8Y-129.3
X52.9Y-127.5
X54.65Y-125.6
X55.3Y-114.9
X55.3Y-119.9
X55.45Y-128.55
X60.3Y-114.9
X60.3Y-119.9
X60.3Y-124.9
X65.3Y-59.9
X65.3Y-109.9
X65.3Y-114.9
X65.3Y-119.9
X65.3Y-124.9
X66.2Y-105.5
X66.4Y-63.8
X69.253Y-58.67
X69.9Y-126.8
X70.3Y-64.9
X70.3Y-104.9
X70.3Y-109.9
X70.3Y-114.9
X70.3Y-119.9
X70.74Y-57.15
X72.9Y-124.787
X73.025Y-51.435
X75.3Y-59.9
X75.3Y-65.15
X75.3Y-69.9
X75.3Y-74.9
X75.3Y-79.9
X75.3Y-84.9
X75.3Y-89.9
X75.3Y-94.9
X75.3Y-99.9
X75.3Y-104.9
X75.3Y-109.9
X75.3Y-114.9
X75.3Y-119.9
X75.3Y-124.9
X80.01Y-55.245
X80.3Y-59.9
X80.3Y-65.25
X80.3Y-69.9
X80.3Y-74.9
X80.3Y-79.9
X80.3Y-84.9
X80.3Y-89.9
X80.3Y-94.9
X80.3Y-99.9
X80.3Y-104.9
X80.3Y-109.9
X80.3Y-114.9
X80.3Y-119.9
X80.3Y-124.9
X80.35Y-53.975
X80.35Y-56.6
X82.55Y-62.865
X83.185Y-47.625
X83.185Y-49.53
X84.455Y-62.23
X85.09Y-53.975
X85.3Y-59.9
X85.3Y-65.35
X85.3Y-69.9
X85.3Y-74.9
X85.3Y-79.9
X85.3Y-84.9
X85.3Y-89.9
X85.3Y-94.9
X85.3Y-99.9
X85.3Y-104.9
X85.3Y-109.9
X85.3Y-114.9
X85.3Y-119.9
X85.3Y-124.9
X85.35Y-56.6
X86.36Y-49.53
X88.265Y-47.625
X90.05Y-65.25
X90.17Y-49.53
X90.3Y-59.9
X90.3Y-69.9
X90.3Y-74.9
X90.3Y-79.9
X90.3Y-84.9
X90.3Y-89.9
X90.3Y-94.9
X90.3Y-99.9
X90.3Y-104.9
X90.3Y-109.9
X90.3Y-114.9
X90.3Y-119.9
X90.3Y-124.9
X90.35Y-56.6
X92.71Y-46.99
X92.71Y-48.895
X93.9Y-126.9
X95.0Y-70.45
X95.3Y-59.9
X95.3Y-64.9
X95.3Y-74.9
X95.3Y-79.9
X95.3Y-84.9
X95.3Y-89.9
X95.3Y-94.9
X95.3Y-99.9
X95.3Y-104.9
X95.3Y-109.9
X95.3Y-114.9
X96.5Y-48.895
X96.5Y-52.2
X96.52Y-46.99
X96.75Y-124.9
X97.9Y-57.3
X97.9Y-123.0
X97.95Y-120.0
X99.9Y-75.4
X100.05Y-126.9
X100.3Y-59.9
X100.3Y-64.9
X100.3Y-69.9
X100.3Y-79.9
X100.3Y-84.9
X100.3Y-89.9
X100.5Y-100.0
X100.5Y-101.0
X100.55Y-58.75
X101.5Y-52.2
X102.9Y-57.3
X103.0Y-98.5
X104.8Y-80.3
X105.3Y-59.9
X105.3Y-64.9
X105.3Y-69.9
X105.3Y-74.9
X105.3Y-84.9
X105.3Y-89.9
X105.7Y-95.9
X106.15Y-126.9
X106.35Y-52.2
X106.7Y-97.2
X107.9Y-57.3
X108.6Y-93.5
X109.2Y-94.9
X110.3Y-59.9
X110.3Y-64.9
X110.3Y-69.9
X110.3Y-74.9
X110.3Y-79.9
X110.49Y-46.99
X110.9Y-126.95
X111.5Y-52.2
X111.8Y-92.3
X112.9Y-57.3
X113.6Y-88.4
X113.8Y-50.8
X114.45Y-126.55
X114.7Y-103.6
X114.7Y-108.6
X115.3Y-59.9
X115.3Y-64.9
X115.3Y-69.9
X115.3Y-74.9
X115.3Y-79.9
X115.3Y-84.9
X115.55Y-127.25
X116.7Y-52.2
X117.9Y-57.3
X118.8Y-50.8
X119.7Y-103.6
X119.7Y-108.6
X120.3Y-59.9
X120.3Y-64.9
X120.3Y-69.9
X120.3Y-74.9
X120.3Y-79.9
X120.3Y-84.9
X121.5Y-52.2
X122.3Y-126.95
X122.8Y-76.0
X122.9Y-57.3
X123.7Y-78.4
X123.8Y-49.85
X123.8Y-126.95
X124.8Y-105.4
X124.8Y-111.7
X124.8Y-116.7
X125.2Y-102.9
X125.3Y-59.9
X125.3Y-64.9
X125.3Y-69.9
X125.3Y-74.9
X125.3Y-79.9
X125.3Y-84.9
X125.55Y-126.95
X126.5Y-52.2
X127.2Y-126.95
X127.9Y-57.3
X128.8Y-49.85
X128.9Y-102.9
X129.2Y-88.4
X129.2Y-92.3
X129.2Y-93.5
X129.2Y-94.9
X129.2Y-95.9
X129.2Y-97.2
X129.2Y-98.6
X129.2Y-100.0
X129.2Y-101.0
X129.5Y-106.1
X129.8Y-111.7
X129.8Y-116.7
X130.3Y-59.9
X130.3Y-64.9
X130.3Y-69.9
X130.3Y-74.9
X130.3Y-79.9
X130.3Y-84.9
X131.5Y-52.2
X132.9Y-57.3
X133.5Y-127.5
X133.8Y-49.85
X134.3Y-74.4
X134.3Y-75.7
X134.3Y-78.2
X134.5Y-83.5
X134.7Y-70.9
X134.7Y-79.9
X135.05Y-129.4
X135.3Y-59.9
X135.3Y-64.9
X136.5Y-52.2
X136.55Y-56.1
X137.9Y-57.3
X138.8Y-49.85
X139.1Y-54.1
X140.3Y-59.9
X140.3Y-124.9
X140.4Y-65.6
X141.85Y-123.25
X142.25Y-128.0
X142.35Y-124.6
X142.5Y-129.5
X142.6Y-126.05
X142.9Y-57.3
X143.0Y-121.8
X143.8Y-49.85
X144.7Y-89.9
X144.8Y-114.55
X145.05Y-56.1
X145.1Y-73.8
X145.3Y-59.9
X145.3Y-64.9
X145.3Y-69.9
X145.3Y-129.9
X145.5Y-78.1
X146.15Y-106.2
X146.15Y-111.2
X147.0Y-123.0
X147.0Y-125.5
X148.0Y-79.7
X148.0Y-84.7
X148.0Y-89.7
X148.0Y-99.65
X148.4Y-102.15
X148.5Y-109.0
X148.5Y-115.0
X148.8Y-49.85
X149.5Y-110.0
X149.7Y-62.25
X149.7Y-67.25
X149.7Y-72.25
X150.25Y-112.5
X150.85Y-75.3
X150.85Y-78.8
X151.75Y-106.2
X151.765Y-49.85
X151.85Y-55.2
X152.0Y-94.45
X152.0Y-97.12
X152.0Y-109.0
X152.0Y-123.5
X152.25Y-111.25
X152.4Y-92.05
X152.75Y-80.3
X152.9Y-52.7
X152.9Y-83.95
X152.9Y-89.1
X153.0Y-99.65
X153.0Y-115.5
X153.25Y-112.75
X153.4Y-102.15
X153.5Y-75.45
X153.67Y-50.165
X154.25Y-124.5
X154.475Y-119.25
X154.85Y-61.2
X154.85Y-66.2
X154.85Y-72.5
X154.94Y-54.61
X155.25Y-129.75
X155.5Y-62.9
X156.15Y-106.2
X156.693Y-54.458
X156.75Y-121.25
X156.8Y-69.1
X157.0Y-94.45
X157.3Y-55.95
X157.48Y-49.53
X157.48Y-51.435
X157.7Y-58.15
X157.75Y-80.3
X157.75Y-124.5
X157.85Y-83.85
X157.9Y-89.05
X158.0Y-99.65
X158.1Y-91.1
X158.4Y-102.15
X158.5Y-65.25
X158.5Y-72.5
X158.5Y-75.45
X159.0Y-127.5
X159.5Y-91.05
X159.6Y-60.65
X160.25Y-113.5
X160.45Y-93.45
X161.15Y-106.2
X161.15Y-111.2
X161.25Y-82.5
X161.29Y-49.53
X161.29Y-67.31
X161.75Y-123.5
X161.925Y-50.8
X162.0Y-93.0
X162.0Y-101.5
X162.1Y-103.0
X162.1Y-121.75
X162.14Y-53.125
X162.35Y-83.8
X162.4Y-72.3
X162.5Y-118.0
X162.75Y-80.3
X163.2Y-95.85
X163.5Y-75.45
X163.5Y-82.5
X163.6Y-98.4
X163.6Y-99.4
X163.6Y-100.4
X163.611Y-101.52
X163.799Y-94.5
X164.825Y-85.0
X164.9Y-50.65
X164.9Y-65.55
X165.05Y-112.25
X165.2Y-105.4
X165.3Y-108.9
X165.7Y-118.7
X165.735Y-114.3
X165.9Y-55.8
X165.9Y-61.3
X166.0Y-95.7
X166.37Y-109.855
X166.37Y-111.125
X166.45Y-63.4
X166.5Y-107.5
X166.64Y-68.673
X166.8Y-76.1
X167.005Y-69.85
X167.005Y-71.12
X167.005Y-104.4
X167.2Y-100.65
X167.25Y-99.3
X167.4Y-95.7
X167.5Y-94.5
X167.513Y-103.073
X167.64Y-50.165
X167.75Y-52.4
X167.8Y-55.15
X167.9Y-61.5
X168.275Y-104.4
X168.3Y-107.9
X168.605Y-103.149
X168.75Y-100.65
X168.8Y-99.3
X168.91Y-81.28
X168.91Y-88.9
X169.175Y-101.92
X169.5Y-60.4
X169.55Y-93.25
X169.642Y-86.898
X169.9Y-99.3
X170.15Y-55.25
X170.18Y-61.595
X170.18Y-74.93
X170.4Y-121.3
X170.6Y-50.2
X170.7Y-95.0
X170.7Y-103.7
X170.905Y-85.725
X171.2Y-99.3
X171.2Y-100.7
X171.247Y-91.846
X171.25Y-57.05
X171.45Y-81.28
X171.6Y-103.0
X171.6Y-104.4
X171.8Y-95.0
X172.85Y-125.65
X173.3Y-108.275
X173.445Y-111.76
X173.445Y-112.975
X173.558Y-110.439
X173.89Y-119.55
X173.99Y-74.295
X173.99Y-95.885
X173.99Y-115.57
X174.45Y-108.7
X174.5Y-126.5
X174.625Y-80.01
X175.311Y-107.036
X175.5Y-77.5
X175.895Y-67.945
X175.895Y-71.12
X175.895Y-75.565
X175.895Y-97.79
X175.895Y-99.06
X175.95Y-81.5
X176.0Y-80.0
X176.53Y-64.77
X176.6Y-93.6
X176.62Y-68.652
X176.7Y-83.0
X177.0Y-125.5
X177.15Y-86.35
X177.165Y-114.845
X177.2Y-121.75
X177.25Y-89.5
X177.45Y-81.45
X178.435Y-107.315
X178.562Y-74.549
X179.0Y-112.0
X179.172Y-76.86
X179.5Y-57.75
X180.061Y-74.549
X180.65Y-78.2
X180.65Y-127.1
X180.8Y-55.5
X180.85Y-128.85
X180.975Y-110.6
X181.05Y-94.1
X181.1Y-117.35
X181.61Y-107.95
X181.65Y-79.85
X182.0Y-64.5
X182.245Y-111.76
X182.245Y-113.03
X182.285Y-114.26
X182.3Y-94.2
X182.35Y-50.2
X182.5Y-63.15
X182.88Y-76.2
X182.88Y-103.505
X183.85Y-94.0
X185.25Y-94.0
X185.3Y-125.15
X185.75Y-66.9
X185.75Y-81.65
X186.2Y-70.05
X186.69Y-116.205
T2
X60.9Y-47.8
X134.3Y-90.2
X134.3Y-102.9
X135.7Y-120.7
X147.0Y-55.6
X149.3Y-55.9
X152.0Y-129.0
X159.15Y-56.05
X163.75Y-58.75
X172.212Y-71.323
X173.6Y-56.6
X176.675Y-95.786
X179.5Y-56.5
T3
X132.0Y-86.0
X132.0Y-102.9
X37.2Y-115.91
X37.2Y-119.91
T4
X139.5Y-63.5
X168.91Y-109.855
X168.91Y-112.395
X168.91Y-114.935
X171.45Y-109.855
X171.45Y-112.395
X171.45Y-114.935
X138.33Y-116.23
X140.87Y-67.97
X173.99Y-60.325
X173.99Y-62.865
X176.53Y-60.325
X176.53Y-62.865
X179.07Y-60.325
X179.07Y-62.865
T5
X152.0Y-127.25
X155.0Y-127.25
T6
X100.18Y-50.5
T0
M30
